<svg width="106" height="95" viewBox="0 0 106 95" fill="none" xmlns="http://www.w3.org/2000/svg">
<path d="M96.1449 55.3645C98.302 56.4504 99.7579 56.6585 101.773 58.4592C103.788 60.2599 105.972 66.2774 105.892 68.5849C102.536 66.8475 99.607 67.3452 96.6598 67.9153C98.8968 74.3943 93.1089 74.4486 89.2562 77.4528C87.5429 78.792 88.0045 82.312 82.5805 80.4027C79.1806 79.2083 79.6599 77.1361 79.2161 76.8737C73.8099 73.6975 68.812 80.0679 69.3269 83.787C67.6491 84.4476 63.0596 82.484 62.5447 82.5564C62.0298 82.6287 60.9557 85.1986 58.0262 84.6104L49.9479 80.6108C46.9119 74.892 44.2932 67.1552 44.0624 60.8119C43.9825 58.6131 43.725 54.2696 45.4206 52.9756C45.9443 52.8761 46.5213 52.8037 47.0895 52.8218C48.8383 52.867 51.3594 52.5684 51.6169 52.6227C53.4189 53.0028 55.7004 54.6949 57.7333 55.2016C57.9463 55.2559 61.6126 54.8759 61.799 54.8216C64.2491 54.0977 65.412 52.2155 67.0632 51.5368C69.3535 50.6048 74.1472 51.9621 74.4579 48.3064C76.7305 50.0709 79.0918 50.9487 81.9147 51.4011C82.6427 51.5187 83.0066 50.5596 83.5304 50.7224C85.1105 51.2201 89.8776 54.2425 92.8781 55.4007C94.4493 56.007 95.8519 57.3915 96.1449 55.3826V55.3645ZM99.1898 66.4403C101.684 62.9203 90.9784 57.4548 88.7857 59.6627C86.309 62.1602 96.2869 66.4222 99.1898 66.4403ZM81.826 62.5584C85.7319 60.6943 73.0997 54.0524 71.413 55.7717C68.7321 58.5135 79.5978 63.6171 81.826 62.5584ZM68.4125 67.499C66.4684 66.377 65.3233 64.2957 63.3081 63.3818C57.6622 60.8119 53.3035 63.1556 60.0147 66.5851C62.6068 67.9062 64.9682 68.8745 67.7734 69.2093L68.4125 67.5081V67.499Z" fill="#6D6C71"/>
<path d="M105.999 68.2071C105.91 70.5508 105.493 78.2333 104.818 79.9435C104.339 81.1741 95.9058 90.413 94.8583 90.9831C94.1126 91.3994 92.1063 90.5126 90.4996 90.965C86.9398 91.9785 86.9664 95.218 80.4772 94.304C76.4292 93.734 75.9676 93.3539 71.9728 93.2182C64.2674 92.9377 54.7511 87.9517 50.2947 82.0338C49.7177 81.2646 50.1882 80.4593 50.0639 80.224L58.1422 84.2236C61.0716 84.8118 62.1369 82.2509 62.6607 82.1695C63.1844 82.0881 67.7651 84.0607 69.4428 83.4002C68.928 79.672 73.9258 73.3107 79.332 76.4868C79.7848 76.7492 79.2965 78.8214 82.6965 80.0159C88.1116 81.9252 87.65 78.4052 89.3722 77.0659C93.216 74.0617 99.0128 74.0074 96.7757 67.5285C99.723 66.9584 102.652 66.4697 106.008 68.1981L105.999 68.2071Z" fill="#48474B"/>
<path d="M47.0894 52.8036C47.7464 49.8808 51.9897 50.0618 53.268 49.3198C55.3896 48.0982 56.3839 45.655 59.6063 45.1121C63.601 44.4424 66.3707 46.9852 69.2647 47.1571C70.3566 47.2205 71.0668 46.1527 71.9012 46.0622C78.4703 45.3202 83.557 47.1662 89.5225 51.2381C92.0436 52.9574 91.9015 53.2379 96.136 55.3735C95.843 57.3823 94.4404 55.9888 92.8692 55.3916C89.8775 54.2333 85.1016 51.22 83.5215 50.7133C82.9977 50.5504 82.6338 51.5096 81.9058 51.392C79.0829 50.9305 76.7215 50.0527 74.449 48.2973C74.1383 51.953 69.3535 50.5957 67.0543 51.5277C65.3942 52.1973 64.2402 54.0885 61.7901 54.8124C61.6037 54.8667 57.9374 55.2468 57.7243 55.1925C55.6914 54.6858 53.41 53.0027 51.6079 52.6136C51.3505 52.5593 48.8294 52.8579 47.0806 52.8126L47.0894 52.8036Z" fill="#929194"/>
<path d="M99.1895 66.4403C96.2867 66.4222 86.3176 62.1602 88.7855 59.6627C90.9781 57.4548 101.684 62.9203 99.1895 66.4403Z" fill="#414045"/>
<path d="M81.8257 62.5583C79.5976 63.617 68.7319 58.5225 71.4128 55.7716C73.0906 54.0523 85.7228 60.6942 81.8257 62.5583Z" fill="#3E3D43"/>
<path d="M68.4123 67.4991L67.7732 69.2002C64.968 68.8654 62.5978 67.8972 60.0145 66.5761C53.3034 63.1466 57.6709 60.8029 63.308 63.3728C65.3231 64.2867 66.4682 66.377 68.4123 67.49V67.4991Z" fill="#3E3D43"/>
<path d="M35.4122 2.15784C35.5986 1.98591 35.6075 1.21676 35.8116 1.18056C36.2377 1.11722 40.5165 3.09892 41.2178 3.75044C43.1975 5.6145 43.6591 8.10294 43.6147 10.2566C41.1912 8.8178 40.4278 10.2113 37.8978 10.157C38.1463 9.57791 39.3536 9.15261 39.0607 8.31107C33.3704 3.23466 25.9135 9.88557 37.8978 10.157C36.8236 12.6817 37.8001 14.0752 37.6847 14.3648C37.3651 15.143 34.9062 18.292 34.1871 19.1516C33.8941 19.5045 32.9798 19.0611 32.7312 19.3688C31.808 20.518 31.5772 23.6489 30.5474 24.2914C27.76 24.7891 25.5585 23.4679 22.8953 22.373C22.7355 23.8027 20.9068 24.2009 20.3564 25.0605C19.2734 26.7708 19.0337 29.8383 17.5068 31.0509C16.1841 32.1005 13.9027 31.1052 13.6009 31.2228C12.8463 31.5033 13.45 33.8832 10.7957 34.2994C8.67403 34.6252 6.33045 33.1321 4.16441 32.9511C1.7942 27.6485 -1.27731 20.5723 0.560269 15.3692C0.950866 14.2652 1.68767 14.2019 1.81195 13.9938C3.73831 14.9982 3.55188 12.7993 5.38946 12.3469C6.99624 11.9487 9.92571 12.7631 11.8432 11.6501C14.5596 10.0756 18.3235 4.50149 21.4749 3.34324C21.8034 3.2256 28.4347 2.59219 28.8164 2.60124C31.9412 2.69173 32.8822 4.40195 35.4033 2.13974L35.4122 2.15784ZM26.6681 9.46932C24.0316 8.23868 19.9658 7.67765 19.1314 10.329C22.1141 12.7903 26.1088 13.0527 26.6681 9.46932ZM17.1429 18.7625C15.5272 17.4504 9.33982 16.2288 9.29543 18.6177C11.0798 21.6038 16.6635 22.011 17.1429 18.7625Z" fill="#6D6C71"/>
<path d="M43.6148 10.2656C43.5527 13.6499 42.9757 21.3052 40.9605 23.8118C40.6942 24.1375 39.7444 23.6579 39.4869 23.9837C38.5282 25.1781 38.5371 27.2956 37.4008 28.6439C36.6018 29.5759 34.5778 29.7659 33.6724 30.4446C31.4886 32.0915 30.4677 35.1409 27.2985 36.0368C25.6207 36.5073 24.9638 35.702 24.0939 35.7924C22.2918 35.9915 21.0046 37.5208 19.8239 37.8646C15.554 39.1134 10.5916 37.8104 6.31283 35.6115C3.16143 33.9827 4.58178 33.8922 4.16455 32.9692C6.33059 33.1502 8.68305 34.6523 10.7958 34.3175C13.4501 33.9103 12.8465 31.5304 13.601 31.2409C13.9117 31.1232 16.1932 32.1186 17.507 31.0689C19.0339 29.8564 19.2735 26.7888 20.3566 25.0786C20.9069 24.219 22.7357 23.8118 22.8954 22.3911C25.5586 23.486 27.7601 24.8071 30.5476 24.3094C31.5773 23.667 31.8081 20.5361 32.7314 19.3869C32.9799 19.0792 33.8943 19.5226 34.1872 19.1697C34.9063 18.301 37.3653 15.161 37.6849 14.3828C37.8091 14.0842 36.8326 12.6998 37.8979 10.1751C40.4279 10.2294 41.1825 8.83589 43.6148 10.2747V10.2656Z" fill="#48474C"/>
<path d="M35.4121 2.15777C32.891 4.41999 31.95 2.70975 28.8252 2.61926C28.4435 2.61021 21.8123 3.23459 21.4838 3.36127C18.3324 4.51953 14.5685 10.1027 11.852 11.6681C9.94344 12.7721 7.00509 11.9577 5.39831 12.3649C3.56073 12.8264 3.73828 15.0252 1.8208 14.0118C3.28554 11.5324 8.56747 5.08961 11.2306 4.06708C13.157 3.32508 14.9235 3.99469 16.5836 3.497C18.2436 2.99931 18.723 1.71437 20.0013 1.13525C24.8838 -1.09077 29.8372 0.338952 35.421 2.15777H35.4121Z" fill="#919094"/>
<path d="M37.9068 10.1661C25.9226 9.8946 33.3794 3.25273 39.0697 8.32009C39.3626 9.16163 38.1465 9.58694 37.9068 10.1661Z" fill="#3E3D43"/>
<path d="M17.1429 18.7624C16.6635 22.011 11.0797 21.6038 9.29541 18.6176C9.3398 16.2287 15.5272 17.4503 17.1429 18.7624Z" fill="#3E3D43"/>
<path d="M26.6681 9.46925C26.1088 13.0526 22.1141 12.7902 19.1313 10.3289C19.9658 7.67757 24.0316 8.2386 26.6681 9.46925Z" fill="#3C3B41"/>
<path d="M91.163 6.13782C92.2126 6.93607 93.6201 6.68089 94.5743 8.369C95.5942 10.1683 95.6478 13.1978 95.4868 15.1934C89.7614 13.9829 91.0019 18.5827 88.1571 21.7954C86.9643 23.1367 84.5668 24.1247 83.3741 26.0484C80.5472 27.0233 78.9429 22.8423 78.3465 22.9928C77.8395 24.2032 76.4738 24.3145 75.7402 25.1781C74.7443 26.3493 73.6469 29.189 72.8895 29.719C72.2394 30.1705 71.0227 29.5751 70.2117 29.8826C68.8161 30.406 67.8738 32.2446 65.7208 31.2501C64.8143 30.8313 64.3432 28.201 62.9774 29.4442C62.9178 29.3199 62.1961 29.3068 62.0769 28.8684C61.8979 28.2272 62.4228 27.0102 62.2319 26.0353C61.0928 20.1138 59.8762 12.8248 62.9118 7.45297C63.2696 7.62309 63.6692 7.74087 64.0092 7.95024C64.1046 8.00913 63.9436 8.59146 64.0748 8.67652C65.2556 6.94261 66.8361 8.72233 68.6312 8.75504C72.7165 8.82702 76.3247 3.54676 79.8076 3.25887C83.9168 2.92517 87.519 7.19779 91.163 6.14436V6.13782ZM92.6241 12.4846C90.9006 10.1945 88.0737 7.4726 86.1234 10.9143C87.847 13.2043 90.6739 15.9262 92.6241 12.4846ZM78.7341 7.62309C76.5036 7.28939 76.432 11.2545 80.0521 12.4715C84.7875 14.0615 81.3702 8.02222 78.7341 7.62309ZM74.0823 16.8815L69.7942 14.225L68.9473 14.3952L68.011 16.1225L73.289 19.2436L74.0823 16.8815Z" fill="#6C6B70"/>
<path d="M95.4811 15.1868C95.1411 19.4005 94.6402 23.6928 92.5289 27.3438C90.692 30.5107 84.084 36.4452 80.7024 37.0734C79.8973 37.2238 72.681 37.3154 72.0368 37.1322C67.9814 35.9807 64.9517 33.4027 62.9717 29.4311C64.3434 28.1879 64.8145 30.8182 65.7151 31.2369C67.8681 32.2249 68.8104 30.3929 70.2059 29.8694C71.017 29.5619 72.2337 30.1573 72.8837 29.7059C73.6412 29.1824 74.7385 26.3362 75.7345 25.165C76.4681 24.3013 77.8338 24.1966 78.3407 22.9796C78.9371 22.8356 80.5414 27.0101 83.3683 26.0352C84.5611 24.1115 86.9586 23.1235 88.1514 21.7822C90.9962 18.5761 89.7557 13.9698 95.4811 15.1803V15.1868Z" fill="#48474C"/>
<path d="M91.1631 6.13779C87.5191 7.19122 83.9169 2.91206 79.8077 3.2523C76.3248 3.54019 72.7166 8.8139 68.6313 8.74847C66.8362 8.71576 65.2557 6.93604 64.0749 8.66995C63.9437 8.58489 64.1047 8.00256 64.0093 7.94367C64.88 5.41151 70.2177 0.602356 72.496 0.792105C73.7186 0.890251 74.7921 1.74085 76.0385 1.71468C77.124 1.69505 78.7223 0.0919956 79.9568 0.0134788C84.1018 -0.26133 87.9783 3.72994 91.1631 6.14433V6.13779Z" fill="#8E8E90"/>
<path d="M92.6237 12.4845C90.6735 15.9262 87.8466 13.2043 86.123 10.9142C88.0733 7.47255 90.9002 10.1945 92.6237 12.4845Z" fill="#414045"/>
<path d="M78.7339 7.62313C81.37 8.02226 84.7873 14.0615 80.052 12.4715C76.4318 11.2545 76.5034 7.28944 78.7339 7.62313Z" fill="#3E3D43"/>
<path d="M74.082 16.8815L73.2888 19.2501L68.0107 16.1291L68.9471 14.4017L69.794 14.2316L74.082 16.8815Z" fill="#3E3D43"/>
<path d="M57.8629 7.81812L56.7621 12.7859C46.8641 12.1525 48.3465 1.93636 57.8629 7.81812Z" fill="#48484D"/>
<path d="M37.1069 64.0812C34.6745 71.9899 28.4072 69.2843 32.18 62L37.1069 64.0812Z" fill="#787878"/>
</svg>
