<svg width="111" height="99" viewBox="0 0 111 99" fill="none" xmlns="http://www.w3.org/2000/svg">
<path d="M52.5442 9.36762C58.0214 13.1048 59.9389 18.0093 58.7582 24.9498C57.5953 23.1671 51.1327 23.6467 50.3604 24.9769C49.233 26.9134 50.4758 28.8679 49.2063 30.9944C48.434 32.2793 46.4633 33.2295 45.3448 34.3515C44.2262 35.4736 42.1135 37.1567 41.9537 37.3558C40.5422 39.066 40.0628 42.8937 36.9114 43.1108C31.9846 43.4456 32.1089 39.4822 28.3449 37.9711C27.4838 41.7535 26.6671 39.7627 25.3888 40.1428C22.6546 40.9572 21.3408 49.2188 20.4087 49.8794L13.5999 48.4949C12.1352 56.5665 6.25846 50.3771 2.49453 48.3592C0.0888102 39.9166 -0.665752 29.5556 0.621442 20.4887C0.781231 19.3666 1.8465 13.3582 2.16608 13.1862C2.76085 13.3039 3.45327 13.9011 3.95039 13.9373C7.69657 14.1816 11.3185 11.7927 15.0558 14.8784L16.2098 13.1138C19.5032 15.3489 21.9622 10.1096 24.3147 8.41748C26.6671 6.72535 30.582 8.15507 31.2744 3.40442C34.4169 5.85666 39.1485 5.39516 42.2555 6.60771C45.256 7.77501 48.4074 11.2769 52.5708 9.36762H52.5442ZM52.7128 22.2261C55.8997 18.3531 45.4957 13.15 43.6936 16.0185C42.0425 19.5385 50.8486 24.4973 52.7128 22.2261ZM30.147 20.2444C31.4342 21.6379 34.8075 21.5474 36.0858 19.9548C39.2373 16.0185 29.8807 11.2226 27.7679 13.8559C25.6551 16.4891 28.6112 17.4483 29.9783 18.9142C30.3157 19.2761 30.0316 20.1177 30.147 20.2444ZM37.5595 26.7324L35.9438 27.8545C35.6686 29.3566 39.8675 32.6051 41.6252 31.0216C42.6727 29.4109 38.7313 26.7595 37.5506 26.7324H37.5595ZM14.825 30.4877C17.4704 33.4376 25.7528 31.3564 20.8082 26.4247C18.7931 24.4249 12.7655 21.4841 12.3038 26.1171C12.1529 27.6644 13.9195 28.2888 14.6208 29.1846C14.9492 29.6009 14.7096 30.361 14.825 30.4877Z" fill="#6D6C72"/>
<path d="M58.7582 24.9498C57.4799 32.5237 56.1572 40.1157 51.8695 46.6218C50.8575 48.1601 48.9222 48.7845 48.0523 49.9337C47.1823 51.0829 47.0225 52.7027 45.9573 53.8066C44.892 54.9106 41.3766 54.9196 39.7521 56.105C37.5239 57.7248 36.1125 60.5933 32.7125 61.5615C29.3125 62.5297 26.5606 60.6204 23.3382 60.6747C20.1157 60.729 18.074 62.6564 13.8396 60.8104C10.5106 59.3536 3.61304 53.0646 2.21932 49.5265C2.05953 49.1103 2.52113 48.504 2.47675 48.3682C6.24956 50.3861 12.1174 56.5756 13.5821 48.504L20.3909 49.8885C21.3319 49.2279 22.6458 40.9663 25.3711 40.1519C26.6494 39.7718 27.4661 41.7716 28.3271 37.9802C32.1 39.4913 31.9757 43.4547 36.8937 43.1199C40.0451 42.9027 40.5244 39.0751 41.9359 37.3648C42.0957 37.1748 44.2617 35.4284 45.327 34.3606C46.4455 33.2386 48.4251 32.2884 49.1886 31.0035C50.458 28.8861 49.2152 26.9315 50.3426 24.986C51.1149 23.6558 57.5775 23.1762 58.7404 24.9589L58.7582 24.9498Z" fill="#48474D"/>
<path d="M52.5443 9.36767C48.3808 11.277 45.2294 7.77507 42.2289 6.60776C39.1219 5.39522 34.3904 5.85671 31.2478 3.40447C30.5554 8.15513 26.5341 6.78874 24.2881 8.41754C22.0422 10.0463 19.4856 15.349 16.1832 13.1139L15.0292 14.8784C11.3008 11.7837 7.67001 14.1817 3.92383 13.9373C5.59274 9.75677 9.33892 8.78855 12.4726 6.3906C13.7154 5.44047 14.1237 3.93835 15.7127 2.87964C20.4177 -0.26032 22.5926 3.1873 25.815 3.00632C29.428 2.80724 32.4818 -1.82577 38.8112 0.807452C41.9538 2.11049 49.3751 7.2231 52.5443 9.37673V9.36767Z" fill="#929194"/>
<path d="M14.8251 30.4878C14.7097 30.3611 14.9494 29.601 14.621 29.1847C13.9197 28.2889 12.1531 27.6736 12.304 26.1172C12.7568 21.4841 18.7933 24.416 20.8084 26.4248C25.7619 31.3474 17.4794 33.4377 14.8251 30.4878Z" fill="#3E3D43"/>
<path d="M30.1471 20.2445C30.0317 20.1178 30.3158 19.2762 29.9784 18.9143C28.6113 17.4484 25.5753 16.5797 27.768 13.856C29.9607 11.1323 39.2374 16.0186 36.0859 19.9549C34.8076 21.5475 31.4343 21.638 30.1471 20.2445Z" fill="#3E3D43"/>
<path d="M52.7131 22.2261C50.8489 24.4883 42.0427 19.5386 43.6938 16.0186C45.4959 13.1592 55.9 18.3532 52.7131 22.2261Z" fill="#3C3B41"/>
<path d="M37.5596 26.7324C38.7314 26.7596 42.6818 29.4109 41.6343 31.0216C39.8677 32.6051 35.6777 29.3566 35.9529 27.8545L37.5685 26.7324H37.5596Z" fill="#48484D"/>
<path d="M98.8441 67.1605L94.0733 64.4545C93.234 64.5323 90.9991 67.253 88.8163 67.8642C87.8639 68.1293 86.8944 67.4955 86.1626 67.7957C82.4468 69.2976 84.139 68.1177 82.6657 68.5148C80.7832 69.0165 78.8484 71.2251 76.5951 70.0561C73.7802 68.5963 75.8481 64.0313 74.9345 63.7289C73.0071 63.7125 71.316 64.3297 69.5187 64.6797C69.2687 64.7252 68.8843 64.0788 68.5073 64.2432C67.5773 64.6523 66.5569 66.083 65.3072 66.7704C63.1554 67.9464 61.8134 65.0543 61.1136 64.7815C60.3006 64.4659 58.2439 65.9235 56.9767 64.9068C55.3295 63.5691 56.2544 61.0517 54.2051 60.1692C56.2841 55.3024 60.3068 49.6255 64.7939 45.2556C66.324 43.7646 71.7589 38.4592 73.6194 38.7336C74.114 38.9949 74.1073 39.7371 74.4217 40.0411C75.8692 41.4177 77.4721 43.56 78.6415 44.5575C80.8267 46.432 84.8931 44.6989 87.1529 44.7806C88.4783 44.831 89.4271 45.851 90.8823 45.6352C91.7482 45.5092 92.9797 44.6005 93.3219 44.6388C93.7353 44.6871 97.6173 49.4329 98.0408 50.1445C98.7759 51.3649 98.5854 53.2623 99.7369 54.7287C100.019 55.088 102.408 55.351 102.975 56.2099C104.239 60.7546 103.031 63.1302 98.8371 67.1551L98.8441 67.1605ZM96.1469 56.8468C92.601 53.9743 92.3668 64.8757 96.5799 63.4878C99.8337 62.417 97.5343 57.9691 96.1469 56.8468ZM88.5799 57.0882C91.4336 54.4848 89.1822 48.0047 85.9297 48.8006C84.3223 49.196 85.3215 53.7052 85.6541 54.3455C86.3433 55.6678 87.9299 55.7736 88.5743 57.0953L88.5799 57.0882ZM70.7538 52.7463C70.9167 54.8404 72.8705 57.7293 75.6784 55.8604C77.1791 54.1049 74.3754 49.4226 73.2412 49.3727C70.7049 49.2697 71.4502 51.326 71.3373 51.9734C71.2857 52.255 70.758 52.6116 70.7664 52.7447L70.7538 52.7463Z" fill="#6D6C71"/>
<path d="M98.8444 67.1606C94.691 71.1481 88.7823 75.8637 83.3054 77.7555C77.5031 79.7602 76.1493 78.8252 71.5724 78.7205C69.7637 78.6821 66.3268 79.4253 64.6493 79.0183C63.293 78.6907 61.6018 75.9848 59.9687 75.0031C58.8818 74.3464 57.8456 74.6607 57.4335 74.3951C54.1337 72.2445 52.4016 65.2173 53.1834 61.1847C53.2907 60.6019 54.1649 60.264 54.1998 60.1763C56.2365 61.0604 55.3116 63.5779 56.9714 64.9139C58.233 65.9377 60.2897 64.4802 61.1083 64.7886C61.8081 65.0614 63.1501 67.9536 65.3019 66.7776C66.546 66.0973 67.5664 64.6666 68.502 64.2503C68.8846 64.0788 69.2703 64.7378 69.5133 64.6869C71.3107 64.3369 73.0018 63.7196 74.9292 63.7361C75.8428 64.0384 73.7748 68.6034 76.5897 70.0632C78.843 71.2322 80.7793 69.0363 82.6604 68.522C84.1463 68.1232 82.447 69.2976 86.1573 67.8028C86.896 67.5082 87.8656 68.1419 88.811 67.8714C90.9937 67.2601 93.2342 64.5323 94.068 64.4617L98.8388 67.1677L98.8444 67.1606Z" fill="#48474C"/>
<path d="M102.982 56.2155C102.415 55.3566 100.019 55.0881 99.744 54.7343C98.5995 53.2734 98.783 51.3705 98.0479 50.1501C97.6258 49.4511 93.7424 44.6927 93.329 44.6445C92.9868 44.6061 91.7609 45.5077 90.8894 45.6408C89.4286 45.8637 88.4854 44.8366 87.16 44.7862C84.9001 44.7046 80.8268 46.4321 78.6486 44.5631C77.4792 43.5656 75.8693 41.4178 74.4288 40.0468C77.3779 38.7026 87.1219 37.397 89.1017 39.0299C90.1887 39.9167 90.4783 41.2593 91.5331 41.9139C92.3881 42.4348 95.0472 42.1511 96.5476 42.9136C98.3734 43.8509 99.4606 45.3129 100.285 47.052C101.285 49.1582 102.259 53.6706 102.976 56.2226L102.982 56.2155Z" fill="#929194"/>
<path d="M66.8196 85.2853C70.7442 88.5237 63.5808 92.0484 62.046 89.0855C61.2185 87.4937 64.6288 83.4754 66.8196 85.2853Z" fill="#383838"/>
<path d="M88.58 57.0882C87.937 55.779 86.3489 55.6607 85.6598 54.3384C85.3271 53.698 84.3154 49.1905 85.9354 48.7934C89.1879 47.9976 91.4393 54.4776 88.5856 57.081L88.58 57.0882Z" fill="#3E3D43"/>
<path d="M70.7539 52.7463C70.7455 52.6132 71.2733 52.2566 71.3248 51.9751C71.4377 51.3276 70.6994 49.2768 73.2288 49.3744C74.3685 49.4171 77.1666 54.1065 75.6659 55.862C72.8636 57.7238 70.9042 54.842 70.7413 52.7479L70.7539 52.7463Z" fill="#414045"/>
<path d="M96.1473 56.8468C97.5277 57.9637 99.834 62.4171 96.5803 63.4879C92.3741 64.8813 92.6013 53.9743 96.1473 56.8468Z" fill="#3C3B41"/>
<path d="M46.062 65.9868C47.7309 67.7604 47.6421 74.5561 42.7685 73.2078C34.2198 70.846 42.3779 62.0868 46.062 65.9868Z" fill="#383838"/>
</svg>
