<svg width="303" height="317" viewBox="0 0 303 317" fill="none" xmlns="http://www.w3.org/2000/svg">
<g clip-path="url(#clip0_25_1405)">
<path d="M354.857 94.5643C322.098 38.0618 260.557 0 190 0C85.0604 0 0 84.1633 0 188.004C0 291.845 85.0604 376.008 190 376.008C294.94 376.008 380 291.845 380 188.004C380 158.6 373.168 130.771 361.017 106.033C357.881 102.885 355.809 98.8933 354.857 94.6205V94.5643Z" fill="#1799FF"/>
<path d="M282.788 35.307C270.3 36.319 254.005 41.0978 254.173 53.5227C254.341 65.273 269.181 70.108 280.828 72.4693C292.476 74.8306 306.979 82.4767 304.011 93.8896C302.779 98.7247 298.523 102.154 295.555 106.202C287.324 117.503 290.516 135.381 302.275 143.14C314.035 150.898 331.898 147.131 339.346 135.269C345.785 125.036 345.281 110.25 355.249 103.279" fill="#02C451"/>
<path d="M282.788 26.8738C266.437 28.3356 242.582 35.813 246.166 57.0085C247.734 66.2288 255.125 72.3007 263.245 75.8426C271.365 79.3846 279.82 79.7781 287.548 83.32C290.124 84.5007 294.772 86.6933 295.724 89.7293C296.788 93.1588 292.588 96.4758 290.628 98.8934C284.692 106.202 281.724 115.141 282.788 124.587C285.084 145.164 303.003 158.376 323.218 154.89C333.634 153.091 343.21 146.4 347.969 136.899C350.321 132.233 351.777 127.229 353.345 122.281C354.577 118.29 355.921 113.117 359.449 110.419C362.977 107.72 364.937 103.166 362.473 98.8934C360.401 95.3514 354.633 93.1026 350.993 95.8574C343.938 101.198 340.354 108.057 337.61 116.378C335.538 122.731 334.194 130.321 328.594 134.65C317.675 143.083 301.547 137.799 299.475 123.687C298.355 115.872 302.331 111.262 306.867 105.584C312.355 98.6685 314.763 90.0104 310.507 81.7459C306.755 74.4371 299.363 69.9956 292.028 67.0159C285.252 64.261 277.804 63.6988 271.029 60.944C267.333 59.426 260.221 55.8278 263.357 50.8241C266.773 45.3707 277.188 44.2462 282.844 43.7402C293.54 42.7845 293.652 25.9181 282.844 26.8738H282.788Z" fill="#02C451"/>
<path d="M167.433 185.53C169.449 168.158 184.792 153.259 202.375 151.573C210.999 150.729 220.855 153.597 224.83 161.187C227.966 167.202 226.678 174.399 227.07 181.145C227.462 187.892 231.158 195.763 237.99 196.1C241.574 196.325 244.822 194.301 248.125 192.952C262.685 186.824 281.444 193.289 289.004 207.063C296.563 220.837 291.748 239.953 278.588 248.667C272.932 252.378 266.269 254.289 260.501 257.775C249.525 264.409 242.918 276.159 233.566 284.874C224.214 293.588 208.479 298.816 198.96 290.271C184.792 277.565 200.415 253.108 192.8 235.792C186.864 222.243 169.225 218.364 154.329 219.376C147.33 219.825 139.49 220.781 133.946 216.452C125.715 210.043 129.13 195.875 137.698 189.916C146.266 183.956 157.521 183.844 167.993 183.9" fill="#02C451"/>
<path d="M175.496 187.779C177.568 173.387 189.104 160.568 204.223 159.893C211.335 159.556 217.607 162.086 218.503 169.788C219.455 177.828 217.887 185.362 221.638 193.008C224.494 198.742 229.31 203.24 235.75 204.252C244.262 205.601 250.813 199.361 259.101 199.08C273.268 198.517 285.98 210.099 284.02 224.773C281.668 242.595 264.869 244.001 252.717 252.884C240.566 261.766 232.838 279.42 217.775 284.873C212.119 286.954 204.783 287.066 202.039 280.544C199.687 275.035 201.423 267.557 202.151 261.879C203.999 247.261 204.447 231.913 192.296 221.4C186.024 215.946 178.016 213.023 169.897 211.729C161.777 210.436 153.881 211.729 145.65 211.336C137.418 210.942 134.954 204.308 140.89 198.124C147.33 191.377 159.481 192.277 167.937 192.333C178.744 192.389 178.744 175.523 167.937 175.467C148.898 175.354 124.819 179.065 121.235 201.891C119.835 210.605 122.859 219.488 130.53 224.323C139.322 229.833 149.29 227.64 159.033 227.696C167.097 227.696 177.456 229.158 182.944 235.792C188.432 242.426 186.528 252.209 185.576 259.967C183.448 277.002 184.176 297.804 204.783 302.415C225.39 307.025 240.734 289.765 253.053 275.766C260.389 267.389 268.173 263.566 277.916 258.731C286.316 254.57 293.091 247.992 296.955 239.39C304.851 221.906 300.371 201.385 284.58 190.084C277.3 184.912 268.061 182.045 259.101 182.27C254.565 182.382 250.085 183.225 245.885 184.912C242.358 186.261 238.718 189.803 236.534 185.362C234.35 180.92 235.638 174.792 235.302 169.845C234.91 163.998 233.51 158.432 229.814 153.765C223.43 145.613 212.399 142.352 202.375 143.252C181.152 145.051 162.393 162.142 159.313 183.45C157.745 194.076 173.928 198.63 175.496 187.948V187.779Z" fill="#02C451"/>
<path d="M82.5407 44.1899C93.5722 49.1936 105.892 55.7715 108.356 67.5218C111.547 82.6453 96.2601 96.0822 96.1481 111.543C96.1481 118.683 99.34 125.767 97.9401 132.795C94.7482 148.537 72.7971 150.786 56.9498 147.412C41.1024 144.039 21.3913 139.935 11.1997 152.472" fill="#02C451"/>
<path d="M78.2847 51.4988C87.5243 55.7154 102.42 62.0121 100.124 74.6619C97.8278 87.3117 88.2522 97.3754 87.8043 110.868C87.5803 117.615 92.1161 126.61 89.2042 133.02C87.5803 136.618 83.5484 138.248 79.9646 139.26C68.877 142.24 58.1255 138.81 47.15 137.068C32.5346 134.763 15.8473 134.425 5.20772 146.625C-1.90398 154.777 9.96752 166.753 17.0792 158.544C25.8149 148.537 41.9982 153.034 53.2537 155.34C66.1332 158.038 80.1886 158.6 92.2281 152.472C97.9958 149.549 102.588 144.658 104.94 138.586C108.243 130.096 105.276 122.169 104.604 113.567C104.1 106.708 107.515 100.468 110.371 94.4519C113.563 87.7615 116.643 80.9025 117.091 73.3689C118.267 54.6472 101.58 43.7964 86.7403 36.9374C82.5965 35.0259 77.7247 35.7568 75.2608 39.9734C73.1329 43.5716 74.1408 49.6435 78.2847 51.4988Z" fill="#02C451"/>
<path d="M70.5011 44.0213C49.502 77.8103 28.5029 111.656 7.50374 145.445C1.79198 154.665 16.2954 163.154 22.0071 153.934C43.0063 120.145 64.0054 86.2997 85.0045 52.5107C90.7162 43.2904 76.2129 34.801 70.5011 44.0213Z" fill="#02C451"/>
<path d="M79.5728 54.3661L79.9088 54.6472C80.6927 55.4905 81.5887 56.0527 82.5967 56.39C83.6046 56.896 84.6686 57.1771 85.8445 57.1209C87.0205 57.1209 88.0844 56.896 89.0924 56.39C90.1563 56.0527 91.0523 55.4905 91.7803 54.6472L93.0682 52.9605C93.8522 51.6674 94.1882 50.2057 94.1882 48.6877L93.9082 46.4389C93.5162 45.0333 92.7882 43.7965 91.7243 42.7282L91.3883 42.4471C90.6043 41.6038 89.7084 41.0416 88.7004 40.7043C87.6924 40.1983 86.6285 39.9172 85.4525 39.9734C84.2766 39.9734 83.2126 40.1983 82.2047 40.7043C81.1407 41.0416 80.2448 41.6038 79.5168 42.4471L78.2288 44.1338C77.4449 45.4269 77.1089 46.8886 77.1089 48.4066L77.3889 50.6555C77.7809 52.061 78.5088 53.2979 79.5728 54.3661Z" fill="#02C451"/>
<path d="M80.9727 41.9411L54.0379 65.3292C50.678 68.1965 50.846 74.3246 54.0379 77.2481C57.5657 80.509 62.3815 80.3403 65.9094 77.2481C74.869 69.4334 83.8846 61.6748 92.8442 53.8601C96.2041 50.9928 96.0361 44.8647 92.8442 41.9411C89.3164 38.6803 84.5006 38.849 80.9727 41.9411Z" fill="#02C451"/>
<path d="M46.534 61.5061C24.0789 85.3439 8.95956 115.872 4.42375 148.424C3.80777 152.922 5.4877 157.476 10.3035 158.825C14.2233 159.893 19.9911 157.476 20.6631 152.922C24.8069 123.125 37.7983 95.3513 58.4055 73.4812C65.8532 65.6102 53.9817 53.6351 46.534 61.5623V61.5061Z" fill="#02C451"/>
<path d="M79.9086 44.19L63.1653 56.39C61.3174 57.7393 59.9174 59.1448 59.3015 61.4499C58.7415 63.4739 59.0215 66.1725 60.1414 67.9716C61.2614 69.7707 62.9973 71.3449 65.1812 71.8508C67.3651 72.3568 69.885 72.3006 71.677 71.0075L88.4202 58.8075C90.2682 57.4582 91.6681 56.0527 92.2841 53.7476C92.8441 51.7236 92.5641 49.025 91.4441 47.2259C90.3242 45.4268 88.5882 43.8526 86.4043 43.3466C84.2204 42.8406 81.7005 42.8969 79.9086 44.19Z" fill="#02C451"/>
<path d="M57.3977 83.9947C68.2052 83.9947 68.2052 67.1283 57.3977 67.1283C46.5901 67.1283 46.5901 83.9947 57.3977 83.9947Z" fill="#02C451"/>
<path d="M57.1174 83.0952C67.9249 83.0952 67.9249 66.2288 57.1174 66.2288C46.3098 66.2288 46.3098 83.0952 57.1174 83.0952Z" fill="#02C451"/>
<path d="M55.8854 85.85C66.693 85.85 66.693 68.9836 55.8854 68.9836C45.0779 68.9836 45.0779 85.85 55.8854 85.85Z" fill="#02C451"/>
<path d="M54.9338 86.1873C65.7413 86.1873 65.7413 69.3209 54.9338 69.3209C44.1262 69.3209 44.1262 86.1873 54.9338 86.1873Z" fill="#02C451"/>
<path d="M55.5495 85.2315C66.3571 85.2315 66.3571 68.3651 55.5495 68.3651C44.742 68.3651 44.742 85.2315 55.5495 85.2315Z" fill="#02C451"/>
<path d="M73.1887 40.8167C53.8696 50.1495 38.9742 68.4214 33.5984 89.2795C32.4785 93.5523 34.9984 98.6123 39.4782 99.6805C43.958 100.749 48.6058 98.3312 49.8377 93.7772C50.4537 91.4722 51.1257 89.1671 51.9656 86.9745C52.1336 86.4685 52.3576 85.9625 52.5816 85.4565C52.9736 84.5007 51.9656 86.862 52.5816 85.4003C53.0856 84.332 53.5896 83.2638 54.1495 82.1956C55.2135 80.1717 56.3335 78.2039 57.5654 76.2924C58.2374 75.2804 58.9093 74.3246 59.5813 73.3689C60.1413 72.638 60.3093 72.4131 59.6373 73.2564C60.0293 72.7505 60.4773 72.2445 60.8693 71.7385C63.7811 68.1965 67.085 65.0481 70.6129 62.1246C72.2928 60.7191 69.2129 63.1366 71.0048 61.8435C71.4528 61.5062 71.9008 61.2251 72.3488 60.8877C73.3567 60.2131 74.3087 59.5384 75.3727 58.92C77.3886 57.6269 79.5165 56.5025 81.7004 55.4343C85.6762 53.5228 87.0202 47.5071 84.7243 43.9089C82.0924 39.8047 77.5006 38.849 73.2447 40.873L73.1887 40.8167Z" fill="#02C451"/>
<path d="M278.98 45.9329C300.315 65.7228 321.706 85.5689 343.041 105.359C346.345 108.451 351.609 108.676 354.913 105.359C358.049 102.21 358.273 96.5321 354.913 93.4399C333.578 73.65 312.187 53.8039 290.852 34.0139C287.548 30.9218 282.284 30.6969 278.98 34.0139C275.844 37.1623 275.62 42.8407 278.98 45.9329Z" fill="#02C451"/>
<path d="M270.245 44.3586C296.9 58.1891 318.179 79.9467 331.338 107.102C333.298 111.206 339.122 112.274 342.818 110.138C346.962 107.72 347.802 102.716 345.842 98.6122C331.618 69.2647 307.595 44.8084 278.756 29.8535C274.725 27.7733 269.629 28.7853 267.277 32.8895C265.093 36.6563 266.269 42.3346 270.301 44.4148L270.245 44.3586Z" fill="#02C451"/>
<path d="M357.825 97.0942C342.146 67.2407 317.563 42.2784 288.108 25.9742C278.644 20.7457 270.133 35.307 279.652 40.5356C306.755 55.5467 328.874 78.0914 343.322 105.584C345.45 109.632 350.993 110.812 354.801 108.62C358.889 106.258 359.953 101.142 357.825 97.0942Z" fill="#02C451"/>
<path d="M278.924 43.3466L286.316 37.106C287.828 35.8692 288.836 33.0581 288.78 31.1466C288.724 29.2351 288.164 27.5484 286.988 26.0304C284.412 22.6572 279.876 21.8138 276.124 23.8378C268.677 27.942 261.229 32.0461 253.781 36.1503C249.917 38.2867 248.349 43.9088 250.757 47.6756C253.165 51.4425 258.149 52.9605 262.237 50.7116C269.685 46.6074 277.132 42.5033 284.58 38.3991L274.388 25.1309L266.997 31.3715C265.429 32.6646 264.533 35.3632 264.533 37.3309C264.533 39.4111 265.429 41.8848 266.997 43.2904C268.565 44.6959 270.693 45.8766 272.932 45.7641C275.172 45.6517 277.076 44.8084 278.868 43.2904L278.924 43.3466Z" fill="#02C451"/>
</g>
<defs>
<clipPath id="clip0_25_1405">
<rect width="380" height="380" fill="white"/>
</clipPath>
</defs>
</svg>
