<svg width="87" height="61" viewBox="0 0 87 61" fill="none" xmlns="http://www.w3.org/2000/svg">
<path d="M79.1818 10.0741C88.9794 16.1495 86.888 17.9129 86.547 25.648C75.4082 21.5878 79.3863 24.018 74.4762 27.6929C71.1118 30.212 60.7459 38.9103 57.2451 39.3252C51.7667 39.9772 45.4925 36.1393 42.0599 36.5393C39.2639 36.8802 25.1245 53.0764 11.3487 46.023C10.7122 45.2672 6.48396 44.4078 5.12002 42.1851C-0.563041 32.983 -2.69982 21.736 4.96095 12.6228C6.27942 24.6996 14.6903 6.84373 25.5791 18.2241C26.1928 14.9937 45.9926 6.91779 49.5389 6.38433C56.5859 5.34706 71.0664 12.6821 79.2045 10.0741H79.1818Z" fill="#6B6A6E"/>
<path d="M86.5472 25.6331C86.1153 35.4576 85.8198 39.9623 74.8855 47.9049C59.3139 59.2111 31.9443 58.3813 12.9856 51.1648C6.39328 48.6606 11.849 46.6305 11.3262 46.0081C25.1019 53.0616 39.2414 36.8653 42.0375 36.5245C45.47 36.1096 51.7214 39.9623 57.2226 39.3103C60.7234 38.8954 71.112 30.212 74.4536 27.6781C79.3411 24.0031 75.3856 21.573 86.5244 25.6331H86.5472Z" fill="#474649"/>
<path d="M79.1825 10.0742C71.0444 12.6822 56.5639 5.33236 49.5169 6.38445C45.9707 6.90308 26.1936 14.9938 25.5571 18.2242C14.6684 6.84384 6.25744 24.6998 4.93896 12.6229C7.50771 9.57039 19.4649 2.78366 23.8977 1.9242C29.8081 0.768386 33.9226 3.13927 37.8553 2.6799C39.7648 2.45763 41.4242 0.368295 47.1073 0.0719318C60.9285 -0.639341 69.4077 4.01357 79.1825 10.0742Z" fill="#807F85"/>
<path d="M14.1451 28.128C14.1451 28.2453 14.1024 28.3467 14.0171 28.432C13.9317 28.5173 13.8304 28.56 13.7131 28.56H11.6971C11.5797 28.56 11.4784 28.5173 11.3931 28.432C11.3077 28.3467 11.2651 28.2453 11.2651 28.128V21.232C11.2651 21.1147 11.3077 21.0133 11.3931 20.928C11.4784 20.8427 11.5797 20.8 11.6971 20.8H13.7131C13.8304 20.8 13.9317 20.8427 14.0171 20.928C14.1024 21.0133 14.1451 21.1147 14.1451 21.232V28.128ZM14.1451 31.568C14.1451 31.6853 14.1024 31.7867 14.0171 31.872C13.9317 31.9573 13.8304 32 13.7131 32H11.6971C11.5797 32 11.4784 31.9573 11.3931 31.872C11.3077 31.7867 11.2651 31.6853 11.2651 31.568V29.952C11.2651 29.8347 11.3077 29.7333 11.3931 29.648C11.4784 29.5627 11.5797 29.52 11.6971 29.52H13.7131C13.8304 29.52 13.9317 29.5627 14.0171 29.648C14.1024 29.7333 14.1451 29.8347 14.1451 29.952V31.568ZM16.1572 32C16.0505 32 15.9545 31.9627 15.8692 31.888C15.7945 31.8027 15.7572 31.7067 15.7572 31.6V30.224C15.7572 30.1067 15.7945 30.0107 15.8692 29.936C15.9545 29.8613 16.0505 29.824 16.1572 29.824H20.1732V26.864C20.1732 25.6587 19.5705 25.056 18.3652 25.056H16.3172C16.1999 25.056 16.1039 25.0187 16.0292 24.944C15.9545 24.8587 15.9172 24.7573 15.9172 24.64V23.264C15.9172 23.1467 15.9545 23.0507 16.0292 22.976C16.1145 22.9013 16.2105 22.864 16.3172 22.864H18.4452C19.9385 22.864 21.0639 23.1787 21.8212 23.808C22.5892 24.4373 22.9732 25.456 22.9732 26.864V29.824H23.5332C23.6505 29.824 23.7465 29.8613 23.8212 29.936C23.8959 30.0107 23.9332 30.1067 23.9332 30.224V31.6C23.9332 31.7067 23.8959 31.8027 23.8212 31.888C23.7465 31.9627 23.6505 32 23.5332 32H16.1572ZM25.6956 32C25.5889 32 25.4929 31.9627 25.4076 31.888C25.3329 31.8027 25.2956 31.7067 25.2956 31.6V23.264C25.2956 23.1467 25.3329 23.0507 25.4076 22.976C25.4929 22.9013 25.5889 22.864 25.6956 22.864H27.6956C27.8129 22.864 27.9089 22.9013 27.9836 22.976C28.0689 23.0507 28.1116 23.1467 28.1116 23.264V31.6C28.1116 31.7173 28.0689 31.8133 27.9836 31.888C27.9089 31.9627 27.8129 32 27.6956 32H25.6956ZM40.1267 22.864C40.244 22.864 40.34 22.9013 40.4147 22.976C40.4894 23.0507 40.5267 23.1467 40.5267 23.264V27.456C40.5267 28.3947 40.3134 29.2213 39.8867 29.936C39.46 30.64 38.8787 31.184 38.1427 31.568C37.4067 31.952 36.5854 32.1387 35.6787 32.128H34.1587C33.3054 32.128 32.5587 31.9627 31.9187 31.632C31.2787 31.3013 30.788 30.8533 30.4467 30.288C30.116 29.7227 29.9507 29.0987 29.9507 28.416V23.264C29.9507 23.1467 29.988 23.0507 30.0627 22.976C30.148 22.9013 30.244 22.864 30.3507 22.864H32.0307C32.148 22.864 32.244 22.9013 32.3187 22.976C32.404 23.0507 32.4467 23.1467 32.4467 23.264L32.4627 27.104C33.0387 27.0507 33.444 26.832 33.6787 26.448C33.9134 26.0533 34.0307 25.4933 34.0307 24.768V23.296C34.0307 23.168 34.068 23.0667 34.1427 22.992C34.2174 22.9067 34.3134 22.864 34.4307 22.864H36.1107C36.2174 22.864 36.308 22.9067 36.3827 22.992C36.468 23.0773 36.5107 23.1787 36.5107 23.296V24.8C36.5107 26.016 36.196 26.976 35.5667 27.68C34.9374 28.384 34.0467 28.7947 32.8947 28.912C33.0974 29.2533 33.3587 29.5147 33.6787 29.696C34.0094 29.8773 34.3827 29.968 34.7987 29.968H35.1827C35.7267 29.968 36.212 29.856 36.6387 29.632C37.076 29.408 37.4174 29.0987 37.6627 28.704C37.908 28.3093 38.0307 27.8667 38.0307 27.376V23.264C38.0307 23.1467 38.068 23.0507 38.1427 22.976C38.228 22.9013 38.3294 22.864 38.4467 22.864H40.1267ZM45.9909 28.208C45.8843 28.208 45.7883 28.1707 45.7029 28.096C45.6283 28.0107 45.5909 27.9147 45.5909 27.808V23.264C45.5909 23.1467 45.6283 23.0507 45.7029 22.976C45.7883 22.9013 45.8843 22.864 45.9909 22.864H47.9909C48.1083 22.864 48.2043 22.9013 48.2789 22.976C48.3643 23.0507 48.4069 23.1467 48.4069 23.264V27.808C48.4069 27.9253 48.3643 28.0213 48.2789 28.096C48.2043 28.1707 48.1083 28.208 47.9909 28.208H45.9909ZM53.3531 22.864C54.7397 22.864 55.7317 23.2 56.3291 23.872C56.9371 24.5333 57.2411 25.536 57.2411 26.88C57.2411 28.2347 56.8411 29.344 56.0411 30.208C55.2411 31.072 54.2384 31.6747 53.0331 32.016L52.3931 32.208C52.2864 32.2293 52.1851 32.192 52.0891 32.096C52.0037 32.0107 51.9611 31.904 51.9611 31.776V30.16C51.9611 30.0533 51.9984 29.9573 52.0731 29.872C52.1477 29.776 52.2437 29.7013 52.3611 29.648L52.8731 29.44C53.3637 29.248 53.7477 28.9653 54.0251 28.592C54.3131 28.208 54.4571 27.664 54.4571 26.96C54.4571 26.288 54.3344 25.8187 54.0891 25.552C53.8544 25.2853 53.4224 25.152 52.7931 25.152H52.4251H52.3771L50.2331 25.136C50.1157 25.136 50.0197 25.0987 49.9451 25.024C49.8704 24.9493 49.8331 24.8533 49.8331 24.736V21.04C49.8331 20.9227 49.8704 20.8267 49.9451 20.752C50.0304 20.6773 50.1264 20.64 50.2331 20.64H51.9611C52.0784 20.64 52.1744 20.6773 52.2491 20.752C52.3237 20.8267 52.3611 20.9227 52.3611 21.04V22.864H53.0331H53.3531ZM70.6818 31.44C70.7245 31.504 70.7458 31.5787 70.7458 31.664C70.7458 31.7493 70.7138 31.8293 70.6498 31.904C70.5858 31.968 70.5058 32 70.4098 32H68.4418C68.2391 32 68.0951 31.952 68.0098 31.856C67.9245 31.7493 67.8765 31.6907 67.8658 31.68L65.0658 27.648C64.7885 27.8933 64.6071 28.1813 64.5218 28.512C64.4365 28.8427 64.3938 29.1947 64.3938 29.568V31.568C64.3938 31.696 64.3565 31.8027 64.2818 31.888C64.2071 31.9627 64.1111 32 63.9938 32H62.4098C62.3031 32 62.2071 31.9573 62.1218 31.872C62.0471 31.7867 62.0098 31.6853 62.0098 31.568V29.584C62.0098 28.6773 62.1325 27.9413 62.3778 27.376C62.6231 26.8107 63.0871 26.2773 63.7698 25.776L62.1378 23.424C62.0845 23.36 62.0578 23.2853 62.0578 23.2C62.0578 23.1147 62.0898 23.04 62.1538 22.976C62.2285 22.9013 62.3085 22.864 62.3938 22.864H64.2818C64.4311 22.864 64.5431 22.896 64.6178 22.96C64.7031 23.024 64.7831 23.1093 64.8578 23.216L67.4338 26.864C67.7325 26.6507 67.9191 26.416 67.9938 26.16C68.0791 25.904 68.1218 25.6 68.1218 25.248V23.296C68.1218 23.168 68.1591 23.0667 68.2338 22.992C68.3191 22.9067 68.4205 22.864 68.5378 22.864H70.2178C70.3245 22.864 70.4151 22.9067 70.4898 22.992C70.5751 23.0773 70.6178 23.1787 70.6178 23.296V25.312C70.6178 26.0053 70.4845 26.6293 70.2178 27.184C69.9511 27.7387 69.4605 28.2453 68.7458 28.704L70.6818 31.44ZM72.5166 32C72.4099 32 72.3139 31.9627 72.2286 31.888C72.1539 31.8027 72.1166 31.7067 72.1166 31.6V30.224C72.1166 30.1067 72.1539 30.0107 72.2286 29.936C72.3139 29.8613 72.4099 29.824 72.5166 29.824H76.5326V26.864C76.5326 25.6587 75.9299 25.056 74.7246 25.056H72.6766C72.5592 25.056 72.4632 25.0187 72.3886 24.944C72.3139 24.8587 72.2766 24.7573 72.2766 24.64V23.264C72.2766 23.1467 72.3139 23.0507 72.3886 22.976C72.4739 22.9013 72.5699 22.864 72.6766 22.864H74.8046C76.2979 22.864 77.4232 23.1787 78.1806 23.808C78.9486 24.4373 79.3326 25.456 79.3326 26.864V29.824H79.8926C80.0099 29.824 80.1059 29.8613 80.1806 29.936C80.2552 30.0107 80.2926 30.1067 80.2926 30.224V31.6C80.2926 31.7067 80.2552 31.8027 80.1806 31.888C80.1059 31.9627 80.0099 32 79.8926 32H72.5166Z" fill="white"/>
</svg>
