<svg width="282" height="265" viewBox="0 0 282 265" fill="none" xmlns="http://www.w3.org/2000/svg">
<g filter="url(#filter0_f_46_6)">
<path d="M74.9068 127.444L52.526 152.738C51.0614 154.407 49.4435 156.132 46.8771 156.645C43.625 157.279 39.7028 155.838 36.0604 155.452C24.5868 154.263 19.2404 163.514 16.0155 171.65C15.1312 173.901 14.236 176.235 14.6037 178.849C15.1627 182.941 18.6784 186.985 22.0437 190.709C29.2054 198.662 38.6492 207.72 49.1144 208C63.9455 208.407 69.781 190.444 84.8597 195.499C87.3438 196.327 89.8171 197.796 92.2871 197.971C94.2447 198.11 95.9075 197.41 97.2219 196.534C102.023 193.382 103.922 187.631 102.112 181.75C99.4549 173.214 89.6429 164.082 92.4221 156.769C93.9957 152.592 99.4449 150.568 100.869 146.316C102.296 141.999 99.0622 136.403 94.4091 132.388C89.7559 128.373 83.878 125.613 78.1493 122.927C76.4783 128.102 72.4875 132.309 66.9677 134.721" fill="#959595"/>
</g>
<g clip-path="url(#clip0_46_6)">
<path d="M97.8736 104.794C95.817 100.019 85.9417 102.347 84.7595 102.626C72.9467 105.408 63.9996 117.482 64.9742 118.941C65.4363 119.632 67.7528 117.384 72.561 116.374C82.0572 114.375 85.5523 120.505 91.1256 117.894C95.7697 115.717 99.5034 108.572 97.8756 104.795L97.8736 104.794Z" fill="#FF4545"/>
<path d="M124.036 129.457C128.924 131.229 127.182 141.224 126.973 142.42C124.892 154.377 113.367 164.02 111.852 163.133C111.136 162.713 113.243 160.268 113.969 155.408C115.404 145.811 109.079 142.683 111.356 136.965C113.256 132.201 120.168 128.053 124.034 129.455L124.036 129.457Z" fill="#FF4545"/>
<path d="M80.1977 130.356C80.1977 130.356 89.9965 100.81 117.277 77.0486C136.773 60.0646 172.46 38.8549 178.23 47.2359C182.995 54.1589 166.775 83.3087 153.334 101.803C131.303 132.122 99.5577 148.945 99.5577 148.945L80.1977 130.356Z" fill="#E5E5E5"/>
<path d="M130.521 94.9365C135.406 99.5408 143.842 98.5244 149.364 92.6662C154.887 86.8081 155.404 78.3265 150.52 73.7222C145.636 69.1179 137.199 70.1343 131.677 75.9925C126.155 81.8506 125.637 90.3321 130.521 94.9365Z" fill="#78E9FF" stroke="#3FB0FF" stroke-width="4" stroke-miterlimit="10"/>
<path d="M80.8406 132.074C80.8406 132.074 68.12 137.109 66.1804 138.332C52.8756 146.728 47.4853 162.828 47.4853 162.828C47.4853 162.828 50.3475 158.712 56.5044 153.684C62.0567 149.15 70.9545 148.275 71.4859 149.237C71.9234 150.028 67.2731 152.537 63.6862 156.665C53.3474 168.556 48.3964 186.45 48.3964 186.45C48.3964 186.45 62.1575 179.438 68.4198 173.964C78.2996 165.332 82.272 158.706 84.1038 159.202C85.6049 159.606 85.5443 164.89 83.0574 169.606C78.7574 177.756 72.709 185.353 72.709 185.353C72.709 185.353 77.0593 182.952 80.1863 179.899C91.128 169.209 99.6861 149.427 99.6861 149.427L80.8445 132.078L80.8406 132.074Z" fill="#FF4545" stroke="#FF4545" stroke-width="6" stroke-miterlimit="10"/>
<path d="M81.8696 131.554C81.8696 131.554 70.5796 135.339 68.8862 136.328C57.2655 143.12 53.3255 157.351 53.3255 157.351C53.3255 157.351 55.6873 153.801 60.9937 149.629C65.7807 145.863 73.8363 145.61 74.3818 146.511C74.8283 147.253 70.7435 149.241 67.7213 152.757C59.0148 162.886 55.5823 178.769 55.5823 178.769C55.5823 178.769 67.7026 173.257 73.0807 168.686C81.5643 161.477 84.7856 155.725 86.4865 156.283C87.8798 156.739 88.1417 161.514 86.1595 165.628C82.7295 172.739 77.6774 179.244 77.6774 179.244C77.6774 179.244 81.4969 177.336 84.1636 174.764C93.4902 165.756 100.097 148.381 100.097 148.381L81.8757 131.555L81.8696 131.554Z" fill="#FF8400"/>
<path d="M82.7624 132.444C82.7624 132.444 73.8923 134.435 72.6019 135.074C63.7424 139.458 59.7795 152.195 59.7795 152.195C59.7795 152.195 63.4534 147.921 67.3975 145.053C70.9552 142.468 77.5152 143.02 78.0438 143.796C78.4803 144.436 75.3246 145.655 73.1863 148.207C67.0221 155.553 65.7064 168.034 65.7064 168.034C65.7064 168.034 75.0924 164.726 79.0577 161.549C85.3122 156.534 87.4064 152.2 88.8456 152.809C90.0271 153.307 90.6892 157.18 89.4546 160.311C87.3209 165.721 83.7991 170.49 83.7991 170.49C83.7991 170.49 86.741 169.311 88.6788 167.484C95.4544 161.101 99.2235 147.715 99.2235 147.715L82.7583 132.444L82.7624 132.444Z" fill="#FFB517"/>
<path d="M136.804 80.4694L147.945 81.6305C148.752 81.7143 149.592 81.0992 149.822 80.2568C150.053 79.4144 149.588 78.6643 148.783 78.5782L137.642 77.4171C136.835 77.3333 135.995 77.9484 135.765 78.7908C135.534 79.6332 135.999 80.3833 136.804 80.4694Z" fill="#D0FFFF"/>
<path d="M133.438 86.3351L139.613 86.9776C140.42 87.0614 141.26 86.4463 141.49 85.6039C141.72 84.7615 141.256 84.0114 140.451 83.9253L134.276 83.2828C133.469 83.1991 132.629 83.8142 132.399 84.6565C132.168 85.4989 132.633 86.249 133.438 86.3351Z" fill="#D0FFFF"/>
<path d="M151.59 103.324C159.235 93.0779 167.91 79.4863 173.065 68.6819C170.903 71.1851 168.725 73.6736 166.523 76.1425C152.909 91.4185 138.612 106.076 124.227 120.621C115.468 129.477 106.67 138.298 97.9568 147.199L100.139 149.3C100.139 149.3 129.978 132.285 151.588 103.326L151.59 103.324Z" fill="#DDDDDD"/>
<path d="M281.02 101.32L281.27 101.556" stroke="#FF4545" stroke-width="6" stroke-miterlimit="10"/>
<path d="M87.4683 124.901L81.456 131.278" stroke="#FF4545" stroke-width="6" stroke-miterlimit="10"/>
<path d="M90.9863 128.217L84.6756 134.912" stroke="#FF4545" stroke-width="6" stroke-miterlimit="10"/>
<path d="M95.8345 131.693L89.2758 138.65" stroke="#FF4545" stroke-width="6" stroke-miterlimit="10"/>
<path d="M99.0718 134.745L92.7632 141.938" stroke="#FF4545" stroke-width="6" stroke-miterlimit="10"/>
<path d="M102.753 138.215L96.1948 145.172" stroke="#FF4545" stroke-width="6" stroke-miterlimit="10"/>
<path d="M106.147 141.489L99.5888 148.447" stroke="#FF4545" stroke-width="6" stroke-miterlimit="10"/>
<path d="M83.8877 121.525L107.747 144.018" stroke="#FF4545" stroke-width="6" stroke-miterlimit="10"/>
<path d="M80.1978 130.356L99.56 148.943" stroke="#FF4545" stroke-width="6" stroke-miterlimit="10"/>
<path d="M169.404 75.6411C176.313 62.9336 180.885 51.1274 178.171 47.109C175.039 42.4772 162.494 47.2474 148.783 55.287C155.7 62.0279 162.476 68.9118 169.404 75.6411Z" fill="#FF4545"/>
<path d="M165.711 71.7681C166.865 72.9172 168.022 74.0659 169.187 75.2034C172.226 70.0537 174.72 65.1513 175.95 61.4618C172.621 64.9929 169.223 68.454 165.709 71.7704L165.711 71.7681Z" fill="#AA0004"/>
</g>
<defs>
<filter id="filter0_f_46_6" x="0.519043" y="108.927" width="116.268" height="113.079" filterUnits="userSpaceOnUse" color-interpolation-filters="sRGB">
<feFlood flood-opacity="0" result="BackgroundImageFix"/>
<feBlend mode="normal" in="SourceGraphic" in2="BackgroundImageFix" result="shape"/>
<feGaussianBlur stdDeviation="7" result="effect1_foregroundBlur_46_6"/>
</filter>
<clipPath id="clip0_46_6">
<rect width="147.033" height="224.523" fill="white" transform="translate(174.939) rotate(43.3103)"/>
</clipPath>
</defs>
</svg>
