<svg width="266" height="242" viewBox="0 0 266 242" fill="none" xmlns="http://www.w3.org/2000/svg">
<g filter="url(#filter0_f_46_6)">
<path d="M70.4906 118.104L49.8948 141.197C48.547 142.72 47.0582 144.295 44.6965 144.763C41.7038 145.342 38.0944 144.027 34.7425 143.674C24.1841 142.589 19.2641 151.034 16.2964 158.462C15.4827 160.517 14.6588 162.648 14.9972 165.035C15.5116 168.771 18.7469 172.463 21.8438 175.862C28.4343 183.123 37.1248 191.392 46.7554 191.648C60.4036 192.019 65.7736 175.62 79.6496 180.236C81.9356 180.991 84.2116 182.332 86.4846 182.492C88.286 182.619 89.8162 181.98 91.0258 181.181C95.444 178.303 97.1913 173.052 95.5254 167.683C93.0807 159.89 84.0513 151.553 86.6088 144.876C88.0569 141.063 93.0715 139.216 94.3822 135.334C95.6948 131.392 92.7193 126.284 88.4373 122.618C84.1553 118.952 78.7462 116.432 73.4744 113.981C71.9367 118.705 68.2642 122.546 63.1846 124.747" fill="#959595"/>
</g>
<g clip-path="url(#clip0_46_6)">
<path d="M96.6254 95.6718C94.7328 91.3131 85.6451 93.4378 84.5572 93.6927C73.6866 96.2329 65.4531 107.256 66.35 108.588C66.7752 109.219 68.907 107.167 73.3317 106.244C82.0705 104.419 85.2868 110.016 90.4156 107.632C94.6893 105.645 98.1252 99.1214 96.6272 95.6735L96.6254 95.6718Z" fill="#FF4545"/>
<path d="M120.701 118.188C125.199 119.806 123.596 128.931 123.404 130.024C121.489 140.939 110.883 149.743 109.489 148.933C108.83 148.549 110.769 146.317 111.436 141.881C112.758 133.119 106.936 130.263 109.033 125.043C110.78 120.694 117.142 116.906 120.699 118.187L120.701 118.188Z" fill="#FF4545"/>
<path d="M80.3595 119.009C80.3595 119.009 89.3767 92.0353 114.481 70.3418C132.423 54.8363 165.263 35.4728 170.573 43.1242C174.958 49.4447 160.031 76.0571 147.663 92.9417C127.389 120.622 98.1753 135.98 98.1753 135.98L80.3595 119.009Z" fill="#E5E5E5"/>
<path d="M126.669 86.6727C131.164 90.8763 138.927 89.9483 144.009 84.6001C149.091 79.2518 149.567 71.5086 145.072 67.305C140.578 63.1015 132.814 64.0295 127.732 69.3777C122.65 74.7259 122.174 82.4692 126.669 86.6727Z" fill="#78E9FF" stroke="#3FB0FF" stroke-width="4" stroke-miterlimit="10"/>
<path d="M80.9509 120.578C80.9509 120.578 69.2449 125.175 67.46 126.291C55.2163 133.956 50.256 148.654 50.256 148.654C50.256 148.654 52.8899 144.897 58.5558 140.306C63.6651 136.167 71.8533 135.368 72.3423 136.247C72.7449 136.969 68.4655 139.26 65.1647 143.028C55.6505 153.884 51.0944 170.221 51.0944 170.221C51.0944 170.221 63.758 163.818 69.5208 158.821C78.6125 150.941 82.2681 144.892 83.9538 145.344C85.3352 145.713 85.2794 150.537 82.9909 154.843C79.0338 162.284 73.4679 169.219 73.4679 169.219C73.4679 169.219 77.4712 167.027 80.3488 164.24C90.4178 154.48 98.2932 136.42 98.2932 136.42L80.9544 120.581L80.9509 120.578Z" fill="#FF4545" stroke="#FF4545" stroke-width="6" stroke-miterlimit="10"/>
<path d="M81.8978 120.103C81.8978 120.103 71.5083 123.559 69.9499 124.461C59.2561 130.662 55.6303 143.655 55.6303 143.655C55.6303 143.655 57.8037 140.414 62.6869 136.604C67.0921 133.167 74.5052 132.936 75.0072 133.758C75.4181 134.436 71.6591 136.25 68.8779 139.46C60.8659 148.708 57.7071 163.208 57.7071 163.208C57.7071 163.208 68.8608 158.175 73.8099 154.002C81.6169 147.421 84.5812 142.17 86.1464 142.679C87.4286 143.095 87.6697 147.455 85.8455 151.211C82.6891 157.703 78.04 163.642 78.04 163.642C78.04 163.642 81.5548 161.9 84.0089 159.551C92.5915 151.327 98.6716 135.465 98.6716 135.465L81.9034 120.104L81.8978 120.103Z" fill="#FF8400"/>
<path d="M82.7195 120.915C82.7195 120.915 74.5568 122.733 73.3693 123.316C65.2165 127.319 61.5696 138.947 61.5696 138.947C61.5696 138.947 64.9505 135.045 68.5801 132.427C71.854 130.067 77.8908 130.571 78.3772 131.279C78.7789 131.863 75.8749 132.976 73.9071 135.306C68.2346 142.013 67.0238 153.407 67.0238 153.407C67.0238 153.407 75.6612 150.388 79.3102 147.487C85.0659 142.908 86.993 138.951 88.3175 139.508C89.4047 139.963 90.014 143.498 88.8778 146.357C86.9143 151.296 83.6734 155.649 83.6734 155.649C83.6734 155.649 86.3807 154.573 88.1639 152.906C94.3991 147.078 97.8676 134.858 97.8676 134.858L82.7157 120.916L82.7195 120.915Z" fill="#FFB517"/>
<path d="M132.45 73.4649L142.703 74.5249C143.446 74.6014 144.219 74.0399 144.431 73.2708C144.643 72.5017 144.215 71.817 143.474 71.7384L133.222 70.6783C132.479 70.6018 131.706 71.1634 131.494 71.9325C131.282 72.7015 131.71 73.3863 132.45 73.4649Z" fill="#D0FFFF"/>
<path d="M129.353 78.8201L135.036 79.4066C135.779 79.4831 136.551 78.9215 136.763 78.1525C136.975 77.3834 136.548 76.6986 135.807 76.62L130.125 76.0335C129.382 75.957 128.609 76.5185 128.397 77.2876C128.185 78.0567 128.613 78.7414 129.353 78.8201Z" fill="#D0FFFF"/>
<path d="M146.057 94.33C153.093 84.9759 161.076 72.5674 165.82 62.7035C163.83 64.9887 161.826 67.2607 159.799 69.5147C147.272 83.4609 134.115 96.8427 120.877 110.121C112.817 118.207 104.72 126.26 96.7021 134.386L98.7103 136.304C98.7103 136.304 126.17 120.77 146.055 94.3321L146.057 94.33Z" fill="#DDDDDD"/>
<path d="M265.164 92.5007L265.394 92.716" stroke="#FF4545" stroke-width="6" stroke-miterlimit="10"/>
<path d="M87.0498 114.028L81.5171 119.851" stroke="#FF4545" stroke-width="6" stroke-miterlimit="10"/>
<path d="M90.2876 117.057L84.4802 123.168" stroke="#FF4545" stroke-width="6" stroke-miterlimit="10"/>
<path d="M94.749 120.23L88.7135 126.581" stroke="#FF4545" stroke-width="6" stroke-miterlimit="10"/>
<path d="M97.728 123.016L91.9226 129.583" stroke="#FF4545" stroke-width="6" stroke-miterlimit="10"/>
<path d="M101.116 126.184L95.0802 132.536" stroke="#FF4545" stroke-width="6" stroke-miterlimit="10"/>
<path d="M104.239 129.173L98.2032 135.525" stroke="#FF4545" stroke-width="6" stroke-miterlimit="10"/>
<path d="M83.7549 110.947L105.712 131.481" stroke="#FF4545" stroke-width="6" stroke-miterlimit="10"/>
<path d="M80.3594 119.009L98.1773 135.978" stroke="#FF4545" stroke-width="6" stroke-miterlimit="10"/>
<path d="M162.451 69.057C168.808 57.4555 173.016 46.677 170.518 43.0085C167.636 38.7798 156.092 43.1348 143.474 50.4746C149.84 56.6287 156.075 62.9134 162.451 69.057Z" fill="#FF4545"/>
<path d="M159.052 65.5211C160.114 66.5702 161.179 67.6189 162.251 68.6574C165.047 63.9559 167.342 59.4802 168.474 56.1119C165.411 59.3356 162.284 62.4955 159.05 65.5232L159.052 65.5211Z" fill="#AA0004"/>
</g>
<defs>
<filter id="filter0_f_46_6" x="0.919434" y="99.9806" width="109.227" height="105.673" filterUnits="userSpaceOnUse" color-interpolation-filters="sRGB">
<feFlood flood-opacity="0" result="BackgroundImageFix"/>
<feBlend mode="normal" in="SourceGraphic" in2="BackgroundImageFix" result="shape"/>
<feGaussianBlur stdDeviation="7" result="effect1_foregroundBlur_46_6"/>
</filter>
<clipPath id="clip0_46_6">
<rect width="134.803" height="205.75" fill="white" transform="matrix(0.730364 0.683058 -0.688832 0.724921 167.544 0)"/>
</clipPath>
</defs>
</svg>
