<svg width="268" height="265" viewBox="0 0 268 265" fill="none" xmlns="http://www.w3.org/2000/svg">
<g filter="url(#filter0_f_46_6)">
<path d="M60.9786 127.444L38.5978 152.738C37.1332 154.407 35.5153 156.132 32.9489 156.645C29.6968 157.279 25.7745 155.838 22.1321 155.452C10.6586 154.263 5.31222 163.514 2.08732 171.65C1.20302 173.901 0.307781 176.235 0.675469 178.849C1.23449 182.941 4.75015 186.985 8.11549 190.709C15.2772 198.662 24.721 207.72 35.1862 208C50.0173 208.407 55.8528 190.444 70.9315 195.499C73.4156 196.327 75.8889 197.796 78.3589 197.971C80.3164 198.11 81.9792 197.41 83.2937 196.534C88.0948 193.382 89.9936 187.631 88.1833 181.75C85.5267 173.214 75.7147 164.082 78.4939 156.769C80.0675 152.592 85.5167 150.568 86.941 146.316C88.3673 141.999 85.134 136.403 80.4809 132.388C75.8277 128.373 69.9498 125.613 64.2211 122.927C62.5501 128.102 58.5592 132.309 53.0394 134.721" fill="#959595"/>
</g>
<g clip-path="url(#clip0_46_6)">
<path d="M83.9454 104.794C81.8888 100.019 72.0134 102.347 70.8313 102.626C59.0185 105.408 50.0713 117.482 51.046 118.941C51.5081 119.632 53.8246 117.384 58.6328 116.374C68.129 114.375 71.624 120.505 77.1974 117.894C81.8415 115.717 85.5752 108.572 83.9473 104.795L83.9454 104.794Z" fill="#FF4545"/>
<path d="M110.108 129.457C114.995 131.229 113.254 141.224 113.045 142.42C110.964 154.377 99.4386 164.02 97.9241 163.133C97.2076 162.713 99.3147 160.268 100.04 155.408C101.476 145.811 95.1504 142.683 97.4282 136.965C99.3273 132.201 106.24 128.053 110.106 129.455L110.108 129.457Z" fill="#FF4545"/>
<path d="M66.2695 130.356C66.2695 130.356 76.0683 100.81 103.349 77.0486C122.845 60.0646 158.532 38.8549 164.302 47.2359C169.067 54.1589 152.846 83.3087 139.406 101.803C117.375 132.122 85.6295 148.945 85.6295 148.945L66.2695 130.356Z" fill="#E5E5E5"/>
<path d="M116.593 94.9365C121.477 99.5408 129.914 98.5244 135.436 92.6662C140.959 86.8081 141.476 78.3265 136.592 73.7222C131.707 69.1179 123.271 70.1343 117.749 75.9925C112.226 81.8506 111.709 90.3321 116.593 94.9365Z" fill="#78E9FF" stroke="#3FB0FF" stroke-width="4" stroke-miterlimit="10"/>
<path d="M66.9124 132.074C66.9124 132.074 54.1918 137.109 52.2522 138.332C38.9474 146.728 33.5571 162.828 33.5571 162.828C33.5571 162.828 36.4193 158.712 42.5762 153.684C48.1284 149.15 57.0263 148.275 57.5577 149.237C57.9952 150.028 53.3449 152.537 49.758 156.665C39.4192 168.556 34.4682 186.45 34.4682 186.45C34.4682 186.45 48.2293 179.438 54.4916 173.964C64.3713 165.332 68.3438 158.706 70.1756 159.202C71.6767 159.606 71.6161 164.89 69.1292 169.606C64.8291 177.756 58.7808 185.353 58.7808 185.353C58.7808 185.353 63.1311 182.952 66.2581 179.899C77.1998 169.209 85.7578 149.427 85.7578 149.427L66.9163 132.078L66.9124 132.074Z" fill="#FF4545" stroke="#FF4545" stroke-width="6" stroke-miterlimit="10"/>
<path d="M67.9414 131.554C67.9414 131.554 56.6514 135.339 54.958 136.328C43.3373 143.12 39.3972 157.351 39.3972 157.351C39.3972 157.351 41.759 153.801 47.0654 149.629C51.8525 145.863 59.908 145.61 60.4535 146.511C60.9001 147.253 56.8153 149.241 53.793 152.757C45.0866 162.886 41.6541 178.769 41.6541 178.769C41.6541 178.769 53.7744 173.257 59.1525 168.686C67.6361 161.477 70.8574 155.725 72.5583 156.283C73.9515 156.739 74.2135 161.514 72.2313 165.628C68.8012 172.739 63.7492 179.244 63.7492 179.244C63.7492 179.244 67.5687 177.336 70.2354 174.764C79.562 165.756 86.169 148.381 86.169 148.381L67.9475 131.555L67.9414 131.554Z" fill="#FF8400"/>
<path d="M68.8342 132.444C68.8342 132.444 59.9641 134.435 58.6736 135.074C49.8142 139.458 45.8513 152.195 45.8513 152.195C45.8513 152.195 49.5251 147.921 53.4693 145.053C57.027 142.468 63.587 143.02 64.1156 143.796C64.5521 144.436 61.3964 145.655 59.2581 148.207C53.0939 155.553 51.7782 168.034 51.7782 168.034C51.7782 168.034 61.1641 164.726 65.1294 161.549C71.384 156.534 73.4782 152.2 74.9174 152.809C76.0989 153.307 76.761 157.18 75.5263 160.311C73.3926 165.721 69.8708 170.49 69.8708 170.49C69.8708 170.49 72.8128 169.311 74.7506 167.484C81.5262 161.101 85.2952 147.715 85.2952 147.715L68.8301 132.444L68.8342 132.444Z" fill="#FFB517"/>
<path d="M122.876 80.4694L134.017 81.6305C134.824 81.7143 135.664 81.0992 135.894 80.2568C136.124 79.4144 135.66 78.6643 134.855 78.5782L123.714 77.4171C122.906 77.3333 122.067 77.9484 121.836 78.7908C121.606 79.6332 122.071 80.3833 122.876 80.4694Z" fill="#D0FFFF"/>
<path d="M119.51 86.3351L125.685 86.9776C126.492 87.0614 127.332 86.4463 127.562 85.6039C127.792 84.7615 127.328 84.0114 126.523 83.9253L120.348 83.2828C119.541 83.1991 118.701 83.8142 118.471 84.6565C118.24 85.4989 118.705 86.249 119.51 86.3351Z" fill="#D0FFFF"/>
<path d="M137.662 103.324C145.307 93.0779 153.982 79.4863 159.137 68.6819C156.975 71.1851 154.797 73.6736 152.594 76.1425C138.981 91.4185 124.684 106.076 110.299 120.621C101.54 129.477 92.7415 138.298 84.0286 147.199L86.2108 149.3C86.2108 149.3 116.05 132.285 137.659 103.326L137.662 103.324Z" fill="#DDDDDD"/>
<path d="M267.091 101.32L267.341 101.556" stroke="#FF4545" stroke-width="6" stroke-miterlimit="10"/>
<path d="M73.54 124.901L67.5277 131.278" stroke="#FF4545" stroke-width="6" stroke-miterlimit="10"/>
<path d="M77.0581 128.217L70.7474 134.912" stroke="#FF4545" stroke-width="6" stroke-miterlimit="10"/>
<path d="M81.9062 131.693L75.3476 138.65" stroke="#FF4545" stroke-width="6" stroke-miterlimit="10"/>
<path d="M85.1436 134.745L78.835 141.938" stroke="#FF4545" stroke-width="6" stroke-miterlimit="10"/>
<path d="M88.8252 138.215L82.2665 145.172" stroke="#FF4545" stroke-width="6" stroke-miterlimit="10"/>
<path d="M92.2192 141.489L85.6606 148.447" stroke="#FF4545" stroke-width="6" stroke-miterlimit="10"/>
<path d="M69.9595 121.525L93.8192 144.018" stroke="#FF4545" stroke-width="6" stroke-miterlimit="10"/>
<path d="M66.2695 130.356L85.6318 148.943" stroke="#FF4545" stroke-width="6" stroke-miterlimit="10"/>
<path d="M155.476 75.6411C162.385 62.9336 166.957 51.1274 164.242 47.109C161.111 42.4772 148.566 47.2474 134.855 55.287C141.772 62.0279 148.548 68.9118 155.476 75.6411Z" fill="#FF4545"/>
<path d="M151.783 71.7681C152.936 72.9172 154.094 74.0659 155.259 75.2034C158.298 70.0537 160.792 65.1513 162.022 61.4618C158.693 64.9929 155.295 68.454 151.78 71.7704L151.783 71.7681Z" fill="#AA0004"/>
</g>
<defs>
<filter id="filter0_f_46_6" x="-13.4092" y="108.927" width="116.268" height="113.079" filterUnits="userSpaceOnUse" color-interpolation-filters="sRGB">
<feFlood flood-opacity="0" result="BackgroundImageFix"/>
<feBlend mode="normal" in="SourceGraphic" in2="BackgroundImageFix" result="shape"/>
<feGaussianBlur stdDeviation="7" result="effect1_foregroundBlur_46_6"/>
</filter>
<clipPath id="clip0_46_6">
<rect width="147.033" height="224.523" fill="white" transform="translate(161.011) rotate(43.3103)"/>
</clipPath>
</defs>
</svg>
