<svg width="161" height="205" viewBox="0 0 161 205" fill="none" xmlns="http://www.w3.org/2000/svg">
<g clip-path="url(#clip0_46_4)">
<path d="M147.611 59.3963C139.06 56.9846 131.165 62.612 129.455 67.472C127.854 72.0396 136.659 80.1153 132.948 87.2409C130.401 92.1374 126.435 96.8147 124.325 102.954C122.214 109.093 125.635 114.391 116.684 118.484C109.444 121.773 103.295 118.155 94.6353 114.355C96.4909 120.896 89.6507 120.274 87.3584 125.207C83.8292 132.808 91.8337 144.026 84.4841 150.092C84.0839 150.421 72.259 152.394 71.8588 152.723C70.8764 153.527 71.5677 162.991 63.0902 164.672C58.0328 165.659 46.499 157.693 45.5166 165.988C37.9851 161.895 32.673 148.704 23.2131 143.588C12.6253 129.702 5.38488 115.524 2.29031e-05 101.09C-0.363819 97.4725 3.01991 97.7283 3.05629 97.509L14.1171 90.0911L35.9112 83.7694L58.7969 48.1415C66.292 49.0185 68.2931 44.9624 73.1322 43.9027C81.6825 42.0391 95.2174 42.5873 104.823 40.7967C106.97 40.3948 113.519 39.9928 108.971 36.7406C109.189 36.7406 109.262 34.5116 111.627 34.5116C123.815 34.6212 140.952 43.1719 146.774 52.4534C149.466 56.7288 147.138 58.1174 147.574 59.3963H147.611ZM118.831 64.5852C126.217 63.8909 133.967 61.9542 127.89 54.5363C114.574 50.3706 103.986 49.8955 101.876 60.0175C110.462 63.8178 111.554 65.2795 118.831 64.5852ZM90.2328 69.9202C78.0077 63.8178 63.163 65.8276 58.6513 73.1359C71.6041 80.1884 88.5227 80.4442 90.2328 69.9202ZM99.2197 85.2311L102.749 91.5893C105.769 92.8317 114.901 91.5528 115.083 89.2872L108.57 84.2445L99.2561 85.2311H99.2197ZM69.7485 107.266C60.0339 97.5821 25.4326 102.917 41.4052 111.87C52.3932 118.045 65.819 113.697 69.7485 107.266Z" fill="#6D6C71"/>
<path d="M147.611 59.3963C150.558 67.4719 161.328 87.7524 160.964 93.7818C160.527 101.054 155.324 121.334 152.377 127.765C150.34 132.223 145.61 133.758 143.39 137.266C137.86 145.999 137.824 154.66 125.817 160.433C123.197 161.676 115.52 161.201 113.592 162.114C107.37 165.001 103.404 172.09 94.1625 174.319C93.1801 174.538 90.0147 172.675 88.7049 172.967C87.395 173.259 87.4314 175.671 86.2671 175.963C85.3575 176.183 66.6197 174.575 65.5282 174.283C61.7806 173.332 49.1917 167.997 45.4805 165.988C46.4628 157.656 57.9966 165.659 63.054 164.672C71.5315 162.991 70.8402 153.527 71.8226 152.723C72.2592 152.394 84.0477 150.421 84.4479 150.092C91.7611 144.063 83.793 132.808 87.3223 125.207C89.6145 120.274 96.4547 120.896 94.5991 114.355C103.259 118.155 109.407 121.773 116.648 118.484C125.635 114.391 122.106 109.312 124.289 102.954C126.472 96.5955 130.365 92.1374 132.912 87.2409C136.623 80.1153 127.818 72.0396 129.419 67.4719C131.129 62.6119 139.024 56.9846 147.574 59.3963H147.611Z" fill="#48474B"/>
<path d="M109.007 36.7407C113.555 39.9928 106.97 40.3948 104.859 40.7968C95.2539 42.5873 81.719 42.0392 73.1687 43.9028C68.2932 44.9625 66.2921 49.0186 58.8333 48.1416L35.9477 83.7695L14.1536 90.0911L3.09277 97.5091C5.7852 84.683 9.09616 83.8426 15.2087 73.684C18.9563 67.4355 17.6828 59.1406 27.9796 54.244C32.3457 52.1611 37.7669 53.842 41.8055 52.015C46.4263 49.8956 48.1 44.8894 51.9931 42.2219C72.441 28.3361 81.9009 36.1195 108.971 36.7772L109.007 36.7407Z" fill="#929194"/>
<path d="M69.7486 107.266C65.8191 113.697 52.3933 118.045 41.4053 111.87C25.4327 102.917 60.034 97.5455 69.7486 107.266Z" fill="#3E3D43"/>
<path d="M118.831 64.5852C111.59 65.2794 110.462 63.8178 101.875 60.0175C103.949 49.8955 114.537 50.3705 127.89 54.5363C134.003 61.9542 126.217 63.8543 118.831 64.5852Z" fill="#3E3D43"/>
<path d="M90.2328 69.9202C88.4864 80.4076 71.5678 80.1518 58.6514 73.1359C63.163 65.8641 78.0077 63.8178 90.2328 69.9202Z" fill="#3E3D43"/>
<path d="M99.2195 85.2311L108.534 84.2444L115.047 89.2872C114.865 91.5527 105.732 92.8317 102.712 91.5893L99.1831 85.2311H99.2195Z" fill="#48484D"/>
<path d="M85.777 124.187C56.7328 119.635 28.7346 112.671 8.44944 102.46C5.72587 101.089 1.1067 103.089 3.83027 104.459C24.8344 115.036 53.9657 122.197 84.0339 126.909C87.9994 127.528 89.6989 124.807 85.777 124.197V124.187Z" fill="#840000"/>
<path d="M93.1562 125.936C117.216 122.354 140.509 116.909 157.334 108.866C159.513 107.824 155.834 106.305 153.638 107.354C137.406 115.11 115.002 120.405 91.7788 123.866C88.6406 124.337 90.0005 126.407 93.1736 125.929L93.1562 125.936Z" fill="#840000"/>
<path d="M76 107C76.5593 107.925 77.2131 110.051 78.6389 109.708C79.8281 109.423 80.8698 107.88 81.6944 107.056C82.1007 106.649 83.9452 104.108 84.625 105.014C86.228 107.151 87.3248 109.07 89.6389 106.306C90.3285 105.482 90.9518 104.462 91.8056 105.611C92.6821 106.791 92.8269 107.922 94.5 107.736C95.4939 107.626 96.3696 106.662 97.3889 107.125C98.193 107.491 98.299 108.033 99 108.5" stroke="black" stroke-width="3" stroke-linecap="round"/>
<path d="M48.6828 80.1937C54.958 76.6296 63.3495 81.0698 69.5766 82.7681C72.15 83.47 73.8719 85.306 76.1352 86.6561C77.0783 87.2186 78.6002 89.7361 79.6076 89.5895" stroke="black" stroke-width="3" stroke-linecap="round"/>
<path d="M69.7477 84.3292C68.0993 86.3978 66.1544 89.4949 67.5543 92.2133C68.755 94.5448 71.3084 94.7127 73.6096 94.3779C74.9035 94.1897 76.8212 93.4214 77.4418 92.1152C77.6338 91.711 77.9491 91.2216 78.2144 90.8659C78.4524 90.5469 78.3801 90.0973 78.4944 89.7515" stroke="black" stroke-width="3" stroke-linecap="round"/>
<path d="M122.285 78.796C115.991 75.2642 107.623 79.7476 101.404 81.4779C98.8345 82.1929 97.1221 84.0378 94.8657 85.3995C93.9256 85.9669 92.4166 88.4922 91.4085 88.3508" stroke="black" stroke-width="3" stroke-linecap="round"/>
<path d="M101.241 83.0398C102.9 85.0999 104.861 88.187 103.475 90.9125C102.287 93.2502 99.7341 93.4312 97.4313 93.1083C96.1364 92.9267 94.2148 92.1683 93.5875 90.8653C93.3934 90.4621 93.0756 89.9743 92.8085 89.62C92.5688 89.3022 92.6388 88.8523 92.5227 88.507" stroke="black" stroke-width="3" stroke-linecap="round"/>
<path d="M99.7502 84.75C99.7502 86.2082 99.5002 87.5634 99.5002 89C99.5002 89.6706 99.5916 91.0958 100.25 91.4444C101.07 91.8782 102.5 91.5126 102.5 90.5C102.5 89.3271 101.977 88.8168 101.695 87.75C101.603 87.404 101.311 86.1111 100.806 86.1111C100.693 86.1111 100.75 88.0571 100.75 88.1944C100.75 89.2989 101.309 91.3417 99.7502 91.25C98.6294 91.1841 99.0002 86.7144 99.0002 86" stroke="black" stroke-width="3" stroke-linecap="round"/>
<path d="M94.75 86.75C94.75 88.1172 95 89.5489 95 91" stroke="black" stroke-width="3" stroke-linecap="round"/>
<path d="M75.9998 87.5C75.9998 89.167 75.2498 94.1114 75.2498 92.4444C75.2498 91.7046 75.0311 90.5391 75.3887 89.875C75.8059 89.1001 75.9998 88.471 75.9998 89.75" stroke="black" stroke-width="3" stroke-linecap="round"/>
<path d="M72.25 85C72.25 86.0903 71.6792 87.0507 71.5139 88.125C71.2603 89.7734 70.9942 91.2687 70.5 92.875C70.201 93.8467 70.25 93.4816 70.25 92.7083C70.25 91.3056 70.25 89.9028 70.25 88.5C70.25 87.934 70.5575 85.8261 69.75 87.1528C69.0993 88.2218 68.7121 89.5947 68.25 90.75" stroke="black" stroke-width="3" stroke-linecap="round"/>
</g>
<path d="M82.4598 124.87L78.5298 195.14L87.8498 202.4L96.0098 195.44L90.3998 124.87L82.4598 124.87Z" fill="#840000"/>
<path d="M80.2397 122.93L92.3297 122.93L90.1297 127.87L82.9197 127.67L80.2397 122.93Z" fill="#840000"/>
<path d="M117.273 35.6549H54.4916C52.011 35.6549 50 37.9532 50 40.7884C50 43.6235 52.011 45.9218 54.4916 45.9218H117.273C119.754 45.9218 121.765 43.6235 121.765 40.7884C121.765 37.9532 119.754 35.6549 117.273 35.6549Z" fill="#840000" stroke="#840000" stroke-miterlimit="10"/>
<path d="M102.723 1H68.4114C64.4487 1 61.2363 4.67145 61.2363 9.2004V32.5879C61.2363 37.1169 64.4487 40.7884 68.4114 40.7884H102.723C106.685 40.7884 109.898 37.1169 109.898 32.5879V9.2004C109.898 4.67145 106.685 1 102.723 1Z" fill="#840000" stroke="#840000" stroke-miterlimit="10"/>
<defs>
<clipPath id="clip0_46_4">
<rect width="161" height="142" fill="white" transform="translate(0 34)"/>
</clipPath>
</defs>
</svg>
