<svg width="92" height="80" viewBox="0 0 92 80" fill="none" xmlns="http://www.w3.org/2000/svg">
<g clip-path="url(#clip0_11_2929)">
<path d="M84.3489 14.3078C79.4631 12.949 74.9514 16.1194 73.9743 18.8574C73.0595 21.4308 78.0909 25.9804 75.9702 29.9948C74.5148 32.7535 72.2486 35.3886 71.0427 38.8471C69.8368 42.3057 71.7912 45.2908 66.6766 47.5965C62.5392 49.4493 59.0256 47.4112 54.0773 45.2702C55.1376 48.9552 51.2289 48.6052 49.9191 51.3845C47.9024 55.6665 52.4764 61.9866 48.2766 65.404C48.0479 65.5893 41.2909 66.701 41.0622 66.8863C40.5008 67.3392 40.8958 72.6711 36.0515 73.6181C33.1616 74.174 26.5709 69.6861 26.0095 74.3592C21.7058 72.0535 18.6703 64.6217 13.2646 61.7396C7.21448 53.9166 3.07708 45.929 1.30869e-05 37.7972C-0.207897 35.7591 1.72566 35.9032 1.74645 35.7797L8.06691 31.6006L20.5207 28.0391L33.5982 7.96705C37.8811 8.46114 39.0246 6.17601 41.7898 5.579C46.6757 4.52907 54.41 4.83787 59.8988 3.82912C61.1254 3.60267 64.8678 3.37622 62.2689 1.544C62.3937 1.544 62.4353 0.288208 63.7867 0.288208C70.7516 0.349968 80.5442 5.16726 83.8708 10.3963C85.4093 12.8049 84.0787 13.5872 84.3282 14.3078H84.3489ZM67.9033 17.2311C72.1239 16.8399 76.5523 15.7488 73.0802 11.5697C65.4708 9.22285 59.4206 8.95522 58.2147 14.6577C63.1214 16.7988 63.7451 17.6222 67.9033 17.2311ZM51.5616 20.2367C44.5758 16.7988 36.0931 17.931 33.515 22.0484C40.9166 26.0216 50.5844 26.1657 51.5616 20.2367ZM56.697 28.8626L58.7137 32.4447C60.4393 33.1446 65.6579 32.4241 65.7618 31.1477L62.0402 28.3067L56.7178 28.8626H56.697ZM39.8563 41.2764C34.3051 35.8209 14.5329 38.8266 23.6601 43.8703C29.939 47.3495 37.6109 44.8996 39.8563 41.2764Z" fill="#6D6C71"/>
<path d="M84.349 14.3078C86.0331 18.8574 92.1872 30.2831 91.9793 33.6799C91.7298 37.7766 88.7567 49.2023 87.0726 52.8255C85.9083 55.3371 83.2055 56.2017 81.9372 58.1781C78.777 63.0983 78.7562 67.9773 71.8952 71.23C70.3983 71.93 66.0114 71.6624 64.9094 72.177C61.3542 73.8034 59.088 77.7972 53.8071 79.053C53.2457 79.1765 51.4369 78.1266 50.6884 78.2913C49.94 78.456 49.9607 79.8147 49.2954 79.9794C48.7757 80.1029 38.0683 79.1971 37.4446 79.0324C35.3031 78.4972 28.1094 75.4915 25.9888 74.3592C26.5501 69.6655 33.1409 74.1739 36.0308 73.6181C40.8751 72.6711 40.4801 67.3392 41.0414 66.8862C41.2909 66.701 48.0272 65.5893 48.2559 65.404C52.4349 62.0072 47.8816 55.6665 49.8984 51.3844C51.2082 48.6052 55.1169 48.9552 54.0566 45.2702C59.0048 47.4112 62.5185 49.4493 66.6559 47.5965C71.7913 45.2908 69.7745 42.4292 71.022 38.8471C72.2694 35.265 74.4941 32.7535 75.9494 29.9948C78.0701 25.9804 73.0387 21.4308 73.9535 18.8574C74.9307 16.1194 79.4423 12.949 84.3282 14.3078H84.349Z" fill="#48474B"/>
<path d="M62.2896 1.54402C64.8884 3.37624 61.1253 3.6027 59.9194 3.82915C54.4306 4.8379 46.6964 4.5291 41.8105 5.57902C39.0245 6.17604 37.881 8.46116 33.6188 7.96708L20.5413 28.0391L8.08754 31.6006L1.76709 35.7797C3.30562 28.5538 5.1976 28.0803 8.69048 22.3572C10.8319 18.8369 10.1043 14.1637 15.9881 11.4051C18.483 10.2316 21.5809 11.1786 23.8887 10.1493C26.5291 8.95525 27.4855 6.13486 29.7101 4.63203C41.3947 -3.19092 46.8003 1.19405 62.2688 1.56461L62.2896 1.54402Z" fill="#929194"/>
<path d="M39.8564 41.2764C37.611 44.8996 29.9391 47.3495 23.6602 43.8703C14.533 38.8265 34.3052 35.8003 39.8564 41.2764Z" fill="#3E3D43"/>
<path d="M67.9034 17.2311C63.766 17.6222 63.1215 16.7988 58.2148 14.6578C59.3999 8.95524 65.4501 9.22287 73.0804 11.5698C76.5733 15.7489 72.124 16.8194 67.9034 17.2311Z" fill="#3E3D43"/>
<path d="M51.5617 20.2367C50.5637 26.1451 40.8959 26.001 33.5151 22.0484C36.0932 17.9516 44.5759 16.7988 51.5617 20.2367Z" fill="#3E3D43"/>
<path d="M56.6971 28.8626L62.0195 28.3067L65.7411 31.1477C65.6372 32.4241 60.4186 33.1446 58.693 32.4447L56.6763 28.8626H56.6971Z" fill="#48484D"/>
<g clip-path="url(#clip1_11_2929)">
<path d="M34.372 42.8431C33.1588 44.8669 36.2476 49.6444 39.3892 52.2088C44.8434 56.6624 53.2034 56.6858 58.2593 52.2771C61.5451 49.4102 63.8008 44.3478 62.549 42.6733C61.5756 41.3696 58.9827 42.7904 54.9246 43.6081C43.3396 45.9422 36.0078 40.1128 34.372 42.8431Z" fill="#29ABE2" stroke="#29ABE2" stroke-miterlimit="10"/>
<path d="M48.8199 52.9934C50.8333 52.9934 52.4655 51.4258 52.4655 49.4922C52.4655 47.5586 50.8333 45.991 48.8199 45.991C46.8065 45.991 45.1743 47.5586 45.1743 49.4922C45.1743 51.4258 46.8065 52.9934 48.8199 52.9934Z" fill="#66D5FF" stroke="#66D5FF" stroke-miterlimit="10"/>
<path d="M48.8385 48.7486C44.5345 48.7486 41.0454 52.8119 41.0454 57.8255C41.0454 62.8392 44.5345 66.9024 48.8385 66.9024C53.1425 66.9024 56.6316 62.8392 56.6316 57.8255C56.6316 52.8119 53.1425 48.7486 48.8385 48.7486ZM48.8385 64.7381C45.3534 64.7381 42.5268 61.3247 42.5268 57.1151C42.5268 52.9055 45.3534 49.4922 48.8385 49.4922C52.3235 49.4922 55.1502 52.9055 55.1502 57.1151C55.1502 61.3247 52.3235 64.7381 48.8385 64.7381Z" fill="#66D5FF" stroke="#66D5FF" stroke-miterlimit="10"/>
</g>
<g clip-path="url(#clip2_11_2929)">
<path d="M53.2054 29.8815C53.6614 28.2509 54.4734 26.9861 56.0972 26.1707C57.8768 25.2718 60.0345 24.9896 62.0366 25.1777C63.5047 25.3136 64.9951 25.8362 65.9294 26.7666C65.9516 26.7979 66.2186 27.0906 66.1296 26.9756C66.074 26.9024 66.2964 27.2056 66.3298 27.2683C66.3965 27.3728 66.4633 27.4878 66.5189 27.6028C66.3854 27.331 66.5522 27.6969 66.5745 27.77C66.619 27.9059 66.6523 28.0418 66.6857 28.1777C66.619 27.8328 66.6857 28.2404 66.6857 28.3136C66.6857 28.4495 66.6857 28.5854 66.6635 28.7213C66.6968 28.439 66.6523 28.7213 66.619 28.8362C66.0851 30.7909 69.2994 31.6272 69.8333 29.6725C70.3116 27.9164 69.7443 26.1707 68.5098 24.8119C67.0305 23.1707 64.7615 22.3868 62.5482 22.1254C59.7898 21.7909 56.8647 22.2509 54.4066 23.4948C51.9486 24.7387 50.6584 26.6934 49.9799 29.0767C49.4349 31.0314 52.6493 31.8676 53.1943 29.9129L53.2054 29.8815Z" fill="black"/>
<path d="M29.2812 29.8815C29.7372 28.2509 30.5492 26.9861 32.173 26.1707C33.9526 25.2718 36.1103 24.9896 38.1123 25.1777C39.5805 25.3136 41.0709 25.8362 42.0052 26.7666C42.0274 26.7979 42.2943 27.0906 42.2054 26.9756C42.1498 26.9024 42.3722 27.2056 42.4056 27.2683C42.4723 27.3728 42.539 27.4878 42.5947 27.6028C42.4612 27.331 42.628 27.6969 42.6503 27.77C42.6948 27.9059 42.7281 28.0418 42.7615 28.1777C42.6948 27.8328 42.7615 28.2404 42.7615 28.3136C42.7615 28.4495 42.7615 28.5854 42.7392 28.7213C42.7726 28.439 42.7281 28.7213 42.6948 28.8362C42.1609 30.7909 45.3752 31.6272 45.9091 29.6725C46.3874 27.9164 45.8201 26.1707 44.5856 24.8119C43.1174 23.1603 40.8373 22.3659 38.6351 22.1045C35.8768 21.77 32.9516 22.23 30.4935 23.4739C28.0355 24.7178 26.7342 26.662 26.0668 29.0558C25.5219 31.0105 28.7362 31.8467 29.2812 29.892V29.8815Z" fill="black"/>
</g>
</g>
<defs>
<clipPath id="clip0_11_2929">
<rect width="92" height="80" fill="white"/>
</clipPath>
<clipPath id="clip1_11_2929">
<rect width="29" height="25" fill="white" transform="translate(34 42)"/>
</clipPath>
<clipPath id="clip2_11_2929">
<rect width="44" height="9" fill="white" transform="translate(26 22)"/>
</clipPath>
</defs>
</svg>
