<svg width="188" height="179" viewBox="0 0 188 179" fill="none" xmlns="http://www.w3.org/2000/svg">
<g filter="url(#filter0_f_71_17)">
<rect width="122" height="113" rx="34" transform="matrix(-1 -3.8998e-09 -3.8998e-09 1 155 33)" fill="white"/>
</g>
<g clip-path="url(#clip0_71_17)">
<path d="M137.52 63.4212C131.465 61.6719 125.875 65.7537 124.664 69.2789C123.531 72.5921 129.765 78.4498 127.137 83.6184C125.334 87.1701 122.526 90.5628 121.032 95.0157C119.537 99.4686 121.959 103.312 115.621 106.28C110.495 108.666 106.141 106.042 100.009 103.285C101.323 108.03 96.4797 107.579 94.8566 111.157C92.3576 116.671 98.0254 124.808 92.8214 129.208C92.538 129.446 84.1651 130.878 83.8817 131.116C83.1861 131.699 83.6756 138.564 77.6729 139.783C74.0919 140.499 65.9251 134.721 65.2295 140.738C59.8966 137.769 56.1353 128.2 49.4369 124.49C41.94 114.418 36.8132 104.134 33.0003 93.6639C32.7427 91.0399 35.1386 91.2254 35.1644 91.0664L42.9963 85.6858L58.4281 81.1003L74.6329 55.2576C79.94 55.8937 81.3569 52.9516 84.7834 52.183C90.8376 50.8312 100.421 51.2288 107.223 49.93C108.743 49.6384 113.38 49.3469 110.16 46.9879C110.314 46.9879 110.366 45.3711 112.04 45.3711C120.671 45.4506 132.805 51.6528 136.927 58.3852C138.834 61.4863 137.185 62.4936 137.494 63.4212H137.52ZM117.141 67.185C122.371 66.6814 127.859 65.2766 123.556 59.896C114.127 56.8744 106.63 56.5298 105.136 63.8718C111.216 66.6284 111.989 67.6886 117.141 67.185ZM96.8919 71.0548C88.2356 66.6284 77.7244 68.0862 74.5298 73.3873C83.7014 78.5028 95.681 78.6884 96.8919 71.0548ZM103.255 82.1606L105.754 86.7725C107.893 87.6737 114.359 86.746 114.488 85.1027L109.876 81.4449L103.281 82.1606H103.255ZM82.3875 98.1433C75.5088 91.1194 51.0085 94.9892 62.3183 101.483C70.0986 105.962 79.6051 102.808 82.3875 98.1433Z" fill="#6D6C71"/>
<path d="M137.52 63.4213C139.606 69.279 147.232 83.9895 146.974 88.3628C146.665 93.6374 142.981 108.348 140.894 113.013C139.452 116.247 136.103 117.36 134.531 119.904C130.615 126.239 130.589 132.521 122.088 136.709C120.233 137.61 114.797 137.265 113.431 137.928C109.026 140.022 106.218 145.164 99.6741 146.781C98.9785 146.94 96.7372 145.588 95.8097 145.8C94.8823 146.012 94.908 147.761 94.0836 147.973C93.4395 148.133 80.1717 146.966 79.3989 146.754C76.7453 146.065 67.8314 142.195 65.2036 140.738C65.8992 134.694 74.066 140.499 77.647 139.783C83.6497 138.564 83.1602 131.699 83.8558 131.116C84.165 130.878 92.5121 129.446 92.7955 129.208C97.9738 124.834 92.3317 116.671 94.8307 111.157C96.4538 107.579 101.297 108.03 99.9833 103.285C106.115 106.042 110.469 108.666 115.595 106.281C121.959 103.312 119.46 99.6276 121.006 95.0157C122.551 90.4038 125.308 87.1701 127.111 83.6184C129.739 78.4498 123.505 72.5921 124.638 69.279C125.849 65.7537 131.44 61.6719 137.494 63.4213H137.52Z" fill="#48474B"/>
<path d="M110.185 46.9879C113.406 49.3469 108.742 49.6385 107.248 49.93C100.447 51.2288 90.8632 50.8312 84.8089 52.183C81.3567 52.9517 79.9398 55.8938 74.6584 55.2576L58.4537 81.1004L43.0218 85.6858L35.1899 91.0664C37.0964 81.763 39.4408 81.1534 43.7689 73.7849C46.4225 69.2525 45.5208 63.2358 52.8116 59.684C55.9032 58.1732 59.7418 59.3925 62.6015 58.0672C65.8733 56.5299 67.0584 52.8987 69.815 50.9638C84.2937 40.8917 90.992 46.5374 110.159 47.0145L110.185 46.9879Z" fill="#929194"/>
<path d="M82.3874 98.1433C79.605 102.808 70.0985 105.962 62.3182 101.483C51.0084 94.9892 75.5087 91.0929 82.3874 98.1433Z" fill="#3E3D43"/>
<path d="M117.141 67.185C112.014 67.6886 111.216 66.6284 105.136 63.8718C106.604 56.5298 114.101 56.8744 123.556 59.896C127.884 65.2766 122.371 66.6549 117.141 67.185Z" fill="#3E3D43"/>
<path d="M96.8913 71.0548C95.6547 78.6619 83.6751 78.4763 74.5293 73.3873C77.7239 68.1127 88.2351 66.6284 96.8913 71.0548Z" fill="#3E3D43"/>
<path d="M103.255 82.1606L109.85 81.4449L114.462 85.1027C114.333 86.746 107.866 87.6737 105.728 86.7725L103.229 82.1606H103.255Z" fill="#48484D"/>
<path d="M105.5 77C109.709 77 113.778 75.5 118 75.5" stroke="black" stroke-width="3" stroke-linecap="round"/>
<path d="M76.5 77.5C76.5592 77.0266 94.6213 75.7427 95.5 77.5" stroke="black" stroke-width="3" stroke-linecap="round"/>
<path d="M77 78.5C77 78.2316 77.7402 79.6654 78 80.25C78.4941 81.3617 79.8347 82 81 82C82.0904 82 83.7684 82.179 84.3889 81C84.9166 79.9973 84.4602 78.0199 85.5 77.5" stroke="black" stroke-width="3" stroke-linecap="round"/>
<path d="M104.5 78.5C104.513 78.4228 105.76 80.6078 106.25 81C107.223 81.7785 106.842 82 108.5 82C110.944 82 112 79.5453 112 77.5" stroke="black" stroke-width="3" stroke-linecap="round"/>
<path d="M88 113C88.9963 112.889 90.2874 112.228 91.2222 111.889C94.6332 110.653 98.2252 109.639 101.75 108.778C104.42 108.125 107.062 107.579 109.694 106.778C110.555 106.516 111.127 106 112 106" stroke="black" stroke-width="3" stroke-linecap="round"/>
</g>
<path d="M39.7759 85.3303C39.7759 75.9581 39.8073 67.2281 43.4425 58.3581C46.9929 49.6952 53.8211 43.6114 60.7759 37.7192C67.531 31.9961 76.1942 29.3717 84.8037 28.0803C96.7582 26.2871 107.335 26.3663 118.526 31.1081C137.504 39.1497 146.709 58.5637 147.748 78.3025C147.925 81.6614 148.632 86.9252 146.776 89.9414C145.318 92.3109 145.776 89.9771 145.776 88.3303" stroke="#500000" stroke-width="3" stroke-linecap="round"/>
<ellipse cx="40" cy="91" rx="10" ry="13" fill="#500000"/>
<ellipse cx="148" cy="91" rx="10" ry="13" fill="#500000"/>
<path d="M39 103C44.3344 107.83 48.3272 113.509 54 118C60.1074 122.835 67.3905 125.06 74.9444 126.722C77.5058 127.286 83.225 128.894 84.7222 125.472C85.5814 123.508 86 121.913 86 119.75C86 116.759 77.983 117.05 81.0556 121C83.9765 124.755 89.0646 126.083 93.4722 127.25C97.6851 128.365 100.799 129.244 105.278 128.972C107.554 128.834 109.846 128.239 111.778 127C112.877 126.295 115.373 125.331 115.889 124.111C116.817 121.918 114.909 120.434 113 119.889C110.836 119.271 109.49 119.227 108 121.111C105.152 124.713 105.929 127.19 110.111 128.889C118.999 132.5 128.038 129.671 137.111 131.111C140.089 131.584 142.87 133.448 145 135.5C145.819 136.289 147.929 137.722 148 139C148.228 143.109 149.993 146.942 150.5 151" stroke="#500000" stroke-width="3" stroke-linecap="round"/>
<defs>
<filter id="filter0_f_71_17" x="0.799999" y="0.799999" width="186.4" height="177.4" filterUnits="userSpaceOnUse" color-interpolation-filters="sRGB">
<feFlood flood-opacity="0" result="BackgroundImageFix"/>
<feBlend mode="normal" in="SourceGraphic" in2="BackgroundImageFix" result="shape"/>
<feGaussianBlur stdDeviation="16.1" result="effect1_foregroundBlur_71_17"/>
</filter>
<clipPath id="clip0_71_17">
<rect width="114" height="103" fill="white" transform="translate(33 45)"/>
</clipPath>
</defs>
</svg>
