<svg width="363" height="528" viewBox="0 0 363 528" fill="none" xmlns="http://www.w3.org/2000/svg">
<g filter="url(#filter0_f_96_49)">
<path d="M22.9979 19.2557C22.0206 19.2519 21.1797 19.0114 20.4751 18.5341C19.7744 18.0568 19.2346 17.3655 18.8558 16.4602C18.4808 15.5549 18.2952 14.4659 18.299 13.1932C18.299 11.9242 18.4865 10.8428 18.8615 9.94886C19.2403 9.05492 19.7801 8.375 20.4808 7.90909C21.1854 7.43939 22.0244 7.20455 22.9979 7.20455C23.9714 7.20455 24.8085 7.43939 25.5092 7.90909C26.2138 8.37879 26.7554 9.06061 27.1342 9.95455C27.513 10.8447 27.7005 11.9242 27.6967 13.1932C27.6967 14.4697 27.5073 15.5606 27.1286 16.4659C26.7536 17.3712 26.2157 18.0625 25.5149 18.5398C24.8142 19.017 23.9751 19.2557 22.9979 19.2557ZM22.9979 17.2159C23.6645 17.2159 24.1967 16.8807 24.5945 16.2102C24.9922 15.5398 25.1892 14.5341 25.1854 13.1932C25.1854 12.3106 25.0945 11.5758 24.9126 10.9886C24.7346 10.4015 24.4808 9.96023 24.1513 9.66477C23.8255 9.36932 23.4411 9.22159 22.9979 9.22159C22.335 9.22159 21.8047 9.55303 21.407 10.2159C21.0092 10.8788 20.8085 11.8712 20.8047 13.1932C20.8047 14.0871 20.8937 14.8333 21.0717 15.4318C21.2536 16.0265 21.5092 16.4735 21.8388 16.7727C22.1683 17.0682 22.5547 17.2159 22.9979 17.2159Z" fill="white"/>
<path d="M11.9979 31.2557C11.0206 31.2519 10.1797 31.0114 9.47514 30.5341C8.77438 30.0568 8.23461 29.3655 7.85582 28.4602C7.48082 27.5549 7.29522 26.4659 7.29901 25.1932C7.29901 23.9242 7.48651 22.8428 7.86151 21.9489C8.24029 21.0549 8.78007 20.375 9.48082 19.9091C10.1854 19.4394 11.0244 19.2045 11.9979 19.2045C12.9714 19.2045 13.8085 19.4394 14.5092 19.9091C15.2138 20.3788 15.7554 21.0606 16.1342 21.9545C16.513 22.8447 16.7005 23.9242 16.6967 25.1932C16.6967 26.4697 16.5073 27.5606 16.1286 28.4659C15.7536 29.3712 15.2157 30.0625 14.5149 30.5398C13.8142 31.017 12.9751 31.2557 11.9979 31.2557ZM11.9979 29.2159C12.6645 29.2159 13.1967 28.8807 13.5945 28.2102C13.9922 27.5398 14.1892 26.5341 14.1854 25.1932C14.1854 24.3106 14.0945 23.5758 13.9126 22.9886C13.7346 22.4015 13.4808 21.9602 13.1513 21.6648C12.8255 21.3693 12.4411 21.2216 11.9979 21.2216C11.335 21.2216 10.8047 21.553 10.407 22.2159C10.0092 22.8788 9.80848 23.8712 9.80469 25.1932C9.80469 26.0871 9.8937 26.8333 10.0717 27.4318C10.2536 28.0265 10.5092 28.4735 10.8388 28.7727C11.1683 29.0682 11.5547 29.2159 11.9979 29.2159Z" fill="white"/>
<path d="M80.0916 7.36364V19H77.6314V9.69886H77.5632L74.8984 11.3693V9.1875L77.7791 7.36364H80.0916Z" fill="white"/>
<path d="M128.904 19V17.2273L133.046 13.392C133.398 13.0511 133.694 12.7443 133.933 12.4716C134.175 12.1989 134.359 11.9318 134.484 11.6705C134.609 11.4053 134.671 11.1193 134.671 10.8125C134.671 10.4716 134.594 10.178 134.438 9.93182C134.283 9.68182 134.071 9.49053 133.802 9.35795C133.533 9.22159 133.228 9.15341 132.887 9.15341C132.531 9.15341 132.22 9.22538 131.955 9.36932C131.69 9.51326 131.486 9.7197 131.342 9.98864C131.198 10.2576 131.126 10.5777 131.126 10.9489H128.79C128.79 10.1875 128.963 9.52652 129.308 8.96591C129.652 8.4053 130.135 7.97159 130.756 7.66477C131.378 7.35795 132.094 7.20455 132.904 7.20455C133.737 7.20455 134.463 7.35227 135.08 7.64773C135.701 7.93939 136.184 8.3447 136.529 8.86364C136.874 9.38258 137.046 9.97727 137.046 10.6477C137.046 11.0871 136.959 11.5208 136.785 11.9489C136.614 12.3769 136.309 12.8523 135.87 13.375C135.431 13.8939 134.811 14.517 134.012 15.2443L132.313 16.9091V16.9886H137.2V19H128.904Z" fill="white"/>
<path d="M186.971 19.1591C186.122 19.1591 185.367 19.0133 184.704 18.7216C184.045 18.4261 183.524 18.0208 183.141 17.5057C182.763 16.9867 182.567 16.3883 182.556 15.7102H185.033C185.049 15.9943 185.141 16.2443 185.312 16.4602C185.486 16.6723 185.717 16.8371 186.005 16.9545C186.293 17.072 186.617 17.1307 186.977 17.1307C187.352 17.1307 187.683 17.0644 187.971 16.9318C188.259 16.7992 188.484 16.6155 188.647 16.3807C188.81 16.1458 188.891 15.875 188.891 15.5682C188.891 15.2576 188.804 14.983 188.63 14.7443C188.46 14.5019 188.213 14.3125 187.891 14.1761C187.573 14.0398 187.194 13.9716 186.755 13.9716H185.67V12.1648H186.755C187.126 12.1648 187.454 12.1004 187.738 11.9716C188.026 11.8428 188.249 11.6648 188.408 11.4375C188.567 11.2064 188.647 10.9375 188.647 10.6307C188.647 10.339 188.577 10.0833 188.437 9.86364C188.3 9.64015 188.107 9.46591 187.857 9.34091C187.611 9.21591 187.323 9.15341 186.994 9.15341C186.66 9.15341 186.355 9.21402 186.079 9.33523C185.802 9.45265 185.581 9.62121 185.414 9.84091C185.247 10.0606 185.158 10.3182 185.147 10.6136H182.789C182.8 9.94318 182.992 9.35227 183.363 8.84091C183.734 8.32955 184.234 7.92992 184.863 7.64205C185.496 7.35038 186.21 7.20455 187.005 7.20455C187.808 7.20455 188.511 7.35038 189.113 7.64205C189.715 7.93371 190.183 8.32765 190.516 8.82386C190.853 9.31629 191.02 9.86932 191.016 10.483C191.02 11.1345 190.817 11.678 190.408 12.1136C190.003 12.5492 189.475 12.8258 188.823 12.9432V13.0341C189.679 13.1439 190.331 13.4413 190.778 13.9261C191.228 14.4072 191.452 15.0095 191.448 15.733C191.452 16.3958 191.261 16.9848 190.874 17.5C190.492 18.0152 189.963 18.4205 189.289 18.7159C188.615 19.0114 187.842 19.1591 186.971 19.1591Z" fill="white"/>
<path d="M236.345 16.9545V15.017L241.203 7.36364H242.874V10.0455H241.885L238.822 14.892V14.983H245.726V16.9545H236.345ZM241.93 19V16.3636L241.976 15.5057V7.36364H244.283V19H241.93Z" fill="white"/>
<path d="M296.037 19.1591C295.234 19.1591 294.518 19.0114 293.889 18.7159C293.264 18.4205 292.768 18.0133 292.401 17.4943C292.033 16.9754 291.842 16.3807 291.827 15.7102H294.213C294.24 16.161 294.429 16.5265 294.781 16.8068C295.134 17.0871 295.552 17.2273 296.037 17.2273C296.423 17.2273 296.764 17.142 297.06 16.9716C297.359 16.7973 297.592 16.5568 297.759 16.25C297.929 15.9394 298.014 15.5833 298.014 15.1818C298.014 14.7727 297.927 14.4129 297.753 14.1023C297.582 13.7917 297.346 13.5492 297.043 13.375C296.74 13.2008 296.393 13.1117 296.003 13.108C295.662 13.108 295.33 13.178 295.009 13.3182C294.69 13.4583 294.442 13.6496 294.264 13.892L292.077 13.5L292.628 7.36364H299.741V9.375H294.656L294.355 12.2898H294.423C294.628 12.0019 294.937 11.7633 295.349 11.5739C295.762 11.3845 296.224 11.2898 296.736 11.2898C297.437 11.2898 298.062 11.4545 298.611 11.7841C299.16 12.1136 299.594 12.5663 299.912 13.142C300.23 13.714 300.387 14.3731 300.384 15.1193C300.387 15.9034 300.205 16.6004 299.838 17.2102C299.474 17.8163 298.965 18.2936 298.31 18.642C297.658 18.9867 296.901 19.1591 296.037 19.1591Z" fill="white"/>
<path d="M351.128 19.1591C350.529 19.1553 349.952 19.0549 349.395 18.858C348.842 18.661 348.346 18.3409 347.906 17.8977C347.467 17.4545 347.118 16.8674 346.861 16.1364C346.607 15.4053 346.48 14.5076 346.48 13.4432C346.484 12.4659 346.596 11.5928 346.815 10.8239C347.039 10.0511 347.357 9.39583 347.77 8.85795C348.187 8.32008 348.685 7.91098 349.264 7.63068C349.844 7.34659 350.493 7.20455 351.213 7.20455C351.99 7.20455 352.675 7.35606 353.27 7.65909C353.865 7.95833 354.342 8.36553 354.702 8.88068C355.065 9.39583 355.285 9.97348 355.361 10.6136H352.935C352.84 10.2083 352.641 9.89015 352.338 9.65909C352.035 9.42803 351.66 9.3125 351.213 9.3125C350.455 9.3125 349.88 9.64205 349.486 10.3011C349.096 10.9602 348.897 11.8561 348.889 12.9886H348.969C349.143 12.6439 349.378 12.3504 349.673 12.108C349.973 11.8617 350.312 11.6742 350.69 11.5455C351.073 11.4129 351.476 11.3466 351.901 11.3466C352.59 11.3466 353.204 11.5095 353.741 11.8352C354.279 12.1572 354.704 12.6004 355.014 13.1648C355.325 13.7292 355.48 14.375 355.48 15.1023C355.48 15.8902 355.296 16.5909 354.929 17.2045C354.565 17.8182 354.056 18.2992 353.401 18.6477C352.749 18.9924 351.991 19.1629 351.128 19.1591ZM351.116 17.2273C351.495 17.2273 351.834 17.1364 352.134 16.9545C352.433 16.7727 352.668 16.5265 352.838 16.2159C353.009 15.9053 353.094 15.5568 353.094 15.1705C353.094 14.7841 353.009 14.4375 352.838 14.1307C352.671 13.8239 352.44 13.5795 352.145 13.3977C351.849 13.2159 351.512 13.125 351.134 13.125C350.849 13.125 350.586 13.178 350.344 13.2841C350.105 13.3902 349.895 13.5379 349.713 13.7273C349.535 13.9167 349.395 14.1364 349.293 14.3864C349.19 14.6326 349.139 14.8958 349.139 15.1761C349.139 15.5511 349.224 15.8939 349.395 16.2045C349.569 16.5152 349.804 16.7633 350.099 16.9489C350.399 17.1345 350.738 17.2273 351.116 17.2273Z" fill="white"/>
<path d="M14.0916 101.364V113H11.6314V103.699H11.5632L8.89844 105.369V103.188L11.7791 101.364H14.0916Z" fill="white"/>
<path d="M7.90412 194V192.227L12.0462 188.392C12.3984 188.051 12.6939 187.744 12.9325 187.472C13.175 187.199 13.3587 186.932 13.4837 186.67C13.6087 186.405 13.6712 186.119 13.6712 185.812C13.6712 185.472 13.5935 185.178 13.4382 184.932C13.2829 184.682 13.0708 184.491 12.8018 184.358C12.5329 184.222 12.228 184.153 11.8871 184.153C11.531 184.153 11.2204 184.225 10.9553 184.369C10.6901 184.513 10.4856 184.72 10.3416 184.989C10.1977 185.258 10.1257 185.578 10.1257 185.949H7.79048C7.79048 185.187 7.96283 184.527 8.30753 183.966C8.65223 183.405 9.13518 182.972 9.75639 182.665C10.3776 182.358 11.0935 182.205 11.9041 182.205C12.7375 182.205 13.4628 182.352 14.0803 182.648C14.7015 182.939 15.1844 183.345 15.5291 183.864C15.8738 184.383 16.0462 184.977 16.0462 185.648C16.0462 186.087 15.959 186.521 15.7848 186.949C15.6143 187.377 15.3094 187.852 14.87 188.375C14.4306 188.894 13.8113 189.517 13.0121 190.244L11.3132 191.909V191.989H16.1996V194H7.90412Z" fill="white"/>
<path d="M11.9709 278.159C11.1224 278.159 10.3667 278.013 9.70384 277.722C9.04474 277.426 8.52391 277.021 8.14134 276.506C7.76255 275.987 7.56747 275.388 7.55611 274.71H10.0334C10.0485 274.994 10.1413 275.244 10.3118 275.46C10.486 275.672 10.7171 275.837 11.005 275.955C11.2929 276.072 11.6167 276.131 11.9766 276.131C12.3516 276.131 12.683 276.064 12.9709 275.932C13.2588 275.799 13.4841 275.616 13.647 275.381C13.8099 275.146 13.8913 274.875 13.8913 274.568C13.8913 274.258 13.8042 273.983 13.63 273.744C13.4595 273.502 13.2133 273.312 12.8913 273.176C12.5732 273.04 12.1944 272.972 11.755 272.972H10.6697V271.165H11.755C12.1262 271.165 12.4538 271.1 12.7379 270.972C13.0258 270.843 13.2493 270.665 13.4084 270.438C13.5675 270.206 13.647 269.938 13.647 269.631C13.647 269.339 13.5769 269.083 13.4368 268.864C13.3004 268.64 13.1072 268.466 12.8572 268.341C12.611 268.216 12.3232 268.153 11.9936 268.153C11.6603 268.153 11.3554 268.214 11.0788 268.335C10.8023 268.453 10.5807 268.621 10.4141 268.841C10.2474 269.061 10.1584 269.318 10.147 269.614H7.78906C7.80043 268.943 7.99171 268.352 8.36293 267.841C8.73414 267.33 9.23414 266.93 9.86293 266.642C10.4955 266.35 11.2095 266.205 12.005 266.205C12.808 266.205 13.5107 266.35 14.1129 266.642C14.7152 266.934 15.183 267.328 15.5163 267.824C15.8535 268.316 16.0201 268.869 16.0163 269.483C16.0201 270.134 15.8175 270.678 15.4084 271.114C15.0031 271.549 14.4747 271.826 13.8232 271.943V272.034C14.6792 272.144 15.3307 272.441 15.7777 272.926C16.2285 273.407 16.4519 274.009 16.4482 274.733C16.4519 275.396 16.2607 275.985 15.8743 276.5C15.4917 277.015 14.9633 277.42 14.2891 277.716C13.6148 278.011 12.8421 278.159 11.9709 278.159Z" fill="white"/>
<path d="M7.34517 356.955V355.017L12.2031 347.364H13.8736V350.045H12.8849L9.82244 354.892V354.983H16.7259V356.955H7.34517ZM12.9304 359V356.364L12.9759 355.506V347.364H15.2827V359H12.9304Z" fill="white"/>
<path d="M12.0369 441.159C11.2339 441.159 10.518 441.011 9.8892 440.716C9.2642 440.42 8.76799 440.013 8.40057 439.494C8.03314 438.975 7.84186 438.381 7.8267 437.71H10.2131C10.2396 438.161 10.429 438.527 10.7812 438.807C11.1335 439.087 11.5521 439.227 12.0369 439.227C12.4233 439.227 12.7642 439.142 13.0597 438.972C13.3589 438.797 13.5919 438.557 13.7585 438.25C13.929 437.939 14.0142 437.583 14.0142 437.182C14.0142 436.773 13.9271 436.413 13.7528 436.102C13.5824 435.792 13.3456 435.549 13.0426 435.375C12.7396 435.201 12.393 435.112 12.0028 435.108C11.6619 435.108 11.3305 435.178 11.0085 435.318C10.6903 435.458 10.4422 435.65 10.2642 435.892L8.0767 435.5L8.62784 429.364H15.7415V431.375H10.6562L10.3551 434.29H10.4233C10.6278 434.002 10.9366 433.763 11.3494 433.574C11.7623 433.384 12.2244 433.29 12.7358 433.29C13.4366 433.29 14.0616 433.455 14.6108 433.784C15.16 434.114 15.5938 434.566 15.9119 435.142C16.2301 435.714 16.3873 436.373 16.3835 437.119C16.3873 437.903 16.2055 438.6 15.8381 439.21C15.4744 439.816 14.965 440.294 14.3097 440.642C13.6581 440.987 12.9006 441.159 12.0369 441.159Z" fill="white"/>
<path d="M12.1278 519.159C11.5294 519.155 10.9517 519.055 10.3949 518.858C9.84186 518.661 9.34564 518.341 8.90625 517.898C8.46686 517.455 8.11837 516.867 7.8608 516.136C7.60701 515.405 7.48011 514.508 7.48011 513.443C7.4839 512.466 7.59564 511.593 7.81534 510.824C8.03883 510.051 8.35701 509.396 8.76989 508.858C9.18655 508.32 9.68466 507.911 10.2642 507.631C10.8438 507.347 11.4934 507.205 12.2131 507.205C12.9896 507.205 13.6752 507.356 14.2699 507.659C14.8646 507.958 15.3419 508.366 15.7017 508.881C16.0653 509.396 16.285 509.973 16.3608 510.614H13.9347C13.84 510.208 13.6411 509.89 13.3381 509.659C13.035 509.428 12.66 509.312 12.2131 509.312C11.4555 509.312 10.8797 509.642 10.4858 510.301C10.0956 510.96 9.89678 511.856 9.8892 512.989H9.96875C10.143 512.644 10.3778 512.35 10.6733 512.108C10.9725 511.862 11.3116 511.674 11.6903 511.545C12.0729 511.413 12.4763 511.347 12.9006 511.347C13.59 511.347 14.2036 511.509 14.7415 511.835C15.2794 512.157 15.7036 512.6 16.0142 513.165C16.3248 513.729 16.4801 514.375 16.4801 515.102C16.4801 515.89 16.2964 516.591 15.929 517.205C15.5653 517.818 15.0559 518.299 14.4006 518.648C13.7491 518.992 12.9915 519.163 12.1278 519.159ZM12.1165 517.227C12.4953 517.227 12.8343 517.136 13.1335 516.955C13.4328 516.773 13.6676 516.527 13.8381 516.216C14.0085 515.905 14.0938 515.557 14.0938 515.17C14.0938 514.784 14.0085 514.437 13.8381 514.131C13.6714 513.824 13.4403 513.58 13.1449 513.398C12.8494 513.216 12.5123 513.125 12.1335 513.125C11.8494 513.125 11.5862 513.178 11.3438 513.284C11.1051 513.39 10.8949 513.538 10.7131 513.727C10.535 513.917 10.3949 514.136 10.2926 514.386C10.1903 514.633 10.1392 514.896 10.1392 515.176C10.1392 515.551 10.2244 515.894 10.3949 516.205C10.5691 516.515 10.804 516.763 11.0994 516.949C11.3987 517.134 11.7377 517.227 12.1165 517.227Z" fill="white"/>
<path d="M350.056 26.6248H23.9443V516.375H350.056V26.6248Z" stroke="white" stroke-width="3" stroke-miterlimit="10"/>
<path d="M23.9443 434.747H350.056" stroke="white" stroke-width="3" stroke-miterlimit="10"/>
<path d="M23.9443 353.119H350.056" stroke="white" stroke-width="3" stroke-miterlimit="10"/>
<path d="M23.9443 271.509H350.056" stroke="white" stroke-width="3" stroke-miterlimit="10"/>
<path d="M23.9443 189.881H350.056" stroke="white" stroke-width="3" stroke-miterlimit="10"/>
<path d="M23.9443 108.253H350.056" stroke="white" stroke-width="3" stroke-miterlimit="10"/>
<path d="M295.697 26.6248V516.375" stroke="white" stroke-width="3" stroke-miterlimit="10"/>
<path d="M241.352 26.6248V516.375" stroke="white" stroke-width="3" stroke-miterlimit="10"/>
<path d="M186.994 26.6248V516.375" stroke="white" stroke-width="3" stroke-miterlimit="10"/>
<path d="M132.648 26.6248V516.375" stroke="white" stroke-width="3" stroke-miterlimit="10"/>
<path d="M78.2896 26.6248V516.375" stroke="white" stroke-width="3" stroke-miterlimit="10"/>
</g>
<g filter="url(#filter1_d_96_49)">
<path d="M22.9979 19.2557C22.0206 19.2519 21.1797 19.0114 20.4751 18.5341C19.7744 18.0568 19.2346 17.3655 18.8558 16.4602C18.4808 15.5549 18.2952 14.4659 18.299 13.1932C18.299 11.9242 18.4865 10.8428 18.8615 9.94886C19.2403 9.05492 19.7801 8.375 20.4808 7.90909C21.1854 7.43939 22.0244 7.20455 22.9979 7.20455C23.9714 7.20455 24.8085 7.43939 25.5092 7.90909C26.2138 8.37879 26.7554 9.06061 27.1342 9.95455C27.513 10.8447 27.7005 11.9242 27.6967 13.1932C27.6967 14.4697 27.5073 15.5606 27.1286 16.4659C26.7536 17.3712 26.2157 18.0625 25.5149 18.5398C24.8142 19.017 23.9751 19.2557 22.9979 19.2557ZM22.9979 17.2159C23.6645 17.2159 24.1967 16.8807 24.5945 16.2102C24.9922 15.5398 25.1892 14.5341 25.1854 13.1932C25.1854 12.3106 25.0945 11.5758 24.9126 10.9886C24.7346 10.4015 24.4808 9.96023 24.1513 9.66477C23.8255 9.36932 23.4411 9.22159 22.9979 9.22159C22.335 9.22159 21.8047 9.55303 21.407 10.2159C21.0092 10.8788 20.8085 11.8712 20.8047 13.1932C20.8047 14.0871 20.8937 14.8333 21.0717 15.4318C21.2536 16.0265 21.5092 16.4735 21.8388 16.7727C22.1683 17.0682 22.5547 17.2159 22.9979 17.2159Z" fill="white"/>
<path d="M11.9979 31.2557C11.0206 31.2519 10.1797 31.0114 9.47514 30.5341C8.77438 30.0568 8.23461 29.3655 7.85582 28.4602C7.48082 27.5549 7.29522 26.4659 7.29901 25.1932C7.29901 23.9242 7.48651 22.8428 7.86151 21.9489C8.24029 21.0549 8.78007 20.375 9.48082 19.9091C10.1854 19.4394 11.0244 19.2045 11.9979 19.2045C12.9714 19.2045 13.8085 19.4394 14.5092 19.9091C15.2138 20.3788 15.7554 21.0606 16.1342 21.9545C16.513 22.8447 16.7005 23.9242 16.6967 25.1932C16.6967 26.4697 16.5073 27.5606 16.1286 28.4659C15.7536 29.3712 15.2157 30.0625 14.5149 30.5398C13.8142 31.017 12.9751 31.2557 11.9979 31.2557ZM11.9979 29.2159C12.6645 29.2159 13.1967 28.8807 13.5945 28.2102C13.9922 27.5398 14.1892 26.5341 14.1854 25.1932C14.1854 24.3106 14.0945 23.5758 13.9126 22.9886C13.7346 22.4015 13.4808 21.9602 13.1513 21.6648C12.8255 21.3693 12.4411 21.2216 11.9979 21.2216C11.335 21.2216 10.8047 21.553 10.407 22.2159C10.0092 22.8788 9.80848 23.8712 9.80469 25.1932C9.80469 26.0871 9.8937 26.8333 10.0717 27.4318C10.2536 28.0265 10.5092 28.4735 10.8388 28.7727C11.1683 29.0682 11.5547 29.2159 11.9979 29.2159Z" fill="white"/>
<path d="M80.0916 7.36364V19H77.6314V9.69886H77.5632L74.8984 11.3693V9.1875L77.7791 7.36364H80.0916Z" fill="white"/>
<path d="M128.904 19V17.2273L133.046 13.392C133.398 13.0511 133.694 12.7443 133.933 12.4716C134.175 12.1989 134.359 11.9318 134.484 11.6705C134.609 11.4053 134.671 11.1193 134.671 10.8125C134.671 10.4716 134.594 10.178 134.438 9.93182C134.283 9.68182 134.071 9.49053 133.802 9.35795C133.533 9.22159 133.228 9.15341 132.887 9.15341C132.531 9.15341 132.22 9.22538 131.955 9.36932C131.69 9.51326 131.486 9.7197 131.342 9.98864C131.198 10.2576 131.126 10.5777 131.126 10.9489H128.79C128.79 10.1875 128.963 9.52652 129.308 8.96591C129.652 8.4053 130.135 7.97159 130.756 7.66477C131.378 7.35795 132.094 7.20455 132.904 7.20455C133.737 7.20455 134.463 7.35227 135.08 7.64773C135.701 7.93939 136.184 8.3447 136.529 8.86364C136.874 9.38258 137.046 9.97727 137.046 10.6477C137.046 11.0871 136.959 11.5208 136.785 11.9489C136.614 12.3769 136.309 12.8523 135.87 13.375C135.431 13.8939 134.811 14.517 134.012 15.2443L132.313 16.9091V16.9886H137.2V19H128.904Z" fill="white"/>
<path d="M186.971 19.1591C186.122 19.1591 185.367 19.0133 184.704 18.7216C184.045 18.4261 183.524 18.0208 183.141 17.5057C182.763 16.9867 182.567 16.3883 182.556 15.7102H185.033C185.049 15.9943 185.141 16.2443 185.312 16.4602C185.486 16.6723 185.717 16.8371 186.005 16.9545C186.293 17.072 186.617 17.1307 186.977 17.1307C187.352 17.1307 187.683 17.0644 187.971 16.9318C188.259 16.7992 188.484 16.6155 188.647 16.3807C188.81 16.1458 188.891 15.875 188.891 15.5682C188.891 15.2576 188.804 14.983 188.63 14.7443C188.46 14.5019 188.213 14.3125 187.891 14.1761C187.573 14.0398 187.194 13.9716 186.755 13.9716H185.67V12.1648H186.755C187.126 12.1648 187.454 12.1004 187.738 11.9716C188.026 11.8428 188.249 11.6648 188.408 11.4375C188.567 11.2064 188.647 10.9375 188.647 10.6307C188.647 10.339 188.577 10.0833 188.437 9.86364C188.3 9.64015 188.107 9.46591 187.857 9.34091C187.611 9.21591 187.323 9.15341 186.994 9.15341C186.66 9.15341 186.355 9.21402 186.079 9.33523C185.802 9.45265 185.581 9.62121 185.414 9.84091C185.247 10.0606 185.158 10.3182 185.147 10.6136H182.789C182.8 9.94318 182.992 9.35227 183.363 8.84091C183.734 8.32955 184.234 7.92992 184.863 7.64205C185.496 7.35038 186.21 7.20455 187.005 7.20455C187.808 7.20455 188.511 7.35038 189.113 7.64205C189.715 7.93371 190.183 8.32765 190.516 8.82386C190.853 9.31629 191.02 9.86932 191.016 10.483C191.02 11.1345 190.817 11.678 190.408 12.1136C190.003 12.5492 189.475 12.8258 188.823 12.9432V13.0341C189.679 13.1439 190.331 13.4413 190.778 13.9261C191.228 14.4072 191.452 15.0095 191.448 15.733C191.452 16.3958 191.261 16.9848 190.874 17.5C190.492 18.0152 189.963 18.4205 189.289 18.7159C188.615 19.0114 187.842 19.1591 186.971 19.1591Z" fill="white"/>
<path d="M236.345 16.9545V15.017L241.203 7.36364H242.874V10.0455H241.885L238.822 14.892V14.983H245.726V16.9545H236.345ZM241.93 19V16.3636L241.976 15.5057V7.36364H244.283V19H241.93Z" fill="white"/>
<path d="M296.037 19.1591C295.234 19.1591 294.518 19.0114 293.889 18.7159C293.264 18.4205 292.768 18.0133 292.401 17.4943C292.033 16.9754 291.842 16.3807 291.827 15.7102H294.213C294.24 16.161 294.429 16.5265 294.781 16.8068C295.134 17.0871 295.552 17.2273 296.037 17.2273C296.423 17.2273 296.764 17.142 297.06 16.9716C297.359 16.7973 297.592 16.5568 297.759 16.25C297.929 15.9394 298.014 15.5833 298.014 15.1818C298.014 14.7727 297.927 14.4129 297.753 14.1023C297.582 13.7917 297.346 13.5492 297.043 13.375C296.74 13.2008 296.393 13.1117 296.003 13.108C295.662 13.108 295.33 13.178 295.009 13.3182C294.69 13.4583 294.442 13.6496 294.264 13.892L292.077 13.5L292.628 7.36364H299.741V9.375H294.656L294.355 12.2898H294.423C294.628 12.0019 294.937 11.7633 295.349 11.5739C295.762 11.3845 296.224 11.2898 296.736 11.2898C297.437 11.2898 298.062 11.4545 298.611 11.7841C299.16 12.1136 299.594 12.5663 299.912 13.142C300.23 13.714 300.387 14.3731 300.384 15.1193C300.387 15.9034 300.205 16.6004 299.838 17.2102C299.474 17.8163 298.965 18.2936 298.31 18.642C297.658 18.9867 296.901 19.1591 296.037 19.1591Z" fill="white"/>
<path d="M351.128 19.1591C350.529 19.1553 349.952 19.0549 349.395 18.858C348.842 18.661 348.346 18.3409 347.906 17.8977C347.467 17.4545 347.118 16.8674 346.861 16.1364C346.607 15.4053 346.48 14.5076 346.48 13.4432C346.484 12.4659 346.596 11.5928 346.815 10.8239C347.039 10.0511 347.357 9.39583 347.77 8.85795C348.187 8.32008 348.685 7.91098 349.264 7.63068C349.844 7.34659 350.493 7.20455 351.213 7.20455C351.99 7.20455 352.675 7.35606 353.27 7.65909C353.865 7.95833 354.342 8.36553 354.702 8.88068C355.065 9.39583 355.285 9.97348 355.361 10.6136H352.935C352.84 10.2083 352.641 9.89015 352.338 9.65909C352.035 9.42803 351.66 9.3125 351.213 9.3125C350.455 9.3125 349.88 9.64205 349.486 10.3011C349.096 10.9602 348.897 11.8561 348.889 12.9886H348.969C349.143 12.6439 349.378 12.3504 349.673 12.108C349.973 11.8617 350.312 11.6742 350.69 11.5455C351.073 11.4129 351.476 11.3466 351.901 11.3466C352.59 11.3466 353.204 11.5095 353.741 11.8352C354.279 12.1572 354.704 12.6004 355.014 13.1648C355.325 13.7292 355.48 14.375 355.48 15.1023C355.48 15.8902 355.296 16.5909 354.929 17.2045C354.565 17.8182 354.056 18.2992 353.401 18.6477C352.749 18.9924 351.991 19.1629 351.128 19.1591ZM351.116 17.2273C351.495 17.2273 351.834 17.1364 352.134 16.9545C352.433 16.7727 352.668 16.5265 352.838 16.2159C353.009 15.9053 353.094 15.5568 353.094 15.1705C353.094 14.7841 353.009 14.4375 352.838 14.1307C352.671 13.8239 352.44 13.5795 352.145 13.3977C351.849 13.2159 351.512 13.125 351.134 13.125C350.849 13.125 350.586 13.178 350.344 13.2841C350.105 13.3902 349.895 13.5379 349.713 13.7273C349.535 13.9167 349.395 14.1364 349.293 14.3864C349.19 14.6326 349.139 14.8958 349.139 15.1761C349.139 15.5511 349.224 15.8939 349.395 16.2045C349.569 16.5152 349.804 16.7633 350.099 16.9489C350.399 17.1345 350.738 17.2273 351.116 17.2273Z" fill="white"/>
<path d="M14.0916 101.364V113H11.6314V103.699H11.5632L8.89844 105.369V103.188L11.7791 101.364H14.0916Z" fill="white"/>
<path d="M7.90412 194V192.227L12.0462 188.392C12.3984 188.051 12.6939 187.744 12.9325 187.472C13.175 187.199 13.3587 186.932 13.4837 186.67C13.6087 186.405 13.6712 186.119 13.6712 185.812C13.6712 185.472 13.5935 185.178 13.4382 184.932C13.2829 184.682 13.0708 184.491 12.8018 184.358C12.5329 184.222 12.228 184.153 11.8871 184.153C11.531 184.153 11.2204 184.225 10.9553 184.369C10.6901 184.513 10.4856 184.72 10.3416 184.989C10.1977 185.258 10.1257 185.578 10.1257 185.949H7.79048C7.79048 185.187 7.96283 184.527 8.30753 183.966C8.65223 183.405 9.13518 182.972 9.75639 182.665C10.3776 182.358 11.0935 182.205 11.9041 182.205C12.7375 182.205 13.4628 182.352 14.0803 182.648C14.7015 182.939 15.1844 183.345 15.5291 183.864C15.8738 184.383 16.0462 184.977 16.0462 185.648C16.0462 186.087 15.959 186.521 15.7848 186.949C15.6143 187.377 15.3094 187.852 14.87 188.375C14.4306 188.894 13.8113 189.517 13.0121 190.244L11.3132 191.909V191.989H16.1996V194H7.90412Z" fill="white"/>
<path d="M11.9709 278.159C11.1224 278.159 10.3667 278.013 9.70384 277.722C9.04474 277.426 8.52391 277.021 8.14134 276.506C7.76255 275.987 7.56747 275.388 7.55611 274.71H10.0334C10.0485 274.994 10.1413 275.244 10.3118 275.46C10.486 275.672 10.7171 275.837 11.005 275.955C11.2929 276.072 11.6167 276.131 11.9766 276.131C12.3516 276.131 12.683 276.064 12.9709 275.932C13.2588 275.799 13.4841 275.616 13.647 275.381C13.8099 275.146 13.8913 274.875 13.8913 274.568C13.8913 274.258 13.8042 273.983 13.63 273.744C13.4595 273.502 13.2133 273.312 12.8913 273.176C12.5732 273.04 12.1944 272.972 11.755 272.972H10.6697V271.165H11.755C12.1262 271.165 12.4538 271.1 12.7379 270.972C13.0258 270.843 13.2493 270.665 13.4084 270.438C13.5675 270.206 13.647 269.938 13.647 269.631C13.647 269.339 13.5769 269.083 13.4368 268.864C13.3004 268.64 13.1072 268.466 12.8572 268.341C12.611 268.216 12.3232 268.153 11.9936 268.153C11.6603 268.153 11.3554 268.214 11.0788 268.335C10.8023 268.453 10.5807 268.621 10.4141 268.841C10.2474 269.061 10.1584 269.318 10.147 269.614H7.78906C7.80043 268.943 7.99171 268.352 8.36293 267.841C8.73414 267.33 9.23414 266.93 9.86293 266.642C10.4955 266.35 11.2095 266.205 12.005 266.205C12.808 266.205 13.5107 266.35 14.1129 266.642C14.7152 266.934 15.183 267.328 15.5163 267.824C15.8535 268.316 16.0201 268.869 16.0163 269.483C16.0201 270.134 15.8175 270.678 15.4084 271.114C15.0031 271.549 14.4747 271.826 13.8232 271.943V272.034C14.6792 272.144 15.3307 272.441 15.7777 272.926C16.2285 273.407 16.4519 274.009 16.4482 274.733C16.4519 275.396 16.2607 275.985 15.8743 276.5C15.4917 277.015 14.9633 277.42 14.2891 277.716C13.6148 278.011 12.8421 278.159 11.9709 278.159Z" fill="white"/>
<path d="M7.34517 356.955V355.017L12.2031 347.364H13.8736V350.045H12.8849L9.82244 354.892V354.983H16.7259V356.955H7.34517ZM12.9304 359V356.364L12.9759 355.506V347.364H15.2827V359H12.9304Z" fill="white"/>
<path d="M12.0369 441.159C11.2339 441.159 10.518 441.011 9.8892 440.716C9.2642 440.42 8.76799 440.013 8.40057 439.494C8.03314 438.975 7.84186 438.381 7.8267 437.71H10.2131C10.2396 438.161 10.429 438.527 10.7812 438.807C11.1335 439.087 11.5521 439.227 12.0369 439.227C12.4233 439.227 12.7642 439.142 13.0597 438.972C13.3589 438.797 13.5919 438.557 13.7585 438.25C13.929 437.939 14.0142 437.583 14.0142 437.182C14.0142 436.773 13.9271 436.413 13.7528 436.102C13.5824 435.792 13.3456 435.549 13.0426 435.375C12.7396 435.201 12.393 435.112 12.0028 435.108C11.6619 435.108 11.3305 435.178 11.0085 435.318C10.6903 435.458 10.4422 435.65 10.2642 435.892L8.0767 435.5L8.62784 429.364H15.7415V431.375H10.6562L10.3551 434.29H10.4233C10.6278 434.002 10.9366 433.763 11.3494 433.574C11.7623 433.384 12.2244 433.29 12.7358 433.29C13.4366 433.29 14.0616 433.455 14.6108 433.784C15.16 434.114 15.5938 434.566 15.9119 435.142C16.2301 435.714 16.3873 436.373 16.3835 437.119C16.3873 437.903 16.2055 438.6 15.8381 439.21C15.4744 439.816 14.965 440.294 14.3097 440.642C13.6581 440.987 12.9006 441.159 12.0369 441.159Z" fill="white"/>
<path d="M12.1278 519.159C11.5294 519.155 10.9517 519.055 10.3949 518.858C9.84186 518.661 9.34564 518.341 8.90625 517.898C8.46686 517.455 8.11837 516.867 7.8608 516.136C7.60701 515.405 7.48011 514.508 7.48011 513.443C7.4839 512.466 7.59564 511.593 7.81534 510.824C8.03883 510.051 8.35701 509.396 8.76989 508.858C9.18655 508.32 9.68466 507.911 10.2642 507.631C10.8438 507.347 11.4934 507.205 12.2131 507.205C12.9896 507.205 13.6752 507.356 14.2699 507.659C14.8646 507.958 15.3419 508.366 15.7017 508.881C16.0653 509.396 16.285 509.973 16.3608 510.614H13.9347C13.84 510.208 13.6411 509.89 13.3381 509.659C13.035 509.428 12.66 509.312 12.2131 509.312C11.4555 509.312 10.8797 509.642 10.4858 510.301C10.0956 510.96 9.89678 511.856 9.8892 512.989H9.96875C10.143 512.644 10.3778 512.35 10.6733 512.108C10.9725 511.862 11.3116 511.674 11.6903 511.545C12.0729 511.413 12.4763 511.347 12.9006 511.347C13.59 511.347 14.2036 511.509 14.7415 511.835C15.2794 512.157 15.7036 512.6 16.0142 513.165C16.3248 513.729 16.4801 514.375 16.4801 515.102C16.4801 515.89 16.2964 516.591 15.929 517.205C15.5653 517.818 15.0559 518.299 14.4006 518.648C13.7491 518.992 12.9915 519.163 12.1278 519.159ZM12.1165 517.227C12.4953 517.227 12.8343 517.136 13.1335 516.955C13.4328 516.773 13.6676 516.527 13.8381 516.216C14.0085 515.905 14.0938 515.557 14.0938 515.17C14.0938 514.784 14.0085 514.437 13.8381 514.131C13.6714 513.824 13.4403 513.58 13.1449 513.398C12.8494 513.216 12.5123 513.125 12.1335 513.125C11.8494 513.125 11.5862 513.178 11.3438 513.284C11.1051 513.39 10.8949 513.538 10.7131 513.727C10.535 513.917 10.3949 514.136 10.2926 514.386C10.1903 514.633 10.1392 514.896 10.1392 515.176C10.1392 515.551 10.2244 515.894 10.3949 516.205C10.5691 516.515 10.804 516.763 11.0994 516.949C11.3987 517.134 11.7377 517.227 12.1165 517.227Z" fill="white"/>
<path d="M350.056 26.6248H23.9443V516.375H350.056V26.6248Z" stroke="white" stroke-width="3" stroke-miterlimit="10"/>
<path d="M23.9443 434.747H350.056" stroke="white" stroke-width="3" stroke-miterlimit="10"/>
<path d="M23.9443 353.119H350.056" stroke="white" stroke-width="3" stroke-miterlimit="10"/>
<path d="M23.9443 271.509H350.056" stroke="white" stroke-width="3" stroke-miterlimit="10"/>
<path d="M23.9443 189.881H350.056" stroke="white" stroke-width="3" stroke-miterlimit="10"/>
<path d="M23.9443 108.253H350.056" stroke="white" stroke-width="3" stroke-miterlimit="10"/>
<path d="M295.697 26.6248V516.375" stroke="white" stroke-width="3" stroke-miterlimit="10"/>
<path d="M241.352 26.6248V516.375" stroke="white" stroke-width="3" stroke-miterlimit="10"/>
<path d="M186.994 26.6248V516.375" stroke="white" stroke-width="3" stroke-miterlimit="10"/>
<path d="M132.648 26.6248V516.375" stroke="white" stroke-width="3" stroke-miterlimit="10"/>
<path d="M78.2896 26.6248V516.375" stroke="white" stroke-width="3" stroke-miterlimit="10"/>
</g>
<defs>
<filter id="filter0_f_96_49" x="0.393457" y="0.30459" width="361.987" height="525.76" filterUnits="userSpaceOnUse" color-interpolation-filters="sRGB">
<feFlood flood-opacity="0" result="BackgroundImageFix"/>
<feBlend mode="normal" in="SourceGraphic" in2="BackgroundImageFix" result="shape"/>
<feGaussianBlur stdDeviation="3.45" result="effect1_foregroundBlur_96_49"/>
</filter>
<filter id="filter1_d_96_49" x="3.29346" y="7.20459" width="356.187" height="519.96" filterUnits="userSpaceOnUse" color-interpolation-filters="sRGB">
<feFlood flood-opacity="0" result="BackgroundImageFix"/>
<feColorMatrix in="SourceAlpha" type="matrix" values="0 0 0 0 0 0 0 0 0 0 0 0 0 0 0 0 0 0 127 0" result="hardAlpha"/>
<feOffset dy="4"/>
<feGaussianBlur stdDeviation="2"/>
<feComposite in2="hardAlpha" operator="out"/>
<feColorMatrix type="matrix" values="0 0 0 0 0 0 0 0 0 0 0 0 0 0 0 0 0 0 0.25 0"/>
<feBlend mode="normal" in2="BackgroundImageFix" result="effect1_dropShadow_96_49"/>
<feBlend mode="normal" in="SourceGraphic" in2="effect1_dropShadow_96_49" result="shape"/>
</filter>
</defs>
</svg>
