<svg width="47" height="46" viewBox="0 0 47 46" fill="none" xmlns="http://www.w3.org/2000/svg">
<g clip-path="url(#clip0_25_791)">
<path d="M44.6521 13.8059C44.2642 13.3959 44.008 12.8762 43.8902 12.3199C39.8385 4.95576 32.2268 0 23.5 0C10.5206 0 0 10.9583 0 24.4787C0 26.177 0.166225 27.8313 0.484822 29.4271C5.2153 26.9602 11.2617 30.3714 15.6113 32.6919C19.6699 34.8587 22.7312 38.3724 24.7051 42.5815C25.6817 41.4981 27.0184 40.8027 28.4798 40.8393C30.1213 40.8759 31.6242 41.725 32.7878 42.9109C33.5912 43.7307 34.3184 44.8361 34.6647 45.9927C42.0063 41.8495 47 33.7753 47 24.4714C47 20.6429 46.155 17.0194 44.6521 13.7985V13.8059Z" fill="#1799FF"/>
<path d="M34.9764 4.59705C33.4319 4.72881 31.4164 5.35102 31.4372 6.96878C31.4579 8.4987 33.2933 9.12824 34.734 9.43568C36.1746 9.74313 37.9684 10.7387 37.6013 12.2247C37.449 12.8542 36.9226 13.3007 36.5555 13.8278C35.5374 15.2991 35.9322 17.627 37.3866 18.6371C38.8411 19.6473 41.0505 19.1569 41.9717 17.6123C42.3249 17.0194 42.5119 16.3093 42.7127 15.6212C41.3068 11.0022 38.0654 7.05663 33.9444 4.83129" fill="#02C451"/>
<path d="M34.9764 3.49902C33.5774 3.63079 31.9428 3.97483 31.0078 5.18266C30.0728 6.39049 30.3083 8.2059 31.4788 9.20144C32.0606 9.69189 32.7532 10.0067 33.4596 10.2263C34.1245 10.4386 34.8379 10.5118 35.4751 10.8046C35.8006 10.951 36.514 11.295 36.604 11.7196C36.6664 12.0344 36.3893 12.3125 36.2162 12.5321C35.9184 12.9128 35.5998 13.2861 35.392 13.7326C33.9375 16.7998 36.2508 20.5916 39.5268 20.233C41.2583 20.0426 42.6158 18.9739 43.2738 17.2683C43.44 16.8364 43.6201 16.3606 43.7101 15.9067C43.7932 15.4748 43.6478 15.1161 43.5162 14.7135C43.2115 13.8205 42.8444 12.9494 42.4219 12.1149C40.6419 8.60851 37.8092 5.70972 34.4708 3.87235C33.2865 3.22086 32.2337 5.11678 33.425 5.76828C37.2966 7.89113 40.351 11.5073 41.7154 15.9067V15.3211C41.4592 16.1922 41.2445 17.1365 40.4757 17.6562C39.8939 18.0515 39.1043 18.1833 38.4464 17.9564C37.1373 17.5098 36.6179 15.6578 37.3936 14.4793C37.9685 13.6082 38.7095 12.964 38.6957 11.8074C38.6818 10.8704 38.1693 10.0799 37.4836 9.52353C36.798 8.9672 35.953 8.60119 35.1011 8.39622C34.3669 8.22054 33.5843 8.08145 32.9471 7.6276C31.361 6.5003 34.2492 5.76828 34.9833 5.7024C36.3062 5.57795 36.3201 3.3819 34.9833 3.50634L34.9764 3.49902Z" fill="#02C451"/>
<path d="M31.3676 34.2365C30.4741 35.1003 29.7815 36.2129 28.8811 37.0913C27.7245 38.226 25.7783 38.9067 24.6008 37.7941C22.8486 36.1397 24.7809 32.9554 23.839 30.7008C23.1048 28.9367 20.9231 28.4316 19.0808 28.5633C18.215 28.6219 17.2454 28.7463 16.5597 28.1827C15.5416 27.3482 15.9641 25.5035 17.0238 24.7276C18.0835 23.9516 19.4548 23.937 20.743 23.9443C21.0824 21.7775 22.9247 19.9475 25.0303 19.7352C26.0969 19.6254 27.3158 19.9987 27.8076 20.987C28.1954 21.7702 28.0361 22.7072 28.0846 23.5856C28.1331 24.464 28.5902 25.4889 29.4352 25.5328C29.8785 25.5621 30.2802 25.2985 30.6888 25.1229C32.4896 24.325 34.8098 25.1668 35.7448 26.9602C36.6798 28.7537 36.0842 31.2425 34.4566 32.3772C33.757 32.8603 32.9328 33.1092 32.2195 33.563C31.9147 33.7607 31.6308 33.9876 31.3676 34.2438V34.2365Z" fill="#02C451"/>
<path d="M30.6336 33.4605C29.6224 34.4707 28.8606 35.8762 27.6831 36.6887C26.9143 37.2158 25.4668 37.7209 24.9889 36.5277C24.6218 35.6053 24.9889 34.2877 25.0859 33.3434C25.2036 32.1868 25.1828 30.9716 24.6357 29.9322C23.5067 27.7727 20.9303 27.3482 18.8178 27.4872C17.9036 27.5458 16.4838 27.5165 17.2041 26.133C17.8343 24.9179 19.642 25.0423 20.7433 25.0496C21.1727 25.0496 21.6575 24.7129 21.7475 24.2444C21.9761 22.9853 22.6618 21.9385 23.7284 21.309C24.5249 20.8405 25.8962 20.4892 26.6719 21.2212C27.1429 21.6604 27.039 22.407 27.0459 23C27.0529 23.5929 27.0806 24.1932 27.2814 24.7715C27.6762 25.928 28.632 26.7918 29.851 26.6088C30.4882 26.5137 31.0146 26.0964 31.6448 25.972C32.1504 25.8768 32.6768 25.928 33.1685 26.0964C34.1659 26.4405 34.9762 27.2823 35.1355 28.4023C35.2879 29.4637 34.8931 30.6203 34.1036 31.3084C33.6257 31.7256 33.0023 31.9452 32.4482 32.2161C31.7764 32.5455 31.2016 32.9554 30.6475 33.4678C29.6363 34.3975 31.1115 35.9494 32.1158 35.0197C33.1201 34.09 34.3945 33.8631 35.3918 33.014C36.2437 32.2893 36.8601 31.2205 37.0956 30.0932C37.5804 27.7508 36.5831 25.3571 34.5053 24.3103C33.4664 23.7906 32.3305 23.6075 31.2016 23.8272C30.7306 23.915 30.0449 24.442 29.6016 24.4201C29.2138 24.3981 29.1515 23.7906 29.1307 23.4392C29.0337 22.0996 29.2138 20.7893 28.2234 19.7425C27.4338 18.9153 26.2494 18.5566 25.1551 18.6298C22.544 18.8055 20.2515 20.9357 19.7528 23.6515L20.7571 22.8462C18.4507 22.8316 15.5764 23.2855 15.0293 26.1403C14.8146 27.2603 15.147 28.4608 16.0543 29.1343C17.114 29.9175 18.3607 29.6613 19.5658 29.6467C20.5493 29.6321 21.7406 29.7931 22.4886 30.5398C23.2782 31.323 23.112 32.5748 22.9942 33.5996C22.7449 35.7956 22.6133 38.5407 25.1205 39.324C28.2996 40.3195 30.1904 36.9522 32.1089 35.027C33.0785 34.0534 31.6102 32.5016 30.6405 33.4751L30.6336 33.4605Z" fill="#02C451"/>
<path d="M10.2088 5.75366C11.5732 6.40516 13.097 7.26162 13.4017 8.79154C13.7965 10.7607 11.9057 12.5102 11.8918 14.5232C11.8918 15.4529 12.2866 16.3752 12.1135 17.2903C11.7187 19.3399 9.00369 19.6327 7.04362 19.1935C5.3329 18.8129 3.26894 18.359 1.92529 19.318C4.48792 14.9771 7.05055 10.6289 9.62011 6.28804" fill="#02C451"/>
<path d="M9.6824 6.70531C10.5066 7.1006 11.4624 7.53249 12.0442 8.29378C12.5775 8.99652 12.432 9.7871 12.1342 10.563C11.7533 11.5366 11.1992 12.4443 10.9776 13.4911C10.8529 14.0914 10.839 14.677 10.9222 15.2846C10.9914 15.8189 11.1646 16.3753 11.1161 16.917C10.9776 18.4542 8.64349 18.3664 7.62537 18.198C5.56834 17.8539 3.32431 17.0926 1.39887 18.3737L2.81871 19.8743C5.38134 15.5334 7.94397 11.1853 10.5135 6.84439C11.22 5.64388 9.42613 4.53853 8.71968 5.73904C6.15705 10.0799 3.59442 14.4281 1.02487 18.769C0.477711 19.6913 1.57202 20.8552 2.4447 20.2696C3.89917 19.296 5.83845 20.1378 7.38296 20.3648C8.92746 20.5917 10.652 20.5038 11.9195 19.4937C12.5428 18.9959 12.9861 18.2931 13.1246 17.4733C13.3047 16.3826 12.8268 15.3724 12.9376 14.3037C13.0207 13.4692 13.4848 12.6859 13.8103 11.9392C14.1774 11.0974 14.5168 10.2044 14.4891 9.25273C14.4129 6.94687 12.5151 5.67316 10.7282 4.80938C10.2157 4.56049 9.61314 4.65566 9.30839 5.20467C9.0452 5.68048 9.16987 6.45642 9.6824 6.70531Z" fill="#02C451"/>
<path d="M9.84185 7.07862L9.88341 7.11523C9.98037 7.22503 10.0912 7.29823 10.2159 7.34215C10.3405 7.40803 10.4721 7.44463 10.6176 7.43731C10.763 7.43731 10.8946 7.40803 11.0193 7.34215C11.1509 7.29823 11.2617 7.22503 11.3517 7.11523L11.511 6.89562C11.608 6.72726 11.6495 6.53693 11.6495 6.33929L11.6149 6.04648C11.5664 5.86348 11.4764 5.70243 11.3448 5.56335L11.3032 5.52675C11.2063 5.41694 11.0955 5.34374 10.9708 5.29982C10.8461 5.23394 10.7145 5.19734 10.5691 5.20466C10.4236 5.20466 10.292 5.23394 10.1674 5.29982C10.0358 5.34374 9.92497 5.41694 9.83493 5.52675L9.67563 5.74635C9.57867 5.91472 9.53711 6.10504 9.53711 6.30269L9.57174 6.59549C9.62022 6.7785 9.71026 6.93954 9.84185 7.07862Z" fill="#02C451"/>
<path d="M10.0152 5.46088L6.68381 8.50608C6.26825 8.87941 6.28903 9.6773 6.68381 10.058C7.12015 10.4825 7.71579 10.4606 8.15213 10.058C9.26029 9.04045 10.3754 8.03026 11.4835 7.01276C11.8991 6.63943 11.8783 5.84153 11.4835 5.46088C11.0472 5.03631 10.4516 5.05827 10.0152 5.46088Z" fill="#02C451"/>
<path d="M5.75568 8.00829C2.97835 11.112 1.10832 15.0869 0.547315 19.3253C0.471128 19.9109 0.678909 20.5038 1.27455 20.6795C1.75937 20.8186 2.47275 20.5038 2.55586 19.9109C3.06839 16.0312 4.67523 12.415 7.224 9.56749C8.14516 8.54267 6.67685 6.98347 5.75568 8.01561V8.00829Z" fill="#02C451"/>
<path d="M9.88321 5.75364L7.81233 7.34212C7.58377 7.51781 7.41062 7.70081 7.33443 8.00094C7.26517 8.26446 7.2998 8.61583 7.43832 8.85008C7.57685 9.08432 7.79155 9.28929 8.06167 9.35517C8.33178 9.42105 8.64345 9.41373 8.86509 9.24537L10.936 7.65689C11.1645 7.4812 11.3377 7.2982 11.4139 6.99807C11.4831 6.73455 11.4485 6.38318 11.31 6.14893C11.1715 5.91469 10.9567 5.70972 10.6866 5.64384C10.4165 5.57796 10.1048 5.58528 9.88321 5.75364Z" fill="#02C451"/>
<path d="M7.09922 10.9363C8.43594 10.9363 8.43594 8.7403 7.09922 8.7403C5.7625 8.7403 5.7625 10.9363 7.09922 10.9363Z" fill="#02C451"/>
<path d="M7.06455 10.8192C8.40128 10.8192 8.40128 8.62317 7.06455 8.62317C5.72783 8.62317 5.72783 10.8192 7.06455 10.8192Z" fill="#02C451"/>
<path d="M6.91221 11.1779C8.24893 11.1779 8.24893 8.98187 6.91221 8.98187C5.57549 8.98187 5.57549 11.1779 6.91221 11.1779Z" fill="#02C451"/>
<path d="M6.79453 11.2218C8.13126 11.2218 8.13126 9.02576 6.79453 9.02576C5.45781 9.02576 5.45781 11.2218 6.79453 11.2218Z" fill="#02C451"/>
<path d="M6.87071 11.0974C8.20743 11.0974 8.20743 8.90137 6.87071 8.90137C5.53398 8.90137 5.53398 11.0974 6.87071 11.0974Z" fill="#02C451"/>
<path d="M9.05251 5.31444C6.66303 6.52959 4.82071 8.90864 4.15581 11.6244C4.01729 12.1808 4.32896 12.8396 4.88305 12.9787C5.43713 13.1177 6.01199 12.803 6.16436 12.21C6.24055 11.9099 6.32366 11.6098 6.42755 11.3243C6.44833 11.2584 6.47603 11.1925 6.50374 11.1267C6.55222 11.0022 6.42755 11.3097 6.50374 11.1193C6.56607 10.9803 6.6284 10.8412 6.69766 10.7021C6.82926 10.4386 6.96778 10.1824 7.12015 9.93347C7.20326 9.8017 7.28638 9.67726 7.36949 9.55282C7.43875 9.45766 7.45953 9.42838 7.37641 9.53818C7.4249 9.4723 7.4803 9.40642 7.52879 9.34053C7.88894 8.87936 8.29758 8.46943 8.73391 8.08878C8.9417 7.90578 8.56076 8.22055 8.7824 8.05218C8.83781 8.00826 8.89321 7.97166 8.94862 7.92774C9.07329 7.8399 9.19103 7.75205 9.32263 7.67153C9.57196 7.50317 9.83515 7.35677 10.1053 7.21768C10.597 6.9688 10.7632 6.18554 10.4793 5.71705C10.1537 5.18267 9.58582 5.05823 9.05944 5.32176L9.05251 5.31444Z" fill="#02C451"/>
<path d="M34.5818 5.27785C37.8924 7.21038 40.6074 10.1019 42.3943 13.6229L44.0289 12.2906C41.3416 9.66996 38.6543 7.04934 35.967 4.42139C34.9835 3.46245 33.5152 5.01433 34.4987 5.97327C37.186 8.59389 39.8663 11.2218 42.5606 13.8425C43.4263 14.6916 44.7561 13.6229 44.1951 12.5102C42.2489 8.67442 39.2361 5.4755 35.6345 3.37461C34.464 2.69383 33.4113 4.58976 34.5887 5.27053L34.5818 5.27785Z" fill="#02C451"/>
<path d="M34.4985 5.64383L35.4128 4.83129C35.5998 4.67025 35.7244 4.30424 35.7175 4.05535C35.7106 3.80646 35.6413 3.58686 35.4959 3.38921C35.1773 2.95 34.6163 2.8402 34.1522 3.10373C33.2311 3.6381 32.3099 4.17247 31.3887 4.70685C30.9108 4.98501 30.7169 5.71703 31.0147 6.20748C31.3125 6.69793 31.929 6.89558 32.4346 6.60277C33.3557 6.0684 34.2769 5.53403 35.198 4.99965L33.9375 3.27209L33.0233 4.08463C32.8293 4.253 32.7185 4.60436 32.7185 4.86057C32.7185 5.13142 32.8293 5.4535 33.0233 5.63651C33.2172 5.81951 33.4804 5.97324 33.7574 5.9586C34.0345 5.94396 34.27 5.83415 34.4916 5.63651L34.4985 5.64383Z" fill="#02C451"/>
<path d="M39.8313 11.4415L41.4174 13.8132C41.5767 14.0548 41.7637 14.2378 42.0407 14.3183C42.2901 14.3915 42.6225 14.3549 42.8442 14.2085C43.0658 14.0621 43.2597 13.8352 43.3221 13.5497C43.3844 13.2642 43.3775 12.9421 43.2182 12.7005L41.6321 10.3288C41.4728 10.0872 41.2858 9.90423 41.0088 9.82371C40.7594 9.75051 40.427 9.78711 40.2053 9.93351C39.9837 10.0799 39.7898 10.3068 39.7275 10.5923C39.6651 10.8778 39.672 11.1999 39.8313 11.4415Z" fill="#02C451"/>
</g>
<defs>
<clipPath id="clip0_25_791">
<rect width="47" height="46" fill="white"/>
</clipPath>
</defs>
</svg>
