<svg width="47" height="46" viewBox="0 0 47 46" fill="none" xmlns="http://www.w3.org/2000/svg">
<g clip-path="url(#clip0_25_816)">
<path d="M45.9739 28.5111C45.8944 28.4744 45.8077 28.4525 45.7282 28.4159C45.0344 28.0936 44.4274 27.6469 43.871 27.1342C42.4257 26.79 40.6192 26.8047 39.5208 26.4751C37.3962 25.8233 35.4812 24.7028 34.2239 22.8132C33.5807 21.8538 33.1977 20.8066 32.9737 19.6641C32.6991 18.2579 33.1833 16.4124 32.5329 15.1161C31.5068 13.0874 28.4067 12.5235 26.7663 10.9489C23.8974 8.18054 23.4783 4.05732 23.5506 0.00732422C10.4565 0.512658 0 11.2638 0 24.4684C0 26.1675 0.173432 27.8226 0.505843 29.4192C5.44142 26.9511 11.75 30.364 16.2881 32.6856C20.5228 34.8534 23.7168 38.3687 25.7763 42.5798C26.7952 41.4959 28.1899 40.8002 29.7146 40.8368C31.4273 40.8734 32.9954 41.723 34.2094 42.9094C35.0477 43.7297 35.8064 44.8355 36.1677 45.9927C40.966 43.4001 44.8032 39.2549 47 34.2309C46.9783 34.121 46.9566 34.0038 46.935 33.894C46.7109 32.6123 46.7037 29.9319 45.9739 28.5037V28.5111Z" fill="#1799FF"/>
<path d="M32.258 34.8973C31.3258 35.7615 30.6031 36.8747 29.6637 37.7535C28.4569 38.8887 26.4263 39.5698 25.1979 38.4566C23.3696 36.8014 25.3857 33.6156 24.403 31.3599C23.637 29.5949 21.3607 29.0896 19.4385 29.2214C18.5352 29.28 17.5235 29.4045 16.8081 28.8406C15.7458 28.0057 16.1866 26.1601 17.2923 25.3838C18.3979 24.6075 19.8287 24.5929 21.1728 24.6002C21.5269 22.4324 23.4491 20.6015 25.6459 20.3891C26.7587 20.2792 28.0306 20.6527 28.5436 21.6414C28.9483 22.4251 28.7821 23.3625 28.8327 24.2413C28.8833 25.1202 29.3602 26.1455 30.2418 26.1894C30.7043 26.2187 31.1234 25.9551 31.5498 25.7793C33.4286 24.981 35.8494 25.8232 36.825 27.6175C37.8006 29.4118 37.1791 31.9019 35.4809 33.0371C34.751 33.5204 33.8911 33.7694 33.1468 34.2235C32.8288 34.4212 32.5326 34.6483 32.258 34.9046V34.8973Z" fill="#02C451"/>
<path d="M31.4921 34.121C30.4371 35.1316 29.6422 36.5378 28.4137 37.3507C27.6116 37.878 26.1013 38.3834 25.6027 37.1896C25.2197 36.2668 25.6027 34.9486 25.7038 34.0038C25.8267 32.8467 25.805 31.6309 25.2341 30.591C24.0562 28.4305 21.368 28.0057 19.164 28.1449C18.2101 28.2034 16.7287 28.1742 17.4803 26.79C18.1379 25.5743 20.024 25.6988 21.1729 25.7061C21.621 25.7061 22.1268 25.3692 22.2208 24.9005C22.4592 23.6408 23.1746 22.5935 24.2875 21.9637C25.1185 21.495 26.5493 21.1434 27.3587 21.8758C27.8501 22.3152 27.7417 23.0622 27.7489 23.6554C27.7561 24.2487 27.785 24.8492 27.9946 25.4278C28.4065 26.5849 29.4037 27.4491 30.6756 27.266C31.3404 27.1708 31.8896 26.7534 32.5472 26.6289C33.0747 26.5337 33.6239 26.5849 34.137 26.7534C35.1776 27.0976 36.023 27.9398 36.1892 29.0603C36.3482 30.1223 35.9363 31.2794 35.1125 31.9678C34.6139 32.3853 33.9635 32.605 33.3854 32.876C32.6845 33.2055 32.0847 33.6156 31.5066 34.1283C30.4515 35.0584 31.9907 36.611 33.0386 35.6809C34.0864 34.7508 35.416 34.5238 36.4566 33.6742C37.3454 32.9492 37.9886 31.8799 38.2343 30.7521C38.7401 28.4085 37.6995 26.0137 35.5316 24.9664C34.4477 24.4464 33.2626 24.2633 32.0847 24.483C31.5933 24.5709 30.8779 25.0982 30.4154 25.0762C30.0107 25.0543 29.9457 24.4464 29.924 24.0949C29.8228 22.7546 30.0107 21.4437 28.9774 20.3964C28.1536 19.5688 26.9179 19.21 25.7761 19.2832C23.0518 19.459 20.6599 21.5902 20.1396 24.3073L21.1874 23.5016C18.781 23.487 15.7821 23.9411 15.2112 26.7973C14.9872 27.9178 15.3341 29.1189 16.2807 29.7927C17.3863 30.5763 18.6871 30.32 19.9445 30.3053C20.9706 30.2907 22.2135 30.4518 22.994 31.1988C23.8178 31.9825 23.6443 33.2348 23.5215 34.2601C23.2613 36.4572 23.124 39.2036 25.74 39.9872C29.0569 40.9833 31.0296 37.6144 33.0313 35.6882C34.043 34.7142 32.511 33.1616 31.4994 34.1356L31.4921 34.121Z" fill="#02C451"/>
<path d="M10.6515 5.73444C12.0751 6.38624 13.6648 7.24311 13.9828 8.77376C14.3947 10.7438 12.4219 12.4942 12.4075 14.5082C12.4075 15.4383 12.8194 16.3611 12.6387 17.2765C12.2268 19.3272 9.39409 19.6201 7.34904 19.1807C5.56414 18.7999 3.4107 18.3458 2.00879 19.3052C4.68253 14.9623 7.35627 10.612 10.0372 6.26906" fill="#02C451"/>
<path d="M10.1022 6.67917C10.9622 7.07465 11.9594 7.50675 12.5664 8.26841C13.1228 8.97148 12.9711 9.76244 12.6603 10.5388C12.2629 11.5128 11.6848 12.4209 11.4535 13.4682C11.3235 14.0688 11.309 14.6547 11.3957 15.2625C11.468 15.7971 11.6487 16.3537 11.5981 16.8957C11.4535 18.4337 9.01828 18.3458 7.95601 18.1773C5.80979 17.8331 3.46846 17.0715 1.45955 18.3531L2.94094 19.8545C5.61468 15.5115 8.28842 11.1613 10.9694 6.81832C11.7065 5.61724 9.83485 4.51137 9.09777 5.71245C6.42403 10.0554 3.75029 14.4057 1.06932 18.7486C0.498445 19.6714 1.6402 20.8358 2.55072 20.2499C4.06825 19.2759 6.09162 20.1181 7.70309 20.3452C9.31456 20.5722 11.1139 20.4843 12.4363 19.4736C13.0867 18.9756 13.5492 18.2726 13.6937 17.4523C13.8816 16.3611 13.383 15.3504 13.4986 14.2811C13.5853 13.4462 14.0695 12.6626 14.4091 11.9156C14.7921 11.0734 15.1462 10.1799 15.1173 9.22781C15.0378 6.92086 13.0578 5.64654 11.1934 4.78234C10.6587 4.53334 10.03 4.62855 9.71201 5.17782C9.4374 5.65386 9.56748 6.43017 10.1022 6.67917Z" fill="#02C451"/>
<path d="M10.2686 7.06005L10.312 7.09667C10.4132 7.20652 10.5288 7.27976 10.6589 7.3237C10.7889 7.38962 10.9262 7.42623 11.078 7.41891C11.2297 7.41891 11.367 7.38962 11.4971 7.3237C11.6344 7.27976 11.75 7.20652 11.844 7.09667L12.0102 6.87696C12.1114 6.70851 12.1547 6.5181 12.1547 6.32036L12.1186 6.02741C12.068 5.84432 11.9741 5.6832 11.8368 5.54405L11.7934 5.50743C11.6922 5.39758 11.5766 5.32434 11.4465 5.2804C11.3165 5.21448 11.1792 5.17787 11.0274 5.18519C10.8757 5.18519 10.7384 5.21448 10.6083 5.2804C10.471 5.32434 10.3554 5.39758 10.2614 5.50743L10.0952 5.72714C9.99404 5.89559 9.95068 6.086 9.95068 6.28374L9.98681 6.57669C10.0374 6.75978 10.1313 6.9209 10.2686 7.06005Z" fill="#02C451"/>
<path d="M10.4492 5.4415L6.97336 8.48815C6.53978 8.86166 6.56146 9.65994 6.97336 10.0408C7.42862 10.4655 8.05008 10.4436 8.50534 10.0408C9.66155 9.02278 10.825 8.01211 11.9812 6.99412C12.4148 6.62061 12.3931 5.82233 11.9812 5.4415C11.5259 5.01673 10.9045 5.0387 10.4492 5.4415Z" fill="#02C451"/>
<path d="M6.00511 7.98282C3.10736 11.0881 1.15625 15.0648 0.570918 19.3052C0.491429 19.8911 0.708218 20.4843 1.32968 20.6601C1.83552 20.7992 2.57984 20.4843 2.66655 19.8911C3.2013 16.0096 4.87781 12.3917 7.53709 9.54276C8.49819 8.51744 6.96621 6.9575 6.00511 7.99014V7.98282Z" fill="#02C451"/>
<path d="M10.3121 5.73443L8.15145 7.32366C7.91298 7.49943 7.73232 7.68252 7.65283 7.98279C7.58057 8.24645 7.6167 8.59798 7.76123 8.83234C7.90575 9.0667 8.12977 9.27176 8.41159 9.33767C8.69342 9.40359 9.01861 9.39626 9.24985 9.22782L11.4105 7.63858C11.649 7.46281 11.8296 7.27972 11.9091 6.97945C11.9814 6.7158 11.9453 6.36426 11.8007 6.12991C11.6562 5.89555 11.4322 5.69048 11.1504 5.62457C10.8685 5.55866 10.5434 5.56598 10.3121 5.73443Z" fill="#02C451"/>
<path d="M7.40685 10.9196C8.80153 10.9196 8.80153 8.72247 7.40685 8.72247C6.01217 8.72247 6.01217 10.9196 7.40685 10.9196Z" fill="#02C451"/>
<path d="M7.37072 10.7951C8.7654 10.7951 8.7654 8.59802 7.37072 8.59802C5.97604 8.59802 5.97604 10.7951 7.37072 10.7951Z" fill="#02C451"/>
<path d="M7.21203 11.1613C8.60671 11.1613 8.60671 8.96417 7.21203 8.96417C5.81735 8.96417 5.81735 11.1613 7.21203 11.1613Z" fill="#02C451"/>
<path d="M7.08898 11.1979C8.48366 11.1979 8.48366 9.00079 7.08898 9.00079C5.6943 9.00079 5.6943 11.1979 7.08898 11.1979Z" fill="#02C451"/>
<path d="M7.16857 11.0807C8.56325 11.0807 8.56325 8.88361 7.16857 8.88361C5.77389 8.88361 5.77389 11.0807 7.16857 11.0807Z" fill="#02C451"/>
<path d="M9.44495 5.29503C6.95187 6.51076 5.02967 8.89095 4.33594 11.608C4.19142 12.1646 4.5166 12.8238 5.09471 12.9629C5.67281 13.1021 6.2726 12.7871 6.43158 12.1939C6.51107 11.8937 6.59778 11.5934 6.70618 11.3078C6.72786 11.2418 6.75676 11.1759 6.78567 11.11C6.83625 10.9855 6.70618 11.2931 6.78567 11.1027C6.85071 10.9635 6.91574 10.8244 6.98801 10.6853C7.12531 10.4216 7.26983 10.1653 7.42881 9.91626C7.51553 9.78444 7.60224 9.65994 7.68896 9.53543C7.76122 9.44023 7.7829 9.41093 7.69618 9.52079C7.74677 9.45487 7.80458 9.38896 7.85516 9.32305C8.23093 8.86165 8.65729 8.45153 9.11254 8.0707C9.32933 7.88761 8.93189 8.20252 9.16313 8.03408C9.22094 7.99014 9.27875 7.95352 9.33656 7.90958C9.46663 7.82169 9.58948 7.73381 9.72678 7.65325C9.98693 7.4848 10.2615 7.33833 10.5434 7.19918C11.0564 6.95018 11.2299 6.16654 10.9336 5.69783C10.5939 5.1632 10.0014 5.0387 9.45218 5.30235L9.44495 5.29503Z" fill="#02C451"/>
</g>
<defs>
<clipPath id="clip0_25_816">
<rect width="47" height="46" fill="white"/>
</clipPath>
</defs>
</svg>
