<svg width="81" height="79" viewBox="0 0 81 79" fill="none" xmlns="http://www.w3.org/2000/svg">
<g filter="url(#filter0_f_25_586)">
<path d="M66.0566 38.5132C66.0566 51.8543 55.4231 62.6694 42.3061 62.6694C29.1891 62.6694 18.5557 51.8543 18.5557 38.5132C18.5557 25.172 29.1891 14.3569 42.3061 14.3569C55.4231 14.3569 66.0566 25.172 66.0566 38.5132ZM22.0571 38.5132C22.0571 49.8875 31.1229 59.1082 42.3061 59.1082C53.4894 59.1082 62.5552 49.8875 62.5552 38.5132C62.5552 27.1389 53.4894 17.9182 42.3061 17.9182C31.1229 17.9182 22.0571 27.1389 22.0571 38.5132Z" fill="#FF4545"/>
<line y1="-2.5" x2="63.5957" y2="-2.5" transform="matrix(0.00509864 0.999987 -0.999989 0.00473377 39.9868 8)" stroke="#FF4545" stroke-width="5"/>
<line y1="-2" x2="66.001" y2="-2" transform="matrix(-0.999985 -0.00555421 0.00598231 -0.999982 74 37.4559)" stroke="#FF4545" stroke-width="4"/>
</g>
<path d="M66.0566 38.5132C66.0566 51.8543 55.4231 62.6694 42.3061 62.6694C29.1891 62.6694 18.5557 51.8543 18.5557 38.5132C18.5557 25.172 29.1891 14.3569 42.3061 14.3569C55.4231 14.3569 66.0566 25.172 66.0566 38.5132ZM22.0571 38.5132C22.0571 49.8875 31.1229 59.1082 42.3061 59.1082C53.4894 59.1082 62.5552 49.8875 62.5552 38.5132C62.5552 27.1389 53.4894 17.9182 42.3061 17.9182C31.1229 17.9182 22.0571 27.1389 22.0571 38.5132Z" fill="#FF4545"/>
<line y1="-2.5" x2="63.5957" y2="-2.5" transform="matrix(0.00509864 0.999987 -0.999989 0.00473377 39.9868 8)" stroke="#FF4545" stroke-width="5"/>
<line y1="-2" x2="66.001" y2="-2" transform="matrix(-0.999985 -0.00555421 0.00598231 -0.999982 75 37.4559)" stroke="#FF4545" stroke-width="4"/>
<defs>
<filter id="filter0_f_25_586" x="0.976074" y="0.976318" width="80.0239" height="77.6185" filterUnits="userSpaceOnUse" color-interpolation-filters="sRGB">
<feFlood flood-opacity="0" result="BackgroundImageFix"/>
<feBlend mode="normal" in="SourceGraphic" in2="BackgroundImageFix" result="shape"/>
<feGaussianBlur stdDeviation="3.5" result="effect1_foregroundBlur_25_586"/>
</filter>
</defs>
</svg>
