<svg width="47" height="46" viewBox="0 0 47 46" fill="none" xmlns="http://www.w3.org/2000/svg">
<g clip-path="url(#clip0_25_755)">
<path d="M43.8902 11.4473C39.8385 4.60749 32.2268 0 23.5 0C10.5206 0 0 10.1882 0 22.7584C0 35.3286 10.5206 45.5168 23.5 45.5168C36.4794 45.5168 47 35.3286 47 22.7584C47 19.199 46.155 15.8302 44.6521 12.8356C44.2642 12.4545 44.008 11.9713 43.8902 11.4541V11.4473Z" fill="#1799FF"/>
<path d="M34.9764 4.27399C33.4319 4.39649 31.4164 4.97498 31.4372 6.47905C31.4579 7.90145 33.2933 8.48674 34.734 8.77258C36.1746 9.05842 37.9684 9.984 37.6013 11.3656C37.449 11.9509 36.9226 12.366 36.5555 12.856C35.5374 14.224 35.9322 16.3882 37.3866 17.3274C38.8411 18.2666 41.0505 17.8106 41.9717 16.3746C42.7681 15.1359 42.7058 13.346 43.9386 12.5021" fill="#02C451"/>
<path d="M34.9762 3.25315C32.9538 3.4301 30.0033 4.33526 30.4466 6.90103C30.6405 8.01717 31.5547 8.75219 32.559 9.18095C33.5633 9.60971 34.6091 9.65735 35.5649 10.0861C35.8835 10.229 36.4584 10.4945 36.5761 10.862C36.7077 11.2771 36.1882 11.6787 35.9458 11.9713C35.2117 12.856 34.8446 13.9382 34.9762 15.0815C35.2602 17.5724 37.4765 19.1718 39.9768 18.7498C41.265 18.532 42.4494 17.7222 43.0381 16.572C43.329 16.0071 43.509 15.4014 43.703 14.8025C43.8553 14.3193 44.0216 13.6932 44.4579 13.3665C44.8943 13.0398 45.1367 12.4885 44.8319 11.9713C44.5757 11.5425 43.8623 11.2703 43.4121 11.6038C42.5394 12.2503 42.0961 13.0806 41.7568 14.0879C41.5005 14.8569 41.3343 15.7757 40.6417 16.2998C39.2911 17.3206 37.2964 16.6809 37.0401 14.9726C36.9016 14.0266 37.3934 13.4686 37.9544 12.7812C38.6331 11.9441 38.9309 10.896 38.4046 9.89555C37.9405 9.0108 37.0263 8.47315 36.119 8.11245C35.2809 7.77897 34.3598 7.71091 33.5217 7.37743C33.0646 7.19367 32.185 6.7581 32.5729 6.15239C32.9953 5.49224 34.2836 5.35612 34.9831 5.29487C36.306 5.17917 36.3198 3.13745 34.9831 3.25315H34.9762Z" fill="#02C451"/>
<path d="M20.7088 22.4589C20.9581 20.356 22.8559 18.5525 25.0307 18.3483C26.0973 18.2462 27.3162 18.5933 27.808 19.5121C28.1958 20.2403 28.0365 21.1114 28.085 21.9281C28.1335 22.7448 28.5906 23.6976 29.4356 23.7384C29.8789 23.7657 30.2806 23.5206 30.6892 23.3573C32.49 22.6155 34.8102 23.3981 35.7452 25.0655C36.6802 26.733 36.0846 29.0469 34.457 30.1018C33.7574 30.551 32.9332 30.7824 32.2199 31.2043C30.8624 32.0074 30.0451 33.4298 28.8884 34.4847C27.7318 35.5396 25.7856 36.1725 24.6082 35.138C22.8559 33.5999 24.7882 30.6394 23.8463 28.5433C23.1121 26.9031 20.9304 26.4335 19.0881 26.556C18.2224 26.6105 17.2527 26.7261 16.567 26.2021C15.5489 25.4263 15.9714 23.7112 17.0311 22.9898C18.0908 22.2684 19.4829 22.2548 20.7781 22.2616" fill="#02C451"/>
<path d="M21.7059 22.7312C21.9622 20.9889 23.3889 19.4372 25.259 19.3555C26.1386 19.3147 26.9143 19.621 27.0251 20.5533C27.1428 21.5266 26.9489 22.4385 27.413 23.3641C27.7662 24.0583 28.3618 24.6028 29.1583 24.7253C30.2111 24.8886 31.0214 24.1332 32.0465 24.0991C33.7988 24.0311 35.371 25.4331 35.1286 27.2094C34.8377 29.3668 32.7599 29.5369 31.2569 30.6122C29.754 31.6875 28.7982 33.8245 26.9351 34.4847C26.2355 34.7365 25.3282 34.7501 24.9889 33.9607C24.698 33.2937 24.9127 32.3885 25.0027 31.7011C25.2313 29.9317 25.2867 28.0737 23.7837 26.801C23.008 26.1409 22.0176 25.787 21.0133 25.6304C20.009 25.4739 19.0325 25.6304 18.0143 25.5828C16.9962 25.5351 16.6915 24.7321 17.4256 23.9834C18.2221 23.1667 19.7251 23.2756 20.7709 23.2824C22.1076 23.2893 22.1076 21.2475 20.7709 21.2407C18.4161 21.2271 15.4379 21.6763 14.9946 24.4394C14.8214 25.4943 15.1955 26.5696 16.1443 27.1549C17.2317 27.8219 18.4645 27.5565 19.6697 27.5633C20.667 27.5633 21.9483 27.7402 22.6271 28.5433C23.3058 29.3464 23.0703 30.5306 22.9526 31.4698C22.6894 33.5319 22.7795 36.05 25.3282 36.6081C27.877 37.1662 29.7747 35.0768 31.2985 33.3822C32.2058 32.3681 33.1685 31.9053 34.3736 31.32C35.4125 30.8164 36.2506 30.0201 36.7285 28.9789C37.705 26.8623 37.1509 24.3782 35.1978 23.0102C34.2974 22.3841 33.1546 22.037 32.0465 22.0642C31.4855 22.0778 30.9314 22.1799 30.4119 22.3841C29.9756 22.5474 29.5254 22.9762 29.2553 22.4385C28.9852 21.9009 29.1445 21.1591 29.1029 20.5601C29.0544 19.8524 28.8813 19.1786 28.4242 18.6137C27.6346 17.6269 26.2702 17.2321 25.0304 17.341C22.4054 17.5588 20.0852 19.6278 19.7043 22.2071C19.5104 23.4934 21.512 24.0447 21.7059 22.7516V22.7312Z" fill="#02C451"/>
<path d="M10.209 5.3493C11.5734 5.95502 13.0972 6.75129 13.4019 8.17369C13.7967 10.0044 11.9059 11.631 11.892 13.5026C11.892 14.3669 12.2868 15.2244 12.1137 16.0752C11.7189 17.9808 9.00388 18.253 7.04382 17.8446C5.08375 17.4363 2.64579 16.9395 1.38525 18.4572" fill="#02C451"/>
<path d="M9.68246 6.23406C10.8252 6.74449 12.6676 7.50673 12.3836 9.03802C12.0996 10.5693 10.9153 11.7875 10.8599 13.4209C10.8322 14.2376 11.3932 15.3265 11.033 16.1024C10.8322 16.5379 10.3335 16.7353 9.89024 16.8578C8.51888 17.2185 7.18909 16.8034 5.83159 16.5924C4.02389 16.3134 1.95994 16.2725 0.643994 17.7494C-0.235611 18.7362 1.23271 20.1858 2.11231 19.1922C3.19277 17.9808 5.19439 18.5252 6.58652 18.8043C8.17951 19.1309 9.91794 19.199 11.407 18.4572C12.1204 18.1033 12.6883 17.5112 12.9792 16.7761C13.3879 15.7485 13.0208 14.7889 12.9377 13.7476C12.8754 12.9173 13.2978 12.1619 13.6511 11.4336C14.0459 10.6238 14.4268 9.79346 14.4822 8.88149C14.6276 6.61518 12.5637 5.30167 10.7283 4.47137C10.2158 4.23997 9.6132 4.32845 9.30845 4.83888C9.04526 5.27445 9.16993 6.00947 9.68246 6.23406Z" fill="#02C451"/>
<path d="M15.9922 43.3186C15.9368 41.5695 18.2916 40.6507 20.0508 41.0455C21.81 41.4402 23.3061 42.5972 25.0653 43.0055C26.2496 43.2777 27.7318 43.3322 28.2997 44.3803" fill="#02C451"/>
<path d="M17.031 43.3186C17.031 42.5971 17.7652 42.2364 18.4024 42.0731C19.4413 41.8077 20.4317 42.1616 21.3736 42.5971C22.5372 43.128 23.68 43.7541 24.9474 44.0264C25.6816 44.1829 26.9698 44.1829 27.4062 44.8975C28.0849 46.0272 29.8788 44.9996 29.2 43.8698C28.4382 42.5971 27.0183 42.3658 25.6608 42.0935C24.0748 41.7737 22.7242 40.8821 21.2212 40.3308C19.8637 39.834 18.4301 39.8 17.0933 40.3717C15.8605 40.9025 14.967 41.9574 14.9532 43.3186C14.9393 44.6797 17.0171 44.6321 17.031 43.3186Z" fill="#02C451"/>
<path d="M8.71966 5.3289C6.1224 9.41915 3.52514 13.5162 0.927885 17.6065C0.221431 18.7226 2.01527 19.7503 2.72173 18.6341C5.31898 14.5439 7.91624 10.4468 10.5135 6.35656C11.22 5.24042 9.42612 4.21276 8.71966 5.3289Z" fill="#02C451"/>
<path d="M9.84185 6.58114L9.88341 6.61517C9.98037 6.71726 10.0912 6.78531 10.2159 6.82615C10.3405 6.8874 10.4721 6.92143 10.6176 6.91462C10.763 6.91462 10.8946 6.8874 11.0193 6.82615C11.1509 6.78531 11.2617 6.71726 11.3517 6.61517L11.511 6.411C11.608 6.25447 11.6495 6.07752 11.6495 5.89376L11.6149 5.62153C11.5664 5.45139 11.4764 5.30166 11.3448 5.17235L11.3032 5.13832C11.2063 5.03624 11.0955 4.96818 10.9708 4.92735C10.8461 4.86609 10.7145 4.83207 10.5691 4.83887C10.4236 4.83887 10.292 4.86609 10.1674 4.92735C10.0358 4.96818 9.92497 5.03624 9.83493 5.13832L9.67563 5.3425C9.57867 5.49903 9.53711 5.67598 9.53711 5.85973L9.57174 6.13196C9.62022 6.30211 9.71026 6.45183 9.84185 6.58114Z" fill="#02C451"/>
<path d="M10.0152 5.07708L6.68381 7.90827C6.26825 8.25536 6.28903 8.99719 6.68381 9.35108C7.12015 9.74582 7.71579 9.7254 8.15213 9.35108C9.26029 8.40509 10.3754 7.46589 11.4835 6.5199C11.8991 6.1728 11.8783 5.43098 11.4835 5.07708C11.0472 4.68235 10.4516 4.70276 10.0152 5.07708Z" fill="#02C451"/>
<path d="M5.75568 7.44549C2.97835 10.3311 1.10832 14.0266 0.547315 17.9672C0.471128 18.5116 0.678909 19.0629 1.27455 19.2262C1.75937 19.3555 2.47275 19.0629 2.55586 18.5116C3.06839 14.9046 4.67523 11.5426 7.224 8.89512C8.14516 7.94231 6.67685 6.49269 5.75568 7.4523V7.44549Z" fill="#02C451"/>
<path d="M9.88321 5.34929L7.81233 6.82614C7.58377 6.98948 7.41062 7.15962 7.33443 7.43865C7.26517 7.68366 7.2998 8.01034 7.43832 8.22812C7.57685 8.4459 7.79155 8.63646 8.06167 8.69772C8.33178 8.75897 8.64345 8.75216 8.86509 8.59563L10.936 7.11878C11.1645 6.95545 11.3377 6.7853 11.4139 6.50627C11.4831 6.26126 11.4485 5.93459 11.31 5.7168C11.1715 5.49902 10.9567 5.30846 10.6866 5.24721C10.4165 5.18595 10.1048 5.19276 9.88321 5.34929Z" fill="#02C451"/>
<path d="M7.09922 10.1678C8.43594 10.1678 8.43594 8.12604 7.09922 8.12604C5.7625 8.12604 5.7625 10.1678 7.09922 10.1678Z" fill="#02C451"/>
<path d="M7.06455 10.0589C8.40128 10.0589 8.40128 8.01715 7.06455 8.01715C5.72783 8.01715 5.72783 10.0589 7.06455 10.0589Z" fill="#02C451"/>
<path d="M6.91221 10.3924C8.24893 10.3924 8.24893 8.35065 6.91221 8.35065C5.57549 8.35065 5.57549 10.3924 6.91221 10.3924Z" fill="#02C451"/>
<path d="M6.79453 10.4332C8.13126 10.4332 8.13126 8.39148 6.79453 8.39148C5.45781 8.39148 5.45781 10.4332 6.79453 10.4332Z" fill="#02C451"/>
<path d="M6.87071 10.3175C8.20743 10.3175 8.20743 8.27576 6.87071 8.27576C5.53398 8.27576 5.53398 10.3175 6.87071 10.3175Z" fill="#02C451"/>
<path d="M9.05251 4.94095C6.66303 6.0707 4.82071 8.28257 4.15581 10.8075C4.01729 11.3247 4.32896 11.9373 4.88305 12.0666C5.43713 12.1959 6.01199 11.9032 6.16436 11.352C6.24055 11.0729 6.32366 10.7939 6.42755 10.5285C6.44833 10.4672 6.47603 10.406 6.50374 10.3447C6.55222 10.229 6.42755 10.5149 6.50374 10.3379C6.56607 10.2086 6.6284 10.0793 6.69766 9.94998C6.82926 9.70497 6.96778 9.46677 7.12015 9.23537C7.20326 9.11287 7.28638 8.99717 7.36949 8.88148C7.43875 8.793 7.45953 8.76578 7.37641 8.86786C7.4249 8.80661 7.4803 8.74536 7.52879 8.68411C7.88894 8.25535 8.29758 7.87423 8.73391 7.52033C8.9417 7.35018 8.56076 7.64283 8.7824 7.4863C8.83781 7.44546 8.89321 7.41143 8.94862 7.3706C9.07329 7.28893 9.19103 7.20726 9.32263 7.1324C9.57196 6.97587 9.83515 6.83975 10.1053 6.71044C10.597 6.47905 10.7632 5.75083 10.4793 5.31527C10.1537 4.81845 9.58582 4.70275 9.05944 4.94776L9.05251 4.94095Z" fill="#02C451"/>
<path d="M34.5055 5.56027C37.1443 7.95589 39.79 10.3583 42.4288 12.7539C42.8375 13.1283 43.4885 13.1555 43.8972 12.7539C44.285 12.3728 44.3127 11.6854 43.8972 11.3111C41.2583 8.9155 38.6126 6.51307 35.9738 4.11745C35.5652 3.74314 34.9141 3.71591 34.5055 4.11745C34.1176 4.49857 34.0899 5.18595 34.5055 5.56027Z" fill="#02C451"/>
<path d="M33.4248 5.36975C36.7216 7.04396 39.3535 9.67778 40.9811 12.965C41.2235 13.4618 41.9438 13.5911 42.4009 13.3325C42.9135 13.0398 43.0174 12.4341 42.7749 11.9373C41.0157 8.38469 38.0445 5.42419 34.4776 3.61387C33.9789 3.36205 33.3486 3.48456 33.0577 3.98138C32.7876 4.43736 32.9331 5.12474 33.4317 5.37655L33.4248 5.36975Z" fill="#02C451"/>
<path d="M44.2574 11.7535C42.3182 8.13966 39.2776 5.11791 35.6345 3.14425C34.464 2.51131 33.4113 4.274 34.5887 4.90693C37.9409 6.72407 40.6767 9.45317 42.4636 12.7812C42.7268 13.2712 43.4125 13.4141 43.8834 13.1487C44.389 12.8628 44.5206 12.2435 44.2574 11.7535Z" fill="#02C451"/>
<path d="M34.4985 5.24724L35.4128 4.49181C35.5998 4.34208 35.7244 4.00179 35.7175 3.7704C35.7106 3.539 35.6413 3.33483 35.4959 3.15108C35.1773 2.74273 34.6163 2.64065 34.1522 2.88565C33.2311 3.38247 32.3099 3.87929 31.3887 4.37611C30.9108 4.63473 30.7169 5.3153 31.0147 5.77129C31.3125 6.22727 31.929 6.41103 32.4346 6.1388C33.3557 5.64198 34.2769 5.14516 35.198 4.64834L33.9375 3.04218L33.0233 3.79762C32.8293 3.95415 32.7185 4.28083 32.7185 4.51903C32.7185 4.77084 32.8293 5.0703 33.0233 5.24044C33.2172 5.41058 33.4804 5.5535 33.7574 5.53989C34.0345 5.52628 34.27 5.42419 34.4916 5.24044L34.4985 5.24724Z" fill="#02C451"/>
<path d="M39.8313 10.6374L41.4174 12.8425C41.5767 13.0671 41.7637 13.2372 42.0407 13.3121C42.2901 13.3801 42.6225 13.3461 42.8442 13.21C43.0658 13.0739 43.2597 12.8629 43.3221 12.5975C43.3844 12.332 43.3775 12.0326 43.2182 11.808L41.6321 9.60293C41.4728 9.37834 41.2858 9.2082 41.0088 9.13333C40.7594 9.06528 40.427 9.0993 40.2053 9.23542C39.9837 9.37153 39.7898 9.58251 39.7275 9.84794C39.6651 10.1134 39.672 10.4128 39.8313 10.6374Z" fill="#02C451"/>
<path d="M16.8995 43.5227C18.2362 43.5227 18.2362 41.481 16.8995 41.481C15.5628 41.481 15.5628 43.5227 16.8995 43.5227Z" fill="#02C451"/>
<path d="M17.419 43.5227C18.7558 43.5227 18.7558 41.481 17.419 41.481C16.0823 41.481 16.0823 43.5227 17.419 43.5227Z" fill="#02C451"/>
<path d="M15.7912 44.2101C19.6698 45.0812 23.6453 45.4896 27.6278 45.4283V43.3866C23.7562 43.7813 19.8776 43.441 16.1445 42.3589C14.8562 41.9846 14.3091 43.9583 15.5904 44.3258C19.4828 45.4555 23.5899 45.8435 27.6278 45.4283C28.1888 45.3739 28.6667 44.9995 28.6667 44.4074C28.6667 43.863 28.1888 43.3798 27.6278 43.3866C23.8254 43.4478 20.0507 43.0735 16.3453 42.2432C15.0432 41.9506 14.4891 43.9174 15.7912 44.2101Z" fill="#02C451"/>
<path d="M15.7223 44.4279C19.5178 46.1361 23.8119 46.4832 27.8221 45.3263C29.1034 44.9588 28.5562 42.9851 27.268 43.3594C23.8188 44.353 20.0441 44.1421 16.7681 42.6652C16.2556 42.4338 15.653 42.5223 15.3483 43.0327C15.0851 43.4751 15.2098 44.1965 15.7223 44.4279Z" fill="#02C451"/>
</g>
<defs>
<clipPath id="clip0_25_755">
<rect width="47" height="46" fill="white"/>
</clipPath>
</defs>
</svg>
