<svg width="224" height="215" viewBox="0 0 224 215" fill="none" xmlns="http://www.w3.org/2000/svg">
<g filter="url(#filter0_f_71_18)">
<rect width="158" height="149" rx="34" transform="matrix(-1 -3.8998e-09 -3.8998e-09 1 191 33)" fill="white"/>
</g>
<g clip-path="url(#clip0_71_18)">
<path d="M177.611 63.3963C169.06 60.9846 161.165 66.612 159.455 71.472C157.854 76.0396 166.659 84.1153 162.948 91.2409C160.401 96.1374 156.435 100.815 154.325 106.954C152.214 113.093 155.635 118.391 146.684 122.484C139.444 125.773 133.295 122.155 124.635 118.355C126.491 124.896 119.651 124.274 117.358 129.207C113.829 136.808 121.834 148.026 114.484 154.092C114.084 154.421 102.259 156.394 101.859 156.723C100.876 157.527 101.568 166.991 93.0902 168.672C88.0328 169.659 76.499 161.693 75.5166 169.988C67.9851 165.895 62.673 152.704 53.2131 147.588C42.6253 133.702 35.3849 119.524 30 105.09C29.6362 101.472 33.0199 101.728 33.0563 101.509L44.1171 94.0911L65.9112 87.7694L88.7969 52.1415C96.292 53.0185 98.2931 48.9624 103.132 47.9027C111.683 46.0391 125.217 46.5873 134.823 44.7967C136.97 44.3948 143.519 43.9928 138.971 40.7406C139.189 40.7406 139.262 38.5116 141.627 38.5116C153.815 38.6212 170.952 47.1719 176.774 56.4534C179.466 60.7288 177.138 62.1174 177.574 63.3963H177.611ZM148.831 68.5852C156.217 67.8909 163.967 65.9542 157.89 58.5363C144.574 54.3706 133.986 53.8955 131.876 64.0175C140.462 67.8178 141.554 69.2795 148.831 68.5852ZM120.233 73.9202C108.008 67.8178 93.163 69.8276 88.6513 77.1359C101.604 84.1884 118.523 84.4442 120.233 73.9202ZM129.22 89.2311L132.749 95.5893C135.769 96.8317 144.901 95.5528 145.083 93.2872L138.57 88.2445L129.256 89.2311H129.22ZM99.7485 111.266C90.0339 101.582 55.4326 106.917 71.4052 115.87C82.3932 122.045 95.819 117.697 99.7485 111.266Z" fill="#6D6C71"/>
<path d="M177.611 63.3963C180.558 71.4719 191.328 91.7524 190.964 97.7818C190.527 105.054 185.324 125.334 182.377 131.765C180.34 136.223 175.61 137.758 173.39 141.266C167.86 149.999 167.824 158.66 155.817 164.433C153.197 165.676 145.52 165.201 143.592 166.114C137.37 169.001 133.404 176.09 124.162 178.319C123.18 178.538 120.015 176.675 118.705 176.967C117.395 177.259 117.431 179.671 116.267 179.963C115.358 180.183 96.6197 178.575 95.5282 178.283C91.7806 177.332 79.1917 171.997 75.4805 169.988C76.4628 161.656 87.9966 169.659 93.054 168.672C101.532 166.991 100.84 157.527 101.823 156.723C102.259 156.394 114.048 154.421 114.448 154.092C121.761 148.063 113.793 136.808 117.322 129.207C119.614 124.274 126.455 124.896 124.599 118.355C133.259 122.155 139.407 125.773 146.648 122.484C155.635 118.391 152.106 113.312 154.289 106.954C156.472 100.595 160.365 96.1374 162.912 91.2409C166.623 84.1153 157.818 76.0396 159.419 71.4719C161.129 66.6119 169.024 60.9846 177.574 63.3963H177.611Z" fill="#48474B"/>
<path d="M139.007 40.7407C143.555 43.9928 136.97 44.3948 134.859 44.7968C125.254 46.5873 111.719 46.0392 103.169 47.9028C98.2932 48.9625 96.2921 53.0186 88.8333 52.1416L65.9477 87.7695L44.1536 94.0911L33.0928 101.509C35.7852 88.683 39.0962 87.8426 45.2087 77.684C48.9563 71.4355 47.6828 63.1406 57.9796 58.244C62.3457 56.1611 67.7669 57.842 71.8055 56.015C76.4263 53.8956 78.1 48.8894 81.9931 46.2219C102.441 32.3361 111.901 40.1195 138.971 40.7772L139.007 40.7407Z" fill="#929194"/>
<path d="M99.7486 111.266C95.8191 117.697 82.3933 122.045 71.4053 115.87C55.4327 106.917 90.034 101.546 99.7486 111.266Z" fill="#3E3D43"/>
<path d="M148.831 68.5852C141.59 69.2794 140.462 67.8178 131.875 64.0175C133.949 53.8955 144.537 54.3705 157.89 58.5363C164.003 65.9542 156.217 67.8543 148.831 68.5852Z" fill="#3E3D43"/>
<path d="M120.233 73.9202C118.486 84.4076 101.568 84.1518 88.6514 77.1359C93.163 69.8641 108.008 67.8178 120.233 73.9202Z" fill="#3E3D43"/>
<path d="M129.219 89.2311L138.534 88.2444L145.047 93.2872C144.865 95.5527 135.732 96.8317 132.712 95.5893L129.183 89.2311H129.219Z" fill="#48484D"/>
<path d="M115.777 128.187C86.7328 123.635 58.7346 116.671 38.4494 106.46C35.7259 105.089 31.1067 107.089 33.8303 108.459C54.8344 119.036 83.9657 126.197 114.034 130.909C117.999 131.528 119.699 128.807 115.777 128.197V128.187Z" fill="#840000"/>
<path d="M123.156 129.936C147.216 126.354 170.509 120.909 187.334 112.866C189.513 111.824 185.834 110.305 183.638 111.354C167.406 119.11 145.002 124.405 121.779 127.866C118.641 128.337 120 130.407 123.174 129.929L123.156 129.936Z" fill="#840000"/>
<path d="M106 111C106.559 111.925 107.213 114.051 108.639 113.708C109.828 113.423 110.87 111.88 111.694 111.056C112.101 110.649 113.945 108.108 114.625 109.014C116.228 111.151 117.325 113.07 119.639 110.306C120.329 109.482 120.952 108.462 121.806 109.611C122.682 110.791 122.827 111.922 124.5 111.736C125.494 111.626 126.37 110.662 127.389 111.125C128.193 111.491 128.299 112.033 129 112.5" stroke="black" stroke-width="3" stroke-linecap="round"/>
<path d="M78.6828 84.1937C84.958 80.6296 93.3495 85.0698 99.5766 86.7681C102.15 87.47 103.872 89.306 106.135 90.6561C107.078 91.2186 108.6 93.7361 109.608 93.5895" stroke="black" stroke-width="3" stroke-linecap="round"/>
<path d="M99.7477 88.3292C98.0993 90.3978 96.1544 93.4949 97.5543 96.2133C98.755 98.5448 101.308 98.7127 103.61 98.3779C104.904 98.1897 106.821 97.4214 107.442 96.1152C107.634 95.711 107.949 95.2216 108.214 94.8659C108.452 94.5469 108.38 94.0973 108.494 93.7515" stroke="black" stroke-width="3" stroke-linecap="round"/>
<path d="M152.285 82.796C145.991 79.2642 137.623 83.7476 131.404 85.4779C128.834 86.1929 127.122 88.0378 124.866 89.3995C123.926 89.9669 122.417 92.4922 121.409 92.3508" stroke="black" stroke-width="3" stroke-linecap="round"/>
<path d="M131.241 87.0398C132.9 89.0999 134.861 92.187 133.475 94.9125C132.287 97.2502 129.734 97.4312 127.431 97.1083C126.136 96.9267 124.215 96.1683 123.588 94.8653C123.393 94.4621 123.076 93.9743 122.808 93.62C122.569 93.3022 122.639 92.8523 122.523 92.507" stroke="black" stroke-width="3" stroke-linecap="round"/>
<path d="M129.75 88.75C129.75 90.2082 129.5 91.5634 129.5 93C129.5 93.6706 129.592 95.0958 130.25 95.4444C131.07 95.8782 132.5 95.5126 132.5 94.5C132.5 93.3271 131.977 92.8168 131.695 91.75C131.603 91.404 131.311 90.1111 130.806 90.1111C130.693 90.1111 130.75 92.0571 130.75 92.1944C130.75 93.2989 131.309 95.3417 129.75 95.25C128.629 95.1841 129 90.7144 129 90" stroke="black" stroke-width="3" stroke-linecap="round"/>
<path d="M124.75 90.75C124.75 92.1172 125 93.5489 125 95" stroke="black" stroke-width="3" stroke-linecap="round"/>
<path d="M106 91.5C106 93.167 105.25 98.1114 105.25 96.4444C105.25 95.7046 105.031 94.5391 105.389 93.875C105.806 93.1001 106 92.471 106 93.75" stroke="black" stroke-width="3" stroke-linecap="round"/>
<path d="M102.25 89C102.25 90.0903 101.679 91.0507 101.514 92.125C101.26 93.7734 100.994 95.2687 100.5 96.875C100.201 97.8467 100.25 97.4816 100.25 96.7083C100.25 95.3056 100.25 93.9028 100.25 92.5C100.25 91.934 100.558 89.8261 99.75 91.1528C99.0993 92.2218 98.7121 93.5947 98.25 94.75" stroke="black" stroke-width="3" stroke-linecap="round"/>
</g>
<path d="M112.46 128.87L108.53 199.14L117.85 206.4L126.01 199.44L120.4 128.87L112.46 128.87Z" fill="#840000"/>
<path d="M110.24 126.93L122.33 126.93L120.13 131.87L112.92 131.67L110.24 126.93Z" fill="#840000"/>
<path d="M147.273 39.6549H84.4916C82.011 39.6549 80 41.9532 80 44.7884C80 47.6235 82.011 49.9218 84.4916 49.9218H147.273C149.754 49.9218 151.765 47.6235 151.765 44.7884C151.765 41.9532 149.754 39.6549 147.273 39.6549Z" fill="#840000" stroke="#840000" stroke-miterlimit="10"/>
<path d="M132.723 5H98.4114C94.4487 5 91.2363 8.67145 91.2363 13.2004V36.5879C91.2363 41.1169 94.4487 44.7884 98.4114 44.7884H132.723C136.685 44.7884 139.898 41.1169 139.898 36.5879V13.2004C139.898 8.67145 136.685 5 132.723 5Z" fill="#840000" stroke="#840000" stroke-miterlimit="10"/>
<defs>
<filter id="filter0_f_71_18" x="0.799999" y="0.799999" width="222.4" height="213.4" filterUnits="userSpaceOnUse" color-interpolation-filters="sRGB">
<feFlood flood-opacity="0" result="BackgroundImageFix"/>
<feBlend mode="normal" in="SourceGraphic" in2="BackgroundImageFix" result="shape"/>
<feGaussianBlur stdDeviation="16.1" result="effect1_foregroundBlur_71_18"/>
</filter>
<clipPath id="clip0_71_18">
<rect width="161" height="142" fill="white" transform="translate(30 38)"/>
</clipPath>
</defs>
</svg>
