<svg width="161" height="154" viewBox="0 0 161 154" fill="none" xmlns="http://www.w3.org/2000/svg">
<g filter="url(#filter0_f_71_16)">
<rect width="95" height="88" rx="34" transform="matrix(-1 -3.8998e-09 -3.8998e-09 1 128 33)" fill="white"/>
</g>
<g clip-path="url(#clip0_71_16)">
<path d="M117.349 51.3078C112.463 49.949 107.951 53.1194 106.974 55.8574C106.059 58.4308 111.091 62.9804 108.97 66.9948C107.515 69.7535 105.249 72.3886 104.043 75.8471C102.837 79.3057 104.791 82.2908 99.6766 84.5965C95.5392 86.4493 92.0256 84.4112 87.0773 82.2702C88.1376 85.9552 84.2289 85.6052 82.9191 88.3845C80.9024 92.6665 85.4764 98.9866 81.2766 102.404C81.0479 102.589 74.2909 103.701 74.0622 103.886C73.5008 104.339 73.8958 109.671 69.0515 110.618C66.1616 111.174 59.5709 106.686 59.0095 111.359C54.7058 109.054 51.6703 101.622 46.2646 98.7396C40.2145 90.9166 36.0771 82.929 33 74.7972C32.7921 72.7591 34.7257 72.9032 34.7465 72.7797L41.0669 68.6006L53.5207 65.0391L66.5982 44.9671C70.8811 45.4611 72.0246 43.176 74.7898 42.579C79.6757 41.5291 87.41 41.8379 92.8988 40.8291C94.1254 40.6027 97.8678 40.3762 95.2689 38.544C95.3937 38.544 95.4353 37.2882 96.7867 37.2882C103.752 37.35 113.544 42.1673 116.871 47.3963C118.409 49.8049 117.079 50.5872 117.328 51.3078H117.349ZM100.903 54.2311C105.124 53.8399 109.552 52.7488 106.08 48.5697C98.4708 46.2228 92.4206 45.9552 91.2147 51.6577C96.1214 53.7988 96.7451 54.6222 100.903 54.2311ZM84.5616 57.2367C77.5758 53.7988 69.0931 54.931 66.515 59.0484C73.9166 63.0216 83.5844 63.1657 84.5616 57.2367ZM89.697 65.8626L91.7137 69.4447C93.4393 70.1446 98.6579 69.4241 98.7618 68.1477L95.0402 65.3067L89.7178 65.8626H89.697ZM72.8563 78.2764C67.3051 72.8209 47.5329 75.8266 56.6601 80.8703C62.939 84.3495 70.6109 81.8996 72.8563 78.2764Z" fill="#6D6C71"/>
<path d="M117.349 51.3078C119.033 55.8574 125.187 67.2831 124.979 70.6799C124.73 74.7766 121.757 86.2023 120.073 89.8255C118.908 92.3371 116.205 93.2017 114.937 95.1781C111.777 100.098 111.756 104.977 104.895 108.23C103.398 108.93 99.0114 108.662 97.9094 109.177C94.3542 110.803 92.088 114.797 86.8071 116.053C86.2457 116.177 84.4369 115.127 83.6884 115.291C82.94 115.456 82.9607 116.815 82.2954 116.979C81.7757 117.103 71.0683 116.197 70.4446 116.032C68.3031 115.497 61.1094 112.491 58.9888 111.359C59.5501 106.665 66.1409 111.174 69.0308 110.618C73.8751 109.671 73.4801 104.339 74.0414 103.886C74.2909 103.701 81.0272 102.589 81.2559 102.404C85.4349 99.0072 80.8816 92.6665 82.8984 88.3844C84.2082 85.6052 88.1169 85.9552 87.0566 82.2702C92.0048 84.4112 95.5185 86.4493 99.6559 84.5965C104.791 82.2908 102.775 79.4292 104.022 75.8471C105.269 72.265 107.494 69.7535 108.949 66.9948C111.07 62.9804 106.039 58.4308 106.954 55.8574C107.931 53.1194 112.442 49.949 117.328 51.3078H117.349Z" fill="#48474B"/>
<path d="M95.2896 38.544C97.8884 40.3762 94.1253 40.6027 92.9194 40.8292C87.4306 41.8379 79.6964 41.5291 74.8105 42.579C72.0245 43.176 70.881 45.4612 66.6188 44.9671L53.5413 65.0391L41.0875 68.6006L34.7671 72.7797C36.3056 65.5538 38.1976 65.0803 41.6905 59.3572C43.8319 55.8369 43.1043 51.1637 48.9881 48.4051C51.483 47.2316 54.5809 48.1786 56.8887 47.1493C59.5291 45.9552 60.4855 43.1349 62.7101 41.632C74.3947 33.8091 79.8003 38.194 95.2688 38.5646L95.2896 38.544Z" fill="#929194"/>
<path d="M72.8564 78.2764C70.611 81.8996 62.9391 84.3495 56.6602 80.8703C47.533 75.8265 67.3052 72.8003 72.8564 78.2764Z" fill="#3E3D43"/>
<path d="M100.903 54.2311C96.766 54.6222 96.1215 53.7988 91.2148 51.6578C92.3999 45.9552 98.4501 46.2229 106.08 48.5698C109.573 52.7489 105.124 53.8194 100.903 54.2311Z" fill="#3E3D43"/>
<path d="M84.5617 57.2367C83.5637 63.1451 73.8959 63.001 66.5151 59.0484C69.0932 54.9516 77.5759 53.7988 84.5617 57.2367Z" fill="#3E3D43"/>
<path d="M89.6971 65.8626L95.0195 65.3067L98.7411 68.1477C98.6372 69.4241 93.4186 70.1446 91.693 69.4447L89.6763 65.8626H89.6971Z" fill="#48484D"/>
<g clip-path="url(#clip1_71_16)">
<path d="M67.372 79.8431C66.1588 81.8669 69.2476 86.6444 72.3892 89.2088C77.8434 93.6624 86.2034 93.6858 91.2593 89.2771C94.5451 86.4102 96.8008 81.3478 95.549 79.6733C94.5756 78.3696 91.9827 79.7904 87.9246 80.6081C76.3396 82.9422 69.0078 77.1128 67.372 79.8431Z" fill="#29ABE2" stroke="#29ABE2" stroke-miterlimit="10"/>
<path d="M81.8199 89.9934C83.8333 89.9934 85.4655 88.4258 85.4655 86.4922C85.4655 84.5586 83.8333 82.991 81.8199 82.991C79.8065 82.991 78.1743 84.5586 78.1743 86.4922C78.1743 88.4258 79.8065 89.9934 81.8199 89.9934Z" fill="#66D5FF" stroke="#66D5FF" stroke-miterlimit="10"/>
<path d="M81.8385 85.7486C77.5345 85.7486 74.0454 89.8119 74.0454 94.8255C74.0454 99.8392 77.5345 103.902 81.8385 103.902C86.1425 103.902 89.6316 99.8392 89.6316 94.8255C89.6316 89.8119 86.1425 85.7486 81.8385 85.7486ZM81.8385 101.738C78.3534 101.738 75.5268 98.3247 75.5268 94.1151C75.5268 89.9055 78.3534 86.4922 81.8385 86.4922C85.3235 86.4922 88.1502 89.9055 88.1502 94.1151C88.1502 98.3247 85.3235 101.738 81.8385 101.738Z" fill="#66D5FF" stroke="#66D5FF" stroke-miterlimit="10"/>
</g>
<g clip-path="url(#clip2_71_16)">
<path d="M86.2054 66.8815C86.6614 65.2509 87.4734 63.9861 89.0972 63.1707C90.8768 62.2718 93.0345 61.9896 95.0366 62.1777C96.5047 62.3136 97.9951 62.8362 98.9294 63.7666C98.9516 63.7979 99.2186 64.0906 99.1296 63.9756C99.074 63.9024 99.2964 64.2056 99.3298 64.2683C99.3965 64.3728 99.4633 64.4878 99.5189 64.6028C99.3854 64.331 99.5522 64.6969 99.5745 64.77C99.619 64.9059 99.6523 65.0418 99.6857 65.1777C99.619 64.8328 99.6857 65.2404 99.6857 65.3136C99.6857 65.4495 99.6857 65.5854 99.6635 65.7213C99.6968 65.439 99.6523 65.7213 99.619 65.8362C99.0851 67.7909 102.299 68.6272 102.833 66.6725C103.312 64.9164 102.744 63.1707 101.51 61.8119C100.03 60.1707 97.7615 59.3868 95.5482 59.1254C92.7898 58.7909 89.8647 59.2509 87.4066 60.4948C84.9486 61.7387 83.6584 63.6934 82.9799 66.0767C82.4349 68.0314 85.6493 68.8676 86.1943 66.9129L86.2054 66.8815Z" fill="black"/>
<path d="M62.2812 66.8815C62.7372 65.2509 63.5492 63.9861 65.173 63.1707C66.9526 62.2718 69.1103 61.9896 71.1123 62.1777C72.5805 62.3136 74.0709 62.8362 75.0052 63.7666C75.0274 63.7979 75.2943 64.0906 75.2054 63.9756C75.1498 63.9024 75.3722 64.2056 75.4056 64.2683C75.4723 64.3728 75.539 64.4878 75.5947 64.6028C75.4612 64.331 75.628 64.6969 75.6503 64.77C75.6948 64.9059 75.7281 65.0418 75.7615 65.1777C75.6948 64.8328 75.7615 65.2404 75.7615 65.3136C75.7615 65.4495 75.7615 65.5854 75.7392 65.7213C75.7726 65.439 75.7281 65.7213 75.6948 65.8362C75.1609 67.7909 78.3752 68.6272 78.9091 66.6725C79.3874 64.9164 78.8201 63.1707 77.5856 61.8119C76.1174 60.1603 73.8373 59.3659 71.6351 59.1045C68.8768 58.77 65.9516 59.23 63.4935 60.4739C61.0355 61.7178 59.7342 63.662 59.0668 66.0558C58.5219 68.0105 61.7362 68.8467 62.2812 66.892V66.8815Z" fill="black"/>
</g>
</g>
<defs>
<filter id="filter0_f_71_16" x="0.799999" y="0.799999" width="159.4" height="152.4" filterUnits="userSpaceOnUse" color-interpolation-filters="sRGB">
<feFlood flood-opacity="0" result="BackgroundImageFix"/>
<feBlend mode="normal" in="SourceGraphic" in2="BackgroundImageFix" result="shape"/>
<feGaussianBlur stdDeviation="16.1" result="effect1_foregroundBlur_71_16"/>
</filter>
<clipPath id="clip0_71_16">
<rect width="92" height="80" fill="white" transform="translate(33 37)"/>
</clipPath>
<clipPath id="clip1_71_16">
<rect width="29" height="25" fill="white" transform="translate(67 79)"/>
</clipPath>
<clipPath id="clip2_71_16">
<rect width="44" height="9" fill="white" transform="translate(59 59)"/>
</clipPath>
</defs>
</svg>
