<svg width="128" height="128" viewBox="0 0 128 128" fill="none" xmlns="http://www.w3.org/2000/svg">
<g clip-path="url(#clip0_46_3)">
<path d="M107.52 38.4212C101.465 36.6719 95.8749 40.7537 94.6641 44.2789C93.5305 47.5921 99.7651 53.4498 97.1373 58.6184C95.3339 62.1701 92.5258 65.5628 91.0315 70.0157C89.5373 74.4686 91.959 78.3119 85.6214 81.2805C80.4946 83.666 76.1407 81.0419 70.0091 78.2854C71.3231 83.0298 66.4797 82.5792 64.8566 86.1575C62.3576 91.6706 68.0254 99.8078 62.8214 104.208C62.538 104.446 54.1651 105.878 53.8817 106.116C53.1861 106.699 53.6756 113.564 47.6729 114.783C44.0919 115.499 35.9251 109.721 35.2295 115.738C29.8966 112.769 26.1353 103.2 19.4369 99.4897C11.94 89.4176 6.81322 79.1335 3.00033 68.6639C2.74271 66.0399 5.13864 66.2254 5.1644 66.0664L12.9963 60.6858L28.4281 56.1003L44.6329 30.2576C49.94 30.8937 51.3569 27.9516 54.7834 27.183C60.8376 25.8312 70.4213 26.2288 77.2227 24.93C78.7427 24.6384 83.38 24.3469 80.1597 21.9879C80.3142 21.9879 80.3658 20.3711 82.0403 20.3711C90.6708 20.4506 102.805 26.6528 106.927 33.3852C108.834 36.4863 107.185 37.4936 107.494 38.4212H107.52ZM87.1414 42.185C92.3712 41.6814 97.8587 40.2766 93.5563 34.896C84.1271 31.8744 76.6302 31.5298 75.1359 38.8718C81.2159 41.6284 81.9888 42.6886 87.1414 42.185ZM66.8919 46.0548C58.2356 41.6284 47.7244 43.0862 44.5298 48.3873C53.7014 53.5028 65.681 53.6884 66.8919 46.0548ZM73.2552 57.1606L75.7542 61.7725C77.8925 62.6737 84.359 61.746 84.4878 60.1027L79.8763 56.4449L73.281 57.1606H73.2552ZM52.3875 73.1433C45.5088 66.1194 21.0085 69.9892 32.3183 76.483C40.0986 80.9624 49.6051 77.8083 52.3875 73.1433Z" fill="#6D6C71"/>
<path d="M107.52 38.4213C109.606 44.279 117.232 58.9895 116.974 63.3628C116.665 68.6374 112.981 83.3479 110.894 88.0129C109.452 91.2465 106.103 92.3598 104.531 94.9043C100.615 101.239 100.589 107.521 92.0877 111.709C90.2328 112.61 84.7968 112.265 83.4314 112.928C79.026 115.022 76.2178 120.164 69.6741 121.781C68.9785 121.94 66.7372 120.588 65.8097 120.8C64.8823 121.012 64.908 122.761 64.0836 122.973C63.4395 123.133 50.1717 121.966 49.3989 121.754C46.7453 121.065 37.8314 117.195 35.2036 115.738C35.8992 109.694 44.066 115.499 47.647 114.783C53.6497 113.564 53.1602 106.699 53.8558 106.116C54.165 105.878 62.5121 104.446 62.7955 104.208C67.9738 99.8343 62.3317 91.6706 64.8307 86.1575C66.4538 82.5793 71.2972 83.0299 69.9833 78.2854C76.1148 81.0419 80.4687 83.666 85.5955 81.2805C91.9589 78.3119 89.4599 74.6276 91.0056 70.0157C92.5514 65.4038 95.308 62.1701 97.1114 58.6184C99.7392 53.4498 93.5046 47.5921 94.6382 44.279C95.849 40.7537 101.44 36.6719 107.494 38.4213H107.52Z" fill="#48474B"/>
<path d="M80.1852 21.9879C83.4055 24.3469 78.7425 24.6385 77.2482 24.93C70.4469 26.2288 60.8632 25.8312 54.8089 27.183C51.3567 27.9517 49.9398 30.8938 44.6584 30.2576L28.4537 56.1004L13.0218 60.6858L5.18994 66.0664C7.09638 56.763 9.44079 56.1534 13.7689 48.7849C16.4225 44.2525 15.5208 38.2358 22.8116 34.684C25.9032 33.1732 29.7418 34.3925 32.6015 33.0672C35.8733 31.5299 37.0584 27.8987 39.815 25.9638C54.2937 15.8917 60.992 21.5374 80.1594 22.0145L80.1852 21.9879Z" fill="#929194"/>
<path d="M52.3874 73.1433C49.605 77.8083 40.0985 80.9624 32.3182 76.483C21.0084 69.9892 45.5087 66.0929 52.3874 73.1433Z" fill="#3E3D43"/>
<path d="M87.1412 42.185C82.0144 42.6886 81.2157 41.6284 75.1357 38.8718C76.6042 31.5298 84.1012 31.8744 93.5561 34.896C97.8842 40.2766 92.371 41.6549 87.1412 42.185Z" fill="#3E3D43"/>
<path d="M66.8913 46.0548C65.6547 53.6619 53.6751 53.4763 44.5293 48.3873C47.7239 43.1127 58.2351 41.6284 66.8913 46.0548Z" fill="#3E3D43"/>
<path d="M73.2548 57.1606L79.85 56.4449L84.4615 60.1027C84.3327 61.746 77.8663 62.6737 75.728 61.7725L73.229 57.1606H73.2548Z" fill="#48484D"/>
<path d="M75.5 52C79.7089 52 83.7776 50.5 88 50.5" stroke="black" stroke-width="3" stroke-linecap="round"/>
<path d="M46.5 52.5C46.5592 52.0266 64.6213 50.7427 65.5 52.5" stroke="black" stroke-width="3" stroke-linecap="round"/>
<path d="M47 53.5C47 53.2316 47.7402 54.6654 48 55.25C48.4941 56.3617 49.8347 57 51 57C52.0904 57 53.7684 57.179 54.3889 56C54.9166 54.9973 54.4602 53.0199 55.5 52.5" stroke="black" stroke-width="3" stroke-linecap="round"/>
<path d="M74.5 53.5C74.5129 53.4228 75.7597 55.6078 76.25 56C77.2232 56.7785 76.8422 57 78.5 57C80.944 57 82 54.5453 82 52.5" stroke="black" stroke-width="3" stroke-linecap="round"/>
<path d="M58 88C58.9963 87.8893 60.2874 87.2276 61.2222 86.8889C64.6332 85.653 68.2252 84.6394 71.75 83.7778C74.4201 83.1251 77.0622 82.5789 79.6944 81.7778C80.5551 81.5159 81.127 81 82 81" stroke="black" stroke-width="3" stroke-linecap="round"/>
</g>
<path d="M9.77588 60.3303C9.77588 50.9581 9.80728 42.2281 13.4425 33.3581C16.9929 24.6952 23.8211 18.6114 30.7759 12.7192C37.531 6.99612 46.1942 4.3717 54.8037 3.08029C66.7582 1.2871 77.3353 1.3663 88.5259 6.10806C107.504 14.1497 116.709 33.5637 117.748 53.3025C117.925 56.6614 118.632 61.9252 116.776 64.9414C115.318 67.3109 115.776 64.9771 115.776 63.3303" stroke="#500000" stroke-width="3" stroke-linecap="round"/>
<ellipse cx="10" cy="66" rx="10" ry="13" fill="#500000"/>
<ellipse cx="118" cy="66" rx="10" ry="13" fill="#500000"/>
<path d="M9 78C14.3344 82.8298 18.3272 88.509 24 93C30.1074 97.835 37.3905 100.06 44.9444 101.722C47.5058 102.286 53.225 103.894 54.7222 100.472C55.5814 98.5083 56 96.9132 56 94.75C56 91.7595 47.983 92.0496 51.0556 96C53.9765 99.7554 59.0646 101.083 63.4722 102.25C67.6851 103.365 70.7987 104.244 75.2778 103.972C77.554 103.834 79.8463 103.239 81.7778 102C82.8772 101.295 85.3726 100.331 85.8889 99.1111C86.8169 96.9176 84.9093 95.4344 83 94.8889C80.8357 94.2705 79.49 94.2267 78 96.1111C75.1524 99.7125 75.929 102.19 80.1111 103.889C88.9991 107.5 98.0383 104.671 107.111 106.111C110.089 106.584 112.87 108.448 115 110.5C115.819 111.289 117.929 112.722 118 114C118.228 118.109 119.993 121.942 120.5 126" stroke="#500000" stroke-width="3" stroke-linecap="round"/>
<defs>
<clipPath id="clip0_46_3">
<rect width="114" height="103" fill="white" transform="translate(3 20)"/>
</clipPath>
</defs>
</svg>
