<svg width="147" height="129" viewBox="0 0 147 129" fill="none" xmlns="http://www.w3.org/2000/svg">
<g clip-path="url(#clip0_14_3823)">
<path d="M63.5471 24.2834C64.5236 18.5338 58.558 12.2649 57.8436 11.5149C50.7083 4.01474 41.0989 6.75585 40.975 8.80201C40.9168 9.77088 43.0341 9.80347 45.8871 12.9592C51.5228 19.1894 50.7001 27.2844 54.6143 29.7261C57.8763 31.7597 62.7754 28.8354 63.5473 24.2865L63.5471 24.2834Z" fill="#FF4545"/>
<path d="M66.3441 66.9432C68.063 72.516 62.9671 79.5103 62.3568 80.3471C56.2618 88.7147 46.3768 87.2518 45.9867 85.2394C45.8026 84.2864 47.8975 83.9776 50.314 80.4764C55.0879 73.5636 53.2153 65.6454 56.7771 62.7135C59.7457 60.2713 64.9846 62.5309 66.3439 66.94L66.3441 66.9432Z" fill="#FF4545"/>
<path d="M43.8419 31.1436C43.8419 31.1436 61.2529 14.3485 85.0457 17.0201C102.05 18.9272 129.009 30.7655 128.385 42.6601C127.868 52.4841 107.384 63.5888 92.7977 68.0086C68.8872 75.2556 45.7689 62.9972 45.7689 62.9972L43.8419 31.1436Z" fill="#E5E5E5"/>
<path d="M43.4411 33.1317C43.4411 33.1317 34.8973 26.7778 33.4026 26.1933C23.1456 22.193 13.6327 31.3022 13.6327 31.3022C13.6327 31.3022 16.8137 30.2111 22.0423 31.0968C26.7573 31.8955 31.6168 38.5767 31.4788 39.8333C31.3661 40.8661 27.9605 39.1085 24.409 39.6048C14.1741 41.0315 4.12576 52.0233 4.12576 52.0233C4.12576 52.0233 14.0291 57.5738 19.4989 58.1707C28.1266 59.116 32.9269 56.8299 33.6421 58.7766C34.2292 60.3698 31.9691 64.7845 28.7243 66.6956C23.1156 69.9966 16.8581 71.372 16.8581 71.372C16.8581 71.372 20.0665 72.9711 22.9326 72.999C32.9649 73.0904 45.6302 63.511 45.6302 63.511L43.4415 33.138L43.4411 33.1317Z" fill="#FF4545" stroke="#FF4545" stroke-width="6" stroke-miterlimit="10"/>
<path d="M44.18 33.5499C44.18 33.5499 36.8854 27.3332 35.6137 26.7563C26.8833 22.805 18.8906 31.5447 18.8906 31.5447C18.8906 31.5447 21.5804 30.5144 26.0187 31.4139C30.0232 32.2243 34.1953 38.7283 34.0904 39.9446C34.0028 40.944 31.1028 39.2168 28.0939 39.668C19.4265 40.9664 10.9929 51.5255 10.9929 51.5255C10.9929 51.5255 19.4354 56.9749 24.078 57.5974C31.4009 58.5807 35.4531 56.4072 36.0764 58.2964C36.5871 59.8438 34.7046 64.0973 31.9682 65.9211C27.2371 69.0693 21.943 70.3529 21.943 70.3529C21.943 70.3529 24.6755 71.9261 27.1066 71.9762C35.614 72.1421 46.279 62.9701 46.279 62.9701L44.1825 33.5561L44.18 33.5499Z" fill="#FF8400"/>
<path d="M44.2551 35.0465C44.2551 35.0465 38.9386 29.3318 38.0179 28.7954C31.6972 25.1115 24.3235 32.5694 24.3235 32.5694C24.3235 32.5694 27.9808 32.0217 31.181 32.888C34.0673 33.6701 37.1447 39.6079 37.0843 40.7038C37.0345 41.6087 34.9276 40.0072 32.7718 40.3803C26.5613 41.4478 20.6317 50.8966 20.6317 50.8966C20.6317 50.8966 26.7638 55.9293 30.1054 56.5514C35.3778 57.5295 38.2634 55.6134 38.7325 57.3286C39.1185 58.735 37.8186 62.5598 35.8744 64.1761C32.5153 66.9677 28.7259 68.0606 28.7259 68.0606C28.7259 68.0606 30.7079 69.5179 32.4565 69.5905C38.5692 69.8468 46.1188 61.6791 46.1188 61.6791L44.2528 35.0435L44.2551 35.0465Z" fill="#FFB517"/>
<path d="M91.2756 67.8385C99.4567 65.5562 109.569 61.3059 116.729 56.4747C114.582 56.7869 112.433 57.0738 110.28 57.3229C96.9645 58.8785 83.565 59.3412 70.1691 59.6355C62.0117 59.8148 53.8502 59.9309 45.6978 60.1861L45.9126 63.7814C45.9126 63.7814 68.1501 74.288 91.2735 67.8387L91.2756 67.8385Z" fill="#DDDDDD"/>
<path d="M49.8125 32.5965L44.0875 32.9719" stroke="#FF4545" stroke-width="6" stroke-miterlimit="10"/>
<path d="M50.189 38.3336L44.1798 38.7276" stroke="#FF4545" stroke-width="6" stroke-miterlimit="10"/>
<path d="M51.1689 45.3135L44.9236 45.723" stroke="#FF4545" stroke-width="6" stroke-miterlimit="10"/>
<path d="M51.5151 50.5922L45.2966 51.4095" stroke="#FF4545" stroke-width="6" stroke-miterlimit="10"/>
<path d="M51.9087 56.5948L45.6634 57.0043" stroke="#FF4545" stroke-width="6" stroke-miterlimit="10"/>
<path d="M52.2402 62.192L45.9949 62.6015" stroke="#FF4545" stroke-width="6" stroke-miterlimit="10"/>
<path d="M49.4297 26.7583L51.9806 65.6628" stroke="#FF4545" stroke-width="6" stroke-miterlimit="10"/>
<path d="M43.8418 31.1436L45.7709 62.9971" stroke="#FF4545" stroke-width="6" stroke-miterlimit="10"/>
<path d="M111.946 59.3025C120.794 54.3257 128.082 48.1623 128.408 42.503C128.782 35.9771 120.438 29.5466 110.127 24.9054C110.774 36.3706 111.288 47.8381 111.946 59.3025Z" fill="#FF4545"/>
<path d="M111.716 52.9496C111.813 54.8828 111.913 56.8191 112.021 58.7516C115.727 56.934 119.054 54.8715 121.231 52.7796C118.062 52.9874 114.886 53.0782 111.714 52.9497L111.716 52.9496Z" fill="#AA0004"/>
<path d="M67.9197 50.1018C67.7732 50.1093 67.644 50.0692 67.5319 49.9814C67.4332 49.893 67.3799 49.7823 67.3721 49.6492L67.022 43.7195C66.9764 42.9475 66.7554 42.3714 66.359 41.9912C65.9618 41.5977 65.3504 41.4221 64.5248 41.4643L60.0506 41.6934C59.9042 41.7009 59.7816 41.6604 59.6829 41.572C59.5841 41.4836 59.5305 41.3662 59.5218 41.2198L59.4263 39.6026C59.4177 39.4562 59.4572 39.334 59.5449 39.2361C59.6326 39.1381 59.7497 39.0854 59.8962 39.0779L64.4702 38.8438C66.2679 38.7517 67.6567 39.0878 68.6368 39.852C69.6294 40.6022 70.1763 41.8358 70.2777 43.5529L70.6266 49.4626C70.6353 49.609 70.5891 49.7315 70.4881 49.8301C70.4004 49.9281 70.2833 49.9808 70.1368 49.9883L67.9197 50.1018ZM60.5693 50.4781C60.4228 50.4856 60.3003 50.4451 60.2015 50.3567C60.1028 50.2683 60.0492 50.1509 60.0405 50.0045L59.6916 44.0948C59.6837 43.9617 59.7236 43.8462 59.8113 43.7482C59.8983 43.637 60.015 43.5776 60.1614 43.5701L62.3985 43.4556C62.545 43.4481 62.668 43.4952 62.7675 43.5969C62.8662 43.6853 62.9195 43.796 62.9273 43.9291L63.2763 49.8389C63.2849 49.9853 63.2454 50.1074 63.1577 50.2054C63.07 50.3033 62.9529 50.356 62.8064 50.3635L60.5693 50.4781ZM74.9488 41.0508L74.996 41.8494C75.025 42.115 75.085 42.3388 75.1759 42.5211C75.2668 42.7034 75.4 42.81 75.5754 42.8411L76.1465 43.0121C76.2554 43.0466 76.34 43.1223 76.4003 43.2394C76.4732 43.3425 76.5139 43.4672 76.5226 43.6136L76.5991 44.5709C76.6109 44.7706 76.5334 44.9281 76.3666 45.0434C76.1998 45.1588 75.9891 45.2096 75.7345 45.196L74.9085 45.1181C74.4644 45.0607 74.0539 44.8948 73.6771 44.6204C73.3002 44.346 72.9908 43.968 72.7486 43.4864C72.519 42.9909 72.3846 42.4103 72.3453 41.7448L72.1803 38.9497C72.1849 38.8026 72.2245 38.6804 72.2989 38.5832C72.3866 38.4852 72.5037 38.4325 72.6501 38.425L76.6449 38.2205C77.8433 38.1591 78.8346 38.322 79.6188 38.7091C80.4022 39.0828 81.003 39.6462 81.4215 40.3991C81.8391 41.1387 82.0986 42.0265 82.1998 43.0627C82.2249 43.2616 82.2434 43.461 82.2551 43.6606C82.2661 43.8469 82.2709 44.0403 82.2694 44.2406C82.2899 45.2675 82.1366 46.1765 81.8093 46.9676C81.482 47.7587 80.9515 48.3866 80.2176 48.8514C79.483 49.3029 78.5164 49.5593 77.318 49.6206L73.5629 49.8129C73.4165 49.8204 73.2939 49.7799 73.1952 49.6915C73.0964 49.6031 73.0428 49.4857 73.0341 49.3393L72.9316 47.6023C72.9229 47.4559 72.9624 47.3337 73.0502 47.2358C73.1379 47.1379 73.255 47.0851 73.4014 47.0776L77.0566 46.8905C77.7491 46.8551 78.3028 46.6198 78.7179 46.1847C79.1463 45.7489 79.358 45.1506 79.3532 44.3899C79.3547 44.1896 79.35 43.9962 79.339 43.8099C79.3272 43.6102 79.3087 43.4109 79.2836 43.212C79.2114 42.4413 78.9371 41.868 78.4608 41.4918C77.9837 41.1024 77.399 40.9254 76.7065 40.9608L74.9488 41.0508ZM90.0121 40.2797L84.1997 40.5772C84.0532 40.5847 83.9306 40.5443 83.8319 40.4559C83.7332 40.3675 83.6795 40.2501 83.6709 40.1037L83.5683 38.3667C83.5597 38.2203 83.5992 38.0981 83.6869 38.0002C83.7746 37.9022 83.8917 37.8495 84.0382 37.842L90.33 37.5199C91.2221 37.4742 92.0246 37.6067 92.7375 37.9173C93.4637 38.2273 94.0477 38.7314 94.4896 39.4297C94.9315 40.128 95.1855 41.0361 95.2515 42.1542L95.6075 48.1837C95.6162 48.3301 95.5766 48.4523 95.4889 48.5502C95.4012 48.6482 95.2841 48.7009 95.1377 48.7084L89.7247 48.9855C89.5916 48.9923 89.469 48.9519 89.357 48.8641C89.2582 48.7757 89.2046 48.6583 89.1959 48.5119L89.1004 46.8947C89.0918 46.7483 89.1313 46.6262 89.219 46.5282C89.3201 46.4296 89.4372 46.3769 89.5703 46.3701L92.2468 46.233L92.0252 42.4796C91.9961 41.9871 91.8915 41.5719 91.7112 41.234C91.531 40.8961 91.2893 40.6482 90.9861 40.4902C90.6963 40.3314 90.3716 40.2613 90.0121 40.2797ZM84.5515 49.2503C84.4184 49.2572 84.2958 49.2167 84.1837 49.129C84.0709 49.028 84.0239 48.9102 84.0427 48.7757L85.6341 39.7629C85.6529 39.6284 85.7062 39.5122 85.7939 39.4143C85.8816 39.3163 85.9924 39.2706 86.1263 39.2771L88.0051 39.2009C88.1515 39.1934 88.2816 39.2468 88.3952 39.3612C88.5088 39.4755 88.5499 39.6069 88.5186 39.7554L87.2185 48.6132C87.2131 48.7469 87.1602 48.8698 87.06 48.9817C86.9723 49.0797 86.8552 49.1324 86.7087 49.1399L84.5515 49.2503ZM100.387 48.68C100.256 48.7267 100.127 48.6933 100.001 48.5796C99.887 48.4653 99.8262 48.3415 99.8184 48.2084L99.7052 46.2918C99.6973 46.1587 99.7365 46.0298 99.8226 45.9053C99.9088 45.7807 100.023 45.6881 100.167 45.6273L100.791 45.3351C101.154 45.1562 101.482 44.9392 101.774 44.684C102.079 44.4147 102.312 44.069 102.474 43.6468C102.636 43.2247 102.697 42.6808 102.658 42.0153C102.624 41.443 102.531 40.9872 102.377 40.648C102.224 40.3087 101.982 40.0674 101.653 39.924C101.337 39.78 100.893 39.7226 100.321 39.752L99.8614 39.7755C99.7282 39.7823 99.6056 39.7418 99.4936 39.6541C99.3949 39.5657 99.3412 39.4483 99.3326 39.3019L99.2288 37.545C99.221 37.4119 99.2609 37.2963 99.3486 37.1984C99.4496 37.0998 99.5667 37.047 99.6999 37.0402L100.818 36.983C102.017 36.9216 102.98 37.0659 103.709 37.4157C104.45 37.7516 104.996 38.2911 105.347 39.034C105.711 39.7631 105.925 40.6733 105.989 41.7647C106.043 42.6698 105.944 43.4826 105.692 44.203C105.454 44.9228 105.105 45.5614 104.643 46.1191C104.181 46.6634 103.654 47.1243 103.062 47.5017C102.47 47.8791 101.84 48.1784 101.172 48.3995L100.387 48.68ZM100.56 39.7397L97.1849 39.9125C97.0517 39.9193 96.9291 39.8789 96.8171 39.7911C96.7184 39.7027 96.6647 39.5853 96.6561 39.4389L96.3896 34.9268C96.381 34.7804 96.4205 34.6582 96.5082 34.5602C96.6093 34.4616 96.7264 34.4089 96.8595 34.4021L98.8969 34.2978C99.0433 34.2903 99.1659 34.3307 99.2646 34.4191C99.3633 34.5075 99.417 34.6249 99.4257 34.7714L99.5601 37.0474L100.419 37.0034L100.56 39.7397Z" fill="black"/>
</g>
<defs>
<clipPath id="clip0_14_3823">
<rect width="174.826" height="146.968" fill="white" transform="translate(146.653) rotate(86.2486)"/>
</clipPath>
</defs>
</svg>
