<?xml version="1.0" encoding="UTF-8"?>
<svg id="Layer_1" data-name="Layer 1" xmlns="http://www.w3.org/2000/svg" xmlns:xlink="http://www.w3.org/1999/xlink" viewBox="0 0 1920 1080">
  <defs>
    <style>
      .cls-1 {
        fill: #fff;
      }

      .cls-2 {
        fill: url(#linear-gradient);
        stroke: url(#linear-gradient-2);
        stroke-miterlimit: 10;
      }
    </style>
    <linearGradient id="linear-gradient" x1="-26.94" y1="541.5" x2="1891.06" y2="541.5" gradientUnits="userSpaceOnUse">
      <stop offset="0" stop-color="#0d0055"/>
      <stop offset=".54" stop-color="#13003f"/>
      <stop offset="1" stop-color="#1a002a"/>
    </linearGradient>
    <linearGradient id="linear-gradient-2" x1="0" y1="541.5" x2="1919" y2="541.5" gradientUnits="userSpaceOnUse">
      <stop offset="0" stop-color="#0d0055"/>
      <stop offset="1" stop-color="#290055"/>
    </linearGradient>
  </defs>
  <rect class="cls-2" x=".5" y="2.5" width="1918" height="1078"/>
  <g>
    <g>
      <g>
        <path class="cls-1" d="M1134.91,348.86c1.93,0,1.93-3,0-3s-1.93,3,0,3h0Z"/>
        <path class="cls-1" d="M592.02,438.83c1.93,0,1.93-3,0-3s-1.93,3,0,3h0Z"/>
        <path class="cls-1" d="M843.88,208.9c1.93,0,1.93-3,0-3s-1.93,3,0,3h0Z"/>
        <path class="cls-1" d="M849.47,398.84c1.93,0,1.93-3,0-3s-1.93,3,0,3h0Z"/>
        <path class="cls-1" d="M468.88,203.9c1.93,0,1.93-3,0-3s-1.93,3,0,3h0Z"/>
        <path class="cls-1" d="M631.19,273.88c1.93,0,1.93-3,0-3s-1.93,3,0,3h0Z"/>
        <path class="cls-1" d="M592.02,98.93c1.93,0,1.93-3,0-3s-1.93,3,0,3h0Z"/>
        <path class="cls-1" d="M793.5,43.95c1.93,0,1.93-3,0-3s-1.93,3,0,3h0Z"/>
        <path class="cls-1" d="M418.51,113.93c1.93,0,1.93-3,0-3s-1.93,3,0,3h0Z"/>
        <path class="cls-1" d="M950.22,103.93c1.93,0,1.93-3,0-3s-1.93,3,0,3h0Z"/>
        <path class="cls-1" d="M1028.57,308.87c1.93,0,1.93-3,0-3s-1.93,3,0,3h0Z"/>
        <path class="cls-1" d="M771.12,343.86c1.93,0,1.93-3,0-3s-1.93,3,0,3h0Z"/>
        <path class="cls-1" d="M631.19,143.92c1.93,0,1.93-3,0-3s-1.93,3,0,3h0Z"/>
        <path class="cls-1" d="M720.74,153.92c1.93,0,1.93-3,0-3s-1.93,3,0,3h0Z"/>
        <path class="cls-1" d="M832.68,268.88c1.93,0,1.93-3,0-3s-1.93,3,0,3h0Z"/>
        <path class="cls-1" d="M927.83,278.88c1.93,0,1.93-3,0-3s-1.93,3,0,3h0Z"/>
        <path class="cls-1" d="M939.02,193.9c1.93,0,1.93-3,0-3s-1.93,3,0,3h0Z"/>
        <path class="cls-1" d="M883.05,148.92c1.93,0,1.93-3,0-3s-1.93,3,0,3h0Z"/>
        <path class="cls-1" d="M821.49,78.94c1.93,0,1.93-3,0-3s-1.93,3,0,3h0Z"/>
        <path class="cls-1" d="M994.99,53.94c1.93,0,1.93-3,0-3s-1.93,3,0,3h0Z"/>
        <path class="cls-1" d="M1022.98,203.9c1.93,0,1.93-3,0-3s-1.93,3,0,3h0Z"/>
        <path class="cls-1" d="M1090.14,323.87c1.93,0,1.93-3,0-3s-1.93,3,0,3h0Z"/>
        <path class="cls-1" d="M1134.91,298.87c1.93,0,1.93-3,0-3s-1.93,3,0,3h0Z"/>
        <path class="cls-1" d="M1062.15,223.89c1.93,0,1.93-3,0-3s-1.93,3,0,3h0Z"/>
        <path class="cls-1" d="M1073.35,153.92c1.93,0,1.93-3,0-3s-1.93,3,0,3h0Z"/>
        <path class="cls-1" d="M1028.57,78.94c1.93,0,1.93-3,0-3s-1.93,3,0,3h0Z"/>
        <path class="cls-1" d="M653.58,48.95c1.93,0,1.93-3,0-3s-1.93,3,0,3h0Z"/>
        <path class="cls-1" d="M742.07,103.49c1.87,1.67,3.73,3.33,5.6,5,.59.52,1.55.62,2.12,0,.52-.57.63-1.56,0-2.12-1.87-1.67-3.73-3.33-5.6-5-.59-.52-1.55-.62-2.12,0-.52.57-.63,1.56,0,2.12h0Z"/>
        <path class="cls-1" d="M815.89,193.9c1.93,0,1.93-3,0-3s-1.93,3,0,3h0Z"/>
        <path class="cls-1" d="M709.55,198.9c1.93,0,1.93-3,0-3s-1.93,3,0,3h0Z"/>
        <path class="cls-1" d="M480.08,328.86c1.93,0,1.93-3,0-3s-1.93,3,0,3h0Z"/>
        <path class="cls-1" d="M424.11,183.91c1.93,0,1.93-3,0-3s-1.93,3,0,3h0Z"/>
        <path class="cls-1" d="M446.5,143.92c1.93,0,1.93-3,0-3s-1.93,3,0,3h0Z"/>
        <path class="cls-1" d="M519.26,58.94c1.93,0,1.93-3,0-3s-1.93,3,0,3h0Z"/>
        <path class="cls-1" d="M709.55,343.86c1.93,0,1.93-3,0-3s-1.93,3,0,3h0Z"/>
        <path class="cls-1" d="M715.15,283.88c1.93,0,1.93-3,0-3s-1.93,3,0,3h0Z"/>
        <path class="cls-1" d="M776.71,263.88c1.93,0,1.93-3,0-3s-1.93,3,0,3h0Z"/>
        <path class="cls-1" d="M860.67,333.86c1.93,0,1.93-3,0-3s-1.93,3,0,3h0Z"/>
        <path class="cls-1" d="M961.41,358.86c1.93,0,1.93-3,0-3s-1.93,3,0,3h0Z"/>
        <path class="cls-1" d="M1006.19,388.85c1.93,0,1.93-3,0-3s-1.93,3,0,3h0Z"/>
        <path class="cls-1" d="M1095.74,373.85c1.93,0,1.93-3,0-3s-1.93,3,0,3h0Z"/>
        <path class="cls-1" d="M883.05,83.94c1.93,0,1.93-3,0-3s-1.93,3,0,3h0Z"/>
        <path class="cls-1" d="M922.23,33.95c1.93,0,1.93-3,0-3s-1.93,3,0,3h0Z"/>
        <path class="cls-1" d="M866.26,8.96c1.93,0,1.93-3,0-3s-1.93,3,0,3h0Z"/>
        <path class="cls-1" d="M692.76,3.96c1.93,0,1.93-3,0-3s-1.93,3,0,3h0Z"/>
        <path class="cls-1" d="M731.94,73.94c1.93,0,1.93-3,0-3s-1.93,3,0,3h0Z"/>
        <path class="cls-1" d="M659.18,138.92c1.93,0,1.93-3,0-3s-1.93,3,0,3h0Z"/>
        <path class="cls-1" d="M821.49,123.92c1.93,0,1.93-3,0-3s-1.93,3,0,3h0Z"/>
        <path class="cls-1" d="M759.92,148.92c1.93,0,1.93-3,0-3s-1.93,3,0,3h0Z"/>
        <path class="cls-1" d="M759.92,228.89c1.93,0,1.93-3,0-3s-1.93,3,0,3h0Z"/>
        <path class="cls-1" d="M955.81,268.88c1.93,0,1.93-3,0-3s-1.93,3,0,3h0Z"/>
        <path class="cls-1" d="M827.09,503.81c1.93,0,1.93-3,0-3s-1.93,3,0,3h0Z"/>
        <path class="cls-1" d="M636.79,398.84c1.93,0,1.93-3,0-3s-1.93,3,0,3h0Z"/>
        <path class="cls-1" d="M614.4,338.86c1.93,0,1.93-3,0-3s-1.93,3,0,3h0Z"/>
        <path class="cls-1" d="M698.36,383.85c1.93,0,1.93-3,0-3s-1.93,3,0,3h0Z"/>
        <path class="cls-1" d="M771.12,403.84c1.93,0,1.93-3,0-3s-1.93,3,0,3h0Z"/>
        <path class="cls-1" d="M804.7,373.85c1.93,0,1.93-3,0-3s-1.93,3,0,3h0Z"/>
        <path class="cls-1" d="M888.65,358.86c1.93,0,1.93-3,0-3s-1.93,3,0,3h0Z"/>
        <path class="cls-1" d="M927.83,423.84c1.93,0,1.93-3,0-3s-1.93,3,0,3h0Z"/>
        <path class="cls-1" d="M883.05,443.83c1.93,0,1.93-3,0-3s-1.93,3,0,3h0Z"/>
        <path class="cls-1" d="M883.05,398.84c1.93,0,1.93-3,0-3s-1.93,3,0,3h0Z"/>
        <path class="cls-1" d="M933.43,393.85c1.93,0,1.93-3,0-3s-1.93,3,0,3h0Z"/>
        <path class="cls-1" d="M670.37,248.89c1.93,0,1.93-3,0-3s-1.93,3,0,3h0Z"/>
        <path class="cls-1" d="M659.18,208.9c1.93,0,1.93-3,0-3s-1.93,3,0,3h0Z"/>
        <path class="cls-1" d="M608.81,158.91c1.93,0,1.93-3,0-3s-1.93,3,0,3h0Z"/>
        <path class="cls-1" d="M636.79,193.9c1.93,0,1.93-3,0-3s-1.93,3,0,3h0Z"/>
        <path class="cls-1" d="M603.21,228.89c1.93,0,1.93-3,0-3s-1.93,3,0,3h0Z"/>
        <path class="cls-1" d="M547.24,63.94c1.93,0,1.93-3,0-3s-1.93,3,0,3h0Z"/>
        <path class="cls-1" d="M608.81,58.94c1.93,0,1.93-3,0-3s-1.93,3,0,3h0Z"/>
        <path class="cls-1" d="M575.23,8.96c1.93,0,1.93-3,0-3s-1.93,3,0,3h0Z"/>
        <path class="cls-1" d="M502.47,13.96c1.93,0,1.93-3,0-3s-1.93,3,0,3h0Z"/>
        <path class="cls-1" d="M524.85,68.94c1.93,0,1.93-3,0-3s-1.93,3,0,3h0Z"/>
        <path class="cls-1" d="M558.44,153.92c1.93,0,1.93-3,0-3s-1.93,3,0,3h0Z"/>
        <path class="cls-1" d="M502.47,148.92c1.93,0,1.93-3,0-3s-1.93,3,0,3h0Z"/>
        <path class="cls-1" d="M541.64,268.88c1.93,0,1.93-3,0-3s-1.93,3,0,3h0Z"/>
        <path class="cls-1" d="M592.02,323.87c1.93,0,1.93-3,0-3s-1.93,3,0,3h0Z"/>
        <path class="cls-1" d="M485.68,183.91c1.93,0,1.93-3,0-3s-1.93,3,0,3h0Z"/>
        <path class="cls-1" d="M519.26,293.87c1.93,0,1.93-3,0-3s-1.93,3,0,3h0Z"/>
        <path class="cls-1" d="M575.23,353.86c1.93,0,1.93-3,0-3s-1.93,3,0,3h0Z"/>
        <path class="cls-1" d="M569.63,428.83c1.93,0,1.93-3,0-3s-1.93,3,0,3h0Z"/>
        <path class="cls-1" d="M564.03,208.9c1.93,0,1.93-3,0-3s-1.93,3,0,3h0Z"/>
        <path class="cls-1" d="M530.45,218.9c1.93,0,1.93-3,0-3s-1.93,3,0,3h0Z"/>
        <path class="cls-1" d="M468.88,273.88c1.93,0,1.93-3,0-3s-1.93,3,0,3h0Z"/>
        <path class="cls-1" d="M452.09,103.93c1.93,0,1.93-3,0-3s-1.93,3,0,3h0Z"/>
        <path class="cls-1" d="M435.3,43.95c1.93,0,1.93-3,0-3s-1.93,3,0,3h0Z"/>
      </g>
      <g>
        <path class="cls-1" d="M1551.88,56.44c1.93,0,1.93-3,0-3s-1.93,3,0,3h0Z"/>
        <path class="cls-1" d="M1008.98,146.42c1.93,0,1.93-3,0-3s-1.93,3,0,3h0Z"/>
        <path class="cls-1" d="M1266.44,106.43c1.93,0,1.93-3,0-3s-1.93,3,0,3h0Z"/>
        <path class="cls-1" d="M1445.54,16.46c1.93,0,1.93-3,0-3s-1.93,3,0,3h0Z"/>
        <path class="cls-1" d="M1188.08,51.44c1.93,0,1.93-3,0-3s-1.93,3,0,3h0Z"/>
        <path class="cls-1" d="M1507.11,31.45c1.93,0,1.93-3,0-3s-1.93,3,0,3h0Z"/>
        <path class="cls-1" d="M1551.88,6.46c1.93,0,1.93-3,0-3s-1.93,3,0,3h0Z"/>
        <path class="cls-1" d="M897.05,36.45c1.93,0,1.93-3,0-3s-1.93,3,0,3h0Z"/>
        <path class="cls-1" d="M1126.52,51.44c1.93,0,1.93-3,0-3s-1.93,3,0,3h0Z"/>
        <path class="cls-1" d="M1277.63,41.45c1.93,0,1.93-3,0-3s-1.93,3,0,3h0Z"/>
        <path class="cls-1" d="M1378.38,66.44c1.93,0,1.93-3,0-3s-1.93,3,0,3h0Z"/>
        <path class="cls-1" d="M1423.15,96.43c1.93,0,1.93-3,0-3s-1.93,3,0,3h0Z"/>
        <path class="cls-1" d="M1512.7,81.44c1.93,0,1.93-3,0-3s-1.93,3,0,3h0Z"/>
        <path class="cls-1" d="M1244.05,211.4c1.93,0,1.93-3,0-3s-1.93,3,0,3h0Z"/>
        <path class="cls-1" d="M1053.76,106.43c1.93,0,1.93-3,0-3s-1.93,3,0,3h0Z"/>
        <path class="cls-1" d="M1031.37,46.45c1.93,0,1.93-3,0-3s-1.93,3,0,3h0Z"/>
        <path class="cls-1" d="M1115.33,91.43c1.93,0,1.93-3,0-3s-1.93,3,0,3h0Z"/>
        <path class="cls-1" d="M1188.08,111.43c1.93,0,1.93-3,0-3s-1.93,3,0,3h0Z"/>
        <path class="cls-1" d="M1221.67,81.44c1.93,0,1.93-3,0-3s-1.93,3,0,3h0Z"/>
        <path class="cls-1" d="M1305.62,66.44c1.93,0,1.93-3,0-3s-1.93,3,0,3h0Z"/>
        <path class="cls-1" d="M1344.8,131.42c1.93,0,1.93-3,0-3s-1.93,3,0,3h0Z"/>
        <path class="cls-1" d="M1300.02,151.42c1.93,0,1.93-3,0-3s-1.93,3,0,3h0Z"/>
        <path class="cls-1" d="M1300.02,106.43c1.93,0,1.93-3,0-3s-1.93,3,0,3h0Z"/>
        <path class="cls-1" d="M1350.39,101.43c1.93,0,1.93-3,0-3s-1.93,3,0,3h0Z"/>
        <path class="cls-1" d="M1008.98,31.45c1.93,0,1.93-3,0-3s-1.93,3,0,3h0Z"/>
        <path class="cls-1" d="M936.22,1.46c1.93,0,1.93-3,0-3s-1.93,3,0,3h0Z"/>
        <path class="cls-1" d="M992.19,61.44c1.93,0,1.93-3,0-3s-1.93,3,0,3h0Z"/>
        <path class="cls-1" d="M986.6,136.42c1.93,0,1.93-3,0-3s-1.93,3,0,3h0Z"/>
      </g>
      <g>
        <path class="cls-1" d="M1717.44,453.83c1.93,0,1.93-3,0-3s-1.93,3,0,3h0Z"/>
        <path class="cls-1" d="M1594.31,218.9c1.93,0,1.93-3,0-3s-1.93,3,0,3h0Z"/>
        <path class="cls-1" d="M1756.62,288.88c1.93,0,1.93-3,0-3s-1.93,3,0,3h0Z"/>
        <path class="cls-1" d="M1717.44,113.93c1.93,0,1.93-3,0-3s-1.93,3,0,3h0Z"/>
        <path class="cls-1" d="M1918.93,58.94c1.93,0,1.93-3,0-3s-1.93,3,0,3h0Z"/>
        <path class="cls-1" d="M1543.94,128.92c1.93,0,1.93-3,0-3s-1.93,3,0,3h0Z"/>
        <path class="cls-1" d="M1896.54,358.86c1.93,0,1.93-3,0-3s-1.93,3,0,3h0Z"/>
        <path class="cls-1" d="M1756.62,158.91c1.93,0,1.93-3,0-3s-1.93,3,0,3h0Z"/>
        <path class="cls-1" d="M1846.17,168.91c1.93,0,1.93-3,0-3s-1.93,3,0,3h0Z"/>
        <path class="cls-1" d="M1779.01,63.94c1.93,0,1.93-3,0-3s-1.93,3,0,3h0Z"/>
        <path class="cls-1" d="M1867.5,118.49c1.87,1.67,3.73,3.33,5.6,5,.59.52,1.55.62,2.12,0,.52-.57.63-1.56,0-2.12-1.87-1.67-3.73-3.33-5.6-5-.59-.52-1.55-.62-2.12,0-.52.57-.63,1.56,0,2.12h0Z"/>
        <path class="cls-1" d="M1834.98,213.9c1.93,0,1.93-3,0-3s-1.93,3,0,3h0Z"/>
        <path class="cls-1" d="M1605.5,343.86c1.93,0,1.93-3,0-3s-1.93,3,0,3h0Z"/>
        <path class="cls-1" d="M1549.53,198.9c1.93,0,1.93-3,0-3s-1.93,3,0,3h0Z"/>
        <path class="cls-1" d="M1571.92,158.91c1.93,0,1.93-3,0-3s-1.93,3,0,3h0Z"/>
        <path class="cls-1" d="M1644.68,73.94c1.93,0,1.93-3,0-3s-1.93,3,0,3h0Z"/>
        <path class="cls-1" d="M1834.98,358.86c1.93,0,1.93-3,0-3s-1.93,3,0,3h0Z"/>
        <path class="cls-1" d="M1840.57,298.87c1.93,0,1.93-3,0-3s-1.93,3,0,3h0Z"/>
        <path class="cls-1" d="M1902.14,278.88c1.93,0,1.93-3,0-3s-1.93,3,0,3h0Z"/>
        <path class="cls-1" d="M1818.18,18.95c1.93,0,1.93-3,0-3s-1.93,3,0,3h0Z"/>
        <path class="cls-1" d="M1851.77,13.96c1.93,0,1.93-3,0-3s-1.93,3,0,3h0Z"/>
        <path class="cls-1" d="M1857.36,88.93c1.93,0,1.93-3,0-3s-1.93,3,0,3h0Z"/>
        <path class="cls-1" d="M1784.6,153.92c1.93,0,1.93-3,0-3s-1.93,3,0,3h0Z"/>
        <path class="cls-1" d="M1885.35,163.91c1.93,0,1.93-3,0-3s-1.93,3,0,3h0Z"/>
        <path class="cls-1" d="M1885.35,243.89c1.93,0,1.93-3,0-3s-1.93,3,0,3h0Z"/>
        <path class="cls-1" d="M1762.22,413.84c1.93,0,1.93-3,0-3s-1.93,3,0,3h0Z"/>
        <path class="cls-1" d="M1739.83,353.86c1.93,0,1.93-3,0-3s-1.93,3,0,3h0Z"/>
        <path class="cls-1" d="M1823.78,398.84c1.93,0,1.93-3,0-3s-1.93,3,0,3h0Z"/>
        <path class="cls-1" d="M1896.54,418.84c1.93,0,1.93-3,0-3s-1.93,3,0,3h0Z"/>
        <path class="cls-1" d="M1795.8,263.88c1.93,0,1.93-3,0-3s-1.93,3,0,3h0Z"/>
        <path class="cls-1" d="M1784.6,223.89c1.93,0,1.93-3,0-3s-1.93,3,0,3h0Z"/>
        <path class="cls-1" d="M1734.23,173.91c1.93,0,1.93-3,0-3s-1.93,3,0,3h0Z"/>
        <path class="cls-1" d="M1762.22,208.9c1.93,0,1.93-3,0-3s-1.93,3,0,3h0Z"/>
        <path class="cls-1" d="M1728.63,243.89c1.93,0,1.93-3,0-3s-1.93,3,0,3h0Z"/>
        <path class="cls-1" d="M1672.67,78.94c1.93,0,1.93-3,0-3s-1.93,3,0,3h0Z"/>
        <path class="cls-1" d="M1734.23,73.94c1.93,0,1.93-3,0-3s-1.93,3,0,3h0Z"/>
        <path class="cls-1" d="M1700.65,23.95c1.93,0,1.93-3,0-3s-1.93,3,0,3h0Z"/>
        <path class="cls-1" d="M1627.89,28.95c1.93,0,1.93-3,0-3s-1.93,3,0,3h0Z"/>
        <path class="cls-1" d="M1650.28,83.94c1.93,0,1.93-3,0-3s-1.93,3,0,3h0Z"/>
        <path class="cls-1" d="M1683.86,168.91c1.93,0,1.93-3,0-3s-1.93,3,0,3h0Z"/>
        <path class="cls-1" d="M1627.89,163.91c1.93,0,1.93-3,0-3s-1.93,3,0,3h0Z"/>
        <path class="cls-1" d="M1667.07,283.88c1.93,0,1.93-3,0-3s-1.93,3,0,3h0Z"/>
        <path class="cls-1" d="M1717.44,338.86c1.93,0,1.93-3,0-3s-1.93,3,0,3h0Z"/>
        <path class="cls-1" d="M1611.1,198.9c1.93,0,1.93-3,0-3s-1.93,3,0,3h0Z"/>
        <path class="cls-1" d="M1644.68,308.87c1.93,0,1.93-3,0-3s-1.93,3,0,3h0Z"/>
        <path class="cls-1" d="M1700.65,368.85c1.93,0,1.93-3,0-3s-1.93,3,0,3h0Z"/>
        <path class="cls-1" d="M1695.05,443.83c1.93,0,1.93-3,0-3s-1.93,3,0,3h0Z"/>
        <path class="cls-1" d="M1689.46,223.89c1.93,0,1.93-3,0-3s-1.93,3,0,3h0Z"/>
        <path class="cls-1" d="M1655.88,233.89c1.93,0,1.93-3,0-3s-1.93,3,0,3h0Z"/>
        <path class="cls-1" d="M1594.31,288.88c1.93,0,1.93-3,0-3s-1.93,3,0,3h0Z"/>
        <path class="cls-1" d="M1577.52,118.93c1.93,0,1.93-3,0-3s-1.93,3,0,3h0Z"/>
        <path class="cls-1" d="M1560.73,58.94c1.93,0,1.93-3,0-3s-1.93,3,0,3h0Z"/>
        <path class="cls-1" d="M1555.13,3.96c1.93,0,1.93-3,0-3s-1.93,3,0,3h0Z"/>
        <path class="cls-1" d="M1594.31,3.96c1.93,0,1.93-3,0-3s-1.93,3,0,3h0Z"/>
      </g>
      <g>
        <path class="cls-1" d="M1589.75,263.88c1.93,0,1.93-3,0-3s-1.93,3,0,3h0Z"/>
        <path class="cls-1" d="M1813.63,673.76c1.93,0,1.93-3,0-3s-1.93,3,0,3h0Z"/>
        <path class="cls-1" d="M1270.73,763.74c1.93,0,1.93-3,0-3s-1.93,3,0,3h0Z"/>
        <path class="cls-1" d="M1522.59,533.8c1.93,0,1.93-3,0-3s-1.93,3,0,3h0Z"/>
        <path class="cls-1" d="M1528.19,723.75c1.93,0,1.93-3,0-3s-1.93,3,0,3h0Z"/>
        <path class="cls-1" d="M1147.6,528.81c1.93,0,1.93-3,0-3s-1.93,3,0,3h0Z"/>
        <path class="cls-1" d="M1309.91,598.79c1.93,0,1.93-3,0-3s-1.93,3,0,3h0Z"/>
        <path class="cls-1" d="M1270.73,423.84c1.93,0,1.93-3,0-3s-1.93,3,0,3h0Z"/>
        <path class="cls-1" d="M1349.09,128.92c1.93,0,1.93-3,0-3s-1.93,3,0,3h0Z"/>
        <path class="cls-1" d="M1472.22,368.85c1.93,0,1.93-3,0-3s-1.93,3,0,3h0Z"/>
        <path class="cls-1" d="M1354.68,278.88c1.93,0,1.93-3,0-3s-1.93,3,0,3h0Z"/>
        <path class="cls-1" d="M1119.62,253.89c1.93,0,1.93-3,0-3s-1.93,3,0,3h0Z"/>
        <path class="cls-1" d="M1097.23,438.83c1.93,0,1.93-3,0-3s-1.93,3,0,3h0Z"/>
        <path class="cls-1" d="M1628.93,428.83c1.93,0,1.93-3,0-3s-1.93,3,0,3h0Z"/>
        <path class="cls-1" d="M1707.29,633.78c1.93,0,1.93-3,0-3s-1.93,3,0,3h0Z"/>
        <path class="cls-1" d="M1449.83,668.77c1.93,0,1.93-3,0-3s-1.93,3,0,3h0Z"/>
        <path class="cls-1" d="M1309.91,468.82c1.93,0,1.93-3,0-3s-1.93,3,0,3h0Z"/>
        <path class="cls-1" d="M1399.46,478.82c1.93,0,1.93-3,0-3s-1.93,3,0,3h0Z"/>
        <path class="cls-1" d="M1511.4,593.79c1.93,0,1.93-3,0-3s-1.93,3,0,3h0Z"/>
        <path class="cls-1" d="M1606.54,603.78c1.93,0,1.93-3,0-3s-1.93,3,0,3h0Z"/>
        <path class="cls-1" d="M1617.74,518.81c1.93,0,1.93-3,0-3s-1.93,3,0,3h0Z"/>
        <path class="cls-1" d="M1561.77,473.82c1.93,0,1.93-3,0-3s-1.93,3,0,3h0Z"/>
        <path class="cls-1" d="M1500.2,403.84c1.93,0,1.93-3,0-3s-1.93,3,0,3h0Z"/>
        <path class="cls-1" d="M1572.96,298.87c1.93,0,1.93-3,0-3s-1.93,3,0,3h0Z"/>
        <path class="cls-1" d="M1673.71,378.85c1.93,0,1.93-3,0-3s-1.93,3,0,3h0Z"/>
        <path class="cls-1" d="M1701.69,528.81c1.93,0,1.93-3,0-3s-1.93,3,0,3h0Z"/>
        <path class="cls-1" d="M1768.85,648.77c1.93,0,1.93-3,0-3s-1.93,3,0,3h0Z"/>
        <path class="cls-1" d="M1813.63,623.78c1.93,0,1.93-3,0-3s-1.93,3,0,3h0Z"/>
        <path class="cls-1" d="M1740.87,548.8c1.93,0,1.93-3,0-3s-1.93,3,0,3h0Z"/>
        <path class="cls-1" d="M1752.06,478.82c1.93,0,1.93-3,0-3s-1.93,3,0,3h0Z"/>
        <path class="cls-1" d="M1707.29,403.84c1.93,0,1.93-3,0-3s-1.93,3,0,3h0Z"/>
        <path class="cls-1" d="M1494.61,323.87c1.93,0,1.93-3,0-3s-1.93,3,0,3h0Z"/>
        <path class="cls-1" d="M1421.85,233.89c1.93,0,1.93-3,0-3s-1.93,3,0,3h0Z"/>
        <path class="cls-1" d="M1287.52,113.93c1.93,0,1.93-3,0-3s-1.93,3,0,3h0Z"/>
        <path class="cls-1" d="M1185.28,252.39v5c0,.78.69,1.54,1.5,1.5s1.5-.66,1.5-1.5v-5c0-.78-.69-1.54-1.5-1.5s-1.5.66-1.5,1.5h0Z"/>
        <path class="cls-1" d="M1332.3,373.85c1.93,0,1.93-3,0-3s-1.93,3,0,3h0Z"/>
        <path class="cls-1" d="M1420.79,428.4c1.87,1.67,3.73,3.33,5.6,5,.59.52,1.55.62,2.12,0,.52-.57.63-1.56,0-2.12-1.87-1.67-3.73-3.33-5.6-5-.59-.52-1.55-.62-2.12,0-.52.57-.63,1.56,0,2.12h0Z"/>
        <path class="cls-1" d="M1494.61,518.81c1.93,0,1.93-3,0-3s-1.93,3,0,3h0Z"/>
        <path class="cls-1" d="M1388.27,523.81c1.93,0,1.93-3,0-3s-1.93,3,0,3h0Z"/>
        <path class="cls-1" d="M1158.79,653.77c1.93,0,1.93-3,0-3s-1.93,3,0,3h0Z"/>
        <path class="cls-1" d="M1102.82,508.81c1.93,0,1.93-3,0-3s-1.93,3,0,3h0Z"/>
        <path class="cls-1" d="M1125.21,468.82c1.93,0,1.93-3,0-3s-1.93,3,0,3h0Z"/>
        <path class="cls-1" d="M1197.97,383.85c1.93,0,1.93-3,0-3s-1.93,3,0,3h0Z"/>
        <path class="cls-1" d="M1293.12,298.87c1.93,0,1.93-3,0-3s-1.93,3,0,3h0Z"/>
        <path class="cls-1" d="M1281.93,238.89c1.93,0,1.93-3,0-3s-1.93,3,0,3h0Z"/>
        <path class="cls-1" d="M1332.3,238.89c1.93,0,1.93-3,0-3s-1.93,3,0,3h0Z"/>
        <path class="cls-1" d="M1343.49,193.9c1.93,0,1.93-3,0-3s-1.93,3,0,3h0Z"/>
        <path class="cls-1" d="M1388.27,668.77c1.93,0,1.93-3,0-3s-1.93,3,0,3h0Z"/>
        <path class="cls-1" d="M1393.86,608.78c1.93,0,1.93-3,0-3s-1.93,3,0,3h0Z"/>
        <path class="cls-1" d="M1455.43,588.79c1.93,0,1.93-3,0-3s-1.93,3,0,3h0Z"/>
        <path class="cls-1" d="M1539.38,658.77c1.93,0,1.93-3,0-3s-1.93,3,0,3h0Z"/>
        <path class="cls-1" d="M1640.13,683.76c1.93,0,1.93-3,0-3s-1.93,3,0,3h0Z"/>
        <path class="cls-1" d="M1684.9,713.75c1.93,0,1.93-3,0-3s-1.93,3,0,3h0Z"/>
        <path class="cls-1" d="M1774.45,698.76c1.93,0,1.93-3,0-3s-1.93,3,0,3h0Z"/>
        <path class="cls-1" d="M1561.77,408.84c1.93,0,1.93-3,0-3s-1.93,3,0,3h0Z"/>
        <path class="cls-1" d="M1600.95,358.86c1.93,0,1.93-3,0-3s-1.93,3,0,3h0Z"/>
        <path class="cls-1" d="M1544.98,333.86c1.93,0,1.93-3,0-3s-1.93,3,0,3h0Z"/>
        <path class="cls-1" d="M1477.82,258.88c1.93,0,1.93-3,0-3s-1.93,3,0,3h0Z"/>
        <path class="cls-1" d="M1528.19,258.88c1.93,0,1.93-3,0-3s-1.93,3,0,3h0Z"/>
        <path class="cls-1" d="M1528.19,203.9c1.93,0,1.93-3,0-3s-1.93,3,0,3h0Z"/>
        <path class="cls-1" d="M1438.64,143.92c1.93,0,1.93-3,0-3s-1.93,3,0,3h0Z"/>
        <path class="cls-1" d="M1461.03,213.9c1.93,0,1.93-3,0-3s-1.93,3,0,3h0Z"/>
        <path class="cls-1" d="M1427.44,183.91c1.93,0,1.93-3,0-3s-1.93,3,0,3h0Z"/>
        <path class="cls-1" d="M1371.48,328.86c1.93,0,1.93-3,0-3s-1.93,3,0,3h0Z"/>
        <path class="cls-1" d="M1405.06,323.87c1.93,0,1.93-3,0-3s-1.93,3,0,3h0Z"/>
        <path class="cls-1" d="M1410.65,398.84c1.93,0,1.93-3,0-3s-1.93,3,0,3h0Z"/>
        <path class="cls-1" d="M1337.89,463.82c1.93,0,1.93-3,0-3s-1.93,3,0,3h0Z"/>
        <path class="cls-1" d="M1500.2,448.83c1.93,0,1.93-3,0-3s-1.93,3,0,3h0Z"/>
        <path class="cls-1" d="M1438.64,473.82c1.93,0,1.93-3,0-3s-1.93,3,0,3h0Z"/>
        <path class="cls-1" d="M1438.64,553.8c1.93,0,1.93-3,0-3s-1.93,3,0,3h0Z"/>
        <path class="cls-1" d="M1634.53,593.79c1.93,0,1.93-3,0-3s-1.93,3,0,3h0Z"/>
        <path class="cls-1" d="M1505.8,828.72c1.93,0,1.93-3,0-3s-1.93,3,0,3h0Z"/>
        <path class="cls-1" d="M1315.51,723.75c1.93,0,1.93-3,0-3s-1.93,3,0,3h0Z"/>
        <path class="cls-1" d="M1293.12,663.77c1.93,0,1.93-3,0-3s-1.93,3,0,3h0Z"/>
        <path class="cls-1" d="M1377.07,708.75c1.93,0,1.93-3,0-3s-1.93,3,0,3h0Z"/>
        <path class="cls-1" d="M1449.83,728.75c1.93,0,1.93-3,0-3s-1.93,3,0,3h0Z"/>
        <path class="cls-1" d="M1483.41,698.76c1.93,0,1.93-3,0-3s-1.93,3,0,3h0Z"/>
        <path class="cls-1" d="M1567.37,683.76c1.93,0,1.93-3,0-3s-1.93,3,0,3h0Z"/>
        <path class="cls-1" d="M1606.54,748.74c1.93,0,1.93-3,0-3s-1.93,3,0,3h0Z"/>
        <path class="cls-1" d="M1561.77,768.74c1.93,0,1.93-3,0-3s-1.93,3,0,3h0Z"/>
        <path class="cls-1" d="M1561.77,723.75c1.93,0,1.93-3,0-3s-1.93,3,0,3h0Z"/>
        <path class="cls-1" d="M1612.14,718.75c1.93,0,1.93-3,0-3s-1.93,3,0,3h0Z"/>
        <path class="cls-1" d="M1349.09,573.79c1.93,0,1.93-3,0-3s-1.93,3,0,3h0Z"/>
        <path class="cls-1" d="M1337.89,533.8c1.93,0,1.93-3,0-3s-1.93,3,0,3h0Z"/>
        <path class="cls-1" d="M1287.52,483.82c1.93,0,1.93-3,0-3s-1.93,3,0,3h0Z"/>
        <path class="cls-1" d="M1315.51,518.81c1.93,0,1.93-3,0-3s-1.93,3,0,3h0Z"/>
        <path class="cls-1" d="M1281.93,553.8c1.93,0,1.93-3,0-3s-1.93,3,0,3h0Z"/>
        <path class="cls-1" d="M1225.96,388.85c1.93,0,1.93-3,0-3s-1.93,3,0,3h0Z"/>
        <path class="cls-1" d="M1287.52,383.85c1.93,0,1.93-3,0-3s-1.93,3,0,3h0Z"/>
        <path class="cls-1" d="M1253.94,333.86c1.93,0,1.93-3,0-3s-1.93,3,0,3h0Z"/>
        <path class="cls-1" d="M1220.36,288.88c1.93,0,1.93-3,0-3s-1.93,3,0,3h0Z"/>
        <path class="cls-1" d="M1181.18,338.86c1.93,0,1.93-3,0-3s-1.93,3,0,3h0Z"/>
        <path class="cls-1" d="M1203.57,393.85c1.93,0,1.93-3,0-3s-1.93,3,0,3h0Z"/>
        <path class="cls-1" d="M1237.15,478.82c1.93,0,1.93-3,0-3s-1.93,3,0,3h0Z"/>
        <path class="cls-1" d="M1181.18,473.82c1.93,0,1.93-3,0-3s-1.93,3,0,3h0Z"/>
        <path class="cls-1" d="M1220.36,593.79c1.93,0,1.93-3,0-3s-1.93,3,0,3h0Z"/>
        <path class="cls-1" d="M1270.73,648.77c1.93,0,1.93-3,0-3s-1.93,3,0,3h0Z"/>
        <path class="cls-1" d="M1164.39,508.81c1.93,0,1.93-3,0-3s-1.93,3,0,3h0Z"/>
        <path class="cls-1" d="M1197.97,618.78c1.93,0,1.93-3,0-3s-1.93,3,0,3h0Z"/>
        <path class="cls-1" d="M1253.94,678.76c1.93,0,1.93-3,0-3s-1.93,3,0,3h0Z"/>
        <path class="cls-1" d="M1248.34,753.74c1.93,0,1.93-3,0-3s-1.93,3,0,3h0Z"/>
        <path class="cls-1" d="M1242.75,533.8c1.93,0,1.93-3,0-3s-1.93,3,0,3h0Z"/>
        <path class="cls-1" d="M1209.17,543.8c1.93,0,1.93-3,0-3s-1.93,3,0,3h0Z"/>
        <path class="cls-1" d="M1147.6,598.79c1.93,0,1.93-3,0-3s-1.93,3,0,3h0Z"/>
        <path class="cls-1" d="M1130.81,428.83c1.93,0,1.93-3,0-3s-1.93,3,0,3h0Z"/>
        <path class="cls-1" d="M1114.02,368.85c1.93,0,1.93-3,0-3s-1.93,3,0,3h0Z"/>
        <path class="cls-1" d="M1108.42,313.87c1.93,0,1.93-3,0-3s-1.93,3,0,3h0Z"/>
        <path class="cls-1" d="M1147.6,313.87c1.93,0,1.93-3,0-3s-1.93,3,0,3h0Z"/>
        <path class="cls-1" d="M1248.34,198.9c1.93,0,1.93-3,0-3s-1.93,3,0,3h0Z"/>
        <path class="cls-1" d="M1287.52,198.9c1.93,0,1.93-3,0-3s-1.93,3,0,3h0Z"/>
        <path class="cls-1" d="M1259.54,143.92c1.93,0,1.93-3,0-3s-1.93,3,0,3h0Z"/>
        <path class="cls-1" d="M1158.79,248.89c1.93,0,1.93-3,0-3s-1.93,3,0,3h0Z"/>
      </g>
      <g>
        <path class="cls-1" d="M1114.02,466.32c1.93,0,1.93-3,0-3s-1.93,3,0,3h0Z"/>
        <path class="cls-1" d="M1337.89,876.2c1.93,0,1.93-3,0-3s-1.93,3,0,3h0Z"/>
        <path class="cls-1" d="M795,966.18c1.93,0,1.93-3,0-3s-1.93,3,0,3h0Z"/>
        <path class="cls-1" d="M1046.86,736.25c1.93,0,1.93-3,0-3s-1.93,3,0,3h0Z"/>
        <path class="cls-1" d="M1052.45,926.19c1.93,0,1.93-3,0-3s-1.93,3,0,3h0Z"/>
        <path class="cls-1" d="M671.86,731.25c1.93,0,1.93-3,0-3s-1.93,3,0,3h0Z"/>
        <path class="cls-1" d="M834.17,801.23c1.93,0,1.93-3,0-3s-1.93,3,0,3h0Z"/>
        <path class="cls-1" d="M795,626.28c1.93,0,1.93-3,0-3s-1.93,3,0,3h0Z"/>
        <path class="cls-1" d="M873.35,331.36c1.93,0,1.93-3,0-3s-1.93,3,0,3h0Z"/>
        <path class="cls-1" d="M996.48,571.29c1.93,0,1.93-3,0-3s-1.93,3,0,3h0Z"/>
        <path class="cls-1" d="M878.95,481.32c1.93,0,1.93-3,0-3s-1.93,3,0,3h0Z"/>
        <path class="cls-1" d="M643.88,456.33c1.93,0,1.93-3,0-3s-1.93,3,0,3h0Z"/>
        <path class="cls-1" d="M621.49,641.27c1.93,0,1.93-3,0-3s-1.93,3,0,3h0Z"/>
        <path class="cls-1" d="M1153.2,631.28c1.93,0,1.93-3,0-3s-1.93,3,0,3h0Z"/>
        <path class="cls-1" d="M1231.55,836.22c1.93,0,1.93-3,0-3s-1.93,3,0,3h0Z"/>
        <path class="cls-1" d="M974.1,871.21c1.93,0,1.93-3,0-3s-1.93,3,0,3h0Z"/>
        <path class="cls-1" d="M834.17,671.26c1.93,0,1.93-3,0-3s-1.93,3,0,3h0Z"/>
        <path class="cls-1" d="M923.72,681.26c1.93,0,1.93-3,0-3s-1.93,3,0,3h0Z"/>
        <path class="cls-1" d="M1035.66,796.23c1.93,0,1.93-3,0-3s-1.93,3,0,3h0Z"/>
        <path class="cls-1" d="M1130.81,806.22c1.93,0,1.93-3,0-3s-1.93,3,0,3h0Z"/>
        <path class="cls-1" d="M1142,721.25c1.93,0,1.93-3,0-3s-1.93,3,0,3h0Z"/>
        <path class="cls-1" d="M1086.03,676.26c1.93,0,1.93-3,0-3s-1.93,3,0,3h0Z"/>
        <path class="cls-1" d="M1024.47,606.28c1.93,0,1.93-3,0-3s-1.93,3,0,3h0Z"/>
        <path class="cls-1" d="M1097.23,501.31c1.93,0,1.93-3,0-3s-1.93,3,0,3h0Z"/>
        <path class="cls-1" d="M1197.97,581.29c1.93,0,1.93-3,0-3s-1.93,3,0,3h0Z"/>
        <path class="cls-1" d="M1225.96,731.25c1.93,0,1.93-3,0-3s-1.93,3,0,3h0Z"/>
        <path class="cls-1" d="M1293.12,851.21c1.93,0,1.93-3,0-3s-1.93,3,0,3h0Z"/>
        <path class="cls-1" d="M1337.89,826.22c1.93,0,1.93-3,0-3s-1.93,3,0,3h0Z"/>
        <path class="cls-1" d="M1265.13,751.24c1.93,0,1.93-3,0-3s-1.93,3,0,3h0Z"/>
        <path class="cls-1" d="M1276.33,681.26c1.93,0,1.93-3,0-3s-1.93,3,0,3h0Z"/>
        <path class="cls-1" d="M1231.55,606.28c1.93,0,1.93-3,0-3s-1.93,3,0,3h0Z"/>
        <path class="cls-1" d="M1018.87,526.31c1.93,0,1.93-3,0-3s-1.93,3,0,3h0Z"/>
        <path class="cls-1" d="M946.11,436.33c1.93,0,1.93-3,0-3s-1.93,3,0,3h0Z"/>
        <path class="cls-1" d="M811.79,316.37c1.93,0,1.93-3,0-3s-1.93,3,0,3h0Z"/>
        <path class="cls-1" d="M709.54,454.83v5c0,.78.69,1.54,1.5,1.5s1.5-.66,1.5-1.5v-5c0-.78-.69-1.54-1.5-1.5s-1.5.66-1.5,1.5h0Z"/>
        <path class="cls-1" d="M856.56,576.29c1.93,0,1.93-3,0-3s-1.93,3,0,3h0Z"/>
        <path class="cls-1" d="M945.05,630.84c1.87,1.67,3.73,3.33,5.6,5,.59.52,1.55.62,2.12,0,.52-.57.63-1.56,0-2.12-1.87-1.67-3.73-3.33-5.6-5-.59-.52-1.55-.62-2.12,0-.52.57-.63,1.56,0,2.12h0Z"/>
        <path class="cls-1" d="M1018.87,721.25c1.93,0,1.93-3,0-3s-1.93,3,0,3h0Z"/>
        <path class="cls-1" d="M912.53,726.25c1.93,0,1.93-3,0-3s-1.93,3,0,3h0Z"/>
        <path class="cls-1" d="M683.06,856.21c1.93,0,1.93-3,0-3s-1.93,3,0,3h0Z"/>
        <path class="cls-1" d="M627.09,711.25c1.93,0,1.93-3,0-3s-1.93,3,0,3h0Z"/>
        <path class="cls-1" d="M649.48,671.26c1.93,0,1.93-3,0-3s-1.93,3,0,3h0Z"/>
        <path class="cls-1" d="M722.24,586.29c1.93,0,1.93-3,0-3s-1.93,3,0,3h0Z"/>
        <path class="cls-1" d="M817.38,501.31c1.93,0,1.93-3,0-3s-1.93,3,0,3h0Z"/>
        <path class="cls-1" d="M806.19,441.33c1.93,0,1.93-3,0-3s-1.93,3,0,3h0Z"/>
        <path class="cls-1" d="M856.56,441.33c1.93,0,1.93-3,0-3s-1.93,3,0,3h0Z"/>
        <path class="cls-1" d="M867.76,396.34c1.93,0,1.93-3,0-3s-1.93,3,0,3h0Z"/>
        <path class="cls-1" d="M912.53,871.21c1.93,0,1.93-3,0-3s-1.93,3,0,3h0Z"/>
        <path class="cls-1" d="M918.13,811.22c1.93,0,1.93-3,0-3s-1.93,3,0,3h0Z"/>
        <path class="cls-1" d="M979.69,791.23c1.93,0,1.93-3,0-3s-1.93,3,0,3h0Z"/>
        <path class="cls-1" d="M1063.65,861.21c1.93,0,1.93-3,0-3s-1.93,3,0,3h0Z"/>
        <path class="cls-1" d="M1164.39,886.2c1.93,0,1.93-3,0-3s-1.93,3,0,3h0Z"/>
        <path class="cls-1" d="M1209.17,916.19c1.93,0,1.93-3,0-3s-1.93,3,0,3h0Z"/>
        <path class="cls-1" d="M1298.72,901.2c1.93,0,1.93-3,0-3s-1.93,3,0,3h0Z"/>
        <path class="cls-1" d="M1086.03,611.28c1.93,0,1.93-3,0-3s-1.93,3,0,3h0Z"/>
        <path class="cls-1" d="M1125.21,561.3c1.93,0,1.93-3,0-3s-1.93,3,0,3h0Z"/>
        <path class="cls-1" d="M1069.24,536.3c1.93,0,1.93-3,0-3s-1.93,3,0,3h0Z"/>
        <path class="cls-1" d="M1002.08,461.33c1.93,0,1.93-3,0-3s-1.93,3,0,3h0Z"/>
        <path class="cls-1" d="M1052.45,461.33c1.93,0,1.93-3,0-3s-1.93,3,0,3h0Z"/>
        <path class="cls-1" d="M1052.45,406.34c1.93,0,1.93-3,0-3s-1.93,3,0,3h0Z"/>
        <path class="cls-1" d="M962.9,346.36c1.93,0,1.93-3,0-3s-1.93,3,0,3h0Z"/>
        <path class="cls-1" d="M985.29,416.34c1.93,0,1.93-3,0-3s-1.93,3,0,3h0Z"/>
        <path class="cls-1" d="M951.71,386.35c1.93,0,1.93-3,0-3s-1.93,3,0,3h0Z"/>
        <path class="cls-1" d="M895.74,531.31c1.93,0,1.93-3,0-3s-1.93,3,0,3h0Z"/>
        <path class="cls-1" d="M929.32,526.31c1.93,0,1.93-3,0-3s-1.93,3,0,3h0Z"/>
        <path class="cls-1" d="M934.92,601.28c1.93,0,1.93-3,0-3s-1.93,3,0,3h0Z"/>
        <path class="cls-1" d="M862.16,666.27c1.93,0,1.93-3,0-3s-1.93,3,0,3h0Z"/>
        <path class="cls-1" d="M1024.47,651.27c1.93,0,1.93-3,0-3s-1.93,3,0,3h0Z"/>
        <path class="cls-1" d="M962.9,676.26c1.93,0,1.93-3,0-3s-1.93,3,0,3h0Z"/>
        <path class="cls-1" d="M962.9,756.24c1.93,0,1.93-3,0-3s-1.93,3,0,3h0Z"/>
        <path class="cls-1" d="M1158.79,796.23c1.93,0,1.93-3,0-3s-1.93,3,0,3h0Z"/>
        <path class="cls-1" d="M1030.07,1031.16c1.93,0,1.93-3,0-3s-1.93,3,0,3h0Z"/>
        <path class="cls-1" d="M839.77,926.19c1.93,0,1.93-3,0-3s-1.93,3,0,3h0Z"/>
        <path class="cls-1" d="M817.38,866.21c1.93,0,1.93-3,0-3s-1.93,3,0,3h0Z"/>
        <path class="cls-1" d="M901.34,911.19c1.93,0,1.93-3,0-3s-1.93,3,0,3h0Z"/>
        <path class="cls-1" d="M974.1,931.19c1.93,0,1.93-3,0-3s-1.93,3,0,3h0Z"/>
        <path class="cls-1" d="M1007.68,901.2c1.93,0,1.93-3,0-3s-1.93,3,0,3h0Z"/>
        <path class="cls-1" d="M1091.63,886.2c1.93,0,1.93-3,0-3s-1.93,3,0,3h0Z"/>
        <path class="cls-1" d="M1130.81,951.18c1.93,0,1.93-3,0-3s-1.93,3,0,3h0Z"/>
        <path class="cls-1" d="M1086.03,971.18c1.93,0,1.93-3,0-3s-1.93,3,0,3h0Z"/>
        <path class="cls-1" d="M1086.03,926.19c1.93,0,1.93-3,0-3s-1.93,3,0,3h0Z"/>
        <path class="cls-1" d="M1136.41,921.19c1.93,0,1.93-3,0-3s-1.93,3,0,3h0Z"/>
        <path class="cls-1" d="M873.35,776.23c1.93,0,1.93-3,0-3s-1.93,3,0,3h0Z"/>
        <path class="cls-1" d="M862.16,736.25c1.93,0,1.93-3,0-3s-1.93,3,0,3h0Z"/>
        <path class="cls-1" d="M811.79,686.26c1.93,0,1.93-3,0-3s-1.93,3,0,3h0Z"/>
        <path class="cls-1" d="M839.77,721.25c1.93,0,1.93-3,0-3s-1.93,3,0,3h0Z"/>
        <path class="cls-1" d="M806.19,756.24c1.93,0,1.93-3,0-3s-1.93,3,0,3h0Z"/>
        <path class="cls-1" d="M750.22,591.29c1.93,0,1.93-3,0-3s-1.93,3,0,3h0Z"/>
        <path class="cls-1" d="M811.79,586.29c1.93,0,1.93-3,0-3s-1.93,3,0,3h0Z"/>
        <path class="cls-1" d="M778.21,536.3c1.93,0,1.93-3,0-3s-1.93,3,0,3h0Z"/>
        <path class="cls-1" d="M744.62,491.32c1.93,0,1.93-3,0-3s-1.93,3,0,3h0Z"/>
        <path class="cls-1" d="M705.45,541.3c1.93,0,1.93-3,0-3s-1.93,3,0,3h0Z"/>
        <path class="cls-1" d="M727.83,596.29c1.93,0,1.93-3,0-3s-1.93,3,0,3h0Z"/>
        <path class="cls-1" d="M761.41,681.26c1.93,0,1.93-3,0-3s-1.93,3,0,3h0Z"/>
        <path class="cls-1" d="M705.45,676.26c1.93,0,1.93-3,0-3s-1.93,3,0,3h0Z"/>
        <path class="cls-1" d="M744.62,796.23c1.93,0,1.93-3,0-3s-1.93,3,0,3h0Z"/>
        <path class="cls-1" d="M795,851.21c1.93,0,1.93-3,0-3s-1.93,3,0,3h0Z"/>
        <path class="cls-1" d="M688.66,711.25c1.93,0,1.93-3,0-3s-1.93,3,0,3h0Z"/>
        <path class="cls-1" d="M722.24,821.22c1.93,0,1.93-3,0-3s-1.93,3,0,3h0Z"/>
        <path class="cls-1" d="M778.21,881.2c1.93,0,1.93-3,0-3s-1.93,3,0,3h0Z"/>
        <path class="cls-1" d="M772.61,956.18c1.93,0,1.93-3,0-3s-1.93,3,0,3h0Z"/>
        <path class="cls-1" d="M767.01,736.25c1.93,0,1.93-3,0-3s-1.93,3,0,3h0Z"/>
        <path class="cls-1" d="M733.43,746.24c1.93,0,1.93-3,0-3s-1.93,3,0,3h0Z"/>
        <path class="cls-1" d="M671.86,801.23c1.93,0,1.93-3,0-3s-1.93,3,0,3h0Z"/>
        <path class="cls-1" d="M655.07,631.28c1.93,0,1.93-3,0-3s-1.93,3,0,3h0Z"/>
        <path class="cls-1" d="M638.28,571.29c1.93,0,1.93-3,0-3s-1.93,3,0,3h0Z"/>
        <path class="cls-1" d="M632.69,516.31c1.93,0,1.93-3,0-3s-1.93,3,0,3h0Z"/>
        <path class="cls-1" d="M671.86,516.31c1.93,0,1.93-3,0-3s-1.93,3,0,3h0Z"/>
        <path class="cls-1" d="M772.61,401.34c1.93,0,1.93-3,0-3s-1.93,3,0,3h0Z"/>
        <path class="cls-1" d="M811.79,401.34c1.93,0,1.93-3,0-3s-1.93,3,0,3h0Z"/>
        <path class="cls-1" d="M783.8,346.36c1.93,0,1.93-3,0-3s-1.93,3,0,3h0Z"/>
        <path class="cls-1" d="M683.06,451.33c1.93,0,1.93-3,0-3s-1.93,3,0,3h0Z"/>
      </g>
      <g>
        <path class="cls-1" d="M526.35,158.91c1.93,0,1.93-3,0-3s-1.93,3,0,3h0Z"/>
        <path class="cls-1" d="M235.31,18.95c1.93,0,1.93-3,0-3s-1.93,3,0,3h0Z"/>
        <path class="cls-1" d="M240.9,208.9c1.93,0,1.93-3,0-3s-1.93,3,0,3h0Z"/>
        <path class="cls-1" d="M22.63,83.94c1.93,0,1.93-3,0-3s-1.93,3,0,3h0Z"/>
        <path class="cls-1" d="M420,118.93c1.93,0,1.93-3,0-3s-1.93,3,0,3h0Z"/>
        <path class="cls-1" d="M162.55,153.92c1.93,0,1.93-3,0-3s-1.93,3,0,3h0Z"/>
        <path class="cls-1" d="M224.11,78.94c1.93,0,1.93-3,0-3s-1.93,3,0,3h0Z"/>
        <path class="cls-1" d="M319.26,88.93c1.93,0,1.93-3,0-3s-1.93,3,0,3h0Z"/>
        <path class="cls-1" d="M330.45,3.96c1.93,0,1.93-3,0-3s-1.93,3,0,3h0Z"/>
        <path class="cls-1" d="M414.41,13.96c1.93,0,1.93-3,0-3s-1.93,3,0,3h0Z"/>
        <path class="cls-1" d="M481.57,133.92c1.93,0,1.93-3,0-3s-1.93,3,0,3h0Z"/>
        <path class="cls-1" d="M526.35,108.93c1.93,0,1.93-3,0-3s-1.93,3,0,3h0Z"/>
        <path class="cls-1" d="M453.59,33.95c1.93,0,1.93-3,0-3s-1.93,3,0,3h0Z"/>
        <path class="cls-1" d="M207.32,3.96c1.93,0,1.93-3,0-3s-1.93,3,0,3h0Z"/>
        <path class="cls-1" d="M100.98,8.96c1.93,0,1.93-3,0-3s-1.93,3,0,3h0Z"/>
        <path class="cls-1" d="M100.98,153.92c1.93,0,1.93-3,0-3s-1.93,3,0,3h0Z"/>
        <path class="cls-1" d="M106.58,93.93c1.93,0,1.93-3,0-3s-1.93,3,0,3h0Z"/>
        <path class="cls-1" d="M168.14,73.94c1.93,0,1.93-3,0-3s-1.93,3,0,3h0Z"/>
        <path class="cls-1" d="M252.1,143.92c1.93,0,1.93-3,0-3s-1.93,3,0,3h0Z"/>
        <path class="cls-1" d="M352.84,168.91c1.93,0,1.93-3,0-3s-1.93,3,0,3h0Z"/>
        <path class="cls-1" d="M397.62,198.9c1.93,0,1.93-3,0-3s-1.93,3,0,3h0Z"/>
        <path class="cls-1" d="M487.17,183.91c1.93,0,1.93-3,0-3s-1.93,3,0,3h0Z"/>
        <path class="cls-1" d="M151.35,38.95c1.93,0,1.93-3,0-3s-1.93,3,0,3h0Z"/>
        <path class="cls-1" d="M347.25,78.94c1.93,0,1.93-3,0-3s-1.93,3,0,3h0Z"/>
        <path class="cls-1" d="M218.52,313.87c1.93,0,1.93-3,0-3s-1.93,3,0,3h0Z"/>
        <path class="cls-1" d="M28.22,208.9c1.93,0,1.93-3,0-3s-1.93,3,0,3h0Z"/>
        <path class="cls-1" d="M5.84,148.92c1.93,0,1.93-3,0-3s-1.93,3,0,3h0Z"/>
        <path class="cls-1" d="M89.79,193.9c1.93,0,1.93-3,0-3s-1.93,3,0,3h0Z"/>
        <path class="cls-1" d="M162.55,213.9c1.93,0,1.93-3,0-3s-1.93,3,0,3h0Z"/>
        <path class="cls-1" d="M196.13,183.91c1.93,0,1.93-3,0-3s-1.93,3,0,3h0Z"/>
        <path class="cls-1" d="M280.08,168.91c1.93,0,1.93-3,0-3s-1.93,3,0,3h0Z"/>
        <path class="cls-1" d="M319.26,233.89c1.93,0,1.93-3,0-3s-1.93,3,0,3h0Z"/>
        <path class="cls-1" d="M274.49,253.89c1.93,0,1.93-3,0-3s-1.93,3,0,3h0Z"/>
        <path class="cls-1" d="M274.49,208.9c1.93,0,1.93-3,0-3s-1.93,3,0,3h0Z"/>
        <path class="cls-1" d="M324.86,203.9c1.93,0,1.93-3,0-3s-1.93,3,0,3h0Z"/>
        <path class="cls-1" d="M61.8,58.94c1.93,0,1.93-3,0-3s-1.93,3,0,3h0Z"/>
        <path class="cls-1" d="M50.61,18.95c1.93,0,1.93-3,0-3s-1.93,3,0,3h0Z"/>
        <path class="cls-1" d="M28.22,3.96c1.93,0,1.93-3,0-3s-1.93,3,0,3h0Z"/>
      </g>
      <g>
        <path class="cls-1" d="M464.78,273.88c1.93,0,1.93-3,0-3s-1.93,3,0,3h0Z"/>
        <path class="cls-1" d="M688.66,683.76c1.93,0,1.93-3,0-3s-1.93,3,0,3h0Z"/>
        <path class="cls-1" d="M145.76,773.73c1.93,0,1.93-3,0-3s-1.93,3,0,3h0Z"/>
        <path class="cls-1" d="M397.62,543.8c1.93,0,1.93-3,0-3s-1.93,3,0,3h0Z"/>
        <path class="cls-1" d="M403.21,733.75c1.93,0,1.93-3,0-3s-1.93,3,0,3h0Z"/>
        <path class="cls-1" d="M22.63,538.8c1.93,0,1.93-3,0-3s-1.93,3,0,3h0Z"/>
        <path class="cls-1" d="M184.94,608.78c1.93,0,1.93-3,0-3s-1.93,3,0,3h0Z"/>
        <path class="cls-1" d="M145.76,433.83c1.93,0,1.93-3,0-3s-1.93,3,0,3h0Z"/>
        <path class="cls-1" d="M224.11,138.92c1.93,0,1.93-3,0-3s-1.93,3,0,3h0Z"/>
        <path class="cls-1" d="M347.25,378.85c1.93,0,1.93-3,0-3s-1.93,3,0,3h0Z"/>
        <path class="cls-1" d="M229.71,288.88c1.93,0,1.93-3,0-3s-1.93,3,0,3h0Z"/>
        <path class="cls-1" d="M503.96,438.83c1.93,0,1.93-3,0-3s-1.93,3,0,3h0Z"/>
        <path class="cls-1" d="M582.31,643.77c1.93,0,1.93-3,0-3s-1.93,3,0,3h0Z"/>
        <path class="cls-1" d="M324.86,678.76c1.93,0,1.93-3,0-3s-1.93,3,0,3h0Z"/>
        <path class="cls-1" d="M184.94,478.82c1.93,0,1.93-3,0-3s-1.93,3,0,3h0Z"/>
        <path class="cls-1" d="M274.49,488.82c1.93,0,1.93-3,0-3s-1.93,3,0,3h0Z"/>
        <path class="cls-1" d="M386.42,603.78c1.93,0,1.93-3,0-3s-1.93,3,0,3h0Z"/>
        <path class="cls-1" d="M481.57,613.78c1.93,0,1.93-3,0-3s-1.93,3,0,3h0Z"/>
        <path class="cls-1" d="M492.76,528.81c1.93,0,1.93-3,0-3s-1.93,3,0,3h0Z"/>
        <path class="cls-1" d="M436.8,483.82c1.93,0,1.93-3,0-3s-1.93,3,0,3h0Z"/>
        <path class="cls-1" d="M375.23,413.84c1.93,0,1.93-3,0-3s-1.93,3,0,3h0Z"/>
        <path class="cls-1" d="M447.99,308.87c1.93,0,1.93-3,0-3s-1.93,3,0,3h0Z"/>
        <path class="cls-1" d="M548.73,388.85c1.93,0,1.93-3,0-3s-1.93,3,0,3h0Z"/>
        <path class="cls-1" d="M576.72,538.8c1.93,0,1.93-3,0-3s-1.93,3,0,3h0Z"/>
        <path class="cls-1" d="M643.88,658.77c1.93,0,1.93-3,0-3s-1.93,3,0,3h0Z"/>
        <path class="cls-1" d="M688.66,633.78c1.93,0,1.93-3,0-3s-1.93,3,0,3h0Z"/>
        <path class="cls-1" d="M615.9,558.8c1.93,0,1.93-3,0-3s-1.93,3,0,3h0Z"/>
        <path class="cls-1" d="M627.09,488.82c1.93,0,1.93-3,0-3s-1.93,3,0,3h0Z"/>
        <path class="cls-1" d="M582.31,413.84c1.93,0,1.93-3,0-3s-1.93,3,0,3h0Z"/>
        <path class="cls-1" d="M369.63,333.86c1.93,0,1.93-3,0-3s-1.93,3,0,3h0Z"/>
        <path class="cls-1" d="M296.87,243.89c1.93,0,1.93-3,0-3s-1.93,3,0,3h0Z"/>
        <path class="cls-1" d="M162.55,123.92c1.93,0,1.93-3,0-3s-1.93,3,0,3h0Z"/>
        <path class="cls-1" d="M60.3,262.38v5c0,.78.69,1.54,1.5,1.5s1.5-.66,1.5-1.5v-5c0-.78-.69-1.54-1.5-1.5s-1.5.66-1.5,1.5h0Z"/>
        <path class="cls-1" d="M207.32,383.85c1.93,0,1.93-3,0-3s-1.93,3,0,3h0Z"/>
        <path class="cls-1" d="M295.81,438.39c1.87,1.67,3.73,3.33,5.6,5,.59.52,1.55.62,2.12,0,.52-.57.63-1.56,0-2.12-1.87-1.67-3.73-3.33-5.6-5-.59-.52-1.55-.62-2.12,0-.52.57-.63,1.56,0,2.12h0Z"/>
        <path class="cls-1" d="M369.63,528.81c1.93,0,1.93-3,0-3s-1.93,3,0,3h0Z"/>
        <path class="cls-1" d="M263.29,533.8c1.93,0,1.93-3,0-3s-1.93,3,0,3h0Z"/>
        <path class="cls-1" d="M33.82,663.77c1.93,0,1.93-3,0-3s-1.93,3,0,3h0Z"/>
        <path class="cls-1" d="M.24,478.82c1.93,0,1.93-3,0-3s-1.93,3,0,3H.24Z"/>
        <path class="cls-1" d="M73,393.85c1.93,0,1.93-3,0-3s-1.93,3,0,3h0Z"/>
        <path class="cls-1" d="M168.14,308.87c1.93,0,1.93-3,0-3s-1.93,3,0,3h0Z"/>
        <path class="cls-1" d="M156.95,248.89c1.93,0,1.93-3,0-3s-1.93,3,0,3h0Z"/>
        <path class="cls-1" d="M207.32,248.89c1.93,0,1.93-3,0-3s-1.93,3,0,3h0Z"/>
        <path class="cls-1" d="M218.52,203.9c1.93,0,1.93-3,0-3s-1.93,3,0,3h0Z"/>
        <path class="cls-1" d="M263.29,678.76c1.93,0,1.93-3,0-3s-1.93,3,0,3h0Z"/>
        <path class="cls-1" d="M268.89,618.78c1.93,0,1.93-3,0-3s-1.93,3,0,3h0Z"/>
        <path class="cls-1" d="M330.45,598.79c1.93,0,1.93-3,0-3s-1.93,3,0,3h0Z"/>
        <path class="cls-1" d="M414.41,668.77c1.93,0,1.93-3,0-3s-1.93,3,0,3h0Z"/>
        <path class="cls-1" d="M515.15,693.76c1.93,0,1.93-3,0-3s-1.93,3,0,3h0Z"/>
        <path class="cls-1" d="M559.93,723.75c1.93,0,1.93-3,0-3s-1.93,3,0,3h0Z"/>
        <path class="cls-1" d="M649.48,708.75c1.93,0,1.93-3,0-3s-1.93,3,0,3h0Z"/>
        <path class="cls-1" d="M436.8,418.84c1.93,0,1.93-3,0-3s-1.93,3,0,3h0Z"/>
        <path class="cls-1" d="M475.97,368.85c1.93,0,1.93-3,0-3s-1.93,3,0,3h0Z"/>
        <path class="cls-1" d="M420,343.86c1.93,0,1.93-3,0-3s-1.93,3,0,3h0Z"/>
        <path class="cls-1" d="M352.84,268.88c1.93,0,1.93-3,0-3s-1.93,3,0,3h0Z"/>
        <path class="cls-1" d="M403.21,268.88c1.93,0,1.93-3,0-3s-1.93,3,0,3h0Z"/>
        <path class="cls-1" d="M403.21,213.9c1.93,0,1.93-3,0-3s-1.93,3,0,3h0Z"/>
        <path class="cls-1" d="M313.66,153.92c1.93,0,1.93-3,0-3s-1.93,3,0,3h0Z"/>
        <path class="cls-1" d="M336.05,223.89c1.93,0,1.93-3,0-3s-1.93,3,0,3h0Z"/>
        <path class="cls-1" d="M302.47,193.9c1.93,0,1.93-3,0-3s-1.93,3,0,3h0Z"/>
        <path class="cls-1" d="M246.5,338.86c1.93,0,1.93-3,0-3s-1.93,3,0,3h0Z"/>
        <path class="cls-1" d="M280.08,333.86c1.93,0,1.93-3,0-3s-1.93,3,0,3h0Z"/>
        <path class="cls-1" d="M285.68,408.84c1.93,0,1.93-3,0-3s-1.93,3,0,3h0Z"/>
        <path class="cls-1" d="M212.92,473.82c1.93,0,1.93-3,0-3s-1.93,3,0,3h0Z"/>
        <path class="cls-1" d="M375.23,458.83c1.93,0,1.93-3,0-3s-1.93,3,0,3h0Z"/>
        <path class="cls-1" d="M313.66,483.82c1.93,0,1.93-3,0-3s-1.93,3,0,3h0Z"/>
        <path class="cls-1" d="M313.66,563.8c1.93,0,1.93-3,0-3s-1.93,3,0,3h0Z"/>
        <path class="cls-1" d="M509.55,603.78c1.93,0,1.93-3,0-3s-1.93,3,0,3h0Z"/>
        <path class="cls-1" d="M380.83,838.72c1.93,0,1.93-3,0-3s-1.93,3,0,3h0Z"/>
        <path class="cls-1" d="M190.53,733.75c1.93,0,1.93-3,0-3s-1.93,3,0,3h0Z"/>
        <path class="cls-1" d="M168.14,673.76c1.93,0,1.93-3,0-3s-1.93,3,0,3h0Z"/>
        <path class="cls-1" d="M252.1,718.75c1.93,0,1.93-3,0-3s-1.93,3,0,3h0Z"/>
        <path class="cls-1" d="M324.86,738.74c1.93,0,1.93-3,0-3s-1.93,3,0,3h0Z"/>
        <path class="cls-1" d="M358.44,708.75c1.93,0,1.93-3,0-3s-1.93,3,0,3h0Z"/>
        <path class="cls-1" d="M442.39,693.76c1.93,0,1.93-3,0-3s-1.93,3,0,3h0Z"/>
        <path class="cls-1" d="M481.57,758.74c1.93,0,1.93-3,0-3s-1.93,3,0,3h0Z"/>
        <path class="cls-1" d="M436.8,778.73c1.93,0,1.93-3,0-3s-1.93,3,0,3h0Z"/>
        <path class="cls-1" d="M436.8,733.75c1.93,0,1.93-3,0-3s-1.93,3,0,3h0Z"/>
        <path class="cls-1" d="M487.17,728.75c1.93,0,1.93-3,0-3s-1.93,3,0,3h0Z"/>
        <path class="cls-1" d="M224.11,583.79c1.93,0,1.93-3,0-3s-1.93,3,0,3h0Z"/>
        <path class="cls-1" d="M212.92,543.8c1.93,0,1.93-3,0-3s-1.93,3,0,3h0Z"/>
        <path class="cls-1" d="M162.55,493.82c1.93,0,1.93-3,0-3s-1.93,3,0,3h0Z"/>
        <path class="cls-1" d="M190.53,528.81c1.93,0,1.93-3,0-3s-1.93,3,0,3h0Z"/>
        <path class="cls-1" d="M156.95,563.8c1.93,0,1.93-3,0-3s-1.93,3,0,3h0Z"/>
        <path class="cls-1" d="M100.98,398.84c1.93,0,1.93-3,0-3s-1.93,3,0,3h0Z"/>
        <path class="cls-1" d="M162.55,393.85c1.93,0,1.93-3,0-3s-1.93,3,0,3h0Z"/>
        <path class="cls-1" d="M128.97,343.86c1.93,0,1.93-3,0-3s-1.93,3,0,3h0Z"/>
        <path class="cls-1" d="M95.39,298.87c1.93,0,1.93-3,0-3s-1.93,3,0,3h0Z"/>
        <path class="cls-1" d="M56.21,348.86c1.93,0,1.93-3,0-3s-1.93,3,0,3h0Z"/>
        <path class="cls-1" d="M78.59,403.84c1.93,0,1.93-3,0-3s-1.93,3,0,3h0Z"/>
        <path class="cls-1" d="M112.18,488.82c1.93,0,1.93-3,0-3s-1.93,3,0,3h0Z"/>
        <path class="cls-1" d="M56.21,483.82c1.93,0,1.93-3,0-3s-1.93,3,0,3h0Z"/>
        <path class="cls-1" d="M95.39,603.78c1.93,0,1.93-3,0-3s-1.93,3,0,3h0Z"/>
        <path class="cls-1" d="M145.76,658.77c1.93,0,1.93-3,0-3s-1.93,3,0,3h0Z"/>
        <path class="cls-1" d="M39.42,518.81c1.93,0,1.93-3,0-3s-1.93,3,0,3h0Z"/>
        <path class="cls-1" d="M73,628.78c1.93,0,1.93-3,0-3s-1.93,3,0,3h0Z"/>
        <path class="cls-1" d="M128.97,688.76c1.93,0,1.93-3,0-3s-1.93,3,0,3h0Z"/>
        <path class="cls-1" d="M123.37,763.74c1.93,0,1.93-3,0-3s-1.93,3,0,3h0Z"/>
        <path class="cls-1" d="M117.77,543.8c1.93,0,1.93-3,0-3s-1.93,3,0,3h0Z"/>
        <path class="cls-1" d="M84.19,553.8c1.93,0,1.93-3,0-3s-1.93,3,0,3h0Z"/>
        <path class="cls-1" d="M22.63,608.78c1.93,0,1.93-3,0-3s-1.93,3,0,3h0Z"/>
        <path class="cls-1" d="M5.84,438.83c1.93,0,1.93-3,0-3s-1.93,3,0,3h0Z"/>
        <path class="cls-1" d="M22.63,323.87c1.93,0,1.93-3,0-3s-1.93,3,0,3h0Z"/>
        <path class="cls-1" d="M123.37,208.9c1.93,0,1.93-3,0-3s-1.93,3,0,3h0Z"/>
        <path class="cls-1" d="M162.55,208.9c1.93,0,1.93-3,0-3s-1.93,3,0,3h0Z"/>
        <path class="cls-1" d="M134.56,153.92c1.93,0,1.93-3,0-3s-1.93,3,0,3h0Z"/>
        <path class="cls-1" d="M33.82,258.88c1.93,0,1.93-3,0-3s-1.93,3,0,3h0Z"/>
      </g>
    </g>
    <g>
      <g>
        <path class="cls-1" d="M914.64,835.62c1.93,0,1.93-3,0-3s-1.93,3,0,3h0Z"/>
        <path class="cls-1" d="M1400.53,737.76c1.93,0,1.93-3,0-3s-1.93,3,0,3h0Z"/>
        <path class="cls-1" d="M1186,956.98c1.93,0,1.93-3,0-3s-1.93,3,0,3h0Z"/>
        <path class="cls-1" d="M1169.95,781.69c1.93,0,1.93-3,0-3s-1.93,3,0,3h0Z"/>
        <path class="cls-1" d="M1525.5,951.41c1.93,0,1.93-3,0-3s-1.93,3,0,3h0Z"/>
        <path class="cls-1" d="M1374.63,891.18c1.93,0,1.93-3,0-3s-1.93,3,0,3h0Z"/>
        <path class="cls-1" d="M1420.18,1051.71c1.93,0,1.93-3,0-3s-1.93,3,0,3h0Z"/>
        <path class="cls-1" d="M1576.26,1033.14c1.93,0,1.93-3,0-3s-1.93,3,0,3h0Z"/>
        <path class="cls-1" d="M1095.87,1056.83c1.93,0,1.93-3,0-3s-1.93,3,0,3h0Z"/>
        <path class="cls-1" d="M1013.14,869.66c1.93,0,1.93-3,0-3s-1.93,3,0,3h0Z"/>
        <path class="cls-1" d="M1244.01,830.35c1.93,0,1.93-3,0-3s-1.93,3,0,3h0Z"/>
        <path class="cls-1" d="M1382.14,1011.22c1.93,0,1.93-3,0-3s-1.93,3,0,3h0Z"/>
        <path class="cls-1" d="M1300.56,1004.42c1.93,0,1.93-3,0-3s-1.93,3,0,3h0Z"/>
        <path class="cls-1" d="M1192.65,901.27c1.93,0,1.93-3,0-3s-1.93,3,0,3h0Z"/>
        <path class="cls-1" d="M1106.01,894.63c1.93,0,1.93-3,0-3s-1.93,3,0,3h0Z"/>
        <path class="cls-1" d="M1100.79,973.42c1.93,0,1.93-3,0-3s-1.93,3,0,3h0Z"/>
        <path class="cls-1" d="M1154.02,1013.45c1.93,0,1.93-3,0-3s-1.93,3,0,3h0Z"/>
        <path class="cls-1" d="M1213.76,1076.42c1.93,0,1.93-3,0-3s-1.93,3,0,3h0Z"/>
        <path class="cls-1" d="M1024.27,966.47c1.93,0,1.93-3,0-3s-1.93,3,0,3h0Z"/>
        <path class="cls-1" d="M956.58,857.49c1.93,0,1.93-3,0-3s-1.93,3,0,3h0Z"/>
        <path class="cls-1" d="M917.53,881.79c1.93,0,1.93-3,0-3s-1.93,3,0,3h0Z"/>
        <path class="cls-1" d="M987.68,949.07c1.93,0,1.93-3,0-3s-1.93,3,0,3h0Z"/>
        <path class="cls-1" d="M981.6,1014.01c1.93,0,1.93-3,0-3s-1.93,3,0,3h0Z"/>
        <path class="cls-1" d="M1026.43,1082.04c1.93,0,1.93-3,0-3s-1.93,3,0,3h0Z"/>
        <path class="cls-1" d="M1284.26,1048.64c-1.78-1.49-3.57-2.98-5.35-4.46-.31-.26-.64-.44-1.06-.44-.37,0-.81.16-1.06.44-.51.55-.64,1.58,0,2.12,1.78,1.49,3.57,2.98,5.35,4.46.31.26.64.44,1.06.44.37,0,.81-.16,1.06-.44.51-.55.64-1.58,0-2.12h0Z"/>
        <path class="cls-1" d="M1212.18,970.07c1.93,0,1.93-3,0-3s-1.93,3,0,3h0Z"/>
        <path class="cls-1" d="M1308.08,962.56c1.93,0,1.93-3,0-3s-1.93,3,0,3h0Z"/>
        <path class="cls-1" d="M1508.15,836.29c1.93,0,1.93-3,0-3s-1.93,3,0,3h0Z"/>
        <path class="cls-1" d="M1567.15,968.66c1.93,0,1.93-3,0-3s-1.93,3,0,3h0Z"/>
        <path class="cls-1" d="M1549.21,1006.2c1.93,0,1.93-3,0-3s-1.93,3,0,3h0Z"/>
        <path class="cls-1" d="M1299.7,828.67c1.93,0,1.93-3,0-3s-1.93,3,0,3h0Z"/>
        <path class="cls-1" d="M1298.11,884.23c1.93,0,1.93-3,0-3s-1.93,3,0,3h0Z"/>
        <path class="cls-1" d="M1243.57,904.37c1.93,0,1.93-3,0-3s-1.93,3,0,3h0Z"/>
        <path class="cls-1" d="M1163.58,842.02c1.93,0,1.93-3,0-3s-1.93,3,0,3h0Z"/>
        <path class="cls-1" d="M1071.01,821.67c1.93,0,1.93-3,0-3s-1.93,3,0,3h0Z"/>
        <path class="cls-1" d="M1028.77,795.18c1.93,0,1.93-3,0-3s-1.93,3,0,3h0Z"/>
        <path class="cls-1" d="M948.63,811.47c1.93,0,1.93-3,0-3s-1.93,3,0,3h0Z"/>
        <path class="cls-1" d="M1157.78,1073.47c1.93,0,1.93-3,0-3s-1.93,3,0,3h0Z"/>
        <path class="cls-1" d="M1295.05,1078.6c1.93,0,1.93-3,0-3s-1.93,3,0,3h0Z"/>
        <path class="cls-1" d="M1357.11,1016.6c1.93,0,1.93-3,0-3s-1.93,3,0,3h0Z"/>
        <path class="cls-1" d="M1211.16,1034.86c1.93,0,1.93-3,0-3s-1.93,3,0,3h0Z"/>
        <path class="cls-1" d="M1265.41,1010.1c1.93,0,1.93-3,0-3s-1.93,3,0,3h0Z"/>
        <path class="cls-1" d="M1260.78,936.23c1.93,0,1.93-3,0-3s-1.93,3,0,3h0Z"/>
        <path class="cls-1" d="M1081.27,904.62c1.93,0,1.93-3,0-3s-1.93,3,0,3h0Z"/>
        <path class="cls-1" d="M1184.14,684.13c1.93,0,1.93-3,0-3s-1.93,3,0,3h0Z"/>
        <path class="cls-1" d="M1362.34,775.91c1.93,0,1.93-3,0-3s-1.93,3,0,3h0Z"/>
        <path class="cls-1" d="M1386.06,830.7c1.93,0,1.93-3,0-3s-1.93,3,0,3h0Z"/>
        <path class="cls-1" d="M1307.52,791.43c1.93,0,1.93-3,0-3s-1.93,3,0,3h0Z"/>
        <path class="cls-1" d="M1240.54,774.94c1.93,0,1.93-3,0-3s-1.93,3,0,3h0Z"/>
        <path class="cls-1" d="M1211.9,803.56c1.93,0,1.93-3,0-3s-1.93,3,0,3h0Z"/>
        <path class="cls-1" d="M1136.83,819.69c1.93,0,1.93-3,0-3s-1.93,3,0,3h0Z"/>
        <path class="cls-1" d="M1097.63,760.74c1.93,0,1.93-3,0-3s-1.93,3,0,3h0Z"/>
        <path class="cls-1" d="M1136.98,741.05c1.93,0,1.93-3,0-3s-1.93,3,0,3h0Z"/>
        <path class="cls-1" d="M1139.58,782.6c1.93,0,1.93-3,0-3s-1.93,3,0,3h0Z"/>
        <path class="cls-1" d="M1094.3,788.59c1.93,0,1.93-3,0-3s-1.93,3,0,3h0Z"/>
        <path class="cls-1" d="M1340.63,915.33c1.93,0,1.93-3,0-3s-1.93,3,0,3h0Z"/>
        <path class="cls-1" d="M1353.07,951.96c1.93,0,1.93-3,0-3s-1.93,3,0,3h0Z"/>
        <path class="cls-1" d="M1401.52,996.76c1.93,0,1.93-3,0-3s-1.93,3,0,3h0Z"/>
        <path class="cls-1" d="M1374.19,965.2c1.93,0,1.93-3,0-3s-1.93,3,0,3h0Z"/>
        <path class="cls-1" d="M1402.54,931.97c1.93,0,1.93-3,0-3s-1.93,3,0,3h0Z"/>
        <path class="cls-1" d="M1462.71,1082.81c1.93,0,1.93-3,0-3s-1.93,3,0,3h0Z"/>
        <path class="cls-1" d="M1482.67,1077.58c1.93,0,1.93-3,0-3s-1.93,3,0,3h0Z"/>
        <path class="cls-1" d="M1447.38,1000.01c1.93,0,1.93-3,0-3s-1.93,3,0,3h0Z"/>
        <path class="cls-1" d="M1498.3,1003.1c1.93,0,1.93-3,0-3s-1.93,3,0,3h0Z"/>
        <path class="cls-1" d="M1455.92,893.36c1.93,0,1.93-3,0-3s-1.93,3,0,3h0Z"/>
        <path class="cls-1" d="M1407.18,843.95c1.93,0,1.93-3,0-3s-1.93,3,0,3h0Z"/>
        <path class="cls-1" d="M1511.46,970.33c1.93,0,1.93-3,0-3s-1.93,3,0,3h0Z"/>
        <path class="cls-1" d="M1474.73,869.67c1.93,0,1.93-3,0-3s-1.93,3,0,3h0Z"/>
        <path class="cls-1" d="M1420.63,815.79c1.93,0,1.93-3,0-3s-1.93,3,0,3h0Z"/>
        <path class="cls-1" d="M1421.36,746.38c1.93,0,1.93-3,0-3s-1.93,3,0,3h0Z"/>
        <path class="cls-1" d="M1439.14,949.38c1.93,0,1.93-3,0-3s-1.93,3,0,3h0Z"/>
        <path class="cls-1" d="M1468.94,939.23c1.93,0,1.93-3,0-3s-1.93,3,0,3h0Z"/>
        <path class="cls-1" d="M1521.45,886.77c1.93,0,1.93-3,0-3s-1.93,3,0,3h0Z"/>
        <path class="cls-1" d="M1546.46,1043.29c1.93,0,1.93-3,0-3s-1.93,3,0,3h0Z"/>
      </g>
      <g>
        <path class="cls-1" d="M1040.25,1019.18c1.93,0,1.93-3,0-3s-1.93,3,0,3h0Z"/>
        <path class="cls-1" d="M809.67,1063.12c1.93,0,1.93-3,0-3s-1.93,3,0,3h0Z"/>
        <path class="cls-1" d="M668.49,1076.61c1.93,0,1.93-3,0-3s-1.93,3,0,3h0Z"/>
        <path class="cls-1" d="M823.86,965.55c1.93,0,1.93-3,0-3s-1.93,3,0,3h0Z"/>
        <path class="cls-1" d="M1002.06,1057.34c1.93,0,1.93-3,0-3s-1.93,3,0,3h0Z"/>
        <path class="cls-1" d="M947.24,1072.86c1.93,0,1.93-3,0-3s-1.93,3,0,3h0Z"/>
        <path class="cls-1" d="M880.26,1056.37c1.93,0,1.93-3,0-3s-1.93,3,0,3h0Z"/>
        <path class="cls-1" d="M737.35,1042.16c1.93,0,1.93-3,0-3s-1.93,3,0,3h0Z"/>
        <path class="cls-1" d="M776.7,1022.48c1.93,0,1.93-3,0-3s-1.93,3,0,3h0Z"/>
        <path class="cls-1" d="M779.3,1064.03c1.93,0,1.93-3,0-3s-1.93,3,0,3h0Z"/>
        <path class="cls-1" d="M734.02,1070.02c1.93,0,1.93-3,0-3s-1.93,3,0,3h0Z"/>
        <path class="cls-1" d="M1061.08,1027.81c1.93,0,1.93-3,0-3s-1.93,3,0,3h0Z"/>
      </g>
      <g>
        <path class="cls-1" d="M381.62,754.5c1.93,0,1.93-3,0-3s-1.93,3,0,3h0Z"/>
        <path class="cls-1" d="M167.09,973.73c1.93,0,1.93-3,0-3s-1.93,3,0,3h0Z"/>
        <path class="cls-1" d="M151.04,798.43c1.93,0,1.93-3,0-3s-1.93,3,0,3h0Z"/>
        <path class="cls-1" d="M506.59,968.15c1.93,0,1.93-3,0-3s-1.93,3,0,3h0Z"/>
        <path class="cls-1" d="M355.72,907.92c1.93,0,1.93-3,0-3s-1.93,3,0,3h0Z"/>
        <path class="cls-1" d="M401.27,1068.45c1.93,0,1.93-3,0-3s-1.93,3,0,3h0Z"/>
        <path class="cls-1" d="M557.35,1049.89c1.93,0,1.93-3,0-3s-1.93,3,0,3h0Z"/>
        <path class="cls-1" d="M76.96,1073.57c1.93,0,1.93-3,0-3s-1.93,3,0,3h0Z"/>
        <path class="cls-1" d="M225.1,847.09c1.93,0,1.93-3,0-3s-1.93,3,0,3h0Z"/>
        <path class="cls-1" d="M363.23,1027.97c1.93,0,1.93-3,0-3s-1.93,3,0,3h0Z"/>
        <path class="cls-1" d="M281.65,1021.17c1.93,0,1.93-3,0-3s-1.93,3,0,3h0Z"/>
        <path class="cls-1" d="M173.75,918.02c1.93,0,1.93-3,0-3s-1.93,3,0,3h0Z"/>
        <path class="cls-1" d="M87.1,911.37c1.93,0,1.93-3,0-3s-1.93,3,0,3h0Z"/>
        <path class="cls-1" d="M81.88,990.16c1.93,0,1.93-3,0-3s-1.93,3,0,3h0Z"/>
        <path class="cls-1" d="M135.11,1030.2c1.93,0,1.93-3,0-3s-1.93,3,0,3h0Z"/>
        <path class="cls-1" d="M5.36,983.21c1.93,0,1.93-3,0-3s-1.93,3,0,3h0Z"/>
        <path class="cls-1" d="M265.35,1065.38c-1.78-1.49-3.57-2.98-5.35-4.46-.31-.26-.64-.44-1.06-.44-.37,0-.81.16-1.06.44-.51.55-.64,1.58,0,2.12,1.78,1.49,3.57,2.98,5.35,4.46.31.26.64.44,1.06.44.37,0,.81-.16,1.06-.44.51-.55.64-1.58,0-2.12h0Z"/>
        <path class="cls-1" d="M193.27,986.82c1.93,0,1.93-3,0-3s-1.93,3,0,3h0Z"/>
        <path class="cls-1" d="M289.17,979.31c1.93,0,1.93-3,0-3s-1.93,3,0,3h0Z"/>
        <path class="cls-1" d="M489.24,853.03c1.93,0,1.93-3,0-3s-1.93,3,0,3h0Z"/>
        <path class="cls-1" d="M548.25,985.4c1.93,0,1.93-3,0-3s-1.93,3,0,3h0Z"/>
        <path class="cls-1" d="M530.31,1022.94c1.93,0,1.93-3,0-3s-1.93,3,0,3h0Z"/>
        <path class="cls-1" d="M280.79,845.42c1.93,0,1.93-3,0-3s-1.93,3,0,3h0Z"/>
        <path class="cls-1" d="M279.2,900.97c1.93,0,1.93-3,0-3s-1.93,3,0,3h0Z"/>
        <path class="cls-1" d="M224.66,921.11c1.93,0,1.93-3,0-3s-1.93,3,0,3h0Z"/>
        <path class="cls-1" d="M144.67,858.76c1.93,0,1.93-3,0-3s-1.93,3,0,3h0Z"/>
        <path class="cls-1" d="M52.1,838.41c1.93,0,1.93-3,0-3s-1.93,3,0,3h0Z"/>
        <path class="cls-1" d="M9.86,811.93c1.93,0,1.93-3,0-3s-1.93,3,0,3h0Z"/>
        <path class="cls-1" d="M338.21,1033.34c1.93,0,1.93-3,0-3s-1.93,3,0,3h0Z"/>
        <path class="cls-1" d="M192.25,1051.61c1.93,0,1.93-3,0-3s-1.93,3,0,3h0Z"/>
        <path class="cls-1" d="M246.5,1026.85c1.93,0,1.93-3,0-3s-1.93,3,0,3h0Z"/>
        <path class="cls-1" d="M241.87,952.98c1.93,0,1.93-3,0-3s-1.93,3,0,3h0Z"/>
        <path class="cls-1" d="M62.36,921.37c1.93,0,1.93-3,0-3s-1.93,3,0,3h0Z"/>
        <path class="cls-1" d="M165.23,700.87c1.93,0,1.93-3,0-3s-1.93,3,0,3h0Z"/>
        <path class="cls-1" d="M343.43,792.65c1.93,0,1.93-3,0-3s-1.93,3,0,3h0Z"/>
        <path class="cls-1" d="M367.15,847.45c1.93,0,1.93-3,0-3s-1.93,3,0,3h0Z"/>
        <path class="cls-1" d="M288.61,808.18c1.93,0,1.93-3,0-3s-1.93,3,0,3h0Z"/>
        <path class="cls-1" d="M221.64,791.69c1.93,0,1.93-3,0-3s-1.93,3,0,3h0Z"/>
        <path class="cls-1" d="M192.99,820.3c1.93,0,1.93-3,0-3s-1.93,3,0,3h0Z"/>
        <path class="cls-1" d="M117.92,836.44c1.93,0,1.93-3,0-3s-1.93,3,0,3h0Z"/>
        <path class="cls-1" d="M78.72,777.48c1.93,0,1.93-3,0-3s-1.93,3,0,3h0Z"/>
        <path class="cls-1" d="M118.07,757.79c1.93,0,1.93-3,0-3s-1.93,3,0,3h0Z"/>
        <path class="cls-1" d="M120.67,799.35c1.93,0,1.93-3,0-3s-1.93,3,0,3h0Z"/>
        <path class="cls-1" d="M75.39,805.33c1.93,0,1.93-3,0-3s-1.93,3,0,3h0Z"/>
        <path class="cls-1" d="M321.72,932.07c1.93,0,1.93-3,0-3s-1.93,3,0,3h0Z"/>
        <path class="cls-1" d="M334.16,968.71c1.93,0,1.93-3,0-3s-1.93,3,0,3h0Z"/>
        <path class="cls-1" d="M382.62,1013.51c1.93,0,1.93-3,0-3s-1.93,3,0,3h0Z"/>
        <path class="cls-1" d="M355.28,981.95c1.93,0,1.93-3,0-3s-1.93,3,0,3h0Z"/>
        <path class="cls-1" d="M383.63,948.72c1.93,0,1.93-3,0-3s-1.93,3,0,3h0Z"/>
        <path class="cls-1" d="M428.47,1016.75c1.93,0,1.93-3,0-3s-1.93,3,0,3h0Z"/>
        <path class="cls-1" d="M479.39,1019.85c1.93,0,1.93-3,0-3s-1.93,3,0,3h0Z"/>
        <path class="cls-1" d="M437.01,910.11c1.93,0,1.93-3,0-3s-1.93,3,0,3h0Z"/>
        <path class="cls-1" d="M388.27,860.69c1.93,0,1.93-3,0-3s-1.93,3,0,3h0Z"/>
        <path class="cls-1" d="M492.55,987.07c1.93,0,1.93-3,0-3s-1.93,3,0,3h0Z"/>
        <path class="cls-1" d="M455.82,886.41c1.93,0,1.93-3,0-3s-1.93,3,0,3h0Z"/>
        <path class="cls-1" d="M401.72,832.53c1.93,0,1.93-3,0-3s-1.93,3,0,3h0Z"/>
        <path class="cls-1" d="M402.45,763.13c1.93,0,1.93-3,0-3s-1.93,3,0,3h0Z"/>
        <path class="cls-1" d="M420.23,966.12c1.93,0,1.93-3,0-3s-1.93,3,0,3h0Z"/>
        <path class="cls-1" d="M450.03,955.97c1.93,0,1.93-3,0-3s-1.93,3,0,3h0Z"/>
        <path class="cls-1" d="M502.54,903.51c1.93,0,1.93-3,0-3s-1.93,3,0,3h0Z"/>
        <path class="cls-1" d="M527.55,1060.03c1.93,0,1.93-3,0-3s-1.93,3,0,3h0Z"/>
      </g>
      <g>
        <path class="cls-1" d="M508.11,926.47c1.93,0,1.93-3,0-3s-1.93,3,0,3h0Z"/>
        <path class="cls-1" d="M281.9,553.97c1.93,0,1.93-3,0-3s-1.93,3,0,3h0Z"/>
        <path class="cls-1" d="M767.8,456.1c1.93,0,1.93-3,0-3s-1.93,3,0,3h0Z"/>
        <path class="cls-1" d="M553.26,675.33c1.93,0,1.93-3,0-3s-1.93,3,0,3h0Z"/>
        <path class="cls-1" d="M537.22,500.04c1.93,0,1.93-3,0-3s-1.93,3,0,3h0Z"/>
        <path class="cls-1" d="M892.76,669.75c1.93,0,1.93-3,0-3s-1.93,3,0,3h0Z"/>
        <path class="cls-1" d="M741.89,609.53c1.93,0,1.93-3,0-3s-1.93,3,0,3h0Z"/>
        <path class="cls-1" d="M787.45,770.06c1.93,0,1.93-3,0-3s-1.93,3,0,3h0Z"/>
        <path class="cls-1" d="M733.61,1044.59c1.93,0,1.93-3,0-3s-1.93,3,0,3h0Z"/>
        <path class="cls-1" d="M608.36,826.32c1.93,0,1.93-3,0-3s-1.93,3,0,3h0Z"/>
        <path class="cls-1" d="M719.88,906.23c1.93,0,1.93-3,0-3s-1.93,3,0,3h0Z"/>
        <path class="cls-1" d="M933.97,922.93c1.93,0,1.93-3,0-3s-1.93,3,0,3h0Z"/>
        <path class="cls-1" d="M943.53,751.49c1.93,0,1.93-3,0-3s-1.93,3,0,3h0Z"/>
        <path class="cls-1" d="M463.13,775.18c1.93,0,1.93-3,0-3s-1.93,3,0,3h0Z"/>
        <path class="cls-1" d="M380.41,588.01c1.93,0,1.93-3,0-3s-1.93,3,0,3h0Z"/>
        <path class="cls-1" d="M611.28,548.7c1.93,0,1.93-3,0-3s-1.93,3,0,3h0Z"/>
        <path class="cls-1" d="M749.4,729.57c1.93,0,1.93-3,0-3s-1.93,3,0,3h0Z"/>
        <path class="cls-1" d="M667.82,722.77c1.93,0,1.93-3,0-3s-1.93,3,0,3h0Z"/>
        <path class="cls-1" d="M559.92,619.62c1.93,0,1.93-3,0-3s-1.93,3,0,3h0Z"/>
        <path class="cls-1" d="M473.27,612.98c1.93,0,1.93-3,0-3s-1.93,3,0,3h0Z"/>
        <path class="cls-1" d="M468.06,691.77c1.93,0,1.93-3,0-3s-1.93,3,0,3h0Z"/>
        <path class="cls-1" d="M521.29,731.8c1.93,0,1.93-3,0-3s-1.93,3,0,3h0Z"/>
        <path class="cls-1" d="M581.02,794.76c1.93,0,1.93-3,0-3s-1.93,3,0,3h0Z"/>
        <path class="cls-1" d="M521.27,893.7c1.93,0,1.93-3,0-3s-1.93,3,0,3h0Z"/>
        <path class="cls-1" d="M425.52,822.57c1.93,0,1.93-3,0-3s-1.93,3,0,3h0Z"/>
        <path class="cls-1" d="M391.54,684.82c1.93,0,1.93-3,0-3s-1.93,3,0,3h0Z"/>
        <path class="cls-1" d="M323.85,575.84c1.93,0,1.93-3,0-3s-1.93,3,0,3h0Z"/>
        <path class="cls-1" d="M284.79,600.14c1.93,0,1.93-3,0-3s-1.93,3,0,3h0Z"/>
        <path class="cls-1" d="M354.94,667.41c1.93,0,1.93-3,0-3s-1.93,3,0,3h0Z"/>
        <path class="cls-1" d="M348.86,732.36c1.93,0,1.93-3,0-3s-1.93,3,0,3h0Z"/>
        <path class="cls-1" d="M393.7,800.39c1.93,0,1.93-3,0-3s-1.93,3,0,3h0Z"/>
        <path class="cls-1" d="M590.71,868.48c1.93,0,1.93-3,0-3s-1.93,3,0,3h0Z"/>
        <path class="cls-1" d="M661.73,949.61c1.93,0,1.93-3,0-3s-1.93,3,0,3h0Z"/>
        <path class="cls-1" d="M790.17,1056.77c1.93,0,1.93-3,0-3s-1.93,3,0,3h0Z"/>
        <path class="cls-1" d="M874.71,923.25l-.29-4.62c-.02-.4-.15-.77-.44-1.06-.26-.26-.69-.46-1.06-.44-.77.03-1.55.66-1.5,1.5l.29,4.62c.02.4.15.77.44,1.06.26.26.69.46,1.06.44.77-.03,1.55-.66,1.5-1.5h0Z"/>
        <path class="cls-1" d="M734.64,817.9c1.93,0,1.93-3,0-3s-1.93,3,0,3h0Z"/>
        <path class="cls-1" d="M651.52,766.99c-1.78-1.49-3.57-2.98-5.35-4.46-.31-.26-.64-.44-1.06-.44-.37,0-.81.16-1.06.44-.51.55-.64,1.58,0,2.12,1.78,1.49,3.57,2.98,5.35,4.46.31.26.64.44,1.06.44.37,0,.81-.16,1.06-.44.51-.55.64-1.58,0-2.12h0Z"/>
        <path class="cls-1" d="M579.44,688.42c1.93,0,1.93-3,0-3s-1.93,3,0,3h0Z"/>
        <path class="cls-1" d="M675.35,680.91c1.93,0,1.93-3,0-3s-1.93,3,0,3h0Z"/>
        <path class="cls-1" d="M875.41,554.63c1.93,0,1.93-3,0-3s-1.93,3,0,3h0Z"/>
        <path class="cls-1" d="M934.42,687c1.93,0,1.93-3,0-3s-1.93,3,0,3h0Z"/>
        <path class="cls-1" d="M916.48,724.55c1.93,0,1.93-3,0-3s-1.93,3,0,3h0Z"/>
        <path class="cls-1" d="M855.57,805.02c1.93,0,1.93-3,0-3s-1.93,3,0,3h0Z"/>
        <path class="cls-1" d="M774.42,886.09c1.93,0,1.93-3,0-3s-1.93,3,0,3h0Z"/>
        <path class="cls-1" d="M788.01,941.19c1.93,0,1.93-3,0-3s-1.93,3,0,3h0Z"/>
        <path class="cls-1" d="M742.44,942.56c1.93,0,1.93-3,0-3s-1.93,3,0,3h0Z"/>
        <path class="cls-1" d="M734.92,984.42c1.93,0,1.93-3,0-3s-1.93,3,0,3h0Z"/>
        <path class="cls-1" d="M666.97,547.02c1.93,0,1.93-3,0-3s-1.93,3,0,3h0Z"/>
        <path class="cls-1" d="M665.37,602.58c1.93,0,1.93-3,0-3s-1.93,3,0,3h0Z"/>
        <path class="cls-1" d="M610.84,622.72c1.93,0,1.93-3,0-3s-1.93,3,0,3h0Z"/>
        <path class="cls-1" d="M530.85,560.36c1.93,0,1.93-3,0-3s-1.93,3,0,3h0Z"/>
        <path class="cls-1" d="M438.27,540.02c1.93,0,1.93-3,0-3s-1.93,3,0,3h0Z"/>
        <path class="cls-1" d="M396.04,513.53c1.93,0,1.93-3,0-3s-1.93,3,0,3h0Z"/>
        <path class="cls-1" d="M315.9,529.82c1.93,0,1.93-3,0-3s-1.93,3,0,3h0Z"/>
        <path class="cls-1" d="M525.04,791.82c1.93,0,1.93-3,0-3s-1.93,3,0,3h0Z"/>
        <path class="cls-1" d="M492.49,839.06c1.93,0,1.93-3,0-3s-1.93,3,0,3h0Z"/>
        <path class="cls-1" d="M544.57,860.62c1.93,0,1.93-3,0-3s-1.93,3,0,3h0Z"/>
        <path class="cls-1" d="M609.65,928.05c1.93,0,1.93-3,0-3s-1.93,3,0,3h0Z"/>
        <path class="cls-1" d="M564.09,929.42c1.93,0,1.93-3,0-3s-1.93,3,0,3h0Z"/>
        <path class="cls-1" d="M567.27,980.2c1.93,0,1.93-3,0-3s-1.93,3,0,3h0Z"/>
        <path class="cls-1" d="M651.74,1033.17c1.93,0,1.93-3,0-3s-1.93,3,0,3h0Z"/>
        <path class="cls-1" d="M627.44,969.14c1.93,0,1.93-3,0-3s-1.93,3,0,3h0Z"/>
        <path class="cls-1" d="M659.55,995.93c1.93,0,1.93-3,0-3s-1.93,3,0,3h0Z"/>
        <path class="cls-1" d="M701.8,860.52c1.93,0,1.93-3,0-3s-1.93,3,0,3h0Z"/>
        <path class="cls-1" d="M671.71,866.05c1.93,0,1.93-3,0-3s-1.93,3,0,3h0Z"/>
        <path class="cls-1" d="M662.32,796.95c1.93,0,1.93-3,0-3s-1.93,3,0,3h0Z"/>
        <path class="cls-1" d="M724.38,734.95c1.93,0,1.93-3,0-3s-1.93,3,0,3h0Z"/>
        <path class="cls-1" d="M578.42,753.21c1.93,0,1.93-3,0-3s-1.93,3,0,3h0Z"/>
        <path class="cls-1" d="M632.67,728.45c1.93,0,1.93-3,0-3s-1.93,3,0,3h0Z"/>
        <path class="cls-1" d="M628.05,654.58c1.93,0,1.93-3,0-3s-1.93,3,0,3h0Z"/>
        <path class="cls-1" d="M448.54,622.97c1.93,0,1.93-3,0-3s-1.93,3,0,3h0Z"/>
        <path class="cls-1" d="M551.4,402.47c1.93,0,1.93-3,0-3s-1.93,3,0,3h0Z"/>
        <path class="cls-1" d="M729.61,494.26c1.93,0,1.93-3,0-3s-1.93,3,0,3h0Z"/>
        <path class="cls-1" d="M753.33,549.05c1.93,0,1.93-3,0-3s-1.93,3,0,3h0Z"/>
        <path class="cls-1" d="M674.78,509.78c1.93,0,1.93-3,0-3s-1.93,3,0,3h0Z"/>
        <path class="cls-1" d="M607.81,493.29c1.93,0,1.93-3,0-3s-1.93,3,0,3h0Z"/>
        <path class="cls-1" d="M579.17,521.91c1.93,0,1.93-3,0-3s-1.93,3,0,3h0Z"/>
        <path class="cls-1" d="M504.09,538.04c1.93,0,1.93-3,0-3s-1.93,3,0,3h0Z"/>
        <path class="cls-1" d="M464.89,479.08c1.93,0,1.93-3,0-3s-1.93,3,0,3h0Z"/>
        <path class="cls-1" d="M504.24,459.4c1.93,0,1.93-3,0-3s-1.93,3,0,3h0Z"/>
        <path class="cls-1" d="M506.84,500.95c1.93,0,1.93-3,0-3s-1.93,3,0,3h0Z"/>
        <path class="cls-1" d="M461.56,506.94c1.93,0,1.93-3,0-3s-1.93,3,0,3h0Z"/>
        <path class="cls-1" d="M707.9,633.68c1.93,0,1.93-3,0-3s-1.93,3,0,3h0Z"/>
        <path class="cls-1" d="M720.33,670.31c1.93,0,1.93-3,0-3s-1.93,3,0,3h0Z"/>
        <path class="cls-1" d="M768.79,715.11c1.93,0,1.93-3,0-3s-1.93,3,0,3h0Z"/>
        <path class="cls-1" d="M741.45,683.55c1.93,0,1.93-3,0-3s-1.93,3,0,3h0Z"/>
        <path class="cls-1" d="M769.81,650.32c1.93,0,1.93-3,0-3s-1.93,3,0,3h0Z"/>
        <path class="cls-1" d="M829.97,801.16c1.93,0,1.93-3,0-3s-1.93,3,0,3h0Z"/>
        <path class="cls-1" d="M774.57,807.45c1.93,0,1.93-3,0-3s-1.93,3,0,3h0Z"/>
        <path class="cls-1" d="M807.83,852.71c1.93,0,1.93-3,0-3s-1.93,3,0,3h0Z"/>
        <path class="cls-1" d="M840.81,893.35c1.93,0,1.93-3,0-3s-1.93,3,0,3h0Z"/>
        <path class="cls-1" d="M873.36,846.11c1.93,0,1.93-3,0-3s-1.93,3,0,3h0Z"/>
        <path class="cls-1" d="M849.93,795.93c1.93,0,1.93-3,0-3s-1.93,3,0,3h0Z"/>
        <path class="cls-1" d="M814.64,718.36c1.93,0,1.93-3,0-3s-1.93,3,0,3h0Z"/>
        <path class="cls-1" d="M865.56,721.45c1.93,0,1.93-3,0-3s-1.93,3,0,3h0Z"/>
        <path class="cls-1" d="M823.19,611.71c1.93,0,1.93-3,0-3s-1.93,3,0,3h0Z"/>
        <path class="cls-1" d="M774.44,562.29c1.93,0,1.93-3,0-3s-1.93,3,0,3h0Z"/>
        <path class="cls-1" d="M878.73,688.68c1.93,0,1.93-3,0-3s-1.93,3,0,3h0Z"/>
        <path class="cls-1" d="M841.99,588.02c1.93,0,1.93-3,0-3s-1.93,3,0,3h0Z"/>
        <path class="cls-1" d="M787.9,534.14c1.93,0,1.93-3,0-3s-1.93,3,0,3h0Z"/>
        <path class="cls-1" d="M788.63,464.73c1.93,0,1.93-3,0-3s-1.93,3,0,3h0Z"/>
        <path class="cls-1" d="M806.4,667.72c1.93,0,1.93-3,0-3s-1.93,3,0,3h0Z"/>
        <path class="cls-1" d="M836.2,657.58c1.93,0,1.93-3,0-3s-1.93,3,0,3h0Z"/>
        <path class="cls-1" d="M888.72,605.12c1.93,0,1.93-3,0-3s-1.93,3,0,3h0Z"/>
        <path class="cls-1" d="M913.73,761.64c1.93,0,1.93-3,0-3s-1.93,3,0,3h0Z"/>
        <path class="cls-1" d="M932.38,816.58c1.93,0,1.93-3,0-3s-1.93,3,0,3h0Z"/>
        <path class="cls-1" d="M940.62,867.22c1.93,0,1.93-3,0-3s-1.93,3,0,3h0Z"/>
        <path class="cls-1" d="M905.18,868.28c1.93,0,1.93-3,0-3s-1.93,3,0,3h0Z"/>
        <path class="cls-1" d="M820.7,977.21c1.93,0,1.93-3,0-3s-1.93,3,0,3h0Z"/>
        <path class="cls-1" d="M785.26,978.28c1.93,0,1.93-3,0-3s-1.93,3,0,3h0Z"/>
        <path class="cls-1" d="M813.75,1028.3c1.93,0,1.93-3,0-3s-1.93,3,0,3h0Z"/>
        <path class="cls-1" d="M898.81,928.61c1.93,0,1.93-3,0-3s-1.93,3,0,3h0Z"/>
      </g>
      <g>
        <path class="cls-1" d="M926.75,726.55c1.93,0,1.93-3,0-3s-1.93,3,0,3h0Z"/>
        <path class="cls-1" d="M700.54,354.05c1.93,0,1.93-3,0-3s-1.93,3,0,3h0Z"/>
        <path class="cls-1" d="M1186.44,256.18c1.93,0,1.93-3,0-3s-1.93,3,0,3h0Z"/>
        <path class="cls-1" d="M971.9,475.41c1.93,0,1.93-3,0-3s-1.93,3,0,3h0Z"/>
        <path class="cls-1" d="M955.86,300.12c1.93,0,1.93-3,0-3s-1.93,3,0,3h0Z"/>
        <path class="cls-1" d="M1311.4,469.83c1.93,0,1.93-3,0-3s-1.93,3,0,3h0Z"/>
        <path class="cls-1" d="M1160.53,409.61c1.93,0,1.93-3,0-3s-1.93,3,0,3h0Z"/>
        <path class="cls-1" d="M1206.09,570.14c1.93,0,1.93-3,0-3s-1.93,3,0,3h0Z"/>
        <path class="cls-1" d="M1152.25,844.67c1.93,0,1.93-3,0-3s-1.93,3,0,3h0Z"/>
        <path class="cls-1" d="M1027,626.4c1.93,0,1.93-3,0-3s-1.93,3,0,3h0Z"/>
        <path class="cls-1" d="M1138.52,706.31c1.93,0,1.93-3,0-3s-1.93,3,0,3h0Z"/>
        <path class="cls-1" d="M1352.61,723.01c1.93,0,1.93-3,0-3s-1.93,3,0,3h0Z"/>
        <path class="cls-1" d="M1362.17,551.57c1.93,0,1.93-3,0-3s-1.93,3,0,3h0Z"/>
        <path class="cls-1" d="M881.77,575.26c1.93,0,1.93-3,0-3s-1.93,3,0,3h0Z"/>
        <path class="cls-1" d="M799.05,388.09c1.93,0,1.93-3,0-3s-1.93,3,0,3h0Z"/>
        <path class="cls-1" d="M1029.92,348.78c1.93,0,1.93-3,0-3s-1.93,3,0,3h0Z"/>
        <path class="cls-1" d="M1168.05,529.65c1.93,0,1.93-3,0-3s-1.93,3,0,3h0Z"/>
        <path class="cls-1" d="M1086.46,522.85c1.93,0,1.93-3,0-3s-1.93,3,0,3h0Z"/>
        <path class="cls-1" d="M978.56,419.7c1.93,0,1.93-3,0-3s-1.93,3,0,3h0Z"/>
        <path class="cls-1" d="M891.91,413.06c1.93,0,1.93-3,0-3s-1.93,3,0,3h0Z"/>
        <path class="cls-1" d="M886.7,491.85c1.93,0,1.93-3,0-3s-1.93,3,0,3h0Z"/>
        <path class="cls-1" d="M939.93,531.88c1.93,0,1.93-3,0-3s-1.93,3,0,3h0Z"/>
        <path class="cls-1" d="M999.67,594.84c1.93,0,1.93-3,0-3s-1.93,3,0,3h0Z"/>
        <path class="cls-1" d="M939.92,693.78c1.93,0,1.93-3,0-3s-1.93,3,0,3h0Z"/>
        <path class="cls-1" d="M844.16,622.65c1.93,0,1.93-3,0-3s-1.93,3,0,3h0Z"/>
        <path class="cls-1" d="M810.18,484.9c1.93,0,1.93-3,0-3s-1.93,3,0,3h0Z"/>
        <path class="cls-1" d="M742.49,375.92c1.93,0,1.93-3,0-3s-1.93,3,0,3h0Z"/>
        <path class="cls-1" d="M703.43,400.22c1.93,0,1.93-3,0-3s-1.93,3,0,3h0Z"/>
        <path class="cls-1" d="M773.58,467.49c1.93,0,1.93-3,0-3s-1.93,3,0,3h0Z"/>
        <path class="cls-1" d="M767.5,532.44c1.93,0,1.93-3,0-3s-1.93,3,0,3h0Z"/>
        <path class="cls-1" d="M812.34,600.47c1.93,0,1.93-3,0-3s-1.93,3,0,3h0Z"/>
        <path class="cls-1" d="M1009.35,668.56c1.93,0,1.93-3,0-3s-1.93,3,0,3h0Z"/>
        <path class="cls-1" d="M1080.37,749.69c1.93,0,1.93-3,0-3s-1.93,3,0,3h0Z"/>
        <path class="cls-1" d="M1208.81,856.85c1.93,0,1.93-3,0-3s-1.93,3,0,3h0Z"/>
        <path class="cls-1" d="M1293.35,723.33l-.29-4.62c-.02-.4-.15-.77-.44-1.06-.26-.26-.69-.46-1.06-.44-.77.03-1.55.66-1.5,1.5l.29,4.62c.02.4.15.77.44,1.06.26.26.69.46,1.06.44.77-.03,1.55-.66,1.5-1.5h0Z"/>
        <path class="cls-1" d="M1153.28,617.98c1.93,0,1.93-3,0-3s-1.93,3,0,3h0Z"/>
        <path class="cls-1" d="M1070.16,567.07c-1.78-1.49-3.57-2.98-5.35-4.46-.31-.26-.64-.44-1.06-.44-.37,0-.81.16-1.06.44-.51.55-.64,1.58,0,2.12,1.78,1.49,3.57,2.98,5.35,4.46.31.26.64.44,1.06.44.37,0,.81-.16,1.06-.44.51-.55.64-1.58,0-2.12h0Z"/>
        <path class="cls-1" d="M998.08,488.5c1.93,0,1.93-3,0-3s-1.93,3,0,3h0Z"/>
        <path class="cls-1" d="M1093.99,480.99c1.93,0,1.93-3,0-3s-1.93,3,0,3h0Z"/>
        <path class="cls-1" d="M1294.05,354.71c1.93,0,1.93-3,0-3s-1.93,3,0,3h0Z"/>
        <path class="cls-1" d="M1353.06,487.08c1.93,0,1.93-3,0-3s-1.93,3,0,3h0Z"/>
        <path class="cls-1" d="M1335.12,524.63c1.93,0,1.93-3,0-3s-1.93,3,0,3h0Z"/>
        <path class="cls-1" d="M1274.22,605.1c1.93,0,1.93-3,0-3s-1.93,3,0,3h0Z"/>
        <path class="cls-1" d="M1193.06,686.17c1.93,0,1.93-3,0-3s-1.93,3,0,3h0Z"/>
        <path class="cls-1" d="M1206.65,741.27c1.93,0,1.93-3,0-3s-1.93,3,0,3h0Z"/>
        <path class="cls-1" d="M1161.09,742.64c1.93,0,1.93-3,0-3s-1.93,3,0,3h0Z"/>
        <path class="cls-1" d="M1153.56,784.5c1.93,0,1.93-3,0-3s-1.93,3,0,3h0Z"/>
        <path class="cls-1" d="M1085.61,347.1c1.93,0,1.93-3,0-3s-1.93,3,0,3h0Z"/>
        <path class="cls-1" d="M1084.01,402.66c1.93,0,1.93-3,0-3s-1.93,3,0,3h0Z"/>
        <path class="cls-1" d="M1029.48,422.8c1.93,0,1.93-3,0-3s-1.93,3,0,3h0Z"/>
        <path class="cls-1" d="M949.49,360.44c1.93,0,1.93-3,0-3s-1.93,3,0,3h0Z"/>
        <path class="cls-1" d="M856.91,340.1c1.93,0,1.93-3,0-3s-1.93,3,0,3h0Z"/>
        <path class="cls-1" d="M814.68,313.61c1.93,0,1.93-3,0-3s-1.93,3,0,3h0Z"/>
        <path class="cls-1" d="M734.54,329.9c1.93,0,1.93-3,0-3s-1.93,3,0,3h0Z"/>
        <path class="cls-1" d="M943.68,591.9c1.93,0,1.93-3,0-3s-1.93,3,0,3h0Z"/>
        <path class="cls-1" d="M911.13,639.14c1.93,0,1.93-3,0-3s-1.93,3,0,3h0Z"/>
        <path class="cls-1" d="M963.21,660.7c1.93,0,1.93-3,0-3s-1.93,3,0,3h0Z"/>
        <path class="cls-1" d="M1028.3,728.13c1.93,0,1.93-3,0-3s-1.93,3,0,3h0Z"/>
        <path class="cls-1" d="M982.73,729.5c1.93,0,1.93-3,0-3s-1.93,3,0,3h0Z"/>
        <path class="cls-1" d="M985.91,780.28c1.93,0,1.93-3,0-3s-1.93,3,0,3h0Z"/>
        <path class="cls-1" d="M1070.38,833.25c1.93,0,1.93-3,0-3s-1.93,3,0,3h0Z"/>
        <path class="cls-1" d="M1046.08,769.22c1.93,0,1.93-3,0-3s-1.93,3,0,3h0Z"/>
        <path class="cls-1" d="M1078.2,796.01c1.93,0,1.93-3,0-3s-1.93,3,0,3h0Z"/>
        <path class="cls-1" d="M1120.44,660.6c1.93,0,1.93-3,0-3s-1.93,3,0,3h0Z"/>
        <path class="cls-1" d="M1090.36,666.13c1.93,0,1.93-3,0-3s-1.93,3,0,3h0Z"/>
        <path class="cls-1" d="M1080.96,597.03c1.93,0,1.93-3,0-3s-1.93,3,0,3h0Z"/>
        <path class="cls-1" d="M1143.02,535.03c1.93,0,1.93-3,0-3s-1.93,3,0,3h0Z"/>
        <path class="cls-1" d="M997.07,553.29c1.93,0,1.93-3,0-3s-1.93,3,0,3h0Z"/>
        <path class="cls-1" d="M1051.31,528.53c1.93,0,1.93-3,0-3s-1.93,3,0,3h0Z"/>
        <path class="cls-1" d="M1046.69,454.66c1.93,0,1.93-3,0-3s-1.93,3,0,3h0Z"/>
        <path class="cls-1" d="M867.18,423.05c1.93,0,1.93-3,0-3s-1.93,3,0,3h0Z"/>
        <path class="cls-1" d="M970.04,202.55c1.93,0,1.93-3,0-3s-1.93,3,0,3h0Z"/>
        <path class="cls-1" d="M1148.25,294.34c1.93,0,1.93-3,0-3s-1.93,3,0,3h0Z"/>
        <path class="cls-1" d="M1171.97,349.13c1.93,0,1.93-3,0-3s-1.93,3,0,3h0Z"/>
        <path class="cls-1" d="M1093.42,309.86c1.93,0,1.93-3,0-3s-1.93,3,0,3h0Z"/>
        <path class="cls-1" d="M1026.45,293.37c1.93,0,1.93-3,0-3s-1.93,3,0,3h0Z"/>
        <path class="cls-1" d="M997.81,321.99c1.93,0,1.93-3,0-3s-1.93,3,0,3h0Z"/>
        <path class="cls-1" d="M922.73,338.12c1.93,0,1.93-3,0-3s-1.93,3,0,3h0Z"/>
        <path class="cls-1" d="M883.54,279.16c1.93,0,1.93-3,0-3s-1.93,3,0,3h0Z"/>
        <path class="cls-1" d="M922.88,259.48c1.93,0,1.93-3,0-3s-1.93,3,0,3h0Z"/>
        <path class="cls-1" d="M925.48,301.03c1.93,0,1.93-3,0-3s-1.93,3,0,3h0Z"/>
        <path class="cls-1" d="M880.21,307.02c1.93,0,1.93-3,0-3s-1.93,3,0,3h0Z"/>
        <path class="cls-1" d="M1126.54,433.76c1.93,0,1.93-3,0-3s-1.93,3,0,3h0Z"/>
        <path class="cls-1" d="M1138.98,470.39c1.93,0,1.93-3,0-3s-1.93,3,0,3h0Z"/>
        <path class="cls-1" d="M1187.43,515.19c1.93,0,1.93-3,0-3s-1.93,3,0,3h0Z"/>
        <path class="cls-1" d="M1160.09,483.63c1.93,0,1.93-3,0-3s-1.93,3,0,3h0Z"/>
        <path class="cls-1" d="M1188.45,450.4c1.93,0,1.93-3,0-3s-1.93,3,0,3h0Z"/>
        <path class="cls-1" d="M1248.61,601.24c1.93,0,1.93-3,0-3s-1.93,3,0,3h0Z"/>
        <path class="cls-1" d="M1193.21,607.53c1.93,0,1.93-3,0-3s-1.93,3,0,3h0Z"/>
        <path class="cls-1" d="M1226.48,652.79c1.93,0,1.93-3,0-3s-1.93,3,0,3h0Z"/>
        <path class="cls-1" d="M1259.45,693.43c1.93,0,1.93-3,0-3s-1.93,3,0,3h0Z"/>
        <path class="cls-1" d="M1292,646.19c1.93,0,1.93-3,0-3s-1.93,3,0,3h0Z"/>
        <path class="cls-1" d="M1268.57,596.01c1.93,0,1.93-3,0-3s-1.93,3,0,3h0Z"/>
        <path class="cls-1" d="M1233.29,518.44c1.93,0,1.93-3,0-3s-1.93,3,0,3h0Z"/>
        <path class="cls-1" d="M1284.2,521.53c1.93,0,1.93-3,0-3s-1.93,3,0,3h0Z"/>
        <path class="cls-1" d="M1241.83,411.79c1.93,0,1.93-3,0-3s-1.93,3,0,3h0Z"/>
        <path class="cls-1" d="M1193.09,362.37c1.93,0,1.93-3,0-3s-1.93,3,0,3h0Z"/>
        <path class="cls-1" d="M1297.37,488.76c1.93,0,1.93-3,0-3s-1.93,3,0,3h0Z"/>
        <path class="cls-1" d="M1260.64,388.1c1.93,0,1.93-3,0-3s-1.93,3,0,3h0Z"/>
        <path class="cls-1" d="M1206.54,334.22c1.93,0,1.93-3,0-3s-1.93,3,0,3h0Z"/>
        <path class="cls-1" d="M1207.27,264.81c1.93,0,1.93-3,0-3s-1.93,3,0,3h0Z"/>
        <path class="cls-1" d="M1225.04,467.8c1.93,0,1.93-3,0-3s-1.93,3,0,3h0Z"/>
        <path class="cls-1" d="M1254.84,457.66c1.93,0,1.93-3,0-3s-1.93,3,0,3h0Z"/>
        <path class="cls-1" d="M1307.36,405.2c1.93,0,1.93-3,0-3s-1.93,3,0,3h0Z"/>
        <path class="cls-1" d="M1332.37,561.72c1.93,0,1.93-3,0-3s-1.93,3,0,3h0Z"/>
        <path class="cls-1" d="M1351.03,616.66c1.93,0,1.93-3,0-3s-1.93,3,0,3h0Z"/>
        <path class="cls-1" d="M1359.27,667.3c1.93,0,1.93-3,0-3s-1.93,3,0,3h0Z"/>
        <path class="cls-1" d="M1323.83,668.36c1.93,0,1.93-3,0-3s-1.93,3,0,3h0Z"/>
        <path class="cls-1" d="M1239.34,777.29c1.93,0,1.93-3,0-3s-1.93,3,0,3h0Z"/>
        <path class="cls-1" d="M1203.9,778.36c1.93,0,1.93-3,0-3s-1.93,3,0,3h0Z"/>
        <path class="cls-1" d="M1232.39,828.38c1.93,0,1.93-3,0-3s-1.93,3,0,3h0Z"/>
        <path class="cls-1" d="M1317.46,728.69c1.93,0,1.93-3,0-3s-1.93,3,0,3h0Z"/>
      </g>
      <g>
        <path class="cls-1" d="M1476.12,994.52c1.93,0,1.93-3,0-3s-1.93,3,0,3h0Z"/>
        <path class="cls-1" d="M1731.43,940.59c1.93,0,1.93-3,0-3s-1.93,3,0,3h0Z"/>
        <path class="cls-1" d="M1574.62,1028.56c1.93,0,1.93-3,0-3s-1.93,3,0,3h0Z"/>
        <path class="cls-1" d="M1805.49,989.25c1.93,0,1.93-3,0-3s-1.93,3,0,3h0Z"/>
        <path class="cls-1" d="M1754.14,1060.18c1.93,0,1.93-3,0-3s-1.93,3,0,3h0Z"/>
        <path class="cls-1" d="M1667.49,1053.53c1.93,0,1.93-3,0-3s-1.93,3,0,3h0Z"/>
        <path class="cls-1" d="M1518.07,1016.39c1.93,0,1.93-3,0-3s-1.93,3,0,3h0Z"/>
        <path class="cls-1" d="M1479.01,1040.69c1.93,0,1.93-3,0-3s-1.93,3,0,3h0Z"/>
        <path class="cls-1" d="M1861.18,987.57c1.93,0,1.93-3,0-3s-1.93,3,0,3h0Z"/>
        <path class="cls-1" d="M1859.59,1043.13c1.93,0,1.93-3,0-3s-1.93,3,0,3h0Z"/>
        <path class="cls-1" d="M1805.05,1063.27c1.93,0,1.93-3,0-3s-1.93,3,0,3h0Z"/>
        <path class="cls-1" d="M1725.07,1000.92c1.93,0,1.93-3,0-3s-1.93,3,0,3h0Z"/>
        <path class="cls-1" d="M1632.49,980.57c1.93,0,1.93-3,0-3s-1.93,3,0,3h0Z"/>
        <path class="cls-1" d="M1590.25,954.08c1.93,0,1.93-3,0-3s-1.93,3,0,3h0Z"/>
        <path class="cls-1" d="M1510.11,970.37c1.93,0,1.93-3,0-3s-1.93,3,0,3h0Z"/>
        <path class="cls-1" d="M1642.75,1063.52c1.93,0,1.93-3,0-3s-1.93,3,0,3h0Z"/>
        <path class="cls-1" d="M1745.62,843.03c1.93,0,1.93-3,0-3s-1.93,3,0,3h0Z"/>
        <path class="cls-1" d="M1869,950.33c1.93,0,1.93-3,0-3s-1.93,3,0,3h0Z"/>
        <path class="cls-1" d="M1802.03,933.84c1.93,0,1.93-3,0-3s-1.93,3,0,3h0Z"/>
        <path class="cls-1" d="M1773.38,962.46c1.93,0,1.93-3,0-3s-1.93,3,0,3h0Z"/>
        <path class="cls-1" d="M1698.31,978.59c1.93,0,1.93-3,0-3s-1.93,3,0,3h0Z"/>
        <path class="cls-1" d="M1659.11,919.64c1.93,0,1.93-3,0-3s-1.93,3,0,3h0Z"/>
        <path class="cls-1" d="M1698.46,899.95c1.93,0,1.93-3,0-3s-1.93,3,0,3h0Z"/>
        <path class="cls-1" d="M1701.06,941.5c1.93,0,1.93-3,0-3s-1.93,3,0,3h0Z"/>
        <path class="cls-1" d="M1655.78,947.49c1.93,0,1.93-3,0-3s-1.93,3,0,3h0Z"/>
        <path class="cls-1" d="M1902.11,1074.23c1.93,0,1.93-3,0-3s-1.93,3,0,3h0Z"/>
      </g>
      <g>
        <path class="cls-1" d="M1525.16,886.66c1.93,0,1.93-3,0-3s-1.93,3,0,3h0Z"/>
        <path class="cls-1" d="M1298.96,514.15c1.93,0,1.93-3,0-3s-1.93,3,0,3h0Z"/>
        <path class="cls-1" d="M1784.86,416.29c1.93,0,1.93-3,0-3s-1.93,3,0,3h0Z"/>
        <path class="cls-1" d="M1570.32,635.51c1.93,0,1.93-3,0-3s-1.93,3,0,3h0Z"/>
        <path class="cls-1" d="M1554.28,460.22c1.93,0,1.93-3,0-3s-1.93,3,0,3h0Z"/>
        <path class="cls-1" d="M1909.82,629.94c1.93,0,1.93-3,0-3s-1.93,3,0,3h0Z"/>
        <path class="cls-1" d="M1758.95,569.71c1.93,0,1.93-3,0-3s-1.93,3,0,3h0Z"/>
        <path class="cls-1" d="M1804.5,730.24c1.93,0,1.93-3,0-3s-1.93,3,0,3h0Z"/>
        <path class="cls-1" d="M1750.67,1004.77c1.93,0,1.93-3,0-3s-1.93,3,0,3h0Z"/>
        <path class="cls-1" d="M1625.42,786.5c1.93,0,1.93-3,0-3s-1.93,3,0,3h0Z"/>
        <path class="cls-1" d="M1736.94,866.41c1.93,0,1.93-3,0-3s-1.93,3,0,3h0Z"/>
        <path class="cls-1" d="M1480.19,735.36c1.93,0,1.93-3,0-3s-1.93,3,0,3h0Z"/>
        <path class="cls-1" d="M1397.46,548.2c1.93,0,1.93-3,0-3s-1.93,3,0,3h0Z"/>
        <path class="cls-1" d="M1628.33,508.88c1.93,0,1.93-3,0-3s-1.93,3,0,3h0Z"/>
        <path class="cls-1" d="M1766.46,689.75c1.93,0,1.93-3,0-3s-1.93,3,0,3h0Z"/>
        <path class="cls-1" d="M1684.88,682.95c1.93,0,1.93-3,0-3s-1.93,3,0,3h0Z"/>
        <path class="cls-1" d="M1576.98,579.81c1.93,0,1.93-3,0-3s-1.93,3,0,3h0Z"/>
        <path class="cls-1" d="M1490.33,573.16c1.93,0,1.93-3,0-3s-1.93,3,0,3h0Z"/>
        <path class="cls-1" d="M1485.12,651.95c1.93,0,1.93-3,0-3s-1.93,3,0,3h0Z"/>
        <path class="cls-1" d="M1538.34,691.98c1.93,0,1.93-3,0-3s-1.93,3,0,3h0Z"/>
        <path class="cls-1" d="M1598.08,754.95c1.93,0,1.93-3,0-3s-1.93,3,0,3h0Z"/>
        <path class="cls-1" d="M1538.33,853.88c1.93,0,1.93-3,0-3s-1.93,3,0,3h0Z"/>
        <path class="cls-1" d="M1442.58,782.75c1.93,0,1.93-3,0-3s-1.93,3,0,3h0Z"/>
        <path class="cls-1" d="M1408.59,645c1.93,0,1.93-3,0-3s-1.93,3,0,3h0Z"/>
        <path class="cls-1" d="M1340.91,536.02c1.93,0,1.93-3,0-3s-1.93,3,0,3h0Z"/>
        <path class="cls-1" d="M1301.85,560.32c1.93,0,1.93-3,0-3s-1.93,3,0,3h0Z"/>
        <path class="cls-1" d="M1372,627.6c1.93,0,1.93-3,0-3s-1.93,3,0,3h0Z"/>
        <path class="cls-1" d="M1365.92,692.54c1.93,0,1.93-3,0-3s-1.93,3,0,3h0Z"/>
        <path class="cls-1" d="M1410.75,760.58c1.93,0,1.93-3,0-3s-1.93,3,0,3h0Z"/>
        <path class="cls-1" d="M1607.77,828.67c1.93,0,1.93-3,0-3s-1.93,3,0,3h0Z"/>
        <path class="cls-1" d="M1678.78,909.79c1.93,0,1.93-3,0-3s-1.93,3,0,3h0Z"/>
        <path class="cls-1" d="M1807.23,1016.95c1.93,0,1.93-3,0-3s-1.93,3,0,3h0Z"/>
        <path class="cls-1" d="M1891.77,883.44l-.29-4.62c-.02-.4-.15-.77-.44-1.06-.26-.26-.69-.46-1.06-.44-.77.03-1.55.66-1.5,1.5l.29,4.62c.02.4.15.77.44,1.06.26.26.69.46,1.06.44.77-.03,1.55-.66,1.5-1.5h0Z"/>
        <path class="cls-1" d="M1751.7,778.08c1.93,0,1.93-3,0-3s-1.93,3,0,3h0Z"/>
        <path class="cls-1" d="M1668.58,727.17c-1.78-1.49-3.57-2.98-5.35-4.46-.31-.26-.64-.44-1.06-.44-.37,0-.81.16-1.06.44-.51.55-.64,1.58,0,2.12,1.78,1.49,3.57,2.98,5.35,4.46.31.26.64.44,1.06.44.37,0,.81-.16,1.06-.44.51-.55.64-1.58,0-2.12h0Z"/>
        <path class="cls-1" d="M1596.5,648.6c1.93,0,1.93-3,0-3s-1.93,3,0,3h0Z"/>
        <path class="cls-1" d="M1692.4,641.1c1.93,0,1.93-3,0-3s-1.93,3,0,3h0Z"/>
        <path class="cls-1" d="M1892.47,514.82c1.93,0,1.93-3,0-3s-1.93,3,0,3h0Z"/>
        <path class="cls-1" d="M1872.63,765.2c1.93,0,1.93-3,0-3s-1.93,3,0,3h0Z"/>
        <path class="cls-1" d="M1791.47,846.27c1.93,0,1.93-3,0-3s-1.93,3,0,3h0Z"/>
        <path class="cls-1" d="M1805.07,901.37c1.93,0,1.93-3,0-3s-1.93,3,0,3h0Z"/>
        <path class="cls-1" d="M1759.5,902.74c1.93,0,1.93-3,0-3s-1.93,3,0,3h0Z"/>
        <path class="cls-1" d="M1751.98,944.6c1.93,0,1.93-3,0-3s-1.93,3,0,3h0Z"/>
        <path class="cls-1" d="M1684.02,507.2c1.93,0,1.93-3,0-3s-1.93,3,0,3h0Z"/>
        <path class="cls-1" d="M1682.43,562.76c1.93,0,1.93-3,0-3s-1.93,3,0,3h0Z"/>
        <path class="cls-1" d="M1627.89,582.9c1.93,0,1.93-3,0-3s-1.93,3,0,3h0Z"/>
        <path class="cls-1" d="M1547.91,520.55c1.93,0,1.93-3,0-3s-1.93,3,0,3h0Z"/>
        <path class="cls-1" d="M1455.33,500.2c1.93,0,1.93-3,0-3s-1.93,3,0,3h0Z"/>
        <path class="cls-1" d="M1413.09,473.72c1.93,0,1.93-3,0-3s-1.93,3,0,3h0Z"/>
        <path class="cls-1" d="M1332.95,490c1.93,0,1.93-3,0-3s-1.93,3,0,3h0Z"/>
        <path class="cls-1" d="M1542.1,752c1.93,0,1.93-3,0-3s-1.93,3,0,3h0Z"/>
        <path class="cls-1" d="M1509.55,799.24c1.93,0,1.93-3,0-3s-1.93,3,0,3h0Z"/>
        <path class="cls-1" d="M1561.62,820.8c1.93,0,1.93-3,0-3s-1.93,3,0,3h0Z"/>
        <path class="cls-1" d="M1626.71,888.23c1.93,0,1.93-3,0-3s-1.93,3,0,3h0Z"/>
        <path class="cls-1" d="M1581.14,889.6c1.93,0,1.93-3,0-3s-1.93,3,0,3h0Z"/>
        <path class="cls-1" d="M1584.32,940.39c1.93,0,1.93-3,0-3s-1.93,3,0,3h0Z"/>
        <path class="cls-1" d="M1668.8,993.36c1.93,0,1.93-3,0-3s-1.93,3,0,3h0Z"/>
        <path class="cls-1" d="M1644.5,929.33c1.93,0,1.93-3,0-3s-1.93,3,0,3h0Z"/>
        <path class="cls-1" d="M1676.61,956.12c1.93,0,1.93-3,0-3s-1.93,3,0,3h0Z"/>
        <path class="cls-1" d="M1718.86,820.7c1.93,0,1.93-3,0-3s-1.93,3,0,3h0Z"/>
        <path class="cls-1" d="M1688.77,826.23c1.93,0,1.93-3,0-3s-1.93,3,0,3h0Z"/>
        <path class="cls-1" d="M1679.38,757.13c1.93,0,1.93-3,0-3s-1.93,3,0,3h0Z"/>
        <path class="cls-1" d="M1741.44,695.13c1.93,0,1.93-3,0-3s-1.93,3,0,3h0Z"/>
        <path class="cls-1" d="M1595.48,713.39c1.93,0,1.93-3,0-3s-1.93,3,0,3h0Z"/>
        <path class="cls-1" d="M1649.73,688.64c1.93,0,1.93-3,0-3s-1.93,3,0,3h0Z"/>
        <path class="cls-1" d="M1645.1,614.76c1.93,0,1.93-3,0-3s-1.93,3,0,3h0Z"/>
        <path class="cls-1" d="M1465.59,583.15c1.93,0,1.93-3,0-3s-1.93,3,0,3h0Z"/>
        <path class="cls-1" d="M1568.46,362.66c1.93,0,1.93-3,0-3s-1.93,3,0,3h0Z"/>
        <path class="cls-1" d="M1746.66,454.44c1.93,0,1.93-3,0-3s-1.93,3,0,3h0Z"/>
        <path class="cls-1" d="M1770.38,509.23c1.93,0,1.93-3,0-3s-1.93,3,0,3h0Z"/>
        <path class="cls-1" d="M1691.84,469.96c1.93,0,1.93-3,0-3s-1.93,3,0,3h0Z"/>
        <path class="cls-1" d="M1624.87,453.47c1.93,0,1.93-3,0-3s-1.93,3,0,3h0Z"/>
        <path class="cls-1" d="M1596.22,482.09c1.93,0,1.93-3,0-3s-1.93,3,0,3h0Z"/>
        <path class="cls-1" d="M1521.15,498.22c1.93,0,1.93-3,0-3s-1.93,3,0,3h0Z"/>
        <path class="cls-1" d="M1481.95,439.27c1.93,0,1.93-3,0-3s-1.93,3,0,3h0Z"/>
        <path class="cls-1" d="M1521.3,419.58c1.93,0,1.93-3,0-3s-1.93,3,0,3h0Z"/>
        <path class="cls-1" d="M1523.9,461.13c1.93,0,1.93-3,0-3s-1.93,3,0,3h0Z"/>
        <path class="cls-1" d="M1478.62,467.12c1.93,0,1.93-3,0-3s-1.93,3,0,3h0Z"/>
        <path class="cls-1" d="M1724.95,593.86c1.93,0,1.93-3,0-3s-1.93,3,0,3h0Z"/>
        <path class="cls-1" d="M1737.39,630.49c1.93,0,1.93-3,0-3s-1.93,3,0,3h0Z"/>
        <path class="cls-1" d="M1785.85,675.29c1.93,0,1.93-3,0-3s-1.93,3,0,3h0Z"/>
        <path class="cls-1" d="M1758.51,643.74c1.93,0,1.93-3,0-3s-1.93,3,0,3h0Z"/>
        <path class="cls-1" d="M1786.86,610.5c1.93,0,1.93-3,0-3s-1.93,3,0,3h0Z"/>
        <path class="cls-1" d="M1847.03,761.34c1.93,0,1.93-3,0-3s-1.93,3,0,3h0Z"/>
        <path class="cls-1" d="M1791.62,767.63c1.93,0,1.93-3,0-3s-1.93,3,0,3h0Z"/>
        <path class="cls-1" d="M1824.89,812.89c1.93,0,1.93-3,0-3s-1.93,3,0,3h0Z"/>
        <path class="cls-1" d="M1857.87,853.53c1.93,0,1.93-3,0-3s-1.93,3,0,3h0Z"/>
        <path class="cls-1" d="M1890.42,806.29c1.93,0,1.93-3,0-3s-1.93,3,0,3h0Z"/>
        <path class="cls-1" d="M1866.99,756.12c1.93,0,1.93-3,0-3s-1.93,3,0,3h0Z"/>
        <path class="cls-1" d="M1831.7,678.54c1.93,0,1.93-3,0-3s-1.93,3,0,3h0Z"/>
        <path class="cls-1" d="M1882.62,681.64c1.93,0,1.93-3,0-3s-1.93,3,0,3h0Z"/>
        <path class="cls-1" d="M1840.24,571.89c1.93,0,1.93-3,0-3s-1.93,3,0,3h0Z"/>
        <path class="cls-1" d="M1791.5,522.48c1.93,0,1.93-3,0-3s-1.93,3,0,3h0Z"/>
        <path class="cls-1" d="M1895.78,648.86c1.93,0,1.93-3,0-3s-1.93,3,0,3h0Z"/>
        <path class="cls-1" d="M1859.05,548.2c1.93,0,1.93-3,0-3s-1.93,3,0,3h0Z"/>
        <path class="cls-1" d="M1804.96,494.32c1.93,0,1.93-3,0-3s-1.93,3,0,3h0Z"/>
        <path class="cls-1" d="M1805.68,424.91c1.93,0,1.93-3,0-3s-1.93,3,0,3h0Z"/>
        <path class="cls-1" d="M1823.46,627.91c1.93,0,1.93-3,0-3s-1.93,3,0,3h0Z"/>
        <path class="cls-1" d="M1853.26,617.76c1.93,0,1.93-3,0-3s-1.93,3,0,3h0Z"/>
        <path class="cls-1" d="M1905.77,565.3c1.93,0,1.93-3,0-3s-1.93,3,0,3h0Z"/>
        <path class="cls-1" d="M1837.75,937.4c1.93,0,1.93-3,0-3s-1.93,3,0,3h0Z"/>
        <path class="cls-1" d="M1802.31,938.46c1.93,0,1.93-3,0-3s-1.93,3,0,3h0Z"/>
        <path class="cls-1" d="M1830.81,988.49c1.93,0,1.93-3,0-3s-1.93,3,0,3h0Z"/>
        <path class="cls-1" d="M1915.87,888.79c1.93,0,1.93-3,0-3s-1.93,3,0,3h0Z"/>
      </g>
    </g>
    <path class="cls-1" d="M1426.85,145.85c1.93,0,1.93-3,0-3s-1.93,3,0,3h0Z"/>
    <path class="cls-1" d="M1616.58,305.5c1.93,0,1.93-3,0-3s-1.93,3,0,3h0Z"/>
    <path class="cls-1" d="M1743.06,249.15c1.93,0,1.93-3,0-3s-1.93,3,0,3h0Z"/>
    <path class="cls-1" d="M1670.78,192.68c2.35,0,4.61-2.07,4.5-4.5s-1.98-4.5-4.5-4.5c-2.35,0-4.61,2.07-4.5,4.5s1.98,4.5,4.5,4.5h0Z"/>
    <path class="cls-1" d="M1711.44,76.85c2.35,0,4.61-2.07,4.5-4.5s-1.98-4.5-4.5-4.5c-2.35,0-4.61,2.07-4.5,4.5s1.98,4.5,4.5,4.5h0Z"/>
    <path class="cls-1" d="M1413.3,36.15c2.35,0,4.61-2.07,4.5-4.5s-1.98-4.5-4.5-4.5c-2.35,0-4.61,2.07-4.5,4.5s1.98,4.5,4.5,4.5h0Z"/>
    <path class="cls-1" d="M934.48,186.41c2.35,0,4.61-2.07,4.5-4.5s-1.98-4.5-4.5-4.5c-2.35,0-4.61,2.07-4.5,4.5s1.98,4.5,4.5,4.5h0Z"/>
    <path class="cls-1" d="M577.62,223.98c2.35,0,4.61-2.07,4.5-4.5s-1.98-4.5-4.5-4.5c-2.35,0-4.61,2.07-4.5,4.5s1.98,4.5,4.5,4.5h0Z"/>
    <path class="cls-1" d="M690.55,205.2c2.35,0,4.61-2.07,4.5-4.5s-1.98-4.5-4.5-4.5c-2.35,0-4.61,2.07-4.5,4.5s1.98,4.5,4.5,4.5h0Z"/>
    <path class="cls-1" d="M419.51,374.24c2.35,0,4.61-2.07,4.5-4.5s-1.98-4.5-4.5-4.5c-2.35,0-4.61,2.07-4.5,4.5s1.98,4.5,4.5,4.5h0Z"/>
    <path class="cls-1" d="M600.2,740.5c2.35,0,4.61-2.07,4.5-4.5s-1.98-4.5-4.5-4.5c-2.35,0-4.61,2.07-4.5,4.5s1.98,4.5,4.5,4.5h0Z"/>
    <path class="cls-1" d="M627.31,1037.89c2.35,0,4.61-2.07,4.5-4.5s-1.98-4.5-4.5-4.5c-2.35,0-4.61,2.07-4.5,4.5s1.98,4.5,4.5,4.5h0Z"/>
    <path class="cls-1" d="M315.62,934.59c2.35,0,4.61-2.07,4.5-4.5s-1.98-4.5-4.5-4.5c-2.35,0-4.61,2.07-4.5,4.5s1.98,4.5,4.5,4.5h0Z"/>
    <path class="cls-1" d="M975.13,574.59c2.35,0,4.61-2.07,4.5-4.5s-1.98-4.5-4.5-4.5c-2.35,0-4.61,2.07-4.5,4.5s1.98,4.5,4.5,4.5h0Z"/>
    <path class="cls-1" d="M1472.03,389.89c2.35,0,4.61-2.07,4.5-4.5s-1.98-4.5-4.5-4.5c-2.35,0-4.61,2.07-4.5,4.5s1.98,4.5,4.5,4.5h0Z"/>
    <path class="cls-1" d="M1779.2,477.54c2.35,0,4.61-2.07,4.5-4.5s-1.98-4.5-4.5-4.5c-2.35,0-4.61,2.07-4.5,4.5s1.98,4.5,4.5,4.5h0Z"/>
    <path class="cls-1" d="M1756.61,715.46c2.35,0,4.61-2.07,4.5-4.5s-1.98-4.5-4.5-4.5c-2.35,0-4.61,2.07-4.5,4.5s1.98,4.5,4.5,4.5h0Z"/>
    <path class="cls-1" d="M1575.92,803.11c2.35,0,4.61-2.07,4.5-4.5s-1.98-4.5-4.5-4.5c-2.35,0-4.61,2.07-4.5,4.5s1.98,4.5,4.5,4.5h0Z"/>
    <path class="cls-1" d="M1345.54,1050.41c2.35,0,4.61-2.07,4.5-4.5s-1.98-4.5-4.5-4.5c-2.35,0-4.61,2.07-4.5,4.5s1.98,4.5,4.5,4.5h0Z"/>
    <path class="cls-1" d="M934.48,956.5c2.35,0,4.61-2.07,4.5-4.5s-1.98-4.5-4.5-4.5c-2.35,0-4.61,2.07-4.5,4.5s1.98,4.5,4.5,4.5h0Z"/>
    <path class="cls-1" d="M1309.41,1059.81c2.35,0,4.61-2.07,4.5-4.5s-1.98-4.5-4.5-4.5c-2.35,0-4.61,2.07-4.5,4.5s1.98,4.5,4.5,4.5h0Z"/>
    <path class="cls-1" d="M1598.51,1053.54c2.35,0,4.61-2.07,4.5-4.5s-1.98-4.5-4.5-4.5c-2.35,0-4.61,2.07-4.5,4.5s1.98,4.5,4.5,4.5h0Z"/>
    <path class="cls-1" d="M1770.16,1012.85c2.35,0,4.61-2.07,4.5-4.5s-1.98-4.5-4.5-4.5c-2.35,0-4.61,2.07-4.5,4.5s1.98,4.5,4.5,4.5h0Z"/>
    <path class="cls-1" d="M243.34,940.85c2.35,0,4.61-2.07,4.5-4.5s-1.98-4.5-4.5-4.5c-2.35,0-4.61,2.07-4.5,4.5s1.98,4.5,4.5,4.5h0Z"/>
    <path class="cls-1" d="M433.06,230.11c3.92,0,7.68-3.45,7.5-7.5s-3.3-7.5-7.5-7.5c-3.92,0-7.68,3.45-7.5,7.5s3.3,7.5,7.5,7.5h0Z"/>
    <path class="cls-1" d="M663.44,89.24c3.92,0,7.68-3.45,7.5-7.5s-3.3-7.5-7.5-7.5c-3.92,0-7.68,3.45-7.5,7.5s3.3,7.5,7.5,7.5h0Z"/>
    <path class="cls-1" d="M460.17,790.46c3.92,0,7.68-3.45,7.5-7.5s-3.3-7.5-7.5-7.5c-3.92,0-7.68,3.45-7.5,7.5s3.3,7.5,7.5,7.5h0Z"/>
    <path class="cls-1" d="M1268.75,699.68c3.92,0,7.68-3.45,7.5-7.5s-3.3-7.5-7.5-7.5c-3.92,0-7.68,3.45-7.5,7.5s3.3,7.5,7.5,7.5h0Z"/>
    <path class="cls-1" d="M1020.3,1084.72c3.92,0,7.68-3.45,7.5-7.5s-3.3-7.5-7.5-7.5c-3.92,0-7.68,3.45-7.5,7.5s3.3,7.5,7.5,7.5h0Z"/>
    <path class="cls-1" d="M1869.54,380.37c3.92,0,7.68-3.45,7.5-7.5s-3.3-7.5-7.5-7.5c-3.92,0-7.68,3.45-7.5,7.5s3.3,7.5,7.5,7.5h0Z"/>
    <path class="cls-1" d="M1268.75,208.2c3.92,0,7.68-3.45,7.5-7.5s-3.3-7.5-7.5-7.5c-3.92,0-7.68,3.45-7.5,7.5s3.3,7.5,7.5,7.5h0Z"/>
    <path class="cls-1" d="M717.65,615.15c3.92,0,7.68-3.45,7.5-7.5s-3.3-7.5-7.5-7.5c-3.92,0-7.68,3.45-7.5,7.5s3.3,7.5,7.5,7.5h0Z"/>
    <path class="cls-1" d="M198.17,424.2c3.92,0,7.68-3.45,7.5-7.5s-3.3-7.5-7.5-7.5c-3.92,0-7.68,3.45-7.5,7.5s3.3,7.5,7.5,7.5h0Z"/>
    <path class="cls-1" d="M1752.1,586.98c3.92,0,7.68-3.45,7.5-7.5s-3.3-7.5-7.5-7.5c-3.92,0-7.68,3.45-7.5,7.5s3.3,7.5,7.5,7.5h0Z"/>
    <path class="cls-1" d="M1164.86,112.78c3.14,0,6.15-2.76,6-6s-2.64-6-6-6c-3.14,0-6.15,2.76-6,6s2.64,6,6,6h0Z"/>
    <path class="cls-1" d="M229.79,757.65c3.14,0,6.15-2.76,6-6s-2.64-6-6-6c-3.14,0-6.15,2.76-6,6s2.64,6,6,6h0Z"/>
    <path class="cls-1" d="M821.55,967.39c3.14,0,6.15-2.76,6-6s-2.64-6-6-6c-3.14,0-6.15,2.76-6,6s2.64,6,6,6h0Z"/>
    <path class="cls-1" d="M807.99,876.61c3.14,0,6.15-2.76,6-6s-2.64-6-6-6c-3.14,0-6.15,2.76-6,6s2.64,6,6,6h0Z"/>
    <path class="cls-1" d="M1042.89,785.83c3.14,0,6.15-2.76,6-6s-2.64-6-6-6c-3.14,0-6.15,2.76-6,6s2.64,6,6,6h0Z"/>
    <path class="cls-1" d="M1449.44,951.74c3.14,0,6.15-2.76,6-6s-2.64-6-6-6c-3.14,0-6.15,2.76-6,6s2.64,6,6,6h0Z"/>
    <path class="cls-1" d="M1539.79,466.52c3.14,0,6.15-2.76,6-6s-2.64-6-6-6c-3.14,0-6.15,2.76-6,6s2.64,6,6,6h0Z"/>
    <path class="cls-1" d="M1892.13,187.91c3.14,0,6.15-2.76,6-6s-2.64-6-6-6c-3.14,0-6.15,2.76-6,6s2.64,6,6,6h0Z"/>
    <path class="cls-1" d="M1828.89,1070.7c3.14,0,6.15-2.76,6-6s-2.64-6-6-6c-3.14,0-6.15,2.76-6,6s2.64,6,6,6h0Z"/>
    <path class="cls-1" d="M880.27,284.96c3.14,0,6.15-2.76,6-6s-2.64-6-6-6c-3.14,0-6.15,2.76-6,6s2.64,6,6,6h0Z"/>
  </g>
</svg>