<svg width="149" height="106" viewBox="0 0 149 106" fill="none" xmlns="http://www.w3.org/2000/svg">
<g filter="url(#filter0_f_46_2)">
<rect width="83" height="67" rx="33.5" transform="matrix(-1 -3.8998e-09 -3.8998e-09 1 116 6)" fill="white"/>
</g>
<path d="M55.951 32.4353L55.9126 32.4102C55.6881 32.2633 55.498 32.0799 55.3891 31.8474C55.2741 31.6016 55.2717 31.3468 55.3486 31.1158C55.4864 30.7015 55.8665 30.3914 56.2033 30.181C56.565 29.955 56.9949 29.7717 57.3896 29.6505C57.767 29.5346 58.1831 29.4532 58.4991 29.4897M55.951 32.4353L58.4991 29.4897M55.951 32.4353L55.9932 32.453M55.951 32.4353L55.9932 32.453M58.4991 29.4897C59.2774 29.5793 59.9121 29.848 60.1592 30.3903M58.4991 29.4897L60.1592 30.3903M55.9932 32.453C57.4927 33.0811 59.0093 32.6221 59.757 31.8849M55.9932 32.453L59.757 31.8849M59.1467 36.5631L59.586 36.802C59.7623 36.4777 59.8645 36.1485 59.8374 35.8301C59.8083 35.4887 59.6356 35.2198 59.3852 35.0409C59.1512 34.8738 58.8668 34.7957 58.5953 34.7648C58.3185 34.7333 58.0189 34.7466 57.7221 34.7919C57.1322 34.8819 56.495 35.1071 55.9881 35.4391C55.4994 35.7592 55.0203 36.2569 54.9955 36.9219L54.9816 37.2958L55.3364 37.4146C56.128 37.6797 56.9702 37.8605 57.7112 37.8253C58.4546 37.79 59.1937 37.5265 59.5864 36.8012L59.1467 36.5631ZM59.1467 36.5631C60.3546 34.3421 55.558 35.2532 55.4952 36.9405C57.0242 37.4526 58.5951 37.582 59.1467 36.5631ZM59.757 31.8849C60.1195 31.5274 60.4209 30.9644 60.1592 30.3903M59.757 31.8849L60.1592 30.3903M63.2726 26.0912C63.8717 26.278 64.4505 26.4703 64.8734 26.6222L64.6649 26.8882L64.1876 26.786C63.0505 26.5424 62.015 26.5487 61.1843 26.8328C60.337 27.1225 59.7047 27.7045 59.4495 28.5606L59.295 29.079L59.824 29.1923C60.9611 29.4359 61.9966 29.4296 62.8274 29.1455C63.1288 29.0425 63.4029 28.9025 63.6426 28.7263C63.7163 28.9651 63.8675 29.1545 64.0127 29.2953C64.2159 29.4925 64.4736 29.6584 64.6955 29.7943C64.7615 29.8347 64.8242 29.8724 64.8838 29.9083C65.0424 30.0036 65.1794 30.086 65.2999 30.172C65.4377 30.2703 65.4829 30.3263 65.494 30.3401C65.4975 30.3444 65.4976 30.3446 65.4963 30.3407L65.4963 30.3407L65.4975 30.3442C65.7634 31.0839 65.6761 31.8228 65.5823 32.6169C65.5629 32.7812 65.5433 32.9479 65.5264 33.1174L65.5263 33.1174L65.5259 33.1225C65.4946 33.4726 65.7373 33.6855 65.8326 33.7619C65.8927 33.8099 65.9563 33.8518 66.0053 33.8834C66.0221 33.8943 66.0373 33.904 66.0514 33.913C66.0845 33.9341 66.1119 33.9517 66.141 33.9715C66.1619 33.9858 66.1783 33.9978 66.1913 34.0078C65.9937 34.488 65.7559 34.762 65.5325 34.9225C65.2999 35.0896 65.0471 35.1592 64.7935 35.1769C64.5346 35.1949 64.2853 35.1583 64.0678 35.1178C64.0417 35.113 64.0135 35.1075 63.9845 35.1019C63.908 35.0872 63.826 35.0714 63.7631 35.0624C63.7185 35.0561 63.6517 35.0482 63.5813 35.0512C63.5368 35.0531 63.3526 35.061 63.2019 35.2092L63.1709 35.2396L63.1457 35.2749C62.8659 35.6659 62.7202 36.2696 62.6729 36.804C62.6258 37.3344 62.6611 37.9588 62.8853 38.3896L62.8854 38.3897C63.1153 38.8313 63.5832 39.0639 63.8637 39.2014C63.9062 39.2222 63.9454 39.2412 63.9821 39.2589C64.0913 39.3117 64.1773 39.3532 64.2544 39.3981C64.3046 39.4274 64.332 39.4479 64.3454 39.4586C64.3237 39.499 64.2686 39.5681 64.1483 39.6748C64.0873 39.7288 64.0201 39.7837 63.9447 39.8447C63.9365 39.8513 63.9282 39.858 63.9198 39.8648C63.8536 39.9182 63.781 39.9768 63.7122 40.0358C63.5682 40.1594 63.3766 40.3369 63.265 40.5619L63.2645 40.5628C63.1586 40.7774 63.1184 40.9912 63.0979 41.1724C63.0877 41.2625 63.0818 41.3512 63.0768 41.4289L63.0755 41.4489C63.0709 41.5216 63.0669 41.5847 63.0608 41.6473C63.0363 41.8982 62.987 42.0582 62.8033 42.2138L62.8017 42.2151C62.7305 42.2759 62.6065 42.3271 62.3848 42.3528C62.2071 42.3734 62.0213 42.3734 61.8076 42.3733C61.7494 42.3733 61.6892 42.3733 61.6265 42.3737C61.3658 42.3753 61.0351 42.3835 60.7484 42.4831C60.5724 42.5442 60.4072 42.6421 60.2763 42.7856C56.6171 41.6185 53.8127 39.59 51.0404 37.5847C50.9292 37.5042 50.8181 37.4238 50.7069 37.3435C50.7192 37.3288 50.7323 37.3132 50.7468 37.296L50.751 37.291C50.7773 37.26 50.8112 37.2199 50.8415 37.1804C50.868 37.1459 50.9067 37.093 50.9396 37.029C51.0464 36.9502 51.1588 36.8682 51.2752 36.7832C51.7602 36.4291 52.3136 36.0251 52.8153 35.6059C53.478 35.0521 54.1336 34.4068 54.4425 33.7236C54.6399 33.2884 54.6509 32.8193 54.6111 32.3929C54.5822 32.0826 54.5202 31.7493 54.4625 31.4393C54.4424 31.3315 54.4229 31.2266 54.4055 31.1264C54.2585 30.2816 54.2399 29.66 54.6524 29.1804L54.6526 29.1802C54.8073 29.0001 55.0879 28.8153 55.4998 28.6302C55.9032 28.4489 56.3836 28.2882 56.8948 28.1317C57.0823 28.0743 57.2771 28.0165 57.4725 27.9586C57.7947 27.8631 58.1186 27.7671 58.4138 27.6713C58.8892 27.5172 59.3537 27.3446 59.7087 27.1337C59.9429 26.9949 60.1333 26.8397 60.2537 26.6525C60.3882 26.4435 60.4204 26.2164 60.3632 26.0057C60.3462 25.9432 60.3225 25.8871 60.297 25.8385C60.3131 25.8041 60.3277 25.7737 60.343 25.7441C60.3632 25.7051 60.3823 25.6725 60.4016 25.6443L61.1472 25.5065C61.2943 25.5315 61.5579 25.594 61.9107 25.6901C62.3108 25.799 62.7912 25.9411 63.2726 26.0912Z" stroke="black"/>
<path d="M63.1264 42.6007C62.7965 42.8797 62.2787 42.8792 61.789 42.8788C61.4491 42.8785 61.1227 42.8782 60.8824 42.9715C61.5413 43.1464 62.2246 43.2436 62.9022 43.2709M63.1264 42.6007L69.6405 30.0888C71.3092 32.2451 72.4193 38.6278 70.7018 40.2019C70.5976 40.2984 70.3605 40.2749 70.1235 40.2514C69.8839 40.2277 69.6445 40.204 69.5428 40.3043M63.1264 42.6007C63.5249 42.2632 63.55 41.8709 63.5744 41.4873C63.5898 41.2459 63.605 41.0081 63.7129 40.7895L63.1264 42.6007ZM62.9022 43.2709C62.7635 43.3126 62.6255 43.3367 62.4971 43.3515C62.2552 43.3796 61.9938 43.3792 61.7748 43.3789C61.7241 43.3788 61.6756 43.3787 61.6302 43.379C61.3563 43.3808 61.1847 43.3951 61.0757 43.433C61.0127 43.455 61.0104 43.4649 61.0033 43.4961C61.0029 43.4978 61.0025 43.4996 61.002 43.5014L60.5151 43.3878M62.9022 43.2709C63.0907 43.2143 63.2805 43.1252 63.4492 42.9825L63.4495 42.9823C63.9151 42.588 64.0194 42.1254 64.056 41.7497C64.0638 41.6695 64.0689 41.5897 64.0734 41.5198C64.0738 41.5125 64.0743 41.5054 64.0747 41.4983C64.0798 41.4199 64.0844 41.3533 64.0915 41.2901C64.1057 41.1649 64.1273 41.0796 64.1609 41.0113C64.1754 40.9824 64.2269 40.9169 64.3641 40.7987C64.4208 40.7499 64.4813 40.7009 64.5493 40.6458C64.5573 40.6393 64.5655 40.6327 64.5738 40.626C64.6489 40.565 64.7323 40.497 64.8122 40.4259C64.9629 40.292 65.152 40.1045 65.2607 39.8655C65.3863 39.5895 65.3923 39.2716 65.2152 38.9619C65.0945 38.7507 64.8972 38.6187 64.7577 38.537C64.6411 38.4687 64.5037 38.4025 64.385 38.3454C64.3556 38.3312 64.3272 38.3175 64.3007 38.3046C63.9759 38.1458 63.8267 38.0385 63.7741 37.9366C63.6852 37.761 63.6305 37.3697 63.6716 36.8968C63.6992 36.5793 63.7636 36.2985 63.8409 36.0959C63.8549 36.0985 63.8696 36.1013 63.8852 36.1041C64.1238 36.1483 64.474 36.2045 64.8625 36.1779C65.2563 36.1508 65.6992 36.0381 66.1156 35.7395C66.5325 35.4406 66.887 34.981 67.1458 34.3195L67.146 34.3189C67.2535 34.0433 67.2299 33.7723 67.0951 33.5429C66.9809 33.3487 66.8078 33.2227 66.701 33.1502C66.6593 33.1219 66.6135 33.0927 66.5769 33.0694C66.5648 33.0616 66.5537 33.0545 66.544 33.0483C66.5428 33.0475 66.5416 33.0468 66.5404 33.046C66.549 32.9711 66.5584 32.8937 66.568 32.8141C66.6644 32.0173 66.7875 31.0008 66.4396 30.0142L66.4396 30.0142L66.438 30.0098C66.3286 29.7085 66.0669 29.498 65.8773 29.363C65.723 29.2531 65.5377 29.1416 65.3699 29.0406C65.316 29.0082 65.264 28.9769 65.2153 28.947C64.9953 28.8121 64.8239 28.6958 64.7085 28.5835C64.6871 28.5626 64.6695 28.5437 64.6552 28.5268L65.7664 27.1094C65.8486 27.1807 65.9415 27.2625 66.0432 27.3532C66.4001 27.6714 66.855 28.0889 67.312 28.5157C67.7689 28.9423 68.2257 29.376 68.586 29.7264C68.7663 29.9018 68.921 30.0547 69.0389 30.1748C69.0979 30.2349 69.1461 30.2852 69.1831 30.325C69.2015 30.3449 69.2161 30.3611 69.2273 30.3738L69.2402 30.3889L69.2438 30.3933C69.2444 30.3939 69.2447 30.3944 69.2449 30.3946L69.245 30.3948L69.2451 30.3949C69.9996 31.3698 70.6783 33.4007 70.9452 35.4289C71.0773 36.4319 71.1035 37.3987 70.9994 38.1962C70.9001 38.9569 70.6927 39.4834 70.4252 39.7722M62.9022 43.2709C63.6349 43.3004 64.3609 43.2481 65.0421 43.1237C66.4369 42.869 67.5799 42.325 68.2197 41.6354L68.2207 41.6343C68.3825 41.4609 68.4777 41.2409 68.6076 40.9266C68.6111 40.9183 68.6146 40.9099 68.6181 40.9014C68.7341 40.6203 68.8902 40.2419 69.1939 39.9461M60.5151 43.3878L60.5385 43.3087C60.5294 43.3336 60.5216 43.3599 60.5151 43.3878ZM60.5151 43.3878C63.5453 44.2826 67.1061 43.5711 68.5862 41.9754C68.8178 41.7272 68.9433 41.4236 69.066 41.1265C69.1912 40.8236 69.3136 40.5275 69.5428 40.3043M69.5428 40.3043L69.1939 39.9461M69.5428 40.3043L69.1919 39.9481C69.1925 39.9474 69.1932 39.9468 69.1939 39.9461M69.1939 39.9461C69.3878 39.7567 69.6421 39.7362 69.7612 39.7318C69.8986 39.7267 70.0476 39.7415 70.1568 39.7523L70.1689 39.7535C70.2844 39.7649 70.364 39.7722 70.4252 39.7722M70.4252 39.7722C70.4322 39.7722 70.439 39.7721 70.4456 39.7719C70.4583 39.7715 70.4675 39.7708 70.4735 39.7701M70.4252 39.7722C70.4051 39.7939 70.3847 39.8142 70.3639 39.8332M70.4735 39.7701C70.455 39.7747 70.4112 39.7901 70.3639 39.8332M70.4735 39.7701C70.4801 39.7694 70.4829 39.7687 70.4827 39.7685C70.4825 39.7683 70.4792 39.7687 70.4735 39.7701ZM70.3639 39.8332L70.3639 39.8332L70.362 39.835C70.3626 39.8344 70.3633 39.8338 70.3639 39.8332ZM66.4418 32.9752C66.4421 32.9752 66.4448 32.9775 66.4491 32.982C66.4437 32.9774 66.4415 32.9752 66.4418 32.9752Z" stroke="black"/>
<path d="M56.0891 26.7734C57.0723 26.494 58.1512 26.3332 59.0956 26.3438C58.8504 26.471 58.5195 26.5957 58.1193 26.7255C57.8327 26.8184 57.5343 26.9068 57.2238 26.9987C57.0261 27.0573 56.8235 27.1173 56.6159 27.1809C56.0973 27.3397 55.5671 27.5152 55.1038 27.7235C54.6494 27.9277 54.2077 28.1854 53.9086 28.5333C53.158 29.4015 53.2863 30.4731 53.4317 31.3037C53.4543 31.4328 53.4773 31.5555 53.4994 31.6736C53.5543 31.9667 53.6038 32.2311 53.6285 32.4918C53.6623 32.8488 53.6378 33.1131 53.5457 33.3162L53.5454 33.3168C53.3378 33.7759 52.8402 34.2974 52.1856 34.8437C51.7484 35.2085 51.2801 35.554 50.8363 35.879C50.4257 34.0444 50.3971 33.0077 50.7168 32.0766C50.8991 31.5455 51.2047 31.021 51.6704 30.386C52.081 29.8261 52.5992 29.2022 53.2454 28.424C53.3367 28.314 53.4306 28.201 53.5271 28.0846L53.5273 28.0843C53.7107 27.8629 54.0359 27.6202 54.4935 27.3845C54.9441 27.1524 55.4924 26.9429 56.0891 26.7734Z" stroke="black"/>
<path d="M57.6845 30.6092C58.0288 30.5028 58.2816 30.4723 58.3865 30.4833C59.0809 30.5637 59.2297 30.7674 59.2466 30.8046C59.2494 30.8108 59.2941 30.9344 59.0524 31.1731C58.5975 31.6223 57.5339 31.9924 56.424 31.5486C56.341 31.4899 56.3093 31.4483 56.2989 31.4316C56.3228 31.3665 56.439 31.2172 56.7337 31.0331C57.0084 30.8614 57.3559 30.7107 57.6845 30.6092Z" stroke="black"/>
<path d="M58.7071 36.3258L58.7069 36.3261C58.5478 36.6215 58.2262 36.8024 57.6647 36.8285C57.2264 36.8488 56.7018 36.7683 56.1436 36.6156C56.2296 36.5065 56.357 36.3899 56.5362 36.2721C56.908 36.0277 57.4052 35.8475 57.8707 35.7764C58.1016 35.7412 58.3098 35.7352 58.4791 35.7546C58.6536 35.7746 58.7539 35.8176 58.801 35.8514C58.832 35.8735 58.837 35.8856 58.8395 35.9142C58.844 35.9655 58.8319 36.0944 58.7071 36.3258Z" stroke="black"/>
<path d="M63.3294 27.654C63.1352 27.8912 62.8599 28.0745 62.501 28.1974C62.029 28.359 61.4149 28.4127 60.6823 28.3243C60.8765 28.0871 61.1517 27.9038 61.5106 27.7809C61.9826 27.6193 62.5968 27.5656 63.3294 27.654Z" stroke="black"/>
<path d="M99.8136 28.0434C100.85 28.0956 102.07 28.3847 103.18 28.817C104.408 29.2954 105.412 29.9143 105.888 30.498L105.889 30.4988C105.934 30.5545 105.965 30.5997 105.986 30.6351C105.26 30.5762 104.578 30.7079 104.014 30.936C103.861 30.998 103.712 31.0689 103.571 31.1476C103.56 30.7565 103.303 30.4145 102.994 30.1246L102.897 30.034L102.769 30.0031C101.481 29.6934 100.264 29.5041 99.2969 29.6058C98.8087 29.6572 98.3492 29.7858 97.9715 30.0406C97.5826 30.3029 97.309 30.6802 97.177 31.1669L97.0542 31.62L97.4985 31.7712C97.78 31.8669 98.028 31.9561 98.2515 32.0364C98.6467 32.1784 98.9651 32.2929 99.2563 32.3677C99.7588 32.4968 100.219 32.5239 100.95 32.4703C100.95 32.4703 100.95 32.4703 100.95 32.4703L100.913 31.9717C102.331 31.8692 103.818 31.5835 102.652 30.4892L99.8136 28.0434ZM99.8136 28.0434C99.8202 28.0807 99.8236 28.1201 99.8227 28.1618C99.8174 28.4191 99.6573 28.5785 99.5563 28.6522C99.4548 28.7264 99.342 28.7698 99.2574 28.7969C99.0831 28.8528 98.8762 28.8852 98.7114 28.9069C98.6053 28.921 98.5293 28.9294 98.4647 28.9366C98.4037 28.9434 98.3528 28.9491 98.2964 28.9572L98.2961 28.9572C97.3727 29.0896 96.2737 29.1373 95.2257 29.1827L95.1303 29.1869C94.0361 29.2345 93.0104 29.2823 92.2266 29.4136L99.8136 28.0434ZM91.8995 44.9741L91.6325 44.5514C91.6327 44.5512 91.633 44.5511 91.6333 44.5509C91.6965 44.5111 91.7583 44.4931 91.7677 44.4904C91.7681 44.4903 91.7684 44.4902 91.7686 44.4902C91.7902 44.4837 91.8107 44.4786 91.8262 44.4751C91.8582 44.4677 91.8952 44.4605 91.9327 44.4536C92.009 44.4397 92.1096 44.4233 92.223 44.4057C92.4504 44.3704 92.7459 44.3277 93.0377 44.2854L93.0392 44.2852C93.3334 44.2426 93.6238 44.2006 93.8454 44.1662C93.9567 44.1489 94.0466 44.1342 94.1094 44.1227C94.1121 44.1222 94.1148 44.1217 94.1173 44.1213C94.3135 43.9799 94.3873 43.8346 94.4196 43.6863C94.4618 43.4924 94.4414 43.2516 94.3813 42.9262C94.3674 42.8513 94.3507 42.7691 94.3331 42.6823C94.2824 42.4324 94.2238 42.1437 94.2019 41.8764C94.1708 41.4963 94.2006 41.0624 94.4458 40.6564L94.4459 40.6562C94.6156 40.3755 94.8575 40.1938 95.0683 40.0659C95.1744 40.0015 95.2815 39.9457 95.3751 39.8978C95.3948 39.8877 95.4137 39.8781 95.4319 39.8688C95.5051 39.8315 95.5675 39.7998 95.6271 39.7665C95.7821 39.6802 95.8219 39.6337 95.8304 39.6199C95.8305 39.6189 95.8306 39.6173 95.8307 39.6152C95.8311 39.6026 95.8292 39.5631 95.8011 39.4869L95.439 38.5057L96.43 38.8401C96.6206 38.9044 96.802 38.9669 96.9756 39.0267C98.388 39.5133 99.2786 39.8201 100.336 39.4511C100.728 39.3131 100.94 39.1799 101.058 39.0706C101.166 38.9713 101.213 38.8761 101.243 38.7632C101.271 38.6566 101.281 38.5541 101.295 38.4056C101.3 38.3546 101.305 38.2982 101.312 38.2344C101.336 38.0067 101.378 37.7262 101.511 37.4278C101.74 36.9149 102.065 36.4757 102.374 36.0911C102.469 35.9719 102.561 35.8602 102.65 35.7533C102.859 35.4993 103.047 35.2722 103.208 35.0337L103.208 35.0335C103.375 34.788 103.312 34.4973 103.005 33.9633C102.97 33.901 102.929 33.8324 102.885 33.7604C102.777 33.58 102.657 33.3781 102.574 33.2012C102.467 32.9721 102.334 32.6104 102.475 32.2433L90.1421 46.2425M91.8995 44.9741C91.8541 45.0027 91.8273 45.1055 91.79 45.2486C91.6727 45.6991 91.4515 46.5487 90.2169 46.7369M91.8995 44.9741C91.9379 44.9498 92.5244 44.8649 93.1109 44.78C93.6974 44.6951 94.2838 44.6102 94.3222 44.586C95.1264 44.0758 94.9727 43.3184 94.8175 42.5538C94.7005 41.9774 94.5827 41.3968 94.8738 40.9149L91.8995 44.9741ZM90.2169 46.7369L90.1427 46.2424C90.1425 46.2424 90.1423 46.2425 90.1421 46.2425M90.2169 46.7369L90.1415 46.2426C90.1417 46.2425 90.1419 46.2425 90.1421 46.2425M90.2169 46.7369C89.8783 46.7876 89.3885 46.6777 88.8861 46.5649C88.1119 46.3911 87.3079 46.2106 86.9822 46.6017L87.0373 46.4696C86.8973 46.4111 86.761 46.3371 86.6258 46.2497C86.6305 46.2444 86.6353 46.2392 86.6402 46.2341C86.8004 46.0643 86.9976 45.9702 87.1899 45.9206C87.5515 45.8275 87.9693 45.8748 88.324 45.9371C88.5415 45.9753 88.7896 46.0308 89.0195 46.0823C89.1589 46.1134 89.2916 46.1431 89.4067 46.1666C89.7577 46.238 89.9973 46.264 90.1421 46.2425M86.0557 38.9473L85.8573 39.4063C87.0154 39.9066 88.2864 39.976 89.3643 39.7984C90.4171 39.6249 91.3962 39.1954 91.886 38.5791L92.2026 38.1807L91.7987 37.8712C91.2243 37.431 90.35 37.1991 89.4904 37.0898C88.6114 36.9779 87.661 36.9839 86.8664 37.0803C86.4692 37.1285 86.0983 37.2009 85.7882 37.2983C85.4977 37.3895 85.1868 37.5247 84.9841 37.7426C84.8738 37.8612 84.7736 38.0287 84.7606 38.2411C84.7475 38.4548 84.8272 38.6384 84.932 38.779C85.1233 39.0358 85.4604 39.2352 85.8578 39.4064L86.0557 38.9473ZM86.0557 38.9473C83.1967 37.7153 88.7814 36.9477 91.0582 38.0094C91.0743 37.9919 91.0893 37.9743 91.1031 37.9569L91.4946 38.268L91.1904 38.6649C91.1682 38.6479 91.1448 38.6311 91.1203 38.6146C90.0888 39.3556 87.8943 39.7417 86.0557 38.9473ZM80.991 36.2084L85.1102 35.2898L85.2761 35.2528L85.3851 35.1224L89.6142 30.0609C90.2762 30.0854 90.7404 29.9626 91.1414 29.8061C91.2858 29.7497 91.4066 29.6972 91.5162 29.6495C91.7623 29.5424 91.952 29.4599 92.2265 29.4136L80.991 36.2084ZM95.9146 32.8621L96.0028 32.4447L95.6045 32.2919C94.3567 31.813 92.9816 31.6534 91.7971 31.7559C91.2038 31.8072 90.6451 31.9254 90.1662 32.1115C89.6921 32.2957 89.2653 32.5588 88.9752 32.92L88.5594 33.4379L89.172 33.6943C90.4745 34.2395 91.9813 34.5262 93.2277 34.4677C93.8494 34.4385 94.4413 34.3219 94.9167 34.0795C95.4015 33.8323 95.7933 33.4361 95.9146 32.8621ZM97.1366 34.5174H96.1722L96.7445 35.3101L97.4218 36.2481L97.5186 36.3822L97.6764 36.4321C97.8932 36.5007 98.1711 36.5236 98.4307 36.5266C98.702 36.5298 98.9997 36.5113 99.2784 36.4756C99.5531 36.4404 99.8311 36.3856 100.055 36.308C100.164 36.2701 100.287 36.2179 100.393 36.1431C100.486 36.0781 100.664 35.927 100.691 35.6677L100.725 35.3497L100.45 35.1861L99.2 34.4422L99.0628 34.3606L98.9037 34.3735L97.1366 34.5174Z" stroke="black"/>
<path d="M95.1324 47.9606C95.2671 47.9375 95.5041 48.0057 95.724 48.069C95.9145 48.1239 96.0922 48.175 96.1797 48.16C97.2516 47.9613 97.9536 47.5006 98.605 47.0732C99.0312 46.7934 99.4358 46.528 99.908 46.3595C100.079 46.2973 100.485 46.2787 100.922 46.2588C101.431 46.2355 101.983 46.2102 102.254 46.1115C103.886 45.5081 104.366 44.6909 104.884 43.8075C105.097 43.4441 105.317 43.0694 105.626 42.6938M95.1324 47.9606L108.999 36.2789C108.915 37.3516 107.916 40.3435 107.351 41.2922C107.132 41.6609 106.75 41.8941 106.382 42.119C106.094 42.2952 105.813 42.4664 105.626 42.6938M95.1324 47.9606L95.0479 47.4678C94.6995 47.5275 94.5316 47.7973 94.4711 47.9034M95.1324 47.9606C95.0026 47.9828 94.9417 48.0885 94.8824 48.1914C94.8268 48.2878 94.7727 48.3818 94.6646 48.4026M95.1324 47.9606L95.0479 47.4678C95.2079 47.4403 95.3707 47.467 95.4744 47.488C95.5918 47.5116 95.7149 47.5462 95.8174 47.5756C95.8335 47.5802 95.8491 47.5847 95.8642 47.5891C95.9532 47.6147 96.0246 47.6352 96.0864 47.6497C96.1077 47.6547 96.1233 47.6579 96.134 47.6598C96.9081 47.5087 97.4681 47.207 97.9935 46.8739C98.0955 46.8092 98.1995 46.7408 98.3057 46.6709C98.7368 46.3875 99.2055 46.0793 99.7401 45.8886C99.9068 45.8286 100.135 45.8056 100.322 45.7912C100.498 45.7776 100.701 45.7683 100.901 45.7592C100.937 45.7576 100.972 45.7559 101.008 45.7543C101.247 45.7431 101.478 45.731 101.678 45.7111C101.888 45.6902 102.02 45.6646 102.082 45.6421C103.14 45.2508 103.636 44.7803 104 44.2744C104.162 44.0502 104.297 43.8195 104.449 43.5601C104.48 43.507 104.512 43.4527 104.545 43.397C104.734 43.0774 104.95 42.7289 105.24 42.3761M95.1324 47.9606L105.24 42.3761M105.626 42.6938L105.24 42.3761M105.626 42.6938L105.24 42.3759C105.24 42.376 105.24 42.376 105.24 42.3761M105.24 42.3761C105.486 42.0777 105.848 41.8581 106.127 41.6885C106.166 41.6649 106.203 41.6422 106.239 41.6204C106.57 41.4151 106.795 41.249 106.921 41.0367L106.921 41.0362C107.173 40.6132 107.55 39.6744 107.881 38.6751C108.212 37.6724 108.463 36.7088 108.5 36.2399L108.5 36.2397C108.502 36.2209 108.498 36.1473 108.453 35.9984C108.411 35.8586 108.343 35.6865 108.252 35.4854C108.069 35.0834 107.809 34.6054 107.522 34.1046C107.335 33.7783 107.133 33.438 106.936 33.1066C106.616 32.5664 106.309 32.0497 106.102 31.6549C105.471 31.5634 104.869 31.6662 104.382 31.8631C103.832 32.0858 103.508 32.3932 103.408 32.5886C103.41 32.6062 103.419 32.6617 103.473 32.7781C103.534 32.9076 103.61 33.035 103.703 33.19C103.753 33.2724 103.807 33.3626 103.866 33.4651C104.149 33.958 104.575 34.7886 104.029 35.5944C103.84 35.8744 103.607 36.1542 103.388 36.4185C103.306 36.5168 103.226 36.6129 103.151 36.7061C102.859 37.0675 102.6 37.4264 102.417 37.8358C102.344 37.9997 102.315 38.1616 102.295 38.3533C102.291 38.3876 102.288 38.426 102.284 38.4675C102.269 38.6299 102.25 38.8389 102.201 39.0284C102.131 39.2993 101.996 39.5677 101.73 39.8111C101.476 40.0435 101.126 40.2317 100.66 40.3949L100.659 40.395C99.2865 40.8744 98.0688 40.4717 96.745 40.0095C96.7293 40.0463 96.7112 40.0827 96.6905 40.1185C96.538 40.3831 96.2869 40.5399 96.1071 40.6401C96.0295 40.6834 95.9462 40.7257 95.8717 40.7636C95.8553 40.772 95.8393 40.7802 95.8238 40.7881C95.7332 40.8344 95.6535 40.8764 95.5803 40.9209C95.4325 41.0106 95.3454 41.0903 95.2951 41.1734C95.2015 41.3283 95.169 41.5225 95.191 41.7966C95.2073 42.0014 95.2474 42.2003 95.2934 42.4291C95.3134 42.5285 95.3346 42.6336 95.3554 42.7472C95.4178 43.0876 95.4743 43.4983 95.3872 43.9006C95.2934 44.3338 95.0435 44.7165 94.5832 45.0083L94.5826 45.0087C94.5192 45.0487 94.4571 45.0668 94.4477 45.0695L94.4467 45.0698C94.4252 45.0763 94.4047 45.0814 94.3892 45.085C94.3573 45.0923 94.3202 45.0996 94.2828 45.1064C94.2067 45.1204 94.1064 45.1367 93.9932 45.1543C93.7659 45.1897 93.4705 45.2325 93.1785 45.2749L93.1683 45.2764C92.878 45.3184 92.592 45.3599 92.3725 45.3939C92.3311 45.4003 92.2927 45.4064 92.2574 45.4121C92.2174 45.5651 92.1554 45.7915 92.0397 46.0272C91.7805 46.5555 91.2751 47.0803 90.2855 47.2312L90.2843 47.2313C89.9435 47.2825 89.5424 47.2157 89.2001 47.1456C89.04 47.1128 88.8918 47.0792 88.7485 47.0468C88.6638 47.0276 88.5808 47.0088 88.4981 46.9907C88.6338 47.0355 88.7724 47.0807 88.9116 47.1253C89.7 47.3785 90.4552 47.6004 90.7806 47.6639L90.7848 47.6647C90.7834 47.6643 90.7881 47.6648 90.8002 47.6661C90.8226 47.6685 90.8705 47.6736 90.9532 47.681C91.0686 47.6912 91.2244 47.7037 91.4081 47.7175C91.7751 47.7452 92.2477 47.7777 92.7198 47.8079C93.1921 47.8382 93.662 47.866 94.0237 47.8842C94.205 47.8933 94.3567 47.8999 94.4671 47.9032C94.4685 47.9033 94.4698 47.9033 94.4711 47.9034M105.24 42.3761L86.9757 46.5999C86.9068 46.6828 86.8593 46.7913 86.8379 46.9309C87.55 47.2274 89.9658 48.0145 90.6849 48.1546C90.8944 48.1978 94.4901 48.435 94.6646 48.4026M94.4711 47.9034C94.4679 47.9089 94.465 47.914 94.4624 47.9186C94.4596 47.9235 94.4572 47.9278 94.4551 47.9315C94.4245 47.9845 94.4172 47.9954 94.4174 47.9955C94.4174 47.9956 94.4179 47.995 94.4185 47.9942C94.4339 47.9765 94.4851 47.928 94.5699 47.9117L94.6646 48.4026M94.4711 47.9034C94.5247 47.9049 94.5652 47.9056 94.5931 47.9056C94.6415 47.9056 94.6165 47.903 94.5735 47.911L94.6646 48.4026" stroke="black"/>
<path d="M80.597 35.29L79.6353 35.7859C79.7508 35.5765 79.8738 35.4041 80.0078 35.2394C80.1479 35.0672 80.2994 34.904 80.4808 34.7085C80.5224 34.6637 80.5655 34.6172 80.6105 34.5685C80.8472 34.3121 81.1171 34.0122 81.4223 33.6222L81.4228 33.6216C81.6434 33.3388 81.7833 33.0411 81.8969 32.7748C81.9276 32.703 81.9558 32.635 81.9828 32.5698C82.0617 32.3797 82.1308 32.2131 82.2227 32.0426C82.4407 31.6383 82.7784 31.2347 83.6509 30.9157L83.6514 30.9156C83.9799 30.7951 84.3659 30.7778 84.8403 30.7675C84.8642 30.7669 84.8883 30.7664 84.9128 30.7659C85.3355 30.7572 85.845 30.7466 86.2966 30.5896L86.2966 30.5896L86.2986 30.5888C86.8469 30.3955 87.2126 30.0698 87.5083 29.7861C87.5465 29.7495 87.5831 29.7141 87.6185 29.6798C87.8696 29.4369 88.0608 29.2519 88.3195 29.1154C90.2008 28.1334 91.5503 27.9253 93.0641 27.9662C93.723 27.9841 94.4094 28.0489 95.1973 28.1234C95.3371 28.1366 95.4801 28.1501 95.6267 28.1637C95.6285 28.1639 95.6303 28.1641 95.632 28.1642C95.4758 28.1713 95.3188 28.1781 95.1614 28.1849L95.0938 28.1879C94.0184 28.2346 92.9251 28.2838 92.0682 28.4274C91.6597 28.4957 91.3087 28.6481 91.0248 28.7714C90.9364 28.8097 90.8545 28.8453 90.7794 28.8746C90.4479 29.004 90.0718 29.1046 89.4449 29.0479L89.1841 29.0243L89.0162 29.2253L84.7336 34.3508L80.7173 35.2464L80.6543 35.2605L80.597 35.29ZM98.215 28.3458L98.232 28.4624L98.215 28.3458Z" stroke="black"/>
<path d="M86.254 38.4883L86.2536 38.4881C86.1 38.4219 85.9886 38.3635 85.909 38.3154C85.96 38.2941 86.0197 38.2724 86.0883 38.2508C86.3225 38.177 86.6295 38.1146 86.9872 38.071C87.7023 37.9838 88.5697 37.9782 89.3641 38.0795C89.8362 38.1397 90.2547 38.2343 90.5927 38.3569C90.2468 38.5488 89.7719 38.7178 89.2018 38.8117C88.2759 38.9643 87.2045 38.899 86.254 38.4883Z" stroke="black"/>
<path d="M100.876 31.473C100.215 31.5218 99.8717 31.4924 99.5075 31.399C99.2564 31.3347 99.006 31.2445 98.6509 31.1167C98.5612 31.0844 98.4649 31.0497 98.3602 31.0125C98.4097 30.9583 98.4656 30.9111 98.5274 30.8692C98.7232 30.7367 99.0066 30.6413 99.3963 30.6004C100.157 30.5204 101.188 30.6599 102.401 30.9436C102.489 31.0357 102.533 31.0999 102.554 31.1382C102.543 31.145 102.53 31.1527 102.514 31.1614C102.383 31.2329 102.163 31.3009 101.858 31.3565C101.562 31.4105 101.223 31.4467 100.876 31.473ZM102.595 31.1059C102.595 31.1059 102.594 31.1079 102.59 31.1117C102.592 31.1077 102.594 31.1058 102.595 31.1059Z" stroke="black"/>
<path d="M91.8832 32.7541C92.7526 32.6784 93.7465 32.7638 94.689 33.0383C94.6261 33.09 94.5501 33.139 94.4592 33.1851C94.1546 33.3396 93.717 33.4393 93.1753 33.4648C92.3546 33.5033 91.3741 33.3676 90.4332 33.0844C90.4639 33.0714 90.4954 33.0585 90.5279 33.0459C90.9002 32.9015 91.3628 32.7995 91.8832 32.7541Z" stroke="black"/>
<path d="M98.113 35.5067L98.068 35.4443L98.8189 35.3832L99.0132 35.4989C98.817 35.519 98.6163 35.5288 98.4355 35.5267C98.3034 35.5252 98.1952 35.5173 98.113 35.5067Z" stroke="black"/>
<path d="M69.0712 61.0969C69.2643 61.1598 69.4564 61.2239 69.6482 61.2878C71.3049 61.8402 72.9314 62.3825 74.8733 62.1198L74.95 62.1095L75.02 62.0764C75.3547 61.9182 75.5817 61.6297 75.7441 61.3564C75.9091 61.0788 76.0431 60.7542 76.1614 60.4553C76.1846 60.3968 76.2072 60.3391 76.2294 60.2825C76.3258 60.0367 76.4152 59.8089 76.5146 59.5997C76.6149 59.3888 76.7101 59.2316 76.8034 59.1227C76.8609 59.1224 76.9343 59.1278 77.0416 59.1355L77.0473 59.1359C77.1582 59.1439 77.3121 59.155 77.4575 59.1442C77.5894 59.1343 77.8193 59.1012 78.0045 58.933C78.2958 58.6693 78.9274 58.0657 79.5173 57.4703C79.8126 57.1723 80.1015 56.8724 80.3341 56.6154C80.5506 56.3763 80.7627 56.1274 80.8594 55.949L80.8594 55.9491L80.8623 55.9435C80.9674 55.7438 80.9166 55.5454 80.904 55.4961L80.9031 55.4925C80.8859 55.4245 80.8585 55.3498 80.8391 55.2971L80.8349 55.2857C80.7894 55.1616 80.7421 55.0302 80.7129 54.8681C80.6654 54.6043 80.6597 54.2207 80.8946 53.7022C81.5367 53.6845 82.0563 53.584 82.4868 53.5008C82.6507 53.4691 82.8018 53.4399 82.9417 53.4188C83.4946 53.3352 84.0227 53.3344 84.8787 53.7193L85.5631 54.0271L85.5835 53.2769C85.6216 51.8794 85.2188 50.2141 83.4889 48.9803L83.4863 48.9785C83.2949 48.8437 82.927 48.6772 82.5397 48.5171C82.1316 48.3484 81.6406 48.1626 81.1591 47.9912C80.6778 47.8198 80.2001 47.6608 79.8186 47.5463C79.6285 47.4892 79.4565 47.4415 79.3173 47.4087C79.2481 47.3925 79.1807 47.3784 79.1198 47.369C79.072 47.3616 78.9826 47.3492 78.8907 47.3596L78.8907 47.3595L78.8801 47.3609C78.5888 47.4 78.4527 47.6257 78.4098 47.7057C78.3585 47.8014 78.3255 47.9082 78.3072 47.9677L78.3065 47.9697C78.3029 47.9814 78.2996 47.9922 78.2965 48.0022C78.2897 48.0243 78.2841 48.0425 78.2792 48.058C77.8503 48.3416 77.5069 48.4888 77.2079 48.5608C76.8968 48.6358 76.6056 48.6363 76.2755 48.5948C76.0461 48.566 75.8217 48.5212 75.5607 48.4691C75.4208 48.4412 75.2703 48.4111 75.1028 48.3803C74.6411 48.2954 74.1058 48.2172 73.4558 48.2029L73.4538 48.2029C73.3512 48.201 72.9373 48.2262 72.419 48.2608C71.8823 48.2966 71.1928 48.3456 70.505 48.3969C69.8173 48.4482 69.1298 48.5019 68.5973 48.5472C68.3314 48.5699 68.1022 48.5906 67.9304 48.608C67.8447 48.6167 67.7707 48.6248 67.7124 48.6322C67.6687 48.6377 67.5963 48.647 67.5399 48.6622L67.5367 48.6631C66.1844 49.0396 64.7466 50.1121 63.4461 51.1329C63.2706 51.2706 63.0973 51.4077 62.9262 51.5432C62.4467 51.9226 61.9838 52.2889 61.5354 52.6189C60.926 53.0676 60.3764 53.4241 59.8944 53.6357L59.8942 53.6358C59.2486 53.9196 58.3944 53.9695 57.4706 53.9608C57.2766 53.9589 57.0598 53.954 56.8437 53.9491C56.595 53.9434 56.3472 53.9378 56.1359 53.9369C55.7133 53.9351 55.2929 53.9486 54.9279 54.0171L69.0712 61.0969ZM69.0712 61.0969C68.9991 61.2048 68.9149 61.2998 68.8266 61.383C68.6181 61.5793 68.3657 61.7298 68.1406 61.8502C68.0311 61.9089 67.92 61.9644 67.8177 62.0157L67.8038 62.0226C67.6951 62.077 67.5972 62.1263 67.507 62.1753C67.316 62.2793 67.2175 62.3531 67.1736 62.4045C66.8804 62.7559 66.6807 63.2149 66.445 63.757C66.3854 63.8939 66.3236 64.0362 66.2573 64.1834C65.9531 64.8591 65.5535 65.631 64.8076 66.0797L64.8075 66.0798C64.1375 66.4825 63.2835 66.4707 62.6626 66.4081C62.3665 66.3783 62.0932 66.333 61.8851 66.2984C61.8663 66.2953 61.848 66.2923 61.8303 66.2893C61.7541 66.2768 61.6923 66.2668 61.642 66.2597C61.6391 66.2658 61.6361 66.2724 61.6329 66.2795C61.6124 66.3255 61.5945 66.3716 61.571 66.4318C61.5602 66.4596 61.5482 66.4905 61.5343 66.5257C61.4941 66.6273 61.4436 66.7486 61.3763 66.8748C61.2382 67.1342 61.0317 67.4102 60.6889 67.6364C60.3504 67.8596 59.9095 68.0142 59.3305 68.083L59.3293 68.0832C58.3979 68.1915 57.4422 67.9958 56.5603 67.7843C56.408 67.7478 56.2581 67.7109 56.1103 67.6745C55.3724 67.4928 54.6877 67.3243 54.0245 67.2823L53.7601 67.2656L53.6255 67.0374C52.6963 65.4629 51.6016 63.58 50.9269 61.6922C50.2552 59.8131 49.962 57.8271 50.7683 56.0978L50.7684 56.0975C50.9775 55.6497 51.2877 55.4056 51.5519 55.2608C51.6603 55.2014 51.7644 55.1573 51.8307 55.1292C51.8403 55.1251 51.8491 55.1214 51.857 55.118C51.8597 55.1168 51.8624 55.1157 51.8649 55.1146L52.0435 54.888L52.3895 55.0247C52.7162 55.1537 52.8903 55.1544 52.9866 55.1358C53.0809 55.1176 53.1695 55.0687 53.3131 54.9453C53.3537 54.9105 53.3975 54.87 53.4456 54.8256C53.7326 54.5605 54.1673 54.1589 54.9278 54.0171L69.0712 61.0969ZM77.4422 49.533C77.773 49.4533 78.111 49.3172 78.4729 49.1122L78.4942 49.1451L78.9188 48.8485C79.0064 48.7873 79.0641 48.7139 79.1007 48.6575C79.1379 48.6002 79.1644 48.5434 79.1831 48.498C79.1943 48.4707 79.2049 48.4419 79.2146 48.4139C79.305 48.4378 79.4113 48.4681 79.5311 48.504C79.892 48.6124 80.353 48.7657 80.8238 48.9333C81.2944 49.1008 81.7691 49.2806 82.1576 49.4412C82.5653 49.6097 82.8245 49.736 82.9099 49.7956C84.0146 50.5842 84.443 51.572 84.5543 52.533C83.8749 52.3358 83.3325 52.3483 82.7922 52.43C82.5941 52.46 82.4085 52.4958 82.2234 52.5315C82.1398 52.5477 82.0563 52.5638 81.9719 52.5793C82.0572 52.3758 82.0677 52.138 81.9563 51.8955L81.8979 51.7684L81.7819 51.69C80.5791 50.8772 79.2829 50.5335 78.1704 50.4782C77.0843 50.4242 76.0895 50.6431 75.5327 51.0588C75.2536 51.2672 74.9704 51.6227 75.0646 52.087C75.1503 52.5094 75.5125 52.795 75.9039 52.9874C76.6151 53.337 77.8531 53.5933 79.7439 53.6784L79.7371 53.6903L79.8287 53.6918C79.6605 54.2227 79.6623 54.676 79.7287 55.0452C79.7715 55.2831 79.8394 55.4752 79.8862 55.6031C79.8215 55.6846 79.7246 55.7987 79.5928 55.9443C79.3745 56.1855 79.0973 56.4735 78.807 56.7664C78.2583 57.3202 77.6766 57.8774 77.3825 58.147C77.3222 58.1514 77.241 58.1473 77.1194 58.1385C77.1102 58.1379 77.1007 58.1372 77.0909 58.1364C76.9893 58.1289 76.8537 58.119 76.7311 58.1243C76.6202 58.1291 76.373 58.1479 76.1819 58.327L76.1809 58.328C75.9314 58.5632 75.7519 58.8751 75.6115 59.1703C75.4954 59.4144 75.3902 59.683 75.2933 59.9303C75.2724 59.9838 75.2518 60.0362 75.2316 60.0873C75.1125 60.3881 75.004 60.6444 74.8844 60.8455C74.7897 61.005 74.7085 61.0938 74.6442 61.1411C72.9947 61.3406 71.6402 60.8921 70.0243 60.3569C69.6757 60.2414 69.315 60.122 68.9366 60.0041L68.3786 59.8304L68.2933 60.4085C68.283 60.478 68.2456 60.5565 68.141 60.655C68.0309 60.7587 67.8731 60.8592 67.6688 60.9686C67.5715 61.0206 67.4713 61.0708 67.3657 61.1236L67.3562 61.1284C67.2496 61.1817 67.1366 61.2384 67.0291 61.2969C66.8257 61.4076 66.5821 61.5552 66.4092 61.7598L66.4075 61.7619C66.0113 62.2358 65.7386 62.8673 65.4998 63.4203C65.447 63.5425 65.3959 63.6608 65.3455 63.7728C65.0423 64.4461 64.7472 64.9491 64.2922 65.2228C63.9219 65.4453 63.3586 65.4732 62.7629 65.4132C62.5001 65.3867 62.2567 65.3464 62.0463 65.3115C62.0283 65.3085 62.0106 65.3056 61.9932 65.3027C61.8865 65.2851 61.78 65.2679 61.6911 65.2579C61.6464 65.2529 61.5962 65.2485 61.5465 65.2479C61.5058 65.2473 61.426 65.2481 61.3392 65.2733C60.9642 65.3803 60.802 65.6877 60.7198 65.8718C60.6885 65.9418 60.657 66.023 60.6298 66.0928C60.6209 66.1159 60.6124 66.1377 60.6045 66.1575C60.569 66.2472 60.5347 66.3278 60.4937 66.4047C60.4154 66.5517 60.312 66.687 60.1382 66.8016C59.9601 66.9192 59.6777 67.0347 59.2132 67.0899C58.4761 67.1755 57.676 67.0235 56.7935 66.8119C56.6561 66.7789 56.5162 66.7444 56.3745 66.7094C55.7236 66.5486 55.0325 66.3779 54.3557 66.307C53.4554 64.7771 52.4768 63.0574 51.8685 61.3557C51.2276 59.5624 51.0356 57.8908 51.6746 56.5204C51.7726 56.3107 51.9057 56.2072 52.0325 56.1377C52.0939 56.1041 52.1498 56.0803 52.2173 56.0515C52.2282 56.0469 52.2394 56.0421 52.2511 56.0371C52.2514 56.0369 52.2518 56.0368 52.2522 56.0366C52.5889 56.1425 52.8921 56.1726 53.1763 56.1177C53.5257 56.0502 53.7749 55.867 53.9647 55.7039C54.0314 55.6466 54.0927 55.5911 54.1514 55.538C54.4304 55.2854 54.6506 55.086 55.1112 55.0001L55.1118 55C55.3786 54.9499 55.7198 54.9352 56.1316 54.9369C56.3608 54.9379 56.575 54.943 56.7992 54.9484C57.005 54.9533 57.2192 54.9584 57.4611 54.9607C58.3823 54.9695 59.4339 54.9305 60.2964 54.5513C60.8827 54.2939 61.5043 53.8836 62.1283 53.4242C62.5919 53.083 63.075 52.7007 63.5588 52.3178C63.7272 52.1845 63.8957 52.0512 64.0635 51.9195C65.3906 50.8779 66.6665 49.9489 67.7889 49.631C67.7944 49.6302 67.8093 49.6279 67.8375 49.6243C67.8841 49.6184 67.9489 49.6113 68.0312 49.6029C68.1952 49.5863 68.4182 49.5661 68.6822 49.5436C69.2097 49.4987 69.8933 49.4453 70.5793 49.3941C71.2651 49.343 71.952 49.2942 72.4856 49.2586C72.7526 49.2408 72.9803 49.2263 73.15 49.2165C73.235 49.2116 73.3042 49.2079 73.356 49.2056C73.382 49.2044 73.4024 49.2036 73.4175 49.2031C73.4303 49.2028 73.4359 49.2027 73.4367 49.2027C74.0143 49.2156 74.4922 49.2848 74.9218 49.3638C75.0529 49.3879 75.1857 49.4144 75.3184 49.4408C75.6028 49.4973 75.8866 49.5538 76.1509 49.587C76.5609 49.6385 76.98 49.6444 77.4422 49.533ZM76.7387 59.1271C76.7385 59.1269 76.7416 59.1261 76.7488 59.1253C76.7425 59.1269 76.7389 59.1273 76.7387 59.1271ZM61.5356 66.2478C61.5311 66.2479 61.5302 66.2477 61.5336 66.2478C61.534 66.2478 61.5347 66.2478 61.5356 66.2478ZM78.9518 48.3552C78.9494 48.355 78.9482 48.3549 78.9481 48.3549L78.9518 48.3552ZM77.4181 58.1422C77.4182 58.1423 77.4165 58.1428 77.4129 58.1435C77.4162 58.1425 77.418 58.1421 77.4181 58.1422ZM72.2519 52.8952L72.3399 52.4683L71.9289 52.3229C70.8491 51.9412 69.4708 51.6596 68.2572 51.6833C67.6506 51.6951 67.0553 51.7836 66.5515 51.9964C66.0409 52.2121 65.6001 52.5677 65.3728 53.1146L65.2103 53.5059L65.5696 53.7305C66.8097 54.5056 68.2795 54.9496 69.5328 54.9004C70.1618 54.8757 70.7668 54.7252 71.2581 54.3969C71.7607 54.0611 72.1155 53.5573 72.2519 52.8952ZM64.7544 58.4262L64.8206 58.0862L64.5256 57.9047C64.1397 57.6673 63.5354 57.4607 62.8872 57.3017C62.226 57.1394 61.4699 57.0151 60.751 56.962C60.0408 56.9097 59.328 56.9238 58.7713 57.0623C58.4938 57.1314 58.2155 57.2408 57.9962 57.422C57.7621 57.6155 57.6002 57.8895 57.5918 58.2321L57.5873 58.4124L57.6991 58.554C58.1216 59.0897 58.7443 59.4823 59.4115 59.7456C60.0828 60.0105 60.8322 60.1578 61.547 60.1801C62.2571 60.2022 62.9674 60.1017 63.5448 59.8388C64.1283 59.5731 64.62 59.116 64.7544 58.4262Z" stroke="black"/>
<path d="M82.9461 53.4295C83.429 53.3564 83.894 53.3466 84.5792 53.6037C84.5374 54.5971 84.4091 56.0271 84.1327 57.4011C83.9774 58.1728 83.7778 58.9146 83.5264 59.5464C83.2897 60.1414 83.02 60.6055 82.7258 60.9099C82.6646 60.9103 82.5845 60.9033 82.4688 60.8922L82.4543 60.8908C82.3457 60.8803 82.1987 60.8661 82.0637 60.8708C81.9471 60.8748 81.695 60.8935 81.5009 61.0774C81.0596 61.4938 80.8349 62.0537 80.6514 62.5107C80.6383 62.5434 80.6253 62.5757 80.6125 62.6073C80.4068 63.1156 80.2208 63.5285 79.8708 63.8439C79.7792 63.9243 79.6268 64.0092 79.4017 64.0952C79.18 64.1799 78.9221 64.2531 78.6417 64.3266C78.5666 64.3463 78.4891 64.3662 78.4104 64.3864C78.2059 64.4389 77.9941 64.4933 77.8002 64.5502C77.5327 64.6288 77.2541 64.7246 77.024 64.8552L77.0229 64.8559C76.3293 65.2521 75.7557 65.79 75.2266 66.2861C75.0551 66.447 74.8883 66.6034 74.7236 66.7492C74.0299 67.3632 73.2824 67.8907 72.1537 68.1325C71.5757 68.2553 71.188 68.2114 70.8602 68.1439C70.7736 68.1261 70.6907 68.1065 70.6027 68.0857L70.6013 68.0853C70.5163 68.0652 70.4244 68.0435 70.3323 68.0251C70.1443 67.9875 69.9334 67.959 69.6981 67.9775L69.6957 67.9777C68.8914 68.045 68.2156 68.3367 67.6546 68.612C67.5259 68.6752 67.4064 68.7355 67.2943 68.7921C66.8859 68.9983 66.575 69.1552 66.2714 69.2222L66.271 69.2223C63.0505 69.9357 59.2565 69.1955 55.9343 67.9023C55.364 67.679 55.0098 67.5136 54.7928 67.3888C55.2182 67.4645 55.6567 67.5727 56.1159 67.6861C56.2649 67.7228 56.416 67.7602 56.5696 67.7971C57.4518 68.0091 58.4081 68.2051 59.3369 68.0939C59.9155 68.0265 60.3564 67.8732 60.695 67.6507C61.0383 67.4252 61.2449 67.1492 61.3832 66.8897C61.4505 66.7633 61.5011 66.6418 61.5413 66.54C61.5555 66.5041 61.5676 66.4728 61.5786 66.4445C61.6018 66.3847 61.6196 66.3387 61.6401 66.2926C61.6437 66.2845 61.6471 66.2771 61.6503 66.2703C61.7014 66.2775 61.7642 66.2875 61.8414 66.3002C61.8601 66.3033 61.8794 66.3065 61.8994 66.3097C62.1076 66.3442 62.3801 66.3892 62.6748 66.4189C63.2948 66.4814 64.1477 66.4936 64.8148 66.0903C65.5605 65.6416 65.96 64.8698 66.2642 64.1942C66.3305 64.047 66.3924 63.9047 66.4519 63.7678C66.6876 63.2257 66.8873 62.7666 67.1806 62.4153C67.2247 62.3635 67.3236 62.2893 67.5147 62.185C67.6048 62.1357 67.7028 62.0862 67.8115 62.0316L67.8265 62.0241C67.9284 61.9728 68.039 61.9172 68.1481 61.8587C68.373 61.738 68.625 61.5875 68.8332 61.3918C68.9211 61.3091 69.0051 61.2147 69.0771 61.1073C69.2705 61.1704 69.463 61.2346 69.6551 61.2986C71.3119 61.851 72.9383 62.3933 74.8803 62.1306L74.9569 62.1203L75.0269 62.0872C75.3616 61.929 75.5886 61.6405 75.751 61.3672C75.916 61.0896 76.05 60.765 76.1683 60.4661C76.1915 60.4075 76.2141 60.3499 76.2363 60.2933C76.3327 60.0475 76.4221 59.8197 76.5215 59.6105C76.6218 59.3996 76.717 59.2424 76.8103 59.1335C76.8678 59.1332 76.9413 59.1385 77.0485 59.1463L77.0542 59.1467C77.1651 59.1547 77.319 59.1658 77.4644 59.155C77.5967 59.1451 77.8274 59.1118 78.0129 58.9425L78.0134 58.9421C78.3031 58.677 78.9338 58.0742 79.524 57.4793C79.8193 57.1817 80.1081 56.8823 80.3408 56.6258C80.5562 56.3882 80.7675 56.1407 80.8649 55.9623C80.9742 55.7635 80.9272 55.5646 80.9148 55.5119L80.9143 55.5098C80.8973 55.4376 80.8693 55.3597 80.8499 55.3056L80.8469 55.2974C80.8015 55.1709 80.7544 55.0395 80.725 54.8768C80.6775 54.6129 80.6708 54.2303 80.9028 53.7129C81.5442 53.6951 82.0626 53.5947 82.492 53.5116C82.6557 53.4799 82.8065 53.4507 82.9461 53.4295ZM82.773 60.9076C82.7786 60.9062 82.7818 60.9058 82.7821 60.9059C82.7823 60.9061 82.7795 60.9068 82.773 60.9076ZM61.5418 66.2586C61.5422 66.2586 61.5428 66.2586 61.5434 66.2586C61.5391 66.2587 61.5383 66.2585 61.5418 66.2586ZM76.7456 59.1379C76.7454 59.1377 76.7485 59.1369 76.7557 59.1361C76.7495 59.1376 76.7459 59.1381 76.7456 59.1379Z" stroke="black"/>
<path d="M66.6751 48.3021C69.9646 47.1661 73.3125 47.6883 77.1361 48.5891C76.8541 48.6464 76.5846 48.6435 76.2826 48.6056C76.0531 48.5768 75.8288 48.532 75.5678 48.4799C75.4278 48.452 75.2773 48.4219 75.1098 48.3911C74.6482 48.3062 74.1129 48.2279 73.4629 48.2137L73.4609 48.2136C73.3585 48.2118 72.945 48.2366 72.4265 48.2708C71.8897 48.3062 71.2002 48.3547 70.5122 48.4056C69.8245 48.4566 69.1368 48.5101 68.6041 48.5558C68.3381 48.5785 68.1086 48.5995 67.9363 48.6174C67.8505 48.6263 67.776 48.6347 67.7171 48.6424C67.6756 48.6478 67.603 48.6574 67.5437 48.6739C66.1913 49.0504 64.7534 50.1245 63.453 51.1458C63.28 51.2816 63.1091 51.4169 62.9403 51.5505C62.4583 51.9322 61.9931 52.3005 61.5426 52.6319C60.9332 53.0802 60.3839 53.4359 59.9024 53.646L59.9018 53.6463C59.2599 53.9276 58.4059 53.9763 57.4803 53.9675C57.2876 53.9657 57.0781 53.961 56.8691 53.9564C56.6163 53.9508 56.3641 53.9452 56.1431 53.9447C55.7197 53.9436 55.2984 53.9581 54.9328 54.0282C54.3028 54.1482 53.8956 54.4457 53.611 54.6949C54.2359 54.0584 55.0355 53.3104 55.8825 52.5947C56.5954 51.9925 57.3316 51.4219 58.0133 50.9669C58.7039 50.506 59.3049 50.1866 59.7534 50.0562L59.7538 50.0561C60.4347 49.8574 61.0964 49.8443 61.792 49.8517C61.8595 49.8524 61.9276 49.8533 61.9963 49.8543C62.6152 49.8628 63.2831 49.872 63.9345 49.724C64.6799 49.5548 65.1632 49.2471 65.5696 48.9591C65.6242 48.9204 65.6764 48.8829 65.727 48.8466C66.0559 48.6105 66.3119 48.4267 66.6741 48.3024L66.6751 48.3021Z" stroke="black"/>
<path d="M80.5592 52.5552C80.5068 52.5924 80.4389 52.6422 80.3705 52.7047C79.3184 52.6788 78.4789 52.6036 77.8231 52.4983C77.1147 52.3844 76.6422 52.2387 76.3517 52.096C76.1919 52.0176 76.1144 51.9543 76.0781 51.9174C76.0917 51.9042 76.1109 51.8876 76.1376 51.8677C76.2727 51.7669 76.5186 51.6552 76.8749 51.5767C77.2242 51.4998 77.652 51.4611 78.1277 51.4846C78.9806 51.5268 79.9653 51.7679 80.9055 52.3203C80.8593 52.3533 80.8089 52.3869 80.7512 52.4251C80.747 52.4279 80.7427 52.4307 80.7384 52.4335C80.6826 52.4705 80.6192 52.5124 80.5592 52.5552ZM76.0472 51.9566C76.0467 51.9566 76.0476 51.9538 76.0513 51.9482C76.0496 51.9538 76.0477 51.9566 76.0472 51.9566Z" stroke="black"/>
<path d="M63.6172 58.572C63.5106 58.7079 63.351 58.8281 63.13 58.9287C62.7341 59.109 62.1881 59.1996 61.5778 59.1806C60.972 59.1617 60.3368 59.0358 59.7782 58.8154C59.3363 58.641 58.9623 58.4155 58.6869 58.1554C58.7541 58.1152 58.8588 58.071 59.0125 58.0327C59.4177 57.9319 60.0075 57.91 60.6771 57.9593C61.338 58.0081 62.0389 58.1233 62.6486 58.2729C63.0324 58.367 63.3622 58.4705 63.6172 58.572Z" stroke="black"/>
<path d="M68.2765 52.6831C69.1808 52.6654 70.2212 52.8436 71.1223 53.112C71.0181 53.3019 70.8753 53.4499 70.7025 53.5654C70.4077 53.7624 69.9981 53.8814 69.4935 53.9012C68.6169 53.9356 67.546 53.6658 66.5576 53.1456C66.6593 53.059 66.786 52.9829 66.9405 52.9176C67.2856 52.7718 67.7424 52.6935 68.2765 52.6831Z" stroke="black"/>
<defs>
<filter id="filter0_f_46_2" x="0.799999" y="-26.2" width="147.4" height="131.4" filterUnits="userSpaceOnUse" color-interpolation-filters="sRGB">
<feFlood flood-opacity="0" result="BackgroundImageFix"/>
<feBlend mode="normal" in="SourceGraphic" in2="BackgroundImageFix" result="shape"/>
<feGaussianBlur stdDeviation="16.1" result="effect1_foregroundBlur_46_2"/>
</filter>
</defs>
</svg>
