<svg width="145" height="124" viewBox="0 0 145 124" fill="none" xmlns="http://www.w3.org/2000/svg">
<g clip-path="url(#clip0_78_2)">
<path d="M80.5447 24.2834C79.5682 18.5338 85.5338 12.2649 86.2481 11.5149C93.3835 4.01474 102.993 6.75585 103.117 8.80201C103.175 9.77088 101.058 9.80347 98.2047 12.9592C92.569 19.1894 93.3917 27.2844 89.4775 29.7261C86.2154 31.7597 81.3164 28.8354 80.5445 24.2865L80.5447 24.2834Z" fill="#FF4545"/>
<path d="M77.7477 66.9432C76.0288 72.516 81.1247 79.5103 81.735 80.3471C87.83 88.7147 97.715 87.2518 98.1051 85.2394C98.2892 84.2864 96.1943 83.9776 93.7778 80.4764C89.0039 73.5636 90.8765 65.6454 87.3147 62.7135C84.3461 60.2713 79.1072 62.5309 77.7479 66.94L77.7477 66.9432Z" fill="#FF4545"/>
<path d="M100.25 31.1436C100.25 31.1436 82.8389 14.3485 59.0461 17.0201C42.0414 18.9272 15.0832 30.7655 15.7071 42.6601C16.2234 52.4841 36.7082 63.5888 51.2941 68.0086C75.2046 75.2556 98.3229 62.9972 98.3229 62.9972L100.25 31.1436Z" fill="#E5E5E5"/>
<path d="M100.651 33.1317C100.651 33.1317 109.195 26.7778 110.689 26.1933C120.946 22.193 130.459 31.3022 130.459 31.3022C130.459 31.3022 127.278 30.2111 122.05 31.0968C117.334 31.8955 112.475 38.5767 112.613 39.8333C112.726 40.8661 116.131 39.1085 119.683 39.6048C129.918 41.0315 139.966 52.0233 139.966 52.0233C139.966 52.0233 130.063 57.5738 124.593 58.1707C115.965 59.116 111.165 56.8299 110.45 58.7766C109.863 60.3698 112.123 64.7845 115.367 66.6956C120.976 69.9966 127.234 71.372 127.234 71.372C127.234 71.372 124.025 72.9711 121.159 72.999C111.127 73.0904 98.4616 63.511 98.4616 63.511L100.65 33.138L100.651 33.1317Z" fill="#FF4545" stroke="#FF4545" stroke-width="6" stroke-miterlimit="10"/>
<path d="M99.9118 33.5499C99.9118 33.5499 107.206 27.3332 108.478 26.7563C117.209 22.805 125.201 31.5447 125.201 31.5447C125.201 31.5447 122.511 30.5144 118.073 31.4139C114.069 32.2243 109.896 38.7283 110.001 39.9446C110.089 40.944 112.989 39.2168 115.998 39.668C124.665 40.9664 133.099 51.5255 133.099 51.5255C133.099 51.5255 124.656 56.9749 120.014 57.5974C112.691 58.5807 108.639 56.4072 108.015 58.2964C107.505 59.8438 109.387 64.0973 112.124 65.9211C116.855 69.0693 122.149 70.3529 122.149 70.3529C122.149 70.3529 119.416 71.9261 116.985 71.9762C108.478 72.1422 97.8128 62.9701 97.8128 62.9701L99.9093 33.5561L99.9118 33.5499Z" fill="#FF8400"/>
<path d="M99.8367 35.0465C99.8367 35.0465 105.153 29.3318 106.074 28.7954C112.395 25.1115 119.768 32.5694 119.768 32.5694C119.768 32.5694 116.111 32.0217 112.911 32.888C110.025 33.6701 106.947 39.6079 107.007 40.7038C107.057 41.6087 109.164 40.0072 111.32 40.3803C117.531 41.4478 123.46 50.8966 123.46 50.8966C123.46 50.8966 117.328 55.9293 113.986 56.5514C108.714 57.5295 105.828 55.6134 105.359 57.3286C104.973 58.735 106.273 62.5598 108.217 64.1761C111.576 66.9677 115.366 68.0606 115.366 68.0606C115.366 68.0606 113.384 69.5179 111.635 69.5905C105.523 69.8468 97.973 61.6791 97.973 61.6791L99.839 35.0435L99.8367 35.0465Z" fill="#FFB517"/>
<path d="M52.8162 67.8385C44.6351 65.5562 34.5224 61.3059 27.3626 56.4747C29.5097 56.7869 31.6586 57.0738 33.812 57.3229C47.1273 58.8785 60.5268 59.3412 73.9227 59.6355C82.0801 59.8148 90.2416 59.9309 98.394 60.1861L98.1792 63.7814C98.1792 63.7814 75.9417 74.288 52.8183 67.8387L52.8162 67.8385Z" fill="#DDDDDD"/>
<path d="M94.2793 32.5965L100.004 32.9719" stroke="#FF4545" stroke-width="6" stroke-miterlimit="10"/>
<path d="M93.9028 38.3336L99.912 38.7276" stroke="#FF4545" stroke-width="6" stroke-miterlimit="10"/>
<path d="M92.9229 45.3135L99.1682 45.723" stroke="#FF4545" stroke-width="6" stroke-miterlimit="10"/>
<path d="M92.5767 50.5922L98.7952 51.4095" stroke="#FF4545" stroke-width="6" stroke-miterlimit="10"/>
<path d="M92.1831 56.5948L98.4284 57.0043" stroke="#FF4545" stroke-width="6" stroke-miterlimit="10"/>
<path d="M91.8516 62.192L98.0969 62.6015" stroke="#FF4545" stroke-width="6" stroke-miterlimit="10"/>
<path d="M94.6621 26.7583L92.1112 65.6628" stroke="#FF4545" stroke-width="6" stroke-miterlimit="10"/>
<path d="M100.25 31.1436L98.3209 62.9971" stroke="#FF4545" stroke-width="6" stroke-miterlimit="10"/>
<path d="M32.1462 59.3025C23.2982 54.3257 16.0096 48.1623 15.684 42.503C15.3103 35.9771 23.6534 29.5466 33.9651 24.9054C33.3183 36.3706 32.8035 47.8381 32.1462 59.3025Z" fill="#FF4545"/>
<path d="M32.3762 52.9496C32.2788 54.8828 32.1791 56.8191 32.0713 58.7516C28.365 56.934 25.0379 54.8715 22.8605 52.7796C26.0302 52.9874 29.2054 53.0782 32.3783 52.9497L32.3762 52.9496Z" fill="#AA0004"/>
<path d="M36.4856 50C36.339 50 36.219 49.9533 36.1256 49.86C36.0323 49.7667 35.9856 49.6467 35.9856 49.5L35.9856 39.08C35.9856 38.9333 36.0323 38.8133 36.1256 38.72C36.219 38.6267 36.339 38.58 36.4856 38.58L40.9656 38.58C42.139 38.58 43.1256 38.7467 43.9256 39.08C44.7256 39.4 45.3256 39.92 45.7256 40.64C46.1256 41.3467 46.3256 42.2933 46.3256 43.48L46.3256 49.48C46.3256 49.6133 46.279 49.7333 46.1856 49.84C46.0923 49.9467 45.9656 50 45.8056 50L36.4856 50ZM38.8856 47.38L43.2256 47.38L43.2256 43.58C43.2256 42.8067 43.0323 42.22 42.6456 41.82C42.2723 41.4067 41.679 41.2 40.8656 41.2L38.8856 41.2L38.8856 47.38ZM52.8694 50C52.576 50 52.4294 49.8533 52.4294 49.56L52.4294 43.42C52.4294 42.5667 52.516 41.9133 52.6894 41.46C52.876 41.0067 53.1694 40.78 53.5694 40.78L56.7694 40.78C56.436 40.78 56.1627 41.06 55.9494 41.62C55.7494 42.1667 55.6494 42.84 55.6494 43.64L55.6494 49.56C55.6494 49.6933 55.5894 49.8 55.4694 49.88C55.3494 49.96 55.2227 50 55.0894 50L52.8694 50ZM48.2094 41.2C48.0627 41.2 47.936 41.1533 47.8294 41.06C47.736 40.9667 47.6894 40.8467 47.6894 40.7L47.6894 39.08C47.6894 38.9333 47.736 38.8133 47.8294 38.72C47.936 38.6267 48.0627 38.58 48.2094 38.58L57.1094 38.58C57.2427 38.58 57.356 38.6267 57.4494 38.72C57.556 38.8133 57.6094 38.9333 57.6094 39.08L57.6094 40.7C57.6094 40.8333 57.5627 40.9533 57.4694 41.06C57.376 41.1533 57.256 41.2 57.1094 41.2L48.2094 41.2ZM59.9817 50C59.8351 50 59.7151 49.9533 59.6217 49.86C59.5284 49.7667 59.4817 49.6467 59.4817 49.5L59.4817 39.08C59.4817 38.9333 59.5284 38.8133 59.6217 38.72C59.7151 38.6267 59.8351 38.58 59.9817 38.58L62.3417 38.58C62.4884 38.58 62.6084 38.6267 62.7017 38.72C62.7951 38.8133 62.8417 38.9333 62.8417 39.08L62.8417 49.5C62.8417 49.6467 62.7951 49.7667 62.7017 49.86C62.6084 49.9533 62.4884 50 62.3417 50L59.9817 50ZM65.7825 53.82C65.6358 53.82 65.5158 53.7733 65.4225 53.68C65.3292 53.5867 65.2825 53.4667 65.2825 53.32L65.2825 43.58C65.2825 43.4467 65.3292 43.3333 65.4225 43.24C65.5158 43.1333 65.6358 43.08 65.7825 43.08L67.9425 43.08C68.0892 43.08 68.2092 43.1333 68.3025 43.24C68.3958 43.3333 68.4425 43.4467 68.4425 43.58L68.4425 53.32C68.4425 53.4667 68.3958 53.5867 68.3025 53.68C68.2092 53.7733 68.0892 53.82 67.9425 53.82L65.7825 53.82ZM70.5225 50.24C70.4025 50.28 70.2825 50.24 70.1625 50.12C70.0558 50 70.0025 49.8733 70.0025 49.74L70.0025 47.82C70.0025 47.6867 70.0492 47.56 70.1425 47.44C70.2358 47.32 70.3558 47.2333 70.5025 47.18L71.1425 46.92C71.5158 46.76 71.8558 46.56 72.1625 46.32C72.4825 46.0667 72.7358 45.7333 72.9225 45.32C73.1092 44.9067 73.2025 44.3667 73.2025 43.7C73.2025 43.1267 73.1358 42.6667 73.0025 42.32C72.8692 41.9733 72.6425 41.72 72.3225 41.56C72.0025 41.4 71.5625 41.32 71.0025 41.32L65.7825 41.32C65.6492 41.32 65.5292 41.2733 65.4225 41.18C65.3292 41.0867 65.2825 40.9667 65.2825 40.82L65.2825 39.06C65.2825 38.9267 65.3292 38.8133 65.4225 38.72C65.5292 38.6267 65.6492 38.58 65.7825 38.58L71.6625 38.58C72.8625 38.58 73.8158 38.7733 74.5225 39.16C75.2292 39.5333 75.7425 40.1 76.0625 40.86C76.3825 41.6067 76.5425 42.5267 76.5425 43.62C76.5425 44.5267 76.3958 45.3333 76.1025 46.04C75.8225 46.7467 75.4358 47.3667 74.9425 47.9C74.4492 48.42 73.8892 48.8533 73.2625 49.2C72.6492 49.5467 72.0092 49.8133 71.3425 50L70.5225 50.24ZM86.4238 50C86.2771 50 86.1504 49.9533 86.0438 49.86C85.9504 49.7667 85.9038 49.6533 85.9038 49.52L85.9038 43.58C85.9038 42.8067 85.7171 42.22 85.3438 41.82C84.9704 41.4067 84.3704 41.2 83.5438 41.2L79.0638 41.2C78.9171 41.2 78.7971 41.1533 78.7038 41.06C78.6104 40.9667 78.5638 40.8467 78.5638 40.7L78.5638 39.08C78.5638 38.9333 78.6104 38.8133 78.7038 38.72C78.7971 38.6267 78.9171 38.58 79.0638 38.58L83.6438 38.58C85.4438 38.58 86.8104 38.9867 87.7438 39.8C88.6904 40.6 89.1638 41.86 89.1638 43.58L89.1638 49.5C89.1638 49.6467 89.1104 49.7667 89.0038 49.86C88.9104 49.9533 88.7904 50 88.6438 50L86.4238 50ZM79.0638 50C78.9171 50 78.7971 49.9533 78.7038 49.86C78.6104 49.7667 78.5638 49.6467 78.5638 49.5L78.5638 43.58C78.5638 43.4467 78.6104 43.3333 78.7038 43.24C78.7971 43.1333 78.9171 43.08 79.0638 43.08L81.3038 43.08C81.4504 43.08 81.5704 43.1333 81.6638 43.24C81.7571 43.3333 81.8038 43.4467 81.8038 43.58L81.8038 49.5C81.8038 49.6467 81.7571 49.7667 81.6638 49.86C81.5704 49.9533 81.4504 50 81.3038 50L79.0638 50Z" fill="black"/>
</g>
<defs>
<clipPath id="clip0_78_2">
<rect width="174.826" height="146.968" fill="white" transform="matrix(-0.0654278 0.997857 0.997857 0.0654278 -2.56152 0)"/>
</clipPath>
</defs>
</svg>
