<svg width="128" height="110" viewBox="0 0 128 110" fill="none" xmlns="http://www.w3.org/2000/svg">
<g filter="url(#filter0_f_46_2)">
<rect width="83" height="67" rx="33.5" transform="matrix(-1 -3.8998e-09 -3.8998e-09 1 116 10)" fill="white"/>
</g>
<path d="M55.951 36.4353L55.9126 36.4102C55.6881 36.2633 55.498 36.0799 55.3891 35.8474C55.2741 35.6016 55.2717 35.3468 55.3486 35.1158C55.4864 34.7015 55.8665 34.3914 56.2033 34.181C56.565 33.955 56.9949 33.7717 57.3896 33.6505C57.767 33.5346 58.1831 33.4532 58.4991 33.4897M55.951 36.4353L58.4991 33.4897M55.951 36.4353L55.9932 36.453M55.951 36.4353L55.9932 36.453M58.4991 33.4897C59.2774 33.5793 59.9121 33.848 60.1592 34.3903M58.4991 33.4897L60.1592 34.3903M55.9932 36.453C57.4927 37.0811 59.0093 36.6221 59.757 35.8849M55.9932 36.453L59.757 35.8849M59.1467 40.5631L59.586 40.802C59.7623 40.4777 59.8645 40.1485 59.8374 39.8301C59.8083 39.4887 59.6356 39.2198 59.3852 39.0409C59.1512 38.8738 58.8668 38.7957 58.5953 38.7648C58.3185 38.7333 58.0189 38.7466 57.7221 38.7919C57.1322 38.8819 56.495 39.1071 55.9881 39.4391C55.4994 39.7592 55.0203 40.2569 54.9955 40.9219L54.9816 41.2958L55.3364 41.4146C56.128 41.6797 56.9702 41.8605 57.7112 41.8253C58.4546 41.79 59.1937 41.5265 59.5864 40.8012L59.1467 40.5631ZM59.1467 40.5631C60.3546 38.3421 55.558 39.2532 55.4952 40.9405C57.0242 41.4526 58.5951 41.582 59.1467 40.5631ZM59.757 35.8849C60.1195 35.5274 60.4209 34.9644 60.1592 34.3903M59.757 35.8849L60.1592 34.3903M63.2726 30.0912C63.8717 30.278 64.4505 30.4703 64.8734 30.6222L64.6649 30.8882L64.1876 30.786C63.0505 30.5424 62.015 30.5487 61.1843 30.8328C60.337 31.1225 59.7047 31.7045 59.4495 32.5606L59.295 33.079L59.824 33.1923C60.9611 33.4359 61.9966 33.4296 62.8274 33.1455C63.1288 33.0425 63.4029 32.9025 63.6426 32.7263C63.7163 32.9651 63.8675 33.1545 64.0127 33.2953C64.2159 33.4925 64.4736 33.6584 64.6955 33.7943C64.7615 33.8347 64.8242 33.8724 64.8838 33.9083C65.0424 34.0036 65.1794 34.086 65.2999 34.172C65.4377 34.2703 65.4829 34.3263 65.494 34.3401C65.4975 34.3444 65.4976 34.3446 65.4963 34.3407L65.4963 34.3407L65.4975 34.3442C65.7634 35.0839 65.6761 35.8228 65.5823 36.6169C65.5629 36.7812 65.5433 36.9479 65.5264 37.1174L65.5263 37.1174L65.5259 37.1225C65.4946 37.4726 65.7373 37.6855 65.8326 37.7619C65.8927 37.8099 65.9563 37.8518 66.0053 37.8834C66.0221 37.8943 66.0373 37.904 66.0514 37.913C66.0845 37.9341 66.1119 37.9517 66.141 37.9715C66.1619 37.9858 66.1783 37.9978 66.1913 38.0078C65.9937 38.488 65.7559 38.762 65.5325 38.9225C65.2999 39.0896 65.0471 39.1592 64.7935 39.1769C64.5346 39.1949 64.2853 39.1583 64.0678 39.1178C64.0417 39.113 64.0135 39.1075 63.9845 39.1019C63.908 39.0872 63.826 39.0714 63.7631 39.0624C63.7185 39.0561 63.6517 39.0482 63.5813 39.0512C63.5368 39.0531 63.3526 39.061 63.2019 39.2092L63.1709 39.2396L63.1457 39.2749C62.8659 39.6659 62.7202 40.2696 62.6729 40.804C62.6258 41.3344 62.6611 41.9588 62.8853 42.3896L62.8854 42.3897C63.1153 42.8313 63.5832 43.0639 63.8637 43.2014C63.9062 43.2222 63.9454 43.2412 63.9821 43.2589C64.0913 43.3117 64.1773 43.3532 64.2544 43.3981C64.3046 43.4274 64.332 43.4479 64.3454 43.4586C64.3237 43.499 64.2686 43.5681 64.1483 43.6748C64.0873 43.7288 64.0201 43.7837 63.9447 43.8447C63.9365 43.8513 63.9282 43.858 63.9198 43.8648C63.8536 43.9182 63.781 43.9768 63.7122 44.0358C63.5682 44.1594 63.3766 44.3369 63.265 44.5619L63.2645 44.5628C63.1586 44.7774 63.1184 44.9912 63.0979 45.1724C63.0877 45.2625 63.0818 45.3512 63.0768 45.4289L63.0755 45.4489C63.0709 45.5216 63.0669 45.5847 63.0608 45.6473C63.0363 45.8982 62.987 46.0582 62.8033 46.2138L62.8017 46.2151C62.7305 46.2759 62.6065 46.3271 62.3848 46.3528C62.2071 46.3734 62.0213 46.3734 61.8076 46.3733C61.7494 46.3733 61.6892 46.3733 61.6265 46.3737C61.3658 46.3753 61.0351 46.3835 60.7484 46.4831C60.5724 46.5442 60.4072 46.6421 60.2763 46.7856C56.6171 45.6185 53.8127 43.59 51.0404 41.5847C50.9292 41.5042 50.8181 41.4238 50.7069 41.3435C50.7192 41.3288 50.7323 41.3132 50.7468 41.296L50.751 41.291C50.7773 41.26 50.8112 41.2199 50.8415 41.1804C50.868 41.1459 50.9067 41.093 50.9396 41.029C51.0464 40.9502 51.1588 40.8682 51.2752 40.7832C51.7602 40.4291 52.3136 40.0251 52.8153 39.6059C53.478 39.0521 54.1336 38.4068 54.4425 37.7236C54.6399 37.2884 54.6509 36.8193 54.6111 36.3929C54.5822 36.0826 54.5202 35.7493 54.4625 35.4393C54.4424 35.3315 54.4229 35.2266 54.4055 35.1264C54.2585 34.2816 54.2399 33.66 54.6524 33.1804L54.6526 33.1802C54.8073 33.0001 55.0879 32.8153 55.4998 32.6302C55.9032 32.4489 56.3836 32.2882 56.8948 32.1317C57.0823 32.0743 57.2771 32.0165 57.4725 31.9586C57.7947 31.8631 58.1186 31.7671 58.4138 31.6713C58.8892 31.5172 59.3537 31.3446 59.7087 31.1337C59.9429 30.9949 60.1333 30.8397 60.2537 30.6525C60.3882 30.4435 60.4204 30.2164 60.3632 30.0057C60.3462 29.9432 60.3225 29.8871 60.297 29.8385C60.3131 29.8041 60.3277 29.7737 60.343 29.7441C60.3632 29.7051 60.3823 29.6725 60.4016 29.6443L61.1472 29.5065C61.2943 29.5315 61.5579 29.594 61.9107 29.6901C62.3108 29.799 62.7912 29.9411 63.2726 30.0912Z" stroke="black"/>
<path d="M63.1264 46.6007C62.7965 46.8797 62.2787 46.8792 61.789 46.8788C61.4491 46.8785 61.1227 46.8782 60.8824 46.9715C61.5413 47.1464 62.2246 47.2436 62.9022 47.2709M63.1264 46.6007L69.6405 34.0888C71.3092 36.2451 72.4193 42.6278 70.7018 44.2019C70.5976 44.2984 70.3605 44.2749 70.1235 44.2514C69.8839 44.2277 69.6445 44.204 69.5428 44.3043M63.1264 46.6007C63.5249 46.2632 63.55 45.8709 63.5744 45.4873C63.5898 45.2459 63.605 45.0081 63.7129 44.7895L63.1264 46.6007ZM62.9022 47.2709C62.7635 47.3126 62.6255 47.3367 62.4971 47.3515C62.2552 47.3796 61.9938 47.3792 61.7748 47.3789C61.7241 47.3788 61.6756 47.3787 61.6302 47.379C61.3563 47.3808 61.1847 47.3951 61.0757 47.433C61.0127 47.455 61.0104 47.4649 61.0033 47.4961C61.0029 47.4978 61.0025 47.4996 61.002 47.5014L60.5151 47.3878M62.9022 47.2709C63.0907 47.2143 63.2805 47.1252 63.4492 46.9825L63.4495 46.9823C63.9151 46.588 64.0194 46.1254 64.056 45.7497C64.0638 45.6695 64.0689 45.5897 64.0734 45.5198C64.0738 45.5125 64.0743 45.5054 64.0747 45.4983C64.0798 45.4199 64.0844 45.3533 64.0915 45.2901C64.1057 45.1649 64.1273 45.0796 64.1609 45.0113C64.1754 44.9824 64.2269 44.9169 64.3641 44.7987C64.4208 44.7499 64.4813 44.7009 64.5493 44.6458C64.5573 44.6393 64.5655 44.6327 64.5738 44.626C64.6489 44.565 64.7323 44.497 64.8122 44.4259C64.9629 44.292 65.152 44.1045 65.2607 43.8655C65.3863 43.5895 65.3923 43.2716 65.2152 42.9619C65.0945 42.7507 64.8972 42.6187 64.7577 42.537C64.6411 42.4687 64.5037 42.4025 64.385 42.3454C64.3556 42.3312 64.3272 42.3175 64.3007 42.3046C63.9759 42.1458 63.8267 42.0385 63.7741 41.9366C63.6852 41.761 63.6305 41.3697 63.6716 40.8968C63.6992 40.5793 63.7636 40.2985 63.8409 40.0959C63.8549 40.0985 63.8696 40.1013 63.8852 40.1041C64.1238 40.1483 64.474 40.2045 64.8625 40.1779C65.2563 40.1508 65.6992 40.0381 66.1156 39.7395C66.5325 39.4406 66.887 38.981 67.1458 38.3195L67.146 38.3189C67.2535 38.0433 67.2299 37.7723 67.0951 37.5429C66.9809 37.3487 66.8078 37.2227 66.701 37.1502C66.6593 37.1219 66.6135 37.0927 66.5769 37.0694C66.5648 37.0616 66.5537 37.0545 66.544 37.0483C66.5428 37.0475 66.5416 37.0468 66.5404 37.046C66.549 36.9711 66.5584 36.8937 66.568 36.8141C66.6644 36.0173 66.7875 35.0008 66.4396 34.0142L66.4396 34.0142L66.438 34.0098C66.3286 33.7085 66.0669 33.498 65.8773 33.363C65.723 33.2531 65.5377 33.1416 65.3699 33.0406C65.316 33.0082 65.264 32.9769 65.2153 32.947C64.9953 32.8121 64.8239 32.6958 64.7085 32.5835C64.6871 32.5626 64.6695 32.5437 64.6552 32.5268L65.7664 31.1094C65.8486 31.1807 65.9415 31.2625 66.0432 31.3532C66.4001 31.6714 66.855 32.0889 67.312 32.5157C67.7689 32.9423 68.2257 33.376 68.586 33.7264C68.7663 33.9018 68.921 34.0547 69.0389 34.1748C69.0979 34.2349 69.1461 34.2852 69.1831 34.325C69.2015 34.3449 69.2161 34.3611 69.2273 34.3738L69.2402 34.3889L69.2438 34.3933C69.2444 34.3939 69.2447 34.3944 69.2449 34.3946L69.245 34.3948L69.2451 34.3949C69.9996 35.3698 70.6783 37.4007 70.9452 39.4289C71.0773 40.4319 71.1035 41.3987 70.9994 42.1962C70.9001 42.9569 70.6927 43.4834 70.4252 43.7722M62.9022 47.2709C63.6349 47.3004 64.3609 47.2481 65.0421 47.1237C66.4369 46.869 67.5799 46.325 68.2197 45.6354L68.2207 45.6343C68.3825 45.4609 68.4777 45.2409 68.6076 44.9266C68.6111 44.9183 68.6146 44.9099 68.6181 44.9014C68.7341 44.6203 68.8902 44.2419 69.1939 43.9461M60.5151 47.3878L60.5385 47.3087C60.5294 47.3336 60.5216 47.3599 60.5151 47.3878ZM60.5151 47.3878C63.5453 48.2826 67.1061 47.5711 68.5862 45.9754C68.8178 45.7272 68.9433 45.4236 69.066 45.1265C69.1912 44.8236 69.3136 44.5275 69.5428 44.3043M69.5428 44.3043L69.1939 43.9461M69.5428 44.3043L69.1919 43.9481C69.1925 43.9474 69.1932 43.9468 69.1939 43.9461M69.1939 43.9461C69.3878 43.7567 69.6421 43.7362 69.7612 43.7318C69.8986 43.7267 70.0476 43.7415 70.1568 43.7523L70.1689 43.7535C70.2844 43.7649 70.364 43.7722 70.4252 43.7722M70.4252 43.7722C70.4322 43.7722 70.439 43.7721 70.4456 43.7719C70.4583 43.7715 70.4675 43.7708 70.4735 43.7701M70.4252 43.7722C70.4051 43.7939 70.3847 43.8142 70.3639 43.8332M70.4735 43.7701C70.455 43.7747 70.4112 43.7901 70.3639 43.8332M70.4735 43.7701C70.4801 43.7694 70.4829 43.7687 70.4827 43.7685C70.4825 43.7683 70.4792 43.7687 70.4735 43.7701ZM70.3639 43.8332L70.3639 43.8332L70.362 43.835C70.3626 43.8344 70.3633 43.8338 70.3639 43.8332ZM66.4418 36.9752C66.4421 36.9752 66.4448 36.9775 66.4491 36.982C66.4437 36.9774 66.4415 36.9752 66.4418 36.9752Z" stroke="black"/>
<path d="M56.0891 30.7734C57.0723 30.494 58.1512 30.3332 59.0956 30.3438C58.8504 30.471 58.5195 30.5957 58.1193 30.7255C57.8327 30.8184 57.5343 30.9068 57.2238 30.9987C57.0261 31.0573 56.8235 31.1173 56.6159 31.1809C56.0973 31.3397 55.5671 31.5152 55.1038 31.7235C54.6494 31.9277 54.2077 32.1854 53.9086 32.5333C53.158 33.4015 53.2863 34.4731 53.4317 35.3037C53.4543 35.4328 53.4773 35.5555 53.4994 35.6736C53.5543 35.9667 53.6038 36.2311 53.6285 36.4918C53.6623 36.8488 53.6378 37.1131 53.5457 37.3162L53.5454 37.3168C53.3378 37.7759 52.8402 38.2974 52.1856 38.8437C51.7484 39.2085 51.2801 39.554 50.8363 39.879C50.4257 38.0444 50.3971 37.0077 50.7168 36.0766C50.8991 35.5455 51.2047 35.021 51.6704 34.386C52.081 33.8261 52.5992 33.2022 53.2454 32.424C53.3367 32.314 53.4306 32.201 53.5271 32.0846L53.5273 32.0843C53.7107 31.8629 54.0359 31.6202 54.4935 31.3845C54.9441 31.1524 55.4924 30.9429 56.0891 30.7734Z" stroke="black"/>
<path d="M57.6845 34.6092C58.0288 34.5028 58.2816 34.4723 58.3865 34.4833C59.0809 34.5637 59.2297 34.7674 59.2466 34.8046C59.2494 34.8108 59.2941 34.9344 59.0524 35.1731C58.5975 35.6223 57.5339 35.9924 56.424 35.5486C56.341 35.4899 56.3093 35.4483 56.2989 35.4316C56.3228 35.3665 56.439 35.2172 56.7337 35.0331C57.0084 34.8614 57.3559 34.7107 57.6845 34.6092Z" stroke="black"/>
<path d="M58.7071 40.3258L58.7069 40.3261C58.5478 40.6215 58.2262 40.8024 57.6647 40.8285C57.2264 40.8488 56.7018 40.7683 56.1436 40.6156C56.2296 40.5065 56.357 40.3899 56.5362 40.2721C56.908 40.0277 57.4052 39.8475 57.8707 39.7764C58.1016 39.7412 58.3098 39.7352 58.4791 39.7546C58.6536 39.7746 58.7539 39.8176 58.801 39.8514C58.832 39.8735 58.837 39.8856 58.8395 39.9142C58.844 39.9655 58.8319 40.0944 58.7071 40.3258Z" stroke="black"/>
<path d="M63.3294 31.654C63.1352 31.8912 62.8599 32.0745 62.501 32.1974C62.029 32.359 61.4149 32.4127 60.6823 32.3243C60.8765 32.0871 61.1517 31.9038 61.5106 31.7809C61.9826 31.6193 62.5968 31.5656 63.3294 31.654Z" stroke="black"/>
<path d="M99.8136 32.0434C100.85 32.0956 102.07 32.3847 103.18 32.817C104.408 33.2954 105.412 33.9143 105.888 34.498L105.889 34.4988C105.934 34.5545 105.965 34.5997 105.986 34.6351C105.26 34.5762 104.578 34.7079 104.014 34.936C103.861 34.998 103.712 35.0689 103.571 35.1476C103.56 34.7565 103.303 34.4145 102.994 34.1246L102.897 34.034L102.769 34.0031C101.481 33.6934 100.264 33.5041 99.2969 33.6058C98.8087 33.6572 98.3492 33.7858 97.9715 34.0406C97.5826 34.3029 97.309 34.6802 97.177 35.1669L97.0542 35.62L97.4985 35.7712C97.78 35.8669 98.028 35.9561 98.2515 36.0364C98.6467 36.1784 98.9651 36.2929 99.2563 36.3677C99.7588 36.4968 100.219 36.5239 100.95 36.4703C100.95 36.4703 100.95 36.4703 100.95 36.4703L100.913 35.9717C102.331 35.8692 103.818 35.5835 102.652 34.4892L99.8136 32.0434ZM99.8136 32.0434C99.8202 32.0807 99.8236 32.1201 99.8227 32.1618C99.8174 32.4191 99.6573 32.5785 99.5563 32.6522C99.4548 32.7264 99.342 32.7698 99.2574 32.7969C99.0831 32.8528 98.8762 32.8852 98.7114 32.9069C98.6053 32.921 98.5293 32.9294 98.4647 32.9366C98.4037 32.9434 98.3528 32.9491 98.2964 32.9572L98.2961 32.9572C97.3727 33.0896 96.2737 33.1373 95.2257 33.1827L95.1303 33.1869C94.0361 33.2345 93.0104 33.2823 92.2266 33.4136L99.8136 32.0434ZM91.8995 48.9741L91.6325 48.5514C91.6327 48.5512 91.633 48.5511 91.6333 48.5509C91.6965 48.5111 91.7583 48.4931 91.7677 48.4904C91.7681 48.4903 91.7684 48.4902 91.7686 48.4902C91.7902 48.4837 91.8107 48.4786 91.8262 48.4751C91.8582 48.4677 91.8952 48.4605 91.9327 48.4536C92.009 48.4397 92.1096 48.4233 92.223 48.4057C92.4504 48.3704 92.7459 48.3277 93.0377 48.2854L93.0392 48.2852C93.3334 48.2426 93.6238 48.2006 93.8454 48.1662C93.9567 48.1489 94.0466 48.1342 94.1094 48.1227C94.1121 48.1222 94.1148 48.1217 94.1173 48.1213C94.3135 47.9799 94.3873 47.8346 94.4196 47.6863C94.4618 47.4924 94.4414 47.2516 94.3813 46.9262C94.3674 46.8513 94.3507 46.7691 94.3331 46.6823C94.2824 46.4324 94.2238 46.1437 94.2019 45.8764C94.1708 45.4963 94.2006 45.0624 94.4458 44.6564L94.4459 44.6562C94.6156 44.3755 94.8575 44.1938 95.0683 44.0659C95.1744 44.0015 95.2815 43.9457 95.3751 43.8978C95.3948 43.8877 95.4137 43.8781 95.4319 43.8688C95.5051 43.8315 95.5675 43.7998 95.6271 43.7665C95.7821 43.6802 95.8219 43.6337 95.8304 43.6199C95.8305 43.6189 95.8306 43.6173 95.8307 43.6152C95.8311 43.6026 95.8292 43.5631 95.8011 43.4869L95.439 42.5057L96.43 42.8401C96.6206 42.9044 96.802 42.9669 96.9756 43.0267C98.388 43.5133 99.2786 43.8201 100.336 43.4511C100.728 43.3131 100.94 43.1799 101.058 43.0706C101.166 42.9713 101.213 42.8761 101.243 42.7632C101.271 42.6566 101.281 42.5541 101.295 42.4056C101.3 42.3546 101.305 42.2982 101.312 42.2344C101.336 42.0067 101.378 41.7262 101.511 41.4278C101.74 40.9149 102.065 40.4757 102.374 40.0911C102.469 39.9719 102.561 39.8602 102.65 39.7533C102.859 39.4993 103.047 39.2722 103.208 39.0337L103.208 39.0335C103.375 38.788 103.312 38.4973 103.005 37.9633C102.97 37.901 102.929 37.8324 102.885 37.7604C102.777 37.58 102.657 37.3781 102.574 37.2012C102.467 36.9721 102.334 36.6104 102.475 36.2433L90.1421 50.2425M91.8995 48.9741C91.8541 49.0027 91.8273 49.1055 91.79 49.2486C91.6727 49.6991 91.4515 50.5487 90.2169 50.7369M91.8995 48.9741C91.9379 48.9498 92.5244 48.8649 93.1109 48.78C93.6974 48.6951 94.2838 48.6102 94.3222 48.586C95.1264 48.0758 94.9727 47.3184 94.8175 46.5538C94.7005 45.9774 94.5827 45.3968 94.8738 44.9149L91.8995 48.9741ZM90.2169 50.7369L90.1427 50.2424C90.1425 50.2424 90.1423 50.2425 90.1421 50.2425M90.2169 50.7369L90.1415 50.2426C90.1417 50.2425 90.1419 50.2425 90.1421 50.2425M90.2169 50.7369C89.8783 50.7876 89.3885 50.6777 88.8861 50.5649C88.1119 50.3911 87.3079 50.2106 86.9822 50.6017L87.0373 50.4696C86.8973 50.4111 86.761 50.3371 86.6258 50.2497C86.6305 50.2444 86.6353 50.2392 86.6402 50.2341C86.8004 50.0643 86.9976 49.9702 87.1899 49.9206C87.5515 49.8275 87.9693 49.8748 88.324 49.9371C88.5415 49.9753 88.7896 50.0308 89.0195 50.0823C89.1589 50.1134 89.2916 50.1431 89.4067 50.1666C89.7577 50.238 89.9973 50.264 90.1421 50.2425M86.0557 42.9473L85.8573 43.4063C87.0154 43.9066 88.2864 43.976 89.3643 43.7984C90.4171 43.6249 91.3962 43.1954 91.886 42.5791L92.2026 42.1807L91.7987 41.8712C91.2243 41.431 90.35 41.1991 89.4904 41.0898C88.6114 40.9779 87.661 40.9839 86.8664 41.0803C86.4692 41.1285 86.0983 41.2009 85.7882 41.2983C85.4977 41.3895 85.1868 41.5247 84.9841 41.7426C84.8738 41.8612 84.7736 42.0287 84.7606 42.2411C84.7475 42.4548 84.8272 42.6384 84.932 42.779C85.1233 43.0358 85.4604 43.2352 85.8578 43.4064L86.0557 42.9473ZM86.0557 42.9473C83.1967 41.7153 88.7814 40.9477 91.0582 42.0094C91.0743 41.9919 91.0893 41.9743 91.1031 41.9569L91.4946 42.268L91.1904 42.6649C91.1682 42.6479 91.1448 42.6311 91.1203 42.6146C90.0888 43.3556 87.8943 43.7417 86.0557 42.9473ZM80.991 40.2084L85.1102 39.2898L85.2761 39.2528L85.3851 39.1224L89.6142 34.0609C90.2762 34.0854 90.7404 33.9626 91.1414 33.8061C91.2858 33.7497 91.4066 33.6972 91.5162 33.6495C91.7623 33.5424 91.952 33.4599 92.2265 33.4136L80.991 40.2084ZM95.9146 36.8621L96.0028 36.4447L95.6045 36.2919C94.3567 35.813 92.9816 35.6534 91.7971 35.7559C91.2038 35.8072 90.6451 35.9254 90.1662 36.1115C89.6921 36.2957 89.2653 36.5588 88.9752 36.92L88.5594 37.4379L89.172 37.6943C90.4745 38.2395 91.9813 38.5262 93.2277 38.4677C93.8494 38.4385 94.4413 38.3219 94.9167 38.0795C95.4015 37.8323 95.7933 37.4361 95.9146 36.8621ZM97.1366 38.5174H96.1722L96.7445 39.3101L97.4218 40.2481L97.5186 40.3822L97.6764 40.4321C97.8932 40.5007 98.1711 40.5236 98.4307 40.5266C98.702 40.5298 98.9997 40.5113 99.2784 40.4756C99.5531 40.4404 99.8311 40.3856 100.055 40.308C100.164 40.2701 100.287 40.2179 100.393 40.1431C100.486 40.0781 100.664 39.927 100.691 39.6677L100.725 39.3497L100.45 39.1861L99.2 38.4422L99.0628 38.3606L98.9037 38.3735L97.1366 38.5174Z" stroke="black"/>
<path d="M95.1324 51.9606C95.2671 51.9375 95.5041 52.0057 95.724 52.069C95.9145 52.1239 96.0922 52.175 96.1797 52.16C97.2516 51.9613 97.9536 51.5006 98.605 51.0732C99.0312 50.7934 99.4358 50.528 99.908 50.3595C100.079 50.2973 100.485 50.2787 100.922 50.2588C101.431 50.2355 101.983 50.2102 102.254 50.1115C103.886 49.5081 104.366 48.6909 104.884 47.8075C105.097 47.4441 105.317 47.0694 105.626 46.6938M95.1324 51.9606L108.999 40.2789C108.915 41.3516 107.916 44.3435 107.351 45.2922C107.132 45.6609 106.75 45.8941 106.382 46.119C106.094 46.2952 105.813 46.4664 105.626 46.6938M95.1324 51.9606L95.0479 51.4678C94.6995 51.5275 94.5316 51.7973 94.4711 51.9034M95.1324 51.9606C95.0026 51.9828 94.9417 52.0885 94.8824 52.1914C94.8268 52.2878 94.7727 52.3818 94.6646 52.4026M95.1324 51.9606L95.0479 51.4678C95.2079 51.4403 95.3707 51.467 95.4744 51.488C95.5918 51.5116 95.7149 51.5462 95.8174 51.5756C95.8335 51.5802 95.8491 51.5847 95.8642 51.5891C95.9532 51.6147 96.0246 51.6352 96.0864 51.6497C96.1077 51.6547 96.1233 51.6579 96.134 51.6598C96.9081 51.5087 97.4681 51.207 97.9935 50.8739C98.0955 50.8092 98.1995 50.7408 98.3057 50.6709C98.7368 50.3875 99.2055 50.0793 99.7401 49.8886C99.9068 49.8286 100.135 49.8056 100.322 49.7912C100.498 49.7776 100.701 49.7683 100.901 49.7592C100.937 49.7576 100.972 49.7559 101.008 49.7543C101.247 49.7431 101.478 49.731 101.678 49.7111C101.888 49.6902 102.02 49.6646 102.082 49.6421C103.14 49.2508 103.636 48.7803 104 48.2744C104.162 48.0502 104.297 47.8195 104.449 47.5601C104.48 47.507 104.512 47.4527 104.545 47.397C104.734 47.0774 104.95 46.7289 105.24 46.3761M95.1324 51.9606L105.24 46.3761M105.626 46.6938L105.24 46.3761M105.626 46.6938L105.24 46.3759C105.24 46.376 105.24 46.376 105.24 46.3761M105.24 46.3761C105.486 46.0777 105.848 45.8581 106.127 45.6885C106.166 45.6649 106.203 45.6422 106.239 45.6204C106.57 45.4151 106.795 45.249 106.921 45.0367L106.921 45.0362C107.173 44.6132 107.55 43.6744 107.881 42.6751C108.212 41.6724 108.463 40.7088 108.5 40.2399L108.5 40.2397C108.502 40.2209 108.498 40.1473 108.453 39.9984C108.411 39.8586 108.343 39.6865 108.252 39.4854C108.069 39.0834 107.809 38.6054 107.522 38.1046C107.335 37.7783 107.133 37.438 106.936 37.1066C106.616 36.5664 106.309 36.0497 106.102 35.6549C105.471 35.5634 104.869 35.6662 104.382 35.8631C103.832 36.0858 103.508 36.3932 103.408 36.5886C103.41 36.6062 103.419 36.6617 103.473 36.7781C103.534 36.9076 103.61 37.035 103.703 37.19C103.753 37.2724 103.807 37.3626 103.866 37.4651C104.149 37.958 104.575 38.7886 104.029 39.5944C103.84 39.8744 103.607 40.1542 103.388 40.4185C103.306 40.5168 103.226 40.6129 103.151 40.7061C102.859 41.0675 102.6 41.4264 102.417 41.8358C102.344 41.9997 102.315 42.1616 102.295 42.3533C102.291 42.3876 102.288 42.426 102.284 42.4675C102.269 42.6299 102.25 42.8389 102.201 43.0284C102.131 43.2993 101.996 43.5677 101.73 43.8111C101.476 44.0435 101.126 44.2317 100.66 44.3949L100.659 44.395C99.2865 44.8744 98.0688 44.4717 96.745 44.0095C96.7293 44.0463 96.7112 44.0827 96.6905 44.1185C96.538 44.3831 96.2869 44.5399 96.1071 44.6401C96.0295 44.6834 95.9462 44.7257 95.8717 44.7636C95.8553 44.772 95.8393 44.7802 95.8238 44.7881C95.7332 44.8344 95.6535 44.8764 95.5803 44.9209C95.4325 45.0106 95.3454 45.0903 95.2951 45.1734C95.2015 45.3283 95.169 45.5225 95.191 45.7966C95.2073 46.0014 95.2474 46.2003 95.2934 46.4291C95.3134 46.5285 95.3346 46.6336 95.3554 46.7472C95.4178 47.0876 95.4743 47.4983 95.3872 47.9006C95.2934 48.3338 95.0435 48.7165 94.5832 49.0083L94.5826 49.0087C94.5192 49.0487 94.4571 49.0668 94.4477 49.0695L94.4467 49.0698C94.4252 49.0763 94.4047 49.0814 94.3892 49.085C94.3573 49.0923 94.3202 49.0996 94.2828 49.1064C94.2067 49.1204 94.1064 49.1367 93.9932 49.1543C93.7659 49.1897 93.4705 49.2325 93.1785 49.2749L93.1683 49.2764C92.878 49.3184 92.592 49.3599 92.3725 49.3939C92.3311 49.4003 92.2927 49.4064 92.2574 49.4121C92.2174 49.5651 92.1554 49.7915 92.0397 50.0272C91.7805 50.5555 91.2751 51.0803 90.2855 51.2312L90.2843 51.2313C89.9435 51.2825 89.5424 51.2157 89.2001 51.1456C89.04 51.1128 88.8918 51.0792 88.7485 51.0468C88.6638 51.0276 88.5808 51.0088 88.4981 50.9907C88.6338 51.0355 88.7724 51.0807 88.9116 51.1253C89.7 51.3785 90.4552 51.6004 90.7806 51.6639L90.7848 51.6647C90.7834 51.6643 90.7881 51.6648 90.8002 51.6661C90.8226 51.6685 90.8705 51.6736 90.9532 51.681C91.0686 51.6912 91.2244 51.7037 91.4081 51.7175C91.7751 51.7452 92.2477 51.7777 92.7198 51.8079C93.1921 51.8382 93.662 51.866 94.0237 51.8842C94.205 51.8933 94.3567 51.8999 94.4671 51.9032C94.4685 51.9033 94.4698 51.9033 94.4711 51.9034M105.24 46.3761L86.9757 50.5999C86.9068 50.6828 86.8593 50.7913 86.8379 50.9309C87.55 51.2274 89.9658 52.0145 90.6849 52.1546C90.8944 52.1978 94.4901 52.435 94.6646 52.4026M94.4711 51.9034C94.4679 51.9089 94.465 51.914 94.4624 51.9186C94.4596 51.9235 94.4572 51.9278 94.4551 51.9315C94.4245 51.9845 94.4172 51.9954 94.4174 51.9955C94.4174 51.9956 94.4179 51.995 94.4185 51.9942C94.4339 51.9765 94.4851 51.928 94.5699 51.9117L94.6646 52.4026M94.4711 51.9034C94.5247 51.9049 94.5652 51.9056 94.5931 51.9056C94.6415 51.9056 94.6165 51.903 94.5735 51.911L94.6646 52.4026" stroke="black"/>
<path d="M80.597 39.29L79.6353 39.7859C79.7508 39.5765 79.8738 39.4041 80.0078 39.2394C80.1479 39.0672 80.2994 38.904 80.4808 38.7085C80.5224 38.6637 80.5655 38.6172 80.6105 38.5685C80.8472 38.3121 81.1171 38.0122 81.4223 37.6222L81.4228 37.6216C81.6434 37.3388 81.7833 37.0411 81.8969 36.7748C81.9276 36.703 81.9558 36.635 81.9828 36.5698C82.0617 36.3797 82.1308 36.2131 82.2227 36.0426C82.4407 35.6383 82.7784 35.2347 83.6509 34.9157L83.6514 34.9156C83.9799 34.7951 84.3659 34.7778 84.8403 34.7675C84.8642 34.7669 84.8883 34.7664 84.9128 34.7659C85.3355 34.7572 85.845 34.7466 86.2966 34.5896L86.2966 34.5896L86.2986 34.5888C86.8469 34.3955 87.2126 34.0698 87.5083 33.7861C87.5465 33.7495 87.5831 33.7141 87.6185 33.6798C87.8696 33.4369 88.0608 33.2519 88.3195 33.1154C90.2008 32.1334 91.5503 31.9253 93.0641 31.9662C93.723 31.9841 94.4094 32.0489 95.1973 32.1234C95.3371 32.1366 95.4801 32.1501 95.6267 32.1637C95.6285 32.1639 95.6303 32.1641 95.632 32.1642C95.4758 32.1713 95.3188 32.1781 95.1614 32.1849L95.0938 32.1879C94.0184 32.2346 92.9251 32.2838 92.0682 32.4274C91.6597 32.4957 91.3087 32.6481 91.0248 32.7714C90.9364 32.8097 90.8545 32.8453 90.7794 32.8746C90.4479 33.004 90.0718 33.1046 89.4449 33.0479L89.1841 33.0243L89.0162 33.2253L84.7336 38.3508L80.7173 39.2464L80.6543 39.2605L80.597 39.29ZM98.215 32.3458L98.232 32.4624L98.215 32.3458Z" stroke="black"/>
<path d="M86.254 42.4883L86.2536 42.4881C86.1 42.4219 85.9886 42.3635 85.909 42.3154C85.96 42.2941 86.0197 42.2724 86.0883 42.2508C86.3225 42.177 86.6295 42.1146 86.9872 42.071C87.7023 41.9838 88.5697 41.9782 89.3641 42.0795C89.8362 42.1397 90.2547 42.2343 90.5927 42.3569C90.2468 42.5488 89.7719 42.7178 89.2018 42.8117C88.2759 42.9643 87.2045 42.899 86.254 42.4883Z" stroke="black"/>
<path d="M100.876 35.473C100.215 35.5218 99.8717 35.4924 99.5075 35.399C99.2564 35.3347 99.006 35.2445 98.6509 35.1167C98.5612 35.0844 98.4649 35.0497 98.3602 35.0125C98.4097 34.9583 98.4656 34.9111 98.5274 34.8692C98.7232 34.7367 99.0066 34.6413 99.3963 34.6004C100.157 34.5204 101.188 34.6599 102.401 34.9436C102.489 35.0357 102.533 35.0999 102.554 35.1382C102.543 35.145 102.53 35.1527 102.514 35.1614C102.383 35.2329 102.163 35.3009 101.858 35.3565C101.562 35.4105 101.223 35.4467 100.876 35.473ZM102.595 35.1059C102.595 35.1059 102.594 35.1079 102.59 35.1117C102.592 35.1077 102.594 35.1058 102.595 35.1059Z" stroke="black"/>
<path d="M91.8832 36.7541C92.7526 36.6784 93.7465 36.7638 94.689 37.0383C94.6261 37.09 94.5501 37.139 94.4592 37.1851C94.1546 37.3396 93.717 37.4393 93.1753 37.4648C92.3546 37.5033 91.3741 37.3676 90.4332 37.0844C90.4639 37.0714 90.4954 37.0585 90.5279 37.0459C90.9002 36.9015 91.3628 36.7995 91.8832 36.7541Z" stroke="black"/>
<path d="M98.113 39.5067L98.068 39.4443L98.8189 39.3832L99.0132 39.4989C98.817 39.519 98.6163 39.5288 98.4355 39.5267C98.3034 39.5252 98.1952 39.5173 98.113 39.5067Z" stroke="black"/>
<path d="M69.0712 65.0969C69.2643 65.1598 69.4564 65.2239 69.6482 65.2878C71.3049 65.8402 72.9314 66.3825 74.8733 66.1198L74.95 66.1095L75.02 66.0764C75.3547 65.9182 75.5817 65.6297 75.7441 65.3564C75.9091 65.0788 76.0431 64.7542 76.1614 64.4553C76.1846 64.3968 76.2072 64.3391 76.2294 64.2825C76.3258 64.0367 76.4152 63.8089 76.5146 63.5997C76.6149 63.3888 76.7101 63.2316 76.8034 63.1227C76.8609 63.1224 76.9343 63.1278 77.0416 63.1355L77.0473 63.1359C77.1582 63.1439 77.3121 63.155 77.4575 63.1442C77.5894 63.1343 77.8193 63.1012 78.0045 62.933C78.2958 62.6693 78.9274 62.0657 79.5173 61.4703C79.8126 61.1723 80.1015 60.8724 80.3341 60.6154C80.5506 60.3763 80.7627 60.1274 80.8594 59.949L80.8594 59.9491L80.8623 59.9435C80.9674 59.7438 80.9166 59.5454 80.904 59.4961L80.9031 59.4925C80.8859 59.4245 80.8585 59.3498 80.8391 59.2971L80.8349 59.2857C80.7894 59.1616 80.7421 59.0302 80.7129 58.8681C80.6654 58.6043 80.6597 58.2207 80.8946 57.7022C81.5367 57.6845 82.0563 57.584 82.4868 57.5008C82.6507 57.4691 82.8018 57.4399 82.9417 57.4188C83.4946 57.3352 84.0227 57.3344 84.8787 57.7193L85.5631 58.0271L85.5835 57.2769C85.6216 55.8794 85.2188 54.2141 83.4889 52.9803L83.4863 52.9785C83.2949 52.8437 82.927 52.6772 82.5397 52.5171C82.1316 52.3484 81.6406 52.1626 81.1591 51.9912C80.6778 51.8198 80.2001 51.6608 79.8186 51.5463C79.6285 51.4892 79.4565 51.4415 79.3173 51.4087C79.2481 51.3925 79.1807 51.3784 79.1198 51.369C79.072 51.3616 78.9826 51.3492 78.8907 51.3596L78.8907 51.3595L78.8801 51.3609C78.5888 51.4 78.4527 51.6257 78.4098 51.7057C78.3585 51.8014 78.3255 51.9082 78.3072 51.9677L78.3065 51.9697C78.3029 51.9814 78.2996 51.9922 78.2965 52.0022C78.2897 52.0243 78.2841 52.0425 78.2792 52.058C77.8503 52.3416 77.5069 52.4888 77.2079 52.5608C76.8968 52.6358 76.6056 52.6363 76.2755 52.5948C76.0461 52.566 75.8217 52.5212 75.5607 52.4691C75.4208 52.4412 75.2703 52.4111 75.1028 52.3803C74.6411 52.2954 74.1058 52.2172 73.4558 52.2029L73.4538 52.2029C73.3512 52.201 72.9373 52.2262 72.419 52.2608C71.8823 52.2966 71.1928 52.3456 70.505 52.3969C69.8173 52.4482 69.1298 52.5019 68.5973 52.5472C68.3314 52.5699 68.1022 52.5906 67.9304 52.608C67.8447 52.6167 67.7707 52.6248 67.7124 52.6322C67.6687 52.6377 67.5963 52.647 67.5399 52.6622L67.5367 52.6631C66.1844 53.0396 64.7466 54.1121 63.4461 55.1329C63.2706 55.2706 63.0973 55.4077 62.9262 55.5432C62.4467 55.9226 61.9838 56.2889 61.5354 56.6189C60.926 57.0676 60.3764 57.4241 59.8944 57.6357L59.8942 57.6358C59.2486 57.9196 58.3944 57.9695 57.4706 57.9608C57.2766 57.9589 57.0598 57.954 56.8437 57.9491C56.595 57.9434 56.3472 57.9378 56.1359 57.9369C55.7133 57.9351 55.2929 57.9486 54.9279 58.0171L69.0712 65.0969ZM69.0712 65.0969C68.9991 65.2048 68.9149 65.2998 68.8266 65.383C68.6181 65.5793 68.3657 65.7298 68.1406 65.8502C68.0311 65.9089 67.92 65.9644 67.8177 66.0157L67.8038 66.0226C67.6951 66.077 67.5972 66.1263 67.507 66.1753C67.316 66.2793 67.2175 66.3531 67.1736 66.4045C66.8804 66.7559 66.6807 67.2149 66.445 67.757C66.3854 67.8939 66.3236 68.0362 66.2573 68.1834C65.9531 68.8591 65.5535 69.631 64.8076 70.0797L64.8075 70.0798C64.1375 70.4825 63.2835 70.4707 62.6626 70.4081C62.3665 70.3783 62.0932 70.333 61.8851 70.2984C61.8663 70.2953 61.848 70.2923 61.8303 70.2893C61.7541 70.2768 61.6923 70.2668 61.642 70.2597C61.6391 70.2658 61.6361 70.2724 61.6329 70.2795C61.6124 70.3255 61.5945 70.3716 61.571 70.4318C61.5602 70.4596 61.5482 70.4905 61.5343 70.5257C61.4941 70.6273 61.4436 70.7486 61.3763 70.8748C61.2382 71.1342 61.0317 71.4102 60.6889 71.6364C60.3504 71.8596 59.9095 72.0142 59.3305 72.083L59.3293 72.0832C58.3979 72.1915 57.4422 71.9958 56.5603 71.7843C56.408 71.7478 56.2581 71.7109 56.1103 71.6745C55.3724 71.4928 54.6877 71.3243 54.0245 71.2823L53.7601 71.2656L53.6255 71.0374C52.6963 69.4629 51.6016 67.58 50.9269 65.6922C50.2552 63.8131 49.962 61.8271 50.7683 60.0978L50.7684 60.0975C50.9775 59.6497 51.2877 59.4056 51.5519 59.2608C51.6603 59.2014 51.7644 59.1573 51.8307 59.1292C51.8403 59.1251 51.8491 59.1214 51.857 59.118C51.8597 59.1168 51.8624 59.1157 51.8649 59.1146L52.0435 58.888L52.3895 59.0247C52.7162 59.1537 52.8903 59.1544 52.9866 59.1358C53.0809 59.1176 53.1695 59.0687 53.3131 58.9453C53.3537 58.9105 53.3975 58.87 53.4456 58.8256C53.7326 58.5605 54.1673 58.1589 54.9278 58.0171L69.0712 65.0969ZM77.4422 53.533C77.773 53.4533 78.111 53.3172 78.4729 53.1122L78.4942 53.1451L78.9188 52.8485C79.0064 52.7873 79.0641 52.7139 79.1007 52.6575C79.1379 52.6002 79.1644 52.5434 79.1831 52.498C79.1943 52.4707 79.2049 52.4419 79.2146 52.4139C79.305 52.4378 79.4113 52.4681 79.5311 52.504C79.892 52.6124 80.353 52.7657 80.8238 52.9333C81.2944 53.1008 81.7691 53.2806 82.1576 53.4412C82.5653 53.6097 82.8245 53.736 82.9099 53.7956C84.0146 54.5842 84.443 55.572 84.5543 56.533C83.8749 56.3358 83.3325 56.3483 82.7922 56.43C82.5941 56.46 82.4085 56.4958 82.2234 56.5315C82.1398 56.5477 82.0563 56.5638 81.9719 56.5793C82.0572 56.3758 82.0677 56.138 81.9563 55.8955L81.8979 55.7684L81.7819 55.69C80.5791 54.8772 79.2829 54.5335 78.1704 54.4782C77.0843 54.4242 76.0895 54.6431 75.5327 55.0588C75.2536 55.2672 74.9704 55.6227 75.0646 56.087C75.1503 56.5094 75.5125 56.795 75.9039 56.9874C76.6151 57.337 77.8531 57.5933 79.7439 57.6784L79.7371 57.6903L79.8287 57.6918C79.6605 58.2227 79.6623 58.676 79.7287 59.0452C79.7715 59.2831 79.8394 59.4752 79.8862 59.6031C79.8215 59.6846 79.7246 59.7987 79.5928 59.9443C79.3745 60.1855 79.0973 60.4735 78.807 60.7664C78.2583 61.3202 77.6766 61.8774 77.3825 62.147C77.3222 62.1514 77.241 62.1473 77.1194 62.1385C77.1102 62.1379 77.1007 62.1372 77.0909 62.1364C76.9893 62.1289 76.8537 62.119 76.7311 62.1243C76.6202 62.1291 76.373 62.1479 76.1819 62.327L76.1809 62.328C75.9314 62.5632 75.7519 62.8751 75.6115 63.1703C75.4954 63.4144 75.3902 63.683 75.2933 63.9303C75.2724 63.9838 75.2518 64.0362 75.2316 64.0873C75.1125 64.3881 75.004 64.6444 74.8844 64.8455C74.7897 65.005 74.7085 65.0938 74.6442 65.1411C72.9947 65.3406 71.6402 64.8921 70.0243 64.3569C69.6757 64.2414 69.315 64.122 68.9366 64.0041L68.3786 63.8304L68.2933 64.4085C68.283 64.478 68.2456 64.5565 68.141 64.655C68.0309 64.7587 67.8731 64.8592 67.6688 64.9686C67.5715 65.0206 67.4713 65.0708 67.3657 65.1236L67.3562 65.1284C67.2496 65.1817 67.1366 65.2384 67.0291 65.2969C66.8257 65.4076 66.5821 65.5552 66.4092 65.7598L66.4075 65.7619C66.0113 66.2358 65.7386 66.8673 65.4998 67.4203C65.447 67.5425 65.3959 67.6608 65.3455 67.7728C65.0423 68.4461 64.7472 68.9491 64.2922 69.2228C63.9219 69.4453 63.3586 69.4732 62.7629 69.4132C62.5001 69.3867 62.2567 69.3464 62.0463 69.3115C62.0283 69.3085 62.0106 69.3056 61.9932 69.3027C61.8865 69.2851 61.78 69.2679 61.6911 69.2579C61.6464 69.2529 61.5962 69.2485 61.5465 69.2479C61.5058 69.2473 61.426 69.2481 61.3392 69.2733C60.9642 69.3803 60.802 69.6877 60.7198 69.8718C60.6885 69.9418 60.657 70.023 60.6298 70.0928C60.6209 70.1159 60.6124 70.1377 60.6045 70.1575C60.569 70.2472 60.5347 70.3278 60.4937 70.4047C60.4154 70.5517 60.312 70.687 60.1382 70.8016C59.9601 70.9192 59.6777 71.0347 59.2132 71.0899C58.4761 71.1755 57.676 71.0235 56.7935 70.8119C56.6561 70.7789 56.5162 70.7444 56.3745 70.7094C55.7236 70.5486 55.0325 70.3779 54.3557 70.307C53.4554 68.7771 52.4768 67.0574 51.8685 65.3557C51.2276 63.5624 51.0356 61.8908 51.6746 60.5204C51.7726 60.3107 51.9057 60.2072 52.0325 60.1377C52.0939 60.1041 52.1498 60.0803 52.2173 60.0515C52.2282 60.0469 52.2394 60.0421 52.2511 60.0371C52.2514 60.0369 52.2518 60.0368 52.2522 60.0366C52.5889 60.1425 52.8921 60.1726 53.1763 60.1177C53.5257 60.0502 53.7749 59.867 53.9647 59.7039C54.0314 59.6466 54.0927 59.5911 54.1514 59.538C54.4304 59.2854 54.6506 59.086 55.1112 59.0001L55.1118 59C55.3786 58.9499 55.7198 58.9352 56.1316 58.9369C56.3608 58.9379 56.575 58.943 56.7992 58.9484C57.005 58.9533 57.2192 58.9584 57.4611 58.9607C58.3823 58.9695 59.4339 58.9305 60.2964 58.5513C60.8827 58.2939 61.5043 57.8836 62.1283 57.4242C62.5919 57.083 63.075 56.7007 63.5588 56.3178C63.7272 56.1845 63.8957 56.0512 64.0635 55.9195C65.3906 54.8779 66.6665 53.9489 67.7889 53.631C67.7944 53.6302 67.8093 53.6279 67.8375 53.6243C67.8841 53.6184 67.9489 53.6113 68.0312 53.6029C68.1952 53.5863 68.4182 53.5661 68.6822 53.5436C69.2097 53.4987 69.8933 53.4453 70.5793 53.3941C71.2651 53.343 71.952 53.2942 72.4856 53.2586C72.7526 53.2408 72.9803 53.2263 73.15 53.2165C73.235 53.2116 73.3042 53.2079 73.356 53.2056C73.382 53.2044 73.4024 53.2036 73.4175 53.2031C73.4303 53.2028 73.4359 53.2027 73.4367 53.2027C74.0143 53.2156 74.4922 53.2848 74.9218 53.3638C75.0529 53.3879 75.1857 53.4144 75.3184 53.4408C75.6028 53.4973 75.8866 53.5538 76.1509 53.587C76.5609 53.6385 76.98 53.6444 77.4422 53.533ZM76.7387 63.1271C76.7385 63.1269 76.7416 63.1261 76.7488 63.1253C76.7425 63.1269 76.7389 63.1273 76.7387 63.1271ZM61.5356 70.2478C61.5311 70.2479 61.5302 70.2477 61.5336 70.2478C61.534 70.2478 61.5347 70.2478 61.5356 70.2478ZM78.9518 52.3552C78.9494 52.355 78.9482 52.3549 78.9481 52.3549L78.9518 52.3552ZM77.4181 62.1422C77.4182 62.1423 77.4165 62.1428 77.4129 62.1435C77.4162 62.1425 77.418 62.1421 77.4181 62.1422ZM72.2519 56.8952L72.3399 56.4683L71.9289 56.3229C70.8491 55.9412 69.4708 55.6596 68.2572 55.6833C67.6506 55.6951 67.0553 55.7836 66.5515 55.9964C66.0409 56.2121 65.6001 56.5677 65.3728 57.1146L65.2103 57.5059L65.5696 57.7305C66.8097 58.5056 68.2795 58.9496 69.5328 58.9004C70.1618 58.8757 70.7668 58.7252 71.2581 58.3969C71.7607 58.0611 72.1155 57.5573 72.2519 56.8952ZM64.7544 62.4262L64.8206 62.0862L64.5256 61.9047C64.1397 61.6673 63.5354 61.4607 62.8872 61.3017C62.226 61.1394 61.4699 61.0151 60.751 60.962C60.0408 60.9097 59.328 60.9238 58.7713 61.0623C58.4938 61.1314 58.2155 61.2408 57.9962 61.422C57.7621 61.6155 57.6002 61.8895 57.5918 62.2321L57.5873 62.4124L57.6991 62.554C58.1216 63.0897 58.7443 63.4823 59.4115 63.7456C60.0828 64.0105 60.8322 64.1578 61.547 64.1801C62.2571 64.2022 62.9674 64.1017 63.5448 63.8388C64.1283 63.5731 64.62 63.116 64.7544 62.4262Z" stroke="black"/>
<path d="M82.9461 57.4295C83.429 57.3564 83.894 57.3466 84.5792 57.6037C84.5374 58.5971 84.4091 60.0271 84.1327 61.4011C83.9774 62.1728 83.7778 62.9146 83.5264 63.5464C83.2897 64.1414 83.02 64.6055 82.7258 64.9099C82.6646 64.9103 82.5845 64.9033 82.4688 64.8922L82.4543 64.8908C82.3457 64.8803 82.1987 64.8661 82.0637 64.8708C81.9471 64.8748 81.695 64.8935 81.5009 65.0774C81.0596 65.4938 80.8349 66.0537 80.6514 66.5107C80.6383 66.5434 80.6253 66.5757 80.6125 66.6073C80.4068 67.1156 80.2208 67.5285 79.8708 67.8439C79.7792 67.9243 79.6268 68.0092 79.4017 68.0952C79.18 68.1799 78.9221 68.2531 78.6417 68.3266C78.5666 68.3463 78.4891 68.3662 78.4104 68.3864C78.2059 68.4389 77.9941 68.4933 77.8002 68.5502C77.5327 68.6288 77.2541 68.7246 77.024 68.8552L77.0229 68.8559C76.3293 69.2521 75.7557 69.79 75.2266 70.2861C75.0551 70.447 74.8883 70.6034 74.7236 70.7492C74.0299 71.3632 73.2824 71.8907 72.1537 72.1325C71.5757 72.2553 71.188 72.2114 70.8602 72.1439C70.7736 72.1261 70.6907 72.1065 70.6027 72.0857L70.6013 72.0853C70.5163 72.0652 70.4244 72.0435 70.3323 72.0251C70.1443 71.9875 69.9334 71.959 69.6981 71.9775L69.6957 71.9777C68.8914 72.045 68.2156 72.3367 67.6546 72.612C67.5259 72.6752 67.4064 72.7355 67.2943 72.7921C66.8859 72.9983 66.575 73.1552 66.2714 73.2222L66.271 73.2223C63.0505 73.9357 59.2565 73.1955 55.9343 71.9023C55.364 71.679 55.0098 71.5136 54.7928 71.3888C55.2182 71.4645 55.6567 71.5727 56.1159 71.6861C56.2649 71.7228 56.416 71.7602 56.5696 71.7971C57.4518 72.0091 58.4081 72.2051 59.3369 72.0939C59.9155 72.0265 60.3564 71.8732 60.695 71.6507C61.0383 71.4252 61.2449 71.1492 61.3832 70.8897C61.4505 70.7633 61.5011 70.6418 61.5413 70.54C61.5555 70.5041 61.5676 70.4728 61.5786 70.4445C61.6018 70.3847 61.6196 70.3387 61.6401 70.2926C61.6437 70.2845 61.6471 70.2771 61.6503 70.2703C61.7014 70.2775 61.7642 70.2875 61.8414 70.3002C61.8601 70.3033 61.8794 70.3065 61.8994 70.3097C62.1076 70.3442 62.3801 70.3892 62.6748 70.4189C63.2948 70.4814 64.1477 70.4936 64.8148 70.0903C65.5605 69.6416 65.96 68.8698 66.2642 68.1942C66.3305 68.047 66.3924 67.9047 66.4519 67.7678C66.6876 67.2257 66.8873 66.7666 67.1806 66.4153C67.2247 66.3635 67.3236 66.2893 67.5147 66.185C67.6048 66.1357 67.7028 66.0862 67.8115 66.0316L67.8265 66.0241C67.9284 65.9728 68.039 65.9172 68.1481 65.8587C68.373 65.738 68.625 65.5875 68.8332 65.3918C68.9211 65.3091 69.0051 65.2147 69.0771 65.1073C69.2705 65.1704 69.463 65.2346 69.6551 65.2986C71.3119 65.851 72.9383 66.3933 74.8803 66.1306L74.9569 66.1203L75.0269 66.0872C75.3616 65.929 75.5886 65.6405 75.751 65.3672C75.916 65.0896 76.05 64.765 76.1683 64.4661C76.1915 64.4075 76.2141 64.3499 76.2363 64.2933C76.3327 64.0475 76.4221 63.8197 76.5215 63.6105C76.6218 63.3996 76.717 63.2424 76.8103 63.1335C76.8678 63.1332 76.9413 63.1385 77.0485 63.1463L77.0542 63.1467C77.1651 63.1547 77.319 63.1658 77.4644 63.155C77.5967 63.1451 77.8274 63.1118 78.0129 62.9425L78.0134 62.9421C78.3031 62.677 78.9338 62.0742 79.524 61.4793C79.8193 61.1817 80.1081 60.8823 80.3408 60.6258C80.5562 60.3882 80.7675 60.1407 80.8649 59.9623C80.9742 59.7635 80.9272 59.5646 80.9148 59.5119L80.9143 59.5098C80.8973 59.4376 80.8693 59.3597 80.8499 59.3056L80.8469 59.2974C80.8015 59.1709 80.7544 59.0395 80.725 58.8768C80.6775 58.6129 80.6708 58.2303 80.9028 57.7129C81.5442 57.6951 82.0626 57.5947 82.492 57.5116C82.6557 57.4799 82.8065 57.4507 82.9461 57.4295ZM82.773 64.9076C82.7786 64.9062 82.7818 64.9058 82.7821 64.9059C82.7823 64.9061 82.7795 64.9068 82.773 64.9076ZM61.5418 70.2586C61.5422 70.2586 61.5428 70.2586 61.5434 70.2586C61.5391 70.2587 61.5383 70.2585 61.5418 70.2586ZM76.7456 63.1379C76.7454 63.1377 76.7485 63.1369 76.7557 63.1361C76.7495 63.1376 76.7459 63.1381 76.7456 63.1379Z" stroke="black"/>
<path d="M66.6751 52.3021C69.9646 51.1661 73.3125 51.6883 77.1361 52.5891C76.8541 52.6464 76.5846 52.6435 76.2826 52.6056C76.0531 52.5768 75.8288 52.532 75.5678 52.4799C75.4278 52.452 75.2773 52.4219 75.1098 52.3911C74.6482 52.3062 74.1129 52.2279 73.4629 52.2137L73.4609 52.2136C73.3585 52.2118 72.945 52.2366 72.4265 52.2708C71.8897 52.3062 71.2002 52.3547 70.5122 52.4056C69.8245 52.4566 69.1368 52.5101 68.6041 52.5558C68.3381 52.5785 68.1086 52.5995 67.9363 52.6174C67.8505 52.6263 67.776 52.6347 67.7171 52.6424C67.6756 52.6478 67.603 52.6574 67.5437 52.6739C66.1913 53.0504 64.7534 54.1245 63.453 55.1458C63.28 55.2816 63.1091 55.4169 62.9403 55.5505C62.4583 55.9322 61.9931 56.3005 61.5426 56.6319C60.9332 57.0802 60.3839 57.4359 59.9024 57.646L59.9018 57.6463C59.2599 57.9276 58.4059 57.9763 57.4803 57.9675C57.2876 57.9657 57.0781 57.961 56.8691 57.9564C56.6163 57.9508 56.3641 57.9452 56.1431 57.9447C55.7197 57.9436 55.2984 57.9581 54.9328 58.0282C54.3028 58.1482 53.8956 58.4457 53.611 58.6949C54.2359 58.0584 55.0355 57.3104 55.8825 56.5947C56.5954 55.9925 57.3316 55.4219 58.0133 54.9669C58.7039 54.506 59.3049 54.1866 59.7534 54.0562L59.7538 54.0561C60.4347 53.8574 61.0964 53.8443 61.792 53.8517C61.8595 53.8524 61.9276 53.8533 61.9963 53.8543C62.6152 53.8628 63.2831 53.872 63.9345 53.724C64.6799 53.5548 65.1632 53.2471 65.5696 52.9591C65.6242 52.9204 65.6764 52.8829 65.727 52.8466C66.0559 52.6105 66.3119 52.4267 66.6741 52.3024L66.6751 52.3021Z" stroke="black"/>
<path d="M80.5592 56.5552C80.5068 56.5924 80.4389 56.6422 80.3705 56.7047C79.3184 56.6788 78.4789 56.6036 77.8231 56.4983C77.1147 56.3844 76.6422 56.2387 76.3517 56.096C76.1919 56.0176 76.1144 55.9543 76.0781 55.9174C76.0917 55.9042 76.1109 55.8876 76.1376 55.8677C76.2727 55.7669 76.5186 55.6552 76.8749 55.5767C77.2242 55.4998 77.652 55.4611 78.1277 55.4846C78.9806 55.5268 79.9653 55.7679 80.9055 56.3203C80.8593 56.3533 80.8089 56.3869 80.7512 56.4251C80.747 56.4279 80.7427 56.4307 80.7384 56.4335C80.6826 56.4705 80.6192 56.5124 80.5592 56.5552ZM76.0472 55.9566C76.0467 55.9566 76.0476 55.9538 76.0513 55.9482C76.0496 55.9538 76.0477 55.9566 76.0472 55.9566Z" stroke="black"/>
<path d="M63.6172 62.572C63.5106 62.7079 63.351 62.8281 63.13 62.9287C62.7341 63.109 62.1881 63.1996 61.5778 63.1806C60.972 63.1617 60.3368 63.0358 59.7782 62.8154C59.3363 62.641 58.9623 62.4155 58.6869 62.1554C58.7541 62.1152 58.8588 62.071 59.0125 62.0327C59.4177 61.9319 60.0075 61.91 60.6771 61.9593C61.338 62.0081 62.0389 62.1233 62.6486 62.2729C63.0324 62.367 63.3622 62.4705 63.6172 62.572Z" stroke="black"/>
<path d="M68.2765 56.6831C69.1808 56.6654 70.2212 56.8436 71.1223 57.112C71.0181 57.3019 70.8753 57.4499 70.7025 57.5654C70.4077 57.7624 69.9981 57.8814 69.4935 57.9012C68.6169 57.9356 67.546 57.6658 66.5576 57.1456C66.6593 57.059 66.786 56.9829 66.9405 56.9176C67.2856 56.7718 67.7424 56.6935 68.2765 56.6831Z" stroke="black"/>
<defs>
<filter id="filter0_f_46_2" x="0.799999" y="-22.2" width="147.4" height="131.4" filterUnits="userSpaceOnUse" color-interpolation-filters="sRGB">
<feFlood flood-opacity="0" result="BackgroundImageFix"/>
<feBlend mode="normal" in="SourceGraphic" in2="BackgroundImageFix" result="shape"/>
<feGaussianBlur stdDeviation="16.1" result="effect1_foregroundBlur_46_2"/>
</filter>
</defs>
</svg>
