<svg width="147" height="129" viewBox="0 0 147 129" fill="none" xmlns="http://www.w3.org/2000/svg">
<g clip-path="url(#clip0_11_2872)">
<path d="M63.5471 24.2834C64.5236 18.5338 58.558 12.2649 57.8436 11.5149C50.7083 4.01474 41.0989 6.75585 40.975 8.80201C40.9168 9.77088 43.0341 9.80347 45.8871 12.9592C51.5228 19.1894 50.7001 27.2844 54.6143 29.7261C57.8763 31.7597 62.7754 28.8354 63.5473 24.2865L63.5471 24.2834Z" fill="#FF4545"/>
<path d="M66.3441 66.9432C68.063 72.516 62.9671 79.5103 62.3568 80.3471C56.2618 88.7147 46.3768 87.2518 45.9867 85.2394C45.8026 84.2864 47.8975 83.9776 50.314 80.4764C55.0879 73.5636 53.2153 65.6454 56.7771 62.7135C59.7457 60.2713 64.9846 62.5309 66.3439 66.94L66.3441 66.9432Z" fill="#FF4545"/>
<path d="M43.8419 31.1436C43.8419 31.1436 61.2529 14.3485 85.0457 17.0201C102.05 18.9272 129.009 30.7655 128.385 42.6601C127.868 52.4841 107.384 63.5888 92.7977 68.0086C68.8872 75.2556 45.7689 62.9972 45.7689 62.9972L43.8419 31.1436Z" fill="#E5E5E5"/>
<path d="M43.4411 33.1317C43.4411 33.1317 34.8973 26.7778 33.4026 26.1933C23.1456 22.193 13.6327 31.3022 13.6327 31.3022C13.6327 31.3022 16.8137 30.2111 22.0423 31.0968C26.7573 31.8955 31.6168 38.5767 31.4788 39.8333C31.3661 40.8661 27.9605 39.1085 24.409 39.6048C14.1741 41.0315 4.12576 52.0233 4.12576 52.0233C4.12576 52.0233 14.0291 57.5738 19.4989 58.1707C28.1266 59.116 32.9269 56.8299 33.6421 58.7766C34.2292 60.3698 31.9691 64.7845 28.7243 66.6956C23.1156 69.9966 16.8581 71.372 16.8581 71.372C16.8581 71.372 20.0665 72.9711 22.9326 72.999C32.9649 73.0904 45.6302 63.511 45.6302 63.511L43.4415 33.138L43.4411 33.1317Z" fill="#FF4545" stroke="#FF4545" stroke-width="6" stroke-miterlimit="10"/>
<path d="M44.18 33.5499C44.18 33.5499 36.8854 27.3332 35.6137 26.7563C26.8833 22.805 18.8906 31.5447 18.8906 31.5447C18.8906 31.5447 21.5804 30.5144 26.0187 31.4139C30.0232 32.2243 34.1953 38.7283 34.0904 39.9446C34.0028 40.944 31.1028 39.2168 28.0939 39.668C19.4265 40.9664 10.9929 51.5255 10.9929 51.5255C10.9929 51.5255 19.4354 56.9749 24.078 57.5974C31.4009 58.5807 35.4531 56.4072 36.0764 58.2964C36.5871 59.8438 34.7046 64.0973 31.9682 65.9211C27.2371 69.0693 21.943 70.3529 21.943 70.3529C21.943 70.3529 24.6755 71.9261 27.1066 71.9762C35.614 72.1421 46.279 62.9701 46.279 62.9701L44.1825 33.5561L44.18 33.5499Z" fill="#FF8400"/>
<path d="M44.2551 35.0465C44.2551 35.0465 38.9386 29.3318 38.0179 28.7954C31.6972 25.1115 24.3235 32.5694 24.3235 32.5694C24.3235 32.5694 27.9808 32.0217 31.181 32.888C34.0673 33.6701 37.1447 39.6079 37.0843 40.7038C37.0345 41.6087 34.9276 40.0072 32.7718 40.3803C26.5613 41.4478 20.6317 50.8966 20.6317 50.8966C20.6317 50.8966 26.7638 55.9293 30.1054 56.5514C35.3778 57.5295 38.2634 55.6134 38.7325 57.3286C39.1185 58.735 37.8186 62.5598 35.8744 64.1761C32.5153 66.9677 28.7259 68.0606 28.7259 68.0606C28.7259 68.0606 30.7079 69.5179 32.4565 69.5905C38.5692 69.8468 46.1188 61.6791 46.1188 61.6791L44.2528 35.0435L44.2551 35.0465Z" fill="#FFB517"/>
<path d="M91.2756 67.8385C99.4567 65.5562 109.569 61.3059 116.729 56.4747C114.582 56.7869 112.433 57.0738 110.28 57.3229C96.9645 58.8785 83.565 59.3412 70.1691 59.6355C62.0117 59.8148 53.8502 59.9309 45.6978 60.1861L45.9126 63.7814C45.9126 63.7814 68.1501 74.288 91.2735 67.8387L91.2756 67.8385Z" fill="#DDDDDD"/>
<path d="M49.8125 32.5965L44.0875 32.9719" stroke="#FF4545" stroke-width="6" stroke-miterlimit="10"/>
<path d="M50.189 38.3336L44.1798 38.7276" stroke="#FF4545" stroke-width="6" stroke-miterlimit="10"/>
<path d="M51.1689 45.3135L44.9236 45.723" stroke="#FF4545" stroke-width="6" stroke-miterlimit="10"/>
<path d="M51.5151 50.5922L45.2966 51.4095" stroke="#FF4545" stroke-width="6" stroke-miterlimit="10"/>
<path d="M51.9087 56.5948L45.6634 57.0043" stroke="#FF4545" stroke-width="6" stroke-miterlimit="10"/>
<path d="M52.2402 62.192L45.9949 62.6015" stroke="#FF4545" stroke-width="6" stroke-miterlimit="10"/>
<path d="M49.4297 26.7583L51.9806 65.6628" stroke="#FF4545" stroke-width="6" stroke-miterlimit="10"/>
<path d="M43.8418 31.1436L45.7709 62.9971" stroke="#FF4545" stroke-width="6" stroke-miterlimit="10"/>
<path d="M111.946 59.3025C120.794 54.3257 128.082 48.1623 128.408 42.503C128.782 35.9771 120.438 29.5466 110.127 24.9054C110.774 36.3706 111.288 47.8381 111.946 59.3025Z" fill="#FF4545"/>
<path d="M111.716 52.9496C111.813 54.8828 111.913 56.8191 112.021 58.7516C115.727 56.934 119.054 54.8715 121.231 52.7796C118.062 52.9874 114.886 53.0782 111.714 52.9497L111.716 52.9496Z" fill="#AA0004"/>
<path d="M64.6292 47.3149L64.2329 50.8748L61.5021 51.0146L62.083 46.9367C62.2511 45.8069 62.4187 44.9998 62.5857 44.5154C62.7524 44.0244 62.9705 43.6319 63.2401 43.3378C63.5158 43.0369 63.9039 42.7628 64.4045 42.5155L61.3632 38.8871L64.5621 38.7233L68.8349 43.9901C69.2227 43.5987 69.5091 43.1473 69.6941 42.6359C69.8791 42.1244 69.992 41.4407 70.0328 40.5847L70.1115 38.4392L72.8033 38.3014L72.7056 40.6238C72.6729 41.2839 72.5772 41.8722 72.4186 42.3888C72.3089 42.7399 72.1688 43.073 71.9982 43.3882C71.8273 43.6968 71.5991 44.0279 71.3134 44.3815C71.0339 44.7282 70.6601 45.1352 70.1921 45.6025L74.1223 50.3685L70.9429 50.5313L65.6779 44.0344C65.3452 44.2535 65.1154 44.5586 64.9885 44.9497C64.9284 45.1483 64.8677 45.4448 64.8062 45.8391C64.7447 46.2333 64.6857 46.7253 64.6292 47.3149ZM86.4374 47.3718L86.5767 49.731L75.2926 50.3086L75.1533 47.9495L82.507 47.573L82.2526 43.2641C82.1854 42.1268 81.9238 41.3416 81.4679 40.9086C81.0184 40.4753 80.28 40.285 79.2527 40.3376L75.176 40.5463L75.0367 38.1871L79.1524 37.9764C81.051 37.8792 82.4495 38.2052 83.3481 38.9545C84.2531 39.7035 84.759 40.9813 84.8657 42.7881L85.1403 47.4382L86.4374 47.3718ZM98.783 42.0756L99.1969 49.0849L96.5539 49.2202L96.1388 42.1914C96.0801 41.1971 95.8276 40.5092 95.3812 40.1279C94.9344 39.7401 94.1876 39.573 93.1407 39.6266L88.1961 39.8797L88.0568 37.5206L93.1673 37.2589C94.4481 37.1934 95.4856 37.313 96.2797 37.6178C97.0802 37.9223 97.6781 38.4393 98.0734 39.1687C98.4747 39.8913 98.7113 40.8603 98.783 42.0756ZM91.1654 42.1234L91.5994 49.4738L88.9661 49.6086L88.5321 42.2582L91.1654 42.1234Z" fill="black"/>
</g>
<defs>
<clipPath id="clip0_11_2872">
<rect width="174.826" height="146.968" fill="white" transform="translate(146.653) rotate(86.2486)"/>
</clipPath>
</defs>
</svg>
