<svg width="145" height="124" viewBox="0 0 145 124" fill="none" xmlns="http://www.w3.org/2000/svg">
<g clip-path="url(#clip0_78_2)">
<path d="M80.5447 24.2834C79.5682 18.5338 85.5338 12.2649 86.2481 11.5149C93.3835 4.01474 102.993 6.75585 103.117 8.80201C103.175 9.77088 101.058 9.80347 98.2047 12.9592C92.569 19.1894 93.3917 27.2844 89.4775 29.7261C86.2154 31.7597 81.3164 28.8354 80.5445 24.2865L80.5447 24.2834Z" fill="#FF4545"/>
<path d="M77.7477 66.9432C76.0288 72.516 81.1247 79.5103 81.735 80.3471C87.83 88.7147 97.715 87.2518 98.1051 85.2394C98.2892 84.2864 96.1943 83.9776 93.7778 80.4764C89.0039 73.5636 90.8765 65.6454 87.3147 62.7135C84.3461 60.2713 79.1072 62.5309 77.7479 66.94L77.7477 66.9432Z" fill="#FF4545"/>
<path d="M100.25 31.1436C100.25 31.1436 82.8389 14.3485 59.0461 17.0201C42.0414 18.9272 15.0832 30.7655 15.7071 42.6601C16.2234 52.4841 36.7082 63.5888 51.2941 68.0086C75.2046 75.2555 98.3229 62.9972 98.3229 62.9972L100.25 31.1436Z" fill="#E5E5E5"/>
<path d="M100.651 33.1317C100.651 33.1317 109.195 26.7778 110.689 26.1933C120.946 22.193 130.459 31.3022 130.459 31.3022C130.459 31.3022 127.278 30.2111 122.05 31.0968C117.334 31.8955 112.475 38.5767 112.613 39.8333C112.726 40.8661 116.131 39.1085 119.683 39.6048C129.918 41.0315 139.966 52.0233 139.966 52.0233C139.966 52.0233 130.063 57.5738 124.593 58.1707C115.965 59.116 111.165 56.8299 110.45 58.7766C109.863 60.3698 112.123 64.7845 115.367 66.6956C120.976 69.9966 127.234 71.372 127.234 71.372C127.234 71.372 124.025 72.9711 121.159 72.999C111.127 73.0904 98.4616 63.511 98.4616 63.511L100.65 33.138L100.651 33.1317Z" fill="#FF4545" stroke="#FF4545" stroke-width="6" stroke-miterlimit="10"/>
<path d="M99.9118 33.5499C99.9118 33.5499 107.206 27.3332 108.478 26.7563C117.209 22.805 125.201 31.5447 125.201 31.5447C125.201 31.5447 122.511 30.5144 118.073 31.4139C114.069 32.2243 109.896 38.7283 110.001 39.9446C110.089 40.944 112.989 39.2168 115.998 39.668C124.665 40.9664 133.099 51.5255 133.099 51.5255C133.099 51.5255 124.656 56.9749 120.014 57.5974C112.691 58.5807 108.639 56.4072 108.015 58.2964C107.505 59.8438 109.387 64.0973 112.124 65.9211C116.855 69.0693 122.149 70.3529 122.149 70.3529C122.149 70.3529 119.416 71.9261 116.985 71.9762C108.478 72.1421 97.8128 62.9701 97.8128 62.9701L99.9093 33.5561L99.9118 33.5499Z" fill="#FF8400"/>
<path d="M99.8367 35.0465C99.8367 35.0465 105.153 29.3318 106.074 28.7954C112.395 25.1115 119.768 32.5694 119.768 32.5694C119.768 32.5694 116.111 32.0217 112.911 32.888C110.025 33.6701 106.947 39.6079 107.007 40.7038C107.057 41.6087 109.164 40.0072 111.32 40.3803C117.531 41.4478 123.46 50.8966 123.46 50.8966C123.46 50.8966 117.328 55.9293 113.986 56.5514C108.714 57.5295 105.828 55.6134 105.359 57.3286C104.973 58.735 106.273 62.5598 108.217 64.1761C111.576 66.9677 115.366 68.0606 115.366 68.0606C115.366 68.0606 113.384 69.5179 111.635 69.5905C105.523 69.8468 97.973 61.6791 97.973 61.6791L99.839 35.0435L99.8367 35.0465Z" fill="#FFB517"/>
<path d="M52.8162 67.8385C44.6351 65.5562 34.5224 61.3059 27.3626 56.4747C29.5097 56.7869 31.6586 57.0738 33.812 57.3229C47.1273 58.8785 60.5268 59.3412 73.9227 59.6355C82.0801 59.8148 90.2416 59.9309 98.394 60.1861L98.1792 63.7814C98.1792 63.7814 75.9417 74.288 52.8183 67.8387L52.8162 67.8385Z" fill="#DDDDDD"/>
<path d="M94.2793 32.5965L100.004 32.9719" stroke="#FF4545" stroke-width="6" stroke-miterlimit="10"/>
<path d="M93.9028 38.3336L99.912 38.7276" stroke="#FF4545" stroke-width="6" stroke-miterlimit="10"/>
<path d="M92.9229 45.3135L99.1682 45.723" stroke="#FF4545" stroke-width="6" stroke-miterlimit="10"/>
<path d="M92.5767 50.5922L98.7952 51.4095" stroke="#FF4545" stroke-width="6" stroke-miterlimit="10"/>
<path d="M92.1831 56.5948L98.4284 57.0043" stroke="#FF4545" stroke-width="6" stroke-miterlimit="10"/>
<path d="M91.8516 62.192L98.0969 62.6015" stroke="#FF4545" stroke-width="6" stroke-miterlimit="10"/>
<path d="M94.6621 26.7583L92.1112 65.6628" stroke="#FF4545" stroke-width="6" stroke-miterlimit="10"/>
<path d="M100.25 31.1436L98.3209 62.9971" stroke="#FF4545" stroke-width="6" stroke-miterlimit="10"/>
<path d="M32.1462 59.3025C23.2982 54.3257 16.0096 48.1623 15.684 42.503C15.3103 35.9771 23.6534 29.5466 33.9651 24.9054C33.3183 36.3706 32.8035 47.8381 32.1462 59.3025Z" fill="#FF4545"/>
<path d="M32.3762 52.9496C32.2788 54.8828 32.1791 56.8191 32.0713 58.7516C28.365 56.934 25.0379 54.8715 22.8605 52.7796C26.0302 52.9874 29.2054 53.0782 32.3783 52.9497L32.3762 52.9496Z" fill="#AA0004"/>
<path d="M55.6374 49.3C55.6908 49.38 55.7174 49.4733 55.7174 49.58C55.7174 49.6867 55.6774 49.7867 55.5974 49.88C55.5174 49.96 55.4174 50 55.2974 50L52.8374 50C52.5841 50 52.4041 49.94 52.2974 49.82C52.1908 49.6867 52.1308 49.6133 52.1174 49.6L48.6174 44.56C48.2708 44.8667 48.0441 45.2267 47.9374 45.64C47.8308 46.0533 47.7774 46.4933 47.7774 46.96L47.7774 49.46C47.7774 49.62 47.7308 49.7533 47.6374 49.86C47.5441 49.9533 47.4241 50 47.2774 50L45.2974 50C45.1641 50 45.0441 49.9467 44.9374 49.84C44.8441 49.7333 44.7974 49.6067 44.7974 49.46L44.7974 46.98C44.7974 45.8467 44.9508 44.9267 45.2574 44.22C45.5641 43.5133 46.1441 42.8467 46.9974 42.22L44.9574 39.28C44.8908 39.2 44.8574 39.1067 44.8574 39C44.8574 38.8933 44.8974 38.8 44.9774 38.72C45.0708 38.6267 45.1708 38.58 45.2774 38.58L47.6374 38.58C47.8241 38.58 47.9641 38.62 48.0574 38.7C48.1641 38.78 48.2641 38.8867 48.3574 39.02L51.5774 43.58C51.9508 43.3133 52.1841 43.02 52.2774 42.7C52.3841 42.38 52.4374 42 52.4374 41.56L52.4374 39.12C52.4374 38.96 52.4841 38.8333 52.5774 38.74C52.6841 38.6333 52.8108 38.58 52.9574 38.58L55.0574 38.58C55.1908 38.58 55.3041 38.6333 55.3974 38.74C55.5041 38.8467 55.5574 38.9733 55.5574 39.12L55.5574 41.64C55.5574 42.5067 55.3908 43.2867 55.0574 43.98C54.7241 44.6733 54.1108 45.3067 53.2174 45.88L55.6374 49.3ZM57.9309 50C57.7975 50 57.6775 49.9533 57.5709 49.86C57.4775 49.7533 57.4309 49.6333 57.4309 49.5L57.4309 47.78C57.4309 47.6333 57.4775 47.5133 57.5709 47.42C57.6775 47.3267 57.7975 47.28 57.9309 47.28L62.9509 47.28L62.9509 43.58C62.9509 42.0733 62.1975 41.32 60.6909 41.32L58.1309 41.32C57.9842 41.32 57.8642 41.2733 57.7709 41.18C57.6775 41.0733 57.6309 40.9467 57.6309 40.8L57.6309 39.08C57.6309 38.9333 57.6775 38.8133 57.7709 38.72C57.8775 38.6267 57.9975 38.58 58.1309 38.58L60.7909 38.58C62.6575 38.58 64.0642 38.9733 65.0109 39.76C65.9709 40.5467 66.4509 41.82 66.4509 43.58L66.4509 47.28L67.1509 47.28C67.2975 47.28 67.4175 47.3267 67.5109 47.42C67.6042 47.5133 67.6509 47.6333 67.6509 47.78L67.6509 49.5C67.6509 49.6333 67.6042 49.7533 67.5109 49.86C67.4175 49.9533 67.2975 50 67.1509 50L57.9309 50ZM77.1938 50C77.0472 50 76.9205 49.9533 76.8138 49.86C76.7205 49.7667 76.6738 49.6467 76.6738 49.5L76.6738 43.58C76.6738 42.06 75.9205 41.3 74.4138 41.3L69.8538 41.3C69.7205 41.3 69.6005 41.2533 69.4938 41.16C69.4005 41.0533 69.3538 40.9333 69.3538 40.8L69.3538 39.08C69.3538 38.9333 69.4005 38.8133 69.4938 38.72C69.6005 38.6267 69.7205 38.58 69.8538 38.58L74.5138 38.58C76.3538 38.58 77.7338 38.9867 78.6538 39.8C79.5872 40.6133 80.0538 41.88 80.0538 43.6L80.0538 49.5C80.0538 49.6333 80.0072 49.7533 79.9138 49.86C79.8205 49.9533 79.7005 50 79.5538 50L77.1938 50ZM69.8538 50C69.7205 50 69.6005 49.9533 69.4938 49.86C69.4005 49.7533 69.3538 49.6333 69.3538 49.5L69.3538 43.66C69.3538 43.5133 69.4005 43.3933 69.4938 43.3C69.6005 43.2067 69.7205 43.16 69.8538 43.16L72.2338 43.16C72.3805 43.16 72.5005 43.2067 72.5938 43.3C72.6872 43.3933 72.7338 43.5133 72.7338 43.66L72.7338 49.5C72.7338 49.6333 72.6872 49.7533 72.5938 49.86C72.5005 49.9533 72.3805 50 72.2338 50L69.8538 50Z" fill="black"/>
</g>
<defs>
<clipPath id="clip0_78_2">
<rect width="174.826" height="146.968" fill="white" transform="matrix(-0.0654278 0.997857 0.997857 0.0654278 -2.56152 0)"/>
</clipPath>
</defs>
</svg>
