<svg width="282" height="468" viewBox="0 0 282 468" fill="none" xmlns="http://www.w3.org/2000/svg">
<g clip-path="url(#clip0_2_7)">
<path d="M42.5706 269.133C29.7198 264.832 14.6662 282.482 12.8652 284.595C-5.14459 305.706 -0.373078 336.811 4.23341 337.631C6.41467 338.018 6.80213 331.297 14.3576 322.889C29.2749 306.279 47.4497 310.58 53.5486 298.651C58.6287 288.709 52.745 272.533 42.5777 269.133H42.5706Z" fill="#FF4545"/>
<path d="M139.407 269.133C152.258 264.832 167.312 282.482 169.113 284.595C187.122 305.706 182.351 336.811 177.744 337.631C175.563 338.018 175.176 331.297 167.62 322.889C152.703 306.279 134.528 310.58 128.429 298.651C123.349 288.709 129.233 272.533 139.4 269.133H139.407Z" fill="#FF4545"/>
<path d="M55.1559 333.177C55.1559 333.177 19.7749 274.354 29.3395 199.307C36.1703 145.672 66.9232 62.4773 93.7155 66.9381C115.844 70.6254 137.908 138.03 145.736 185.298C158.572 262.785 127.439 333.69 127.439 333.69L55.1559 333.177Z" fill="#E5E5E5"/>
<path d="M88.3412 207.502C106.419 207.502 121.075 193.898 121.075 177.117C121.075 160.336 106.419 146.732 88.3412 146.732C70.2631 146.732 55.6079 160.336 55.6079 177.117C55.6079 193.898 70.2631 207.502 88.3412 207.502Z" fill="#78E9FF" stroke="#3FB0FF" stroke-width="4" stroke-miterlimit="10"/>
<path d="M59.5901 334.864C59.5901 334.864 43.9625 360.688 42.4198 365.316C31.8579 397.075 51.0373 429.2 51.0373 429.2C51.0373 429.2 49.0426 418.865 51.8194 402.435C54.3235 387.62 70.1449 373.571 72.9647 374.271C75.2823 374.844 70.805 385.299 71.4005 396.688C73.1082 429.507 96.4636 463.726 96.4636 463.726C96.4636 463.726 110.477 433.414 112.636 416.158C116.052 388.94 111.596 373.21 116.102 371.343C119.79 369.81 129.434 377.911 133.272 388.62C139.902 407.13 142.084 427.3 142.084 427.3C142.084 427.3 146.173 417.438 146.661 408.336C148.355 376.478 128.58 334.237 128.58 334.237L59.6045 334.864H59.5901Z" fill="#FF4545" stroke="#FF4545" stroke-width="6" stroke-miterlimit="10"/>
<path d="M60.6449 332.604C60.6449 332.604 45.5124 354.487 44.0199 358.408C33.7952 385.326 52.3647 412.544 52.3647 412.544C52.3647 412.544 50.4346 403.782 53.1253 389.867C55.5505 377.311 70.8696 365.409 73.6033 365.996C75.8492 366.483 71.5153 375.338 72.0893 384.993C73.7397 412.804 96.3559 441.802 96.3559 441.802C96.3559 441.802 109.924 416.111 112.019 401.489C115.327 378.425 111.015 365.096 115.377 363.509C118.951 362.209 128.286 369.076 132.002 378.151C138.417 393.841 140.534 410.93 140.534 410.93C140.534 410.93 144.494 402.576 144.968 394.861C146.604 367.863 127.453 332.063 127.453 332.063L60.6592 332.597L60.6449 332.604Z" fill="#FF8400"/>
<path d="M64.0388 332.677C64.0388 332.677 50.3341 348.38 48.9852 351.193C39.722 370.51 55.4859 395.494 55.4859 395.494C55.4859 395.494 54.7899 383.759 57.2223 373.771C59.4179 364.762 73.2948 356.221 75.7631 356.641C77.8008 356.988 73.8688 363.349 74.3926 370.277C75.885 390.233 96.3631 411.044 96.3631 411.044C96.3631 411.044 108.647 392.607 110.549 382.119C113.541 365.569 109.637 356.001 113.584 354.867C116.82 353.934 125.272 358.861 128.637 365.376C134.449 376.631 136.358 388.9 136.358 388.9C136.358 388.9 139.945 382.905 140.369 377.365C141.854 357.995 124.511 332.303 124.511 332.303L64.0316 332.684L64.0388 332.677Z" fill="#FFB517"/>
<path d="M73.9262 176.577L97.9058 162.408C99.6422 161.381 100.152 159.247 99.0466 157.64C97.9416 156.033 95.6456 155.56 93.9092 156.58L69.9296 170.749C68.1932 171.776 67.6838 173.91 68.7888 175.517C69.8937 177.124 72.1898 177.597 73.9262 176.577Z" fill="#D0FFFF"/>
<path d="M78.1667 190.286L91.4552 182.431C93.1916 181.404 93.7011 179.271 92.5961 177.664C91.4911 176.057 89.195 175.583 87.4586 176.604L74.1702 184.458C72.4338 185.485 71.9243 187.619 73.0293 189.226C74.1343 190.833 76.4303 191.306 78.1667 190.286Z" fill="#D0FFFF"/>
<path d="M145.126 190.099C141.179 163.628 133.071 130.609 123.213 106.852C123.6 113.739 123.93 120.627 124.174 127.522C125.717 170.156 124.777 212.83 123.457 255.457C122.653 281.415 121.706 307.373 121.075 333.33L129.233 333.397C129.233 333.397 156.276 264.925 145.126 190.106V190.099Z" fill="#DDDDDD"/>
<path d="M59.3246 314.507V332.777" stroke="#FF4545" stroke-width="6" stroke-miterlimit="10"/>
<path d="M72.3477 314.507V333.684" stroke="#FF4545" stroke-width="6" stroke-miterlimit="10"/>
<path d="M88.2695 312.847V332.777" stroke="#FF4545" stroke-width="6" stroke-miterlimit="10"/>
<path d="M100.252 312.847L101.178 332.777" stroke="#FF4545" stroke-width="6" stroke-miterlimit="10"/>
<path d="M113.878 312.847V332.777" stroke="#FF4545" stroke-width="6" stroke-miterlimit="10"/>
<path d="M126.578 312.96V332.89" stroke="#FF4545" stroke-width="6" stroke-miterlimit="10"/>
<path d="M46.072 314.507H134.385" stroke="#FF4545" stroke-width="6" stroke-miterlimit="10"/>
<path d="M55.1558 333.177L127.439 333.684" stroke="#FF4545" stroke-width="6" stroke-miterlimit="10"/>
<path d="M128.896 122.641C118.958 93.4893 106.107 69.0451 93.3639 66.8314C78.669 64.2843 62.8979 89.4553 50.8795 121.254C76.8896 121.587 102.885 122.341 128.896 122.641Z" fill="#FF4545"/>
<path d="M114.502 122.048C118.886 122.141 123.277 122.228 127.661 122.288C124.103 110.132 119.934 99.1303 115.528 91.7757C115.528 101.891 115.263 111.999 114.502 122.054V122.048Z" fill="#AA0004"/>
</g>
<defs>
<clipPath id="clip0_2_7">
<rect width="396" height="468" fill="white"/>
</clipPath>
</defs>
</svg>
