<svg width="282" height="468" viewBox="0 0 282 468" fill="none" xmlns="http://www.w3.org/2000/svg">
<g clip-path="url(#clip0_2_7)">
<path d="M42.5706 269.133C29.7198 264.832 14.6662 282.482 12.8652 284.595C-5.14459 305.706 -0.373078 336.811 4.23341 337.631C6.41467 338.018 6.80213 331.297 14.3576 322.889C29.2749 306.279 47.4497 310.58 53.5486 298.651C58.6287 288.709 52.745 272.533 42.5777 269.133H42.5706Z" fill="#FF4545"/>
<path d="M139.407 269.133C152.258 264.832 167.312 282.482 169.113 284.595C187.122 305.706 182.351 336.811 177.744 337.631C175.563 338.018 175.176 331.297 167.62 322.889C152.703 306.279 134.528 310.58 128.429 298.651C123.349 288.709 129.233 272.533 139.4 269.133H139.407Z" fill="#FF4545"/>
<path d="M55.1559 333.177C55.1559 333.177 19.7749 274.354 29.3395 199.307C36.1703 145.672 66.9232 62.4773 93.7155 66.9381C115.844 70.6254 137.908 138.03 145.736 185.298C158.572 262.785 127.439 333.69 127.439 333.69L55.1559 333.177Z" fill="#E5E5E5"/>
<path d="M88.3412 207.502C106.419 207.502 121.075 193.898 121.075 177.117C121.075 160.336 106.419 146.732 88.3412 146.732C70.2631 146.732 55.6079 160.336 55.6079 177.117C55.6079 193.898 70.2631 207.502 88.3412 207.502Z" fill="#78E9FF" stroke="#3FB0FF" stroke-width="4" stroke-miterlimit="10"/>
<path d="M59.5901 334.864C59.5901 334.864 43.9625 360.688 42.4198 365.316C31.8579 397.075 51.0373 429.2 51.0373 429.2C51.0373 429.2 49.0426 418.865 51.8194 402.435C54.3235 387.62 70.1449 373.571 72.9647 374.271C75.2823 374.844 70.805 385.299 71.4005 396.688C73.1082 429.507 96.4636 463.726 96.4636 463.726C96.4636 463.726 110.477 433.414 112.636 416.158C116.052 388.94 111.596 373.21 116.102 371.343C119.79 369.81 129.434 377.911 133.272 388.62C139.902 407.13 142.084 427.3 142.084 427.3C142.084 427.3 146.173 417.438 146.661 408.336C148.355 376.478 128.58 334.237 128.58 334.237L59.6045 334.864H59.5901Z" fill="#FF4545" stroke="#FF4545" stroke-width="6" stroke-miterlimit="10"/>
<path d="M60.6449 332.604C60.6449 332.604 45.5124 354.487 44.0199 358.408C33.7952 385.326 52.3647 412.544 52.3647 412.544C52.3647 412.544 50.4346 403.782 53.1253 389.867C55.5505 377.311 70.8696 365.409 73.6033 365.996C75.8492 366.483 71.5153 375.338 72.0893 384.993C73.7397 412.804 96.3559 441.802 96.3559 441.802C96.3559 441.802 109.924 416.111 112.019 401.489C115.327 378.425 111.015 365.096 115.377 363.509C118.951 362.209 128.286 369.076 132.002 378.151C138.417 393.841 140.534 410.93 140.534 410.93C140.534 410.93 144.494 402.576 144.968 394.861C146.604 367.863 127.453 332.063 127.453 332.063L60.6592 332.597L60.6449 332.604Z" fill="#FF8400"/>
<path d="M64.0388 332.677C64.0388 332.677 50.3341 348.38 48.9852 351.193C39.722 370.51 55.4859 395.494 55.4859 395.494C55.4859 395.494 54.7899 383.759 57.2223 373.771C59.4179 364.762 73.2948 356.221 75.7631 356.641C77.8008 356.988 73.8688 363.349 74.3926 370.277C75.885 390.233 96.3631 411.044 96.3631 411.044C96.3631 411.044 108.647 392.607 110.549 382.119C113.541 365.569 109.637 356.001 113.584 354.867C116.82 353.934 125.272 358.861 128.637 365.376C134.449 376.631 136.358 388.9 136.358 388.9C136.358 388.9 139.945 382.905 140.369 377.365C141.854 357.995 124.511 332.303 124.511 332.303L64.0316 332.684L64.0388 332.677Z" fill="#FFB517"/>
<path d="M73.9262 176.577L97.9058 162.408C99.6422 161.381 100.152 159.247 99.0466 157.64C97.9416 156.033 95.6456 155.56 93.9092 156.58L69.9296 170.749C68.1932 171.776 67.6838 173.91 68.7888 175.517C69.8937 177.124 72.1898 177.597 73.9262 176.577Z" fill="#D0FFFF"/>
<path d="M78.1667 190.286L91.4552 182.431C93.1916 181.404 93.7011 179.271 92.5961 177.664C91.4911 176.057 89.195 175.583 87.4586 176.604L74.1702 184.458C72.4338 185.485 71.9243 187.619 73.0293 189.226C74.1343 190.833 76.4303 191.306 78.1667 190.286Z" fill="#D0FFFF"/>
<path d="M145.126 190.099C141.179 163.628 133.071 130.609 123.213 106.852C123.6 113.739 123.93 120.627 124.174 127.522C125.717 170.156 124.777 212.83 123.457 255.457C122.653 281.415 121.706 307.373 121.075 333.33L129.233 333.397C129.233 333.397 156.276 264.925 145.126 190.106V190.099Z" fill="#DDDDDD"/>
<path d="M59.3246 314.507V332.777" stroke="#FF4545" stroke-width="6" stroke-miterlimit="10"/>
<path d="M72.3477 314.507V333.684" stroke="#FF4545" stroke-width="6" stroke-miterlimit="10"/>
<path d="M88.2695 312.847V332.777" stroke="#FF4545" stroke-width="6" stroke-miterlimit="10"/>
<path d="M100.252 312.847L101.178 332.777" stroke="#FF4545" stroke-width="6" stroke-miterlimit="10"/>
<path d="M113.878 312.847V332.777" stroke="#FF4545" stroke-width="6" stroke-miterlimit="10"/>
<path d="M126.578 312.96V332.89" stroke="#FF4545" stroke-width="6" stroke-miterlimit="10"/>
<path d="M46.072 314.507H134.385" stroke="#FF4545" stroke-width="6" stroke-miterlimit="10"/>
<path d="M55.1558 333.177L127.439 333.684" stroke="#FF4545" stroke-width="6" stroke-miterlimit="10"/>
<path d="M128.896 122.641C118.958 93.4893 106.107 69.0451 93.3639 66.8314C78.669 64.2843 62.8979 89.4553 50.8795 121.254C76.8896 121.587 102.885 122.341 128.896 122.641Z" fill="#FF4545"/>
<path d="M114.502 122.048C118.886 122.141 123.277 122.228 127.661 122.288C124.103 110.132 119.934 99.1303 115.528 91.7757C115.528 101.891 115.263 111.999 114.502 122.054V122.048Z" fill="#AA0004"/>
<path d="M53.5504 284.253C53.6186 284.399 53.6243 284.55 53.5676 284.706C53.5108 284.862 53.4093 284.974 53.2631 285.043L50.7508 286.214C50.6046 286.282 50.4535 286.288 50.2976 286.231C50.1417 286.174 50.0296 286.073 49.9614 285.927L45.9542 277.333C45.886 277.187 45.8803 277.036 45.937 276.88C45.9938 276.724 46.0953 276.612 46.2415 276.544L48.7538 275.372C48.9 275.304 49.0511 275.298 49.207 275.355C49.3629 275.412 49.475 275.513 49.5432 275.66L53.5504 284.253ZM55.5494 288.54C55.6176 288.686 55.6233 288.837 55.5666 288.993C55.5098 289.149 55.4083 289.261 55.2621 289.329L52.7498 290.501C52.6036 290.569 52.4525 290.575 52.2966 290.518C52.1407 290.461 52.0286 290.36 51.9604 290.214L51.0214 288.2C50.9532 288.054 50.9475 287.902 51.0042 287.747C51.061 287.591 51.1625 287.479 51.3087 287.41L53.821 286.239C53.9672 286.171 54.1183 286.165 54.2742 286.222C54.4301 286.278 54.5422 286.38 54.6104 286.526L55.5494 288.54ZM56.4035 283.044C56.2705 283.106 56.1292 283.115 55.9795 283.072C55.8368 283.009 55.7345 282.911 55.6725 282.778L53.032 277.116C52.9638 276.969 52.9546 276.828 53.0042 276.692C53.0672 276.549 53.1651 276.447 53.2981 276.385L55.7904 275.222C55.9366 275.154 56.0779 275.145 56.2144 275.195C56.3641 275.238 56.4731 275.333 56.5412 275.479L59.1818 281.142C59.25 281.288 59.2526 281.432 59.1896 281.575C59.14 281.711 59.042 281.814 58.8958 281.882L56.4035 283.044ZM62.1086 280.384C61.9757 280.446 61.8343 280.455 61.6846 280.412C61.542 280.349 61.4397 280.251 61.3777 280.118L58.7372 274.455C58.669 274.309 58.6597 274.168 58.7094 274.031C58.7723 273.889 58.8703 273.786 59.0032 273.724L61.4955 272.562C61.6418 272.494 61.7831 272.485 61.9195 272.534C62.0692 272.578 62.1782 272.673 62.2464 272.819L64.8869 278.481C64.9551 278.628 64.9577 278.772 64.8948 278.915C64.8451 279.051 64.7472 279.153 64.6009 279.222L62.1086 280.384ZM68.1777 269.446C69.9057 268.64 71.3372 268.483 72.472 268.973C73.614 269.444 74.5755 270.517 75.3565 272.191C76.1437 273.88 76.2899 275.494 75.795 277.036C75.3001 278.578 74.4008 279.911 73.0971 281.037L72.4111 281.648C72.2906 281.737 72.1426 281.749 71.9672 281.685C71.8113 281.629 71.6961 281.52 71.6218 281.361L70.6827 279.347C70.6207 279.214 70.6115 279.073 70.6549 278.923C70.6922 278.76 70.7684 278.611 70.8837 278.477L71.4008 277.92C71.9007 277.395 72.215 276.82 72.3436 276.194C72.4794 275.548 72.3427 274.786 71.9336 273.909C71.5431 273.071 71.1175 272.558 70.6569 272.368C70.2095 272.172 69.5936 272.257 68.8094 272.623L68.3508 272.837L68.291 272.865L65.6099 274.09C65.4637 274.159 65.3223 274.168 65.1859 274.118C65.0495 274.069 64.9471 273.971 64.879 273.824L62.7312 269.219C62.663 269.072 62.6538 268.931 62.7034 268.795C62.7664 268.652 62.8643 268.55 62.9972 268.488L65.1506 267.484C65.2969 267.415 65.4382 267.406 65.5746 267.456C65.7111 267.505 65.8134 267.603 65.8815 267.75L66.9415 270.023L67.7789 269.632L68.1777 269.446ZM84.889 261.653C85.0352 261.585 85.1766 261.576 85.313 261.626C85.4627 261.669 85.5717 261.764 85.6399 261.91L88.392 267.812C89.0056 269.128 89.0584 270.439 88.5503 271.744C88.036 273.035 87.0162 274.215 85.491 275.282L80.8689 278.748C80.735 278.843 80.5933 278.869 80.4435 278.825C80.2938 278.782 80.1848 278.687 80.1167 278.541L79.3078 276.806C79.2458 276.673 79.233 276.541 79.2693 276.411C79.2995 276.268 79.3815 276.148 79.5153 276.054L81.4775 274.483L75.1918 267.146C75.02 266.951 74.9248 266.834 74.9062 266.794C74.8566 266.688 74.8531 266.576 74.8957 266.459C74.9382 266.342 75.0127 266.259 75.119 266.209L77.731 264.991C77.8506 264.936 77.9658 264.922 78.0766 264.952C78.1811 264.968 78.2653 265.009 78.329 265.077L84.1057 272.311C84.6933 271.697 85.0116 271.096 85.0605 270.506C85.1032 269.904 84.9355 269.197 84.5574 268.386L82.2702 263.482C82.202 263.335 82.1928 263.194 82.2424 263.058C82.2921 262.921 82.39 262.819 82.5362 262.751L84.889 261.653ZM97.6686 269.555C97.5357 269.617 97.3943 269.626 97.2446 269.583C97.102 269.52 96.9997 269.422 96.9377 269.289L92.0936 258.901C92.0255 258.755 92.0162 258.613 92.0658 258.477C92.1288 258.334 92.2267 258.232 92.3597 258.17L94.852 257.008C94.9982 256.939 95.1396 256.93 95.276 256.98C95.4257 257.023 95.5347 257.118 95.6029 257.264L100.447 267.653C100.515 267.799 100.518 267.943 100.455 268.086C100.405 268.222 100.307 268.325 100.161 268.393L97.6686 269.555ZM108.403 253.432C108.818 254.322 108.997 255.226 108.939 256.143C108.881 257.06 108.579 257.938 108.031 258.776L110.552 260.173C110.837 260.299 111.032 260.475 111.138 260.701L111.891 262.316C111.953 262.449 111.962 262.59 111.918 262.74C111.869 262.877 111.771 262.979 111.625 263.047L103.53 266.822C103.397 266.884 103.255 266.893 103.106 266.85C102.963 266.787 102.861 266.689 102.799 266.556L101.971 264.781C101.903 264.635 101.894 264.494 101.943 264.357C102.006 264.215 102.104 264.112 102.237 264.05L106.903 261.875L97.4387 256.675C97.297 256.58 97.2075 256.492 97.1703 256.412C97.1145 256.292 97.111 256.181 97.1598 256.077C97.2156 255.954 97.3034 255.865 97.423 255.809L99.8954 254.656C100.161 254.532 100.43 254.552 100.701 254.717L105.287 257.264C105.657 256.427 105.573 255.431 105.034 254.275L104.513 253.158C104.439 252.999 104.426 252.851 104.476 252.714C104.519 252.564 104.614 252.455 104.76 252.387L106.854 251.411C106.987 251.349 107.125 251.35 107.267 251.412C107.423 251.469 107.535 251.571 107.604 251.717L108.403 253.432ZM115.29 261.338C115.157 261.4 115.016 261.409 114.866 261.366C114.724 261.303 114.621 261.205 114.559 261.072L109.715 250.684C109.647 250.537 109.638 250.396 109.688 250.26C109.75 250.117 109.848 250.015 109.981 249.953L114.707 247.749C116.581 246.875 118.153 246.62 119.423 246.982C120.686 247.332 121.733 248.397 122.564 250.178L125.306 256.06C125.368 256.193 125.378 256.335 125.334 256.484C125.284 256.621 125.187 256.723 125.04 256.791L122.668 257.898C122.521 257.966 122.38 257.975 122.244 257.925C122.107 257.876 122.005 257.778 121.937 257.632L119.185 251.73C118.478 250.214 117.374 249.807 115.872 250.507L114.117 251.326L117.929 259.5C117.991 259.633 118 259.775 117.957 259.924C117.907 260.061 117.809 260.163 117.663 260.231L115.29 261.338ZM126.203 242.389C127.931 241.583 129.362 241.425 130.497 241.915C131.639 242.386 132.6 243.459 133.381 245.134C134.169 246.822 134.315 248.437 133.82 249.979C133.325 251.52 132.426 252.854 131.122 253.98L130.436 254.591C130.316 254.679 130.168 254.692 129.992 254.628C129.836 254.571 129.721 254.463 129.647 254.303L128.708 252.29C128.646 252.157 128.636 252.015 128.68 251.866C128.717 251.703 128.793 251.554 128.909 251.419L129.426 250.862C129.926 250.338 130.24 249.763 130.369 249.136C130.504 248.49 130.368 247.729 129.959 246.851C129.568 246.014 129.142 245.5 128.682 245.311C128.234 245.115 127.619 245.2 126.834 245.565L126.376 245.779L126.316 245.807L123.635 247.033C123.489 247.101 123.347 247.11 123.211 247.061C123.074 247.011 122.972 246.913 122.904 246.767L120.756 242.161C120.688 242.015 120.679 241.874 120.728 241.737C120.791 241.594 120.889 241.492 121.022 241.43L123.176 240.426C123.322 240.358 123.463 240.349 123.6 240.398C123.736 240.448 123.838 240.546 123.906 240.692L124.966 242.965L125.804 242.575L126.203 242.389Z" fill="#313131"/>
</g>
<defs>
<clipPath id="clip0_2_7">
<rect width="396" height="468" fill="white"/>
</clipPath>
</defs>
</svg>
