<svg width="346" height="275" viewBox="0 0 346 275" fill="none" xmlns="http://www.w3.org/2000/svg">
<g clip-path="url(#clip0_18_146)" filter="url(#filter0_f_18_146)">
<path d="M127.164 86.6621C121.66 79.2252 115.303 71.2311 104.284 68.0507C81.9968 61.6131 60.9295 78.3797 48.4856 92.9075C35.4913 108.089 22.13 124.048 20.6299 141.747C19.1405 159.445 33.8185 179.171 58.5983 182.361C62.9586 182.919 67.6749 183.024 71.2581 184.85C76.9566 187.761 77.2156 193.507 78.4784 198.388C83.4753 217.759 110.144 229.932 134.373 239.771C149.828 246.046 165.769 252.445 183.426 254.203C201.083 255.962 221.114 252.003 230.644 241.395C241.717 229.068 238.026 209.63 256.308 202.75C260.723 201.088 265.774 200.531 270.522 199.436C287.877 195.429 300.45 184.206 306.041 171.975C311.631 159.743 311.146 146.551 309.138 133.772C320.719 129.419 326.04 119.35 325.36 110.126C324.68 100.902 319.122 92.2446 313.65 83.8372C307.53 74.4306 300.839 64.5436 288.611 58.7978C276.383 53.052 256.891 53.6862 249.844 62.7661C230.546 51.2553 211.249 39.754 191.952 28.2432C186.48 24.9764 180.652 21.5942 173.605 20.691C158.7 18.779 146.364 28.2048 132.895 33.0858C121.163 37.3327 107.413 38.2648 95.8113 42.6846C84.2092 47.1045 75.0787 57.616 81.932 65.5525" fill="#A5A5A5"/>
<path d="M128.567 85.9321C123.311 78.8411 117.396 71.6636 108.493 67.9932C99.5886 64.3228 88.9471 64.515 79.687 67.8683C70.4269 71.2216 62.1598 77.1212 55.2093 83.6453C47.8488 90.5537 41.4703 98.4614 35.448 106.311C24.364 120.762 14.4132 138.749 21.2557 156.448C24.0186 163.577 28.9833 170.044 35.5452 174.838C42.787 180.132 51.3888 183.044 60.638 184.033C65.6458 184.572 71.3011 185.014 74.0317 189.347C76.1578 192.719 76.2226 196.813 77.4206 200.454C79.8921 207.958 85.5258 214.271 92.0338 219.373C99.4591 225.196 108.05 229.75 116.792 233.814C126.398 238.273 136.305 242.279 146.267 246.056C166.46 253.704 188.714 259.267 210.515 253.829C219.193 251.667 227.6 247.689 232.953 241.059C237.67 235.217 239.526 228.069 241.987 221.343C244.447 214.617 247.761 208.371 254.905 204.941C259.859 202.558 265.579 202.068 270.954 200.829C275.919 199.676 280.721 197.898 285.135 195.554C293.252 191.24 300.116 185.023 304.746 177.682C310.271 168.939 312.247 158.821 312.149 148.876C312.095 143.688 311.502 138.528 310.703 133.397L309.958 135.021C318.711 131.649 325.047 124.49 326.612 116.102C328.5 105.927 323.309 96.1361 317.859 87.4886C312.743 79.3503 307.487 70.8854 299.878 64.3517C292.798 58.2696 284.045 54.5223 274.213 53.7921C265.018 53.1099 254.107 54.9355 248.441 62.0553L250.653 61.5364C237.227 53.5326 223.801 45.5289 210.386 37.5251C203.824 33.6145 197.305 29.6462 190.7 25.7933C185.023 22.488 179.001 19.6728 172.137 19.1155C159.045 18.0586 147.702 25.2937 136.478 30.1074C123.581 35.6419 109.011 36.2664 95.8652 41.1282C89.7889 43.3766 84.0364 47.0278 80.5504 52.0914C77.4961 56.5305 76.9133 61.9688 80.5288 66.2926C81.7592 67.7626 84.5761 66.331 83.3241 64.8417C76.1578 56.271 88.5046 47.0278 96.6207 43.9531C109.108 39.2162 123.019 38.5724 135.474 33.6818C146.375 29.406 156.854 22.0556 169.244 21.9019C175.903 21.825 181.839 24.2175 187.376 27.321C193.592 30.8089 199.625 34.5753 205.734 38.2169C220.164 46.826 234.594 55.4255 249.023 64.0346C249.79 64.4958 250.761 64.1211 251.236 63.5157C255.704 57.9045 264.511 56.4055 271.753 56.5689C280.754 56.7611 289.075 59.7204 295.853 64.9954C303.051 70.5971 307.94 77.9571 312.667 85.2403C318.042 93.5035 324.162 102.689 323.773 112.586C323.428 121.406 317.373 129.064 308.318 132.552C307.606 132.821 307.487 133.599 307.573 134.176C309.171 144.428 309.786 155.055 306.861 165.172C304.487 173.387 299.706 180.805 292.841 186.705C285.6 192.931 276.663 196.822 266.885 198.725C261.845 199.705 256.718 200.569 252.24 202.981C248.991 204.73 246.282 207.132 244.188 209.947C239.968 215.607 238.339 222.438 235.953 228.789C233.363 235.698 229.564 241.828 222.592 245.94C214.811 250.523 205.292 252.551 196.075 253.05C185.163 253.637 174.349 251.869 163.977 248.948C153.606 246.027 143.007 241.751 132.819 237.571C123.818 233.882 114.882 229.99 106.474 225.292C98.9303 221.074 91.5049 216.087 86.195 209.63C83.799 206.709 81.8348 203.5 80.6368 200.031C79.4388 196.563 79.1906 192.633 77.4961 189.174C75.6074 185.302 71.9271 182.977 67.3618 182.045C62.4944 181.045 57.4974 181.007 52.6839 179.748C44.4167 177.596 37.0885 173.214 31.6274 167.296C26.6736 161.915 23.3279 155.199 22.3998 148.281C21.2449 139.652 24.0294 130.899 28.1091 123.145C32.8794 114.085 39.4953 105.879 46.2299 97.9041C52.1766 90.8708 58.404 84.1065 66.1099 78.5144C73.8158 72.9223 82.4499 68.6946 92.1201 68.1374C101.79 67.5801 111.04 71.3177 117.699 77.7938C120.731 80.7435 123.268 84.0584 125.739 87.3925C126.883 88.9299 129.689 87.4886 128.534 85.9417L128.567 85.9321Z" fill="#898989"/>
</g>
<defs>
<filter id="filter0_f_18_146" x="0.1" y="0.1" width="345.8" height="274.8" filterUnits="userSpaceOnUse" color-interpolation-filters="sRGB">
<feFlood flood-opacity="0" result="BackgroundImageFix"/>
<feBlend mode="normal" in="SourceGraphic" in2="BackgroundImageFix" result="shape"/>
<feGaussianBlur stdDeviation="9.45" result="effect1_foregroundBlur_18_146"/>
</filter>
<clipPath id="clip0_18_146">
<rect width="308" height="237" fill="white" transform="translate(19 19)"/>
</clipPath>
</defs>
</svg>
