<svg width="224" height="196" viewBox="0 0 224 196" fill="none" xmlns="http://www.w3.org/2000/svg">
<path d="M76.19 3.38997C69.22 13.9 81.23 9.81997 87.9 14.97C94.69 20.22 95.66 28.76 105.23 32.95C116.68 37.97 128.4 35.08 138.06 36.9C142.78 37.79 147.6 41.4 152.51 42.65C157.77 43.99 164.25 41.55 168.4 44.54C171.54 46.8 171.83 52.64 174.59 55.59C179.04 60.37 186.37 64.02 189.84 68.42C192.68 72.04 196.76 87.34 199.29 90.32C204.82 96.83 211.35 95.3 211.99 95.66C214.94 97.35 214.96 98.97 215.95 99.87L214.14 104.24L219 106.26C218.87 107.04 218.16 107.71 218.09 108.45C217.75 112.22 216.15 115.46 219.33 119.22C215.92 132.27 216.44 138.65 206.61 149.85C198.51 140.54 188.93 136.37 176.93 132.67L167.7 146.04L147.71 141.24C145.18 150.56 139.99 144.31 133.22 145.33C127.55 146.18 123.45 149.96 117.17 148.58C94.64 143.62 101.15 133.26 98.36 117.55C93.09 117.55 82.81 112.71 78.88 113.46C75.91 114.03 75.03 118.52 72.95 119.32C70.97 120.08 66.74 117.87 63.88 118.6C57.96 120.11 57.33 128.08 49.52 125.88C41.94 123.74 41.1 117.67 36.68 115.2C29.84 111.37 17.36 113.4 11.82 103.56C8.82998 98.25 15.29 90.2 1.22998 87.69C6.70998 70.54 26 37.9 38.2 24.02C41.57 20.19 60.21 2.38997 63.48 1.30997C68.04 -0.200031 73.14 3.38997 76.19 3.36997V3.38997ZM153.3 69.64C151.67 66.45 144.37 57.27 141.28 56.01L134.01 57.25C121.2 83.88 172.17 106.59 153.31 69.64H153.3ZM74.45 48.84C67.97 59.25 73.5 74.28 84.19 81.87C87.2 84.01 88.27 86.98 92.5 84.55C100.15 70.96 91.01 53.37 74.45 48.84ZM177.31 96.66C167.73 104.93 184.18 136.96 196.36 130.29C202.42 117.69 193.06 99.66 177.31 96.66Z" fill="#6D6C72"/>
<path d="M206.61 149.87C203.84 153.03 172.71 180.66 170.5 181.77C169.29 182.38 145.85 189.23 144.45 189.38C133.82 190.53 125.32 184.17 117.65 195.19C93.2601 180.1 75.7601 192.57 52.8701 175.05C41.7401 166.53 38.1501 164.29 26.1401 156.46C9.21007 145.43 -4.13993 104.52 1.24007 87.7C15.3101 90.21 8.84007 98.26 11.8301 103.57C17.3701 113.41 29.8501 111.38 36.6901 115.21C41.1001 117.68 41.9401 123.76 49.5301 125.89C57.3401 128.09 57.9801 120.12 63.8901 118.61C66.7401 117.88 70.9701 120.09 72.9601 119.33C75.0401 118.53 75.9201 114.04 78.8901 113.47C82.8301 112.72 93.1001 117.56 98.3701 117.56C101.15 133.27 94.6501 143.63 117.18 148.59C123.45 149.97 127.56 146.19 133.23 145.34C140.01 144.32 145.19 150.57 147.72 141.25L167.71 146.05L176.94 132.68C188.94 136.38 198.52 140.55 206.62 149.86L206.61 149.87Z" fill="#48474C"/>
<path d="M76.19 3.38997C87.94 3.31997 90.31 4.05997 101.32 4.91997C122.28 6.54997 142.21 -1.78003 150.93 26.74C192.33 30.06 200.7 65.63 211.98 95.67C211.35 95.31 204.81 96.85 199.28 90.33C196.75 87.35 192.67 72.05 189.83 68.43C186.37 64.02 179.04 60.38 174.58 55.6C171.83 52.65 171.53 46.81 168.39 44.55C164.24 41.56 157.75 44 152.5 42.66C147.59 41.41 142.77 37.79 138.05 36.91C128.39 35.1 116.67 37.98 105.22 32.96C95.65 28.77 94.68 20.23 87.89 14.98C81.22 9.82997 69.21 13.91 76.18 3.39997L76.19 3.38997Z" fill="#919094"/>
<path d="M218.09 108.46C228.33 111.32 219.63 118.07 219.33 119.23C216.15 115.47 217.75 112.23 218.09 108.46Z" fill="#48474C"/>
<path d="M215.95 99.87C216.73 100.58 219.6 100.59 220.31 102.07C220.85 103.78 219.2 105.03 219 106.27L214.14 104.25L215.95 99.88V99.87Z" fill="#48474C"/>
<path d="M70.5001 38.9399C95.2501 45.5899 108.6 72.4599 96.8801 93.5199C90.4901 97.3299 88.9401 92.7799 84.4701 89.5499C68.5901 78.0799 60.5801 55.0799 70.5001 38.9399Z" fill="#6D6C72"/>
<path d="M162.68 67.32C190.7 125.65 112.89 90.86 133.32 48.11L144.55 45.95C149.28 47.86 160.27 62.2899 162.68 67.32Z" fill="#6D6C72"/>
<path d="M173.39 83.47C199.34 88.65 215.21 117.57 205.58 137.45C185.74 147.74 157.87 96.37 173.39 83.47Z" fill="#6D6C72"/>
</svg>
