<svg width="175" height="155" viewBox="0 0 175 155" fill="none" xmlns="http://www.w3.org/2000/svg">
<path d="M60.5748 2.69774C55.0793 11.0813 64.4549 7.76483 69.6168 11.8115C74.8752 15.9285 75.5687 22.7022 82.9955 25.9659C91.8795 29.8718 101.027 27.5054 108.533 28.8865C112.202 29.5551 115.933 32.3965 119.752 33.3554C123.834 34.3847 128.899 32.4053 132.112 34.7541C134.544 36.5311 134.728 41.1584 136.861 43.4808C140.303 47.2459 145.982 50.0874 148.651 53.5622C150.846 56.4124 153.918 68.526 155.867 70.8748C160.125 76.0034 165.234 74.7455 165.726 75.027C168.017 76.3465 168.017 77.6309 168.781 78.3435L167.341 81.8271L171.116 83.4017C171.01 84.0263 170.449 84.5542 170.396 85.1436C170.106 88.1433 168.842 90.7209 171.291 93.6855C168.552 104.057 168.921 109.115 161.187 118.071C154.945 110.734 147.51 107.488 138.187 104.629L130.909 115.291L115.38 111.614C113.343 119.021 109.349 114.103 104.064 114.957C99.6398 115.669 96.4268 118.695 91.5459 117.64C74.0325 113.848 79.168 105.588 77.105 93.1401C72.9966 93.1752 65.0255 89.4013 61.9618 90.0259C59.6442 90.4922 58.9332 94.0638 57.3091 94.7147C55.7553 95.3305 52.4808 93.6063 50.251 94.2045C45.6335 95.4449 45.0892 101.77 39.0231 100.072C32.9571 98.3743 32.5181 93.6151 29.0945 91.6798C23.7921 88.68 14.0566 90.3778 9.80774 82.61C7.51651 78.4138 12.5993 71.9832 1.66113 70.083C6.04169 56.4388 21.2727 30.426 30.8678 19.3329C33.5101 16.2716 48.153 2.02917 50.6988 1.15826C54.2629 -0.0733259 58.2133 2.75052 60.5835 2.71533L60.5748 2.69774ZM120.191 54.7586C118.944 52.2426 113.317 45.0027 110.912 44.0262L105.241 45.0555C95.0925 66.2651 134.632 83.956 120.191 54.7586ZM58.9244 38.7744C53.8152 47.0788 58.0202 58.9636 66.2984 64.9192C68.6248 66.5906 69.4412 68.9482 72.7508 66.9953C78.7905 56.1573 71.7939 42.2668 58.9244 38.7744ZM138.722 76.0386C131.208 82.6628 143.814 107.963 153.339 102.588C158.141 92.5507 150.96 78.3083 138.722 76.0386Z" fill="#6D6C72"/>
<path d="M161.187 118.062C159.01 120.587 134.588 142.711 132.858 143.609C131.91 144.101 113.615 149.687 112.518 149.811C104.231 150.787 97.6558 145.799 91.6073 154.596C72.7068 142.782 59.0034 152.793 41.288 139.043C32.6761 132.357 29.8933 130.607 20.5879 124.466C7.48137 115.828 -2.64921 83.4545 1.64355 70.0742C12.5818 71.9744 7.49892 78.405 9.79015 82.6012C14.039 90.3778 23.7746 88.68 29.0769 91.671C32.5006 93.6063 33.1151 98.4183 39.0056 100.063C44.896 101.708 45.6159 95.4361 50.2335 94.1957C52.4633 93.5975 55.7377 95.3217 57.2915 94.7059C58.9156 94.0638 59.6266 90.4922 61.9442 90.0171C65.0167 89.3925 72.9878 93.1665 77.0874 93.1313C79.1504 105.579 74.0236 113.831 91.5283 117.631C96.4092 118.687 99.6222 115.66 104.047 114.948C109.331 114.095 113.326 119.021 115.362 111.605L130.892 115.282L138.169 104.62C147.492 107.479 154.928 110.725 161.169 118.062H161.187Z" fill="#48474C"/>
<path d="M60.5746 2.69774C69.7308 2.56578 71.5655 3.13759 80.1423 3.74458C96.4618 4.90579 112.026 -1.84154 118.637 20.7317C150.854 23.0981 157.14 51.2574 165.734 75.0182C165.243 74.7367 160.142 75.9946 155.876 70.866C153.927 68.5172 150.846 56.4036 148.66 53.5534C145.991 50.0786 140.311 47.2371 136.87 43.472C134.746 41.1496 134.552 36.5135 132.121 34.7453C128.908 32.3965 123.842 34.3759 119.76 33.3466C115.942 32.3877 112.211 29.5463 108.541 28.8777C101.027 27.5054 91.8881 29.863 83.0041 25.9571C75.5773 22.6934 74.8751 15.9285 69.6254 11.8027C64.4636 7.75603 55.0879 11.0725 60.5834 2.68894L60.5746 2.69774Z" fill="#919094"/>
<path d="M170.396 85.1348C178.358 87.334 171.537 92.7442 171.291 93.6767C168.842 90.7121 170.106 88.1346 170.396 85.1348Z" fill="#48474C"/>
<path d="M168.781 78.3347C169.386 78.8889 171.625 78.8801 172.16 80.0501C172.573 81.4048 171.274 82.4077 171.116 83.3842L167.341 81.8095L168.781 78.3259V78.3347Z" fill="#48474C"/>
<path d="M55.9134 30.9362C75.1387 36.0561 85.3746 57.2833 76.1043 74.0593C71.1005 77.1295 69.9241 73.5227 66.4653 70.9891C54.1752 61.9986 48.0916 43.7975 55.9134 30.9274V30.9362Z" fill="#6D6C72"/>
<path d="M127.512 52.8584C148.958 98.9461 88.5874 71.86 104.775 37.8067L113.528 36.0209C117.197 37.5076 125.66 48.8822 127.512 52.8584Z" fill="#6D6C72"/>
<path d="M135.747 65.5965C155.92 69.5376 168.087 92.3747 160.458 108.209C144.938 116.496 123.571 75.933 135.747 65.5965Z" fill="#6D6C72"/>
</svg>
