<svg width="173" height="142" viewBox="0 0 173 142" fill="none" xmlns="http://www.w3.org/2000/svg">
<path d="M60.4979 3.45625C54.9497 9.74521 64.2974 8.57791 69.3751 13.048C74.5505 17.5996 75.1719 23.6171 82.5134 27.8248C91.2929 32.856 100.392 32.476 107.84 35.0549C111.48 36.3127 115.146 39.4707 118.928 41.009C122.976 42.6559 128.018 41.8596 131.187 44.4929C133.584 46.4836 133.717 50.5465 135.803 52.9626C139.177 56.8717 144.787 60.3917 147.406 63.9027C149.554 66.7892 152.475 77.8922 154.383 80.2902C158.555 85.5385 163.642 85.3756 164.121 85.7104C166.376 87.2759 166.367 88.3979 167.122 89.158L165.657 91.927L169.386 93.9901C169.279 94.515 168.711 94.8769 168.649 95.3746C168.329 97.9264 167.042 99.9443 169.448 102.967C166.616 111.491 166.927 115.961 159.159 122.34C153.034 114.812 145.692 110.622 136.469 106.423L129.136 114.368L113.752 108.314C111.657 114.386 107.742 109.373 102.487 109.147C98.0929 108.957 94.8616 111.002 90.0324 109.183C72.6863 102.668 77.8706 96.4243 75.9531 85.2127C71.8785 84.4888 64.0044 79.7382 60.9507 79.7201C58.6515 79.702 57.9058 82.679 56.2813 82.9415C54.6567 83.2039 51.4964 81.0955 49.2771 81.2041C44.6788 81.4303 44.0751 86.8415 38.0653 84.2536C32.2329 81.738 31.6737 77.4398 28.3003 75.1232C23.0628 71.5399 13.3866 71.2322 9.24986 63.6855C7.01281 59.6135 12.135 54.9533 1.2959 51.2885C5.78776 40.2218 21.1897 20.3686 30.8392 12.478C33.5024 10.2972 48.1853 0.59681 50.7241 0.298197C54.275 -0.118051 58.1632 3.0581 60.5157 3.4653L60.4979 3.45625ZM119.132 59.713C117.925 57.297 112.412 49.9584 110.042 48.6734L104.396 48.5286C94.0892 65.1243 133.167 87.7736 119.132 59.7221V59.713ZM58.4739 34.5572C53.3074 40.8462 57.3643 51.9672 65.5135 58.6634C67.8039 60.5455 68.5939 62.7444 71.8963 61.6495C78.0126 53.3245 71.2127 39.9503 58.4739 34.5572ZM137.303 81.6384C129.776 86.0271 142.017 110.36 151.534 107.428C156.407 99.5733 149.439 85.8643 137.303 81.6384Z" fill="#6D6C72"/>
<path d="M159.168 122.331C156.975 124.132 132.492 138.9 130.77 139.37C129.82 139.624 111.595 141.126 110.512 141.035C102.274 140.366 95.8026 134.819 89.6951 141.361C71.0619 127.616 57.3377 133.805 39.9029 118.594C31.4252 111.201 28.6733 109.156 19.5031 102.116C6.58678 92.1894 -3.12487 62.1562 1.27822 51.3066C12.1173 54.9714 6.99513 59.6316 9.23218 63.7036C13.369 71.2503 23.054 71.558 28.2827 75.1413C31.656 77.4488 32.2153 81.7561 38.0476 84.2716C44.0574 86.8596 44.6611 81.4575 49.2595 81.2222C51.4788 81.1136 54.7101 83.2129 56.2636 82.9596C57.8881 82.6971 58.6338 79.7201 60.933 79.7382C63.9867 79.7563 71.8608 84.5069 75.9355 85.2308C77.8529 96.4424 72.6687 102.686 90.0147 109.201C94.8439 111.011 98.0752 108.975 102.469 109.165C107.725 109.391 111.64 114.413 113.735 108.333L129.119 114.386L136.451 106.441C145.675 110.64 153.025 114.83 159.141 122.358L159.168 122.331Z" fill="#48474C"/>
<path d="M60.4979 3.45625C69.5881 5.0217 71.408 5.8542 79.9123 7.96259C96.0955 11.9622 111.631 8.95797 117.942 29.8065C149.9 37.7786 155.848 63.4412 164.121 85.7014C163.633 85.3666 158.555 85.5294 154.383 80.2811C152.475 77.8832 149.545 66.7712 147.406 63.8936C144.796 60.3827 139.176 56.8626 135.803 52.9535C133.717 50.5375 133.575 46.4745 131.187 44.4838C128.018 41.8506 122.976 42.6469 118.928 41C115.146 39.4617 111.471 36.3127 107.84 35.0458C100.392 32.4669 91.2929 32.847 82.5133 27.8158C75.1719 23.6081 74.5505 17.5906 69.3751 13.039C64.2973 8.56886 54.9496 9.73616 60.4979 3.4472V3.45625Z" fill="#919094"/>
<path d="M168.658 95.3655C176.532 98.7408 169.706 102.197 169.457 102.958C167.06 99.9262 168.338 97.9173 168.658 95.3655Z" fill="#48474C"/>
<path d="M167.131 89.149C167.726 89.7462 169.945 90.1444 170.469 91.2664C170.868 92.5242 169.563 93.1576 169.394 93.9811L165.666 91.918L167.131 89.149Z" fill="#48474C"/>
<path d="M55.5711 27.1824C74.6038 35.1635 84.5374 55.5234 75.1542 68.4181C70.1564 70.1645 69.029 66.8164 65.6201 63.9841C53.5116 53.9037 47.6615 36.9461 55.5711 27.1824Z" fill="#6D6C72"/>
<path d="M126.42 59.3963C147.22 103.446 87.5648 68.789 104.005 42.122L112.714 42.1673C116.345 44.1309 124.627 55.5867 126.42 59.3872V59.3963Z" fill="#6D6C72"/>
<path d="M134.463 72.0014C154.454 79.1319 166.287 101.247 158.547 113.626C143.056 117.997 122.265 78.7609 134.463 72.0014Z" fill="#6D6C72"/>
</svg>
