<svg width="194" height="188" viewBox="0 0 194 188" fill="none" xmlns="http://www.w3.org/2000/svg">
<path d="M2.46002 112.43C13.58 119.45 8.63002 108.86 13.4 103.78C18.26 98.6 26.84 98.7 30.44 91.06C34.74 81.92 31.03 71.7 32.21 63.73C32.79 59.84 36.13 56.15 37.06 52.13C38.06 47.83 35.15 42.09 37.9 38.9C39.98 36.49 45.87 36.87 48.68 34.86C53.22 31.61 56.42 25.81 60.65 23.35C64.12 21.33 79.34 19.53 82.19 17.72C88.41 13.75 86.41 8.06002 86.74 7.56002C88.25 5.25002 89.89 5.41002 90.74 4.66002L95.29 6.66002L97.01 2.77002C97.81 2.96002 98.53 3.64002 99.29 3.77002C103.14 4.47002 106.52 6.16002 110.12 3.88002C123.57 8.17002 130 8.41002 142.02 17.93C133.14 23.77 129.56 31.42 126.63 41.17L140.8 50.41L137.3 66.79C146.91 69.93 140.93 73.64 142.43 79.48C143.68 84.37 147.79 88.24 146.81 93.4C143.31 111.91 132.38 105.3 116.65 105.96C117 110.42 112.8 118.58 113.83 121.99C114.61 124.56 119.22 125.79 120.17 127.63C121.07 129.39 119.13 132.73 120.06 135.22C121.99 140.38 130.11 141.78 128.41 148.15C126.71 154.52 120.66 154.39 118.46 157.85C115.04 163.22 117.95 173.99 108.36 177.62C103.18 179.58 94.59 173.25 93 184.87C75.25 178.39 40.88 158.57 25.99 146.76C21.88 143.5 2.59002 125.82 1.27002 122.95C-0.569981 118.93 2.72002 115.01 2.50002 112.43H2.46002ZM64.35 54.37C61.23 55.4 52.42 60.59 51.36 63.07L53.11 69.35C80.96 83.05 100.51 42.4 64.35 54.37ZM48.63 118.8C59.62 125.4 74.47 122.34 81.43 114.12C83.39 111.81 86.33 111.22 83.58 107.38C69.29 99.45 52.09 105.28 48.62 118.79L48.63 118.8ZM90.1 36.98C99.13 45.97 130.46 35.51 122.87 24.49C109.69 18.01 92.07 23.99 90.1 36.98Z" fill="#6D6C72"/>
<path d="M142 17.9301C145.39 20.6101 175.5 49.9101 176.77 51.8901C177.47 52.9801 186 73.5301 186.25 74.7401C188.14 83.8501 182.27 90.3501 193.95 98.0301C180.32 117.03 194.14 133.17 177.95 150.63C170.08 159.12 168.05 161.92 160.93 171.23C150.9 184.35 110.36 191.23 92.96 184.88C94.55 173.26 103.14 179.59 108.32 177.63C117.92 174 115 163.23 118.42 157.86C120.63 154.39 126.72 154.34 128.37 148.16C130.02 141.98 121.95 140.4 120.02 135.23C119.09 132.74 121.04 129.4 120.13 127.64C119.18 125.79 114.57 124.57 113.79 122C112.76 118.59 116.97 110.42 116.61 105.97C132.34 105.31 143.27 111.92 146.77 93.4101C147.74 88.2501 143.64 84.3801 142.39 79.4901C140.9 73.6501 146.87 69.9401 137.26 66.8001L140.76 50.4201L126.59 41.1801C129.52 31.4301 133.1 23.7801 141.98 17.9401L142 17.9301Z" fill="#48474C"/>
<path d="M2.45991 112.43C1.58991 102.49 2.17991 100.57 2.29991 91.34C2.52991 73.79 -7.27009 56.05 21.0399 51.75C21.5999 17.1101 57.0599 13.86 86.7299 7.55005C86.4099 8.05005 88.4099 13.74 82.1799 17.71C79.3299 19.53 64.1099 21.33 60.6399 23.34C56.4099 25.8 53.2099 31.6 48.6699 34.85C45.8599 36.86 39.9699 36.48 37.8899 38.89C35.1399 42.08 38.0499 47.82 37.0499 52.12C36.1199 56.14 32.7799 59.8301 32.1999 63.7201C31.0199 71.69 34.7299 81.91 30.4299 91.05C26.8299 98.69 18.2499 98.59 13.3899 103.77C8.61991 108.85 13.5799 119.45 2.44991 112.42L2.45991 112.43Z" fill="#919094"/>
<path d="M99.28 3.77002C101.48 -4.57998 108.91 3.50002 110.11 3.88002C106.51 6.16002 103.13 4.46002 99.28 3.77002Z" fill="#48474C"/>
<path d="M90.73 4.66C91.39 4.07 91.21 1.65 92.67 1.21C94.37 0.930004 95.75 2.47 97.01 2.77L95.29 6.66L90.74 4.66H90.73Z" fill="#48474C"/>
<path d="M38.8601 121.07C43.9201 100.86 70.2401 92.4601 92.3601 104.64C96.6601 110.45 92.1501 111.27 89.1801 114.7C78.6401 126.89 55.8801 131.19 38.8601 121.07Z" fill="#6D6C72"/>
<path d="M61.3599 46.1901C118.55 28.7701 88.5899 90.8201 43.8899 68.9501L40.9399 59.2301C42.5599 55.4401 56.4299 47.7001 61.3599 46.2001V46.1901Z" fill="#6D6C72"/>
<path d="M76.99 38.87C80.48 17.49 108.7 7.17997 129.49 17.47C141.26 35.35 91.12 53.39 76.99 38.87Z" fill="#6D6C72"/>
</svg>
