<svg width="378" height="270" viewBox="0 0 378 270" fill="none" xmlns="http://www.w3.org/2000/svg">
<g clip-path="url(#clip0_7_1871)">
<path d="M171.96 203.355C177.437 207.092 179.355 211.997 178.174 218.937C177.011 217.155 170.549 217.634 169.776 218.964C168.649 220.901 169.892 222.855 168.622 224.982C167.85 226.267 165.879 227.217 164.761 228.339C163.642 229.461 161.529 231.144 161.37 231.343C159.958 233.053 159.479 236.881 156.327 237.098C151.401 237.433 151.525 233.47 147.761 231.959C146.9 235.741 146.083 233.75 144.805 234.13C142.071 234.945 140.757 243.206 139.825 243.867L133.016 242.482C131.551 250.554 125.674 244.365 121.911 242.347C119.505 233.904 118.75 223.543 120.037 214.476C120.197 213.354 121.263 207.346 121.582 207.174C122.177 207.291 122.869 207.889 123.366 207.925C127.113 208.169 130.734 205.78 134.472 208.866L135.626 207.101C138.919 209.336 141.378 204.097 143.731 202.405C146.083 200.713 149.998 202.143 150.69 197.392C153.833 199.844 158.564 199.383 161.672 200.595C164.672 201.763 167.823 205.264 171.987 203.355H171.96ZM172.129 216.214C175.316 212.341 164.912 207.138 163.11 210.006C161.458 213.526 170.265 218.485 172.129 216.214ZM149.563 214.232C150.85 215.625 154.224 215.535 155.502 213.942C158.653 210.006 149.297 205.21 147.184 207.843C145.071 210.477 148.027 211.436 149.394 212.902C149.732 213.264 149.448 214.105 149.563 214.232ZM156.975 220.72L155.36 221.842C155.085 223.344 159.284 226.593 161.041 225.009C162.089 223.398 158.147 220.747 156.967 220.72H156.975ZM134.241 224.475C136.886 227.425 145.169 225.344 140.224 220.412C138.209 218.412 132.181 215.472 131.72 220.105C131.569 221.652 133.336 222.276 134.037 223.172C134.365 223.588 134.126 224.348 134.241 224.475Z" fill="#6D6C72"/>
<path d="M52.1446 113.961C54.3018 115.047 55.7577 115.255 57.7728 117.056C59.7879 118.857 61.9717 124.874 61.8918 127.182C58.5362 125.444 55.6068 125.942 52.6595 126.512C54.8966 132.991 49.1086 133.045 45.2559 136.05C43.5426 137.389 44.0043 140.909 38.5803 139C35.1803 137.805 35.6597 135.733 35.2158 135.471C29.8096 132.294 24.8118 138.665 25.3266 142.384C23.6488 143.044 19.0593 141.081 18.5444 141.153C18.0296 141.226 16.9554 143.795 14.026 143.207L5.9477 139.208C2.9117 133.489 0.292927 125.752 0.0621203 119.409C-0.0177745 117.21 -0.275213 112.866 1.42033 111.572C1.94409 111.473 2.5211 111.401 3.08925 111.419C4.83805 111.464 7.35918 111.165 7.61662 111.22C9.41869 111.6 11.7001 113.292 13.733 113.798C13.9461 113.853 17.6123 113.473 17.7988 113.418C20.2489 112.695 21.4118 110.812 23.0629 110.134C25.3533 109.202 30.1469 110.559 30.4576 106.903C32.7302 108.668 35.0915 109.546 37.9145 109.998C38.6424 110.116 39.0064 109.156 39.5301 109.319C41.1103 109.817 45.8773 112.839 48.8778 113.998C50.4491 114.604 51.8517 115.988 52.1446 113.979V113.961ZM55.1895 125.037C57.684 121.517 46.9781 116.052 44.7854 118.26C42.3087 120.757 52.2867 125.019 55.1895 125.037ZM37.8257 121.155C41.7317 119.291 29.0994 112.649 27.4128 114.369C24.7319 117.11 35.5975 122.214 37.8257 121.155ZM24.4123 126.096C22.4682 124.974 21.323 122.893 19.3079 121.979C13.662 119.409 9.30328 121.752 16.0144 125.182C18.6066 126.503 20.9679 127.471 23.7731 127.806L24.4123 126.105V126.096Z" fill="#6D6C71"/>
<path d="M178.174 218.937C176.896 226.511 175.573 234.103 171.285 240.609C170.273 242.148 168.338 242.772 167.468 243.921C166.598 245.07 166.439 246.69 165.373 247.794C164.308 248.898 160.793 248.907 159.168 250.092C156.94 251.712 155.528 254.581 152.128 255.549C148.729 256.517 145.977 254.608 142.754 254.662C139.532 254.716 137.49 256.644 133.256 254.798C129.927 253.341 123.029 247.052 121.635 243.514C121.476 243.098 121.937 242.491 121.893 242.356C125.666 244.374 131.533 250.563 132.998 242.491L139.807 243.876C140.748 243.215 142.062 234.954 144.787 234.139C146.065 233.759 146.882 235.759 147.743 231.968C151.516 233.479 151.392 237.442 156.31 237.107C159.461 236.89 159.94 233.063 161.352 231.352C161.512 231.162 163.678 229.416 164.743 228.348C165.862 227.226 167.841 226.276 168.605 224.991C169.874 222.873 168.631 220.919 169.759 218.973C170.531 217.643 176.994 217.164 178.156 218.946L178.174 218.937Z" fill="#48474D"/>
<path d="M348.341 64.2288C349.904 65.3328 351.999 64.9799 353.419 67.3145C354.937 69.8029 355.017 73.9925 354.777 76.7525C346.255 75.0784 348.102 81.4398 343.867 85.8828C342.092 87.7378 338.523 89.1042 336.748 91.7645C332.54 93.1128 330.152 87.3306 329.264 87.5387C328.51 89.2127 326.477 89.3666 325.385 90.561C323.902 92.1808 322.269 96.108 321.142 96.8409C320.174 97.4653 318.363 96.6418 317.156 97.0671C315.078 97.7911 313.676 100.334 310.471 98.9584C309.122 98.3792 308.421 94.7416 306.388 96.4609C306.299 96.2889 305.225 96.2709 305.047 95.6646C304.781 94.7778 305.562 93.0947 305.278 91.7464C303.582 83.5572 301.772 73.4768 306.29 66.0476C306.823 66.2829 307.417 66.4458 307.923 66.7354C308.065 66.8168 307.826 67.6221 308.021 67.7398C309.779 65.3418 312.131 67.8031 314.803 67.8484C320.884 67.9479 326.255 60.6455 331.439 60.2473C337.556 59.7858 342.917 65.6947 348.341 64.2379V64.2288ZM350.516 73.0062C347.951 69.8391 343.743 66.0748 340.84 70.8345C343.406 74.0016 347.613 77.7659 350.516 73.0062ZM329.841 66.2829C326.521 65.8214 326.415 71.305 331.803 72.9881C338.852 75.187 333.765 66.8349 329.841 66.2829ZM322.917 79.0871L316.534 75.4132L315.274 75.6485L313.88 78.0374L321.736 82.3537L322.917 79.0871Z" fill="#6C6B70"/>
<path d="M61.8829 127.182C61.7942 129.525 61.3769 137.208 60.7023 138.918C60.2229 140.149 51.7896 149.388 50.7421 149.958C49.9964 150.374 47.9901 149.487 46.3834 149.94C42.8236 150.953 42.8502 154.193 36.361 153.279C32.313 152.709 31.8514 152.329 27.8566 152.193C20.1512 151.912 10.6349 146.926 6.17852 141.008C5.6015 140.239 6.07199 139.434 5.94771 139.199L14.026 143.198C16.9554 143.786 18.0207 141.226 18.5445 141.144C19.0682 141.063 23.6488 143.035 25.3266 142.375C24.8118 138.647 29.8096 132.285 35.2158 135.461C35.6686 135.724 35.1803 137.796 38.5803 138.991C43.9954 140.9 43.5338 137.38 45.2559 136.041C49.0998 133.036 54.8966 132.982 52.6595 126.503C55.6068 125.933 58.5362 125.444 61.8918 127.173L61.8829 127.182Z" fill="#48474B"/>
<path d="M354.769 76.7434C354.263 82.5709 353.517 88.5069 350.374 93.5562C347.64 97.9358 337.804 106.143 332.771 107.012C331.572 107.22 320.831 107.347 319.872 107.093C313.836 105.501 309.326 101.935 306.379 96.4428C308.421 94.7235 309.122 98.3611 310.462 98.9402C313.667 100.307 315.07 97.7729 317.147 97.049C318.354 96.6237 320.165 97.4472 321.133 96.8228C322.26 96.0989 323.894 92.1627 325.376 90.5429C326.468 89.3485 328.501 89.2037 329.255 87.5206C330.143 87.3215 332.531 93.0947 336.739 91.7464C338.514 89.086 342.083 87.7197 343.858 85.8646C348.093 81.4307 346.246 75.0603 354.769 76.7343V76.7434Z" fill="#48474C"/>
<path d="M171.96 203.355C167.797 205.264 164.645 201.762 161.645 200.595C158.538 199.383 153.806 199.844 150.664 197.392C149.971 202.143 145.95 200.776 143.704 202.405C141.458 204.034 138.902 209.336 135.599 207.101L134.445 208.866C130.717 205.771 127.086 208.169 123.34 207.925C125.009 203.744 128.755 202.776 131.889 200.378C133.131 199.428 133.54 197.926 135.129 196.867C139.834 193.727 142.009 197.175 145.231 196.994C148.844 196.795 151.898 192.162 158.227 194.795C161.37 196.098 168.791 201.211 171.96 203.364V203.355Z" fill="#929194"/>
<path d="M3.0892 111.401C3.74611 108.478 7.98941 108.659 9.26773 107.917C11.3894 106.695 12.3836 104.252 15.6061 103.709C19.6008 103.039 22.3705 105.582 25.2644 105.754C26.3563 105.817 27.0665 104.75 27.901 104.659C34.4701 103.917 39.5567 105.763 45.5222 109.835C48.0433 111.554 47.9013 111.835 52.1357 113.97C51.8428 115.979 50.4402 114.586 48.8689 113.989C45.8773 112.83 41.1014 109.817 39.5212 109.31C38.9975 109.147 38.6335 110.107 37.9056 109.989C35.0826 109.527 32.7213 108.65 30.4487 106.894C30.138 110.55 25.3532 109.193 23.054 110.125C21.394 110.794 20.24 112.686 17.7898 113.409C17.6034 113.464 13.9371 113.844 13.7241 113.789C11.6912 113.283 9.40976 111.6 7.60769 111.211C7.35025 111.156 4.82913 111.455 3.08032 111.41L3.0892 111.401Z" fill="#929194"/>
<path d="M374.955 241.641C378.781 245.351 377.964 246.428 377.831 251.151C373.481 248.672 375.035 250.156 373.117 252.4C371.804 253.938 367.756 259.25 366.389 259.503C364.249 259.901 361.799 257.558 360.459 257.802C359.367 258.01 353.845 267.901 348.465 263.593C348.217 263.132 346.566 262.607 346.033 261.25C343.814 255.63 342.979 248.762 345.971 243.197C346.486 250.572 349.77 239.668 354.023 246.618C354.262 244.645 361.994 239.713 363.379 239.388C366.131 238.754 371.786 243.233 374.964 241.641H374.955Z" fill="#6B6A6E"/>
<path d="M348.341 64.2288C342.917 65.6857 337.555 59.7677 331.439 60.2383C326.255 60.6364 320.884 67.9298 314.803 67.8393C312.131 67.7941 309.779 65.3328 308.021 67.7307C307.826 67.6131 308.065 66.8078 307.923 66.7263C309.219 63.2244 317.165 56.5735 320.556 56.8359C322.375 56.9716 323.973 58.148 325.829 58.1118C327.444 58.0846 329.823 55.8677 331.661 55.7591C337.831 55.379 343.601 60.8988 348.341 64.2379V64.2288Z" fill="#8E8E90"/>
<path d="M377.831 251.142C377.663 257.142 377.547 259.892 373.277 264.743C367.196 271.647 356.508 271.14 349.105 266.733C346.53 265.204 348.661 263.964 348.457 263.584C353.836 267.892 359.358 258.001 360.45 257.793C361.79 257.54 364.232 259.892 366.38 259.494C367.747 259.241 371.804 253.938 373.109 252.391C375.017 250.147 373.473 248.663 377.822 251.142H377.831Z" fill="#474649"/>
<path d="M374.955 241.641C371.777 243.233 366.123 238.745 363.371 239.388C361.986 239.704 354.263 244.645 354.014 246.618C349.762 239.668 346.477 250.572 345.962 243.197C346.966 241.333 351.635 237.189 353.366 236.664C355.674 235.958 357.281 237.406 358.817 237.125C359.562 236.99 360.21 235.714 362.43 235.533C367.827 235.099 371.138 237.94 374.955 241.641Z" fill="#807F85"/>
<path d="M68.8693 184.09L67.7685 189.058C57.8704 188.424 59.3529 178.208 68.8693 184.09Z" fill="#48484D"/>
<path d="M186.332 244.6C192.919 244.844 187.842 254.164 184.344 250.111C182.648 248.138 183.936 244.509 186.332 244.6Z" fill="#383838"/>
<path d="M117.756 134.077C119.425 135.851 119.336 142.646 114.463 141.298C105.914 138.936 114.072 130.177 117.756 134.077Z" fill="#383838"/>
<path d="M66.2771 87.6654C68.1058 90.2896 62.8505 95.2574 60.0542 91.3302L61.5278 85.5118L66.2771 87.6654Z" fill="#414045"/>
<path d="M31.2567 124.802C31.8781 125.689 30.44 128.983 29.286 129.607L23.6223 127.327L27.0933 123.363C27.9899 123.155 30.7596 124.114 31.2478 124.811L31.2567 124.802Z" fill="#787878"/>
<path d="M180.198 56.4468C177.766 64.3555 171.499 61.6499 175.271 54.3656L180.198 56.4468Z" fill="#787878"/>
<path d="M24.2348 212.494L20.3289 208.956L21.7403 205.482L26.9512 205.807L24.2348 212.494Z" fill="#787878"/>
<path d="M280.005 115.491L278.478 119.59L273.551 117.499L276.232 113.174L280.005 115.491Z" fill="#383838"/>
<path d="M86.4994 178.181L87.9552 174.598L92.1896 177.059C93.1839 179.529 88.6565 179.747 86.4905 178.181H86.4994Z" fill="#383838"/>
<path d="M134.241 224.475C134.126 224.348 134.365 223.588 134.037 223.172C133.335 222.276 131.569 221.661 131.72 220.105C132.173 215.472 138.209 218.403 140.224 220.412C145.178 225.335 136.895 227.425 134.241 224.475Z" fill="#3E3D43"/>
<path d="M149.563 214.232C149.448 214.105 149.732 213.264 149.394 212.902C148.027 211.436 144.991 210.567 147.184 207.843C149.377 205.12 158.653 210.006 155.502 213.942C154.224 215.535 150.85 215.625 149.563 214.232Z" fill="#3E3D43"/>
<path d="M172.129 216.214C170.265 218.476 161.458 213.526 163.11 210.006C164.912 207.147 175.316 212.341 172.129 216.214Z" fill="#3C3B41"/>
<path d="M156.975 220.72C158.147 220.747 162.098 223.398 161.05 225.009C159.283 226.593 155.093 223.344 155.369 221.842L156.984 220.72H156.975Z" fill="#48484D"/>
<path d="M154.889 74.6441C155.094 73.142 157.863 76.2367 159.088 77.7659C162.488 82.0008 162.675 84.4349 161.787 87.0863C159.035 84.9598 154.641 83.141 153.664 85.0322C152.777 86.7605 153.274 88.1359 150.664 89.1675C149.199 89.7466 146.287 88.5793 145.639 88.9503C145.187 89.2037 145.32 90.19 144.903 90.5067C141.023 93.4024 137.091 86.5071 134.507 85.5208C128.426 83.892 129.598 90.2896 123.18 88.1993C122.665 88.0273 121.635 86.8329 121.014 86.7515C120.188 86.6429 119.86 87.6744 118.981 87.7016C118.848 87.7016 115.954 86.7696 115.785 86.661C114.01 85.4937 111.631 81.4669 110.761 82.8966C110.619 82.6433 110.068 82.3809 109.811 81.5212C109.11 79.1685 108.293 70.6535 108.524 68.6085C108.728 66.8168 110.202 59.8039 112.474 60.7541C112.909 60.9531 113.264 61.5685 113.539 61.7585C115.91 63.4054 114.569 62.0119 116.247 62.4553C120.029 63.4506 121.919 66.5272 126.331 66.3644C128 66.301 129.669 65.2695 131.001 65.2333C131.986 65.2152 133.522 66.3101 134.765 66.2015C135.759 66.111 137.099 64.817 137.668 64.9618C137.881 65.0161 141.165 67.2693 142.177 67.7941C146.11 69.8482 148.729 71.7484 152.59 73.9745C153.602 74.5626 154.472 75.6847 154.898 74.6441H154.889ZM157.295 82.4985C155.582 80.363 149.323 74.3093 148.498 76.6891C147.548 79.44 156.292 85.2222 157.295 82.4985ZM133.202 70.4273C134.605 73.712 142.816 78.9423 142.293 75.5128C141.902 72.9519 133.708 67.3326 133.202 70.4273ZM129.252 77.8202C128.48 74.4631 119.443 68.3642 119.745 71.6218C122.017 75.6756 126.527 78.6256 129.252 77.8202Z" fill="#6D6C71"/>
<path d="M161.787 87.0863C159.399 94.1987 159.008 95.9813 152.031 98.6417C150.966 99.0489 150.504 100.108 149.501 100.442C148.169 100.886 146.225 99.438 145.524 99.3928C143.42 99.257 140.295 101.221 137.836 100.741C137.268 100.632 127.352 96.7957 125.834 96.1804C120.606 94.063 113.903 88.5432 110.77 82.8786C111.64 81.4489 114.01 85.4756 115.794 86.6429C115.963 86.7515 118.857 87.6926 118.99 87.6835C119.878 87.6564 120.206 86.6158 121.023 86.7334C121.644 86.8148 122.674 88.0093 123.189 88.1812C129.598 90.2806 128.435 83.874 134.516 85.5028C137.1 86.48 141.032 93.3843 144.911 90.4887C145.329 90.181 145.196 89.1947 145.648 88.9323C146.296 88.5703 149.208 89.7286 150.673 89.1494C153.283 88.1179 152.786 86.7424 153.673 85.0141C154.65 83.1229 159.044 84.9508 161.796 87.0682L161.787 87.0863Z" fill="#48474B"/>
<path d="M154.889 74.6441C154.463 75.6847 153.602 74.5626 152.581 73.9745C148.72 71.7394 146.101 69.8391 142.168 67.7941C141.156 67.2602 137.863 65.0161 137.659 64.9618C137.091 64.8261 135.75 66.1201 134.756 66.2015C133.513 66.3101 131.977 65.2152 130.992 65.2333C129.669 65.2604 127.991 66.301 126.323 66.3644C121.911 66.5272 120.029 63.4416 116.238 62.4553C114.56 62.0119 115.901 63.4144 113.531 61.7585C114.489 59.2972 117.365 60.2564 119.682 59.822C122.133 59.3606 123.677 57.9399 127.21 59.2339C129.119 59.9306 131.125 61.668 132.759 62.2562C134.392 62.8444 135.821 62.3014 137.428 62.6815C144.414 64.3374 148.231 68.6266 154.872 74.6531L154.889 74.6441Z" fill="#929194"/>
<path d="M133.202 70.4273C133.708 67.3326 141.902 72.9519 142.293 75.5128C142.816 78.9423 134.605 73.7121 133.202 70.4273Z" fill="#3E3D43"/>
<path d="M129.252 77.8202C126.536 78.6256 122.026 75.6756 119.744 71.6217C119.443 68.3641 128.471 74.4631 129.252 77.8202Z" fill="#3E3D43"/>
<path d="M157.295 82.4985C156.292 85.2222 147.548 79.431 148.498 76.6891C149.323 74.3093 155.582 80.363 157.295 82.4985Z" fill="#3E3D43"/>
<path d="M236.844 39.1606L232.074 36.4546C231.234 36.5323 228.999 39.253 226.817 39.8642C225.864 40.1293 224.895 39.4956 224.163 39.7957C220.447 41.2976 222.139 40.1178 220.666 40.5149C218.783 41.0166 216.849 43.2251 214.595 42.0561C211.78 40.5963 213.848 36.0313 212.935 35.729C211.007 35.7125 209.316 36.3298 207.519 36.6798C207.269 36.7252 206.885 36.0789 206.508 36.2432C205.578 36.6523 204.557 38.0831 203.307 38.7705C201.156 39.9465 199.814 37.0543 199.114 36.7815C198.301 36.466 196.244 37.9235 194.977 36.9068C193.33 35.5692 194.255 33.0517 192.205 32.1692C194.284 27.3024 198.307 21.6256 202.794 17.2556C204.324 15.7647 209.759 10.4592 211.62 10.7337C212.114 10.995 212.108 11.7372 212.422 12.0412C213.869 13.4177 215.472 15.56 216.642 16.5575C218.827 18.432 222.893 16.699 225.153 16.7806C226.479 16.831 227.427 17.851 228.883 17.6352C229.748 17.5092 230.98 16.6005 231.322 16.6389C231.736 16.6871 235.618 21.4329 236.041 22.1445C236.776 23.3649 236.586 25.2623 237.737 26.7287C238.019 27.088 240.408 27.351 240.975 28.2099C242.24 32.7547 241.031 35.1303 236.837 39.1551L236.844 39.1606ZM234.147 28.8468C230.601 25.9743 230.367 36.8758 234.58 35.4878C237.834 34.417 235.535 29.9692 234.147 28.8468ZM226.58 29.0882C229.434 26.4848 227.182 20.0048 223.93 20.8006C222.323 21.196 223.322 25.7052 223.654 26.3455C224.344 27.6678 225.93 27.7736 226.575 29.0953L226.58 29.0882ZM208.754 24.7463C208.917 26.8404 210.871 29.7293 213.679 27.8604C215.179 26.1049 212.376 21.4226 211.241 21.3727C208.705 21.2697 209.45 23.326 209.338 23.9735C209.286 24.255 208.758 24.6116 208.767 24.7447L208.754 24.7463Z" fill="#6D6C71"/>
<path d="M236.844 39.1606C232.691 43.1481 226.782 47.8637 221.305 49.7555C215.503 51.7602 214.149 50.8252 209.572 50.7205C207.764 50.6821 204.327 51.4253 202.649 51.0183C201.293 50.6907 199.602 47.9848 197.969 47.0031C196.882 46.3464 195.846 46.6607 195.434 46.3951C192.134 44.2445 190.402 37.2173 191.183 33.1847C191.291 32.6019 192.165 32.264 192.2 32.1763C194.236 33.0604 193.312 35.5779 194.971 36.9139C196.233 37.9377 198.29 36.4802 199.108 36.7886C199.808 37.0614 201.15 39.9536 203.302 38.7776C204.546 38.0973 205.566 36.6666 206.502 36.2503C206.885 36.0788 207.27 36.7378 207.513 36.6869C209.311 36.3369 211.002 35.7196 212.929 35.7361C213.843 36.0384 211.775 40.6034 214.59 42.0632C216.843 43.2322 218.779 41.0363 220.66 40.522C222.146 40.1232 220.447 41.2976 224.157 39.8028C224.896 39.5082 225.866 40.1419 226.811 39.8714C228.994 39.2601 231.234 36.5323 232.068 36.4617L236.839 39.1677L236.844 39.1606Z" fill="#48474C"/>
<path d="M240.982 28.2155C240.415 27.3566 238.02 27.0881 237.744 26.7343C236.6 25.2734 236.783 23.3705 236.048 22.1501C235.626 21.4511 231.743 16.6927 231.329 16.6445C230.987 16.6061 229.761 17.5077 228.89 17.6408C227.429 17.8637 226.486 16.8366 225.16 16.7862C222.9 16.7046 218.827 18.4321 216.649 16.5631C215.479 15.5656 213.87 13.4178 212.429 12.0468C215.378 10.7026 225.122 9.39697 227.102 11.0299C228.189 11.9167 228.479 13.2593 229.533 13.9139C230.388 14.4348 233.047 14.1511 234.548 14.9136C236.374 15.8509 237.461 17.3129 238.286 19.052C239.285 21.1582 240.259 25.6706 240.977 28.2226L240.982 28.2155Z" fill="#929194"/>
<path d="M204.82 57.2853C208.744 60.5237 201.581 64.0484 200.046 61.0855C199.219 59.4937 202.629 55.4754 204.82 57.2853Z" fill="#383838"/>
<path d="M226.58 29.0882C225.937 27.7791 224.349 27.6607 223.66 26.3384C223.327 25.6981 222.316 21.1906 223.936 20.7935C227.188 19.9976 229.44 26.4777 226.586 29.0811L226.58 29.0882Z" fill="#3E3D43"/>
<path d="M208.754 24.7463C208.746 24.6132 209.274 24.2566 209.325 23.9751C209.438 23.3276 208.7 21.2768 211.229 21.3744C212.369 21.4171 215.167 26.1065 213.666 27.8621C210.864 29.7238 208.904 26.842 208.742 24.748L208.754 24.7463Z" fill="#414045"/>
<path d="M234.147 28.8468C235.528 29.9637 237.834 34.417 234.58 35.4878C230.374 36.8812 230.601 25.9743 234.147 28.8468Z" fill="#3C3B41"/>
<path d="M55.1895 125.037C52.2867 125.019 42.3176 120.757 44.7855 118.26C46.9781 116.052 57.684 121.517 55.1895 125.037Z" fill="#414045"/>
<path d="M37.8257 121.155C35.5976 122.214 24.7319 117.119 27.4128 114.369C29.0906 112.649 41.7228 119.291 37.8257 121.155Z" fill="#3E3D43"/>
<path d="M24.4123 126.096L23.7732 127.797C20.968 127.462 18.5978 126.494 16.0145 125.173C9.30335 121.743 13.6709 119.4 19.308 121.97C21.3231 122.884 22.4682 124.974 24.4123 126.087V126.096Z" fill="#3E3D43"/>
<path d="M350.516 73.0062C347.613 77.7659 343.405 74.0016 340.84 70.8345C343.743 66.0748 347.95 69.8391 350.516 73.0062Z" fill="#414045"/>
<path d="M329.841 66.2829C333.765 66.8349 338.852 75.187 331.803 72.9881C326.415 71.305 326.521 65.8214 329.841 66.2829Z" fill="#3E3D43"/>
<path d="M322.917 79.0871L321.736 82.3628L313.88 78.0465L315.274 75.6576L316.534 75.4223L322.917 79.0871Z" fill="#3E3D43"/>
<path d="M66.8453 222.303C67.0317 222.132 67.0406 221.362 67.2447 221.326C67.6708 221.263 71.9496 223.245 72.6509 223.896C74.6306 225.76 75.0922 228.249 75.0478 230.402C72.6243 228.963 71.8609 230.357 69.3309 230.303C69.5794 229.724 70.7867 229.298 70.4938 228.457C64.8035 223.38 57.3467 230.031 69.3309 230.303C68.2567 232.827 69.2332 234.221 69.1178 234.51C68.7982 235.289 66.3393 238.438 65.6202 239.297C65.3273 239.65 64.4129 239.207 64.1643 239.514C63.2411 240.664 63.0103 243.795 61.9806 244.437C59.1931 244.935 56.9916 243.614 54.3284 242.519C54.1686 243.948 52.3399 244.347 51.7895 245.206C50.7065 246.916 50.4668 249.984 48.9399 251.196C47.6172 252.246 45.3358 251.251 45.034 251.368C44.2794 251.649 44.8831 254.029 42.2288 254.445C40.1071 254.771 37.7636 253.278 35.5975 253.097C33.2273 247.794 30.1558 240.718 31.9934 235.515C32.384 234.411 33.1208 234.348 33.2451 234.139C35.1714 235.144 34.985 232.945 36.8226 232.492C38.4293 232.094 41.3588 232.909 43.2763 231.796C45.9927 230.221 49.7566 224.647 52.9081 223.489C53.2365 223.371 59.8678 222.738 60.2495 222.747C63.3743 222.837 64.3153 224.548 66.8364 222.285L66.8453 222.303ZM58.1012 229.615C55.4647 228.384 51.3989 227.823 50.5645 230.475C53.5472 232.936 57.542 233.198 58.1012 229.615ZM48.576 238.908C46.9603 237.596 40.7729 236.374 40.7285 238.763C42.5129 241.749 48.0966 242.157 48.576 238.908Z" fill="#6D6C71"/>
<path d="M75.0479 230.411C74.9858 233.796 74.4088 241.451 72.3937 243.957C72.1273 244.283 71.1775 243.804 70.92 244.129C69.9613 245.324 69.9702 247.441 68.8339 248.789C68.0349 249.722 66.0109 249.912 65.1055 250.59C62.9217 252.237 61.9008 255.287 58.7316 256.182C57.0539 256.653 56.3969 255.848 55.527 255.938C53.7249 256.137 52.4377 257.666 51.257 258.01C46.9871 259.259 42.0248 257.956 37.7459 255.757C34.5945 254.128 36.0149 254.038 35.5977 253.115C37.7637 253.296 40.1162 254.798 42.2289 254.463C44.8832 254.056 44.2796 251.676 45.0341 251.387C45.3448 251.269 47.6263 252.264 48.9401 251.215C50.467 250.002 50.7067 246.934 51.7897 245.224C52.3401 244.365 54.1688 243.957 54.3285 242.537C56.9917 243.632 59.1933 244.953 61.9807 244.455C63.0104 243.813 63.2413 240.682 64.1645 239.532C64.413 239.225 65.3274 239.668 65.6203 239.315C66.3394 238.447 68.7984 235.307 69.118 234.528C69.2422 234.23 68.2658 232.845 69.331 230.321C71.861 230.375 72.6156 228.982 75.0479 230.42V230.411Z" fill="#48474C"/>
<path d="M66.8452 222.303C64.3241 224.566 63.3831 222.855 60.2583 222.765C59.8766 222.756 53.2454 223.38 52.9169 223.507C49.7655 224.665 46.0016 230.248 43.2851 231.814C41.3765 232.918 38.4382 232.103 36.8314 232.511C34.9938 232.972 35.1714 235.171 33.2539 234.157C34.7186 231.678 40.0006 225.235 42.6637 224.213C44.5901 223.471 46.3567 224.14 48.0167 223.643C49.6767 223.145 50.1561 221.86 51.4344 221.281C56.3169 219.055 61.2703 220.485 66.8541 222.303H66.8452Z" fill="#919094"/>
<path d="M69.3399 230.312C57.3557 230.04 64.8125 223.398 70.5028 228.466C70.7957 229.307 69.5796 229.733 69.3399 230.312Z" fill="#3E3D43"/>
<path d="M48.576 238.908C48.0966 242.157 42.5128 241.749 40.7285 238.763C40.7729 236.374 46.9603 237.596 48.576 238.908Z" fill="#3E3D43"/>
<path d="M58.1012 229.615C57.5419 233.198 53.5472 232.936 50.5645 230.475C51.3989 227.823 55.4647 228.384 58.1012 229.615Z" fill="#3C3B41"/>
</g>
<defs>
<clipPath id="clip0_7_1871">
<rect width="378" height="270" fill="white"/>
</clipPath>
</defs>
</svg>
