<svg width="286" height="188" viewBox="0 0 286 188" fill="none" xmlns="http://www.w3.org/2000/svg">
<path d="M66.63 85.43C66.48 87.38 64.61 85.58 64.17 85.73C63.56 85.94 63.14 88.75 62.43 89.64C62.32 89.77 59.75 89.88 59.67 91.51L55.03 89.85C52.88 93.01 52.24 93.29 47.83 93.63C47.71 93.48 46.33 93.06 45.6 92.11C44.08 90.12 42.41 81.06 44.64 80.25C45.01 80.12 45.84 80.71 45.92 80.67C44.16 82.37 49.74 81.76 49.96 81.71C52.19 81.26 54.12 79.41 56.86 79.79C59.34 80.14 61.22 81.87 63.4 81.51C63.81 81.84 64.65 81.97 65.31 82.64C66.24 83.58 66.18 84.57 66.64 85.42L66.63 85.43Z" fill="#6B6A6E"/>
<path d="M66.63 85.4301C66.7 85.5601 68.03 85.6501 67.88 86.3701C66.98 89.2601 66.19 94.0101 63.22 95.7401C62.67 96.0601 61.44 95.7901 60.62 96.0401C59.72 96.3201 58.94 97.2101 58.11 97.3101C56.97 97.4501 56.03 96.8001 55.27 96.7901C54.51 96.7801 54.29 97.4801 53.81 97.3701C52.86 97.1701 48.56 95.4201 47.83 94.9201C47.15 94.4601 47.88 93.6901 47.83 93.6301C52.24 93.2901 52.89 93.0101 55.03 89.8501L59.67 91.5101C59.75 89.8801 62.32 89.7701 62.43 89.6401C63.14 88.7601 63.56 85.9401 64.17 85.7301C64.61 85.5801 66.49 87.3801 66.63 85.4301Z" fill="#474649"/>
<path d="M63.3899 81.5301C61.2099 81.8901 59.3299 80.1501 56.8499 79.8101C54.1099 79.4201 52.1799 81.2801 49.9499 81.7301C49.7399 81.7701 44.1499 82.3801 45.9099 80.6901C46.9099 80.1701 48.3799 77.6101 49.6899 77.4601C50.1199 77.4101 58.2499 78.1901 58.6899 78.3601C60.2899 78.9601 62.0599 80.4901 63.3899 81.5501V81.5301Z" fill="#8E8E90"/>
<path d="M271.77 29.24C278.31 30.3 275.85 36.21 270.53 33.78C266.86 32.1 269.12 28.81 271.77 29.24Z" fill="#383838"/>
<path d="M194.76 172.59L196.87 167.13L201.65 170.13C201.22 175.52 198.18 176.85 194.76 172.6V172.59Z" fill="#383838"/>
<path d="M5.44 103.31L0 101.15L1.51 97.53C5.66 98.86 9.15 101.39 5.44 103.31Z" fill="#383838"/>
<path d="M20.3499 6.06006L20.0099 9.03006L14.9399 7.58006L16.8499 4.81006L20.3499 6.06006Z" fill="#414045"/>
<path d="M276.42 176.34L271.79 174.42L274.1 168.87L277.94 171.49L276.42 176.34Z" fill="#383838"/>
<path d="M60.9599 15.8C55.3899 12.33 51.6399 8.53 44.8999 9.12C44.0199 9.2 43.3399 10.13 42.0999 10.06C40.1899 9.95 38.7299 8.81 36.6399 8.86C34.7599 8.91 29.3499 12.89 27.6199 14.11C26.7099 14.75 25.7899 13.77 25.0499 16.49C24.3099 19.21 25.9299 30.73 27.6499 33.52C28.0999 34.25 28.5899 34.22 28.8899 34.48C28.5399 38.23 37.8899 42.64 41.5299 43.29C42.8799 43.53 43.1399 42.63 43.9399 42.69C46.0199 42.85 48.4399 44.28 50.8799 43.89C52.6799 43.6 54.1099 41.73 55.5199 41.24C60.0899 39.66 59.5999 41.96 63.3899 36.77C67.0399 31.77 65.2199 28.79 68.0499 24.19C68.2999 23.66 66.7999 23.38 66.7699 23.29C66.3399 22.17 66.5799 20.38 65.5299 18.93C63.8999 16.67 62.8299 16.92 60.9799 15.77L60.9599 15.8Z" fill="#1C1C1C"/>
<path d="M60.96 15.8C62.81 16.95 63.88 16.6999 65.51 18.9599C66.56 20.4099 66.32 22.2099 66.75 23.3199C66.67 26.3399 62.7 23.1999 61.4 24.7199C60.65 25.5899 60.7 28.41 58.64 30.24C57.46 31.2799 56.42 30.66 55.91 30.99C54.09 32.18 54.57 35.27 50.12 33.13C48.41 32.31 48.01 30.66 46.11 30.12C44.48 31.16 41.2 36.37 39.86 36.56C37.95 36.84 36.36 34.67 35.76 37.25C33.65 35.69 32.41 37.27 32.22 37.18C32.02 37.09 29.3 34.85 28.89 34.49C28.59 34.23 28.1 34.2599 27.65 33.5299C25.93 30.7499 24.3 19.2899 25.05 16.4999C25.8 13.7099 26.71 14.7599 27.62 14.1199C31.99 16.0599 36.32 16.7199 39.89 14.6599C43.25 12.7199 41.39 13.8399 44.62 12.8999C45.45 12.6599 45.37 11.5299 46.22 11.5899C46.98 11.6499 52.53 13.0699 53.52 13.4199C55.9 14.2599 57.72 16.9399 60.95 15.8H60.96ZM63.1 21.9299C62.48 19.2299 53.09 16.3399 55.83 20.3799C57.24 22.4599 60.38 22.6799 62.61 23.53C62.76 23.01 63.23 22.5399 63.09 21.9299H63.1ZM46.02 16.11C40.02 15.12 46.74 22.4499 50.76 20.8399C51.04 18.7999 48.33 16.5 46.02 16.11ZM41.1 24.2999C40.1 22.9799 33.54 19.65 33.3 21.9199C34.5 24.5199 37.65 25.3499 40.34 26.45L41.11 24.2999H41.1Z" fill="#6C6B70"/>
<path d="M66.7499 23.3199C66.7799 23.4099 68.2799 23.6899 68.0299 24.2199C65.1999 28.8099 67.0199 31.7999 63.3699 36.7999C59.5899 41.9799 60.0699 39.6899 55.4999 41.2699C54.0899 41.7599 52.6699 43.6299 50.8599 43.9199C48.4299 44.3099 45.9999 42.8799 43.9199 42.7199C43.1199 42.6599 42.8599 43.5599 41.5099 43.3199C37.8699 42.6699 28.5199 38.2599 28.8699 34.5099C29.2799 34.8699 31.9999 37.1099 32.1999 37.1999C32.3899 37.2799 33.6299 35.7099 35.7399 37.2699C36.3499 34.6899 37.9299 36.8599 39.8399 36.5799C41.1699 36.3899 44.4499 31.1799 46.0899 30.1399C47.9899 30.6799 48.3799 32.3199 50.0999 33.1499C54.5499 35.2899 54.0699 32.1999 55.8899 31.0099C56.3999 30.6799 57.4499 31.2999 58.6199 30.2599C60.6799 28.4299 60.6199 25.6099 61.3799 24.7399C62.6799 23.2199 66.6499 26.3599 66.7299 23.3399L66.7499 23.3199Z" fill="#48474B"/>
<path d="M60.9599 15.8C57.7199 16.94 55.9099 14.26 53.5299 13.42C52.5299 13.07 46.9899 11.65 46.2299 11.59C45.3799 11.53 45.4499 12.66 44.6299 12.9C41.3999 13.84 43.2599 12.72 39.8999 14.66C36.3199 16.73 31.9999 16.07 27.6299 14.12C29.3699 12.9 34.7799 8.91001 36.6499 8.87001C38.7399 8.82001 40.1999 9.96 42.1099 10.07C43.3499 10.14 44.0199 9.21001 44.9099 9.13001C51.6499 8.53001 55.3999 12.33 60.9699 15.81L60.9599 15.8Z" fill="#919094"/>
<path d="M46.02 16.1099C48.33 16.4899 51.03 18.7999 50.76 20.8399C46.74 22.4499 40.03 15.1199 46.02 16.1099Z" fill="#414045"/>
<path d="M63.1001 21.93C63.2401 22.53 62.7701 23 62.6201 23.53C60.3801 22.68 57.2501 22.46 55.8401 20.38C53.1001 16.34 62.4801 19.23 63.1101 21.93H63.1001Z" fill="#414045"/>
<path d="M41.1 24.3L40.33 26.45C37.65 25.35 34.49 24.52 33.29 21.92C33.53 19.65 40.09 22.98 41.09 24.3H41.1Z" fill="#414045"/>
</svg>
