<svg  viewBox="0 0 480 269" fill="none" xmlns="http://www.w3.org/2000/svg">
<g clip-path="url(#clip0_6_1604)">
<path d="M401.38 28.92C400.26 30.98 399.23 33.98 401.37 36.29C404.01 39.14 406.74 38.49 404.59 43.2L407.55 44.45C404.15 48.14 409.69 49.56 409.4 52.75C409.32 53.64 408.22 57.2 407.67 57.39C407.5 57.45 405 56.9 403.7 57.2C400.58 57.92 402.46 58.5 402.32 59.98C402.24 60.85 401.49 61.8 401.63 62.41C401.69 62.65 403.98 66.63 404.16 66.84C405.43 68.3 407.31 68.21 407.05 70.56C406.77 73.14 403.96 74.73 403.93 75.08C403.86 75.81 405.74 76.48 405.89 76.81C406.23 77.52 404.71 81.19 403.81 81.65C402.75 82.19 398.81 81.33 398.81 84.05C396.46 83.3 394.68 81.79 393.32 81.23L384.35 77.51C383.07 76.98 377.06 72.47 375.53 71.29C372.38 68.85 368.73 66.78 370.18 63.52C371.72 60.06 375.26 57.89 376.19 53.92C376.97 50.58 375.03 48.07 374.96 45.66C374.92 44.25 375.69 42.41 375.6 40.59C375.56 39.77 374.69 39.45 374.73 39.1C374.81 38.36 379.63 32.56 380.48 31.83C381.98 30.54 384.67 29.79 386.46 27.96C387.01 27.4 388.87 26.03 386.66 25.52C387.38 24.92 388.16 24.36 388.81 23.71L401.36 28.92H401.38ZM399.23 30.73C394.6 28.11 388.98 30.96 389.63 35.16C391 36.9 394.82 35.42 396.83 35.69L399.23 30.73ZM399.92 43.45C392.59 45.42 398.27 51.12 401.02 44.8L399.92 43.45ZM390.29 42.15C386.89 39.8 379.66 43.16 380.42 46.05L382.48 48C386.88 48.1 389.5 45.53 390.29 42.15ZM392.73 59.91C387.75 56.2 383.65 59.3 383.14 63.52C383.52 64.71 385.42 64.56 386.46 64.87C386.52 64.89 386.53 65.46 387.48 65.59C391.31 66.1 393.09 63.26 393.83 60.69C394.02 60.13 393.04 60.15 392.72 59.91H392.73Z" fill="#6E6D72"/>
<path d="M408.56 31.9L412.48 36.56C416.91 39.56 417.85 44.59 419.17 48.48C419.69 50.01 421.59 51.82 421.87 53.48C422.2 55.47 421.09 57.52 421.18 59.4C421.3 62.03 423.48 64.09 422.57 67.23C421.89 69.55 420.16 70.37 419.16 72.23C417.57 75.2001 417.1 79.17 413.95 81.25C413.31 81.67 404.9 84.41 403.88 84.52C401.94 84.74 400.82 84.68 398.82 84.05C398.82 81.34 402.76 82.2 403.82 81.65C404.72 81.19 406.24 77.52 405.9 76.81C405.75 76.49 403.87 75.81 403.94 75.08C403.97 74.73 406.78 73.14 407.06 70.56C407.31 68.21 405.44 68.3 404.17 66.84C403.99 66.63 401.7 62.65 401.64 62.41C401.49 61.8 402.24 60.85 402.33 59.98C402.47 58.49 400.59 57.92 403.71 57.2C405.01 56.9 407.51 57.44 407.68 57.39C408.23 57.2 409.33 53.64 409.41 52.75C409.69 49.56 404.16 48.14 407.56 44.45L404.6 43.2C406.74 38.49 404.02 39.14 401.38 36.29C399.24 33.99 400.27 30.98 401.39 28.92L408.56 31.9Z" fill="#48474D"/>
<path d="M341.98 187.2C340.87 189.15 340 191.51 342.09 193.68C343.82 195.47 345.58 195.38 347.25 196.56C349.25 197.96 351.26 201.97 352.37 203.31C353.41 204.56 355.49 205.09 356.41 207.13C358.56 211.9 354.68 211 353.55 212.27C352.33 213.65 354.15 214.08 354.51 215.03C354.71 215.56 354.04 216.16 354.51 216.78C355.98 218.72 361.47 221.38 362.13 222.73C362.73 223.95 361.97 225.44 362.26 226.55C362.55 227.66 363.79 228.45 364.08 229.41C364.88 232.07 362.62 234.22 361.34 236.21C355.16 236.27 347.82 235.91 341.67 233.8C338.01 232.54 332.12 230.92 332.56 227.47C332.71 226.33 332.64 224.36 332.89 223.36C333.31 221.66 334.28 220.38 333.36 217.85C332.36 215.11 329.66 213.17 328.7 211.44C328.11 210.38 328.62 209.11 327.82 207.82C327.14 206.74 325.49 206.26 325.35 205.13C325.26 204.36 326.59 198.95 326.97 197.9C327.65 196.04 332.41 192.18 328.66 189.99C331.27 186.16 336.36 185.26 341.98 187.19V187.2ZM339.85 192.15L337.25 191.12C334.44 192.27 331.6 198.32 336.65 198.12C339.18 198.02 339.81 194 339.85 192.15ZM337.22 203.85C333.96 203.13 331.03 208.99 332.83 210.29C336.01 212.59 341.43 206.22 337.22 203.85ZM347.64 218.39C343.41 214.93 339.91 222.08 341.94 223.62C345.59 226.39 347.85 220.91 347.64 218.39Z" fill="#6D6C71"/>
<path d="M294.11 133.32C294.32 133.13 294.33 132.28 294.56 132.24C295.04 132.17 299.86 134.36 300.65 135.08C302.88 137.14 303.4 139.89 303.35 142.27C300.62 140.68 299.76 142.22 296.91 142.16C297.19 141.52 298.55 141.05 298.22 140.12C291.81 134.51 283.41 141.86 296.91 142.16C295.7 144.95 296.8 146.49 296.67 146.81C296.31 147.67 293.54 151.15 292.73 152.1C292.4 152.49 291.37 152 291.09 152.34C290.05 153.61 289.79 157.07 288.63 157.78C285.49 158.33 283.01 156.87 280.01 155.66C279.83 157.24 277.77 157.68 277.15 158.63C275.93 160.52 275.66 163.91 273.94 165.25C272.45 166.41 269.88 165.31 269.54 165.44C268.69 165.75 269.37 168.38 266.38 168.84C263.99 169.2 261.35 167.55 258.91 167.35C256.24 161.49 252.78 153.67 254.85 147.92C255.29 146.7 256.12 146.63 256.26 146.4C258.43 147.51 258.22 145.08 260.29 144.58C262.1 144.14 265.4 145.04 267.56 143.81C270.62 142.07 274.86 135.91 278.41 134.63C278.78 134.5 286.25 133.8 286.68 133.81C290.2 133.91 291.26 135.8 294.1 133.3L294.11 133.32ZM284.27 141.4C281.3 140.04 276.72 139.42 275.78 142.35C279.14 145.07 283.64 145.36 284.27 141.4ZM273.53 151.67C271.71 150.22 264.74 148.87 264.69 151.51C266.7 154.81 272.99 155.26 273.53 151.67Z" fill="#6D6C71"/>
<path d="M93.2501 239.9C95.4001 241.06 96.7401 240.99 99.2301 243C102.04 245.27 103.96 249.02 104.02 251.42C94.6601 246.69 97.2601 253.16 93.6901 255.22C92.4001 255.96 90.3801 255.31 90.0301 255.66C88.4901 257.2 89.8601 260.53 83.8401 258.41C81.1501 257.46 79.9601 254.9 77.1601 254.63C72.7401 254.21 72.7201 259.71 71.0501 260.18C70.0701 260.46 67.8301 259.29 66.4401 259.22C65.0501 259.15 64.2101 260.44 61.7301 259.85C59.7201 259.36 57.4401 257.34 55.1801 256.76C55.1001 256.67 53.9601 256.37 53.4301 255.58C50.2501 250.93 46.5101 240.26 48.0401 236.51L49.9301 237.29L50.4901 235.93L49.6701 235.26C50.1201 234.88 50.6501 234.8 51.0701 234.56C54.1501 235.79 59.5601 237.95 62.4801 238.04C64.4301 238.1 66.6901 236.52 68.1401 236.2C69.0001 236.01 73.1001 236.2 73.4601 236C74.2801 235.52 74.3601 234.13 74.5901 234.1C75.2201 234 87.6201 238.91 89.5401 239.66C91.4601 240.41 93.1101 241.79 93.2601 239.92L93.2501 239.9ZM88.0901 244.71C89.4901 246.19 97.7001 250.15 97.7201 247.85C95.9801 245.19 92.2601 243.9 88.8101 242.55L88.0801 244.71H88.0901ZM74.3001 239.18C73.3001 238.97 72.2401 239.1 72.2101 239.8C72.1201 241.61 79.9301 245.46 82.3901 244.67C83.7601 243.19 76.6101 239.68 74.3001 239.18ZM69.4101 249.2C72.3701 245.42 55.6901 240.1 60.0701 244.99C62.1201 247.28 66.3501 248.3 69.4101 249.2Z" fill="#6C6B70"/>
<path d="M341.98 187.2C343.62 187.76 355.41 193.19 356.47 193.87C356.91 194.16 356.56 194.91 357.08 195.32C358.12 196.14 360.52 197.25 361.17 198.32C361.64 199.09 360.88 199.78 361.07 200.11C361.31 200.53 363.19 201.17 364 201.95C365.07 202.98 371.7 213.59 371.96 214.66C372.52 217.03 371 220.18 371.16 222.5C371.21 223.25 372.65 224.29 372.26 226.62C371.54 230.92 366.73 236.16 361.36 236.21C362.64 234.22 364.9 232.06 364.1 229.41C363.81 228.45 362.58 227.71 362.28 226.55C361.98 225.39 362.75 223.95 362.15 222.73C361.49 221.38 355.99 218.72 354.53 216.78C354.06 216.15 354.72 215.56 354.53 215.03C354.17 214.08 352.35 213.65 353.57 212.27C354.7 210.99 358.58 211.89 356.43 207.13C355.51 205.09 353.43 204.56 352.39 203.31C351.28 201.97 349.27 197.96 347.27 196.56C345.59 195.38 343.83 195.47 342.11 193.68C340.02 191.51 340.89 189.15 342 187.2H341.98Z" fill="#48474B"/>
<path d="M303.36 142.28C303.29 146.02 302.64 154.48 300.37 157.25C300.07 157.61 299 157.08 298.71 157.44C297.63 158.76 297.64 161.1 296.36 162.59C295.46 163.62 293.18 163.83 292.16 164.58C289.7 166.4 288.55 169.77 284.98 170.76C283.09 171.28 282.35 170.39 281.37 170.49C279.34 170.71 277.89 172.4 276.56 172.78C271.75 174.16 266.16 172.72 261.34 170.29C257.79 168.49 259.39 168.39 258.92 167.37C261.36 167.57 264.01 169.23 266.39 168.86C269.38 168.41 268.7 165.78 269.55 165.46C269.9 165.33 272.47 166.43 273.95 165.27C275.67 163.93 275.94 160.54 277.16 158.65C277.78 157.7 279.84 157.25 280.02 155.68C283.02 156.89 285.5 158.35 288.64 157.8C289.8 157.09 290.06 153.63 291.1 152.36C291.38 152.02 292.41 152.51 292.74 152.12C293.55 151.16 296.32 147.69 296.68 146.83C296.82 146.5 295.72 144.97 296.92 142.18C299.77 142.24 300.62 140.7 303.36 142.29V142.28Z" fill="#48474C"/>
<path d="M215.39 230.33L213.12 234.08C213.12 235.49 215.51 236.26 215.8 237.33C216.33 239.24 216.01 241.19 215.88 242.88C215.84 243.46 217.13 243.64 216.82 244.67C215.5 249.04 212.56 247.05 212.34 247.33C211.76 248.38 211.57 251.02 212.02 252.14C212.43 253.16 213.8 253.41 214.1 254.08C214.63 255.29 212.93 256.07 212.57 257.01C212.17 258.06 212.66 259.35 211.73 260.37C210.69 261.52 208.3 260.11 207.99 261.83C201.97 259.51 197.53 255.12 193.17 251.05C192.87 250.43 193.72 249.77 193.66 249.48C195.34 247.86 197.9 245.65 198.64 243.53C199.47 241.16 197.39 237.38 199.05 234.88C200.35 232.92 204.73 232.23 206.47 230.89C207.63 230 206.81 229.49 206.86 229.35C207.04 228.91 207.14 228.44 207.46 228.07L208.88 227.73C209.85 227.87 214.47 229.76 215.38 230.33H215.39ZM213.1 231.94C210 231.08 207.73 232.07 207.15 234.59C210.25 235.45 212.52 234.46 213.1 231.94ZM205.02 236.97C203.82 236.79 199.76 238.97 201.79 240.69C205.55 242.73 209.25 237.6 205.02 236.97ZM200.8 249.88C202.99 250.83 205.24 251.07 206.03 249.18C207.76 245.06 200.89 246.75 200.8 249.88Z" fill="#6C6B70"/>
<path d="M386.68 25.52C388.89 26.03 387.03 27.39 386.48 27.96C384.69 29.79 382 30.54 380.5 31.83C379.65 32.56 374.83 38.36 374.75 39.1C374.71 39.45 375.58 39.77 375.62 40.59C375.7 42.41 374.93 44.25 374.98 45.66C375.05 48.07 376.99 50.59 376.21 53.92C375.28 57.9 371.74 60.07 370.2 63.52C367.71 60.69 368.67 57.44 368.18 54.45C367.69 51.46 365.57 49.11 367.11 45.81C367.95 44.02 370.6 43.23 371.23 41.99C371.78 40.9 371.05 38.63 371.36 37.22C372.25 33.23 373.85 31.34 377.75 29.43C381.05 27.82 383.88 27.86 386.67 25.51L386.68 25.52Z" fill="#929194"/>
<path d="M348.37 83.24C349.75 84.27 352.17 86.42 352.13 88.49C352.1 89.76 351.28 90.58 351.19 91.28C350.32 90.9 349.42 90.58 348.56 90.19C348.7 89.65 349.1 89.15 348.85 88.57L347.2 87.91L346.59 89.37C347.22 89.69 347.91 89.9 348.56 90.19C347.82 92.96 344.44 98.26 342.02 99.52C339.95 100.59 338.44 97.28 336.17 98.03C334.9 104.15 329.23 105.15 325.22 101.95C324.74 100.03 324.43 95.34 324.5 93.2C324.61 89.87 324.53 88.64 326.4 86.14L326.8 88.87L329.04 85.64C333.16 88.11 333.52 85.06 335.82 83.74C336.59 83.3 337.29 83.95 337.87 83.76C338.55 83.53 339.08 82.63 339.96 82.51C342.08 82.21 343.64 83.2 345.49 83.75C346.79 84.14 347.78 85.72 348.38 83.26L348.37 83.24Z" fill="#6B6A6E"/>
<path d="M215.39 230.33C215.79 230.58 220.63 236.45 221.06 237.17C223.45 241.17 225.04 253.01 222.58 255.93C222.28 256.29 221.21 255.75 220.92 256.12C220.27 256.94 220.22 258.29 219.55 259.22C217.43 262.18 212.33 263.5 207.99 261.84C208.3 260.12 210.68 261.53 211.73 260.38C212.66 259.36 212.17 258.07 212.57 257.02C212.93 256.08 214.63 255.29 214.1 254.09C213.8 253.41 212.42 253.16 212.02 252.15C211.58 251.03 211.76 248.39 212.34 247.34C212.56 247.05 215.5 249.05 216.82 244.68C217.13 243.65 215.83 243.47 215.88 242.89C216.01 241.2 216.32 239.25 215.8 237.34C215.5 236.27 213.12 235.5 213.12 234.09L215.39 230.34V230.33Z" fill="#48474B"/>
<path d="M328.67 190C332.41 192.19 327.66 196.05 326.98 197.91C326.6 198.95 325.26 204.37 325.36 205.14C325.5 206.27 327.15 206.75 327.83 207.83C328.64 209.12 328.13 210.39 328.71 211.45C329.67 213.18 332.37 215.12 333.37 217.86C334.29 220.39 333.32 221.67 332.9 223.37C332.65 224.37 332.71 226.34 332.57 227.48C328.88 226.43 329.16 223.45 327.88 221.68C326.2 219.36 323.32 217.89 323.12 214.96C322.95 212.43 324.54 211.1 324.73 209.31C324.78 208.83 320.9 204.7 322.27 199.76C323.33 195.97 325.36 195.97 327.17 193.5C327.92 192.48 328.01 190.97 328.67 190.01V190Z" fill="#919094"/>
<path d="M294.11 133.32C291.27 135.82 290.21 133.93 286.69 133.83C286.26 133.82 278.79 134.51 278.42 134.65C274.87 135.93 270.63 142.1 267.57 143.83C265.42 145.05 262.11 144.15 260.3 144.6C258.23 145.11 258.43 147.54 256.27 146.42C257.92 143.68 263.87 136.56 266.87 135.43C269.04 134.61 271.03 135.35 272.9 134.8C274.77 134.25 275.31 132.83 276.75 132.19C282.25 129.73 287.83 131.31 294.12 133.32H294.11Z" fill="#919094"/>
<path d="M348.56 90.19C347.91 89.9 347.23 89.69 346.59 89.37L347.2 87.91L348.85 88.57C349.09 89.15 348.7 89.65 348.56 90.19C349.42 90.58 350.32 90.9 351.19 91.28C350.34 97.7 350.72 97.74 346.57 102.92C345.9 103.76 345.49 105.55 345.04 105.8C344.74 105.97 343.82 105.19 343.27 105.34C342.61 105.52 341.51 107.49 340 108.12C334.6 110.36 326.77 108.18 325.22 101.95C329.24 105.15 334.91 104.15 336.17 98.03C338.45 97.28 339.95 100.59 342.02 99.52C344.44 98.27 347.82 92.97 348.56 90.19Z" fill="#474649"/>
<path d="M93.2501 239.9C93.0901 241.77 91.3601 240.36 89.5301 239.64C87.7001 238.92 75.2201 233.98 74.5801 234.08C74.3501 234.12 74.2601 235.5 73.4501 235.98C73.0901 236.19 68.9901 235.99 68.1301 236.18C66.6701 236.51 64.4201 238.09 62.4701 238.02C59.5501 237.92 54.1401 235.77 51.0601 234.54C52.9801 233.45 58.1501 230.66 60.4901 230.42C64.8201 229.98 67.1801 232.22 69.4501 232.41C69.9101 232.45 70.6601 231.69 71.7801 231.72C80.7301 231.92 85.1901 235.52 93.2501 239.89V239.9Z" fill="#919094"/>
<path d="M206.88 229.36C206.83 229.49 207.64 230.01 206.49 230.9C204.75 232.24 200.37 232.93 199.07 234.89C197.4 237.39 199.49 241.17 198.66 243.54C197.92 245.66 195.35 247.87 193.68 249.49C192.04 240.92 193 239.78 197.43 232.86C198.83 230.67 203.61 228.93 206.89 229.36H206.88Z" fill="#8E8E90"/>
<path d="M348.37 83.24C347.78 85.7 346.78 84.12 345.48 83.73C343.64 83.18 342.08 82.19 339.95 82.49C339.07 82.62 338.54 83.51 337.86 83.74C337.28 83.93 336.58 83.28 335.81 83.72C333.51 85.04 333.14 88.09 329.03 85.62L326.79 88.85L326.39 86.12C327.45 84.7 332.11 80.23 333.52 80.08C334.71 79.95 335.86 80.78 337.09 80.66C338.32 80.54 339.22 79.04 341.12 79.38C343.42 79.79 346.45 81.79 348.36 83.22L348.37 83.24Z" fill="#8E8E90"/>
<path d="M323.44 198.89C323.21 197.81 322.3 196.37 322.44 195.4C322.6 194.34 323.97 195.15 324.44 194.94C325.12 194.64 325.23 193.72 325.5 193.67C327.26 193.36 331.69 195.71 331.1 198.32C330.28 201.92 327.91 201.49 323.44 198.88V198.89Z" fill="#383838"/>
<path d="M187.69 192.95C188.72 196.43 181.13 197.09 182.38 192.8C183.11 190.32 187.22 191.37 187.69 192.95Z" fill="#383838"/>
<path d="M369.02 170.89C368.87 173.2 365.64 175.4 363.78 172.61L364.18 168.88L369.02 170.89Z" fill="#414045"/>
<path d="M250.81 206.37L255.72 209.07L253.85 212.28C248.24 211.36 249.44 208.79 250.81 206.37Z" fill="#414045"/>
<path d="M3.19009 28.78C7.42009 29.22 6.94009 36.88 1.85009 36.8C-1.51991 35.49 0.180091 28.47 3.19009 28.78Z" fill="#474649"/>
<path d="M268.79 116.49C270.97 115.29 275.24 120.95 270.93 120.81C267.38 120.7 267.06 117.44 268.79 116.49Z" fill="#787878"/>
<path d="M343.35 101.24L345.72 95.89C353.69 95.56 350.88 106.42 343.35 101.24Z" fill="#414045"/>
<path d="M382.18 226.5C381.48 227.41 385.49 228.89 383.59 229.45C383.25 229.55 382.91 228.07 382.29 228.72C381.99 229.03 382.14 230.03 381.4 229.85C378.7 229.19 376.79 227.38 379.06 225.61L382.17 226.51L382.18 226.5Z" fill="#787878"/>
<path d="M478.85 24C474.63 26.68 471.29 18.23 476.37 17.08C480.02 16.25 481.02 22.62 478.85 24Z" fill="#383838"/>
<path d="M314.2 94.9C314.47 97.01 312.1 97.72 310.78 98.56L308.67 95.47C309.6 93.35 313.92 92.7 314.2 94.9Z" fill="#383838"/>
<path d="M370.36 22.07C373.47 22.68 371.47 25.93 369.48 25.38C367.49 24.83 367.54 21.52 370.36 22.07Z" fill="#383838"/>
<path d="M362.45 70.12C363.02 72.04 361.63 72.97 359.35 72L359.58 68.86L362.45 70.13V70.12Z" fill="#787878"/>
<path d="M436.24 9.92994L433 17.7499L428 14.9799L427.49 13.0199L429.82 8.68994L436.24 9.92994Z" fill="#383838"/>
<path d="M49.66 235.25L50.48 235.92L49.92 237.28L48.03 236.5C48.48 235.4 49.23 235.62 49.66 235.25Z" fill="#919094"/>
<path d="M399.23 30.73L396.83 35.69C394.82 35.43 391 36.9 389.63 35.16C388.98 30.96 394.6 28.11 399.23 30.73Z" fill="#3E3D43"/>
<path d="M392.73 59.91C392.16 63.33 390 63.97 386.46 64.87C385.42 64.56 383.52 64.71 383.14 63.52C383.65 59.3 387.75 56.2 392.73 59.91Z" fill="#3E3D43"/>
<path d="M390.29 42.1501C389.5 45.5201 386.88 48.1001 382.48 48.0001L380.42 46.0501C379.66 43.1701 386.89 39.8101 390.29 42.1501Z" fill="#3C3B41"/>
<path d="M399.92 43.45L401.02 44.7999C398.27 51.1299 392.59 45.42 399.92 43.45Z" fill="#474649"/>
<path d="M392.73 59.91C393.05 60.15 394.03 60.13 393.84 60.69C393.09 63.26 391.31 66.11 387.49 65.59C386.54 65.46 386.53 64.89 386.47 64.87C390 63.97 392.16 63.32 392.74 59.91H392.73Z" fill="#807F85"/>
<path d="M284.11 0.799947C282.5 2.61995 282.91 9.07995 283.9 10.5799C284.89 12.0799 287.34 11.9699 288.81 13.5099C290.87 15.6599 292.63 22.2099 293.61 23.6799C294.49 24.9999 296.16 25.0799 297.04 27.1699C299.64 33.3199 293.72 34.9899 293.15 38.2699C293.11 38.5199 294.66 42.5899 294.83 42.8899C296.86 46.3799 301.76 47.8599 301.94 51.1899C302.05 53.1599 301.01 55.8799 301.24 56.8499C301.45 57.7599 302.68 57.9699 302.98 58.6699C303.16 59.0899 303.37 63.9499 302.94 64.7699C301.98 66.6199 299.55 67.5399 299.69 70.7699C296 70.8399 288.34 70.8699 285.08 69.8899C282.5 69.1199 275.29 66.3099 273.28 64.9299C271.27 63.5499 271.88 61.9799 271.82 60.0599C271.67 54.9999 273.05 53.6499 273.87 49.4999C273.97 49.0099 273.14 48.7099 273.1 47.8899C273.07 47.2599 273.74 46.2599 273.66 45.4099C273.61 44.8399 269.43 38.0399 268.89 36.5299C268.22 34.6399 268.34 32.5099 267.9 30.5499C267.66 29.4899 266.45 28.6199 266.36 27.7699C266.05 24.5699 269.71 15.5199 270.82 12.1499C271.14 11.1899 272.95 6.57995 270.95 6.50995C271.86 4.87995 271.91 3.00995 273.44 1.55995C275.59 -0.480053 281.68 -0.250053 284.08 0.809947L284.11 0.799947ZM278.89 16.3599C286.42 8.41995 279.06 0.719947 275.74 12.1299C274.96 14.8099 275.66 15.3699 276.79 17.4999C277.3 16.7399 278.69 16.5699 278.88 16.3599H278.89ZM279.89 25.6899C277.81 21.2299 270.77 31.2999 273.52 35.0299C276.75 38.8199 280.33 26.6299 279.89 25.6899ZM280.9 52.1799C281.16 53.1999 280.98 54.4499 282.04 54.8999C284.88 56.1399 289.05 47.2499 286.83 44.9499C284.65 42.6899 284.66 44.9299 283.64 45.7199C283.34 45.9599 282.56 45.6699 282.26 46.1099C280.65 48.4399 280.34 49.9899 280.9 52.1799Z" fill="#6D6C72"/>
<path d="M284.11 0.799917C290.59 3.66992 294.55 5.87992 298.93 11.1299C300.7 13.2499 306.42 19.8999 307.44 21.8999C307.92 22.8399 307.87 26.7999 308.34 28.5299C309.49 32.7799 313.43 35.6999 312.76 40.7599C311.96 46.8399 311.41 45.9999 311.82 52.3299C312.19 57.9299 305.18 70.6499 299.7 70.7599C299.56 67.5299 301.99 66.6099 302.95 64.7599C303.37 63.9399 303.16 59.0799 302.99 58.6599C302.7 57.9599 301.47 57.7399 301.25 56.8399C301.02 55.8699 302.06 53.1599 301.95 51.1799C301.77 47.8499 296.87 46.3699 294.84 42.8799C294.66 42.5799 293.11 38.5099 293.16 38.2599C293.73 34.9799 299.65 33.3099 297.05 27.1599C296.17 25.0699 294.5 24.9899 293.62 23.6699C292.64 22.1999 290.88 15.6599 288.82 13.4999C287.34 11.9599 284.86 11.9899 283.91 10.5699C282.92 9.07992 282.51 2.60992 284.12 0.789917L284.11 0.799917Z" fill="#48474C"/>
<path d="M270.97 6.5C272.97 6.57 271.16 11.18 270.84 12.14C269.73 15.51 266.07 24.57 266.38 27.76C266.46 28.61 267.68 29.49 267.92 30.54C268.36 32.5 268.24 34.63 268.91 36.52C269.44 38.03 273.62 44.83 273.68 45.4C273.76 46.25 273.08 47.25 273.12 47.88C273.16 48.7 273.98 49 273.89 49.49C273.07 53.63 271.69 54.99 271.84 60.05C268.36 59.27 269 55.6 268.08 53.64C266.96 51.27 263.43 46.13 263.24 43.81C262.92 40.04 264.62 37.64 264.59 34.49C264.56 31.93 262.67 28.84 262.88 25.34C263.31 18.23 267.72 12.33 270.99 6.5H270.97Z" fill="#929194"/>
<path d="M280.9 52.1799C280.34 49.9899 280.65 48.4399 282.26 46.1099C282.56 45.6699 283.34 45.9599 283.64 45.7199C284.65 44.9299 284.64 42.6799 286.83 44.9499C289.05 47.2499 284.88 56.1399 282.04 54.8999C280.98 54.4499 281.17 53.1999 280.9 52.1799Z" fill="#3E3D43"/>
<path d="M278.89 16.36C278.7 16.57 277.31 16.74 276.8 17.5C275.67 15.37 274.97 14.82 275.75 12.13C279.06 0.719998 286.43 8.42 278.9 16.36H278.89Z" fill="#3E3D43"/>
<path d="M279.89 25.69C280.33 26.63 276.74 38.82 273.52 35.03C270.77 31.3 277.82 21.23 279.89 25.69Z" fill="#3E3D43"/>
<path d="M337.22 203.85C341.43 206.21 336.01 212.59 332.83 210.29C331.03 208.99 333.96 203.13 337.22 203.85Z" fill="#3E3D43"/>
<path d="M347.64 218.39C347.86 220.92 345.6 226.39 341.94 223.62C339.91 222.08 343.41 214.92 347.64 218.39Z" fill="#3C3B41"/>
<path d="M339.85 192.15C339.81 194 339.18 198.02 336.65 198.12C331.6 198.31 334.43 192.27 337.25 191.12L339.85 192.15Z" fill="#3C3B41"/>
<path d="M296.92 142.17C283.42 141.87 291.82 134.53 298.23 140.13C298.56 141.06 297.19 141.53 296.92 142.17Z" fill="#3E3D43"/>
<path d="M273.53 151.67C272.99 155.26 266.7 154.81 264.69 151.51C264.74 148.87 271.71 150.22 273.53 151.67Z" fill="#3E3D43"/>
<path d="M284.27 141.4C283.64 145.36 279.14 145.07 275.78 142.35C276.72 139.42 281.3 140.04 284.27 141.4Z" fill="#3C3B41"/>
<path d="M213.1 231.94C212.52 234.45 210.24 235.45 207.15 234.59C207.73 232.08 210.01 231.08 213.1 231.94Z" fill="#414045"/>
<path d="M79.19 12.39C72.22 22.9 84.23 18.82 90.9 23.97C97.69 29.22 98.66 37.76 108.23 41.95C119.68 46.97 131.4 44.08 141.06 45.9C145.78 46.79 150.6 50.4 155.51 51.65C160.77 52.99 167.25 50.55 171.4 53.54C174.54 55.8 174.83 61.64 177.59 64.59C182.04 69.37 189.37 73.02 192.84 77.42C195.68 81.04 199.76 96.34 202.29 99.32C207.82 105.83 214.35 104.3 214.99 104.66C217.94 106.35 217.96 107.97 218.95 108.87L217.14 113.24L222 115.26C221.87 116.04 221.16 116.71 221.09 117.45C220.75 121.22 219.15 124.46 222.33 128.22C218.92 141.27 219.44 147.65 209.61 158.85C201.51 149.54 191.93 145.37 179.93 141.67L170.7 155.04L150.71 150.24C148.18 159.56 142.99 153.31 136.22 154.33C130.55 155.18 126.45 158.96 120.17 157.58C97.64 152.62 104.15 142.26 101.36 126.55C96.09 126.55 85.81 121.71 81.88 122.46C78.91 123.03 78.03 127.52 75.95 128.32C73.97 129.08 69.74 126.87 66.88 127.6C60.96 129.11 60.33 137.08 52.52 134.88C44.94 132.74 44.1 126.67 39.68 124.2C32.84 120.37 20.36 122.4 14.82 112.56C11.83 107.25 18.29 99.2 4.22998 96.69C9.70998 79.54 29 46.9 41.2 33.02C44.57 29.19 63.21 11.39 66.48 10.31C71.04 8.79997 76.14 12.39 79.19 12.37V12.39ZM156.3 78.64C154.67 75.45 147.37 66.27 144.28 65.01L137.01 66.25C124.2 92.88 175.17 115.59 156.31 78.64H156.3ZM77.45 57.84C70.97 68.25 76.5 83.28 87.19 90.87C90.2 93.01 91.27 95.98 95.5 93.55C103.15 79.96 94.01 62.37 77.45 57.84ZM180.31 105.66C170.73 113.93 187.18 145.96 199.36 139.29C205.42 126.69 196.06 108.66 180.31 105.66Z" fill="#6D6C72"/>
<path d="M209.61 158.87C206.84 162.03 175.71 189.66 173.5 190.77C172.29 191.38 148.85 198.23 147.45 198.38C136.82 199.53 128.32 193.17 120.65 204.19C96.2601 189.1 78.7601 201.57 55.8701 184.05C44.7401 175.53 41.1501 173.29 29.1401 165.46C12.2101 154.43 -1.13993 113.52 4.24007 96.7C18.3101 99.21 11.8401 107.26 14.8301 112.57C20.3701 122.41 32.8501 120.38 39.6901 124.21C44.1001 126.68 44.9401 132.76 52.5301 134.89C60.3401 137.09 60.9801 129.12 66.8901 127.61C69.7401 126.88 73.9701 129.09 75.9601 128.33C78.0401 127.53 78.9201 123.04 81.8901 122.47C85.8301 121.72 96.1001 126.56 101.37 126.56C104.15 142.27 97.6501 152.63 120.18 157.59C126.45 158.97 130.56 155.19 136.23 154.34C143.01 153.32 148.19 159.57 150.72 150.25L170.71 155.05L179.94 141.68C191.94 145.38 201.52 149.55 209.62 158.86L209.61 158.87Z" fill="#48474C"/>
<path d="M79.19 12.39C90.94 12.32 93.31 13.06 104.32 13.92C125.28 15.55 145.21 7.21997 153.93 35.74C195.33 39.06 203.7 74.63 214.98 104.67C214.35 104.31 207.81 105.85 202.28 99.33C199.75 96.35 195.67 81.05 192.83 77.43C189.37 73.02 182.04 69.38 177.58 64.6C174.83 61.65 174.53 55.81 171.39 53.55C167.24 50.56 160.75 53 155.5 51.66C150.59 50.41 145.77 46.79 141.05 45.91C131.39 44.1 119.67 46.98 108.22 41.96C98.65 37.77 97.68 29.23 90.89 23.98C84.22 18.83 72.21 22.91 79.18 12.4L79.19 12.39Z" fill="#919094"/>
<path d="M221.09 117.46C231.33 120.32 222.63 127.07 222.33 128.23C219.15 124.47 220.75 121.23 221.09 117.46Z" fill="#48474C"/>
<path d="M218.95 108.87C219.73 109.58 222.6 109.59 223.31 111.07C223.85 112.78 222.2 114.03 222 115.27L217.14 113.25L218.95 108.88V108.87Z" fill="#48474C"/>
<path d="M73.5001 47.9399C98.2501 54.5899 111.6 81.4599 99.8801 102.52C93.4901 106.33 91.9401 101.78 87.4701 98.5499C71.5901 87.0799 63.5801 64.0799 73.5001 47.9399Z" fill="#6D6C72"/>
<path d="M165.68 76.32C193.7 134.65 115.89 99.86 136.32 57.11L147.55 54.95C152.28 56.86 163.27 71.2899 165.68 76.32Z" fill="#6D6C72"/>
<path d="M176.39 92.47C202.34 97.65 218.21 126.57 208.58 146.45C188.74 156.74 160.87 105.37 176.39 92.47Z" fill="#6D6C72"/>
</g>
<path d="M102.9 250.69C103.07 257.15 100.81 262.78 94.3599 266.1C92.6399 266.99 89.4099 266.52 87.6399 266.97C86.9399 267.15 86.8899 268.26 85.9399 268.56C81.8599 269.87 79.9399 267.46 75.9999 266.54C74.4599 266.18 72.8299 266.96 70.8499 266.54C66.4599 265.63 57.4399 260.65 54.4899 257.75C53.6499 256.92 54.1699 256.18 54.0399 256.02C56.2899 256.61 58.5799 258.63 60.5899 259.11C63.0599 259.71 63.8799 258.41 65.2999 258.48C66.7199 258.55 68.9299 259.72 69.9099 259.44C71.5799 258.97 71.5999 253.46 76.0199 253.89C78.8199 254.16 80.0099 256.72 82.6999 257.67C88.7199 259.79 87.3599 256.46 88.8899 254.92C89.2499 254.56 91.2599 255.22 92.5499 254.48C96.1199 252.42 93.5199 245.96 102.88 250.68L102.9 250.69Z" fill="#474649"/>
<defs>
<clipPath id="clip0_6_1604">
<rect width="479.99" height="262.56" fill="white"/>
</clipPath>
</defs>
</svg>
