<svg  viewBox="0 0 343 292" fill="none" xmlns="http://www.w3.org/2000/svg">
<g clip-path="url(#clip0_7_1786)">
<path d="M320.263 174.823C320.456 174.744 320.474 173.926 320.641 173.909C320.878 173.882 324.916 175.316 325.434 175.615C328.243 177.243 328.989 179.222 329.841 181.5C329.595 182.926 328.234 181.694 326.873 182.195C323.221 183.541 325.126 185.705 324.608 187.641C323.968 190.016 321.615 191.995 320.72 193.588C319.982 194.89 320.676 196.895 318.095 198.03C312.459 194.23 308.605 197.749 308.227 202.261C308.184 202.772 310.352 203.071 307.622 205.164C306.489 206.035 304.461 205.305 304.303 205.358C303.75 205.543 303.496 208.111 302.021 208.525C300.546 208.938 297.316 207.32 295.7 207.636C292.9 204.206 290.486 201.144 288.897 197.142C288.291 195.611 286.93 190.412 287.062 189.101C287.22 187.491 287.466 187.808 288.914 187.597C289.046 187.579 289.573 188.045 289.985 187.931C290.547 187.764 290.934 186.4 291.908 186.136C293.269 185.767 294.629 187.113 297.096 185.802C300.151 184.184 300.037 182.477 301.679 180.392C302.477 179.389 304.54 179.46 304.698 179.257C305.234 178.562 305.743 176.046 306.121 175.949C306.27 175.914 307.666 176.592 308.491 176.609C310.203 176.653 311.563 175.967 313.038 175.906C315.207 175.8 319.815 177.023 320.263 174.815V174.823ZM325.17 181.166C322.282 179.715 318.832 178.298 317.603 181.245C320.693 182.785 323.476 183.99 325.17 181.166ZM313.354 183.242C311.52 182.301 307.666 180.717 306.112 181.975C302.319 185.028 313.117 187.394 313.354 183.242ZM305.173 192.822C304.619 190.948 296.561 190.095 296.929 193.086C298.834 194.573 306.015 195.672 305.173 192.822Z" fill="#6D6C71"/>
<path d="M329.841 181.492C329.867 181.562 330.71 181.694 330.833 182.011C330.964 182.345 330.271 184.509 330.332 185.617C330.587 190.069 331.79 190.755 330.06 195.84C328.735 199.728 324.152 206.106 320.755 208.762C318.648 210.407 315.655 209.22 314.285 209.598C313.82 209.73 312.424 211.138 311.169 211.63C307.104 213.196 299.598 211.384 295.727 208.718C295.095 208.279 295.753 207.689 295.709 207.636C297.325 207.32 300.546 208.947 302.03 208.525C303.514 208.103 303.751 205.543 304.312 205.358C304.47 205.305 306.498 206.035 307.631 205.164C310.352 203.071 308.193 202.772 308.237 202.261C308.614 197.749 312.468 194.239 318.104 198.03C320.685 196.886 319.991 194.881 320.729 193.588C321.633 191.995 323.985 190.016 324.618 187.641C325.135 185.705 323.239 183.541 326.882 182.195C328.243 181.694 329.595 182.926 329.85 181.5L329.841 181.492Z" fill="#48484C"/>
<path d="M320.263 174.823C319.815 177.032 315.207 175.809 313.038 175.914C311.564 175.985 310.203 176.662 308.491 176.618C307.666 176.601 306.27 175.923 306.121 175.958C305.743 176.055 305.234 178.562 304.699 179.266C304.541 179.477 302.478 179.398 301.679 180.401C300.037 182.486 300.151 184.192 297.096 185.811C294.621 187.113 293.269 185.776 291.908 186.145C290.934 186.409 290.556 187.773 289.986 187.94C289.582 188.063 289.046 187.588 288.915 187.606C289.231 185.186 291.179 184.025 292.426 182.301C293.839 180.339 293.33 178.765 296.491 177.568C298.079 176.97 300.309 177.366 301.319 176.988C302.232 176.644 303.724 174.955 304.962 174.304C310.967 171.146 319.034 175.351 320.263 174.823Z" fill="#919094"/>
<path d="M197.441 162.024C194.798 160.836 194.93 162.596 193.842 163.871C190.532 167.751 190.629 170.847 184.843 167.293C183.904 170.504 180.551 172.334 177.267 171.718C177.109 171.463 175.556 171.261 174.809 169.739C173.975 168.032 173.449 159.305 174.414 157.81C175.073 157.053 175.863 157.986 176.302 157.986C182.763 158.004 184.58 155.021 186.871 154.705C187.345 154.643 192.876 155.417 193.455 155.593C199.153 157.335 197.371 158.241 197.45 162.015L197.441 162.024Z" fill="#6B6A6E"/>
<path d="M197.441 162.024C197.441 162.428 198.187 163.264 198.056 164.1C196.51 173.645 185.081 179.741 177.118 173.583C176.346 172.985 177.312 171.806 177.259 171.727C180.542 172.343 183.896 170.513 184.835 167.302C190.62 170.847 190.523 167.751 193.833 163.88C194.93 162.604 194.79 160.836 197.432 162.033L197.441 162.024Z" fill="#474649"/>
<path d="M184.528 3.52774C188.162 6.04369 186.283 5.34873 187.231 8.46288L180.156 16.5386L175.152 14.9815C173.15 18.6762 170.174 20.594 165.908 18.641C165.847 18.5091 164.776 18.4299 164.503 17.4007C163.599 14.0138 163.968 10.9524 164.749 7.67994C166.584 6.07888 169.876 6.50114 170.85 6.11407C171.763 5.75339 174.239 2.99992 177.206 2.87676C180.015 2.7624 183.562 6.73866 184.528 3.52774Z" fill="#6B6A6E"/>
<path d="M187.231 8.46274C187.275 8.60349 188.768 8.59469 188.618 9.69432C188.496 10.6356 186.907 16.3009 186.485 17.1102C186.064 17.9196 179.48 23.3825 178.751 23.7256C176.126 24.9572 167.874 23.0658 165.811 20.4883C165.135 19.6438 165.952 18.7553 165.89 18.6409C170.157 20.5939 173.133 18.6849 175.134 14.9813L180.138 16.5384L187.214 8.46274H187.231Z" fill="#474649"/>
<path d="M184.528 3.52761C183.562 6.73853 180.015 2.77106 177.206 2.87663C174.239 2.99099 171.763 5.75326 170.85 6.11394C169.867 6.50101 166.575 6.07875 164.749 7.67981C165.662 3.8355 166.514 2.09369 170.947 0.712556C176.39 -0.985272 180.112 0.466239 184.536 3.52761H184.528Z" fill="#8E8E90"/>
<path d="M193.447 155.602C192.867 155.426 187.337 154.643 186.863 154.713C184.571 155.03 182.754 158.012 176.293 157.995L180.718 152.435C185.686 153.834 189.865 149.435 193.438 155.602H193.447Z" fill="#8E8E90"/>
<path d="M126.237 178.545L123.481 184.896C118.055 185.23 118.468 177.427 122.234 177.04C122.454 177.014 124.666 179.275 126.237 178.545Z" fill="#787878"/>
<path d="M327.953 209.22L324.872 207.434L326.233 204.971C329.85 205.411 328.954 207.364 327.945 209.22H327.953Z" fill="#414045"/>
<path d="M52.5491 75.6017C57.3774 75.9624 55.2529 82.2875 52.514 82.0851C47.6857 81.7245 49.8102 75.3994 52.5491 75.6017Z" fill="#474649"/>
<path d="M190.673 91.1637C194.395 91.7267 193.684 97.8142 189.689 97.216C185.967 96.653 186.678 90.5655 190.673 91.1637Z" fill="#383838"/>
<path d="M176.732 280.933C174.327 288.622 168.129 285.992 171.86 278.91L176.732 280.933Z" fill="#787878"/>
<path d="M38.0995 134.287L39.0388 138.914L34.351 140.26L32.8674 135.439L38.0995 134.287Z" fill="#383838"/>
<path d="M252.501 77.2908L250.482 82.1819L245.609 80.1498L247.672 76.1823L252.501 77.2908Z" fill="#383838"/>
<path d="M99.4535 6.58018C100.007 10.1254 95.2397 11.9376 93.642 9.34244C90.9382 4.94393 98.8916 2.98219 99.4535 6.58018Z" fill="#787878"/>
<path d="M49.5117 271.001C54.9281 271.644 51.838 278.998 47.6067 275.611C45.2277 273.702 46.5006 270.641 49.5117 271.001Z" fill="#383838"/>
<path d="M335.915 235.937C339.883 236.271 339.445 240.968 336.872 241.54C332.325 242.552 332.386 235.637 335.915 235.937Z" fill="#383838"/>
<path d="M145.418 107.333L146.937 103.348L151.283 106.611C150.036 109.752 147.288 109.963 145.418 107.333Z" fill="#787878"/>
<path d="M178.444 223.691L176.925 227.676L173.045 225.925C172.474 221.932 175.863 220.322 178.444 223.691Z" fill="#383838"/>
<path d="M48.4582 3.36926C48.6514 3.38685 49.301 2.9558 50.293 3.13174C53.5148 3.71234 56.6487 7.88214 57.2281 10.9875C57.3159 11.4449 56.9033 11.6649 56.9033 11.7264C55.8323 12.3686 53.6991 12.1047 52.6983 12.7029C52.5579 12.483 52.1541 12.2367 52.0926 12.0607C51.8995 11.5065 52.4877 10.6004 51.2674 9.67673C48.7831 7.79417 44.8766 8.99056 43.5071 11.1282C44.2445 11.8232 44.8766 12.6941 45.6315 13.3627C45.9476 13.6442 46.0441 13.9169 46.5269 14.1544C46.7289 14.2512 50.6266 14.5679 50.8109 14.4975C49.9945 15.8962 51.1709 17.6908 50.8812 18.94C50.3896 21.0513 47.1502 22.0893 48.5021 23.9719L50.4159 22.7491C49.4678 24.4206 45.8949 25.7225 45.5086 27.4379C45.4033 27.8954 45.8246 28.4232 45.7632 28.6695C45.5964 29.3293 42.7609 32.1356 42.1376 32.2939C40.5926 32.681 37.6078 29.9011 36.8002 30.3586C36.4578 32.0476 34.2105 32.2587 33.6486 33.3583C33.5521 33.5519 32.2441 37.2642 32.2002 37.4842C31.9807 38.6982 33.0692 39.745 31.6647 41.1173C30.3918 42.3665 28.0303 41.9706 26.933 42.6656C26.336 43.0439 27.2753 43.4573 26.8013 44.0731C25.9234 45.208 24.2291 46.4307 22.6139 46.2284C20.9986 46.0261 19.831 44.5746 18.1982 46.1404C16.8199 44.6537 16.9692 43.0087 16.1791 41.1965C15.6173 39.9121 14.5989 38.8213 14.0459 37.5281C13.01 35.1178 11.3245 25.3179 11.5879 22.9515C11.6932 21.9662 11.8337 22.0981 12.2463 21.456C13.0188 22.5732 13.2382 21.6671 13.7825 21.2096C17.2852 18.245 17.7066 19.4502 21.3146 18.4298C24.5276 17.5237 25.6513 13.9785 27.4772 11.8144C28.794 10.2573 30.7605 9.03455 32.0421 7.45108C32.3845 7.02882 32.1563 6.15792 32.5425 5.89401C32.9902 5.58611 35.2639 5.98198 36.2296 5.79724C37.801 5.49814 39.267 4.50407 40.9964 4.50407C42.3307 4.50407 43.7792 5.28701 45.2979 5.08468C45.9651 4.99671 48.6338 4.37212 48.467 3.36926H48.4582ZM35.9048 17.5589C36.8704 17.4973 39.5216 15.4564 39.3284 14.5327C37.5639 11.4625 31.7963 11.6385 30.8746 14.4711C30.2689 15.905 35.141 17.6117 35.9048 17.5589ZM42.1552 22.5292C44.7449 23.2066 45.7193 19.6438 42.1552 20.022C39.5479 20.3036 39.7323 21.8958 42.1552 22.5292ZM29.9089 27.1037C29.47 23.0834 20.8757 24.1215 21.4551 26.611C21.578 27.1388 22.9562 28.5288 23.4742 28.9774C24.7646 30.0859 25.5459 29.6812 26.7135 30.728L30.3654 27.9042L29.9089 27.0949V27.1037ZM25.0719 42.0234C25.0631 41.1965 21.3848 41.3109 21.1039 42.1642C22.4032 43.5629 24.1062 42.9999 25.0719 42.0234Z" fill="#6D6C72"/>
<path d="M56.8946 11.7177C56.9297 13.2483 56.7366 15.1837 56.7541 16.9959C56.7717 18.5266 57.3335 19.9781 57.2984 21.6319C57.2106 25.9249 53.9713 31.6517 52.2419 35.3817C51.2762 37.4666 49.2835 38.1088 47.8087 39.7714C45.2277 42.6832 44.78 45.5423 40.2678 46.8002C36.7563 47.7767 36.3262 48.4453 33.3239 49.7384C29.2769 51.4803 21.657 49.888 18.1895 46.1405C19.8223 44.5746 20.9635 46.0261 22.6051 46.2284C24.2467 46.4308 25.9147 45.2168 26.7925 44.0731C27.2666 43.4574 26.3273 43.0439 26.9242 42.6656C28.0216 41.9707 30.383 42.3665 31.6559 41.1173C33.0605 39.7362 31.9632 38.6894 32.1914 37.4842C32.2353 37.2642 33.5433 33.5519 33.6399 33.3584C34.2017 32.2499 36.4491 32.0476 36.7914 30.3586C37.6079 29.9011 40.5838 32.681 42.1289 32.2939C42.7609 32.1356 45.5877 29.3381 45.7545 28.6695C45.8159 28.4232 45.3945 27.9042 45.4999 27.438C45.8861 25.7225 49.4503 24.4206 50.4072 22.7491L48.4934 23.9719C47.1327 22.0894 50.372 21.0513 50.8724 18.94C51.1621 17.6908 49.9858 15.8962 50.8022 14.4975C51.3465 14.2864 52.0663 13.0724 52.6896 12.7029C53.6904 12.1047 55.8236 12.3774 56.8946 11.7264V11.7177Z" fill="#48484C"/>
<path d="M48.4583 3.36926C48.6251 4.37212 45.9564 5.00551 45.2892 5.08468C43.7793 5.27822 42.322 4.50408 40.9877 4.50408C39.2583 4.50408 37.7922 5.49814 36.2209 5.79724C35.264 5.98198 32.9815 5.57732 32.5338 5.89401C32.1476 6.15792 32.3758 7.02883 32.0334 7.45109C30.743 9.03455 28.7853 10.2573 27.4685 11.8144C25.6426 13.9785 24.5277 17.5237 21.3059 18.4298C17.6979 19.4502 17.2765 18.2451 13.7738 21.2097C13.2295 21.6759 13.0101 22.5732 12.2375 21.456C14.0108 18.6673 16.0036 16.6792 17.891 14.1984C19.7257 11.788 19.9891 9.36004 23.246 7.46868C24.7647 6.58898 26.9243 7.52146 27.7758 7.14319C31.0151 5.68288 31.893 1.99692 37.1251 1.50429C40.2766 1.20519 45.2453 2.98219 48.4583 3.35167V3.36926Z" fill="#929196"/>
<path d="M35.9047 17.5589C35.1409 17.6117 30.2688 15.905 30.8745 14.4711C31.7963 11.6385 37.5638 11.4625 39.3284 14.5327C39.5215 15.4652 36.8703 17.4973 35.9047 17.5589Z" fill="#3E3D43"/>
<path d="M52.075 12.0607C51.4605 12.7733 50.6529 13.09 49.7311 13.3187C48.1071 13.7234 46.9571 12.7997 45.6139 13.3627C44.8678 12.6941 44.2269 11.8232 43.4895 11.1282C44.859 8.99057 48.7567 7.79417 51.2498 9.67673C52.4701 10.6004 51.8819 11.5065 52.075 12.0607Z" fill="#3C3B41"/>
<path d="M29.9089 27.1037C28.4692 29.2061 25.9498 28.995 23.4742 28.9774C22.9562 28.5288 21.578 27.1388 21.4551 26.611C20.8669 24.1215 29.47 23.0834 29.9089 27.1037Z" fill="#3C3B41"/>
<path d="M42.1553 22.5292C39.7323 21.8958 39.548 20.2948 42.1553 20.0221C45.7194 19.6438 44.7537 23.2154 42.1553 22.5292Z" fill="#3E3D43"/>
<path d="M29.9089 27.1037L30.3654 27.913L26.7134 30.7368C25.5459 29.6988 24.7646 30.0947 23.4741 28.9862C25.9409 28.995 28.4692 29.2062 29.9089 27.1125V27.1037Z" fill="#807F85"/>
<path d="M52.6808 12.6941C52.0488 13.0636 51.3377 14.2864 50.7934 14.4887C50.6003 14.5591 46.7113 14.2424 46.5094 14.1456C46.0266 13.9169 45.93 13.6354 45.614 13.3539C46.9571 12.7997 48.1072 13.7146 49.7312 13.3099C50.653 13.0812 51.4694 12.7645 52.0751 12.0519C52.1366 12.2191 52.5404 12.4654 52.6808 12.6941Z" fill="#807F85"/>
<path d="M25.072 42.0234C24.1063 42.9999 22.412 43.5629 21.104 42.1642C21.3849 41.3109 25.0632 41.1877 25.072 42.0234Z" fill="#48484D"/>
<path d="M19.8308 170.495C20.8052 167.865 27.8633 171.296 29.6278 173.715C29.3644 174.454 28.3637 174.92 27.4156 175.079C27.3541 175.087 26.2217 175.149 26.1602 175.123C25.7827 174.991 25.2472 174.287 24.0445 174.023C21.6304 173.486 17.7766 175.562 20.577 177.656C21.3056 178.202 21.2705 178.307 22.4556 178.369C22.8068 178.386 25.7476 177.946 25.853 177.858C28.5217 180.216 28.1091 181.632 27.4068 184.025L28.39 184.623C28.1354 185.503 27.0644 185.996 27.0907 187.007C27.0995 187.509 27.9159 188.195 28.0125 188.802C28.2408 190.174 26.7747 192.268 24.8697 192.118C24.1938 192.066 23.5705 191.679 22.7804 191.679C20.6999 191.679 22.0606 192.981 21.8587 193.456C21.7006 193.843 20.5243 193.878 20.4365 194.854C22.0957 195.62 20.9808 196.235 21.1739 197.37C21.4022 198.681 23.0087 199.165 22.1747 200.713C21.7006 201.602 20.0151 202.042 19.7167 202.569C19.269 203.379 20.5858 204.294 18.7247 205.78C16.8636 207.267 15.1957 205.314 14.0983 207.197C12.1934 206.115 6.64524 201.47 5.20553 199.904C3.97652 198.576 0.851316 194.415 0.192916 193.007C-0.0528863 192.488 -0.193345 191.344 0.50017 191.265C0.605514 191.256 0.982996 191.503 1.20246 191.555C1.20246 190.421 2.39636 188.996 3.3269 188.265C3.70438 187.966 6.40821 186.867 6.61012 186.55C7.50554 185.134 7.22463 182.565 7.65478 180.981C7.96204 179.829 8.85746 179.09 9.17349 178.219C9.41929 177.542 8.91013 176.363 9.44563 175.8C9.63876 175.598 11.535 175.008 12.0968 174.683C12.5094 174.436 12.4918 173.926 12.8605 173.671C14.3617 172.615 18.5667 172.897 19.8922 171.173C20.2961 170.645 19.8132 170.531 19.822 170.504L19.8308 170.495ZM12.1758 183.005C12.3689 183.189 12.1143 183.638 13.1327 183.937C14.8972 184.14 18.3121 183.489 18.3472 182.055C18.3472 181.756 17.7151 181.632 17.6976 181.597C17.6098 181.412 18.1892 180.586 17.2586 180.049C14.9762 178.721 10.3498 180.401 11.2189 182.213C11.4121 182.618 11.9388 182.785 12.167 183.005H12.1758ZM24.3342 183.497C23.2457 182.239 19.9537 184.254 21.4022 185.125C22.1835 185.6 25.177 184.474 24.3342 183.497ZM15.7399 191.327C13.6857 188.996 8.04104 190.473 8.91891 193.016C9.79678 193.482 10.7537 193.808 11.6666 194.195C11.693 194.203 11.7808 194.582 12.0617 194.626C12.6059 194.107 13.6418 194.52 13.8964 194.476C14.7216 194.318 15.0815 192.857 16.2491 193.095L16.4334 192.638C15.8277 192.25 15.977 191.591 15.7399 191.327Z" fill="#6D6C72"/>
<path d="M29.6281 173.715C29.672 173.768 30.1548 173.829 30.2426 174.014C30.348 174.243 30.0056 174.656 30.1373 175.035C30.8571 177.172 33.6575 179.935 34.3774 182.107C35.343 185.028 34.7724 186.787 34.7812 189.339C34.7812 189.893 35.7293 191.168 35.6064 192.039C35.422 193.315 34.3598 193.983 33.9472 195.039C32.9991 197.441 34.4564 199.746 31.735 201.962C31.0854 202.49 29.8125 202.64 29.1628 203.168C28.0743 204.065 27.5827 205.736 26.5029 206.625C24.6067 208.182 18.2246 208.771 15.0906 207.76C14.2303 207.487 14.3445 207.302 14.1162 207.17C15.2135 205.288 16.9605 207.17 18.7426 205.754C20.5246 204.338 19.2868 203.352 19.7346 202.543C20.0243 202.015 21.7098 201.575 22.1926 200.687C23.0266 199.139 21.4113 198.655 21.1918 197.344C20.9987 196.209 22.1136 195.593 20.4544 194.828C20.551 193.851 21.7185 193.816 21.8766 193.429C22.0697 192.954 20.7178 191.643 22.7983 191.652C23.5884 191.652 24.2117 192.039 24.8876 192.092C26.7838 192.242 28.2586 190.148 28.0304 188.776C27.9251 188.169 27.1174 187.482 27.1086 186.981C27.0823 185.969 28.1533 185.468 28.4079 184.597L27.4247 183.999C28.127 181.606 28.5396 180.19 25.8708 177.832C26.3361 177.445 26.9945 175.659 27.4334 175.061C28.3815 174.903 29.3823 174.445 29.6457 173.697L29.6281 173.715Z" fill="#48474D"/>
<path d="M19.8311 170.495C19.8311 170.495 20.3051 170.636 19.9013 171.164C18.5757 172.897 14.3708 172.615 12.8696 173.662C12.5009 173.917 12.5185 174.428 12.1059 174.674C11.544 175.008 9.65662 175.589 9.45471 175.791C8.91921 176.345 9.42837 177.524 9.18257 178.21C8.87532 179.081 7.97111 179.829 7.66386 180.973C7.24248 182.556 7.51462 185.125 6.6192 186.541C6.41729 186.858 3.71346 187.966 3.33598 188.257C2.41422 188.978 1.21154 190.412 1.21154 191.547C0.992076 191.494 0.614593 191.248 0.509249 191.256C0.456577 189.963 0.298561 188.582 0.579478 187.359C0.693601 186.849 1.25544 186.541 1.42223 185.873C1.96651 183.717 0.746273 182.037 2.5459 179.82C3.47644 178.677 5.715 178.492 6.34706 177.718C6.72454 177.26 6.54019 176.398 6.88256 175.791C7.95356 173.926 9.84975 171.912 12.4833 171.349L19.8223 170.487L19.8311 170.495Z" fill="#939395"/>
<path d="M15.7403 191.327C15.5208 193.227 13.1681 193.244 11.667 194.195C10.754 193.799 9.7971 193.482 8.91924 193.016C8.04137 190.473 13.6773 188.996 15.7403 191.327Z" fill="#3E3D43"/>
<path d="M17.7065 181.597C16.855 183.005 14.4672 183.638 12.176 183.005C11.9565 182.785 11.4298 182.626 11.2279 182.213C10.3588 180.401 14.9764 178.721 17.2676 180.049C18.1981 180.586 17.6187 181.412 17.7065 181.597Z" fill="#3E3D43"/>
<path d="M26.1605 175.131C25.8884 176.319 24.5101 177.595 22.9124 177.674C22.1926 177.709 21.262 177.146 20.5773 177.656C17.7769 175.571 21.622 173.495 24.0449 174.023C25.2476 174.287 25.7831 174.991 26.1605 175.123V175.131Z" fill="#3C3B41"/>
<path d="M27.4157 175.079C26.9768 175.677 26.3184 177.463 25.8531 177.85C25.739 177.938 22.8069 178.386 22.4558 178.36C21.2707 178.298 21.3058 178.193 20.5771 177.647C21.2531 177.128 22.1836 177.7 22.9123 177.665C24.51 177.586 25.897 176.31 26.1604 175.123C26.2218 175.149 27.3543 175.087 27.4157 175.079Z" fill="#807F85"/>
<path d="M24.3345 183.497C25.1772 184.483 22.1837 185.6 21.4024 185.125C19.9539 184.254 23.2459 182.231 24.3345 183.497Z" fill="#414045"/>
<path d="M17.7066 181.597C17.7066 181.597 18.365 181.756 18.3562 182.055C18.3211 183.489 14.8974 184.14 13.1417 183.937C12.1146 183.638 12.3779 183.189 12.1848 183.005C14.476 183.638 16.8638 183.005 17.7154 181.597H17.7066Z" fill="#807F85"/>
<path d="M15.74 191.327C15.9771 191.591 15.8278 192.242 16.4336 192.638L16.2492 193.095C15.0816 192.857 14.7129 194.318 13.8965 194.476C13.6507 194.52 12.6148 194.107 12.0618 194.626C11.7809 194.582 11.7019 194.212 11.6667 194.195C13.1679 193.245 15.5206 193.227 15.74 191.327Z" fill="#807F85"/>
<path d="M131.575 44.6977C126.079 53.0813 135.455 49.7648 140.617 53.8115C145.875 57.9285 146.569 64.7022 153.995 67.9659C162.879 71.8718 172.027 69.5054 179.533 70.8865C183.202 71.5551 186.933 74.3965 190.752 75.3554C194.834 76.3847 199.899 74.4053 203.112 76.7541C205.544 78.5311 205.728 83.1584 207.861 85.4808C211.303 89.2459 216.982 92.0874 219.651 95.5622C221.846 98.4124 224.918 110.526 226.867 112.875C231.125 118.003 236.234 116.745 236.726 117.027C239.017 118.347 239.017 119.631 239.781 120.343L238.341 123.827L242.116 125.402C242.01 126.026 241.449 126.554 241.396 127.144C241.106 130.143 239.842 132.721 242.291 135.685C239.552 146.057 239.921 151.115 232.187 160.071C225.945 152.734 218.51 149.488 209.187 146.629L201.909 157.291L186.38 153.614C184.343 161.021 180.349 156.103 175.064 156.957C170.64 157.669 167.427 160.695 162.546 159.64C145.032 155.848 150.168 147.588 148.105 135.14C143.997 135.175 136.026 131.401 132.962 132.026C130.644 132.492 129.933 136.064 128.309 136.715C126.755 137.331 123.481 135.606 121.251 136.205C116.633 137.445 116.089 143.77 110.023 142.072C103.957 140.374 103.518 135.615 100.094 133.68C94.7921 130.68 85.0566 132.378 80.8077 124.61C78.5165 120.414 83.5993 113.983 72.6611 112.083C77.0417 98.4388 92.2727 72.426 101.868 61.3329C104.51 58.2716 119.153 44.0292 121.699 43.1583C125.263 41.9267 129.213 44.7505 131.584 44.7153L131.575 44.6977ZM191.191 96.7586C189.944 94.2426 184.317 87.0027 181.912 86.0262L176.241 87.0555C166.092 108.265 205.632 125.956 191.191 96.7586ZM129.924 80.7744C124.815 89.0788 129.02 100.964 137.298 106.919C139.625 108.591 140.441 110.948 143.751 108.995C149.79 98.1573 142.794 84.2668 129.924 80.7744ZM209.722 118.039C202.208 124.663 214.814 149.963 224.339 144.588C229.141 134.551 221.96 120.308 209.722 118.039Z" fill="#6D6C72"/>
<path d="M232.187 160.062C230.01 162.587 205.588 184.711 203.858 185.609C202.91 186.101 184.615 191.687 183.518 191.811C175.231 192.787 168.656 187.799 162.607 196.596C143.707 184.782 130.003 194.793 112.288 181.043C103.676 174.357 100.893 172.607 91.5879 166.466C78.4814 157.828 68.3508 125.455 72.6436 112.074C83.5818 113.974 78.4989 120.405 80.7902 124.601C85.039 132.378 94.7746 130.68 100.077 133.671C103.501 135.606 104.115 140.418 110.006 142.063C115.896 143.708 116.616 137.436 121.233 136.196C123.463 135.598 126.738 137.322 128.292 136.706C129.916 136.064 130.627 132.492 132.944 132.017C136.017 131.393 143.988 135.166 148.087 135.131C150.15 147.579 145.024 155.831 162.528 159.631C167.409 160.687 170.622 157.66 175.047 156.948C180.331 156.095 184.326 161.021 186.362 153.605L201.892 157.282L209.169 146.62C218.492 149.479 225.928 152.725 232.169 160.062H232.187Z" fill="#48474C"/>
<path d="M131.575 44.6977C140.731 44.5658 142.565 45.1376 151.142 45.7446C167.462 46.9058 183.026 40.1585 189.637 62.7317C221.854 65.0981 228.14 93.2574 236.734 117.018C236.243 116.737 231.142 117.995 226.876 112.866C224.927 110.517 221.846 98.4036 219.66 95.5534C216.991 92.0786 211.311 89.2371 207.87 85.472C205.746 83.1496 205.552 78.5135 203.121 76.7453C199.908 74.3965 194.842 76.3759 190.76 75.3466C186.942 74.3877 183.211 71.5463 179.541 70.8777C172.027 69.5054 162.888 71.863 154.004 67.9571C146.577 64.6934 145.875 57.9285 140.625 53.8027C135.464 49.756 126.088 53.0725 131.583 44.6889L131.575 44.6977Z" fill="#919094"/>
<path d="M241.396 127.135C249.358 129.334 242.537 134.744 242.291 135.677C239.842 132.712 241.106 130.135 241.396 127.135Z" fill="#48474C"/>
<path d="M239.781 120.335C240.386 120.889 242.625 120.88 243.16 122.05C243.573 123.405 242.274 124.408 242.116 125.384L238.341 123.809L239.781 120.326V120.335Z" fill="#48474C"/>
<path d="M126.913 72.9362C146.139 78.0561 156.375 99.2833 147.104 116.059C142.1 119.129 140.924 115.523 137.465 112.989C125.175 103.999 119.092 85.7975 126.913 72.9274V72.9362Z" fill="#6D6C72"/>
<path d="M198.512 94.8584C219.958 140.946 159.587 113.86 175.775 79.8067L184.528 78.0209C188.197 79.5076 196.66 90.8822 198.512 94.8584Z" fill="#6D6C72"/>
<path d="M206.747 107.597C226.92 111.538 239.087 134.375 231.458 150.209C215.938 158.496 194.571 117.933 206.747 107.597Z" fill="#6D6C72"/>
<path d="M294.867 41.4076C292.804 40.827 290.899 42.1818 290.486 43.3518C290.1 44.4514 292.224 46.3956 291.329 48.111C290.714 49.2898 289.758 50.4158 289.248 51.8937C288.739 53.3716 289.564 54.6472 287.405 55.6324C285.658 56.4242 284.174 55.5533 282.085 54.6384C282.533 56.213 280.882 56.0635 280.329 57.2511C279.478 59.0809 281.409 61.7816 279.636 63.2419C279.539 63.3211 276.686 63.7961 276.59 63.8753C276.353 64.0688 276.519 66.3472 274.474 66.7519C273.254 66.9894 270.471 65.0717 270.234 67.0686C268.417 66.0833 267.135 62.9076 264.853 61.676C262.298 58.3331 260.56 54.9199 259.261 51.4451C259.173 50.5741 259.989 50.6357 259.998 50.5829L262.667 48.7971L267.925 47.2753L273.447 38.6982C275.255 38.9093 275.738 37.9328 276.906 37.6777C278.969 37.229 282.234 37.361 284.552 36.9299C285.07 36.8332 286.65 36.7364 285.553 35.9535C285.605 35.9535 285.623 35.4169 286.193 35.4169C289.134 35.4432 293.269 37.5018 294.674 39.7362C295.323 40.7655 294.761 41.0997 294.867 41.4076ZM287.932 42.6568C289.714 42.4897 291.584 42.0234 290.118 40.2376C286.905 39.2348 284.35 39.1204 283.841 41.5572C285.913 42.4721 286.176 42.824 287.932 42.6568ZM281.023 43.9412C278.073 42.4721 274.492 42.9559 273.403 44.7153C276.528 46.4132 280.61 46.4747 281.023 43.9412ZM283.191 47.6271L284.043 49.1578C284.771 49.4569 286.975 49.149 287.019 48.6036L285.447 47.3896L283.2 47.6271H283.191ZM276.08 52.9318C273.737 50.6005 265.388 51.8849 269.242 54.0402C271.893 55.5269 275.132 54.48 276.08 52.9318Z" fill="#6D6C71"/>
<path d="M294.867 41.4076C295.578 43.3518 298.176 48.2341 298.089 49.6856C297.983 51.4363 296.728 56.3186 296.017 57.8669C295.525 58.9401 294.384 59.3096 293.848 60.1541C292.514 62.2566 292.505 64.3415 289.608 65.7314C288.976 66.0305 287.124 65.9162 286.659 66.1361C285.158 66.8311 284.201 68.5377 281.971 69.0743C281.734 69.1271 280.97 68.6784 280.654 68.7488C280.338 68.8192 280.347 69.3998 280.066 69.4702C279.847 69.523 275.325 69.1359 275.062 69.0655C274.158 68.8368 271.121 67.5524 270.225 67.0686C270.462 65.0629 273.245 66.9894 274.465 66.7519C276.511 66.3472 276.344 64.0688 276.581 63.8753C276.686 63.7961 279.53 63.3211 279.627 63.2419C281.392 61.7904 279.469 59.0809 280.321 57.2511C280.874 56.0635 282.524 56.213 282.076 54.6384C284.166 55.5533 285.649 56.4242 287.396 55.6324C289.564 54.6472 288.713 53.4244 289.24 51.8937C289.766 50.363 290.706 49.2898 291.32 48.111C292.216 46.3956 290.091 44.4514 290.477 43.3518C290.89 42.1818 292.795 40.827 294.858 41.4076H294.867Z" fill="#48474B"/>
<path d="M285.553 35.9535C286.65 36.7364 285.061 36.8332 284.552 36.93C282.234 37.361 278.969 37.2291 276.906 37.6777C275.729 37.9328 275.247 38.9093 273.447 38.6982L267.925 47.2753L262.667 48.7972L259.998 50.583C260.648 47.4952 261.447 47.2929 262.921 44.8473C263.826 43.343 263.518 41.3461 266.003 40.1673C267.056 39.6658 268.364 40.0705 269.339 39.6306C270.453 39.1204 270.857 37.9152 271.797 37.273C276.73 33.9302 279.013 35.8039 285.544 35.9623L285.553 35.9535Z" fill="#929194"/>
<path d="M276.08 52.9318C275.132 54.48 271.893 55.5269 269.242 54.0402C265.388 51.8849 273.736 50.5917 276.08 52.9318Z" fill="#3E3D43"/>
<path d="M287.932 42.6568C286.185 42.824 285.913 42.4721 283.841 41.5572C284.341 39.1204 286.896 39.2348 290.118 40.2376C291.592 42.0234 289.714 42.4809 287.932 42.6568Z" fill="#3E3D43"/>
<path d="M281.023 43.9412C280.601 46.4659 276.519 46.4044 273.403 44.7153C274.491 42.9647 278.073 42.4721 281.023 43.9412Z" fill="#3E3D43"/>
<path d="M283.191 47.6272L285.438 47.3896L287.01 48.6036C286.966 49.149 284.762 49.4569 284.034 49.1578L283.182 47.6272H283.191Z" fill="#48484D"/>
<path d="M254.669 243.37L249.305 244.162C248.7 244.725 248.621 248.147 247.295 249.924C246.716 250.698 245.574 250.795 245.188 251.463C243.213 254.841 243.81 252.924 242.906 254.111C241.747 255.624 241.589 258.474 239.122 258.932C236.041 259.504 234.864 254.771 233.969 255.088C232.459 256.231 231.52 257.718 230.335 259.064C230.168 259.249 229.474 258.985 229.281 259.337C228.807 260.207 228.886 261.914 228.333 263.19C227.376 265.38 224.567 263.973 223.856 264.184C223.031 264.43 222.32 266.779 220.713 266.761C218.615 266.726 217.799 264.245 215.666 264.8C214.314 259.829 213.98 253.073 214.805 247.038C215.086 244.98 216.078 237.661 217.693 236.755C218.238 236.658 218.685 237.23 219.116 237.274C221.082 237.458 223.637 238.136 225.155 238.197C228 238.32 230.106 234.555 231.915 233.262C232.977 232.506 234.338 232.717 235.338 231.679C235.935 231.063 236.339 229.629 236.629 229.453C236.98 229.242 242.897 230.544 243.661 230.834C244.977 231.327 245.987 232.893 247.778 233.324C248.217 233.429 250.236 232.198 251.202 232.514C254.959 235.233 255.468 237.775 254.66 243.37H254.669ZM246.268 237.098C241.756 237.027 248.226 245.508 250.657 241.918C252.536 239.147 248.032 237.124 246.268 237.098ZM240.527 241.822C241.159 238.118 235.453 234.511 233.407 237.071C232.398 238.338 235.927 241.188 236.576 241.479C237.919 242.077 239.219 241.206 240.527 241.83V241.822ZM224.005 249.194C225.41 250.698 228.693 251.736 229.738 248.622C229.834 246.379 224.795 244.478 223.882 245.121C221.846 246.563 223.68 247.689 223.988 248.252C224.119 248.499 223.926 249.088 224.014 249.185L224.005 249.194Z" fill="#6D6C71"/>
<path d="M254.669 243.37C253.87 248.912 252.15 256.064 249.042 260.797C245.75 265.811 244.126 265.908 240.5 268.573C239.069 269.629 236.848 272.259 235.295 272.954C234.039 273.517 231.072 272.462 229.202 272.691C227.956 272.84 227.341 273.702 226.858 273.746C222.978 274.08 217.342 269.744 215.49 266.19C215.218 265.679 215.692 264.896 215.665 264.808C217.79 264.263 218.606 266.744 220.713 266.77C222.32 266.797 223.031 264.448 223.856 264.193C224.567 263.981 227.376 265.389 228.333 263.199C228.886 261.932 228.807 260.225 229.281 259.345C229.474 258.985 230.177 259.257 230.335 259.073C231.52 257.727 232.459 256.24 233.969 255.096C234.864 254.78 236.041 259.513 239.122 258.941C241.589 258.483 241.756 255.642 242.906 254.12C243.819 252.924 243.213 254.841 245.188 251.472C245.583 250.803 246.724 250.707 247.295 249.933C248.621 248.156 248.7 244.725 249.305 244.171L254.669 243.379V243.37Z" fill="#48474C"/>
<path d="M251.201 232.514C250.236 232.198 248.208 233.429 247.778 233.324C245.996 232.893 244.977 231.327 243.661 230.834C242.906 230.553 236.98 229.242 236.629 229.453C236.339 229.629 235.935 231.054 235.338 231.679C234.338 232.726 232.977 232.506 231.915 233.262C230.106 234.555 227.991 238.32 225.155 238.197C223.636 238.136 221.073 237.458 219.115 237.274C220.59 234.476 227.376 227.632 229.913 227.694C231.3 227.72 232.345 228.573 233.565 228.441C234.548 228.327 236.445 226.515 238.077 226.198C240.07 225.82 241.808 226.286 243.511 227.122C245.574 228.134 249.086 231.001 251.201 232.523V232.514Z" fill="#929194"/>
<path d="M240.799 276.447C245.829 276.57 242.405 283.564 239.403 282.218C237.788 281.496 237.99 276.376 240.799 276.447Z" fill="#383838"/>
<path d="M240.526 241.822C239.227 241.206 237.919 242.068 236.576 241.47C235.926 241.18 232.389 238.338 233.407 237.063C235.452 234.503 241.159 238.109 240.526 241.813V241.822Z" fill="#3E3D43"/>
<path d="M224.005 249.194C223.917 249.097 224.111 248.507 223.979 248.261C223.672 247.698 221.846 246.572 223.874 245.129C224.787 244.478 229.825 246.387 229.729 248.631C228.684 251.736 225.401 250.707 223.996 249.202L224.005 249.194Z" fill="#414045"/>
<path d="M246.268 237.098C248.023 237.124 252.536 239.147 250.657 241.918C248.234 245.508 241.755 237.027 246.268 237.098Z" fill="#3C3B41"/>
<path d="M313.354 183.242C313.108 187.394 302.319 185.028 306.112 181.975C307.674 180.717 311.519 182.301 313.354 183.242Z" fill="#3E3D43"/>
<path d="M305.173 192.822C306.016 195.672 298.843 194.573 296.93 193.086C296.561 190.104 304.62 190.948 305.173 192.822Z" fill="#3C3B41"/>
<path d="M325.171 181.166C323.476 183.99 320.694 182.776 317.604 181.245C318.833 178.298 322.283 179.723 325.171 181.166Z" fill="#383838"/>
<path d="M95.0202 221.984C95.3362 219.398 106.836 221.949 110.348 224.078C110.278 224.808 109.04 225.345 107.74 225.591C107.661 225.609 106.064 225.776 105.967 225.758C105.37 225.67 104.317 225.055 102.491 224.923C98.8126 224.65 94.1599 226.999 99.0233 228.705C100.287 229.145 100.287 229.251 101.999 229.198C102.508 229.18 106.529 228.477 106.652 228.38C111.436 230.35 111.428 231.74 111.401 234.08L113.052 234.555C113.052 235.417 111.726 235.989 112.174 236.948C112.393 237.423 113.842 237.995 114.228 238.567C115.115 239.842 113.877 241.98 111.094 242.024C110.102 242.042 109.057 241.734 107.925 241.804C104.949 241.998 107.424 243.106 107.337 243.581C107.266 243.959 105.607 244.109 105.871 245.05C108.557 245.613 107.214 246.308 107.951 247.364C108.811 248.587 111.313 248.886 110.76 250.434C110.444 251.323 108.215 251.912 108.013 252.44C107.705 253.249 109.953 253.988 107.907 255.58C105.862 257.173 102.675 255.484 101.876 257.384C98.7072 256.548 88.8664 252.677 86.1625 251.34C83.8625 250.196 77.6911 246.563 76.1636 245.288C75.593 244.813 74.9258 243.748 75.8915 243.608C76.0319 243.59 76.6728 243.783 77.0152 243.81C76.5499 242.737 77.6736 241.259 78.7007 240.485C79.122 240.168 82.5369 238.848 82.6949 238.532C83.3972 237.098 81.94 234.687 81.9049 233.139C81.8785 232.022 82.853 231.221 82.9408 230.368C83.011 229.699 81.8083 228.626 82.3438 228.046C82.5457 227.834 85.0037 227.087 85.6709 226.717C86.1625 226.445 85.9343 225.961 86.3557 225.679C88.0763 224.536 94.2038 224.386 95.3889 222.609C95.7488 222.072 95.0114 222.011 95.0114 221.984H95.0202ZM89.1999 234.599C89.5511 234.758 89.3667 235.206 90.9557 235.391C93.5542 235.409 98.1805 234.459 97.645 233.086C97.5309 232.796 96.5652 232.743 96.5301 232.717C96.337 232.55 96.8198 231.714 95.266 231.292C91.4561 230.254 85.5305 232.303 87.5232 233.94C87.9709 234.309 88.7873 234.406 89.1999 234.599ZM106.792 233.878C104.721 232.787 100.84 235.03 103.263 235.717C104.58 236.086 108.399 234.731 106.792 233.878ZM97.7065 242.156C93.8087 240.15 86.3469 242.103 88.6469 244.426C90.0866 244.786 91.5965 244.997 93.0626 245.279C93.1152 245.288 93.3874 245.631 93.8 245.648C94.3706 245.103 96.021 245.393 96.3546 245.323C97.4607 245.094 97.3904 243.669 99.1549 243.775L99.234 243.326C98.2069 243.018 98.1454 242.376 97.7065 242.147V242.156Z" fill="#6D6C72"/>
<path d="M110.348 224.078C110.427 224.131 111.155 224.131 111.357 224.307C111.603 224.509 111.278 224.94 111.621 225.292C113.526 227.245 118.661 229.594 120.592 231.591C123.173 234.265 123.068 235.989 124.13 238.408C124.358 238.936 126.237 240.054 126.421 240.889C126.685 242.112 125.438 242.851 125.28 243.898C124.911 246.273 127.931 248.314 124.955 250.689C124.244 251.261 122.489 251.516 121.777 252.088C120.592 253.047 120.575 254.674 119.39 255.633C117.318 257.296 108.434 258.483 103.527 257.832C102.183 257.656 102.271 257.472 101.894 257.375C102.693 255.475 105.967 257.102 107.925 255.571C109.882 254.041 107.714 253.24 108.03 252.431C108.232 251.903 110.462 251.314 110.778 250.425C111.331 248.868 108.829 248.578 107.969 247.355C107.222 246.299 108.574 245.604 105.888 245.041C105.625 244.1 107.284 243.951 107.354 243.572C107.433 243.106 104.966 241.998 107.942 241.795C109.075 241.725 110.119 242.024 111.111 242.015C113.894 241.971 115.132 239.842 114.245 238.558C113.85 237.995 112.411 237.423 112.191 236.939C111.743 235.98 113.06 235.409 113.069 234.547L111.419 234.072C111.445 231.732 111.454 230.35 106.669 228.371C107.179 227.958 107.389 226.198 107.767 225.582C109.066 225.336 110.304 224.799 110.374 224.069L110.348 224.078Z" fill="#48474D"/>
<path d="M95.0202 221.984C95.0202 221.984 95.7488 222.072 95.3977 222.609C94.2126 224.386 88.0851 224.527 86.3644 225.679C85.9431 225.961 86.1713 226.445 85.6797 226.717C85.0125 227.087 82.5545 227.826 82.3526 228.046C81.8171 228.626 83.0198 229.691 82.9495 230.368C82.8618 231.221 81.8873 232.022 81.9137 233.139C81.9575 234.687 83.406 237.098 82.7037 238.532C82.5457 238.857 79.1308 240.168 78.7094 240.485C77.6823 241.268 76.5587 242.737 77.0239 243.81C76.6903 243.775 76.0495 243.581 75.9003 243.608C75.2945 242.385 74.4957 241.083 74.3991 239.904C74.3552 239.411 75.0312 239.059 74.9961 238.408C74.8907 236.315 72.459 234.837 74.1182 232.558C74.9785 231.38 78.1125 230.984 78.6919 230.192C79.043 229.717 78.4198 228.925 78.6743 228.309C79.4381 226.436 81.3255 224.333 84.8633 223.541L95.0114 222.002L95.0202 221.984Z" fill="#939395"/>
<path d="M97.7064 242.156C98.1629 243.977 94.8182 244.223 93.0537 245.279C91.5877 244.997 90.0865 244.786 88.638 244.426C86.3468 242.103 93.7999 240.15 97.6976 242.156H97.7064Z" fill="#3E3D43"/>
<path d="M96.5302 232.726C95.8893 234.142 92.7378 234.986 89.2 234.608C88.7962 234.423 87.971 234.318 87.5232 233.948C85.5305 232.312 91.4561 230.262 95.266 231.3C96.8111 231.723 96.3283 232.558 96.5302 232.726Z" fill="#3E3D43"/>
<path d="M105.967 225.75C106.072 226.902 104.615 228.248 102.359 228.477C101.341 228.582 99.7782 228.134 99.0144 228.697C94.1511 226.99 98.8038 224.641 102.482 224.914C104.308 225.046 105.361 225.662 105.958 225.75H105.967Z" fill="#3C3B41"/>
<path d="M107.74 225.582C107.363 226.189 107.152 227.949 106.643 228.371C106.52 228.468 102.508 229.18 101.99 229.189C100.279 229.242 100.279 229.136 99.0144 228.697C99.7781 228.142 101.341 228.582 102.359 228.477C104.606 228.239 106.064 226.902 105.967 225.75C106.072 225.767 107.661 225.6 107.74 225.582Z" fill="#807F85"/>
<path d="M106.792 233.878C108.408 234.731 104.58 236.086 103.263 235.717C100.832 235.03 104.721 232.787 106.792 233.878Z" fill="#414045"/>
<path d="M96.5301 232.726C96.5301 232.726 97.5309 232.814 97.645 233.095C98.1805 234.459 93.5542 235.417 90.9557 235.4C89.3667 235.215 89.5511 234.766 89.2 234.608C92.7378 234.986 95.8893 234.151 96.5301 232.726Z" fill="#807F85"/>
<path d="M97.7064 242.156C98.1453 242.385 98.2068 243.018 99.2339 243.335L99.1549 243.783C97.3904 243.669 97.4606 245.094 96.3545 245.332C96.0209 245.402 94.3705 245.103 93.7999 245.657C93.3873 245.64 93.1064 245.297 93.0625 245.288C94.8182 244.232 98.1717 243.986 97.7152 242.165L97.7064 242.156Z" fill="#807F85"/>
</g>
<defs>
<clipPath id="clip0_7_1786">
<rect width="343" height="292" fill="white"/>
</clipPath>
</defs>
</svg>
