<svg width="134" height="124" viewBox="0 0 134 124" fill="none" xmlns="http://www.w3.org/2000/svg">
<g clip-path="url(#clip0_11_2863)">
<path d="M122.856 22.177C115.74 20.071 109.168 24.9851 107.745 29.229C106.412 33.2177 113.741 40.2697 110.652 46.492C108.532 50.7679 105.231 54.8523 103.475 60.2131C101.719 65.5738 104.565 70.2007 97.1158 73.7746C91.0896 76.6464 85.9718 73.4874 78.7646 70.1688C80.309 75.8806 74.6159 75.3381 72.7081 79.6459C69.7707 86.2831 76.4328 96.0792 70.3158 101.376C69.9827 101.663 60.1408 103.387 59.8077 103.674C58.9901 104.376 59.5655 112.64 52.5097 114.108C48.3004 114.97 38.7008 108.013 37.8832 115.257C31.6147 111.683 27.1935 100.164 19.3201 95.6963C10.5079 83.5708 4.48164 71.1899 -0.000172004 58.5857C-0.302997 55.4266 2.51327 55.65 2.54356 55.4586L11.7494 48.9809L29.8886 43.4606L48.9363 12.3489C55.1745 13.1148 56.8401 9.57281 60.8676 8.64744C67.984 7.02006 79.2491 7.4987 87.2437 5.93514C89.0303 5.58413 94.4812 5.23313 90.6959 2.39319C90.8776 2.39319 90.9381 0.446716 92.9065 0.446716C103.051 0.542445 117.314 8.00925 122.159 16.1142C124.4 19.8476 122.462 21.0602 122.826 22.177H122.856ZM98.9024 26.7082C105.05 26.1019 111.5 24.4107 106.443 17.9331C95.3594 14.2954 86.5472 13.8806 84.7908 22.7195C91.9375 26.0381 92.8459 27.3144 98.9024 26.7082ZM75.1004 31.3669C64.9255 26.0381 52.5702 27.7931 48.8152 34.175C59.5958 40.3335 73.6771 40.5569 75.1004 31.3669ZM82.5802 44.737L85.5176 50.2892C88.031 51.3741 95.6319 50.2573 95.7833 48.2789L90.3628 43.8754L82.6105 44.737H82.5802ZM58.0514 63.9784C49.9659 55.5224 21.1673 60.1811 34.4613 67.999C43.6066 73.3916 54.7808 69.5944 58.0514 63.9784Z" fill="#6D6C71"/>
<path d="M122.856 22.1771C125.309 29.229 134.272 46.9388 133.97 52.2038C133.606 58.5538 129.276 76.2635 126.823 81.8796C125.127 85.7725 121.19 87.1127 119.343 90.176C114.74 97.8024 114.71 105.365 104.717 110.407C102.536 111.492 96.1468 111.077 94.5418 111.874C89.3635 114.395 86.0627 120.586 78.371 122.532C77.5534 122.724 74.9188 121.096 73.8286 121.352C72.7384 121.607 72.7687 123.713 71.7997 123.968C71.0426 124.16 55.4472 122.756 54.5387 122.5C51.4196 121.671 40.9418 117.012 37.853 115.257C38.6707 107.981 48.2702 114.97 52.4795 114.108C59.5353 112.64 58.9599 104.376 59.7775 103.674C60.1409 103.387 69.9525 101.663 70.2856 101.376C76.3723 96.1112 69.7405 86.2831 72.6779 79.6459C74.5857 75.3382 80.2788 75.8806 78.7344 70.1688C85.9416 73.4874 91.0594 76.6464 97.0856 73.7746C104.565 70.2007 101.628 65.7653 103.445 60.2131C105.262 54.6609 108.502 50.7679 110.622 46.492C113.711 40.2697 106.382 33.2177 107.715 29.229C109.138 24.9851 115.709 20.071 122.826 22.1771H122.856Z" fill="#48474B"/>
<path d="M90.7265 2.39326C94.5118 5.2332 89.0307 5.5842 87.2743 5.93521C79.2798 7.49877 68.0147 7.02013 60.8983 8.64751C56.8404 9.57288 55.1749 13.1148 48.967 12.349L29.9193 43.4607L11.7801 48.981L2.57422 55.4586C4.81512 44.2584 7.57083 43.5245 12.6583 34.6537C15.7774 29.1972 14.7175 21.9537 23.2874 17.6779C26.9213 15.859 31.4334 17.3269 34.7948 15.7314C38.6407 13.8807 40.0337 9.50906 43.2739 7.17967C60.2926 -4.9459 68.1661 1.8508 90.6963 2.42517L90.7265 2.39326Z" fill="#929194"/>
<path d="M58.0513 63.9784C54.7808 69.5944 43.6065 73.3916 34.4612 67.999C21.1672 60.1811 49.9659 55.4905 58.0513 63.9784Z" fill="#3E3D43"/>
<path d="M98.9027 26.7082C92.8764 27.3144 91.9377 26.0381 84.791 22.7195C86.5171 13.8806 95.3293 14.2954 106.443 17.9331C111.53 24.4107 105.05 26.07 98.9027 26.7082Z" fill="#3E3D43"/>
<path d="M75.1006 31.3669C73.6471 40.5249 59.5657 40.3016 48.8154 34.175C52.5705 27.825 64.9257 26.0381 75.1006 31.3669Z" fill="#3E3D43"/>
<path d="M82.5806 44.737L90.3329 43.8754L95.7535 48.2789C95.602 50.2573 88.0011 51.3741 85.4877 50.2892L82.5503 44.737H82.5806Z" fill="#48484D"/>
</g>
<defs>
<clipPath id="clip0_11_2863">
<rect width="134" height="124" fill="white"/>
</clipPath>
</defs>
</svg>
