<svg width="339" height="316" viewBox="0 0 339 316" fill="none" xmlns="http://www.w3.org/2000/svg">
<g clip-path="url(#clip0_46_5)">
<path d="M270.11 17.5H18.5V297.39H270.11V17.5Z" stroke="white" stroke-width="3" stroke-miterlimit="10"/>
<path d="M18.5 250.74H270.11" stroke="white" stroke-width="3" stroke-miterlimit="10"/>
<path d="M18.5 204.09H270.11" stroke="white" stroke-width="3" stroke-miterlimit="10"/>
<path d="M18.5 157.45H270.11" stroke="white" stroke-width="3" stroke-miterlimit="10"/>
<path d="M18.5 110.8H270.11" stroke="white" stroke-width="3" stroke-miterlimit="10"/>
<path d="M18.5 64.15H270.11" stroke="white" stroke-width="3" stroke-miterlimit="10"/>
<path d="M228.17 17.5V297.39" stroke="white" stroke-width="3" stroke-miterlimit="10"/>
<path d="M186.24 17.5V297.39" stroke="white" stroke-width="3" stroke-miterlimit="10"/>
<path d="M144.3 17.5V297.39" stroke="white" stroke-width="3" stroke-miterlimit="10"/>
<path d="M102.37 17.5V297.39" stroke="white" stroke-width="3" stroke-miterlimit="10"/>
<path d="M60.4302 17.5V297.39" stroke="white" stroke-width="3" stroke-miterlimit="10"/>
</g>
<g clip-path="url(#clip1_46_5)" filter="url(#filter0_f_46_5)">
<path d="M270.11 17.5H18.5V297.39H270.11V17.5Z" stroke="white" stroke-width="3" stroke-miterlimit="10"/>
<path d="M18.5 250.74H270.11" stroke="white" stroke-width="3" stroke-miterlimit="10"/>
<path d="M18.5 204.09H270.11" stroke="white" stroke-width="3" stroke-miterlimit="10"/>
<path d="M18.5 157.45H270.11" stroke="white" stroke-width="3" stroke-miterlimit="10"/>
<path d="M18.5 110.8H270.11" stroke="white" stroke-width="3" stroke-miterlimit="10"/>
<path d="M18.5 64.15H270.11" stroke="white" stroke-width="3" stroke-miterlimit="10"/>
<path d="M228.17 17.5V297.39" stroke="white" stroke-width="3" stroke-miterlimit="10"/>
<path d="M186.24 17.5V297.39" stroke="white" stroke-width="3" stroke-miterlimit="10"/>
<path d="M144.3 17.5V297.39" stroke="white" stroke-width="3" stroke-miterlimit="10"/>
<path d="M102.37 17.5V297.39" stroke="white" stroke-width="3" stroke-miterlimit="10"/>
<path d="M60.4302 17.5V297.39" stroke="white" stroke-width="3" stroke-miterlimit="10"/>
<rect x="229" y="204" width="41" height="45" fill="#FFB2B2"/>
</g>
<g clip-path="url(#clip2_46_5)">
<path d="M304.769 315.251C312.445 305.249 319.337 293.257 317.676 277.515C316.015 261.773 303.88 243.013 287.704 232.73C278.908 227.139 269.475 224.015 260.971 223.927C259.281 223.911 260.48 226.745 262.157 226.758C276.675 226.898 293.772 236.823 304.449 251.523C309.851 258.959 313.44 267.098 314.649 274.877C315.774 282.185 314.822 288.867 312.767 294.748C310.386 301.576 306.63 307.451 302.461 312.882C301.593 314.02 303.89 316.4 304.769 315.251Z" fill="#FF4545"/>
<path d="M265.809 233.989L257.856 229.115L253.88 226.679C253.19 226.258 252.013 225.681 251.518 224.948C251.022 224.214 252.337 224.026 252.717 223.872C253.765 223.451 254.812 223.031 255.86 222.611C257.955 221.771 260.044 220.936 262.132 220.087C263.525 219.531 261.721 216.824 260.336 217.389C257.919 218.358 255.502 219.328 253.098 220.299C251.963 220.758 250.697 221.114 249.688 221.744C248.726 222.327 248.222 223.433 248.859 224.921C249.369 226.117 250.489 227.15 251.555 227.913C252.894 228.871 254.333 229.654 255.714 230.494L264.892 236.114C265.631 236.563 266.416 236.599 266.687 235.981C266.923 235.443 266.567 234.436 265.825 233.973L265.809 233.989Z" fill="#FF4545"/>
</g>
<path d="M36.9984 13.1918C36.2654 13.1889 35.6348 13.0085 35.1064 12.6506C34.5808 12.2926 34.176 11.7741 33.8919 11.0952C33.6106 10.4162 33.4714 9.59943 33.4743 8.64489C33.4743 7.69318 33.6149 6.8821 33.8961 6.21165C34.1802 5.54119 34.585 5.03125 35.1106 4.68182C35.639 4.32955 36.2683 4.15341 36.9984 4.15341C37.7285 4.15341 38.3564 4.32955 38.8819 4.68182C39.4103 5.03409 39.8166 5.54545 40.1007 6.21591C40.3848 6.88352 40.5254 7.69318 40.5226 8.64489C40.5226 9.60227 40.3805 10.4205 40.0964 11.0994C39.8152 11.7784 39.4118 12.2969 38.8862 12.6548C38.3606 13.0128 37.7314 13.1918 36.9984 13.1918ZM36.9984 11.6619C37.4984 11.6619 37.8975 11.4105 38.1958 10.9077C38.4941 10.4048 38.6419 9.65057 38.639 8.64489C38.639 7.98295 38.5708 7.43182 38.4345 6.99148C38.301 6.55114 38.1106 6.22017 37.8635 5.99858C37.6191 5.77699 37.3308 5.66619 36.9984 5.66619C36.5012 5.66619 36.1035 5.91477 35.8052 6.41193C35.5069 6.90909 35.3564 7.65341 35.3535 8.64489C35.3535 9.31534 35.4203 9.875 35.5538 10.3239C35.6902 10.7699 35.8819 11.1051 36.1291 11.3295C36.3762 11.5511 36.666 11.6619 36.9984 11.6619Z" fill="white"/>
<path d="M10.9984 46.1918C10.2654 46.1889 9.63477 46.0085 9.10636 45.6506C8.58079 45.2926 8.17596 44.7741 7.89187 44.0952C7.61062 43.4162 7.47141 42.5994 7.47425 41.6449C7.47425 40.6932 7.61488 39.8821 7.89613 39.2116C8.18022 38.5412 8.58505 38.0312 9.11062 37.6818C9.63903 37.3295 10.2683 37.1534 10.9984 37.1534C11.7285 37.1534 12.3564 37.3295 12.8819 37.6818C13.4103 38.0341 13.8166 38.5455 14.1007 39.2159C14.3848 39.8835 14.5254 40.6932 14.5226 41.6449C14.5226 42.6023 14.3805 43.4205 14.0964 44.0994C13.8152 44.7784 13.4118 45.2969 12.8862 45.6548C12.3606 46.0128 11.7314 46.1918 10.9984 46.1918ZM10.9984 44.6619C11.4984 44.6619 11.8975 44.4105 12.1958 43.9077C12.4941 43.4048 12.6419 42.6506 12.639 41.6449C12.639 40.983 12.5708 40.4318 12.4345 39.9915C12.301 39.5511 12.1106 39.2202 11.8635 38.9986C11.6191 38.777 11.3308 38.6662 10.9984 38.6662C10.5012 38.6662 10.1035 38.9148 9.80522 39.4119C9.50692 39.9091 9.35636 40.6534 9.35352 41.6449C9.35352 42.3153 9.42028 42.875 9.5538 43.3239C9.69016 43.7699 9.88192 44.1051 10.1291 44.3295C10.3762 44.5511 10.666 44.6619 10.9984 44.6619Z" fill="white"/>
<path d="M12.5687 80.2727V89H10.7235V82.0241H10.6724L8.67383 83.277V81.6406L10.8343 80.2727H12.5687Z" fill="white"/>
<path d="M7.92809 137V135.67L11.0346 132.794C11.2988 132.538 11.5204 132.308 11.6994 132.104C11.8812 131.899 12.019 131.699 12.1127 131.503C12.2065 131.304 12.2534 131.089 12.2534 130.859C12.2534 130.604 12.1951 130.384 12.0787 130.199C11.9622 130.011 11.8031 129.868 11.6014 129.768C11.3997 129.666 11.171 129.615 10.9153 129.615C10.6483 129.615 10.4153 129.669 10.2164 129.777C10.0176 129.885 9.86417 130.04 9.75621 130.241C9.64826 130.443 9.59428 130.683 9.59428 130.962H7.84286C7.84286 130.391 7.97212 129.895 8.23065 129.474C8.48917 129.054 8.85138 128.729 9.31729 128.499C9.7832 128.268 10.3201 128.153 10.9281 128.153C11.5531 128.153 12.0971 128.264 12.5602 128.486C13.0261 128.705 13.3883 129.009 13.6468 129.398C13.9054 129.787 14.0346 130.233 14.0346 130.736C14.0346 131.065 13.9693 131.391 13.8386 131.712C13.7108 132.033 13.4821 132.389 13.1525 132.781C12.823 133.17 12.3585 133.638 11.7591 134.183L10.4849 135.432V135.491H14.1497V137H7.92809Z" fill="white"/>
<path d="M10.9782 184.119C10.3418 184.119 9.77504 184.01 9.27788 183.791C8.78356 183.57 8.39293 183.266 8.106 182.879C7.82191 182.49 7.6756 182.041 7.66708 181.533H9.52504C9.5364 181.746 9.606 181.933 9.73384 182.095C9.86452 182.254 10.0378 182.378 10.2537 182.466C10.4696 182.554 10.7125 182.598 10.9824 182.598C11.2637 182.598 11.5123 182.548 11.7282 182.449C11.9441 182.349 12.1131 182.212 12.2353 182.036C12.3574 181.859 12.4185 181.656 12.4185 181.426C12.4185 181.193 12.3532 180.987 12.2225 180.808C12.0946 180.626 11.91 180.484 11.6685 180.382C11.4299 180.28 11.1458 180.229 10.8162 180.229H10.0023V178.874H10.8162C11.0946 178.874 11.3404 178.825 11.5534 178.729C11.7694 178.632 11.937 178.499 12.0563 178.328C12.1756 178.155 12.2353 177.953 12.2353 177.723C12.2353 177.504 12.1827 177.312 12.0776 177.148C11.9753 176.98 11.8304 176.849 11.6429 176.756C11.4583 176.662 11.2424 176.615 10.9952 176.615C10.7452 176.615 10.5165 176.661 10.3091 176.751C10.1017 176.839 9.93555 176.966 9.81055 177.131C9.68555 177.295 9.61879 177.489 9.61026 177.71H7.8418C7.85032 177.207 7.99379 176.764 8.27219 176.381C8.5506 175.997 8.9256 175.697 9.39719 175.482C9.87163 175.263 10.4071 175.153 11.0037 175.153C11.606 175.153 12.133 175.263 12.5847 175.482C13.0364 175.7 13.3873 175.996 13.6373 176.368C13.8901 176.737 14.0151 177.152 14.0123 177.612C14.0151 178.101 13.8631 178.509 13.5563 178.835C13.2523 179.162 12.856 179.369 12.3674 179.457V179.526C13.0094 179.608 13.498 179.831 13.8333 180.195C14.1713 180.555 14.339 181.007 14.3361 181.55C14.339 182.047 14.1955 182.489 13.9057 182.875C13.6188 183.261 13.2225 183.565 12.7168 183.787C12.2111 184.009 11.6316 184.119 10.9782 184.119Z" fill="white"/>
<path d="M7.50888 227.466V226.013L11.1523 220.273H12.4052V222.284H11.6637L9.36683 225.919V225.987H14.5444V227.466H7.50888ZM11.6978 229V227.023L11.7319 226.379V220.273H13.462V229H11.6978Z" fill="white"/>
<path d="M82.5687 4.27273V13H80.7235V6.02415H80.6724L78.6738 7.27699V5.64062L80.8343 4.27273H82.5687Z" fill="white"/>
<path d="M120.928 13V11.6705L124.035 8.79403C124.299 8.53835 124.52 8.30824 124.699 8.10369C124.881 7.89915 125.019 7.69886 125.113 7.50284C125.206 7.30398 125.253 7.08949 125.253 6.85938C125.253 6.60369 125.195 6.38352 125.079 6.19886C124.962 6.01136 124.803 5.8679 124.601 5.76847C124.4 5.66619 124.171 5.61506 123.915 5.61506C123.648 5.61506 123.415 5.66903 123.216 5.77699C123.018 5.88494 122.864 6.03977 122.756 6.24148C122.648 6.44318 122.594 6.68324 122.594 6.96165H120.843C120.843 6.39062 120.972 5.89489 121.231 5.47443C121.489 5.05398 121.851 4.72869 122.317 4.49858C122.783 4.26847 123.32 4.15341 123.928 4.15341C124.553 4.15341 125.097 4.2642 125.56 4.4858C126.026 4.70455 126.388 5.00852 126.647 5.39773C126.905 5.78693 127.035 6.23295 127.035 6.7358C127.035 7.06534 126.969 7.39062 126.839 7.71165C126.711 8.03267 126.482 8.3892 126.153 8.78125C125.823 9.17045 125.358 9.63778 124.759 10.1832L123.485 11.4318V11.4915H127.15V13H120.928Z" fill="white"/>
<path d="M164.978 13.1193C164.342 13.1193 163.775 13.0099 163.278 12.7912C162.784 12.5696 162.393 12.2656 162.106 11.8793C161.822 11.4901 161.676 11.0412 161.667 10.5327H163.525C163.536 10.7457 163.606 10.9332 163.734 11.0952C163.865 11.2543 164.038 11.3778 164.254 11.4659C164.47 11.554 164.713 11.598 164.982 11.598C165.264 11.598 165.512 11.5483 165.728 11.4489C165.944 11.3494 166.113 11.2116 166.235 11.0355C166.357 10.8594 166.419 10.6562 166.419 10.4261C166.419 10.1932 166.353 9.98722 166.222 9.80824C166.095 9.62642 165.91 9.48437 165.669 9.3821C165.43 9.27983 165.146 9.22869 164.816 9.22869H164.002V7.87358H164.816C165.095 7.87358 165.34 7.82528 165.553 7.72869C165.769 7.6321 165.937 7.49858 166.056 7.32812C166.176 7.15483 166.235 6.95312 166.235 6.72301C166.235 6.50426 166.183 6.3125 166.078 6.14773C165.975 5.98011 165.83 5.84943 165.643 5.75568C165.458 5.66193 165.242 5.61506 164.995 5.61506C164.745 5.61506 164.517 5.66051 164.309 5.75142C164.102 5.83949 163.936 5.96591 163.811 6.13068C163.686 6.29545 163.619 6.48864 163.61 6.71023H161.842C161.85 6.20739 161.994 5.7642 162.272 5.38068C162.551 4.99716 162.926 4.69744 163.397 4.48153C163.872 4.26278 164.407 4.15341 165.004 4.15341C165.606 4.15341 166.133 4.26278 166.585 4.48153C167.036 4.70028 167.387 4.99574 167.637 5.3679C167.89 5.73722 168.015 6.15199 168.012 6.61222C168.015 7.10085 167.863 7.50852 167.556 7.83523C167.252 8.16193 166.856 8.36932 166.367 8.45739V8.52557C167.009 8.60795 167.498 8.83097 167.833 9.1946C168.171 9.5554 168.339 10.0071 168.336 10.5497C168.339 11.0469 168.195 11.4886 167.906 11.875C167.619 12.2614 167.222 12.5653 166.717 12.7869C166.211 13.0085 165.632 13.1193 164.978 13.1193Z" fill="white"/>
<path d="M203.509 11.4659V10.0128L207.152 4.27273H208.405V6.28409H207.664L205.367 9.91903V9.98722H210.544V11.4659H203.509ZM207.698 13V11.0227L207.732 10.3793V4.27273H209.462V13H207.698Z" fill="white"/>
<path d="M250.028 13.1193C249.425 13.1193 248.888 13.0085 248.417 12.7869C247.948 12.5653 247.576 12.2599 247.3 11.8707C247.025 11.4815 246.881 11.0355 246.87 10.5327H248.66C248.68 10.8707 248.822 11.1449 249.086 11.3551C249.35 11.5653 249.664 11.6705 250.028 11.6705C250.317 11.6705 250.573 11.6065 250.795 11.4787C251.019 11.348 251.194 11.1676 251.319 10.9375C251.447 10.7045 251.511 10.4375 251.511 10.1364C251.511 9.82955 251.445 9.55966 251.315 9.3267C251.187 9.09375 251.009 8.91193 250.782 8.78125C250.555 8.65057 250.295 8.58381 250.002 8.58097C249.746 8.58097 249.498 8.63352 249.256 8.73864C249.018 8.84375 248.832 8.98722 248.698 9.16903L247.058 8.875L247.471 4.27273H252.806V5.78125H248.992L248.766 7.96733H248.817C248.971 7.75142 249.202 7.57244 249.512 7.4304C249.822 7.28835 250.168 7.21733 250.552 7.21733C251.077 7.21733 251.546 7.34091 251.958 7.58807C252.37 7.83523 252.695 8.17472 252.934 8.60653C253.173 9.03551 253.29 9.52983 253.288 10.0895C253.29 10.6776 253.154 11.2003 252.879 11.6577C252.606 12.1122 252.224 12.4702 251.732 12.7315C251.244 12.9901 250.675 13.1193 250.028 13.1193Z" fill="white"/>
<path d="M11.0277 279.119C10.4254 279.119 9.88849 279.009 9.4169 278.787C8.94815 278.565 8.57599 278.26 8.30043 277.871C8.02486 277.482 7.88139 277.036 7.87003 276.533H9.6598C9.67969 276.871 9.82173 277.145 10.0859 277.355C10.3501 277.565 10.6641 277.67 11.0277 277.67C11.3175 277.67 11.5732 277.607 11.7947 277.479C12.0192 277.348 12.1939 277.168 12.3189 276.938C12.4467 276.705 12.5107 276.437 12.5107 276.136C12.5107 275.83 12.4453 275.56 12.3146 275.327C12.1868 275.094 12.0092 274.912 11.782 274.781C11.5547 274.651 11.2947 274.584 11.0021 274.581C10.7464 274.581 10.4979 274.634 10.2564 274.739C10.0178 274.844 9.83168 274.987 9.69815 275.169L8.05753 274.875L8.47088 270.273H13.8061V271.781H9.99219L9.76634 273.967H9.81747C9.97088 273.751 10.2024 273.572 10.5121 273.43C10.8217 273.288 11.1683 273.217 11.5518 273.217C12.0774 273.217 12.5462 273.341 12.9581 273.588C13.37 273.835 13.6953 274.175 13.9339 274.607C14.1726 275.036 14.2905 275.53 14.2876 276.089C14.2905 276.678 14.1541 277.2 13.8786 277.658C13.6058 278.112 13.2237 278.47 12.7322 278.732C12.2436 278.99 11.6754 279.119 11.0277 279.119Z" fill="white"/>
<defs>
<filter id="filter0_f_46_5" x="11" y="10" width="266.61" height="294.89" filterUnits="userSpaceOnUse" color-interpolation-filters="sRGB">
<feFlood flood-opacity="0" result="BackgroundImageFix"/>
<feBlend mode="normal" in="SourceGraphic" in2="BackgroundImageFix" result="shape"/>
<feGaussianBlur stdDeviation="3" result="effect1_foregroundBlur_46_5"/>
</filter>
<clipPath id="clip0_46_5">
<rect width="254.61" height="282.89" fill="white" transform="translate(17 16)"/>
</clipPath>
<clipPath id="clip1_46_5">
<rect width="254.61" height="282.89" fill="white" transform="translate(17 16)"/>
</clipPath>
<clipPath id="clip2_46_5">
<rect width="48.1887" height="105.481" fill="white" transform="translate(230.398 240.441) rotate(-44.2481)"/>
</clipPath>
</defs>
</svg>
