<svg width="346" height="316" viewBox="0 0 346 316" fill="none" xmlns="http://www.w3.org/2000/svg">
<g clip-path="url(#clip0_46_5)">
<path d="M270.11 17.5H18.5V297.39H270.11V17.5Z" stroke="white" stroke-width="3" stroke-miterlimit="10"/>
<path d="M18.5 250.74H270.11" stroke="white" stroke-width="3" stroke-miterlimit="10"/>
<path d="M18.5 204.09H270.11" stroke="white" stroke-width="3" stroke-miterlimit="10"/>
<path d="M18.5 157.45H270.11" stroke="white" stroke-width="3" stroke-miterlimit="10"/>
<path d="M18.5 110.8H270.11" stroke="white" stroke-width="3" stroke-miterlimit="10"/>
<path d="M18.5 64.15H270.11" stroke="white" stroke-width="3" stroke-miterlimit="10"/>
<path d="M228.17 17.5V297.39" stroke="white" stroke-width="3" stroke-miterlimit="10"/>
<path d="M186.24 17.5V297.39" stroke="white" stroke-width="3" stroke-miterlimit="10"/>
<path d="M144.3 17.5V297.39" stroke="white" stroke-width="3" stroke-miterlimit="10"/>
<path d="M102.37 17.5V297.39" stroke="white" stroke-width="3" stroke-miterlimit="10"/>
<path d="M60.4302 17.5V297.39" stroke="white" stroke-width="3" stroke-miterlimit="10"/>
</g>
<g clip-path="url(#clip1_46_5)" filter="url(#filter0_f_46_5)">
<path d="M270.11 17.5H18.5V297.39H270.11V17.5Z" stroke="white" stroke-width="3" stroke-miterlimit="10"/>
<path d="M18.5 250.74H270.11" stroke="white" stroke-width="3" stroke-miterlimit="10"/>
<path d="M18.5 204.09H270.11" stroke="white" stroke-width="3" stroke-miterlimit="10"/>
<path d="M18.5 157.45H270.11" stroke="white" stroke-width="3" stroke-miterlimit="10"/>
<path d="M18.5 110.8H270.11" stroke="white" stroke-width="3" stroke-miterlimit="10"/>
<path d="M18.5 64.15H270.11" stroke="white" stroke-width="3" stroke-miterlimit="10"/>
<path d="M228.17 17.5V297.39" stroke="white" stroke-width="3" stroke-miterlimit="10"/>
<path d="M186.24 17.5V297.39" stroke="white" stroke-width="3" stroke-miterlimit="10"/>
<path d="M144.3 17.5V297.39" stroke="white" stroke-width="3" stroke-miterlimit="10"/>
<path d="M102.37 17.5V297.39" stroke="white" stroke-width="3" stroke-miterlimit="10"/>
<path d="M60.4302 17.5V297.39" stroke="white" stroke-width="3" stroke-miterlimit="10"/>
</g>
<g clip-path="url(#clip2_46_5)">
<path d="M315.199 314.662C325.077 302.052 334.078 287.035 332.732 267.794C331.385 248.554 317.297 226.074 297.867 214.172C287.301 207.701 275.845 204.285 265.396 204.552C263.319 204.608 264.667 208.031 266.729 207.973C284.567 207.504 305.145 218.926 317.621 236.49C323.932 245.374 327.984 255.201 329.127 264.692C330.187 273.608 328.722 281.848 325.936 289.154C322.708 297.636 317.831 305.011 312.467 311.857C311.35 313.292 314.068 316.11 315.199 314.662Z" fill="#FF4545"/>
<path d="M270.898 216.683L261.338 211.055L256.559 208.241C255.729 207.756 254.308 207.099 253.731 206.222C253.154 205.344 254.779 205.055 255.253 204.848C256.559 204.287 257.865 203.725 259.171 203.163C261.784 202.04 264.389 200.923 266.992 199.79C268.729 199.045 266.632 195.805 264.904 196.559C261.89 197.855 258.877 199.15 255.879 200.449C254.464 201.062 252.892 201.555 251.623 202.372C250.415 203.13 249.747 204.509 250.464 206.306C251.038 207.751 252.37 208.969 253.646 209.858C255.249 210.974 256.984 211.871 258.644 212.842L269.677 219.33C270.566 219.849 271.529 219.859 271.89 219.088C272.204 218.418 271.81 217.198 270.919 216.663L270.898 216.683Z" fill="#FF4545"/>
</g>
<path d="M240 204.5C240 210.851 234.851 216 228.5 216C222.149 216 217 210.851 217 204.5C217 198.149 222.149 193 228.5 193C234.851 193 240 198.149 240 204.5ZM219.047 204.5C219.047 209.721 223.279 213.953 228.5 213.953C233.721 213.953 237.953 209.721 237.953 204.5C237.953 199.279 233.721 195.047 228.5 195.047C223.279 195.047 219.047 199.279 219.047 204.5Z" fill="#FF4545"/>
<path d="M19.9984 13.1918C19.2654 13.1889 18.6348 13.0085 18.1064 12.6506C17.5808 12.2926 17.176 11.7741 16.8919 11.0952C16.6106 10.4162 16.4714 9.59943 16.4743 8.64489C16.4743 7.69318 16.6149 6.8821 16.8961 6.21165C17.1802 5.54119 17.585 5.03125 18.1106 4.68182C18.639 4.32955 19.2683 4.15341 19.9984 4.15341C20.7285 4.15341 21.3564 4.32955 21.8819 4.68182C22.4103 5.03409 22.8166 5.54545 23.1007 6.21591C23.3848 6.88352 23.5254 7.69318 23.5226 8.64489C23.5226 9.60227 23.3805 10.4205 23.0964 11.0994C22.8152 11.7784 22.4118 12.2969 21.8862 12.6548C21.3606 13.0128 20.7314 13.1918 19.9984 13.1918ZM19.9984 11.6619C20.4984 11.6619 20.8975 11.4105 21.1958 10.9077C21.4941 10.4048 21.6419 9.65057 21.639 8.64489C21.639 7.98295 21.5708 7.43182 21.4345 6.99148C21.301 6.55114 21.1106 6.22017 20.8635 5.99858C20.6191 5.77699 20.3308 5.66619 19.9984 5.66619C19.5012 5.66619 19.1035 5.91477 18.8052 6.41193C18.5069 6.90909 18.3564 7.65341 18.3535 8.64489C18.3535 9.31534 18.4203 9.875 18.5538 10.3239C18.6902 10.7699 18.8819 11.1051 19.1291 11.3295C19.3762 11.5511 19.666 11.6619 19.9984 11.6619Z" fill="white"/>
<path d="M10.9984 24.1918C10.2654 24.1889 9.63477 24.0085 9.10636 23.6506C8.58079 23.2926 8.17596 22.7741 7.89187 22.0952C7.61062 21.4162 7.47141 20.5994 7.47425 19.6449C7.47425 18.6932 7.61488 17.8821 7.89613 17.2116C8.18022 16.5412 8.58505 16.0312 9.11062 15.6818C9.63903 15.3295 10.2683 15.1534 10.9984 15.1534C11.7285 15.1534 12.3564 15.3295 12.8819 15.6818C13.4103 16.0341 13.8166 16.5455 14.1007 17.2159C14.3848 17.8835 14.5254 18.6932 14.5226 19.6449C14.5226 20.6023 14.3805 21.4205 14.0964 22.0994C13.8152 22.7784 13.4118 23.2969 12.8862 23.6548C12.3606 24.0128 11.7314 24.1918 10.9984 24.1918ZM10.9984 22.6619C11.4984 22.6619 11.8975 22.4105 12.1958 21.9077C12.4941 21.4048 12.6419 20.6506 12.639 19.6449C12.639 18.983 12.5708 18.4318 12.4345 17.9915C12.301 17.5511 12.1106 17.2202 11.8635 16.9986C11.6191 16.777 11.3308 16.6662 10.9984 16.6662C10.5012 16.6662 10.1035 16.9148 9.80522 17.4119C9.50692 17.9091 9.35636 18.6534 9.35352 19.6449C9.35352 20.3153 9.42028 20.875 9.5538 21.3239C9.69016 21.7699 9.88192 22.1051 10.1291 22.3295C10.3762 22.5511 10.666 22.6619 10.9984 22.6619Z" fill="white"/>
<path d="M12.5687 60.2727V69H10.7235V62.0241H10.6724L8.67383 63.277V61.6406L10.8343 60.2727H12.5687Z" fill="white"/>
<path d="M7.92809 115V113.67L11.0346 110.794C11.2988 110.538 11.5204 110.308 11.6994 110.104C11.8812 109.899 12.019 109.699 12.1127 109.503C12.2065 109.304 12.2534 109.089 12.2534 108.859C12.2534 108.604 12.1951 108.384 12.0787 108.199C11.9622 108.011 11.8031 107.868 11.6014 107.768C11.3997 107.666 11.171 107.615 10.9153 107.615C10.6483 107.615 10.4153 107.669 10.2164 107.777C10.0176 107.885 9.86417 108.04 9.75621 108.241C9.64826 108.443 9.59428 108.683 9.59428 108.962H7.84286C7.84286 108.391 7.97212 107.895 8.23065 107.474C8.48917 107.054 8.85138 106.729 9.31729 106.499C9.7832 106.268 10.3201 106.153 10.9281 106.153C11.5531 106.153 12.0971 106.264 12.5602 106.486C13.0261 106.705 13.3883 107.009 13.6468 107.398C13.9054 107.787 14.0346 108.233 14.0346 108.736C14.0346 109.065 13.9693 109.391 13.8386 109.712C13.7108 110.033 13.4821 110.389 13.1525 110.781C12.823 111.17 12.3585 111.638 11.7591 112.183L10.4849 113.432V113.491H14.1497V115H7.92809Z" fill="white"/>
<path d="M10.9782 161.119C10.3418 161.119 9.77504 161.01 9.27788 160.791C8.78356 160.57 8.39293 160.266 8.106 159.879C7.82191 159.49 7.6756 159.041 7.66708 158.533H9.52504C9.5364 158.746 9.606 158.933 9.73384 159.095C9.86452 159.254 10.0378 159.378 10.2537 159.466C10.4696 159.554 10.7125 159.598 10.9824 159.598C11.2637 159.598 11.5123 159.548 11.7282 159.449C11.9441 159.349 12.1131 159.212 12.2353 159.036C12.3574 158.859 12.4185 158.656 12.4185 158.426C12.4185 158.193 12.3532 157.987 12.2225 157.808C12.0946 157.626 11.91 157.484 11.6685 157.382C11.4299 157.28 11.1458 157.229 10.8162 157.229H10.0023V155.874H10.8162C11.0946 155.874 11.3404 155.825 11.5534 155.729C11.7694 155.632 11.937 155.499 12.0563 155.328C12.1756 155.155 12.2353 154.953 12.2353 154.723C12.2353 154.504 12.1827 154.312 12.0776 154.148C11.9753 153.98 11.8304 153.849 11.6429 153.756C11.4583 153.662 11.2424 153.615 10.9952 153.615C10.7452 153.615 10.5165 153.661 10.3091 153.751C10.1017 153.839 9.93555 153.966 9.81055 154.131C9.68555 154.295 9.61879 154.489 9.61026 154.71H7.8418C7.85032 154.207 7.99379 153.764 8.27219 153.381C8.5506 152.997 8.9256 152.697 9.39719 152.482C9.87163 152.263 10.4071 152.153 11.0037 152.153C11.606 152.153 12.133 152.263 12.5847 152.482C13.0364 152.7 13.3873 152.996 13.6373 153.368C13.8901 153.737 14.0151 154.152 14.0123 154.612C14.0151 155.101 13.8631 155.509 13.5563 155.835C13.2523 156.162 12.856 156.369 12.3674 156.457V156.526C13.0094 156.608 13.498 156.831 13.8333 157.195C14.1713 157.555 14.339 158.007 14.3361 158.55C14.339 159.047 14.1955 159.489 13.9057 159.875C13.6188 160.261 13.2225 160.565 12.7168 160.787C12.2111 161.009 11.6316 161.119 10.9782 161.119Z" fill="white"/>
<path d="M7.50888 205.466V204.013L11.1523 198.273H12.4052V200.284H11.6637L9.36683 203.919V203.987H14.5444V205.466H7.50888ZM11.6978 207V205.023L11.7319 204.379V198.273H13.462V207H11.6978Z" fill="white"/>
<path d="M63.5687 4.27273V13H61.7235V6.02415H61.6724L59.6738 7.27699V5.64062L61.8343 4.27273H63.5687Z" fill="white"/>
<path d="M99.9281 13V11.6705L103.035 8.79403C103.299 8.53835 103.52 8.30824 103.699 8.10369C103.881 7.89915 104.019 7.69886 104.113 7.50284C104.206 7.30398 104.253 7.08949 104.253 6.85938C104.253 6.60369 104.195 6.38352 104.079 6.19886C103.962 6.01136 103.803 5.8679 103.601 5.76847C103.4 5.66619 103.171 5.61506 102.915 5.61506C102.648 5.61506 102.415 5.66903 102.216 5.77699C102.018 5.88494 101.864 6.03977 101.756 6.24148C101.648 6.44318 101.594 6.68324 101.594 6.96165H99.8429C99.8429 6.39062 99.9721 5.89489 100.231 5.47443C100.489 5.05398 100.851 4.72869 101.317 4.49858C101.783 4.26847 102.32 4.15341 102.928 4.15341C103.553 4.15341 104.097 4.2642 104.56 4.4858C105.026 4.70455 105.388 5.00852 105.647 5.39773C105.905 5.78693 106.035 6.23295 106.035 6.7358C106.035 7.06534 105.969 7.39062 105.839 7.71165C105.711 8.03267 105.482 8.3892 105.153 8.78125C104.823 9.17045 104.358 9.63778 103.759 10.1832L102.485 11.4318V11.4915H106.15V13H99.9281Z" fill="white"/>
<path d="M144.978 13.1193C144.342 13.1193 143.775 13.0099 143.278 12.7912C142.784 12.5696 142.393 12.2656 142.106 11.8793C141.822 11.4901 141.676 11.0412 141.667 10.5327H143.525C143.536 10.7457 143.606 10.9332 143.734 11.0952C143.865 11.2543 144.038 11.3778 144.254 11.4659C144.47 11.554 144.713 11.598 144.982 11.598C145.264 11.598 145.512 11.5483 145.728 11.4489C145.944 11.3494 146.113 11.2116 146.235 11.0355C146.357 10.8594 146.419 10.6562 146.419 10.4261C146.419 10.1932 146.353 9.98722 146.222 9.80824C146.095 9.62642 145.91 9.48437 145.669 9.3821C145.43 9.27983 145.146 9.22869 144.816 9.22869H144.002V7.87358H144.816C145.095 7.87358 145.34 7.82528 145.553 7.72869C145.769 7.6321 145.937 7.49858 146.056 7.32812C146.176 7.15483 146.235 6.95312 146.235 6.72301C146.235 6.50426 146.183 6.3125 146.078 6.14773C145.975 5.98011 145.83 5.84943 145.643 5.75568C145.458 5.66193 145.242 5.61506 144.995 5.61506C144.745 5.61506 144.517 5.66051 144.309 5.75142C144.102 5.83949 143.936 5.96591 143.811 6.13068C143.686 6.29545 143.619 6.48864 143.61 6.71023H141.842C141.85 6.20739 141.994 5.7642 142.272 5.38068C142.551 4.99716 142.926 4.69744 143.397 4.48153C143.872 4.26278 144.407 4.15341 145.004 4.15341C145.606 4.15341 146.133 4.26278 146.585 4.48153C147.036 4.70028 147.387 4.99574 147.637 5.3679C147.89 5.73722 148.015 6.15199 148.012 6.61222C148.015 7.10085 147.863 7.50852 147.556 7.83523C147.252 8.16193 146.856 8.36932 146.367 8.45739V8.52557C147.009 8.60795 147.498 8.83097 147.833 9.1946C148.171 9.5554 148.339 10.0071 148.336 10.5497C148.339 11.0469 148.195 11.4886 147.906 11.875C147.619 12.2614 147.222 12.5653 146.717 12.7869C146.211 13.0085 145.632 13.1193 144.978 13.1193Z" fill="white"/>
<path d="M182.509 11.4659V10.0128L186.152 4.27273H187.405V6.28409H186.664L184.367 9.91903V9.98722H189.544V11.4659H182.509ZM186.698 13V11.0227L186.732 10.3793V4.27273H188.462V13H186.698Z" fill="white"/>
<path d="M228.028 13.1193C227.425 13.1193 226.888 13.0085 226.417 12.7869C225.948 12.5653 225.576 12.2599 225.3 11.8707C225.025 11.4815 224.881 11.0355 224.87 10.5327H226.66C226.68 10.8707 226.822 11.1449 227.086 11.3551C227.35 11.5653 227.664 11.6705 228.028 11.6705C228.317 11.6705 228.573 11.6065 228.795 11.4787C229.019 11.348 229.194 11.1676 229.319 10.9375C229.447 10.7045 229.511 10.4375 229.511 10.1364C229.511 9.82955 229.445 9.55966 229.315 9.3267C229.187 9.09375 229.009 8.91193 228.782 8.78125C228.555 8.65057 228.295 8.58381 228.002 8.58097C227.746 8.58097 227.498 8.63352 227.256 8.73864C227.018 8.84375 226.832 8.98722 226.698 9.16903L225.058 8.875L225.471 4.27273H230.806V5.78125H226.992L226.766 7.96733H226.817C226.971 7.75142 227.202 7.57244 227.512 7.4304C227.822 7.28835 228.168 7.21733 228.552 7.21733C229.077 7.21733 229.546 7.34091 229.958 7.58807C230.37 7.83523 230.695 8.17472 230.934 8.60653C231.173 9.03551 231.29 9.52983 231.288 10.0895C231.29 10.6776 231.154 11.2003 230.879 11.6577C230.606 12.1122 230.224 12.4702 229.732 12.7315C229.244 12.9901 228.675 13.1193 228.028 13.1193Z" fill="white"/>
<path d="M272.096 13.1193C271.647 13.1165 271.214 13.0412 270.796 12.8935C270.381 12.7457 270.009 12.5057 269.68 12.1733C269.35 11.8409 269.089 11.4006 268.896 10.8523C268.705 10.304 268.61 9.63068 268.61 8.83239C268.613 8.09943 268.697 7.4446 268.862 6.8679C269.029 6.28835 269.268 5.79687 269.577 5.39347C269.89 4.99006 270.263 4.68324 270.698 4.47301C271.133 4.25994 271.62 4.15341 272.16 4.15341C272.742 4.15341 273.256 4.26705 273.702 4.49432C274.148 4.71875 274.506 5.02415 274.776 5.41051C275.049 5.79688 275.214 6.23011 275.271 6.71023H273.451C273.38 6.40625 273.231 6.16761 273.004 5.99432C272.776 5.82102 272.495 5.73438 272.16 5.73438C271.592 5.73438 271.16 5.98153 270.864 6.47585C270.572 6.97017 270.423 7.64205 270.417 8.49148H270.477C270.607 8.23295 270.783 8.01278 271.005 7.83097C271.229 7.64631 271.484 7.50568 271.768 7.40909C272.055 7.30966 272.357 7.25994 272.675 7.25994C273.192 7.25994 273.653 7.3821 274.056 7.62642C274.46 7.8679 274.778 8.20028 275.011 8.62358C275.244 9.04687 275.36 9.53125 275.36 10.0767C275.36 10.6676 275.222 11.1932 274.947 11.6534C274.674 12.1136 274.292 12.4744 273.8 12.7358C273.312 12.9943 272.744 13.1222 272.096 13.1193ZM272.087 11.6705C272.371 11.6705 272.626 11.6023 272.85 11.4659C273.075 11.3295 273.251 11.1449 273.379 10.9119C273.506 10.679 273.57 10.4176 273.57 10.1278C273.57 9.83807 273.506 9.57812 273.379 9.34801C273.254 9.1179 273.08 8.93466 272.859 8.7983C272.637 8.66193 272.384 8.59375 272.1 8.59375C271.887 8.59375 271.69 8.63352 271.508 8.71307C271.329 8.79261 271.171 8.90341 271.035 9.04545C270.901 9.1875 270.796 9.35227 270.719 9.53977C270.643 9.72443 270.604 9.92187 270.604 10.1321C270.604 10.4134 270.668 10.6705 270.796 10.9034C270.927 11.1364 271.103 11.3224 271.325 11.4616C271.549 11.6009 271.803 11.6705 272.087 11.6705Z" fill="white"/>
<path d="M11.0277 255.119C10.4254 255.119 9.88849 255.009 9.4169 254.787C8.94815 254.565 8.57599 254.26 8.30043 253.871C8.02486 253.482 7.88139 253.036 7.87003 252.533H9.6598C9.67969 252.871 9.82173 253.145 10.0859 253.355C10.3501 253.565 10.6641 253.67 11.0277 253.67C11.3175 253.67 11.5732 253.607 11.7947 253.479C12.0192 253.348 12.1939 253.168 12.3189 252.938C12.4467 252.705 12.5107 252.437 12.5107 252.136C12.5107 251.83 12.4453 251.56 12.3146 251.327C12.1868 251.094 12.0092 250.912 11.782 250.781C11.5547 250.651 11.2947 250.584 11.0021 250.581C10.7464 250.581 10.4979 250.634 10.2564 250.739C10.0178 250.844 9.83168 250.987 9.69815 251.169L8.05753 250.875L8.47088 246.273H13.8061V247.781H9.99219L9.76634 249.967H9.81747C9.97088 249.751 10.2024 249.572 10.5121 249.43C10.8217 249.288 11.1683 249.217 11.5518 249.217C12.0774 249.217 12.5462 249.341 12.9581 249.588C13.37 249.835 13.6953 250.175 13.9339 250.607C14.1726 251.036 14.2905 251.53 14.2876 252.089C14.2905 252.678 14.1541 253.2 13.8786 253.658C13.6058 254.112 13.2237 254.47 12.7322 254.732C12.2436 254.99 11.6754 255.119 11.0277 255.119Z" fill="white"/>
<path d="M7.50888 298.466V297.013L11.1523 291.273H12.4052V293.284H11.6637L9.36683 296.919V296.987H14.5444V298.466H7.50888ZM11.6978 300V298.023L11.7319 297.379V291.273H13.462V300H11.6978Z" fill="white"/>
<defs>
<filter id="filter0_f_46_5" x="11" y="10" width="266.61" height="294.89" filterUnits="userSpaceOnUse" color-interpolation-filters="sRGB">
<feFlood flood-opacity="0" result="BackgroundImageFix"/>
<feBlend mode="normal" in="SourceGraphic" in2="BackgroundImageFix" result="shape"/>
<feGaussianBlur stdDeviation="3" result="effect1_foregroundBlur_46_5"/>
</filter>
<clipPath id="clip0_46_5">
<rect width="254.61" height="282.89" fill="white" transform="translate(17 16)"/>
</clipPath>
<clipPath id="clip1_46_5">
<rect width="254.61" height="282.89" fill="white" transform="translate(17 16)"/>
</clipPath>
<clipPath id="clip2_46_5">
<rect width="61.3064" height="124.876" fill="white" transform="translate(227.087 226.163) rotate(-44.2481)"/>
</clipPath>
</defs>
</svg>
