<svg width="346" height="275" viewBox="0 0 346 275" fill="none" xmlns="http://www.w3.org/2000/svg">
<g clip-path="url(#clip0_88_27)" filter="url(#filter0_f_88_27)">
<path d="M127.164 86.6621C121.66 79.2252 115.303 71.2311 104.284 68.0507C81.9968 61.6131 60.9295 78.3797 48.4856 92.9075C35.4913 108.089 22.13 124.048 20.6299 141.747C19.1405 159.445 33.8185 179.171 58.5983 182.361C62.9586 182.919 67.6749 183.024 71.2581 184.85C76.9566 187.761 77.2156 193.507 78.4784 198.388C83.4753 217.759 110.144 229.932 134.373 239.771C149.828 246.046 165.769 252.445 183.426 254.203C201.083 255.962 221.114 252.003 230.644 241.395C241.717 229.068 238.026 209.63 256.308 202.75C260.723 201.088 265.774 200.531 270.522 199.436C287.877 195.429 300.45 184.206 306.041 171.975C311.631 159.743 311.146 146.551 309.138 133.772C320.719 129.419 326.04 119.35 325.36 110.126C324.68 100.902 319.122 92.2446 313.65 83.8372C307.53 74.4306 300.839 64.5436 288.611 58.7978C276.383 53.052 256.891 53.6862 249.844 62.7661C230.546 51.2553 211.249 39.754 191.952 28.2432C186.48 24.9764 180.652 21.5942 173.605 20.691C158.7 18.779 146.364 28.2048 132.895 33.0858C121.163 37.3327 107.413 38.2648 95.8113 42.6846C84.2092 47.1045 75.0787 57.616 81.932 65.5525" fill="#A5A5A5"/>
<path d="M128.567 85.9321C123.311 78.8411 117.396 71.6636 108.493 67.9932C99.5886 64.3228 88.9471 64.515 79.687 67.8683C70.4269 71.2216 62.1598 77.1212 55.2093 83.6453C47.8488 90.5537 41.4703 98.4614 35.448 106.311C24.364 120.762 14.4132 138.749 21.2557 156.448C24.0186 163.577 28.9833 170.044 35.5452 174.838C42.787 180.132 51.3888 183.044 60.638 184.033C65.6458 184.572 71.3011 185.014 74.0317 189.347C76.1578 192.719 76.2226 196.813 77.4206 200.454C79.8921 207.958 85.5258 214.271 92.0338 219.373C99.4591 225.196 108.05 229.75 116.792 233.814C126.398 238.273 136.305 242.279 146.267 246.056C166.46 253.704 188.714 259.267 210.515 253.829C219.193 251.667 227.6 247.689 232.953 241.059C237.67 235.217 239.526 228.069 241.987 221.343C244.447 214.617 247.761 208.371 254.905 204.941C259.859 202.558 265.579 202.068 270.954 200.829C275.919 199.676 280.721 197.898 285.135 195.554C293.252 191.24 300.116 185.023 304.746 177.682C310.271 168.939 312.247 158.821 312.149 148.876C312.095 143.688 311.502 138.528 310.703 133.397L309.958 135.021C318.711 131.649 325.047 124.49 326.612 116.102C328.5 105.927 323.309 96.1361 317.859 87.4886C312.743 79.3503 307.487 70.8854 299.878 64.3517C292.798 58.2696 284.045 54.5223 274.213 53.7921C265.018 53.1099 254.107 54.9355 248.441 62.0553L250.653 61.5364C237.227 53.5326 223.801 45.5289 210.386 37.5251C203.824 33.6145 197.305 29.6462 190.7 25.7933C185.023 22.488 179.001 19.6728 172.137 19.1155C159.045 18.0586 147.702 25.2937 136.478 30.1074C123.581 35.6419 109.011 36.2664 95.8652 41.1282C89.7889 43.3766 84.0364 47.0278 80.5504 52.0914C77.4961 56.5305 76.9133 61.9688 80.5288 66.2926C81.7592 67.7626 84.5761 66.331 83.3241 64.8417C76.1578 56.271 88.5046 47.0278 96.6207 43.9531C109.108 39.2162 123.019 38.5724 135.474 33.6818C146.375 29.406 156.854 22.0556 169.244 21.9019C175.903 21.825 181.839 24.2175 187.376 27.321C193.592 30.8089 199.625 34.5753 205.734 38.2169C220.164 46.826 234.594 55.4255 249.023 64.0346C249.79 64.4958 250.761 64.1211 251.236 63.5157C255.704 57.9045 264.511 56.4055 271.753 56.5689C280.754 56.7611 289.075 59.7204 295.853 64.9954C303.051 70.5971 307.94 77.9571 312.667 85.2403C318.042 93.5035 324.162 102.689 323.773 112.586C323.428 121.406 317.373 129.064 308.318 132.552C307.606 132.821 307.487 133.599 307.573 134.176C309.171 144.428 309.786 155.055 306.861 165.172C304.487 173.387 299.706 180.805 292.841 186.705C285.6 192.931 276.663 196.822 266.885 198.725C261.845 199.705 256.718 200.569 252.24 202.981C248.991 204.73 246.282 207.132 244.188 209.947C239.968 215.607 238.339 222.438 235.953 228.789C233.363 235.698 229.564 241.828 222.592 245.94C214.811 250.523 205.292 252.551 196.075 253.05C185.163 253.637 174.349 251.869 163.977 248.948C153.606 246.027 143.007 241.751 132.819 237.571C123.818 233.882 114.882 229.99 106.474 225.292C98.9303 221.074 91.5049 216.087 86.195 209.63C83.799 206.709 81.8348 203.5 80.6368 200.031C79.4388 196.563 79.1906 192.633 77.4961 189.174C75.6074 185.302 71.9271 182.977 67.3618 182.045C62.4944 181.045 57.4974 181.007 52.6839 179.748C44.4167 177.596 37.0885 173.214 31.6274 167.296C26.6736 161.915 23.3279 155.199 22.3998 148.281C21.2449 139.652 24.0294 130.899 28.1091 123.145C32.8794 114.085 39.4953 105.879 46.2299 97.9041C52.1766 90.8708 58.404 84.1065 66.1099 78.5144C73.8158 72.9223 82.4499 68.6946 92.1201 68.1374C101.79 67.5801 111.04 71.3177 117.699 77.7938C120.731 80.7435 123.268 84.0584 125.739 87.3925C126.883 88.9299 129.689 87.4886 128.534 85.9417L128.567 85.9321Z" fill="#898989"/>
</g>
<path d="M71.183 101C71.063 101 70.961 100.964 70.877 100.892C70.805 100.808 70.769 100.706 70.769 100.586V95.204C70.769 94.244 70.529 93.5 70.049 92.972C69.569 92.432 68.795 92.162 67.727 92.162H64.343C64.223 92.162 64.121 92.126 64.037 92.054C63.965 91.97 63.929 91.868 63.929 91.748V91.136C63.929 91.016 63.965 90.92 64.037 90.848C64.121 90.764 64.223 90.722 64.343 90.722H67.817C69.377 90.722 70.529 91.1 71.273 91.856C72.029 92.612 72.407 93.71 72.407 95.15V100.586C72.407 100.706 72.365 100.808 72.281 100.892C72.209 100.964 72.113 101 71.993 101H71.183ZM64.343 101C64.223 101 64.121 100.964 64.037 100.892C63.965 100.808 63.929 100.706 63.929 100.586V94.574C63.929 94.454 63.965 94.358 64.037 94.286C64.121 94.202 64.223 94.16 64.343 94.16H65.153C65.285 94.16 65.387 94.202 65.459 94.286C65.531 94.358 65.567 94.454 65.567 94.574V100.586C65.567 100.706 65.531 100.808 65.459 100.892C65.387 100.964 65.285 101 65.153 101H64.343ZM75.7935 92.162C75.6735 92.162 75.5715 92.126 75.4875 92.054C75.4155 91.97 75.3795 91.868 75.3795 91.748V91.136C75.3795 91.016 75.4155 90.92 75.4875 90.848C75.5715 90.764 75.6735 90.722 75.7935 90.722H79.6995C80.7315 90.722 81.5835 90.89 82.2555 91.226C82.9395 91.55 83.4495 92.042 83.7855 92.702C84.1215 93.35 84.2895 94.154 84.2895 95.114V100.586C84.2895 100.706 84.2475 100.808 84.1635 100.892C84.0915 100.964 83.9955 101 83.8755 101H83.0655C82.9335 101 82.8315 100.964 82.7595 100.892C82.6875 100.808 82.6515 100.706 82.6515 100.586V95.204C82.6515 94.244 82.4055 93.5 81.9135 92.972C81.4335 92.432 80.6595 92.162 79.5915 92.162H75.7935ZM77.4135 91.28H77.8635C78.0435 91.28 78.1755 91.328 78.2595 91.424C78.3555 91.508 78.3975 91.616 78.3855 91.748C78.2895 92.252 78.2055 92.708 78.1335 93.116C78.0735 93.524 78.0315 93.932 78.0075 94.34C77.9835 94.736 77.9715 95.186 77.9715 95.69L78.0075 100.586C78.0075 100.706 77.9715 100.808 77.8995 100.892C77.8275 100.964 77.7315 101 77.6115 101L75.0555 100.964C74.9355 100.964 74.8335 100.928 74.7495 100.856C74.6775 100.784 74.6415 100.682 74.6415 100.55V99.974C74.6415 99.854 74.6775 99.758 74.7495 99.686C74.8335 99.602 74.9355 99.56 75.0555 99.56L76.4415 99.578V95.762C76.4415 95.27 76.4475 94.82 76.4595 94.412C76.4715 93.992 76.5075 93.572 76.5675 93.152C76.6275 92.732 76.7235 92.258 76.8555 91.73C76.8915 91.598 76.9455 91.49 77.0175 91.406C77.1015 91.322 77.2335 91.28 77.4135 91.28ZM92.366 101C92.246 101 92.144 100.964 92.06 100.892C91.988 100.808 91.952 100.706 91.952 100.586V95.204C91.952 94.244 91.712 93.5 91.232 92.972C90.752 92.432 89.978 92.162 88.91 92.162H86.552C86.432 92.162 86.33 92.126 86.246 92.054C86.174 91.97 86.138 91.868 86.138 91.748V91.136C86.138 91.016 86.174 90.92 86.246 90.848C86.33 90.764 86.432 90.722 86.552 90.722H89C90.032 90.722 90.884 90.884 91.556 91.208C92.24 91.532 92.75 92.024 93.086 92.684C93.422 93.332 93.59 94.142 93.59 95.114V100.586C93.59 100.706 93.548 100.808 93.464 100.892C93.392 100.964 93.296 101 93.176 101H92.366ZM97.3624 101C97.0984 101 96.9664 100.868 96.9664 100.604V94.178C96.9664 93.47 97.0504 92.918 97.2184 92.522C97.3864 92.126 97.5904 91.928 97.8304 91.928H99.6124C99.3124 91.928 99.0664 92.156 98.8744 92.612C98.6944 93.068 98.6044 93.632 98.6044 94.304V100.604C98.6044 100.724 98.5624 100.82 98.4784 100.892C98.3944 100.964 98.2924 101 98.1724 101H97.3624ZM95.8504 92.162C95.7304 92.162 95.6284 92.126 95.5444 92.054C95.4724 91.97 95.4364 91.868 95.4364 91.748V91.136C95.4364 91.016 95.4724 90.92 95.5444 90.848C95.6284 90.764 95.7304 90.722 95.8504 90.722H100.206C100.338 90.722 100.44 90.764 100.512 90.848C100.584 90.92 100.62 91.016 100.62 91.136V91.748C100.62 91.868 100.584 91.97 100.512 92.054C100.44 92.126 100.338 92.162 100.206 92.162H95.8504ZM102.862 101.99C102.742 102.038 102.628 102.026 102.52 101.954C102.412 101.894 102.358 101.804 102.358 101.684V101.072C102.358 100.964 102.382 100.862 102.43 100.766C102.478 100.67 102.556 100.61 102.664 100.586L106.462 99.326C107.146 99.098 107.674 98.804 108.046 98.444C108.418 98.084 108.676 97.664 108.82 97.184C108.976 96.704 109.054 96.182 109.054 95.618V91.136C109.054 91.016 109.09 90.92 109.162 90.848C109.246 90.764 109.348 90.722 109.468 90.722H110.278C110.398 90.722 110.494 90.764 110.566 90.848C110.65 90.92 110.692 91.016 110.692 91.136V96.122C110.692 96.818 110.53 97.478 110.206 98.102C109.894 98.714 109.45 99.254 108.874 99.722C108.298 100.178 107.614 100.526 106.822 100.766L102.862 101.99ZM105.22 100.568L102.682 91.442C102.658 91.346 102.634 91.274 102.61 91.226C102.598 91.178 102.592 91.13 102.592 91.082C102.592 90.986 102.628 90.902 102.7 90.83C102.772 90.758 102.856 90.722 102.952 90.722H103.834C104.062 90.722 104.2 90.812 104.248 90.992L106.75 100.154L105.22 100.568ZM113.341 101C113.221 101 113.119 100.964 113.035 100.892C112.963 100.808 112.927 100.706 112.927 100.586V99.974C112.927 99.854 112.963 99.758 113.035 99.686C113.119 99.602 113.221 99.56 113.341 99.56H118.507V95.204C118.507 94.244 118.267 93.5 117.787 92.972C117.307 92.432 116.533 92.162 115.465 92.162H113.521C113.401 92.162 113.299 92.126 113.215 92.054C113.143 91.97 113.107 91.868 113.107 91.748V91.136C113.107 91.016 113.143 90.92 113.215 90.848C113.299 90.764 113.401 90.722 113.521 90.722H115.555C116.587 90.722 117.445 90.89 118.129 91.226C118.813 91.562 119.323 92.06 119.659 92.72C120.007 93.368 120.181 94.178 120.181 95.15V99.56H120.847C120.967 99.56 121.063 99.602 121.135 99.686C121.219 99.758 121.261 99.854 121.261 99.974V100.586C121.261 100.706 121.219 100.808 121.135 100.892C121.063 100.964 120.967 101 120.847 101H113.341ZM127.153 102.35C127.057 102.35 126.979 102.314 126.919 102.242C126.871 102.17 126.853 102.08 126.865 101.972L127.279 99.398C127.303 99.254 127.351 99.134 127.423 99.038C127.507 98.93 127.627 98.876 127.783 98.876H128.989C129.073 98.876 129.139 98.906 129.187 98.966C129.247 99.026 129.277 99.098 129.277 99.182C129.277 99.278 129.253 99.374 129.205 99.47L128.269 101.936C128.221 102.056 128.155 102.152 128.071 102.224C127.999 102.308 127.891 102.35 127.747 102.35H127.153ZM132.536 92.162C132.416 92.162 132.314 92.126 132.23 92.054C132.158 91.97 132.122 91.868 132.122 91.748V91.136C132.122 91.016 132.158 90.92 132.23 90.848C132.314 90.764 132.416 90.722 132.536 90.722H136.442C137.474 90.722 138.326 90.89 138.998 91.226C139.682 91.55 140.192 92.042 140.528 92.702C140.864 93.35 141.032 94.154 141.032 95.114V100.586C141.032 100.706 140.99 100.808 140.906 100.892C140.834 100.964 140.738 101 140.618 101H139.808C139.676 101 139.574 100.964 139.502 100.892C139.43 100.808 139.394 100.706 139.394 100.586V95.204C139.394 94.244 139.148 93.5 138.656 92.972C138.176 92.432 137.402 92.162 136.334 92.162H132.536ZM134.156 91.28H134.606C134.786 91.28 134.918 91.328 135.002 91.424C135.098 91.508 135.14 91.616 135.128 91.748C135.032 92.252 134.948 92.708 134.876 93.116C134.816 93.524 134.774 93.932 134.75 94.34C134.726 94.736 134.714 95.186 134.714 95.69L134.75 100.586C134.75 100.706 134.714 100.808 134.642 100.892C134.57 100.964 134.474 101 134.354 101L131.798 100.964C131.678 100.964 131.576 100.928 131.492 100.856C131.42 100.784 131.384 100.682 131.384 100.55V99.974C131.384 99.854 131.42 99.758 131.492 99.686C131.576 99.602 131.678 99.56 131.798 99.56L133.184 99.578V95.762C133.184 95.27 133.19 94.82 133.202 94.412C133.214 93.992 133.25 93.572 133.31 93.152C133.37 92.732 133.466 92.258 133.598 91.73C133.634 91.598 133.688 91.49 133.76 91.406C133.844 91.322 133.976 91.28 134.156 91.28ZM144.113 101C143.993 101 143.891 100.964 143.807 100.892C143.735 100.808 143.699 100.706 143.699 100.586V91.136C143.699 91.016 143.735 90.92 143.807 90.848C143.891 90.764 143.993 90.722 144.113 90.722H144.958C145.091 90.722 145.193 90.764 145.265 90.848C145.337 90.92 145.373 91.016 145.373 91.136V100.586C145.373 100.706 145.337 100.808 145.265 100.892C145.193 100.964 145.091 101 144.958 101H144.113ZM152.592 101.18C150.984 101.18 149.826 100.796 149.118 100.028C148.41 99.248 148.056 98.162 148.056 96.77V91.136C148.056 91.016 148.092 90.92 148.164 90.848C148.248 90.764 148.35 90.722 148.47 90.722H149.208C149.34 90.722 149.442 90.764 149.514 90.848C149.586 90.92 149.622 91.016 149.622 91.136V96.68C149.622 97.652 149.868 98.402 150.36 98.93C150.852 99.446 151.596 99.704 152.592 99.704C153.588 99.704 154.314 99.464 154.77 98.984C155.238 98.504 155.484 97.784 155.508 96.824C155.52 96.704 155.52 96.524 155.508 96.284C155.508 96.032 155.508 95.78 155.508 95.528C155.508 95.276 155.508 95.09 155.508 94.97C155.484 93.974 155.268 93.248 154.86 92.792C154.464 92.336 153.942 92.108 153.294 92.108C153.09 92.108 152.856 92.144 152.592 92.216C152.328 92.288 152.106 92.384 151.926 92.504C151.818 92.564 151.704 92.57 151.584 92.522C151.464 92.462 151.404 92.366 151.404 92.234V91.676C151.404 91.556 151.416 91.454 151.44 91.37C151.464 91.274 151.53 91.19 151.638 91.118C151.878 90.974 152.136 90.86 152.412 90.776C152.688 90.68 153.054 90.632 153.51 90.632C154.29 90.632 154.944 90.782 155.472 91.082C156 91.37 156.402 91.82 156.678 92.432C156.954 93.044 157.104 93.83 157.128 94.79C157.14 94.91 157.146 95.114 157.146 95.402C157.146 95.69 157.146 95.984 157.146 96.284C157.146 96.584 157.14 96.794 157.128 96.914C157.104 97.826 156.936 98.606 156.624 99.254C156.324 99.89 155.844 100.37 155.184 100.694C154.536 101.018 153.672 101.18 152.592 101.18ZM166.486 101C166.354 101 166.252 100.964 166.18 100.892C166.108 100.82 166.042 100.76 165.982 100.712L159.376 91.424C159.292 91.292 159.25 91.178 159.25 91.082C159.25 90.986 159.286 90.902 159.358 90.83C159.442 90.758 159.532 90.722 159.628 90.722H160.456C160.6 90.722 160.708 90.758 160.78 90.83C160.864 90.902 160.93 90.968 160.978 91.028L167.602 100.298C167.65 100.382 167.68 100.448 167.692 100.496C167.716 100.544 167.728 100.592 167.728 100.64C167.728 100.736 167.692 100.82 167.62 100.892C167.548 100.964 167.458 101 167.35 101H166.486ZM159.466 101C159.346 101 159.244 100.964 159.16 100.892C159.088 100.808 159.052 100.706 159.052 100.586V97.886C159.052 97.334 159.106 96.812 159.214 96.32C159.322 95.816 159.532 95.342 159.844 94.898C160.168 94.442 160.648 94.016 161.284 93.62L162.112 94.826C161.68 95.102 161.356 95.42 161.14 95.78C160.924 96.128 160.78 96.494 160.708 96.878C160.636 97.25 160.6 97.61 160.6 97.958V100.586C160.6 100.706 160.558 100.808 160.474 100.892C160.402 100.964 160.306 101 160.186 101H159.466ZM165.046 97.706L164.308 96.464C164.896 96.188 165.31 95.9 165.55 95.6C165.802 95.3 165.952 94.988 166 94.664C166.048 94.328 166.072 93.98 166.072 93.62V91.136C166.072 91.016 166.108 90.92 166.18 90.848C166.264 90.764 166.366 90.722 166.486 90.722H167.242C167.362 90.722 167.458 90.764 167.53 90.848C167.614 90.92 167.656 91.016 167.656 91.136V93.71C167.656 94.214 167.596 94.7 167.476 95.168C167.356 95.636 167.11 96.08 166.738 96.5C166.378 96.92 165.814 97.322 165.046 97.706ZM169.904 101C169.784 101 169.682 100.964 169.598 100.892C169.526 100.808 169.49 100.706 169.49 100.586V99.974C169.49 99.854 169.526 99.758 169.598 99.686C169.682 99.602 169.784 99.56 169.904 99.56H174.98V100.658C174.98 100.778 174.938 100.868 174.854 100.928C174.782 100.976 174.686 101 174.566 101H169.904ZM173.882 101C173.762 101 173.666 100.964 173.594 100.892C173.534 100.808 173.492 100.706 173.468 100.586L173.126 95.024C173.102 94.436 173.054 93.926 172.982 93.494C172.922 93.062 172.778 92.726 172.55 92.486C172.334 92.246 171.968 92.126 171.452 92.126H170.714C170.594 92.126 170.492 92.09 170.408 92.018C170.336 91.934 170.3 91.832 170.3 91.712V91.1C170.3 90.98 170.336 90.884 170.408 90.812C170.492 90.728 170.594 90.686 170.714 90.686H171.47C172.154 90.686 172.706 90.788 173.126 90.992C173.546 91.184 173.87 91.472 174.098 91.856C174.326 92.24 174.494 92.696 174.602 93.224C174.71 93.74 174.782 94.322 174.818 94.97L175.142 100.586C175.166 100.706 175.136 100.808 175.052 100.892C174.968 100.964 174.866 101 174.746 101H173.882ZM177.684 96.824C177.564 96.824 177.462 96.788 177.378 96.716C177.306 96.632 177.27 96.53 177.27 96.41V91.136C177.27 91.016 177.306 90.92 177.378 90.848C177.462 90.764 177.564 90.722 177.684 90.722H178.53C178.662 90.722 178.764 90.764 178.836 90.848C178.908 90.92 178.944 91.016 178.944 91.136V96.41C178.944 96.53 178.908 96.632 178.836 96.716C178.764 96.788 178.662 96.824 178.53 96.824H177.684ZM186.169 101C185.905 101 185.773 100.868 185.773 100.604V94.178C185.773 93.47 185.857 92.918 186.025 92.522C186.193 92.126 186.403 91.928 186.655 91.928H188.419C188.119 91.928 187.873 92.156 187.681 92.612C187.501 93.068 187.411 93.632 187.411 94.304V100.604C187.411 100.724 187.369 100.82 187.285 100.892C187.201 100.964 187.099 101 186.979 101H186.169ZM181.309 92.162C181.189 92.162 181.087 92.126 181.003 92.054C180.931 91.97 180.895 91.868 180.895 91.748V91.136C180.895 91.016 180.931 90.92 181.003 90.848C181.087 90.764 181.189 90.722 181.309 90.722H189.031C189.151 90.722 189.247 90.764 189.319 90.848C189.403 90.92 189.445 91.016 189.445 91.136V91.748C189.445 91.868 189.403 91.97 189.319 92.054C189.247 92.126 189.151 92.162 189.031 92.162H181.309ZM197.448 101C197.328 101 197.226 100.964 197.142 100.892C197.07 100.808 197.034 100.706 197.034 100.586V95.204C197.034 94.244 196.794 93.5 196.314 92.972C195.834 92.432 195.06 92.162 193.992 92.162H191.634C191.514 92.162 191.412 92.126 191.328 92.054C191.256 91.97 191.22 91.868 191.22 91.748V91.136C191.22 91.016 191.256 90.92 191.328 90.848C191.412 90.764 191.514 90.722 191.634 90.722H194.082C195.114 90.722 195.966 90.884 196.638 91.208C197.322 91.532 197.832 92.024 198.168 92.684C198.504 93.332 198.672 94.142 198.672 95.114V100.586C198.672 100.706 198.63 100.808 198.546 100.892C198.474 100.964 198.378 101 198.258 101H197.448ZM201.751 101C201.631 101 201.529 100.964 201.445 100.892C201.373 100.808 201.337 100.706 201.337 100.586V91.136C201.337 91.016 201.373 90.92 201.445 90.848C201.529 90.764 201.631 90.722 201.751 90.722H202.597C202.729 90.722 202.831 90.764 202.903 90.848C202.975 90.92 203.011 91.016 203.011 91.136V100.586C203.011 100.706 202.975 100.808 202.903 100.892C202.831 100.964 202.729 101 202.597 101H201.751ZM206.198 104.438C206.078 104.438 205.976 104.396 205.892 104.312C205.82 104.24 205.784 104.144 205.784 104.024V94.574C205.784 94.454 205.82 94.358 205.892 94.286C205.976 94.202 206.078 94.16 206.198 94.16H206.99C207.122 94.16 207.224 94.202 207.296 94.286C207.368 94.358 207.404 94.454 207.404 94.574V104.024C207.404 104.144 207.368 104.24 207.296 104.312C207.224 104.396 207.122 104.438 206.99 104.438H206.198ZM209.654 101.162C209.546 101.198 209.444 101.18 209.348 101.108C209.264 101.048 209.222 100.958 209.222 100.838V100.01C209.222 99.902 209.252 99.806 209.312 99.722C209.384 99.638 209.486 99.572 209.618 99.524L210.302 99.254C210.782 99.062 211.214 98.822 211.598 98.534C211.994 98.234 212.3 97.832 212.516 97.328C212.744 96.824 212.858 96.164 212.858 95.348C212.858 94.568 212.762 93.95 212.57 93.494C212.378 93.026 212.06 92.696 211.616 92.504C211.184 92.3 210.596 92.198 209.852 92.198H206.198C206.078 92.198 205.976 92.162 205.892 92.09C205.82 92.006 205.784 91.904 205.784 91.784V91.136C205.784 91.016 205.82 90.92 205.892 90.848C205.976 90.764 206.078 90.722 206.198 90.722H210.086C211.19 90.722 212.06 90.878 212.696 91.19C213.344 91.502 213.806 92.006 214.082 92.702C214.37 93.386 214.514 94.286 214.514 95.402C214.514 96.242 214.4 96.968 214.172 97.58C213.944 98.192 213.632 98.714 213.236 99.146C212.852 99.578 212.414 99.938 211.922 100.226C211.442 100.502 210.938 100.73 210.41 100.91L209.654 101.162ZM222.184 92.162C222.064 92.162 221.962 92.126 221.878 92.054C221.806 91.97 221.77 91.868 221.77 91.748V91.136C221.77 91.016 221.806 90.92 221.878 90.848C221.962 90.764 222.064 90.722 222.184 90.722H226.09C227.122 90.722 227.974 90.89 228.646 91.226C229.33 91.55 229.84 92.042 230.176 92.702C230.512 93.35 230.68 94.154 230.68 95.114V100.586C230.68 100.706 230.638 100.808 230.554 100.892C230.482 100.964 230.386 101 230.266 101H229.456C229.324 101 229.222 100.964 229.15 100.892C229.078 100.808 229.042 100.706 229.042 100.586V95.204C229.042 94.244 228.796 93.5 228.304 92.972C227.824 92.432 227.05 92.162 225.982 92.162H222.184ZM223.804 91.28H224.254C224.434 91.28 224.566 91.328 224.65 91.424C224.746 91.508 224.788 91.616 224.776 91.748C224.68 92.252 224.596 92.708 224.524 93.116C224.464 93.524 224.422 93.932 224.398 94.34C224.374 94.736 224.362 95.186 224.362 95.69L224.398 100.586C224.398 100.706 224.362 100.808 224.29 100.892C224.218 100.964 224.122 101 224.002 101L221.446 100.964C221.326 100.964 221.224 100.928 221.14 100.856C221.068 100.784 221.032 100.682 221.032 100.55V99.974C221.032 99.854 221.068 99.758 221.14 99.686C221.224 99.602 221.326 99.56 221.446 99.56L222.832 99.578V95.762C222.832 95.27 222.838 94.82 222.85 94.412C222.862 93.992 222.898 93.572 222.958 93.152C223.018 92.732 223.114 92.258 223.246 91.73C223.282 91.598 223.336 91.49 223.408 91.406C223.492 91.322 223.624 91.28 223.804 91.28ZM238.459 99.65C239.239 99.662 239.893 99.518 240.421 99.218C240.961 98.918 241.369 98.492 241.645 97.94C241.933 97.376 242.077 96.734 242.077 96.014V91.136C242.077 91.016 242.113 90.92 242.185 90.848C242.269 90.764 242.371 90.722 242.491 90.722H243.229C243.361 90.722 243.463 90.764 243.535 90.848C243.607 90.92 243.643 91.016 243.643 91.136V96.14C243.643 96.908 243.523 97.604 243.283 98.228C243.043 98.84 242.701 99.368 242.257 99.812C241.813 100.244 241.285 100.574 240.673 100.802C240.073 101.03 239.407 101.132 238.675 101.108H237.325C236.545 101.108 235.843 100.928 235.219 100.568C234.595 100.208 234.103 99.704 233.743 99.056C233.383 98.408 233.203 97.658 233.203 96.806V91.136C233.203 91.016 233.239 90.92 233.311 90.848C233.395 90.764 233.497 90.722 233.617 90.722H234.373C234.493 90.722 234.589 90.764 234.661 90.848C234.745 90.92 234.787 91.016 234.787 91.136L234.841 96.446C234.841 97.478 235.129 98.27 235.705 98.822C236.281 99.374 237.013 99.65 237.901 99.65H238.459ZM234.463 97.544L234.427 96.23C235.315 96.218 235.993 96.086 236.461 95.834C236.929 95.57 237.253 95.222 237.433 94.79C237.625 94.358 237.721 93.884 237.721 93.368V91.136C237.721 91.016 237.757 90.92 237.829 90.848C237.901 90.764 238.003 90.722 238.135 90.722H238.873C238.993 90.722 239.089 90.764 239.161 90.848C239.245 90.92 239.287 91.016 239.287 91.136V93.44C239.287 94.22 239.113 94.922 238.765 95.546C238.417 96.17 237.883 96.662 237.163 97.022C236.455 97.382 235.555 97.556 234.463 97.544ZM251.975 101C251.855 101 251.753 100.964 251.669 100.892C251.597 100.808 251.561 100.706 251.561 100.586V95.204C251.561 94.244 251.321 93.5 250.841 92.972C250.361 92.432 249.587 92.162 248.519 92.162H246.161C246.041 92.162 245.939 92.126 245.855 92.054C245.783 91.97 245.747 91.868 245.747 91.748V91.136C245.747 91.016 245.783 90.92 245.855 90.848C245.939 90.764 246.041 90.722 246.161 90.722H248.609C249.641 90.722 250.493 90.884 251.165 91.208C251.849 91.532 252.359 92.024 252.695 92.684C253.031 93.332 253.199 94.142 253.199 95.114V100.586C253.199 100.706 253.157 100.808 253.073 100.892C253.001 100.964 252.905 101 252.785 101H251.975ZM260.997 92.162C260.877 92.162 260.775 92.126 260.691 92.054C260.619 91.97 260.583 91.868 260.583 91.748V91.136C260.583 91.016 260.619 90.92 260.691 90.848C260.775 90.764 260.877 90.722 260.997 90.722H264.903C265.935 90.722 266.787 90.89 267.459 91.226C268.143 91.55 268.653 92.042 268.989 92.702C269.325 93.35 269.493 94.154 269.493 95.114V100.586C269.493 100.706 269.451 100.808 269.367 100.892C269.295 100.964 269.199 101 269.079 101H268.269C268.137 101 268.035 100.964 267.963 100.892C267.891 100.808 267.855 100.706 267.855 100.586V95.204C267.855 94.244 267.609 93.5 267.117 92.972C266.637 92.432 265.863 92.162 264.795 92.162H260.997ZM262.617 91.28H263.067C263.247 91.28 263.379 91.328 263.463 91.424C263.559 91.508 263.601 91.616 263.589 91.748C263.493 92.252 263.409 92.708 263.337 93.116C263.277 93.524 263.235 93.932 263.211 94.34C263.187 94.736 263.175 95.186 263.175 95.69L263.211 100.586C263.211 100.706 263.175 100.808 263.103 100.892C263.031 100.964 262.935 101 262.815 101L260.259 100.964C260.139 100.964 260.037 100.928 259.953 100.856C259.881 100.784 259.845 100.682 259.845 100.55V99.974C259.845 99.854 259.881 99.758 259.953 99.686C260.037 99.602 260.139 99.56 260.259 99.56L261.645 99.578V95.762C261.645 95.27 261.651 94.82 261.663 94.412C261.675 93.992 261.711 93.572 261.771 93.152C261.831 92.732 261.927 92.258 262.059 91.73C262.095 91.598 262.149 91.49 262.221 91.406C262.305 91.322 262.437 91.28 262.617 91.28ZM279.161 101C279.029 101 278.927 100.964 278.855 100.892C278.783 100.82 278.717 100.76 278.657 100.712L272.051 91.424C271.967 91.292 271.925 91.178 271.925 91.082C271.925 90.986 271.961 90.902 272.033 90.83C272.117 90.758 272.207 90.722 272.303 90.722H273.131C273.275 90.722 273.383 90.758 273.455 90.83C273.539 90.902 273.605 90.968 273.653 91.028L280.277 100.298C280.325 100.382 280.355 100.448 280.367 100.496C280.391 100.544 280.403 100.592 280.403 100.64C280.403 100.736 280.367 100.82 280.295 100.892C280.223 100.964 280.133 101 280.025 101H279.161ZM272.141 101C272.021 101 271.919 100.964 271.835 100.892C271.763 100.808 271.727 100.706 271.727 100.586V97.886C271.727 97.334 271.781 96.812 271.889 96.32C271.997 95.816 272.207 95.342 272.519 94.898C272.843 94.442 273.323 94.016 273.959 93.62L274.787 94.826C274.355 95.102 274.031 95.42 273.815 95.78C273.599 96.128 273.455 96.494 273.383 96.878C273.311 97.25 273.275 97.61 273.275 97.958V100.586C273.275 100.706 273.233 100.808 273.149 100.892C273.077 100.964 272.981 101 272.861 101H272.141ZM277.721 97.706L276.983 96.464C277.571 96.188 277.985 95.9 278.225 95.6C278.477 95.3 278.627 94.988 278.675 94.664C278.723 94.328 278.747 93.98 278.747 93.62V91.136C278.747 91.016 278.783 90.92 278.855 90.848C278.939 90.764 279.041 90.722 279.161 90.722H279.917C280.037 90.722 280.133 90.764 280.205 90.848C280.289 90.92 280.331 91.016 280.331 91.136V93.71C280.331 94.214 280.271 94.7 280.151 95.168C280.031 95.636 279.785 96.08 279.413 96.5C279.053 96.92 278.489 97.322 277.721 97.706ZM284.235 101C283.971 101 283.839 100.868 283.839 100.604V94.178C283.839 93.47 283.923 92.918 284.091 92.522C284.259 92.126 284.463 91.928 284.703 91.928H286.485C286.185 91.928 285.939 92.156 285.747 92.612C285.567 93.068 285.477 93.632 285.477 94.304V100.604C285.477 100.724 285.435 100.82 285.351 100.892C285.267 100.964 285.165 101 285.045 101H284.235ZM282.723 92.162C282.603 92.162 282.501 92.126 282.417 92.054C282.345 91.97 282.309 91.868 282.309 91.748V91.136C282.309 91.016 282.345 90.92 282.417 90.848C282.501 90.764 282.603 90.722 282.723 90.722H287.079C287.211 90.722 287.313 90.764 287.385 90.848C287.457 90.92 287.493 91.016 287.493 91.136V91.748C287.493 91.868 287.457 91.97 287.385 92.054C287.313 92.126 287.211 92.162 287.079 92.162H282.723ZM91.9991 129.99C91.8791 130.038 91.7651 130.026 91.6571 129.954C91.5491 129.894 91.4951 129.804 91.4951 129.684V129.072C91.4951 128.964 91.5191 128.862 91.5671 128.766C91.6151 128.67 91.6931 128.61 91.8011 128.586L95.5991 127.326C96.2831 127.098 96.8111 126.804 97.1831 126.444C97.5551 126.084 97.8131 125.664 97.9571 125.184C98.1131 124.704 98.1911 124.182 98.1911 123.618V119.136C98.1911 119.016 98.2271 118.92 98.2991 118.848C98.3831 118.764 98.4851 118.722 98.6051 118.722H99.4151C99.5351 118.722 99.6311 118.764 99.7031 118.848C99.7871 118.92 99.8291 119.016 99.8291 119.136V124.122C99.8291 124.818 99.6671 125.478 99.3431 126.102C99.0311 126.714 98.5871 127.254 98.0111 127.722C97.4351 128.178 96.7511 128.526 95.9591 128.766L91.9991 129.99ZM94.3571 128.568L91.8191 119.442C91.7951 119.346 91.7711 119.274 91.7471 119.226C91.7351 119.178 91.7291 119.13 91.7291 119.082C91.7291 118.986 91.7651 118.902 91.8371 118.83C91.9091 118.758 91.9931 118.722 92.0891 118.722H92.9711C93.1991 118.722 93.3371 118.812 93.3851 118.992L95.8871 128.154L94.3571 128.568ZM102.909 129C102.789 129 102.687 128.964 102.603 128.892C102.531 128.808 102.495 128.706 102.495 128.586V119.136C102.495 119.016 102.531 118.92 102.603 118.848C102.687 118.764 102.789 118.722 102.909 118.722H103.755C103.887 118.722 103.989 118.764 104.061 118.848C104.133 118.92 104.169 119.016 104.169 119.136V128.586C104.169 128.706 104.133 128.808 104.061 128.892C103.989 128.964 103.887 129 103.755 129H102.909ZM111.659 129C111.539 129 111.443 128.964 111.371 128.892C111.311 128.808 111.269 128.706 111.245 128.586L110.147 123.06C110.027 122.424 109.883 121.896 109.715 121.476C109.559 121.044 109.343 120.72 109.067 120.504C108.803 120.276 108.437 120.162 107.969 120.162H107.321C107.201 120.162 107.099 120.126 107.015 120.054C106.943 119.97 106.907 119.868 106.907 119.748V119.1C106.907 118.98 106.943 118.884 107.015 118.812C107.099 118.728 107.201 118.686 107.321 118.686H107.987C108.791 118.686 109.439 118.848 109.931 119.172C110.423 119.484 110.813 119.958 111.101 120.594C111.401 121.23 111.647 122.022 111.839 122.97L112.919 128.586C112.943 128.706 112.913 128.808 112.829 128.892C112.745 128.964 112.643 129 112.523 129H111.659ZM109.337 128.082C108.893 128.382 108.473 128.616 108.077 128.784C107.693 128.94 107.291 129.06 106.871 129.144C106.751 129.156 106.649 129.144 106.565 129.108C106.481 129.072 106.439 128.994 106.439 128.874V127.974C106.439 127.77 106.565 127.62 106.817 127.524C106.901 127.488 107.057 127.434 107.285 127.362C107.513 127.29 107.759 127.2 108.023 127.092C108.287 126.972 108.515 126.852 108.707 126.732C109.007 126.54 109.301 126.294 109.589 125.994C109.877 125.682 110.117 125.364 110.309 125.04C110.513 124.704 110.615 124.41 110.615 124.158L111.659 124.032C111.647 124.548 111.533 125.07 111.317 125.598C111.101 126.126 110.819 126.606 110.471 127.038C110.123 127.47 109.745 127.818 109.337 128.082ZM116.416 120.198V121.602C116.428 122.034 116.482 122.394 116.578 122.682C116.674 122.97 116.86 123.15 117.136 123.222L117.802 123.402C117.898 123.426 117.97 123.492 118.018 123.6C118.078 123.696 118.108 123.816 118.108 123.96V124.41C118.108 124.542 118.042 124.638 117.91 124.698C117.778 124.758 117.634 124.776 117.478 124.752L116.776 124.608C116.392 124.512 116.062 124.344 115.786 124.104C115.51 123.852 115.3 123.516 115.156 123.096C115.024 122.664 114.958 122.148 114.958 121.548V119.136C114.958 119.016 114.994 118.92 115.066 118.848C115.138 118.764 115.24 118.722 115.372 118.722H118.702C119.602 118.722 120.352 118.902 120.952 119.262C121.552 119.61 122.008 120.12 122.32 120.792C122.632 121.452 122.8 122.25 122.824 123.186C122.836 123.366 122.842 123.594 122.842 123.87C122.842 124.134 122.836 124.356 122.824 124.536C122.8 125.46 122.632 126.258 122.32 126.93C122.008 127.602 121.552 128.118 120.952 128.478C120.352 128.826 119.602 129 118.702 129H115.588C115.468 129 115.366 128.964 115.282 128.892C115.21 128.808 115.174 128.706 115.174 128.586V127.938C115.174 127.818 115.21 127.722 115.282 127.65C115.366 127.566 115.468 127.524 115.588 127.524H118.612C119.44 127.524 120.076 127.26 120.52 126.732C120.976 126.192 121.228 125.442 121.276 124.482C121.288 124.302 121.294 124.098 121.294 123.87C121.294 123.63 121.288 123.42 121.276 123.24C121.252 122.28 121.006 121.536 120.538 121.008C120.082 120.468 119.44 120.198 118.612 120.198H116.416ZM127.245 129.162C127.137 129.198 127.035 129.18 126.939 129.108C126.843 129.048 126.795 128.958 126.795 128.838V128.01C126.795 127.902 126.825 127.806 126.885 127.722C126.957 127.638 127.059 127.572 127.191 127.524L127.893 127.254C128.361 127.062 128.787 126.822 129.171 126.534C129.567 126.234 129.873 125.832 130.089 125.328C130.317 124.824 130.431 124.164 130.431 123.348C130.431 122.568 130.335 121.95 130.143 121.494C129.963 121.026 129.651 120.696 129.207 120.504C128.775 120.3 128.181 120.198 127.425 120.198H126.885C126.765 120.198 126.663 120.162 126.579 120.09C126.507 120.006 126.471 119.904 126.471 119.784V119.136C126.471 119.016 126.507 118.92 126.579 118.848C126.663 118.764 126.765 118.722 126.885 118.722H127.677C128.769 118.722 129.639 118.878 130.287 119.19C130.935 119.502 131.397 120.006 131.673 120.702C131.961 121.386 132.105 122.286 132.105 123.402C132.105 124.242 131.991 124.968 131.763 125.58C131.535 126.192 131.223 126.714 130.827 127.146C130.443 127.578 130.005 127.938 129.513 128.226C129.021 128.502 128.511 128.73 127.983 128.91L127.245 129.162ZM127.281 120.198L125.139 120.18C125.019 120.18 124.917 120.144 124.833 120.072C124.761 120 124.725 119.904 124.725 119.784V116.634C124.725 116.514 124.761 116.418 124.833 116.346C124.917 116.262 125.019 116.22 125.139 116.22H125.895C126.015 116.22 126.111 116.262 126.183 116.346C126.267 116.418 126.309 116.514 126.309 116.634V118.722H127.317L127.281 120.198ZM134.884 129C134.764 129 134.662 128.964 134.578 128.892C134.506 128.808 134.47 128.706 134.47 128.586V119.136C134.47 119.016 134.506 118.92 134.578 118.848C134.662 118.764 134.764 118.722 134.884 118.722H135.73C135.862 118.722 135.964 118.764 136.036 118.848C136.108 118.92 136.144 119.016 136.144 119.136V128.586C136.144 128.706 136.108 128.808 136.036 128.892C135.964 128.964 135.862 129 135.73 129H134.884ZM143.743 131.232C143.623 131.232 143.521 131.19 143.437 131.106C143.365 131.034 143.329 130.938 143.329 130.818V119.136C143.329 119.016 143.365 118.92 143.437 118.848C143.521 118.764 143.623 118.722 143.743 118.722H144.553C144.685 118.722 144.787 118.764 144.859 118.848C144.931 118.92 144.967 119.016 144.967 119.136V130.818C144.967 130.938 144.931 131.034 144.859 131.106C144.787 131.19 144.685 131.232 144.553 131.232H143.743ZM148.155 129C148.035 129 147.933 128.964 147.849 128.892C147.777 128.808 147.741 128.706 147.741 128.586V119.136C147.741 119.016 147.777 118.92 147.849 118.848C147.933 118.764 148.035 118.722 148.155 118.722H149.001C149.133 118.722 149.235 118.764 149.307 118.848C149.379 118.92 149.415 119.016 149.415 119.136V128.586C149.415 128.706 149.379 128.808 149.307 128.892C149.235 128.964 149.133 129 149.001 129H148.155ZM152.603 129C152.483 129 152.381 128.964 152.297 128.892C152.225 128.808 152.189 128.706 152.189 128.586V119.136C152.189 119.016 152.225 118.92 152.297 118.848C152.381 118.764 152.483 118.722 152.603 118.722H153.449C153.581 118.722 153.683 118.764 153.755 118.848C153.827 118.92 153.863 119.016 153.863 119.136V128.586C153.863 128.706 153.827 128.808 153.755 128.892C153.683 128.964 153.581 129 153.449 129H152.603ZM157.05 129C156.93 129 156.828 128.964 156.744 128.892C156.672 128.808 156.636 128.706 156.636 128.586V127.938C156.636 127.818 156.672 127.722 156.744 127.65C156.828 127.566 156.93 127.524 157.05 127.524H159.624C160.692 127.524 161.46 127.26 161.928 126.732C162.396 126.192 162.654 125.442 162.702 124.482C162.714 124.218 162.72 124.008 162.72 123.852C162.72 123.696 162.714 123.492 162.702 123.24C162.666 122.28 162.408 121.536 161.928 121.008C161.46 120.468 160.692 120.198 159.624 120.198H157.05C156.93 120.198 156.828 120.162 156.744 120.09C156.672 120.006 156.636 119.904 156.636 119.784V119.136C156.636 119.016 156.672 118.92 156.744 118.848C156.828 118.764 156.93 118.722 157.05 118.722H159.714C160.77 118.722 161.628 118.902 162.288 119.262C162.948 119.61 163.44 120.12 163.764 120.792C164.1 121.452 164.28 122.25 164.304 123.186C164.316 123.426 164.322 123.648 164.322 123.852C164.322 124.056 164.316 124.284 164.304 124.536C164.28 125.46 164.1 126.258 163.764 126.93C163.44 127.602 162.948 128.118 162.288 128.478C161.628 128.826 160.77 129 159.714 129H157.05ZM168.659 129.162C168.551 129.198 168.449 129.18 168.353 129.108C168.257 129.048 168.209 128.958 168.209 128.838V128.01C168.209 127.902 168.239 127.806 168.299 127.722C168.371 127.638 168.473 127.572 168.605 127.524L169.307 127.254C169.775 127.062 170.201 126.822 170.585 126.534C170.981 126.234 171.287 125.832 171.503 125.328C171.731 124.824 171.845 124.164 171.845 123.348C171.845 122.568 171.749 121.95 171.557 121.494C171.377 121.026 171.065 120.696 170.621 120.504C170.189 120.3 169.595 120.198 168.839 120.198H168.299C168.179 120.198 168.077 120.162 167.993 120.09C167.921 120.006 167.885 119.904 167.885 119.784V119.136C167.885 119.016 167.921 118.92 167.993 118.848C168.077 118.764 168.179 118.722 168.299 118.722H169.091C170.183 118.722 171.053 118.878 171.701 119.19C172.349 119.502 172.811 120.006 173.087 120.702C173.375 121.386 173.519 122.286 173.519 123.402C173.519 124.242 173.405 124.968 173.177 125.58C172.949 126.192 172.637 126.714 172.241 127.146C171.857 127.578 171.419 127.938 170.927 128.226C170.435 128.502 169.925 128.73 169.397 128.91L168.659 129.162ZM168.695 120.198L166.553 120.18C166.433 120.18 166.331 120.144 166.247 120.072C166.175 120 166.139 119.904 166.139 119.784V116.634C166.139 116.514 166.175 116.418 166.247 116.346C166.331 116.262 166.433 116.22 166.553 116.22H167.309C167.429 116.22 167.525 116.262 167.597 116.346C167.681 116.418 167.723 116.514 167.723 116.634V118.722H168.731L168.695 120.198ZM180.71 129C180.59 129 180.488 128.964 180.404 128.892C180.332 128.808 180.296 128.706 180.296 128.586V119.136C180.296 119.016 180.332 118.92 180.404 118.848C180.488 118.764 180.59 118.722 180.71 118.722H184.148C185.18 118.722 186.032 118.89 186.704 119.226C187.376 119.55 187.874 120.036 188.198 120.684C188.534 121.332 188.702 122.142 188.702 123.114V128.586C188.702 128.706 188.666 128.808 188.594 128.892C188.522 128.964 188.42 129 188.288 129H180.71ZM181.844 127.56H187.1V123.204C187.1 122.244 186.86 121.5 186.38 120.972C185.9 120.432 185.126 120.162 184.058 120.162H181.844V127.56ZM191.658 124.824C191.538 124.824 191.436 124.788 191.352 124.716C191.28 124.632 191.244 124.53 191.244 124.41V119.136C191.244 119.016 191.28 118.92 191.352 118.848C191.436 118.764 191.538 118.722 191.658 118.722H192.504C192.636 118.722 192.738 118.764 192.81 118.848C192.882 118.92 192.918 119.016 192.918 119.136V124.41C192.918 124.53 192.882 124.632 192.81 124.716C192.738 124.788 192.636 124.824 192.504 124.824H191.658ZM197.803 129.162C197.695 129.198 197.593 129.18 197.497 129.108C197.401 129.048 197.353 128.958 197.353 128.838V128.01C197.353 127.902 197.383 127.806 197.443 127.722C197.515 127.638 197.617 127.572 197.749 127.524L198.451 127.254C198.919 127.062 199.345 126.822 199.729 126.534C200.125 126.234 200.431 125.832 200.647 125.328C200.875 124.824 200.989 124.164 200.989 123.348C200.989 122.568 200.893 121.95 200.701 121.494C200.521 121.026 200.209 120.696 199.765 120.504C199.333 120.3 198.739 120.198 197.983 120.198H197.443C197.323 120.198 197.221 120.162 197.137 120.09C197.065 120.006 197.029 119.904 197.029 119.784V119.136C197.029 119.016 197.065 118.92 197.137 118.848C197.221 118.764 197.323 118.722 197.443 118.722H198.235C199.327 118.722 200.197 118.878 200.845 119.19C201.493 119.502 201.955 120.006 202.231 120.702C202.519 121.386 202.663 122.286 202.663 123.402C202.663 124.242 202.549 124.968 202.321 125.58C202.093 126.192 201.781 126.714 201.385 127.146C201.001 127.578 200.563 127.938 200.071 128.226C199.579 128.502 199.069 128.73 198.541 128.91L197.803 129.162ZM197.839 120.198L195.697 120.18C195.577 120.18 195.475 120.144 195.391 120.072C195.319 120 195.283 119.904 195.283 119.784V116.634C195.283 116.514 195.319 116.418 195.391 116.346C195.475 116.262 195.577 116.22 195.697 116.22H196.453C196.573 116.22 196.669 116.262 196.741 116.346C196.825 116.418 196.867 116.514 196.867 116.634V118.722H197.875L197.839 120.198ZM205.443 129C205.323 129 205.221 128.964 205.137 128.892C205.065 128.808 205.029 128.706 205.029 128.586V119.136C205.029 119.016 205.065 118.92 205.137 118.848C205.221 118.764 205.323 118.722 205.443 118.722H206.289C206.421 118.722 206.523 118.764 206.595 118.848C206.667 118.92 206.703 119.016 206.703 119.136V128.586C206.703 128.706 206.667 128.808 206.595 128.892C206.523 128.964 206.421 129 206.289 129H205.443ZM209.89 129C209.77 129 209.668 128.964 209.584 128.892C209.512 128.808 209.476 128.706 209.476 128.586V127.938C209.476 127.818 209.512 127.722 209.584 127.65C209.668 127.566 209.77 127.524 209.89 127.524H212.464C213.532 127.524 214.3 127.26 214.768 126.732C215.236 126.192 215.494 125.442 215.542 124.482C215.554 124.218 215.56 124.008 215.56 123.852C215.56 123.696 215.554 123.492 215.542 123.24C215.506 122.28 215.248 121.536 214.768 121.008C214.3 120.468 213.532 120.198 212.464 120.198H209.89C209.77 120.198 209.668 120.162 209.584 120.09C209.512 120.006 209.476 119.904 209.476 119.784V119.136C209.476 119.016 209.512 118.92 209.584 118.848C209.668 118.764 209.77 118.722 209.89 118.722H212.554C213.61 118.722 214.468 118.902 215.128 119.262C215.788 119.61 216.28 120.12 216.604 120.792C216.94 121.452 217.12 122.25 217.144 123.186C217.156 123.426 217.162 123.648 217.162 123.852C217.162 124.056 217.156 124.284 217.144 124.536C217.12 125.46 216.94 126.258 216.604 126.93C216.28 127.602 215.788 128.118 215.128 128.478C214.468 128.826 213.61 129 212.554 129H209.89ZM219.801 124.824C219.681 124.824 219.579 124.788 219.495 124.716C219.423 124.632 219.387 124.53 219.387 124.41V119.136C219.387 119.016 219.423 118.92 219.495 118.848C219.579 118.764 219.681 118.722 219.801 118.722H220.647C220.779 118.722 220.881 118.764 220.953 118.848C221.025 118.92 221.061 119.016 221.061 119.136V124.41C221.061 124.53 221.025 124.632 220.953 124.716C220.881 124.788 220.779 124.824 220.647 124.824H219.801ZM228.558 129C228.438 129 228.336 128.964 228.252 128.892C228.18 128.808 228.144 128.706 228.144 128.586V119.136C228.144 119.016 228.18 118.92 228.252 118.848C228.336 118.764 228.438 118.722 228.558 118.722H231.996C233.028 118.722 233.88 118.89 234.552 119.226C235.224 119.55 235.722 120.036 236.046 120.684C236.382 121.332 236.55 122.142 236.55 123.114V128.586C236.55 128.706 236.514 128.808 236.442 128.892C236.37 128.964 236.268 129 236.136 129H228.558ZM229.692 127.56H234.948V123.204C234.948 122.244 234.708 121.5 234.228 120.972C233.748 120.432 232.974 120.162 231.906 120.162H229.692V127.56ZM239.938 120.162C239.818 120.162 239.716 120.126 239.632 120.054C239.56 119.97 239.524 119.868 239.524 119.748V119.136C239.524 119.016 239.56 118.92 239.632 118.848C239.716 118.764 239.818 118.722 239.938 118.722H243.844C244.876 118.722 245.728 118.89 246.4 119.226C247.084 119.55 247.594 120.042 247.93 120.702C248.266 121.35 248.434 122.154 248.434 123.114V128.586C248.434 128.706 248.392 128.808 248.308 128.892C248.236 128.964 248.14 129 248.02 129H247.21C247.078 129 246.976 128.964 246.904 128.892C246.832 128.808 246.796 128.706 246.796 128.586V123.204C246.796 122.244 246.55 121.5 246.058 120.972C245.578 120.432 244.804 120.162 243.736 120.162H239.938ZM241.558 119.28H242.008C242.188 119.28 242.32 119.328 242.404 119.424C242.5 119.508 242.542 119.616 242.53 119.748C242.434 120.252 242.35 120.708 242.278 121.116C242.218 121.524 242.176 121.932 242.152 122.34C242.128 122.736 242.116 123.186 242.116 123.69L242.152 128.586C242.152 128.706 242.116 128.808 242.044 128.892C241.972 128.964 241.876 129 241.756 129L239.2 128.964C239.08 128.964 238.978 128.928 238.894 128.856C238.822 128.784 238.786 128.682 238.786 128.55V127.974C238.786 127.854 238.822 127.758 238.894 127.686C238.978 127.602 239.08 127.56 239.2 127.56L240.586 127.578V123.762C240.586 123.27 240.592 122.82 240.604 122.412C240.616 121.992 240.652 121.572 240.712 121.152C240.772 120.732 240.868 120.258 241 119.73C241.036 119.598 241.09 119.49 241.162 119.406C241.246 119.322 241.378 119.28 241.558 119.28ZM258.103 129C257.971 129 257.869 128.964 257.797 128.892C257.725 128.82 257.659 128.76 257.599 128.712L250.993 119.424C250.909 119.292 250.867 119.178 250.867 119.082C250.867 118.986 250.903 118.902 250.975 118.83C251.059 118.758 251.149 118.722 251.245 118.722H252.073C252.217 118.722 252.325 118.758 252.397 118.83C252.481 118.902 252.547 118.968 252.595 119.028L259.219 128.298C259.267 128.382 259.297 128.448 259.309 128.496C259.333 128.544 259.345 128.592 259.345 128.64C259.345 128.736 259.309 128.82 259.237 128.892C259.165 128.964 259.075 129 258.967 129H258.103ZM251.083 129C250.963 129 250.861 128.964 250.777 128.892C250.705 128.808 250.669 128.706 250.669 128.586V125.886C250.669 125.334 250.723 124.812 250.831 124.32C250.939 123.816 251.149 123.342 251.461 122.898C251.785 122.442 252.265 122.016 252.901 121.62L253.729 122.826C253.297 123.102 252.973 123.42 252.757 123.78C252.541 124.128 252.397 124.494 252.325 124.878C252.253 125.25 252.217 125.61 252.217 125.958V128.586C252.217 128.706 252.175 128.808 252.091 128.892C252.019 128.964 251.923 129 251.803 129H251.083ZM256.663 125.706L255.925 124.464C256.513 124.188 256.927 123.9 257.167 123.6C257.419 123.3 257.569 122.988 257.617 122.664C257.665 122.328 257.689 121.98 257.689 121.62V119.136C257.689 119.016 257.725 118.92 257.797 118.848C257.881 118.764 257.983 118.722 258.103 118.722H258.859C258.979 118.722 259.075 118.764 259.147 118.848C259.231 118.92 259.273 119.016 259.273 119.136V121.71C259.273 122.214 259.213 122.7 259.093 123.168C258.973 123.636 258.727 124.08 258.355 124.5C257.995 124.92 257.431 125.322 256.663 125.706ZM57.1583 151.204C57.1583 150.244 56.9123 149.5 56.4203 148.972C55.9403 148.432 55.1663 148.162 54.0983 148.162H51.4523C51.3323 148.162 51.2303 148.126 51.1463 148.054C51.0743 147.97 51.0383 147.868 51.0383 147.748V147.136C51.0383 147.016 51.0743 146.92 51.1463 146.848C51.2303 146.764 51.3323 146.722 51.4523 146.722H54.1883C55.2323 146.722 56.0903 146.884 56.7623 147.208C57.4463 147.52 57.9563 148 58.2923 148.648C58.6283 149.284 58.7963 150.106 58.7963 151.114V158.818C58.7963 158.938 58.7543 159.034 58.6703 159.106C58.5983 159.19 58.5023 159.232 58.3823 159.232H57.5723C57.4403 159.232 57.3383 159.19 57.2663 159.106C57.1943 159.034 57.1583 158.938 57.1583 158.818V151.204ZM61.882 157C61.762 157 61.66 156.964 61.576 156.892C61.504 156.808 61.468 156.706 61.468 156.586V155.938C61.468 155.818 61.504 155.722 61.576 155.65C61.66 155.566 61.762 155.524 61.882 155.524H64.456C65.524 155.524 66.292 155.26 66.76 154.732C67.228 154.192 67.486 153.442 67.534 152.482C67.546 152.218 67.552 152.008 67.552 151.852C67.552 151.696 67.546 151.492 67.534 151.24C67.498 150.28 67.24 149.536 66.76 149.008C66.292 148.468 65.524 148.198 64.456 148.198H61.882C61.762 148.198 61.66 148.162 61.576 148.09C61.504 148.006 61.468 147.904 61.468 147.784V147.136C61.468 147.016 61.504 146.92 61.576 146.848C61.66 146.764 61.762 146.722 61.882 146.722H64.546C65.602 146.722 66.46 146.902 67.12 147.262C67.78 147.61 68.272 148.12 68.596 148.792C68.932 149.452 69.112 150.25 69.136 151.186C69.148 151.426 69.154 151.648 69.154 151.852C69.154 152.056 69.148 152.284 69.136 152.536C69.112 153.46 68.932 154.258 68.596 154.93C68.272 155.602 67.78 156.118 67.12 156.478C66.46 156.826 65.602 157 64.546 157H61.882ZM71.9191 157C71.7991 157 71.6971 156.964 71.6131 156.892C71.5411 156.808 71.5051 156.706 71.5051 156.586V147.136C71.5051 147.016 71.5411 146.92 71.6131 146.848C71.6971 146.764 71.7991 146.722 71.9191 146.722H72.7651C72.8971 146.722 72.9991 146.764 73.0711 146.848C73.1431 146.92 73.1791 147.016 73.1791 147.136V156.586C73.1791 156.706 73.1431 156.808 73.0711 156.892C72.9991 156.964 72.8971 157 72.7651 157H71.9191ZM81.0845 148.162C80.9645 148.162 80.8625 148.126 80.7785 148.054C80.7065 147.97 80.6705 147.868 80.6705 147.748V147.136C80.6705 147.016 80.7065 146.92 80.7785 146.848C80.8625 146.764 80.9645 146.722 81.0845 146.722H84.9905C86.0225 146.722 86.8745 146.89 87.5465 147.226C88.2305 147.55 88.7405 148.042 89.0765 148.702C89.4125 149.35 89.5805 150.154 89.5805 151.114V156.586C89.5805 156.706 89.5385 156.808 89.4545 156.892C89.3825 156.964 89.2865 157 89.1665 157H88.3565C88.2245 157 88.1225 156.964 88.0505 156.892C87.9785 156.808 87.9425 156.706 87.9425 156.586V151.204C87.9425 150.244 87.6965 149.5 87.2045 148.972C86.7245 148.432 85.9505 148.162 84.8825 148.162H81.0845ZM82.7045 147.28H83.1545C83.3345 147.28 83.4665 147.328 83.5505 147.424C83.6465 147.508 83.6885 147.616 83.6765 147.748C83.5805 148.252 83.4965 148.708 83.4245 149.116C83.3645 149.524 83.3225 149.932 83.2985 150.34C83.2745 150.736 83.2625 151.186 83.2625 151.69L83.2985 156.586C83.2985 156.706 83.2625 156.808 83.1905 156.892C83.1185 156.964 83.0225 157 82.9025 157L80.3465 156.964C80.2265 156.964 80.1245 156.928 80.0405 156.856C79.9685 156.784 79.9325 156.682 79.9325 156.55V155.974C79.9325 155.854 79.9685 155.758 80.0405 155.686C80.1245 155.602 80.2265 155.56 80.3465 155.56L81.7325 155.578V151.762C81.7325 151.27 81.7385 150.82 81.7505 150.412C81.7625 149.992 81.7985 149.572 81.8585 149.152C81.9185 148.732 82.0145 148.258 82.1465 147.73C82.1825 147.598 82.2365 147.49 82.3085 147.406C82.3925 147.322 82.5245 147.28 82.7045 147.28ZM92.6613 160.438C92.5413 160.438 92.4393 160.396 92.3553 160.312C92.2833 160.24 92.2473 160.144 92.2473 160.024V150.574C92.2473 150.454 92.2833 150.358 92.3553 150.286C92.4393 150.202 92.5413 150.16 92.6613 150.16H93.4533C93.5853 150.16 93.6873 150.202 93.7593 150.286C93.8313 150.358 93.8673 150.454 93.8673 150.574V160.024C93.8673 160.144 93.8313 160.24 93.7593 160.312C93.6873 160.396 93.5853 160.438 93.4533 160.438H92.6613ZM96.1173 157.162C96.0093 157.198 95.9073 157.18 95.8113 157.108C95.7273 157.048 95.6853 156.958 95.6853 156.838V156.01C95.6853 155.902 95.7153 155.806 95.7753 155.722C95.8473 155.638 95.9493 155.572 96.0813 155.524L96.7653 155.254C97.2453 155.062 97.6773 154.822 98.0613 154.534C98.4573 154.234 98.7633 153.832 98.9793 153.328C99.2073 152.824 99.3213 152.164 99.3213 151.348C99.3213 150.568 99.2253 149.95 99.0333 149.494C98.8413 149.026 98.5233 148.696 98.0793 148.504C97.6473 148.3 97.0593 148.198 96.3153 148.198H92.6613C92.5413 148.198 92.4393 148.162 92.3553 148.09C92.2833 148.006 92.2473 147.904 92.2473 147.784V147.136C92.2473 147.016 92.2833 146.92 92.3553 146.848C92.4393 146.764 92.5413 146.722 92.6613 146.722H96.5493C97.6533 146.722 98.5233 146.878 99.1593 147.19C99.8073 147.502 100.269 148.006 100.545 148.702C100.833 149.386 100.977 150.286 100.977 151.402C100.977 152.242 100.863 152.968 100.635 153.58C100.407 154.192 100.095 154.714 99.6993 155.146C99.3153 155.578 98.8773 155.938 98.3853 156.226C97.9053 156.502 97.4013 156.73 96.8733 156.91L96.1173 157.162ZM103.803 152.824C103.683 152.824 103.581 152.788 103.497 152.716C103.425 152.632 103.389 152.53 103.389 152.41V147.136C103.389 147.016 103.425 146.92 103.497 146.848C103.581 146.764 103.683 146.722 103.803 146.722H104.649C104.781 146.722 104.883 146.764 104.955 146.848C105.027 146.92 105.063 147.016 105.063 147.136V152.41C105.063 152.53 105.027 152.632 104.955 152.716C104.883 152.788 104.781 152.824 104.649 152.824H103.803ZM108.022 152.824C107.902 152.824 107.8 152.788 107.716 152.716C107.644 152.632 107.608 152.53 107.608 152.41V147.136C107.608 147.016 107.644 146.92 107.716 146.848C107.8 146.764 107.902 146.722 108.022 146.722H108.868C109 146.722 109.102 146.764 109.174 146.848C109.246 146.92 109.282 147.016 109.282 147.136V152.41C109.282 152.53 109.246 152.632 109.174 152.716C109.102 152.788 109 152.824 108.868 152.824H108.022ZM112.366 157C112.246 157 112.144 156.964 112.06 156.892C111.988 156.808 111.952 156.706 111.952 156.586V147.136C111.952 147.016 111.988 146.92 112.06 146.848C112.144 146.764 112.246 146.722 112.366 146.722H113.212C113.344 146.722 113.446 146.764 113.518 146.848C113.59 146.92 113.626 147.016 113.626 147.136V156.586C113.626 156.706 113.59 156.808 113.518 156.892C113.446 156.964 113.344 157 113.212 157H112.366ZM120.954 157C120.69 157 120.558 156.868 120.558 156.604V150.178C120.558 149.47 120.642 148.918 120.81 148.522C120.978 148.126 121.188 147.928 121.44 147.928H123.204C122.904 147.928 122.658 148.156 122.466 148.612C122.286 149.068 122.196 149.632 122.196 150.304V156.604C122.196 156.724 122.154 156.82 122.07 156.892C121.986 156.964 121.884 157 121.764 157H120.954ZM116.094 148.162C115.974 148.162 115.872 148.126 115.788 148.054C115.716 147.97 115.68 147.868 115.68 147.748V147.136C115.68 147.016 115.716 146.92 115.788 146.848C115.872 146.764 115.974 146.722 116.094 146.722H123.816C123.936 146.722 124.032 146.764 124.104 146.848C124.188 146.92 124.23 147.016 124.23 147.136V147.748C124.23 147.868 124.188 147.97 124.104 148.054C124.032 148.126 123.936 148.162 123.816 148.162H116.094ZM130.919 148.198H126.545C126.413 148.198 126.311 148.162 126.239 148.09C126.167 148.006 126.131 147.904 126.131 147.784V147.136C126.131 147.016 126.167 146.92 126.239 146.848C126.311 146.764 126.413 146.722 126.545 146.722H131.117C131.861 146.722 132.521 146.896 133.097 147.244C133.685 147.592 134.141 148.096 134.465 148.756C134.801 149.404 134.969 150.19 134.969 151.114V156.586C134.969 156.706 134.927 156.808 134.843 156.892C134.771 156.964 134.675 157 134.555 157H129.911C129.791 157 129.689 156.964 129.605 156.892C129.533 156.808 129.497 156.706 129.497 156.586V155.974C129.497 155.854 129.533 155.758 129.605 155.686C129.689 155.602 129.791 155.56 129.911 155.56H133.331V151.222C133.331 150.61 133.223 150.076 133.007 149.62C132.803 149.164 132.515 148.816 132.143 148.576C131.783 148.324 131.375 148.198 130.919 148.198ZM126.365 157C126.257 157 126.167 156.958 126.095 156.874C126.023 156.79 125.993 156.688 126.005 156.568L127.535 147.748C127.559 147.628 127.613 147.538 127.697 147.478C127.781 147.406 127.883 147.382 128.003 147.406L128.723 147.442C128.843 147.454 128.939 147.508 129.011 147.604C129.083 147.688 129.101 147.79 129.065 147.91L127.643 156.568C127.631 156.688 127.577 156.79 127.481 156.874C127.397 156.958 127.295 157 127.175 157H126.365ZM142.334 152.824C142.214 152.824 142.112 152.788 142.028 152.716C141.956 152.632 141.92 152.53 141.92 152.41V147.136C141.92 147.016 141.956 146.92 142.028 146.848C142.112 146.764 142.214 146.722 142.334 146.722H143.18C143.312 146.722 143.414 146.764 143.486 146.848C143.558 146.92 143.594 147.016 143.594 147.136V152.41C143.594 152.53 143.558 152.632 143.486 152.716C143.414 152.788 143.312 152.824 143.18 152.824H142.334ZM146.679 157C146.559 157 146.457 156.964 146.373 156.892C146.301 156.808 146.265 156.706 146.265 156.586V155.938C146.265 155.818 146.301 155.722 146.373 155.65C146.457 155.566 146.559 155.524 146.679 155.524H149.253C150.321 155.524 151.089 155.26 151.557 154.732C152.025 154.192 152.283 153.442 152.331 152.482C152.343 152.218 152.349 152.008 152.349 151.852C152.349 151.696 152.343 151.492 152.331 151.24C152.295 150.28 152.037 149.536 151.557 149.008C151.089 148.468 150.321 148.198 149.253 148.198H146.679C146.559 148.198 146.457 148.162 146.373 148.09C146.301 148.006 146.265 147.904 146.265 147.784V147.136C146.265 147.016 146.301 146.92 146.373 146.848C146.457 146.764 146.559 146.722 146.679 146.722H149.343C150.399 146.722 151.257 146.902 151.917 147.262C152.577 147.61 153.069 148.12 153.393 148.792C153.729 149.452 153.909 150.25 153.933 151.186C153.945 151.426 153.951 151.648 153.951 151.852C153.951 152.056 153.945 152.284 153.933 152.536C153.909 153.46 153.729 154.258 153.393 154.93C153.069 155.602 152.577 156.118 151.917 156.478C151.257 156.826 150.399 157 149.343 157H146.679ZM163.556 157C163.436 157 163.334 156.964 163.25 156.892C163.178 156.808 163.142 156.706 163.142 156.586V151.204C163.142 150.244 162.902 149.5 162.422 148.972C161.942 148.432 161.168 148.162 160.1 148.162H156.716C156.596 148.162 156.494 148.126 156.41 148.054C156.338 147.97 156.302 147.868 156.302 147.748V147.136C156.302 147.016 156.338 146.92 156.41 146.848C156.494 146.764 156.596 146.722 156.716 146.722H160.19C161.75 146.722 162.902 147.1 163.646 147.856C164.402 148.612 164.78 149.71 164.78 151.15V156.586C164.78 156.706 164.738 156.808 164.654 156.892C164.582 156.964 164.486 157 164.366 157H163.556ZM156.716 157C156.596 157 156.494 156.964 156.41 156.892C156.338 156.808 156.302 156.706 156.302 156.586V150.574C156.302 150.454 156.338 150.358 156.41 150.286C156.494 150.202 156.596 150.16 156.716 150.16H157.526C157.658 150.16 157.76 150.202 157.832 150.286C157.904 150.358 157.94 150.454 157.94 150.574V156.586C157.94 156.706 157.904 156.808 157.832 156.892C157.76 156.964 157.658 157 157.526 157H156.716ZM179.113 157C178.993 157 178.891 156.964 178.807 156.892C178.735 156.808 178.699 156.706 178.699 156.586V151.204C178.699 150.244 178.459 149.5 177.979 148.972C177.499 148.432 176.725 148.162 175.657 148.162H172.273C172.153 148.162 172.051 148.126 171.967 148.054C171.895 147.97 171.859 147.868 171.859 147.748V147.136C171.859 147.016 171.895 146.92 171.967 146.848C172.051 146.764 172.153 146.722 172.273 146.722H175.747C177.307 146.722 178.459 147.1 179.203 147.856C179.959 148.612 180.337 149.71 180.337 151.15V156.586C180.337 156.706 180.295 156.808 180.211 156.892C180.139 156.964 180.043 157 179.923 157H179.113ZM172.273 157C172.153 157 172.051 156.964 171.967 156.892C171.895 156.808 171.859 156.706 171.859 156.586V150.574C171.859 150.454 171.895 150.358 171.967 150.286C172.051 150.202 172.153 150.16 172.273 150.16H173.083C173.215 150.16 173.317 150.202 173.389 150.286C173.461 150.358 173.497 150.454 173.497 150.574V156.586C173.497 156.706 173.461 156.808 173.389 156.892C173.317 156.964 173.215 157 173.083 157H172.273ZM188.413 157C188.293 157 188.191 156.964 188.107 156.892C188.035 156.808 187.999 156.706 187.999 156.586V151.204C187.999 150.244 187.759 149.5 187.279 148.972C186.799 148.432 186.025 148.162 184.957 148.162H182.599C182.479 148.162 182.377 148.126 182.293 148.054C182.221 147.97 182.185 147.868 182.185 147.748V147.136C182.185 147.016 182.221 146.92 182.293 146.848C182.377 146.764 182.479 146.722 182.599 146.722H185.047C186.079 146.722 186.931 146.884 187.603 147.208C188.287 147.532 188.797 148.024 189.133 148.684C189.469 149.332 189.637 150.142 189.637 151.114V156.586C189.637 156.706 189.595 156.808 189.511 156.892C189.439 156.964 189.343 157 189.223 157H188.413ZM192.716 157C192.596 157 192.494 156.964 192.41 156.892C192.338 156.808 192.302 156.706 192.302 156.586V147.136C192.302 147.016 192.338 146.92 192.41 146.848C192.494 146.764 192.596 146.722 192.716 146.722H193.562C193.694 146.722 193.796 146.764 193.868 146.848C193.94 146.92 193.976 147.016 193.976 147.136V156.586C193.976 156.706 193.94 156.808 193.868 156.892C193.796 156.964 193.694 157 193.562 157H192.716ZM196.785 157C196.665 157 196.563 156.964 196.479 156.892C196.407 156.808 196.371 156.706 196.371 156.586V155.956C196.371 155.836 196.407 155.74 196.479 155.668C196.563 155.584 196.665 155.542 196.785 155.542H201.663L196.029 147.424C195.993 147.352 195.963 147.292 195.939 147.244C195.915 147.184 195.903 147.13 195.903 147.082C195.903 146.986 195.939 146.902 196.011 146.83C196.095 146.758 196.185 146.722 196.281 146.722H197.145C197.265 146.722 197.361 146.758 197.433 146.83C197.517 146.89 197.583 146.956 197.631 147.028L203.499 155.434C203.559 155.518 203.607 155.608 203.643 155.704C203.691 155.788 203.715 155.884 203.715 155.992V156.586C203.715 156.706 203.673 156.808 203.589 156.892C203.517 156.964 203.421 157 203.301 157H196.785ZM201.339 152.896L200.547 151.726C201.171 151.498 201.621 151.126 201.897 150.61C202.185 150.082 202.329 149.44 202.329 148.684V147.136C202.329 147.016 202.365 146.92 202.437 146.848C202.521 146.764 202.623 146.722 202.743 146.722H203.481C203.613 146.722 203.715 146.764 203.787 146.848C203.859 146.92 203.895 147.016 203.895 147.136V148.9C203.895 149.872 203.679 150.7 203.247 151.384C202.815 152.068 202.179 152.572 201.339 152.896ZM206.329 157C206.209 157 206.107 156.964 206.023 156.892C205.951 156.808 205.915 156.706 205.915 156.586V155.974C205.915 155.854 205.951 155.758 206.023 155.686C206.107 155.602 206.209 155.56 206.329 155.56H211.495V151.204C211.495 150.244 211.255 149.5 210.775 148.972C210.295 148.432 209.521 148.162 208.453 148.162H206.509C206.389 148.162 206.287 148.126 206.203 148.054C206.131 147.97 206.095 147.868 206.095 147.748V147.136C206.095 147.016 206.131 146.92 206.203 146.848C206.287 146.764 206.389 146.722 206.509 146.722H208.543C209.575 146.722 210.433 146.89 211.117 147.226C211.801 147.562 212.311 148.06 212.647 148.72C212.995 149.368 213.169 150.178 213.169 151.15V155.56H213.835C213.955 155.56 214.051 155.602 214.123 155.686C214.207 155.758 214.249 155.854 214.249 155.974V156.586C214.249 156.706 214.207 156.808 214.123 156.892C214.051 156.964 213.955 157 213.835 157H206.329ZM224.436 157C224.172 157 224.04 156.868 224.04 156.604V150.178C224.04 149.47 224.124 148.918 224.292 148.522C224.46 148.126 224.67 147.928 224.922 147.928H226.686C226.386 147.928 226.14 148.156 225.948 148.612C225.768 149.068 225.678 149.632 225.678 150.304V156.604C225.678 156.724 225.636 156.82 225.552 156.892C225.468 156.964 225.366 157 225.246 157H224.436ZM219.576 148.162C219.456 148.162 219.354 148.126 219.27 148.054C219.198 147.97 219.162 147.868 219.162 147.748V147.136C219.162 147.016 219.198 146.92 219.27 146.848C219.354 146.764 219.456 146.722 219.576 146.722H227.298C227.418 146.722 227.514 146.764 227.586 146.848C227.67 146.92 227.712 147.016 227.712 147.136V147.748C227.712 147.868 227.67 147.97 227.586 148.054C227.514 148.126 227.418 148.162 227.298 148.162H219.576ZM230.19 152.824C230.07 152.824 229.968 152.788 229.884 152.716C229.812 152.632 229.776 152.53 229.776 152.41V147.136C229.776 147.016 229.812 146.92 229.884 146.848C229.968 146.764 230.07 146.722 230.19 146.722H231.036C231.168 146.722 231.27 146.764 231.342 146.848C231.414 146.92 231.45 147.016 231.45 147.136V152.41C231.45 152.53 231.414 152.632 231.342 152.716C231.27 152.788 231.168 152.824 231.036 152.824H230.19ZM241.122 157C240.99 157 240.888 156.964 240.816 156.892C240.744 156.82 240.678 156.76 240.618 156.712L234.012 147.424C233.928 147.292 233.886 147.178 233.886 147.082C233.886 146.986 233.922 146.902 233.994 146.83C234.078 146.758 234.168 146.722 234.264 146.722H235.092C235.236 146.722 235.344 146.758 235.416 146.83C235.5 146.902 235.566 146.968 235.614 147.028L242.238 156.298C242.286 156.382 242.316 156.448 242.328 156.496C242.352 156.544 242.364 156.592 242.364 156.64C242.364 156.736 242.328 156.82 242.256 156.892C242.184 156.964 242.094 157 241.986 157H241.122ZM234.102 157C233.982 157 233.88 156.964 233.796 156.892C233.724 156.808 233.688 156.706 233.688 156.586V153.886C233.688 153.334 233.742 152.812 233.85 152.32C233.958 151.816 234.168 151.342 234.48 150.898C234.804 150.442 235.284 150.016 235.92 149.62L236.748 150.826C236.316 151.102 235.992 151.42 235.776 151.78C235.56 152.128 235.416 152.494 235.344 152.878C235.272 153.25 235.236 153.61 235.236 153.958V156.586C235.236 156.706 235.194 156.808 235.11 156.892C235.038 156.964 234.942 157 234.822 157H234.102ZM239.682 153.706L238.944 152.464C239.532 152.188 239.946 151.9 240.186 151.6C240.438 151.3 240.588 150.988 240.636 150.664C240.684 150.328 240.708 149.98 240.708 149.62V147.136C240.708 147.016 240.744 146.92 240.816 146.848C240.9 146.764 241.002 146.722 241.122 146.722H241.878C241.998 146.722 242.094 146.764 242.166 146.848C242.25 146.92 242.292 147.016 242.292 147.136V149.71C242.292 150.214 242.232 150.7 242.112 151.168C241.992 151.636 241.746 152.08 241.374 152.5C241.014 152.92 240.45 153.322 239.682 153.706ZM245.116 157C244.996 157 244.894 156.964 244.81 156.892C244.738 156.808 244.702 156.706 244.702 156.586V147.136C244.702 147.016 244.738 146.92 244.81 146.848C244.894 146.764 244.996 146.722 245.116 146.722H245.962C246.094 146.722 246.196 146.764 246.268 146.848C246.34 146.92 246.376 147.016 246.376 147.136V156.586C246.376 156.706 246.34 156.808 246.268 156.892C246.196 156.964 246.094 157 245.962 157H245.116ZM254.964 157C254.844 157 254.742 156.964 254.658 156.892C254.586 156.808 254.55 156.706 254.55 156.586V151.204C254.55 150.244 254.31 149.5 253.83 148.972C253.35 148.432 252.576 148.162 251.508 148.162H249.15C249.03 148.162 248.928 148.126 248.844 148.054C248.772 147.97 248.736 147.868 248.736 147.748V147.136C248.736 147.016 248.772 146.92 248.844 146.848C248.928 146.764 249.03 146.722 249.15 146.722H251.598C252.63 146.722 253.482 146.884 254.154 147.208C254.838 147.532 255.348 148.024 255.684 148.684C256.02 149.332 256.188 150.142 256.188 151.114V156.586C256.188 156.706 256.146 156.808 256.062 156.892C255.99 156.964 255.894 157 255.774 157H254.964ZM263.299 157.18C261.691 157.18 260.533 156.796 259.825 156.028C259.117 155.248 258.763 154.162 258.763 152.77V147.136C258.763 147.016 258.799 146.92 258.871 146.848C258.955 146.764 259.057 146.722 259.177 146.722H259.915C260.047 146.722 260.149 146.764 260.221 146.848C260.293 146.92 260.329 147.016 260.329 147.136V152.68C260.329 153.652 260.575 154.402 261.067 154.93C261.559 155.446 262.303 155.704 263.299 155.704C264.295 155.704 265.021 155.464 265.477 154.984C265.945 154.504 266.191 153.784 266.215 152.824C266.227 152.704 266.227 152.524 266.215 152.284C266.215 152.032 266.215 151.78 266.215 151.528C266.215 151.276 266.215 151.09 266.215 150.97C266.191 149.974 265.975 149.248 265.567 148.792C265.171 148.336 264.649 148.108 264.001 148.108C263.797 148.108 263.563 148.144 263.299 148.216C263.035 148.288 262.813 148.384 262.633 148.504C262.525 148.564 262.411 148.57 262.291 148.522C262.171 148.462 262.111 148.366 262.111 148.234V147.676C262.111 147.556 262.123 147.454 262.147 147.37C262.171 147.274 262.237 147.19 262.345 147.118C262.585 146.974 262.843 146.86 263.119 146.776C263.395 146.68 263.761 146.632 264.217 146.632C264.997 146.632 265.651 146.782 266.179 147.082C266.707 147.37 267.109 147.82 267.385 148.432C267.661 149.044 267.811 149.83 267.835 150.79C267.847 150.91 267.853 151.114 267.853 151.402C267.853 151.69 267.853 151.984 267.853 152.284C267.853 152.584 267.847 152.794 267.835 152.914C267.811 153.826 267.643 154.606 267.331 155.254C267.031 155.89 266.551 156.37 265.891 156.694C265.243 157.018 264.379 157.18 263.299 157.18ZM274.546 157.18C273.046 157.18 271.93 156.79 271.198 156.01C270.466 155.23 270.1 154.12 270.1 152.68V147.136C270.1 147.016 270.136 146.92 270.208 146.848C270.292 146.764 270.394 146.722 270.514 146.722H274.852C275.92 146.722 276.772 146.884 277.408 147.208C278.044 147.532 278.506 148.012 278.794 148.648C279.094 149.272 279.262 150.046 279.298 150.97C279.31 151.09 279.316 151.282 279.316 151.546C279.316 151.81 279.316 152.074 279.316 152.338C279.316 152.602 279.31 152.794 279.298 152.914C279.274 153.826 279.1 154.606 278.776 155.254C278.452 155.89 277.942 156.37 277.246 156.694C276.562 157.018 275.662 157.18 274.546 157.18ZM274.546 155.704C275.686 155.704 276.49 155.47 276.958 155.002C277.426 154.522 277.672 153.796 277.696 152.824C277.708 152.704 277.714 152.524 277.714 152.284C277.714 152.044 277.714 151.81 277.714 151.582C277.714 151.354 277.708 151.18 277.696 151.06C277.672 150.1 277.396 149.38 276.868 148.9C276.352 148.408 275.65 148.162 274.762 148.162H271.666V152.68C271.666 153.652 271.906 154.402 272.386 154.93C272.866 155.446 273.586 155.704 274.546 155.704ZM288.654 157C288.522 157 288.42 156.964 288.348 156.892C288.276 156.82 288.21 156.76 288.15 156.712L281.544 147.424C281.46 147.292 281.418 147.178 281.418 147.082C281.418 146.986 281.454 146.902 281.526 146.83C281.61 146.758 281.7 146.722 281.796 146.722H282.624C282.768 146.722 282.876 146.758 282.948 146.83C283.032 146.902 283.098 146.968 283.146 147.028L289.77 156.298C289.818 156.382 289.848 156.448 289.86 156.496C289.884 156.544 289.896 156.592 289.896 156.64C289.896 156.736 289.86 156.82 289.788 156.892C289.716 156.964 289.626 157 289.518 157H288.654ZM281.634 157C281.514 157 281.412 156.964 281.328 156.892C281.256 156.808 281.22 156.706 281.22 156.586V153.886C281.22 153.334 281.274 152.812 281.382 152.32C281.49 151.816 281.7 151.342 282.012 150.898C282.336 150.442 282.816 150.016 283.452 149.62L284.28 150.826C283.848 151.102 283.524 151.42 283.308 151.78C283.092 152.128 282.948 152.494 282.876 152.878C282.804 153.25 282.768 153.61 282.768 153.958V156.586C282.768 156.706 282.726 156.808 282.642 156.892C282.57 156.964 282.474 157 282.354 157H281.634ZM287.214 153.706L286.476 152.464C287.064 152.188 287.478 151.9 287.718 151.6C287.97 151.3 288.12 150.988 288.168 150.664C288.216 150.328 288.24 149.98 288.24 149.62V147.136C288.24 147.016 288.276 146.92 288.348 146.848C288.432 146.764 288.534 146.722 288.654 146.722H289.41C289.53 146.722 289.626 146.764 289.698 146.848C289.782 146.92 289.824 147.016 289.824 147.136V149.71C289.824 150.214 289.764 150.7 289.644 151.168C289.524 151.636 289.278 152.08 288.906 152.5C288.546 152.92 287.982 153.322 287.214 153.706ZM292.216 157C292.096 157 291.994 156.964 291.91 156.892C291.838 156.808 291.802 156.706 291.802 156.586V155.974C291.802 155.854 291.838 155.758 291.91 155.686C291.994 155.602 292.096 155.56 292.216 155.56H297.382V151.204C297.382 150.244 297.142 149.5 296.662 148.972C296.182 148.432 295.408 148.162 294.34 148.162H292.396C292.276 148.162 292.174 148.126 292.09 148.054C292.018 147.97 291.982 147.868 291.982 147.748V147.136C291.982 147.016 292.018 146.92 292.09 146.848C292.174 146.764 292.276 146.722 292.396 146.722H294.43C295.462 146.722 296.32 146.89 297.004 147.226C297.688 147.562 298.198 148.06 298.534 148.72C298.882 149.368 299.056 150.178 299.056 151.15V155.56H299.722C299.842 155.56 299.938 155.602 300.01 155.686C300.094 155.758 300.136 155.854 300.136 155.974V156.586C300.136 156.706 300.094 156.808 300.01 156.892C299.938 156.964 299.842 157 299.722 157H292.216ZM138.391 185C138.271 185 138.169 184.964 138.085 184.892C138.013 184.808 137.977 184.706 137.977 184.586V175.136C137.977 175.016 138.013 174.92 138.085 174.848C138.169 174.764 138.271 174.722 138.391 174.722H139.237C139.369 174.722 139.471 174.764 139.543 174.848C139.615 174.92 139.651 175.016 139.651 175.136V184.586C139.651 184.706 139.615 184.808 139.543 184.892C139.471 184.964 139.369 185 139.237 185H138.391ZM143.144 176.162C143.024 176.162 142.922 176.126 142.838 176.054C142.766 175.97 142.73 175.868 142.73 175.748V175.136C142.73 175.016 142.766 174.92 142.838 174.848C142.922 174.764 143.024 174.722 143.144 174.722H147.05C148.082 174.722 148.934 174.89 149.606 175.226C150.29 175.55 150.8 176.042 151.136 176.702C151.472 177.35 151.64 178.154 151.64 179.114V184.586C151.64 184.706 151.598 184.808 151.514 184.892C151.442 184.964 151.346 185 151.226 185H150.416C150.284 185 150.182 184.964 150.11 184.892C150.038 184.808 150.002 184.706 150.002 184.586V179.204C150.002 178.244 149.756 177.5 149.264 176.972C148.784 176.432 148.01 176.162 146.942 176.162H143.144ZM144.764 175.28H145.214C145.394 175.28 145.526 175.328 145.61 175.424C145.706 175.508 145.748 175.616 145.736 175.748C145.64 176.252 145.556 176.708 145.484 177.116C145.424 177.524 145.382 177.932 145.358 178.34C145.334 178.736 145.322 179.186 145.322 179.69L145.358 184.586C145.358 184.706 145.322 184.808 145.25 184.892C145.178 184.964 145.082 185 144.962 185L142.406 184.964C142.286 184.964 142.184 184.928 142.1 184.856C142.028 184.784 141.992 184.682 141.992 184.55V183.974C141.992 183.854 142.028 183.758 142.1 183.686C142.184 183.602 142.286 183.56 142.406 183.56L143.792 183.578V179.762C143.792 179.27 143.798 178.82 143.81 178.412C143.822 177.992 143.858 177.572 143.918 177.152C143.978 176.732 144.074 176.258 144.206 175.73C144.242 175.598 144.296 175.49 144.368 175.406C144.452 175.322 144.584 175.28 144.764 175.28ZM154.721 185C154.601 185 154.499 184.964 154.415 184.892C154.343 184.808 154.307 184.706 154.307 184.586V175.136C154.307 175.016 154.343 174.92 154.415 174.848C154.499 174.764 154.601 174.722 154.721 174.722H155.567C155.699 174.722 155.801 174.764 155.873 174.848C155.945 174.92 155.981 175.016 155.981 175.136V184.586C155.981 184.706 155.945 184.808 155.873 184.892C155.801 184.964 155.699 185 155.567 185H154.721ZM165.756 185C165.624 185 165.522 184.964 165.45 184.892C165.378 184.82 165.312 184.76 165.252 184.712L158.646 175.424C158.562 175.292 158.52 175.178 158.52 175.082C158.52 174.986 158.556 174.902 158.628 174.83C158.712 174.758 158.802 174.722 158.898 174.722H159.726C159.87 174.722 159.978 174.758 160.05 174.83C160.134 174.902 160.2 174.968 160.248 175.028L166.872 184.298C166.92 184.382 166.95 184.448 166.962 184.496C166.986 184.544 166.998 184.592 166.998 184.64C166.998 184.736 166.962 184.82 166.89 184.892C166.818 184.964 166.728 185 166.62 185H165.756ZM158.736 185C158.616 185 158.514 184.964 158.43 184.892C158.358 184.808 158.322 184.706 158.322 184.586V181.886C158.322 181.334 158.376 180.812 158.484 180.32C158.592 179.816 158.802 179.342 159.114 178.898C159.438 178.442 159.918 178.016 160.554 177.62L161.382 178.826C160.95 179.102 160.626 179.42 160.41 179.78C160.194 180.128 160.05 180.494 159.978 180.878C159.906 181.25 159.87 181.61 159.87 181.958V184.586C159.87 184.706 159.828 184.808 159.744 184.892C159.672 184.964 159.576 185 159.456 185H158.736ZM164.316 181.706L163.578 180.464C164.166 180.188 164.58 179.9 164.82 179.6C165.072 179.3 165.222 178.988 165.27 178.664C165.318 178.328 165.342 177.98 165.342 177.62V175.136C165.342 175.016 165.378 174.92 165.45 174.848C165.534 174.764 165.636 174.722 165.756 174.722H166.512C166.632 174.722 166.728 174.764 166.8 174.848C166.884 174.92 166.926 175.016 166.926 175.136V177.71C166.926 178.214 166.866 178.7 166.746 179.168C166.626 179.636 166.38 180.08 166.008 180.5C165.648 180.92 165.084 181.322 164.316 181.706ZM177.486 187.232C177.354 187.232 177.252 187.202 177.18 187.142C177.12 187.082 177.072 187.01 177.036 186.926L172.518 175.424C172.482 175.328 172.452 175.262 172.428 175.226C172.416 175.178 172.41 175.13 172.41 175.082C172.41 174.986 172.446 174.902 172.518 174.83C172.602 174.758 172.692 174.722 172.788 174.722H173.634C173.766 174.722 173.868 174.758 173.94 174.83C174.012 174.902 174.078 175.01 174.138 175.154L176.064 180.032C176.94 179.924 177.576 179.606 177.972 179.078C178.38 178.538 178.584 177.824 178.584 176.936V175.136C178.584 175.016 178.62 174.92 178.692 174.848C178.776 174.764 178.878 174.722 178.998 174.722H179.754C179.874 174.722 179.97 174.764 180.042 174.848C180.126 174.92 180.168 175.016 180.168 175.136V177.044C180.168 177.872 180.024 178.592 179.736 179.204C179.46 179.804 179.058 180.296 178.53 180.68C178.002 181.064 177.366 181.328 176.622 181.472L178.638 186.53C178.698 186.698 178.728 186.812 178.728 186.872C178.728 186.968 178.692 187.052 178.62 187.124C178.548 187.196 178.464 187.232 178.368 187.232H177.486ZM182.275 185C182.155 185 182.053 184.964 181.969 184.892C181.897 184.808 181.861 184.706 181.861 184.586V183.956C181.861 183.836 181.897 183.74 181.969 183.668C182.053 183.584 182.155 183.542 182.275 183.542H187.153L181.519 175.424C181.483 175.352 181.453 175.292 181.429 175.244C181.405 175.184 181.393 175.13 181.393 175.082C181.393 174.986 181.429 174.902 181.501 174.83C181.585 174.758 181.675 174.722 181.771 174.722H182.635C182.755 174.722 182.851 174.758 182.923 174.83C183.007 174.89 183.073 174.956 183.121 175.028L188.989 183.434C189.049 183.518 189.097 183.608 189.133 183.704C189.181 183.788 189.205 183.884 189.205 183.992V184.586C189.205 184.706 189.163 184.808 189.079 184.892C189.007 184.964 188.911 185 188.791 185H182.275ZM186.829 180.896L186.037 179.726C186.661 179.498 187.111 179.126 187.387 178.61C187.675 178.082 187.819 177.44 187.819 176.684V175.136C187.819 175.016 187.855 174.92 187.927 174.848C188.011 174.764 188.113 174.722 188.233 174.722H188.971C189.103 174.722 189.205 174.764 189.277 174.848C189.349 174.92 189.385 175.016 189.385 175.136V176.9C189.385 177.872 189.169 178.7 188.737 179.384C188.305 180.068 187.669 180.572 186.829 180.896ZM192.25 185C192.13 185 192.028 184.964 191.944 184.892C191.872 184.808 191.836 184.706 191.836 184.586V175.136C191.836 175.016 191.872 174.92 191.944 174.848C192.028 174.764 192.13 174.722 192.25 174.722H193.096C193.228 174.722 193.33 174.764 193.402 174.848C193.474 174.92 193.51 175.016 193.51 175.136V184.586C193.51 184.706 193.474 184.808 193.402 184.892C193.33 184.964 193.228 185 193.096 185H192.25ZM197.741 176.198V177.602C197.753 178.034 197.807 178.394 197.903 178.682C197.999 178.97 198.185 179.15 198.461 179.222L199.127 179.402C199.223 179.426 199.295 179.492 199.343 179.6C199.403 179.696 199.433 179.816 199.433 179.96V180.41C199.433 180.542 199.367 180.638 199.235 180.698C199.103 180.758 198.959 180.776 198.803 180.752L198.101 180.608C197.717 180.512 197.387 180.344 197.111 180.104C196.835 179.852 196.625 179.516 196.481 179.096C196.349 178.664 196.283 178.148 196.283 177.548V175.136C196.283 175.016 196.319 174.92 196.391 174.848C196.463 174.764 196.565 174.722 196.697 174.722H200.027C200.927 174.722 201.677 174.902 202.277 175.262C202.877 175.61 203.333 176.12 203.645 176.792C203.957 177.452 204.125 178.25 204.149 179.186C204.161 179.366 204.167 179.594 204.167 179.87C204.167 180.134 204.161 180.356 204.149 180.536C204.125 181.46 203.957 182.258 203.645 182.93C203.333 183.602 202.877 184.118 202.277 184.478C201.677 184.826 200.927 185 200.027 185H196.913C196.793 185 196.691 184.964 196.607 184.892C196.535 184.808 196.499 184.706 196.499 184.586V183.938C196.499 183.818 196.535 183.722 196.607 183.65C196.691 183.566 196.793 183.524 196.913 183.524H199.937C200.765 183.524 201.401 183.26 201.845 182.732C202.301 182.192 202.553 181.442 202.601 180.482C202.613 180.302 202.619 180.098 202.619 179.87C202.619 179.63 202.613 179.42 202.601 179.24C202.577 178.28 202.331 177.536 201.863 177.008C201.407 176.468 200.765 176.198 199.937 176.198H197.741ZM208.57 185.162C208.462 185.198 208.36 185.18 208.264 185.108C208.168 185.048 208.12 184.958 208.12 184.838V184.01C208.12 183.902 208.15 183.806 208.21 183.722C208.282 183.638 208.384 183.572 208.516 183.524L209.218 183.254C209.686 183.062 210.112 182.822 210.496 182.534C210.892 182.234 211.198 181.832 211.414 181.328C211.642 180.824 211.756 180.164 211.756 179.348C211.756 178.568 211.66 177.95 211.468 177.494C211.288 177.026 210.976 176.696 210.532 176.504C210.1 176.3 209.506 176.198 208.75 176.198H208.21C208.09 176.198 207.988 176.162 207.904 176.09C207.832 176.006 207.796 175.904 207.796 175.784V175.136C207.796 175.016 207.832 174.92 207.904 174.848C207.988 174.764 208.09 174.722 208.21 174.722H209.002C210.094 174.722 210.964 174.878 211.612 175.19C212.26 175.502 212.722 176.006 212.998 176.702C213.286 177.386 213.43 178.286 213.43 179.402C213.43 180.242 213.316 180.968 213.088 181.58C212.86 182.192 212.548 182.714 212.152 183.146C211.768 183.578 211.33 183.938 210.838 184.226C210.346 184.502 209.836 184.73 209.308 184.91L208.57 185.162ZM208.606 176.198L206.464 176.18C206.344 176.18 206.242 176.144 206.158 176.072C206.086 176 206.05 175.904 206.05 175.784V172.634C206.05 172.514 206.086 172.418 206.158 172.346C206.242 172.262 206.344 172.22 206.464 172.22H207.22C207.34 172.22 207.436 172.262 207.508 172.346C207.592 172.418 207.634 172.514 207.634 172.634V174.722H208.642L208.606 176.198Z" fill="black"/>
<defs>
<filter id="filter0_f_88_27" x="0.1" y="0.1" width="345.8" height="274.8" filterUnits="userSpaceOnUse" color-interpolation-filters="sRGB">
<feFlood flood-opacity="0" result="BackgroundImageFix"/>
<feBlend mode="normal" in="SourceGraphic" in2="BackgroundImageFix" result="shape"/>
<feGaussianBlur stdDeviation="9.45" result="effect1_foregroundBlur_88_27"/>
</filter>
<clipPath id="clip0_88_27">
<rect width="308" height="237" fill="white" transform="translate(19 19)"/>
</clipPath>
</defs>
</svg>
