<svg width="393" height="205" viewBox="0 0 393 205" fill="none" xmlns="http://www.w3.org/2000/svg">
<g clip-path="url(#clip0_3_382)">
<path d="M32.2391 107.434C30.0498 104.509 27.5314 101.364 23.1528 100.106C14.3098 97.5701 5.93902 104.169 1.00239 109.89C-4.16318 115.86 -9.45753 122.15 -10.0585 129.108C-10.6595 136.067 -4.82139 143.834 5.00893 145.092C6.74033 145.312 8.61482 145.352 10.0314 146.071C12.2922 147.219 12.3924 149.475 12.8932 151.402C14.8679 159.019 25.4709 163.821 35.0866 167.685C41.2252 170.151 47.5498 172.667 54.5612 173.366C61.5727 174.065 69.5285 172.497 73.3061 168.324C77.699 163.472 76.2394 155.825 83.4941 153.109C85.2398 152.46 87.2574 152.24 89.1319 151.801C96.0146 150.224 101.008 145.811 103.226 140.999C105.444 136.187 105.258 130.995 104.457 125.964C109.05 124.246 111.168 120.293 110.896 116.659C110.624 113.025 108.421 109.62 106.246 106.316C103.813 102.612 101.166 98.7182 96.3007 96.4619C91.4357 94.2056 83.7088 94.4552 80.9042 98.0193C73.2489 93.4868 65.5792 88.9642 57.9238 84.4316C55.7489 83.1437 53.4451 81.8159 50.6405 81.4565C44.7166 80.7077 39.8229 84.4116 34.4856 86.3385C29.8352 88.0157 24.3691 88.3751 19.7616 90.1123C15.1541 91.8495 11.5339 95.9927 14.2526 99.1075" fill="#808080"/>
<path d="M34.0993 106.675C32.0388 103.93 29.7207 101.074 25.8573 99.3971C21.9938 97.7198 17.6296 97.7198 13.6516 98.9179C5.02328 101.514 -0.127981 108.063 -4.50655 113.494C-9.35733 119.504 -13.4783 126.333 -11.8042 133.361C-10.4877 138.882 -5.45095 144.343 2.41903 146.17C4.37937 146.63 7.29842 146.42 8.91534 147.348C10.4035 148.197 10.4464 150.074 10.7326 151.282C11.4337 154.307 13.3798 157.013 16.1128 159.389C21.865 164.381 30.4648 167.675 38.392 170.7C46.8057 173.915 56.7219 176.521 66.2088 173.985C70.1295 172.937 73.578 171.129 75.6242 168.544C77.5416 166.138 78.2714 163.402 79.2444 160.766C80.0743 158.49 81.1189 155.825 84.2096 154.547C86.3274 153.668 88.9316 153.508 91.2068 152.849C93.2673 152.25 95.1131 151.442 96.8302 150.463C104.729 145.931 107.29 138.553 107.176 131.714C107.147 129.787 106.918 127.87 106.632 125.964L105.573 127.261C109.708 125.624 112.17 122.589 112.856 119.364C113.672 115.511 112.012 111.787 109.866 108.273C106.274 102.392 101.695 94.6249 91.3928 93.6265C86.6279 93.1673 81.6197 94.2655 79.1013 97.2706L82.4782 96.971C76.8691 93.6565 71.2599 90.3319 65.6365 87.0174C63.0036 85.4599 60.428 83.8526 57.7093 82.365C55.3339 81.0571 52.7297 80.0089 49.6532 79.889C43.9439 79.6594 39.4223 82.6246 34.8434 84.5115C29.4918 86.7179 22.8238 86.8377 17.6582 89.2837C12.8503 91.5599 9.316 95.9827 12.4354 99.8763C13.7804 101.564 17.4865 100.046 16.1414 98.3688C13.8806 95.5334 18.0016 92.4285 21.4215 91.2205C26.2579 89.5233 31.7955 89.1638 36.5461 87.2769C40.3953 85.7494 44.4304 82.8442 49.1381 82.8642C51.7281 82.8642 53.8887 84.0023 55.7918 85.1105C58.1671 86.4882 60.4995 87.8959 62.8605 89.2837C68.3838 92.5483 73.9071 95.8129 79.4304 99.0776C80.475 99.6966 82.0633 99.6566 82.8073 98.7781C84.9108 96.2722 89.8045 96.0526 93.3531 97.0409C97.9463 98.3188 100.694 101.693 102.783 104.628C105.33 108.213 108.249 112.156 108.735 116.2C109.122 119.424 107.648 122.988 103.398 124.666C102.797 124.905 102.253 125.454 102.339 125.964C103.369 132.613 103.47 139.901 97.5886 145.551C95.2133 147.838 91.9079 149.655 88.0158 150.483C84.1238 151.312 80.7325 152.011 78.2857 154.467C74.1933 158.54 75.2665 164.201 70.9022 168.144C65.6651 172.877 55.7632 172.567 48.5371 170.74C43.8724 169.562 39.5511 167.765 35.287 166.028C31.7669 164.6 28.2612 163.103 25.0703 161.326C21.8794 159.548 19.1606 157.652 17.2146 155.256C16.2988 154.137 15.6263 152.959 15.2113 151.701C14.7534 150.324 14.6819 148.886 14.0094 147.548C13.3368 146.21 12.0776 145.012 10.1459 144.383C8.2142 143.754 5.88182 143.784 3.7927 143.325C0.472998 142.596 -2.27434 140.899 -4.16314 138.902C-8.79927 134 -8.59895 128.15 -5.96608 122.759C-4.20606 119.145 -1.50165 115.79 1.27431 112.526C3.77839 109.58 6.36833 106.695 9.93129 104.309C12.9362 102.302 17.0572 100.415 21.4072 101.264C25.9861 102.163 28.3757 105.467 30.4076 108.183C31.6954 109.89 35.4014 108.382 34.1136 106.675H34.0993Z" fill="#666666"/>
<path d="M143.392 67.4394C134.306 57.925 113.515 57.925 104.4 67.4195C101.481 70.4545 99.6206 74.2383 95.7715 76.5345C89.6472 80.1786 80.3177 78.9705 74.5511 82.964C70.4301 85.8193 69.4285 91.1007 72.2903 94.7946C73.6496 96.5517 75.7674 97.9794 76.5258 99.9462C77.2555 101.833 76.6116 103.88 75.8675 105.767C74.0217 110.489 71.6178 115.131 71.0597 120.053C70.5016 124.975 72.1901 130.406 77.1267 133.411C80.518 135.478 84.9967 136.157 88.4595 138.154C91.6934 140.02 93.7539 142.866 96.5871 145.102C102.783 149.994 111.926 151.502 120.512 152.78C124.06 153.309 127.767 153.838 131.229 153.049C134.692 152.26 137.84 149.735 137.497 146.879C146.998 153.399 158.717 157.851 171.08 159.618C174.343 160.088 177.777 160.367 180.939 159.558C186.391 158.171 189.911 153.758 190.912 149.275C191.914 144.793 190.855 140.21 189.811 135.737C193.86 138.713 200.914 137.275 204.349 133.851C207.783 130.426 208.441 125.764 208.47 121.381C208.498 116 207.783 110.609 206.338 105.347C205.636 102.801 204.764 100.216 205.179 97.6399C205.665 94.6648 207.84 92.0092 208.484 89.054C210.416 80.3583 199.269 73.5694 189.081 70.0352C175.616 65.3728 161.221 62.3877 146.597 61.2296C140.645 60.7604 132.818 61.639 131.601 66.2913" fill="#808080"/>
<path d="M145.238 66.6807C137.354 58.6139 120.884 56.2977 109.265 61.8985C106.289 63.3362 103.842 65.1732 101.939 67.3196C99.6921 69.8555 98.1324 72.8206 95.0559 74.9571C92.2084 76.9339 88.2162 77.5229 84.4672 78.1619C80.7183 78.8008 76.8548 79.5895 73.807 81.3966C67.8258 84.9407 66.9672 91.6997 71.0167 96.2223C72.1042 97.4403 73.578 98.5684 74.2935 99.9462C75.195 101.703 74.4795 103.62 73.807 105.357C72.4906 108.752 70.8593 112.096 69.8577 115.551C68.1692 121.321 68.1406 128.04 73.5637 132.912C76.2968 135.378 80.1745 136.476 83.995 137.904C88.2019 139.481 90.4627 142.007 93.253 144.583C99.2056 150.054 107.977 152.35 117.292 153.818C122.272 154.597 127.838 155.685 132.76 154.227C136.924 152.999 139.858 150.064 139.643 146.879L135.98 147.937C144.594 153.798 155.168 158.261 166.816 160.457C172.354 161.505 178.75 162.404 183.958 160.197C188.508 158.271 191.299 154.696 192.544 151.162C194.375 145.961 193.087 140.54 191.871 135.348L188.279 136.806C192.214 139.521 198.21 139.332 202.56 137.165C207.725 134.599 209.571 130.137 210.258 125.944C211.088 120.902 210.573 115.67 209.672 110.649C208.77 105.627 205.923 100.136 208.255 94.9444C209.242 92.748 210.444 90.6314 210.759 88.3252C211.031 86.3484 210.659 84.3118 209.729 82.4349C207.897 78.7409 204.205 75.616 199.927 73.1601C195.091 70.3846 189.582 68.4378 183.858 66.7106C177.161 64.6939 170.25 63.0267 163.167 61.7987C159.275 61.1198 155.326 60.5807 151.362 60.1714C148.243 59.8519 145.08 59.4925 141.918 59.6722C136.381 59.9817 130.771 61.7588 129.526 65.892C128.968 67.7689 133.104 68.5776 133.662 66.6907C134.549 63.7455 138.656 62.7771 142.562 62.6373C148.171 62.4376 154.052 63.4061 159.475 64.2646C165.757 65.253 171.924 66.5809 177.92 68.2182C183.314 69.6858 188.752 71.343 193.588 73.5894C197.638 75.4763 201.415 77.8424 203.919 80.7876C206.609 83.9524 207.153 87.4067 205.636 90.9209C204.764 92.9476 203.576 94.9044 203.132 97.011C202.66 99.2972 203.104 101.563 203.705 103.82C204.992 108.592 205.994 113.324 206.223 118.186C206.438 122.689 206.667 127.83 203.49 131.914C201.272 134.769 195.391 137.495 191.299 134.659C189.667 133.531 187.378 134.709 187.707 136.117C188.709 140.35 189.782 144.763 188.766 149.046C188.051 152.061 186.19 155.345 182.556 157.222C178.235 159.469 172.411 158.4 167.66 157.492C162.91 156.583 157.973 155.166 153.494 153.418C148.185 151.342 143.349 148.766 138.985 145.801C137.711 144.932 135.236 145.531 135.322 146.859C135.508 149.565 132.417 151.562 128.711 151.881C124.647 152.23 120.197 151.232 116.276 150.563C108.764 149.285 101.567 147.318 96.7444 142.886C94.3405 140.679 92.28 138.263 89.0461 136.586C85.8123 134.909 81.677 134.18 78.6005 132.333C72.648 128.759 72.4047 122.21 73.6925 117.238C74.5224 114.073 75.9104 110.998 77.1839 107.913C78.3573 105.058 79.8311 101.883 78.2857 98.9578C76.9836 96.5018 74.0073 94.7147 73.1058 92.139C72.3188 89.8527 72.8626 87.2769 74.6226 85.2602C78.4288 80.9074 87.3863 81.2668 93.3818 79.32C100.708 76.9439 102.411 71.5427 106.975 67.4195C115.589 59.6322 133.605 60.0915 141.503 68.1782C143.049 69.7656 146.769 68.2681 145.209 66.6707L145.238 66.6807Z" fill="#666666"/>
<path d="M195.377 138.253C197.165 137.005 194.947 134.659 192.415 134.619C189.882 134.579 187.764 135.917 186.09 137.245C179.236 142.636 174.486 149.325 172.497 156.404C172.039 158.031 171.795 159.878 173.212 161.206C174.629 162.534 178.349 162.514 178.893 160.896C175.258 166.737 182.198 173.386 190.354 176.241C198.51 179.096 207.983 179.745 216.111 182.661C222.879 185.097 229.761 189.2 237.073 187.702C241.91 186.714 245.144 183.389 246.203 179.955C247.261 176.521 246.532 172.956 245.802 169.482C242.725 172.927 248.792 177.589 254.559 177.07C260.326 176.551 264.418 172.787 266.378 168.973C268.11 165.599 268.725 161.955 268.153 158.39C270.857 160.866 276.752 160.567 280.058 158.47C283.363 156.374 284.622 153.139 285.166 150.054C286.168 144.353 285.324 138.503 282.705 133.062C281.746 131.085 280.229 128.939 277.353 128.36C274.477 127.781 270.972 130.276 272.918 131.864C276.609 131.814 276.108 127.781 274.077 125.634C269.941 121.291 264.647 117.487 258.537 114.472C256.104 113.274 253.472 112.176 250.524 111.877C245.344 111.338 239.864 113.674 238.175 117.128C236.487 120.582 238.79 124.765 243.355 126.553C243.598 118.226 235.084 110.149 223.609 107.823C212.133 105.497 198.754 109.141 192.558 116.269C190.841 118.246 189.624 120.632 190.555 122.839C191.485 125.045 195.262 126.742 198.21 125.694C196.693 122.329 189.811 122.399 185.046 123.577C179.494 124.945 173.813 127.182 171.667 131.015C169.52 134.849 173.255 140.21 179.122 139.961C173.555 142.856 172.153 148.966 176.145 152.929" fill="#808080"/>
<path d="M196.893 139.312C199.927 136.796 196.636 133.062 192.143 133.132C186.863 133.222 183.071 137.225 180.338 139.911C177.19 143.016 174.671 146.43 172.811 150.004C171.867 151.831 171.094 153.698 170.536 155.605C170.035 157.302 169.62 159.119 170.493 160.786C171.366 162.454 173.298 163.532 175.816 163.652C178.163 163.762 180.238 162.873 180.953 161.306C181.812 159.419 177.834 158.78 176.818 160.507C174.142 165.069 176.99 169.951 181.483 173.406C186.763 177.449 194.146 179.166 201.472 180.644C205.379 181.433 209.342 182.161 213.063 183.31C216.783 184.458 219.817 185.935 223.222 187.223C229.69 189.659 237.331 190.767 243.183 186.884C250.195 182.241 249.15 175.143 247.877 169.093C247.605 167.775 244.8 167.705 243.956 168.733C241.695 171.519 243.298 174.764 246.66 176.72C250.252 178.817 254.817 179.086 258.995 177.659C268.539 174.384 271.286 165.079 270.313 158.4L266.65 159.459C269.941 162.244 276.194 162.194 280.244 160.277C285.238 157.921 286.783 153.538 287.398 149.605C288.171 144.773 287.599 139.821 285.824 135.128C284.622 131.924 282.247 126.563 276.166 126.792C273.848 126.882 271.601 127.97 270.685 129.448C269.827 130.826 270.328 133.391 273.118 133.351C278.369 133.282 278.326 128.669 276.91 126.213C275.822 124.356 273.819 122.709 272.016 121.171C270.027 119.484 267.866 117.897 265.534 116.439C261.155 113.704 255.704 110.509 249.551 110.309C243.398 110.109 237.646 113.045 235.986 117.058C234.326 121.072 237.116 125.704 242.31 127.84C243.727 128.419 245.53 127.671 245.544 126.543C245.673 117.198 235.957 108.183 222.764 106.106C209.571 104.029 195.191 108.552 189.653 116.948C187.979 119.494 187.321 122.649 189.853 125.045C192.1 127.172 195.849 128.05 199.355 126.982C200.156 126.732 200.628 125.854 200.342 125.295C198.639 121.93 193.602 121.052 188.966 121.441C183.758 121.87 178.392 123.607 174.414 125.983C170.436 128.36 168.089 131.904 169.391 135.588C170.522 138.782 174.271 141.558 179.207 141.458L177.691 138.902C171.409 142.317 169.964 149.096 174.385 153.688C175.916 155.275 179.637 153.778 178.091 152.181C174.643 148.596 175.873 143.664 180.739 141.029C182.241 140.21 180.953 138.443 179.222 138.473C175.945 138.533 173.899 136.416 173.412 134.35C172.797 131.724 175.044 129.448 177.877 127.88C180.71 126.313 184.602 125.055 188.236 124.546C190.726 124.196 195.176 124.007 196.235 126.103L197.223 124.416C194.976 125.105 192.815 123.208 192.543 121.86C192.129 119.814 193.717 117.777 195.334 116.15C198.253 113.214 202.689 110.978 207.482 109.77C217.699 107.204 228.631 109.271 235.514 115.161C239.263 118.366 241.366 122.429 241.309 126.563L244.543 125.265C240.236 123.488 238.404 119.324 241.223 116.319C242.582 114.872 244.786 113.843 247.19 113.454C249.98 113.005 252.642 113.654 255.045 114.632C260.24 116.739 264.819 119.764 268.668 122.968C270.299 124.326 272.302 125.864 273.146 127.551C273.361 127.97 274.263 130.296 273.018 130.366L274.878 131.105C274.105 130.366 276.065 129.558 277.282 129.907C279.185 130.456 280.129 132.223 280.73 133.461C282.648 137.375 283.578 141.508 283.535 145.651C283.492 149.146 283.163 153.339 280.129 156.284C277.826 158.51 272.66 159.778 269.784 157.342C268.639 156.374 265.935 157.142 266.121 158.4C266.893 163.692 265.448 170.251 259.395 173.945C257.063 175.373 253.801 176.151 250.91 175.083C248.521 174.194 246.245 172.128 247.776 170.241L243.856 169.882C244.843 174.554 245.988 180.215 241.166 184.108C236.344 188.002 229.89 186.345 224.481 184.228C221.548 183.07 218.715 181.782 215.638 180.804C212.562 179.825 209.113 179.037 205.751 178.348C199.469 177.07 192.572 176.021 187.378 173.076C182.184 170.131 178.463 165.778 181.096 161.296L176.961 160.497C176.718 161.036 175.115 160.407 174.8 159.968C173.913 158.74 174.614 157.033 175.015 155.775C175.988 152.72 177.476 149.745 179.465 146.939C181.454 144.134 183.786 141.588 186.591 139.242C187.836 138.193 189.252 136.886 191.098 136.327C191.842 136.097 192.658 135.977 193.345 136.346C193.574 136.466 194.246 136.995 194.017 137.175C192.257 138.643 195.277 140.769 197.051 139.292L196.893 139.312Z" fill="#666666"/>
<path d="M292.564 88.0257C298.13 83.1237 299.361 76.0054 295.626 70.3147C291.891 64.6241 283.363 60.6007 274.391 60.3211C268.024 60.1214 261.828 61.639 255.99 63.4061C238.862 68.5976 223.222 76.1651 210.258 85.5298C213.177 86.8976 216.411 88.3352 219.902 88.0756C223.394 87.816 226.456 84.8509 224.367 82.8841C223.68 82.2352 222.592 81.8358 221.505 81.5363C211.431 78.691 198.539 82.6345 194.747 89.7229C190.955 96.8113 196.979 105.687 207.253 108.163C199.269 113.823 204.177 124.805 214.923 127.471C225.669 130.137 238.332 125.175 242.568 117.807C238.991 124.356 241.881 132.363 249.479 136.975C257.077 141.588 268.868 142.456 277.668 139.082C277.554 141.618 283.249 141.528 286.411 140.28C295.998 136.486 304.04 130.826 309.391 124.107C310.235 123.038 310.994 121.641 309.921 120.682C308.848 119.724 305.9 120.972 307.202 121.78C317.075 120.413 325.532 114.982 328.308 108.243C331.084 101.504 328.05 93.7563 320.738 88.9242C316.846 91.2804 312.926 95.7231 317.032 97.8995C320.624 99.8064 325.747 96.8413 326.662 93.7563C327.778 89.9725 325.446 85.7894 320.953 83.5131C316.46 81.2368 310.035 80.9773 305.213 82.8941C310.822 76.7642 303.439 69.0069 296.442 63.5958C295.225 62.6573 293.895 61.6589 292.12 61.3794C290.017 61.0399 287.928 61.7787 285.839 62.1381C275.836 63.8753 263.431 57.3959 255.961 62.3378" fill="#808080"/>
<path d="M294.41 88.7845C299.518 84.172 301.178 77.8524 298.903 72.2516C296.628 66.6508 290.632 62.3378 283.12 60.1814C274.305 57.6555 265.076 59.1231 256.605 61.599C248.134 64.075 240.078 67.11 232.466 70.6542C223.88 74.6576 215.91 79.3 208.713 84.4715C207.697 85.2003 207.997 86.2886 209.142 86.8277C212.533 88.4151 216.611 90.1323 220.875 89.4833C223.823 89.0341 226.456 87.257 227.043 85.1804C228.545 79.8092 217.098 78.8008 211.846 79.2401C205.336 79.7892 199.24 82.1454 195.348 85.8493C191.456 89.5532 190.554 94.4152 192.4 98.7981C194.475 103.75 199.698 107.873 206.681 109.63L205.736 107.124C199.054 112.016 200.285 119.734 206.023 124.746C212.648 130.546 224.338 130.885 233.138 127.381C238.361 125.305 242.353 122.08 244.657 118.216L240.522 117.418C236.801 124.476 239.806 133.082 247.977 138.044C256.147 143.006 268.982 144.034 278.77 140.38L275.536 139.082C275.636 142.107 279.972 142.896 283.563 142.506C288.056 142.017 292.163 139.641 295.626 137.724C299.632 135.498 303.21 132.932 306.315 130.097C307.903 128.649 309.363 127.142 310.679 125.574C311.881 124.127 313.112 122.459 312.353 120.752C310.622 116.878 301.993 119.864 305.7 122.849C306.215 123.258 307.073 123.338 307.789 123.238C318.22 121.71 327.092 116.11 330.254 109.001C333.416 101.893 330.182 93.2172 322.284 87.876C321.411 87.2869 320.123 87.3269 319.25 87.876C316.002 89.8927 312.339 93.2072 313.326 96.4619C314.314 99.7166 319.908 100.845 323.772 99.0976C332.944 94.9544 329.209 85.1105 320.939 81.726C315.816 79.6295 309.348 79.6594 304.154 81.6162L307.088 83.6629C313.326 76.5046 305.313 68.348 298.545 62.9967C296.713 61.5491 294.696 60.0715 291.791 59.8519C288.886 59.6323 286.196 60.7804 283.306 60.9301C278.484 61.1797 273.776 60.0216 269.097 59.4026C263.888 58.7138 258.608 58.6639 254.459 61.2995C252.413 62.5974 255.446 64.7139 257.492 63.4161C260.311 61.629 264.218 61.8087 267.723 62.258C271.887 62.7971 275.965 63.6557 280.201 63.8953C282.204 64.0051 284.236 63.9452 286.196 63.6257C288.901 63.1964 291.276 62.1681 293.608 63.6956C297.143 66.0018 300.248 68.967 302.494 71.9421C304.927 75.1468 306.243 78.8707 303.381 82.1454C302.237 83.4632 304.483 84.8909 306.315 84.192C310.25 82.7044 315.158 82.7643 318.993 84.4017C322.827 86.039 324.931 89.104 324.802 92.149C324.745 93.5766 324.087 94.8745 322.627 95.9028C321.568 96.6416 319.808 97.4503 318.363 96.7115C315.101 95.0442 320.509 91.0907 322.284 89.9825H319.25C326.09 94.6049 328.966 101.803 326.119 108.193C323.271 114.582 315.63 119.025 306.658 120.343L308.747 120.732C308.304 121.601 308.347 121.96 308.876 121.82C308.962 121.8 308.933 121.8 308.805 121.84L308.318 121.711C308.361 121.87 308.347 122.02 308.275 122.17C307.917 122.849 307.517 123.438 307.002 124.067C306.029 125.235 304.984 126.363 303.854 127.461C301.421 129.817 298.588 131.984 295.497 133.92C292.406 135.857 289.173 137.515 285.624 138.902C284.451 139.362 283.163 139.641 281.818 139.651C281.288 139.651 280.687 139.651 280.201 139.491C279.757 139.342 279.872 139.421 279.857 139.102C279.814 137.944 278.069 137.265 276.624 137.804C268.453 140.849 257.55 140.09 250.653 135.698C243.756 131.305 241.509 124.256 244.686 118.226C245.659 116.389 241.581 115.69 240.55 117.428C237.345 122.819 229.06 126.872 220.618 126.712C212.734 126.563 206.695 122.18 205.636 116.838C205.093 114.093 206.037 111.278 208.813 109.241C209.986 108.382 209.385 107.114 207.868 106.735C198.782 104.459 193.488 96.6316 196.779 90.292C200.07 83.9524 211.403 80.5779 220.317 82.8143C221.462 83.1038 223.122 83.5531 222.907 84.5814C222.75 85.3102 221.834 85.9791 220.947 86.3185C217.842 87.4966 213.85 85.41 211.388 84.2519L211.818 86.608C223.437 78.2517 237.088 71.363 252.126 66.3113C259.653 63.7855 268.439 60.9301 276.996 62.0383C284.093 62.9568 290.432 66.2115 293.58 70.764C297.3 76.1152 295.884 82.6645 290.747 87.2969C290.031 87.9459 290.618 88.9642 291.519 89.3436C292.621 89.8028 293.751 89.4434 294.453 88.8044L294.41 88.7845Z" fill="#666666"/>
<path d="M330.182 120.433C327.993 117.507 325.475 114.363 321.096 113.105C312.253 110.569 303.882 117.168 298.946 122.889C293.78 128.859 288.486 135.148 287.885 142.107C287.284 149.066 293.122 156.833 302.952 158.091C304.684 158.31 306.558 158.35 307.975 159.069C310.236 160.217 310.336 162.474 310.837 164.4C312.811 172.018 323.414 176.82 333.03 180.684C339.169 183.15 345.493 185.666 352.505 186.364C359.516 187.063 367.472 185.496 371.249 181.323C375.642 176.471 374.183 168.823 381.437 166.108C383.183 165.459 385.201 165.239 387.075 164.8C393.958 163.222 398.952 158.81 401.17 153.998C403.388 149.185 403.202 143.994 402.4 138.962C406.993 137.245 409.111 133.291 408.839 129.657C408.567 126.023 406.364 122.619 404.189 119.314C401.756 115.61 399.109 111.717 394.244 109.461C389.379 107.204 381.652 107.454 378.848 111.018C371.192 106.485 363.523 101.963 355.867 97.4303C353.692 96.1424 351.388 94.8145 348.584 94.4551C342.66 93.7064 337.766 97.4103 332.429 99.3371C327.778 101.014 322.312 101.374 317.705 103.111C313.097 104.848 309.477 108.991 312.196 112.106" fill="#808080"/>
<path d="M332.043 119.674C329.982 116.928 327.664 114.073 323.801 112.396C319.937 110.718 315.573 110.718 311.595 111.917C302.967 114.512 297.815 121.062 293.437 126.493C288.586 132.503 284.465 139.332 286.139 146.36C287.456 151.881 292.492 157.342 300.362 159.169C302.323 159.628 305.242 159.419 306.859 160.347C308.347 161.196 308.39 163.073 308.676 164.281C309.377 167.306 311.323 170.011 314.056 172.387C319.808 177.379 328.408 180.674 336.335 183.699C344.749 186.914 354.665 189.519 364.152 186.983C368.073 185.935 371.521 184.128 373.568 181.542C375.485 179.136 376.215 176.401 377.188 173.765C378.018 171.489 379.062 168.823 382.153 167.545C384.271 166.667 386.875 166.507 389.15 165.848C391.211 165.249 393.056 164.44 394.774 163.462C402.672 158.929 405.234 151.552 405.119 144.713C405.09 142.786 404.861 140.869 404.575 138.962L403.516 140.26C407.652 138.623 410.113 135.588 410.8 132.363C411.615 128.509 409.955 124.785 407.809 121.271C404.218 115.391 399.639 107.624 389.336 106.625C384.571 106.166 379.563 107.264 377.045 110.269L380.422 109.97C374.812 106.655 369.203 103.331 363.58 100.016C360.947 98.4586 358.371 96.8512 355.653 95.3636C353.277 94.0558 350.673 93.0075 347.597 92.8877C341.887 92.6581 337.366 95.6232 332.787 97.5101C327.435 99.7165 320.767 99.8363 315.602 102.282C310.794 104.559 307.259 108.981 310.379 112.875C311.724 114.562 315.43 113.045 314.085 111.367C311.824 108.532 315.945 105.427 319.365 104.219C324.201 102.522 329.739 102.163 334.489 100.276C338.339 98.7481 342.374 95.8429 347.081 95.8628C349.671 95.8628 351.832 97.001 353.735 98.1091C356.111 99.4869 358.443 100.895 360.804 102.282C366.327 105.547 371.85 108.812 377.374 112.076C378.418 112.695 380.007 112.655 380.751 111.777C382.854 109.271 387.748 109.051 391.296 110.04C395.89 111.317 398.637 114.692 400.726 117.627C403.273 121.211 406.192 125.155 406.679 129.198C407.065 132.423 405.591 135.987 401.341 137.664C400.74 137.904 400.197 138.453 400.283 138.962C401.313 145.611 401.413 152.899 395.532 158.55C393.157 160.836 389.851 162.653 385.959 163.482C382.067 164.311 378.676 165.009 376.229 167.465C372.137 171.539 373.21 177.199 368.846 181.143C363.608 185.875 353.707 185.566 346.481 183.739C341.816 182.561 337.494 180.764 333.23 179.027C329.71 177.599 326.205 176.101 323.014 174.324C319.823 172.547 317.104 170.65 315.158 168.254C314.242 167.136 313.57 165.958 313.155 164.7C312.697 163.322 312.625 161.885 311.953 160.547C311.28 159.209 310.021 158.011 308.089 157.382C306.158 156.753 303.825 156.783 301.736 156.324C298.416 155.595 295.669 153.898 293.78 151.901C289.144 146.999 289.344 141.149 291.977 135.757C293.737 132.143 296.442 128.789 299.218 125.524C301.722 122.579 304.312 119.694 307.875 117.308C310.88 115.301 315.001 113.414 319.351 114.263C323.929 115.161 326.319 118.466 328.351 121.181C329.639 122.889 333.345 121.381 332.057 119.674H332.043Z" fill="#666666"/>
<path d="M32.2391 48.6103C30.0498 45.6851 27.5314 42.5403 23.1528 41.2824C14.3098 38.7465 5.93902 45.3457 1.00239 51.0663C-4.16318 57.0365 -9.45753 63.3262 -10.0585 70.2848C-10.6595 77.2434 -4.82139 85.0107 5.00893 86.2686C6.74033 86.4883 8.61482 86.5282 10.0314 87.247C12.2922 88.3951 12.3924 90.6514 12.8932 92.5783C14.8679 100.196 25.4709 104.998 35.0866 108.862C41.2252 111.328 47.5498 113.843 54.5612 114.542C61.5727 115.241 69.5285 113.674 73.3061 109.501C77.699 104.648 76.2394 97.001 83.4941 94.2855C85.2398 93.6365 87.2574 93.4169 89.1319 92.9776C96.0146 91.4002 101.008 86.9874 103.226 82.1753C105.444 77.3632 105.258 72.1717 104.457 67.14C109.05 65.4228 111.168 61.4693 110.896 57.8352C110.624 54.2012 108.421 50.7968 106.246 47.4922C103.813 43.7883 101.166 39.8946 96.3007 37.6383C91.4357 35.382 83.7088 35.6316 80.9042 39.1958C73.2489 34.6632 65.5792 30.1406 57.9238 25.6081C55.7489 24.3202 53.4451 22.9923 50.6405 22.6329C44.7166 21.8842 39.8229 25.5881 34.4856 27.5149C29.8352 29.1922 24.3691 29.5516 19.7616 31.2887C15.1541 33.0259 11.5339 37.1691 14.2526 40.284" fill="#808080"/>
<path d="M34.0993 47.8516C32.0388 45.1061 29.7207 42.2508 25.8573 40.5735C21.9938 38.8963 17.6296 38.8963 13.6516 40.0943C5.02328 42.6901 -0.127981 49.2393 -4.50655 54.6704C-9.35733 60.6806 -13.4783 67.5094 -11.8042 74.5378C-10.4877 80.0588 -5.45095 85.5198 2.41903 87.3468C4.37937 87.8061 7.29842 87.5964 8.91534 88.5249C10.4035 89.3735 10.4464 91.2505 10.7326 92.4585C11.4337 95.4835 13.3798 98.1891 16.1128 100.565C21.865 105.557 30.4648 108.852 38.392 111.877C46.8057 115.091 56.7219 117.697 66.2088 115.161C70.1295 114.113 73.578 112.306 75.6242 109.72C77.5416 107.314 78.2714 104.579 79.2444 101.943C80.0743 99.6666 81.1189 97.001 84.2096 95.7231C86.3274 94.8446 88.9316 94.6848 91.2068 94.0259C93.2673 93.4269 95.1131 92.6182 96.8302 91.6398C104.729 87.1072 107.29 79.7293 107.176 72.8905C107.147 70.9637 106.918 69.0468 106.632 67.14L105.573 68.4378C109.708 66.8005 112.17 63.7655 112.856 60.5408C113.672 56.6871 112.012 52.9632 109.866 49.449C106.274 43.5686 101.695 35.8013 91.3928 34.803C86.6279 34.3437 81.6197 35.4419 79.1013 38.447L82.4782 38.1475C76.8691 34.8329 71.2599 31.5084 65.6365 28.1938C63.0036 26.6364 60.428 25.029 57.7093 23.5414C55.3339 22.2336 52.7297 21.1853 49.6532 21.0655C43.9439 20.8359 39.4223 23.801 34.8434 25.6879C29.4918 27.8943 22.8238 28.0141 17.6582 30.4601C12.8503 32.7364 9.316 37.1591 12.4354 41.0527C13.7804 42.74 17.4865 41.2225 16.1414 39.5452C13.8806 36.7099 18.0016 33.6049 21.4215 32.3969C26.2579 30.6997 31.7955 30.3403 36.5461 28.4534C40.3953 26.9259 44.4304 24.0207 49.1381 24.0406C51.7281 24.0406 53.8887 25.1788 55.7918 26.2869C58.1671 27.6647 60.4995 29.0724 62.8605 30.4601C68.3838 33.7247 73.9071 36.9894 79.4304 40.254C80.475 40.873 82.0633 40.8331 82.8073 39.9545C84.9108 37.4486 89.8045 37.229 93.3531 38.2174C97.9463 39.4953 100.694 42.8698 102.783 45.8049C105.33 49.3891 108.249 53.3326 108.735 57.376C109.122 60.6007 107.648 64.1648 103.398 65.8421C102.797 66.0817 102.253 66.6308 102.339 67.14C103.369 73.7891 103.47 81.0771 97.5886 86.7279C95.2133 89.0141 91.9079 90.8311 88.0158 91.6598C84.1238 92.4884 80.7325 93.1873 78.2857 95.6432C74.1933 99.7166 75.2665 105.377 70.9022 109.321C65.6651 114.053 55.7632 113.744 48.5371 111.917C43.8724 110.739 39.5511 108.941 35.287 107.204C31.7669 105.777 28.2612 104.279 25.0703 102.502C21.8794 100.725 19.1606 98.828 17.2146 96.432C16.2988 95.3138 15.6263 94.1357 15.2113 92.8778C14.7534 91.5 14.6819 90.0624 14.0094 88.7246C13.3368 87.3868 12.0776 86.1887 10.1459 85.5598C8.2142 84.9308 5.88182 84.9608 3.7927 84.5015C0.472998 83.7727 -2.27434 82.0755 -4.16314 80.0788C-8.79927 75.1768 -8.59895 69.3264 -5.96608 63.9352C-4.20606 60.3212 -1.50165 56.9667 1.27431 53.702C3.77839 50.7568 6.36833 47.8716 9.93129 45.4855C12.9362 43.4788 17.0572 41.5919 21.4072 42.4405C25.9861 43.339 28.3757 46.6436 30.4076 49.3591C31.6954 51.0663 35.4014 49.5588 34.1136 47.8516H34.0993Z" fill="#666666"/>
<path d="M143.392 8.6159C134.306 -0.898503 113.515 -0.898503 104.4 8.59593C101.481 11.631 99.6206 15.4148 95.7715 17.711C89.6472 21.355 80.3177 20.147 74.5511 24.1405C70.4301 26.9958 69.4285 32.2771 72.2903 35.9711C73.6496 37.7282 75.7674 39.1558 76.5258 41.1226C77.2555 43.0095 76.6116 45.0562 75.8675 46.9431C74.0217 51.6653 71.6178 56.3077 71.0597 61.2296C70.5016 66.1516 72.1901 71.5827 77.1267 74.5878C80.518 76.6544 84.9967 77.3333 88.4595 79.33C91.6934 81.1969 93.7539 84.0423 96.5871 86.2786C102.783 91.1706 111.926 92.6781 120.512 93.956C124.06 94.4851 127.767 95.0143 131.229 94.2256C134.692 93.4369 137.84 90.911 137.497 88.0557C146.998 94.575 158.717 99.0277 171.08 100.795C174.343 101.264 177.777 101.544 180.939 100.735C186.391 99.3472 189.911 94.9344 190.912 90.4517C191.914 85.9691 190.855 81.3866 189.811 76.9139C193.86 79.8891 200.914 78.4514 204.349 75.027C207.783 71.6026 208.441 66.9403 208.47 62.5575C208.498 57.1763 207.783 51.7851 206.338 46.5238C205.636 43.9779 204.764 41.3922 205.179 38.8164C205.665 35.8413 207.84 33.1856 208.484 30.2305C210.416 21.5347 199.269 14.7459 189.081 11.2116C175.616 6.54929 161.221 3.56418 146.597 2.40608C140.645 1.93685 132.818 2.81541 131.601 7.46778" fill="#808080"/>
<path d="M145.238 7.85714C137.368 -0.209637 120.898 -2.52584 109.265 3.07498C106.289 4.51262 103.842 6.34961 101.939 8.49609C99.6921 11.0319 98.1324 13.9971 95.0559 16.1336C92.2084 18.1103 88.2162 18.6994 84.4672 19.3383C80.7183 19.9773 76.8548 20.766 73.807 22.573C67.8258 26.1172 66.9672 32.8761 71.0167 37.3987C72.1042 38.6167 73.578 39.7449 74.2935 41.1226C75.195 42.8797 74.4795 44.7966 73.807 46.5337C72.4906 49.9282 70.8593 53.2727 69.8577 56.727C68.1692 62.4976 68.1406 69.2166 73.5637 74.0886C76.2968 76.5545 80.1745 77.6527 83.995 79.0804C88.2019 80.6578 90.4627 83.1837 93.253 85.7594C99.2056 91.2305 107.977 93.5267 117.292 94.9943C122.272 95.773 127.838 96.8612 132.76 95.4036C136.924 94.1756 139.858 91.2404 139.643 88.0557L135.98 89.1139C144.594 94.9743 155.168 99.437 166.816 101.633C172.354 102.682 178.75 103.58 183.958 101.374C188.508 99.447 191.299 95.8728 192.544 92.3386C194.375 87.1372 193.087 81.7161 191.871 76.5246L188.279 77.9822C192.214 80.6977 198.21 80.508 202.56 78.3416C207.725 75.7758 209.571 71.3131 210.258 67.12C211.088 62.0783 210.573 56.8468 209.672 51.8251C208.77 46.8033 205.923 41.3123 208.255 36.1208C209.242 33.9244 210.444 31.8079 210.759 29.5017C211.031 27.5249 210.659 25.4882 209.729 23.6113C207.897 19.9174 204.205 16.7925 199.927 14.3365C195.091 11.5611 189.582 9.61426 183.858 7.88709C177.161 5.8704 170.25 4.20313 163.167 2.97514C159.275 2.29626 155.326 1.75714 151.362 1.34781C148.243 1.02833 145.08 0.668923 141.918 0.848628C136.381 1.15812 130.771 2.93521 129.526 7.06843C128.968 8.94535 133.104 9.75403 133.662 7.86712C134.549 4.92195 138.656 3.95354 142.562 3.81377C148.171 3.61409 154.052 4.58251 159.475 5.4411C165.757 6.42948 171.924 7.7573 177.92 9.39462C183.314 10.8622 188.752 12.5195 193.588 14.7658C197.638 16.6527 201.415 19.0188 203.919 21.964C206.609 25.1288 207.153 28.5832 205.636 32.0974C204.764 34.1241 203.576 36.0809 203.132 38.1874C202.66 40.4737 203.104 42.74 203.705 44.9963C204.992 49.7684 205.994 54.5007 206.223 59.3627C206.438 63.8653 206.667 69.0069 203.49 73.0902C201.272 75.9455 195.391 78.6711 191.299 75.8357C189.667 74.7076 187.378 75.8856 187.707 77.2933C188.709 81.5264 189.782 85.9391 188.766 90.2221C188.051 93.2372 186.19 96.5218 182.556 98.3987C178.235 100.645 172.411 99.5768 167.66 98.6683C162.91 97.7598 157.973 96.3421 153.494 94.5949C148.185 92.5183 143.349 89.9426 138.985 86.9774C137.711 86.1089 135.236 86.7079 135.322 88.0357C135.508 90.7413 132.417 92.738 128.711 93.0575C124.647 93.4069 120.197 92.4085 116.276 91.7396C108.764 90.4617 101.567 88.4949 96.7444 84.0622C94.3405 81.8558 92.28 79.4398 89.0461 77.7625C85.8123 76.0853 81.677 75.3565 78.6005 73.5095C72.648 69.9354 72.4047 63.3861 73.6925 58.4143C74.5224 55.2494 75.9104 52.1745 77.1839 49.0895C78.3573 46.2342 79.8311 43.0594 78.2857 40.1342C76.9836 37.6782 74.0073 35.8912 73.1058 33.3154C72.3188 31.0292 72.8626 28.4534 74.6226 26.4367C78.4288 22.0838 87.3863 22.4432 93.3818 20.4964C100.708 18.1203 102.411 12.7192 106.975 8.59593C115.589 0.808693 133.605 1.26794 141.503 9.35468C143.049 10.9421 146.769 9.44454 145.209 7.84716L145.238 7.85714Z" fill="#666666"/>
<path d="M195.377 79.4298C197.165 78.1819 194.947 75.8357 192.415 75.7958C189.882 75.7559 187.764 77.0937 186.09 78.4215C179.236 83.8127 174.486 90.5017 172.497 97.5801C172.039 99.2074 171.795 101.054 173.212 102.382C174.629 103.71 178.349 103.69 178.893 102.073C175.258 107.913 182.198 114.562 190.354 117.418C198.51 120.273 207.983 120.922 216.111 123.837C222.879 126.273 229.761 130.376 237.073 128.879C241.91 127.89 245.144 124.566 246.203 121.131C247.261 117.697 246.532 114.133 245.802 110.659C242.725 114.103 248.792 118.765 254.559 118.246C260.326 117.727 264.418 113.963 266.378 110.149C268.11 106.775 268.725 103.131 268.153 99.5668C270.857 102.043 276.752 101.743 280.058 99.6467C283.363 97.5501 284.622 94.3154 285.166 91.2305C286.168 85.5298 285.324 79.6794 282.705 74.2383C281.746 72.2616 280.229 70.1151 277.353 69.5361C274.477 68.957 270.972 71.4529 272.918 73.0403C276.609 72.9904 276.108 68.957 274.077 66.8105C269.941 62.4676 264.647 58.6639 258.537 55.6488C256.104 54.4508 253.472 53.3526 250.524 53.0531C245.344 52.514 239.864 54.8501 238.175 58.3045C236.487 61.7588 238.79 65.9419 243.355 67.729C243.598 59.4027 235.084 51.3259 223.609 48.9997C212.133 46.6735 198.754 50.3176 192.558 57.4459C190.841 59.4226 189.624 61.8087 190.555 64.0151C191.485 66.2215 195.262 67.9187 198.21 66.8704C196.693 63.5059 189.811 63.5758 185.046 64.7539C179.494 66.1217 173.813 68.358 171.667 72.1917C169.52 76.0254 173.255 81.3866 179.122 81.137C173.555 84.0323 172.153 90.1423 176.145 94.1058" fill="#808080"/>
<path d="M196.893 80.4881C199.927 77.9722 196.636 74.2383 192.143 74.3082C186.863 74.3981 183.071 78.4015 180.338 81.0871C177.19 84.192 174.671 87.6064 172.811 91.1805C171.867 93.0075 171.094 94.8745 170.536 96.7814C170.035 98.4786 169.62 100.296 170.493 101.963C171.366 103.63 173.298 104.708 175.816 104.828C178.163 104.938 180.238 104.049 180.953 102.482C181.812 100.595 177.834 99.9562 176.818 101.683C174.142 106.246 176.99 111.128 181.483 114.582C186.763 118.626 194.146 120.343 201.472 121.82C205.379 122.609 209.342 123.338 213.063 124.486C216.783 125.634 219.817 127.112 223.222 128.4C229.69 130.836 237.331 131.944 243.183 128.06C250.195 123.418 249.15 116.319 247.877 110.269C247.605 108.951 244.8 108.882 243.956 109.91C241.695 112.695 243.298 115.94 246.66 117.897C250.252 119.993 254.817 120.263 258.995 118.835C268.539 115.561 271.286 106.256 270.313 99.5768L266.65 100.635C269.941 103.42 276.194 103.371 280.244 101.454C285.238 99.0976 286.783 94.7148 287.398 90.7812C288.171 85.9491 287.599 80.9972 285.824 76.3049C284.622 73.1002 282.247 67.739 276.166 67.9686C273.848 68.0585 271.601 69.1467 270.685 70.6242C269.827 72.002 270.328 74.5678 273.118 74.5278C278.369 74.458 278.326 69.8455 276.91 67.3895C275.822 65.5326 273.819 63.8853 272.016 62.3478C270.027 60.6606 267.866 59.0732 265.534 57.6156C261.155 54.8801 255.704 51.6853 249.551 51.4856C243.398 51.2859 237.646 54.2211 235.986 58.2346C234.326 62.248 237.116 66.8804 242.31 69.0169C243.727 69.5959 245.53 68.8472 245.544 67.719C245.673 58.3743 235.957 49.3591 222.764 47.2825C209.571 45.2059 195.191 49.7285 189.653 58.1247C187.979 60.6706 187.321 63.8254 189.853 66.2215C192.1 68.348 195.849 69.2265 199.355 68.1583C200.156 67.9087 200.628 67.0301 200.342 66.4711C198.639 63.1066 193.602 62.228 188.966 62.6174C183.758 63.0467 178.392 64.7838 174.414 67.1599C170.436 69.536 168.089 73.0802 169.391 76.7642C170.522 79.9589 174.271 82.7344 179.207 82.6346L177.691 80.0787C171.409 83.4931 169.964 90.272 174.385 94.8645C175.916 96.4519 179.637 94.9544 178.091 93.357C174.643 89.7729 175.873 84.8409 180.739 82.2053C182.241 81.3866 180.953 79.6195 179.222 79.6494C175.945 79.7093 173.899 77.5928 173.412 75.5262C172.797 72.9005 175.044 70.6242 177.877 69.0568C180.71 67.4894 184.602 66.2314 188.236 65.7223C190.726 65.3729 195.176 65.1832 196.235 67.2797L197.223 65.5925C194.976 66.2814 192.815 64.3845 192.543 63.0367C192.129 60.99 193.717 58.9534 195.334 57.326C198.253 54.3909 202.689 52.1545 207.482 50.9465C217.699 48.3807 228.631 50.4473 235.514 56.3377C239.263 59.5424 241.366 63.6057 241.309 67.739L244.543 66.4411C240.236 64.664 238.404 60.5008 241.223 57.4958C242.582 56.0481 244.786 55.0198 247.19 54.6305C249.98 54.1812 252.642 54.8301 255.045 55.8085C260.24 57.9151 264.819 60.9401 268.668 64.1449C270.299 65.5026 272.302 67.0401 273.146 68.7274C273.361 69.1467 274.263 71.4729 273.018 71.5427L274.878 72.2815C274.105 71.5427 276.065 70.7341 277.282 71.0835C279.185 71.6326 280.129 73.3997 280.73 74.6377C282.648 78.5513 283.578 82.6845 283.535 86.8277C283.492 90.322 283.163 94.5151 280.129 97.4603C277.826 99.6866 272.66 100.955 269.784 98.5185C268.639 97.5501 265.935 98.3188 266.121 99.5768C266.893 104.868 265.448 111.427 259.395 115.121C257.063 116.549 253.801 117.328 250.91 116.259C248.521 115.371 246.245 113.304 247.776 111.417L243.856 111.058C244.843 115.73 245.988 121.391 241.166 125.285C236.344 129.178 229.89 127.521 224.481 125.404C221.548 124.246 218.715 122.958 215.638 121.98C212.562 121.002 209.113 120.213 205.751 119.524C199.469 118.246 192.572 117.198 187.378 114.253C182.184 111.308 178.463 106.955 181.096 102.472L176.961 101.673C176.718 102.212 175.115 101.583 174.8 101.144C173.913 99.9162 174.614 98.209 175.015 96.9511C175.988 93.8961 177.476 90.921 179.465 88.1156C181.454 85.3102 183.786 82.7643 186.591 80.4182C187.836 79.3699 189.252 78.062 191.098 77.503C191.842 77.2733 192.658 77.1535 193.345 77.5229C193.574 77.6427 194.246 78.1719 194.017 78.3516C192.257 79.8192 195.277 81.9457 197.051 80.4681L196.893 80.4881Z" fill="#666666"/>
<path d="M292.564 29.2022C298.13 24.3002 299.361 17.1819 295.626 11.4912C291.891 5.80052 283.363 1.77711 274.391 1.49757C268.024 1.2979 261.828 2.81541 255.99 4.58251C238.862 9.774 223.222 17.3416 210.258 26.7062C213.177 28.074 216.411 29.5116 219.902 29.2521C223.394 28.9925 226.456 26.0274 224.367 24.0606C223.68 23.4116 222.593 23.0123 221.505 22.7128C211.432 19.8675 198.539 23.811 194.747 30.8994C190.955 37.9878 196.979 46.8632 207.253 49.3391C199.269 54.9999 204.177 65.9819 214.923 68.6475C225.669 71.3131 238.333 66.3513 242.568 58.9833C238.991 65.5326 241.881 73.5395 249.479 78.1519C257.077 82.7643 268.868 83.6329 277.668 80.2585C277.554 82.7943 283.249 82.7044 286.411 81.4565C295.998 77.6627 304.04 72.002 309.391 65.283C310.236 64.2148 310.994 62.8171 309.921 61.8586C308.848 60.9002 305.9 62.1481 307.202 62.9568C317.075 61.5891 325.532 56.158 328.308 49.419C331.084 42.6801 328.05 34.9328 320.738 30.1007C316.846 32.4568 312.926 36.8995 317.032 39.076C320.624 40.9828 325.747 38.0177 326.662 34.9328C327.779 31.149 325.446 26.9658 320.953 24.6896C316.46 22.4133 310.035 22.1537 305.213 24.0706C310.822 17.9406 303.439 10.1833 296.442 4.7722C295.225 3.83374 293.895 2.83538 292.12 2.55584C290.017 2.21639 287.928 2.95518 285.839 3.31459C275.837 5.05174 263.431 -1.42763 255.961 3.51427" fill="#808080"/>
<path d="M294.41 29.9509C299.518 25.3385 301.178 19.0188 298.903 13.418C296.628 7.8172 290.632 3.50427 283.12 1.34781C274.306 -1.17805 265.076 0.28954 256.605 2.76548C248.134 5.24142 240.078 8.27645 232.466 11.8206C223.88 15.8241 215.91 20.4665 208.713 25.638C207.697 26.3668 207.997 27.455 209.142 27.9941C212.533 29.5815 216.611 31.2987 220.876 30.6498C223.823 30.2005 226.456 28.4234 227.043 26.3468C228.545 20.9756 217.098 19.9673 211.847 20.4066C205.336 20.9557 199.24 23.3118 195.348 27.0157C191.456 30.7197 190.555 35.5817 192.4 39.9645C194.475 44.9164 199.698 49.0396 206.681 50.7967L205.737 48.2909C199.054 53.1828 200.285 60.9002 206.023 65.912C212.648 71.7125 224.338 72.0519 233.138 68.5476C238.361 66.4711 242.353 63.2463 244.657 59.3827L240.522 58.584C236.802 65.6424 239.806 74.2483 247.977 79.2102C256.147 84.172 268.983 85.2003 278.77 81.5463L275.536 80.2485C275.636 83.2735 279.972 84.0622 283.564 83.6729C288.057 83.1836 292.163 80.8075 295.626 78.8907C299.633 76.6643 303.21 74.0985 306.315 71.2632C307.903 69.8156 309.363 68.308 310.679 66.7406C311.881 65.293 313.112 63.6257 312.353 61.9185C310.622 58.0449 301.994 61.03 305.7 64.0151C306.215 64.4244 307.073 64.5043 307.789 64.4044C318.22 62.8769 327.092 57.2761 330.254 50.1678C333.416 43.0594 330.182 34.3837 322.284 29.0424C321.411 28.4534 320.123 28.4933 319.25 29.0424C316.002 31.0591 312.339 34.3737 313.326 37.6283C314.314 40.883 319.909 42.0111 323.772 40.264C332.944 36.1208 329.209 26.2769 320.939 22.8925C315.816 20.7959 309.348 20.8259 304.154 22.7827L307.088 24.8293C313.326 17.671 305.313 9.51442 298.545 4.16319C296.714 2.71556 294.696 1.23799 291.791 1.01835C288.887 0.798706 286.196 1.94682 283.306 2.09658C278.484 2.34617 273.776 1.18807 269.097 0.569082C263.889 -0.119789 258.609 -0.169707 254.459 2.46597C252.413 3.76384 255.446 5.88038 257.492 4.5825C260.311 2.79543 264.218 2.97514 267.723 3.4244C271.887 3.96352 275.965 4.82211 280.201 5.06172C282.204 5.17154 284.236 5.11164 286.196 4.79216C288.901 4.36286 291.276 3.33455 293.609 4.86204C297.143 7.16826 300.248 10.1334 302.494 13.1085C304.927 16.3133 306.243 20.0372 303.382 23.3118C302.237 24.6296 304.483 26.0573 306.315 25.3584C310.25 23.8709 315.158 23.9308 318.993 25.5681C322.828 27.2054 324.931 30.2704 324.802 33.3154C324.745 34.7431 324.087 36.0409 322.627 37.0692C321.568 37.808 319.808 38.6167 318.363 37.8779C315.101 36.2107 320.51 32.2571 322.284 31.149H319.25C326.09 35.7714 328.966 42.9696 326.119 49.3591C323.271 55.7486 315.63 60.1913 306.658 61.5092L308.747 61.8985C308.304 62.7671 308.347 63.1265 308.876 62.9868C308.962 62.9668 308.934 62.9668 308.805 63.0067L308.318 62.8769C308.361 63.0367 308.347 63.1864 308.275 63.3362C307.918 64.0151 307.517 64.6041 307.002 65.2331C306.029 66.4012 304.984 67.5293 303.854 68.6275C301.421 70.9837 298.588 73.1501 295.497 75.0869C292.407 77.0238 289.173 78.681 285.624 80.0688C284.451 80.528 283.163 80.8075 281.818 80.8175C281.288 80.8175 280.687 80.8175 280.201 80.6578C279.757 80.508 279.872 80.5879 279.857 80.2684C279.815 79.1103 278.069 78.4314 276.624 78.9706C268.453 82.0156 257.55 81.2568 250.653 76.864C243.756 72.4712 241.509 65.4228 244.686 59.3927C245.659 57.5557 241.581 56.8568 240.55 58.594C237.345 63.9851 229.06 68.0385 220.618 67.8787C212.734 67.729 206.695 63.3462 205.636 58.0049C205.093 55.2594 206.037 52.444 208.813 50.4074C209.986 49.5488 209.385 48.2809 207.869 47.9015C198.782 45.6252 193.488 37.7981 196.779 31.4584C200.07 25.1188 211.403 21.7444 220.317 23.9807C221.462 24.2702 223.122 24.7195 222.907 25.7478C222.75 26.4766 221.834 27.1455 220.947 27.485C217.842 28.663 213.85 26.5764 211.389 25.4183L211.818 27.7745C223.437 19.4182 237.088 12.5295 252.127 7.47776C259.653 4.9519 268.439 2.09658 276.996 3.20476C284.093 4.12326 290.432 7.37792 293.58 11.9305C297.3 17.2817 295.884 23.8309 290.747 28.4634C290.031 29.1123 290.618 30.1306 291.519 30.51C292.621 30.9692 293.752 30.6098 294.453 29.9709L294.41 29.9509Z" fill="#666666"/>
<path d="M330.182 61.609C327.993 58.6838 325.475 55.539 321.096 54.281C312.253 51.7452 303.882 58.3444 298.946 64.065C293.78 70.0352 288.486 76.3249 287.885 83.2835C287.284 90.2421 293.122 98.0093 302.952 99.2673C304.684 99.4869 306.558 99.5269 307.975 100.246C310.236 101.394 310.336 103.65 310.837 105.577C312.811 113.194 323.414 117.997 333.03 121.86C339.169 124.326 345.493 126.842 352.505 127.541C359.516 128.24 367.472 126.672 371.249 122.499C375.642 117.647 374.183 110 381.437 107.284C383.183 106.635 385.201 106.416 387.075 105.976C393.958 104.399 398.952 99.9861 401.17 95.174C403.388 90.3619 403.202 85.1704 402.4 80.1386C406.993 78.4214 409.111 74.4679 408.839 70.8339C408.567 67.1998 406.364 63.7954 404.189 60.4908C401.756 56.7869 399.109 52.8933 394.244 50.637C389.379 48.3807 381.652 48.6303 378.848 52.1944C371.192 47.6619 363.523 43.1393 355.867 38.6067C353.692 37.3188 351.388 35.991 348.584 35.6316C342.66 34.8828 337.766 38.5868 332.429 40.5136C327.778 42.1908 322.312 42.5503 317.705 44.2874C313.097 46.0246 309.477 50.1678 312.196 53.2827" fill="#808080"/>
<path d="M332.043 60.8502C329.982 58.1047 327.664 55.2494 323.801 53.5722C319.937 51.8949 315.573 51.8949 311.595 53.093C302.967 55.6887 297.815 62.238 293.437 67.6691C288.586 73.6792 284.465 80.508 286.139 87.5365C287.456 93.0575 292.492 98.5185 300.362 100.346C302.323 100.805 305.242 100.595 306.859 101.524C308.347 102.372 308.39 104.249 308.676 105.457C309.377 108.482 311.323 111.188 314.056 113.564C319.808 118.556 328.408 121.85 336.335 124.875C344.749 128.09 354.665 130.696 364.152 128.16C368.073 127.112 371.521 125.305 373.568 122.719C375.485 120.313 376.215 117.577 377.188 114.942C378.018 112.665 379.062 110 382.153 108.722C384.271 107.843 386.875 107.683 389.15 107.025C391.211 106.426 393.056 105.617 394.774 104.638C402.672 100.106 405.234 92.728 405.119 85.8892C405.09 83.9624 404.861 82.0455 404.575 80.1386L403.516 81.4365C407.652 79.7992 410.113 76.7642 410.8 73.5395C411.615 69.6858 409.955 65.9619 407.809 62.4476C404.218 56.5673 399.639 48.8 389.336 47.8016C384.571 47.3424 379.563 48.4406 377.045 51.4457L380.422 51.1462C374.812 47.8316 369.203 44.507 363.58 41.1925C360.947 39.635 358.371 38.0277 355.653 36.5401C353.277 35.2322 350.673 34.184 347.597 34.0642C341.887 33.8345 337.366 36.7997 332.787 38.6866C327.435 40.893 320.767 41.0128 315.602 43.4588C310.794 45.735 307.259 50.1578 310.379 54.0514C311.724 55.7386 315.43 54.2211 314.085 52.5439C311.824 49.7085 315.945 46.6036 319.365 45.3956C324.201 43.6984 329.739 43.339 334.489 41.452C338.339 39.9246 342.374 37.0193 347.081 37.0393C349.671 37.0393 351.832 38.1774 353.735 39.2856C356.111 40.6633 358.443 42.071 360.804 43.4588C366.327 46.7234 371.85 49.9881 377.374 53.2527C378.418 53.8717 380.007 53.8318 380.751 52.9532C382.854 50.4473 387.748 50.2277 391.296 51.216C395.89 52.4939 398.637 55.8684 400.726 58.8036C403.273 62.3877 406.192 66.3313 406.679 70.3746C407.065 73.5993 405.591 77.1635 401.341 78.8408C400.74 79.0804 400.197 79.6295 400.283 80.1386C401.313 86.7877 401.413 94.0758 395.532 99.7265C393.157 102.013 389.851 103.83 385.959 104.658C382.067 105.487 378.676 106.186 376.229 108.642C372.137 112.715 373.21 118.376 368.846 122.319C363.608 127.052 353.707 126.742 346.481 124.915C341.816 123.737 337.494 121.94 333.23 120.203C329.71 118.775 326.205 117.278 323.014 115.501C319.823 113.724 317.104 111.827 315.158 109.431C314.242 108.312 313.57 107.134 313.155 105.876C312.697 104.499 312.625 103.061 311.953 101.723C311.28 100.385 310.021 99.1874 308.089 98.5584C306.158 97.9295 303.825 97.9594 301.736 97.5002C298.416 96.7714 295.669 95.0741 293.78 93.0774C289.144 88.1755 289.344 82.325 291.977 76.9339C293.737 73.3198 296.442 69.9653 299.218 66.7007C301.722 63.7555 304.312 60.8702 307.875 58.4841C310.88 56.4774 315.001 54.5905 319.351 55.4391C323.929 56.3376 326.319 59.6422 328.351 62.3578C329.639 64.065 333.345 62.5575 332.057 60.8502H332.043Z" fill="#666666"/>
<path d="M360.918 194.611C363.122 197.526 365.669 200.671 370.048 201.899C378.919 204.405 387.233 197.776 392.126 192.045C397.249 186.055 402.5 179.755 403.044 172.787C403.588 165.818 397.707 158.071 387.862 156.853C386.131 156.643 384.256 156.603 382.826 155.884C380.55 154.746 380.436 152.49 379.921 150.563C377.889 142.946 367.257 138.193 357.627 134.35C351.474 131.904 345.135 129.408 338.11 128.739C331.084 128.07 323.157 129.657 319.393 133.841C315.029 138.713 316.546 146.35 309.32 149.086C307.574 149.745 305.571 149.974 303.682 150.413C296.799 152.011 291.848 156.444 289.659 161.266C287.47 166.088 287.699 171.279 288.529 176.301C283.95 178.028 281.861 182.002 282.161 185.626C282.462 189.25 284.694 192.654 286.883 195.959C289.344 199.653 292.02 203.536 296.885 205.773C301.75 208.009 309.492 207.739 312.268 204.155C319.966 208.658 327.65 213.161 335.348 217.663C337.523 218.941 339.855 220.269 342.66 220.608C348.584 221.337 353.449 217.613 358.786 215.676C363.437 213.989 368.888 213.6 373.482 211.853C378.075 210.106 381.666 205.952 378.933 202.837" fill="#808080"/>
<path d="M359.058 195.37C361.133 198.105 363.465 200.961 367.343 202.628C371.221 204.295 375.571 204.285 379.549 203.077C388.163 200.471 393.271 193.882 397.607 188.441C402.4 182.411 406.507 175.572 404.776 168.544C403.416 163.033 398.351 157.572 390.467 155.775C388.506 155.325 385.601 155.535 383.956 154.627C382.453 153.788 382.396 151.911 382.11 150.693C381.38 147.668 379.42 144.972 376.673 142.596C370.906 137.614 362.249 134.36 354.308 131.355C345.865 128.17 335.949 125.594 326.476 128.16C322.57 129.218 319.122 131.035 317.09 133.631C315.187 136.047 314.471 138.782 313.527 141.418C312.711 143.694 311.695 146.37 308.604 147.658C306.487 148.536 303.882 148.716 301.622 149.375C299.575 149.974 297.73 150.793 296.012 151.781C288.142 156.344 285.624 163.722 285.781 170.56C285.824 172.487 286.053 174.404 286.368 176.311L287.427 175.013C283.292 176.67 280.873 179.695 280.201 182.93C279.4 186.784 281.102 190.508 283.263 194.012C286.898 199.922 291.577 207.66 301.951 208.608C306.673 209.037 311.638 207.899 314.099 204.924L310.722 205.224C316.36 208.518 321.998 211.823 327.621 215.117C330.268 216.665 332.858 218.262 335.577 219.74C337.967 221.038 340.571 222.076 343.647 222.196C349.357 222.415 353.85 219.43 358.414 217.523C363.752 215.297 370.42 215.157 375.571 212.691C380.364 210.395 383.884 205.962 380.736 202.079C379.377 200.401 375.671 201.909 377.03 203.586C379.32 206.412 375.242 209.536 371.822 210.754C367 212.472 361.462 212.851 356.726 214.748C352.877 216.285 348.87 219.211 344.162 219.211C341.572 219.211 339.398 218.092 337.494 216.994C335.105 215.627 332.758 214.229 330.397 212.841C324.845 209.596 319.308 206.352 313.756 203.107C312.711 202.498 311.123 202.518 310.379 203.407C308.29 205.932 303.41 206.162 299.847 205.184C295.24 203.926 292.464 200.551 290.36 197.636C287.785 194.062 284.837 190.128 284.322 186.085C283.907 182.86 285.352 179.296 289.588 177.599C290.189 177.359 290.732 176.81 290.647 176.301C289.573 169.652 289.43 162.374 295.254 156.693C297.615 154.397 300.892 152.56 304.784 151.721C308.676 150.883 312.053 150.174 314.5 147.718C318.564 143.635 317.447 137.974 321.783 134.01C326.977 129.258 336.879 129.528 344.12 131.335C348.784 132.503 353.134 134.28 357.413 135.997C360.947 137.415 364.467 138.902 367.672 140.659C370.877 142.417 373.61 144.313 375.571 146.699C376.487 147.818 377.173 148.996 377.603 150.244C378.075 151.611 378.161 153.049 378.833 154.387C379.506 155.725 380.779 156.913 382.725 157.542C384.671 158.171 387.004 158.131 389.093 158.58C392.413 159.299 395.174 160.976 397.092 162.973C401.756 167.865 401.613 173.705 399.023 179.116C397.292 182.74 394.602 186.095 391.855 189.38C389.379 192.335 386.803 195.23 383.255 197.626C380.264 199.643 376.158 201.55 371.808 200.711C367.214 199.832 364.81 196.538 362.75 193.822C361.462 192.115 357.756 193.633 359.044 195.33L359.058 195.37Z" fill="#666666"/>
<path d="M250.052 234.985C259.209 244.469 280 244.399 289.044 234.865C291.934 231.82 293.766 228.026 297.601 225.73C303.696 222.066 313.04 223.244 318.778 219.231C322.87 216.365 323.843 211.074 320.967 207.39C319.594 205.643 317.476 204.225 316.703 202.248C315.959 200.362 316.589 198.315 317.319 196.428C319.136 191.706 321.511 187.043 322.026 182.121C322.541 177.2 320.824 171.778 315.873 168.783C312.468 166.727 307.989 166.068 304.512 164.081C301.278 162.224 299.175 159.389 296.327 157.162C290.088 152.29 280.945 150.823 272.345 149.565C268.797 149.046 265.09 148.536 261.628 149.335C258.165 150.134 255.046 152.67 255.403 155.525C245.859 149.036 234.097 144.623 221.734 142.896C218.457 142.436 215.037 142.177 211.875 142.996C206.438 144.403 202.946 148.826 201.973 153.309C201 157.791 202.088 162.374 203.175 166.836C199.097 163.881 192.057 165.329 188.651 168.773C185.246 172.218 184.616 176.87 184.616 181.253C184.616 186.634 185.375 192.025 186.863 197.277C187.578 199.812 188.48 202.398 188.065 204.984C187.593 207.959 185.446 210.625 184.817 213.58C182.942 222.276 194.146 229.035 204.348 232.529C217.856 237.151 232.265 240.086 246.889 241.195C252.842 241.644 260.669 240.735 261.857 236.083" fill="#808080"/>
<path d="M248.191 235.734C256.119 243.77 272.603 246.047 284.193 240.396C287.169 238.948 289.588 237.101 291.491 234.955C293.723 232.419 295.268 229.434 298.316 227.297C301.092 225.351 304.956 224.732 308.647 224.093C312.339 223.454 316.117 222.705 319.15 220.988C325.203 217.563 326.419 210.874 322.527 206.282C321.425 204.974 319.866 203.836 319.036 202.428C318.063 200.761 318.592 198.954 319.207 197.267C320.452 193.852 322.083 190.518 323.128 187.073C324.859 181.303 325.06 174.544 319.78 169.572C317.104 167.056 313.369 165.878 309.491 164.49C307.474 163.772 305.7 162.943 304.169 161.765C302.637 160.587 301.393 159.259 300.033 157.991C297.071 155.245 293.494 153.059 289.058 151.542C284.622 150.024 280.201 149.215 275.579 148.507C270.599 147.738 265.033 146.67 260.111 148.147C255.961 149.385 253.042 152.33 253.271 155.515L256.934 154.457C248.277 148.626 237.674 144.194 226.012 142.037C220.475 141.009 214.064 140.12 208.87 142.347C204.32 144.293 201.558 147.868 200.342 151.402C198.553 156.613 199.87 162.024 201.129 167.216L204.721 165.758C200.771 163.053 194.776 163.262 190.44 165.429C185.289 168.005 183.457 172.477 182.799 176.67C182.012 181.712 182.556 186.944 183.486 191.955C184.416 196.967 187.321 202.458 185.017 207.65C184.044 209.846 182.856 211.963 182.556 214.279C182.298 216.255 182.685 218.292 183.629 220.169C185.489 223.853 189.195 226.968 193.488 229.414C198.339 232.179 203.862 234.106 209.6 235.813C216.311 237.81 223.222 239.447 230.319 240.655C234.226 241.314 238.161 241.844 242.139 242.243C245.258 242.552 248.42 242.902 251.583 242.712C257.12 242.383 262.729 240.596 263.931 236.452C264.475 234.575 260.34 233.767 259.796 235.654C258.938 238.609 254.845 239.587 250.939 239.747C245.33 239.967 239.449 239.018 234.011 238.18C227.73 237.211 221.548 235.903 215.538 234.296C210.129 232.838 204.692 231.211 199.841 228.985C195.777 227.118 191.971 224.752 189.453 221.816C186.734 218.652 186.176 215.217 187.664 211.693C188.523 209.666 189.696 207.699 190.125 205.593C190.597 203.307 190.125 201.03 189.51 198.784C188.194 194.022 187.149 189.28 186.891 184.428C186.648 179.925 186.376 174.783 189.524 170.69C191.714 167.835 197.58 165.069 201.701 167.885C203.333 169.003 205.636 167.835 205.293 166.427C204.263 162.194 203.161 157.791 204.134 153.508C204.821 150.493 206.667 147.199 210.272 145.302C214.579 143.035 220.418 144.084 225.168 144.982C229.919 145.881 234.87 147.269 239.363 149.006C244.686 151.062 249.537 153.618 253.915 156.573C255.189 157.432 257.678 156.853 257.578 155.515C257.378 152.809 260.44 150.793 264.132 150.463C268.196 150.094 272.646 151.082 276.581 151.741C284.236 153.009 291.462 155.006 296.356 159.508C298.817 161.785 300.978 164.201 304.383 165.868C307.588 167.435 311.624 168.124 314.571 169.971C320.366 173.585 320.653 179.975 319.408 184.937C318.606 188.102 317.233 191.187 315.988 194.272C314.743 197.356 313.355 200.431 315.043 203.417C316.446 205.902 319.479 207.69 320.281 210.365C320.953 212.661 320.323 215.237 318.463 217.194C314.628 221.227 306.157 220.988 300.377 222.795C296.9 223.883 294.338 225.69 292.321 227.906C290.303 230.123 288.815 232.758 286.44 234.905C277.854 242.672 259.896 242.263 251.955 234.226C250.395 232.649 246.675 234.146 248.249 235.734H248.191Z" fill="#666666"/>
<path d="M197.566 164.351C195.777 165.608 198.024 167.945 200.557 167.975C203.089 168.005 205.193 166.657 206.867 165.329C213.678 159.908 218.386 153.209 220.332 146.13C220.775 144.503 221.019 142.656 219.573 141.328C218.128 140 214.422 140.04 213.893 141.658C217.484 135.807 210.501 129.178 202.331 126.353C194.16 123.527 184.674 122.908 176.532 120.023C169.749 117.617 162.824 113.534 155.526 115.051C150.704 116.05 147.484 119.394 146.44 122.839C145.395 126.283 146.154 129.837 146.912 133.311C149.96 129.857 143.864 125.215 138.112 125.754C132.36 126.293 128.282 130.067 126.35 133.89C124.633 137.265 124.046 140.919 124.647 144.473C121.928 142.007 116.033 142.327 112.742 144.433C109.451 146.54 108.22 149.774 107.691 152.869C106.718 158.57 107.619 164.42 110.281 169.852C111.254 171.828 112.785 173.965 115.661 174.534C118.537 175.103 122.028 172.597 120.068 171.02C116.376 171.08 116.906 175.113 118.952 177.249C123.116 181.582 128.439 185.366 134.563 188.361C136.996 189.549 139.657 190.637 142.591 190.927C147.77 191.446 153.237 189.09 154.896 185.626C156.556 182.161 154.224 177.988 149.645 176.221C149.459 184.547 158.03 192.594 169.52 194.881C181.01 197.167 194.361 193.483 200.514 186.335C202.216 184.358 203.404 181.962 202.474 179.755C201.544 177.549 197.738 175.872 194.79 176.92C196.321 180.274 203.218 180.185 207.969 178.997C213.506 177.609 219.187 175.353 221.29 171.519C223.394 167.685 219.645 162.334 213.764 162.593C219.301 159.678 220.661 153.568 216.654 149.615" fill="#808080"/>
<path d="M196.049 163.282C193.03 165.808 196.321 169.532 200.829 169.452C206.109 169.362 209.872 165.329 212.591 162.633C215.724 159.519 218.214 156.094 220.046 152.52C220.976 150.693 221.734 148.816 222.278 146.919C222.764 145.222 223.165 143.405 222.278 141.728C221.391 140.05 219.473 138.972 216.941 138.882C214.594 138.792 212.519 139.661 211.818 141.238C210.974 143.125 214.952 143.774 215.953 142.037C218.6 137.465 215.739 132.593 211.203 129.148C205.894 125.115 198.51 123.428 191.17 121.98C187.264 121.211 183.3 120.492 179.565 119.354C175.831 118.216 172.797 116.749 169.377 115.481C162.895 113.075 155.254 111.976 149.416 115.87C142.433 120.542 143.521 127.631 144.837 133.681C145.123 134.989 147.928 135.079 148.758 134.04C151.004 131.245 149.387 128.01 146.011 126.063C142.405 123.977 137.84 123.717 133.676 125.155C124.146 128.449 121.456 137.774 122.486 144.453L126.15 143.395C122.844 140.619 116.605 140.679 112.542 142.616C107.562 144.982 106.045 149.375 105.444 153.309C104.715 158.141 105.301 163.093 107.118 167.785C108.349 170.98 110.753 176.341 116.834 176.091C119.224 175.992 121.485 174.843 122.386 173.296C123.173 171.918 122.544 169.472 119.868 169.512C114.602 169.582 114.688 174.204 116.119 176.65C117.206 178.507 119.238 180.145 121.055 181.672C123.044 183.359 125.234 184.927 127.58 186.384C131.973 189.11 137.454 192.285 143.607 192.464C149.759 192.644 155.497 189.699 157.129 185.676C158.76 181.652 155.955 177.03 150.747 174.903C149.33 174.324 147.527 175.063 147.513 176.201C147.456 185.546 157.214 194.541 170.422 196.568C183.629 198.594 197.967 194.032 203.461 185.616C205.121 183.07 205.765 179.905 203.218 177.519C200.957 175.402 197.208 174.524 193.703 175.612C192.901 175.862 192.429 176.73 192.715 177.299C194.447 180.654 199.469 181.522 204.12 181.123C209.328 180.684 214.694 178.927 218.643 176.541C222.593 174.155 224.939 170.6 223.609 166.926C222.45 163.742 218.701 160.966 213.75 161.076L215.266 163.632C221.519 160.197 222.936 153.409 218.486 148.836C216.941 147.249 213.22 148.746 214.78 150.344C218.257 153.918 217.069 158.85 212.233 161.505C210.745 162.324 212.018 164.101 213.75 164.061C217.026 163.991 219.087 166.088 219.602 168.154C220.246 170.78 218.014 173.056 215.195 174.644C212.376 176.231 208.498 177.489 204.849 178.018C202.374 178.378 197.909 178.587 196.836 176.501L195.849 178.188C198.095 177.489 200.27 179.366 200.557 180.714C200.986 182.76 199.412 184.807 197.809 186.434C194.919 189.38 190.497 191.636 185.718 192.854C175.516 195.46 164.584 193.423 157.644 187.573C153.88 184.388 151.734 180.324 151.763 176.191L148.529 177.489C152.85 179.246 154.71 183.399 151.92 186.424C150.575 187.882 148.371 188.91 145.968 189.31C143.192 189.769 140.516 189.13 138.098 188.162C132.889 186.065 128.282 183.06 124.418 179.865C122.787 178.517 120.769 176.99 119.911 175.293C119.696 174.883 118.766 172.547 120.011 172.477L118.151 171.738C118.938 172.477 116.992 173.296 115.775 172.956C113.858 172.427 112.914 170.65 112.284 169.412C110.338 165.499 109.379 161.365 109.394 157.232C109.394 153.738 109.708 149.545 112.728 146.59C115.003 144.353 120.168 143.055 123.073 145.492C124.218 146.45 126.937 145.701 126.736 144.433C125.921 139.142 127.323 132.583 133.347 128.859C135.679 127.421 138.928 126.622 141.832 127.681C144.222 128.549 146.54 130.616 145.009 132.513L148.93 132.872C147.914 128.2 146.726 122.549 151.519 118.626C156.313 114.702 162.781 116.339 168.204 118.446C171.152 119.594 173.985 120.872 177.075 121.84C180.166 122.809 183.615 123.587 186.992 124.256C193.288 125.514 200.185 126.543 205.407 129.468C210.63 132.393 214.379 136.736 211.775 141.228L215.91 142.027C216.154 141.478 217.756 142.087 218.071 142.526C218.987 143.754 218.286 145.462 217.899 146.719C216.941 149.774 215.481 152.76 213.521 155.565C211.56 158.37 209.242 160.936 206.452 163.292C205.207 164.341 203.805 165.658 201.973 166.228C201.229 166.457 200.414 166.587 199.727 166.228C199.512 166.118 198.811 165.579 199.04 165.399C200.8 163.931 197.781 161.795 196.006 163.282H196.049Z" fill="#666666"/>
<path d="M100.737 214.898C95.1989 219.82 94.0256 226.938 97.8032 232.619C101.581 238.299 110.138 242.283 119.109 242.542C125.477 242.722 131.673 241.185 137.482 239.398C154.567 234.146 170.15 226.529 183.057 217.124C180.138 215.766 176.889 214.339 173.398 214.608C169.907 214.878 166.859 217.853 168.976 219.82C169.678 220.469 170.765 220.858 171.838 221.157C181.94 223.963 194.79 219.979 198.539 212.871C202.288 205.763 196.192 196.907 185.904 194.481C193.846 188.79 188.852 177.828 178.091 175.203C167.331 172.577 154.696 177.579 150.518 184.957C154.052 178.398 151.104 170.391 143.478 165.818C135.851 161.246 124.06 160.397 115.275 163.811C115.375 161.276 109.68 161.375 106.517 162.643C96.959 166.467 88.9459 172.158 83.6515 178.897C82.8073 179.965 82.0632 181.363 83.1507 182.321C84.2382 183.279 87.1716 182.022 85.8551 181.213C75.9962 182.621 67.5681 188.082 64.8351 194.831C62.1021 201.579 65.1928 209.317 72.5334 214.119C76.4111 211.753 80.3032 207.3 76.1822 205.124C72.5763 203.227 67.468 206.212 66.5808 209.297C65.4933 213.091 67.8543 217.264 72.3617 219.52C76.869 221.776 83.2938 222.016 88.1016 220.089C82.5354 226.239 89.9761 233.966 97.0162 239.358C98.2468 240.296 99.5775 241.284 101.352 241.564C103.455 241.893 105.544 241.155 107.634 240.785C117.621 239.018 130.084 245.458 137.511 240.486" fill="#808080"/>
<path d="M98.8764 214.149C93.811 218.781 92.1798 225.101 94.4835 230.692C96.7873 236.283 102.826 240.576 110.338 242.712C119.124 245.208 128.31 243.72 136.738 241.235C145.166 238.749 153.308 235.654 160.906 232.07C169.463 228.036 177.405 223.374 184.559 218.172C185.561 217.444 185.289 216.355 184.13 215.816C180.739 214.239 176.646 212.532 172.382 213.2C169.434 213.66 166.816 215.437 166.243 217.523C164.77 222.905 176.217 223.873 181.468 223.424C187.979 222.865 194.046 220.469 197.924 216.765C201.801 213.061 202.66 208.179 200.8 203.806C198.682 198.864 193.445 194.751 186.448 193.024L187.392 195.529C194.032 190.618 192.772 182.91 187.006 177.908C180.338 172.128 168.662 171.818 159.876 175.353C154.667 177.449 150.69 180.684 148.414 184.547L152.55 185.346C156.227 178.278 153.179 169.682 144.952 164.75C136.724 159.818 123.917 158.82 114.144 162.504L117.378 163.801C117.264 160.776 112.942 159.988 109.336 160.387C104.843 160.886 100.751 163.282 97.3024 165.209C93.3102 167.445 89.7615 170.031 86.6565 172.877C85.0825 174.324 83.6229 175.842 82.3208 177.419C81.1332 178.867 79.9026 180.544 80.6753 182.241C82.4353 186.125 91.035 183.1 87.329 180.135C86.8139 179.725 85.9553 179.645 85.2399 179.745C74.8229 181.313 65.9799 186.934 62.8748 194.052C59.7697 201.17 63.0465 209.836 70.988 215.147C71.8609 215.726 73.1487 215.696 74.0215 215.147C77.2554 213.121 80.9042 209.796 79.9026 206.541C78.9009 203.287 73.2918 202.179 69.4427 203.926C60.2992 208.089 64.0768 217.933 72.376 221.287C77.513 223.364 83.9807 223.324 89.1605 221.347L86.2272 219.3C80.0314 226.479 88.0874 234.605 94.9128 239.947C96.7587 241.394 98.7762 242.862 101.681 243.072C104.586 243.281 107.276 242.133 110.166 241.963C114.988 241.694 119.71 242.842 124.389 243.441C129.598 244.11 134.892 244.15 139.028 241.504C141.074 240.196 138.026 238.09 135.994 239.388C133.175 241.185 129.297 241.025 125.777 240.586C121.613 240.066 117.521 239.208 113.286 238.988C111.282 238.878 109.25 238.958 107.29 239.278C104.6 239.717 102.225 240.755 99.878 239.248C96.3151 236.962 93.21 233.996 90.9206 231.031C88.4737 227.836 87.1143 224.113 89.9475 220.828C91.078 219.51 88.86 218.072 87.0142 218.781C83.0935 220.279 78.1712 220.249 74.3363 218.622C70.5015 216.994 68.3552 213.939 68.4696 210.894C68.5269 209.467 69.1565 208.159 70.616 207.13C71.6749 206.382 73.4206 205.573 74.8658 206.292C78.1569 207.939 72.7767 211.923 71.0023 213.031H74.0359C67.1532 208.438 64.2341 201.25 67.0244 194.851C69.8147 188.451 77.4271 183.978 86.3989 182.631L84.3098 182.241C84.7533 181.363 84.7104 181.003 84.1953 181.153C84.1094 181.173 84.1381 181.173 84.2668 181.143L84.739 181.273C84.6961 181.113 84.7104 180.963 84.782 180.814C85.1254 180.135 85.526 179.536 86.0412 178.907C86.9999 177.739 88.0444 176.6 89.1748 175.502C91.5931 173.136 94.3977 170.97 97.4884 169.013C100.579 167.056 103.784 165.389 107.333 164.001C108.163 163.672 113.057 162.444 113.114 163.772C113.157 164.93 114.903 165.608 116.348 165.069C124.49 161.994 135.407 162.713 142.347 167.086C149.287 171.459 151.591 178.487 148.443 184.527C147.484 186.364 151.562 187.063 152.578 185.326C155.755 179.925 163.983 175.842 172.439 175.972C180.338 176.091 186.391 180.454 187.492 185.785C188.065 188.521 187.135 191.356 184.373 193.393C183.214 194.252 183.801 195.519 185.317 195.899C194.418 198.145 199.784 205.942 196.536 212.292C193.288 218.642 181.955 222.116 173.069 219.86C171.924 219.57 170.25 219.141 170.45 218.112C170.593 217.384 171.509 216.715 172.396 216.365C175.487 215.177 179.494 217.244 181.969 218.392L181.54 216.036C169.978 224.432 156.37 231.361 141.374 236.472C133.862 239.028 125.119 241.903 116.534 240.835C109.422 239.947 103.083 236.712 99.878 232.169C96.1147 226.838 97.4884 220.279 102.582 215.626C104.257 214.099 100.536 212.601 98.8764 214.119V214.149Z" fill="#666666"/>
<path d="M62.8892 182.621C65.0927 185.536 67.6398 188.681 72.0183 189.909C80.89 192.415 89.2035 185.785 94.0972 180.055C99.2198 174.065 104.471 167.765 105.015 160.796C105.559 153.828 99.6777 146.081 89.8331 144.863C88.1017 144.653 86.2272 144.613 84.7963 143.894C82.5212 142.756 82.4067 140.5 81.8916 138.573C79.8597 130.955 69.2281 126.203 59.5981 122.359C53.4452 119.913 47.1063 117.418 40.0805 116.749C33.0548 116.08 25.1275 117.667 21.3643 121.85C17 126.722 18.5167 134.36 11.2907 137.095C9.54497 137.754 7.5417 137.984 5.6529 138.423C-1.22975 140.02 -6.18069 144.453 -8.36998 149.275C-10.5593 154.097 -10.3303 159.289 -9.50039 164.311C-14.0793 166.038 -16.1684 170.011 -15.8679 173.635C-15.5674 177.259 -13.3352 180.664 -11.1459 183.968C-8.68478 187.662 -6.00898 191.546 -1.1439 193.782C3.72118 196.019 11.4624 195.749 14.2383 192.165C21.9366 196.668 29.6206 201.17 37.3189 205.673C39.4938 206.951 41.8262 208.279 44.6308 208.618C50.5547 209.347 55.4198 205.623 60.7571 203.686C65.4075 201.999 70.8593 201.61 75.4525 199.862C80.0457 198.115 83.6373 193.962 80.9043 190.847" fill="#808080"/>
<path d="M61.0291 183.379C63.1039 186.115 65.4363 188.97 69.314 190.638C73.1918 192.305 77.5418 192.295 81.5197 191.087C90.1337 188.481 95.2421 181.892 99.5777 176.451C104.371 170.421 108.478 163.582 106.747 156.553C105.387 151.042 100.322 145.581 92.4375 143.784C90.4771 143.335 87.5724 143.545 85.9269 142.636C84.4244 141.798 84.3672 139.921 84.081 138.703C83.3512 135.678 81.3909 132.982 78.6436 130.606C72.877 125.624 64.22 122.369 56.2785 119.364C47.8361 116.18 37.92 113.604 28.4474 116.17C24.541 117.228 21.0925 119.045 19.0606 121.641C17.1575 124.057 16.4421 126.792 15.4977 129.428C14.682 131.704 13.6661 134.38 10.5753 135.668C8.4576 136.546 5.85336 136.726 3.59253 137.385C1.54633 137.984 -0.29954 138.802 -2.01663 139.791C-9.88661 144.353 -12.405 151.731 -12.2476 158.57C-12.2047 160.497 -11.9757 162.414 -11.6609 164.321L-10.6021 163.023C-14.7374 164.68 -17.1556 167.705 -17.8281 170.94C-18.6294 174.793 -16.9267 178.517 -14.766 182.022C-11.1315 187.932 -6.45244 195.669 3.92163 196.618C8.64362 197.047 13.6089 195.909 16.07 192.934L12.6931 193.233C18.3309 196.528 23.9686 199.832 29.5921 203.127C32.2393 204.674 34.8292 206.272 37.5479 207.749C39.9375 209.047 42.5418 210.086 45.6182 210.205C51.3276 210.425 55.8206 207.44 60.3852 205.533C65.7225 203.307 72.3905 203.167 77.5417 200.701C82.3353 198.405 85.8553 193.972 82.7073 190.088C81.348 188.411 77.6419 189.919 79.0013 191.596C81.2907 194.421 77.2126 197.546 73.7928 198.764C68.9706 200.481 63.433 200.861 58.6967 202.758C54.8476 204.295 50.841 207.22 46.1334 207.22C43.5434 207.22 41.3684 206.102 39.4653 205.004C37.0757 203.636 34.729 202.238 32.368 200.851C26.8161 197.606 21.2785 194.361 15.7266 191.117C14.682 190.508 13.0937 190.528 12.3497 191.416C10.2605 193.942 5.38116 194.172 1.8182 193.193C-2.78932 191.935 -5.56528 188.561 -7.66871 185.646C-10.2443 182.072 -13.192 178.138 -13.7071 174.095C-14.1221 170.87 -12.6769 167.306 -8.4414 165.609C-7.84042 165.369 -7.29667 164.82 -7.38253 164.311C-8.45571 157.662 -8.5988 150.384 -2.77501 144.703C-0.414013 142.407 2.86276 140.57 6.75483 139.731C10.6469 138.892 14.0238 138.183 16.4707 135.728C20.5345 131.644 19.4183 125.984 23.754 122.02C28.9482 117.268 38.8501 117.537 46.0904 119.344C50.7552 120.512 55.1051 122.29 59.3836 124.007C62.9179 125.424 66.4379 126.912 69.6432 128.669C72.8484 130.426 75.5814 132.323 77.5417 134.709C78.4575 135.827 79.1444 137.005 79.5736 138.253C80.0458 139.621 80.1317 141.059 80.8042 142.397C81.4768 143.734 82.7503 144.922 84.6963 145.551C86.6423 146.18 88.9747 146.14 91.0638 146.59C94.3835 147.309 97.1452 148.986 99.0626 150.983C103.727 155.874 103.584 161.715 100.994 167.126C99.2629 170.75 96.5728 174.105 93.8255 177.389C91.35 180.344 88.7744 183.24 85.2257 185.636C82.2351 187.652 78.1284 189.559 73.7785 188.721C69.1853 187.842 66.7813 184.547 64.7208 181.832C63.433 180.125 59.727 181.642 61.0148 183.339L61.0291 183.379Z" fill="#666666"/>
</g>
<defs>
<clipPath id="clip0_3_382">
<rect width="429" height="244" fill="white" transform="translate(-18)"/>
</clipPath>
</defs>
</svg>
